<svg width="284" height="119" viewBox="0 0 284 119" fill="none" xmlns="http://www.w3.org/2000/svg">
<path d="M65 40L217 40" stroke="#BFC0BF" stroke-linecap="round"/>
<circle cx="65.5" cy="40" r="20" fill="#A2A3A2" stroke="#FDFDFD" stroke-width="8"/>
<circle cx="65.5" cy="40" r="13.5" fill="#028352" stroke="#028352" stroke-width="5"/>
<g clip-path="url(#clip0_3011_9826)">
<path d="M70.9141 30.6156C72.548 31.559 73.9072 32.9128 74.8572 34.543C75.8071 36.1732 76.3149 38.0232 76.3301 39.9099C76.3453 41.7966 75.8676 43.6546 74.9441 45.2999C74.0206 46.9452 72.6834 48.3208 71.0649 49.2905C69.4464 50.2602 67.6027 50.7903 65.7163 50.8285C63.83 50.8667 61.9663 50.4115 60.3099 49.5081C58.6535 48.6047 57.2618 47.2843 56.2725 45.6778C55.2831 44.0712 54.7306 42.234 54.6695 40.3483L54.6641 39.9973L54.6695 39.6463C54.7301 37.7754 55.2746 35.9521 56.2497 34.3542C57.2248 32.7563 58.5973 31.4384 60.2334 30.5288C61.8695 29.6193 63.7133 29.1492 65.5852 29.1644C67.457 29.1796 69.293 29.6796 70.9141 30.6156ZM69.5133 37.0647C69.3268 36.8782 69.0786 36.7661 68.8153 36.7496C68.552 36.733 68.2917 36.8131 68.0833 36.9748L67.9815 37.0647L64.4141 40.631L63.0133 39.2314L62.9115 39.1414C62.703 38.9799 62.4428 38.8999 62.1796 38.9165C61.9164 38.9331 61.6683 39.0452 61.4818 39.2316C61.2953 39.4181 61.1832 39.6663 61.1666 39.9295C61.15 40.1927 61.23 40.4529 61.3916 40.6614L61.4815 40.7632L63.6481 42.9299L63.75 43.0198C63.94 43.1672 64.1736 43.2472 64.4141 43.2472C64.6545 43.2472 64.8882 43.1672 65.0781 43.0198L65.18 42.9299L69.5133 38.5965L69.6032 38.4947C69.7649 38.2863 69.845 38.026 69.8284 37.7627C69.8119 37.4994 69.6998 37.2512 69.5133 37.0647Z" fill="#FDFDFD"/>
</g>
<rect y="73" width="132" height="22" rx="10" fill="#028352"/>
<path d="M14.424 89V80.06H15.84V89H14.424ZM17.5615 89V82.508H18.8575V83.78L18.7015 83.612C18.8615 83.204 19.1175 82.896 19.4695 82.688C19.8215 82.472 20.2295 82.364 20.6935 82.364C21.1735 82.364 21.5975 82.468 21.9655 82.676C22.3335 82.884 22.6215 83.172 22.8295 83.54C23.0375 83.908 23.1415 84.332 23.1415 84.812V89H21.7975V85.172C21.7975 84.844 21.7375 84.568 21.6175 84.344C21.4975 84.112 21.3255 83.936 21.1015 83.816C20.8855 83.688 20.6375 83.624 20.3575 83.624C20.0775 83.624 19.8255 83.688 19.6015 83.816C19.3855 83.936 19.2175 84.112 19.0975 84.344C18.9775 84.576 18.9175 84.852 18.9175 85.172V89H17.5615ZM29.8224 89.144C29.1984 89.144 28.6264 88.996 28.1064 88.7C27.5944 88.404 27.1864 88 26.8824 87.488C26.5784 86.976 26.4264 86.396 26.4264 85.748C26.4264 85.092 26.5784 84.512 26.8824 84.008C27.1864 83.496 27.5944 83.096 28.1064 82.808C28.6184 82.512 29.1904 82.364 29.8224 82.364C30.4624 82.364 31.0344 82.512 31.5384 82.808C32.0504 83.096 32.4544 83.496 32.7504 84.008C33.0544 84.512 33.2064 85.092 33.2064 85.748C33.2064 86.404 33.0544 86.988 32.7504 87.5C32.4464 88.012 32.0384 88.416 31.5264 88.712C31.0144 89 30.4464 89.144 29.8224 89.144ZM29.8224 87.884C30.2064 87.884 30.5464 87.792 30.8424 87.608C31.1384 87.424 31.3704 87.172 31.5384 86.852C31.7144 86.524 31.8024 86.156 31.8024 85.748C31.8024 85.34 31.7144 84.976 31.5384 84.656C31.3704 84.336 31.1384 84.084 30.8424 83.9C30.5464 83.716 30.2064 83.624 29.8224 83.624C29.4464 83.624 29.1064 83.716 28.8024 83.9C28.5064 84.084 28.2704 84.336 28.0944 84.656C27.9264 84.976 27.8424 85.34 27.8424 85.748C27.8424 86.156 27.9264 86.524 28.0944 86.852C28.2704 87.172 28.5064 87.424 28.8024 87.608C29.1064 87.792 29.4464 87.884 29.8224 87.884ZM34.5303 89V82.508H35.8263V83.78L35.6703 83.612C35.8303 83.204 36.0863 82.896 36.4383 82.688C36.7903 82.472 37.1983 82.364 37.6623 82.364C38.1423 82.364 38.5663 82.468 38.9343 82.676C39.3023 82.884 39.5903 83.172 39.7983 83.54C40.0063 83.908 40.1103 84.332 40.1103 84.812V89H38.7663V85.172C38.7663 84.844 38.7063 84.568 38.5863 84.344C38.4663 84.112 38.2943 83.936 38.0703 83.816C37.8543 83.688 37.6063 83.624 37.3263 83.624C37.0463 83.624 36.7943 83.688 36.5703 83.816C36.3543 83.936 36.1863 84.112 36.0663 84.344C35.9463 84.576 35.8863 84.852 35.8863 85.172V89H34.5303ZM44.5615 89.144C43.9375 89.144 43.3775 88.996 42.8815 88.7C42.3935 88.396 42.0055 87.988 41.7175 87.476C41.4375 86.964 41.2975 86.388 41.2975 85.748C41.2975 85.108 41.4415 84.532 41.7295 84.02C42.0175 83.508 42.4055 83.104 42.8935 82.808C43.3815 82.512 43.9335 82.364 44.5495 82.364C45.0695 82.364 45.5295 82.468 45.9295 82.676C46.3295 82.884 46.6455 83.172 46.8775 83.54L46.6735 83.852V79.916H48.0175V89H46.7335V87.68L46.8895 87.932C46.6655 88.324 46.3455 88.624 45.9295 88.832C45.5135 89.04 45.0575 89.144 44.5615 89.144ZM44.6935 87.884C45.0695 87.884 45.4055 87.792 45.7015 87.608C46.0055 87.424 46.2415 87.172 46.4095 86.852C46.5855 86.524 46.6735 86.156 46.6735 85.748C46.6735 85.34 46.5855 84.976 46.4095 84.656C46.2415 84.336 46.0055 84.084 45.7015 83.9C45.4055 83.716 45.0695 83.624 44.6935 83.624C44.3175 83.624 43.9775 83.716 43.6735 83.9C43.3695 84.084 43.1335 84.336 42.9655 84.656C42.7975 84.976 42.7135 85.34 42.7135 85.748C42.7135 86.156 42.7975 86.524 42.9655 86.852C43.1335 87.172 43.3655 87.424 43.6615 87.608C43.9655 87.792 44.3095 87.884 44.6935 87.884ZM52.6486 89.144C52.0006 89.144 51.4246 88.996 50.9206 88.7C50.4246 88.396 50.0366 87.988 49.7566 87.476C49.4766 86.956 49.3366 86.376 49.3366 85.736C49.3366 85.08 49.4766 84.5 49.7566 83.996C50.0446 83.492 50.4286 83.096 50.9086 82.808C51.3886 82.512 51.9326 82.364 52.5406 82.364C53.0286 82.364 53.4646 82.448 53.8486 82.616C54.2326 82.784 54.5566 83.016 54.8206 83.312C55.0846 83.6 55.2846 83.932 55.4206 84.308C55.5646 84.684 55.6366 85.084 55.6366 85.508C55.6366 85.612 55.6326 85.72 55.6246 85.832C55.6166 85.944 55.6006 86.048 55.5766 86.144H50.4046V85.064H54.8086L54.1606 85.556C54.2406 85.164 54.2126 84.816 54.0766 84.512C53.9486 84.2 53.7486 83.956 53.4766 83.78C53.2126 83.596 52.9006 83.504 52.5406 83.504C52.1806 83.504 51.8606 83.596 51.5806 83.78C51.3006 83.956 51.0846 84.212 50.9326 84.548C50.7806 84.876 50.7206 85.276 50.7526 85.748C50.7126 86.188 50.7726 86.572 50.9326 86.9C51.1006 87.228 51.3326 87.484 51.6286 87.668C51.9326 87.852 52.2766 87.944 52.6606 87.944C53.0526 87.944 53.3846 87.856 53.6566 87.68C53.9366 87.504 54.1566 87.276 54.3166 86.996L55.4206 87.536C55.2926 87.84 55.0926 88.116 54.8206 88.364C54.5566 88.604 54.2366 88.796 53.8606 88.94C53.4926 89.076 53.0886 89.144 52.6486 89.144ZM56.96 89V82.508H58.256V83.816L58.136 83.624C58.28 83.2 58.512 82.896 58.832 82.712C59.152 82.52 59.536 82.424 59.984 82.424H60.38V83.66H59.816C59.368 83.66 59.004 83.8 58.724 84.08C58.452 84.352 58.316 84.744 58.316 85.256V89H56.96ZM61.3076 89V79.916H62.6636V83.78L62.4476 83.612C62.6076 83.204 62.8636 82.896 63.2156 82.688C63.5676 82.472 63.9756 82.364 64.4396 82.364C64.9196 82.364 65.3436 82.468 65.7116 82.676C66.0796 82.884 66.3676 83.172 66.5756 83.54C66.7836 83.908 66.8876 84.328 66.8876 84.8V89H65.5436V85.172C65.5436 84.844 65.4796 84.568 65.3516 84.344C65.2316 84.112 65.0636 83.936 64.8476 83.816C64.6316 83.688 64.3836 83.624 64.1036 83.624C63.8316 83.624 63.5836 83.688 63.3596 83.816C63.1436 83.936 62.9716 84.112 62.8436 84.344C62.7236 84.576 62.6636 84.852 62.6636 85.172V89H61.3076ZM70.2829 89.144C69.8429 89.144 69.4549 89.068 69.1189 88.916C68.7909 88.756 68.5349 88.54 68.3509 88.268C68.1669 87.988 68.0749 87.66 68.0749 87.284C68.0749 86.932 68.1509 86.616 68.3029 86.336C68.4629 86.056 68.7069 85.82 69.0349 85.628C69.3629 85.436 69.7749 85.3 70.2709 85.22L72.5269 84.848V85.916L70.5349 86.264C70.1749 86.328 69.9109 86.444 69.7429 86.612C69.5749 86.772 69.4909 86.98 69.4909 87.236C69.4909 87.484 69.5829 87.688 69.7669 87.848C69.9589 88 70.2029 88.076 70.4989 88.076C70.8669 88.076 71.1869 87.996 71.4589 87.836C71.7389 87.676 71.9549 87.464 72.1069 87.2C72.2589 86.928 72.3349 86.628 72.3349 86.3V84.632C72.3349 84.312 72.2149 84.052 71.9749 83.852C71.7429 83.644 71.4309 83.54 71.0389 83.54C70.6789 83.54 70.3629 83.636 70.0909 83.828C69.8269 84.012 69.6309 84.252 69.5029 84.548L68.3749 83.984C68.4949 83.664 68.6909 83.384 68.9629 83.144C69.2349 82.896 69.5509 82.704 69.9109 82.568C70.2789 82.432 70.6669 82.364 71.0749 82.364C71.5869 82.364 72.0389 82.46 72.4309 82.652C72.8309 82.844 73.1389 83.112 73.3549 83.456C73.5789 83.792 73.6909 84.184 73.6909 84.632V89H72.3949V87.824L72.6709 87.86C72.5189 88.124 72.3229 88.352 72.0829 88.544C71.8509 88.736 71.5829 88.884 71.2789 88.988C70.9829 89.092 70.6509 89.144 70.2829 89.144ZM75.2764 89V82.508H76.5724V83.78L76.4164 83.612C76.5764 83.204 76.8324 82.896 77.1844 82.688C77.5364 82.472 77.9444 82.364 78.4084 82.364C78.8884 82.364 79.3124 82.468 79.6804 82.676C80.0484 82.884 80.3364 83.172 80.5444 83.54C80.7524 83.908 80.8564 84.332 80.8564 84.812V89H79.5124V85.172C79.5124 84.844 79.4524 84.568 79.3324 84.344C79.2124 84.112 79.0404 83.936 78.8164 83.816C78.6004 83.688 78.3524 83.624 78.0724 83.624C77.7924 83.624 77.5404 83.688 77.3164 83.816C77.1004 83.936 76.9324 84.112 76.8124 84.344C76.6924 84.576 76.6324 84.852 76.6324 85.172V89H75.2764ZM85.3076 89.144C84.6836 89.144 84.1236 88.996 83.6276 88.7C83.1396 88.396 82.7516 87.988 82.4636 87.476C82.1836 86.964 82.0436 86.388 82.0436 85.748C82.0436 85.108 82.1876 84.532 82.4756 84.02C82.7636 83.508 83.1516 83.104 83.6396 82.808C84.1276 82.512 84.6796 82.364 85.2956 82.364C85.8156 82.364 86.2756 82.468 86.6756 82.676C87.0756 82.884 87.3916 83.172 87.6236 83.54L87.4196 83.852V79.916H88.7636V89H87.4796V87.68L87.6356 87.932C87.4116 88.324 87.0916 88.624 86.6756 88.832C86.2596 89.04 85.8036 89.144 85.3076 89.144ZM85.4396 87.884C85.8156 87.884 86.1516 87.792 86.4476 87.608C86.7516 87.424 86.9876 87.172 87.1556 86.852C87.3316 86.524 87.4196 86.156 87.4196 85.748C87.4196 85.34 87.3316 84.976 87.1556 84.656C86.9876 84.336 86.7516 84.084 86.4476 83.9C86.1516 83.716 85.8156 83.624 85.4396 83.624C85.0636 83.624 84.7236 83.716 84.4196 83.9C84.1156 84.084 83.8796 84.336 83.7116 84.656C83.5436 84.976 83.4596 85.34 83.4596 85.748C83.4596 86.156 83.5436 86.524 83.7116 86.852C83.8796 87.172 84.1116 87.424 84.4076 87.608C84.7116 87.792 85.0556 87.884 85.4396 87.884ZM93.3947 89.144C92.7467 89.144 92.1707 88.996 91.6667 88.7C91.1707 88.396 90.7827 87.988 90.5027 87.476C90.2227 86.956 90.0827 86.376 90.0827 85.736C90.0827 85.08 90.2227 84.5 90.5027 83.996C90.7907 83.492 91.1747 83.096 91.6547 82.808C92.1347 82.512 92.6787 82.364 93.2867 82.364C93.7747 82.364 94.2107 82.448 94.5947 82.616C94.9787 82.784 95.3027 83.016 95.5667 83.312C95.8307 83.6 96.0307 83.932 96.1667 84.308C96.3107 84.684 96.3827 85.084 96.3827 85.508C96.3827 85.612 96.3787 85.72 96.3707 85.832C96.3627 85.944 96.3467 86.048 96.3227 86.144H91.1507V85.064H95.5547L94.9067 85.556C94.9867 85.164 94.9587 84.816 94.8227 84.512C94.6947 84.2 94.4947 83.956 94.2227 83.78C93.9587 83.596 93.6467 83.504 93.2867 83.504C92.9267 83.504 92.6067 83.596 92.3267 83.78C92.0467 83.956 91.8307 84.212 91.6787 84.548C91.5267 84.876 91.4667 85.276 91.4987 85.748C91.4587 86.188 91.5187 86.572 91.6787 86.9C91.8467 87.228 92.0787 87.484 92.3747 87.668C92.6787 87.852 93.0227 87.944 93.4067 87.944C93.7987 87.944 94.1307 87.856 94.4027 87.68C94.6827 87.504 94.9027 87.276 95.0627 86.996L96.1667 87.536C96.0387 87.84 95.8387 88.116 95.5667 88.364C95.3027 88.604 94.9827 88.796 94.6067 88.94C94.2387 89.076 93.8347 89.144 93.3947 89.144ZM97.7061 89V79.916H99.0621V89H97.7061ZM100.647 89V82.508H102.003V89H100.647ZM100.647 81.62V80.06H102.003V81.62H100.647ZM103.589 89V82.508H104.885V83.78L104.729 83.612C104.889 83.204 105.145 82.896 105.497 82.688C105.849 82.472 106.257 82.364 106.721 82.364C107.201 82.364 107.625 82.468 107.993 82.676C108.361 82.884 108.649 83.172 108.857 83.54C109.065 83.908 109.169 84.332 109.169 84.812V89H107.825V85.172C107.825 84.844 107.765 84.568 107.645 84.344C107.525 84.112 107.353 83.936 107.129 83.816C106.913 83.688 106.665 83.624 106.385 83.624C106.105 83.624 105.853 83.688 105.629 83.816C105.413 83.936 105.245 84.112 105.125 84.344C105.005 84.576 104.945 84.852 104.945 85.172V89H103.589ZM113.752 91.64C113.28 91.64 112.844 91.564 112.444 91.412C112.044 91.26 111.7 91.048 111.412 90.776C111.124 90.512 110.908 90.2 110.764 89.84L112.012 89.324C112.124 89.628 112.328 89.88 112.624 90.08C112.928 90.28 113.3 90.38 113.74 90.38C114.084 90.38 114.392 90.312 114.664 90.176C114.936 90.048 115.152 89.856 115.312 89.6C115.472 89.352 115.552 89.052 115.552 88.7V87.236L115.792 87.512C115.568 87.928 115.256 88.244 114.856 88.46C114.464 88.676 114.02 88.784 113.524 88.784C112.924 88.784 112.384 88.644 111.904 88.364C111.424 88.084 111.044 87.7 110.764 87.212C110.492 86.724 110.356 86.176 110.356 85.568C110.356 84.952 110.492 84.404 110.764 83.924C111.044 83.444 111.42 83.064 111.892 82.784C112.364 82.504 112.904 82.364 113.512 82.364C114.008 82.364 114.448 82.472 114.832 82.688C115.224 82.896 115.544 83.2 115.792 83.6L115.612 83.936V82.508H116.896V88.7C116.896 89.26 116.76 89.76 116.488 90.2C116.224 90.648 115.856 91 115.384 91.256C114.912 91.512 114.368 91.64 113.752 91.64ZM113.68 87.524C114.04 87.524 114.36 87.44 114.64 87.272C114.92 87.096 115.14 86.864 115.3 86.576C115.468 86.28 115.552 85.948 115.552 85.58C115.552 85.212 115.468 84.88 115.3 84.584C115.132 84.288 114.908 84.056 114.628 83.888C114.348 83.712 114.032 83.624 113.68 83.624C113.312 83.624 112.984 83.712 112.696 83.888C112.408 84.056 112.18 84.288 112.012 84.584C111.852 84.872 111.772 85.204 111.772 85.58C111.772 85.94 111.852 86.268 112.012 86.564C112.18 86.86 112.408 87.096 112.696 87.272C112.984 87.44 113.312 87.524 113.68 87.524Z" fill="#FDFDFD"/>
<circle cx="217.5" cy="40" r="20" fill="#A2A3A2" stroke="#FDFDFD" stroke-width="8"/>
<circle cx="217.5" cy="40" r="13.5" fill="#DAD8D8" stroke="#F0F0F0" stroke-width="5"/>
<rect x="152" y="73" width="132" height="22" rx="10" fill="#F0F0F0"/>
<path d="M179.132 89L182.276 80.06H184.028L187.172 89H185.66L184.976 86.996H181.34L180.644 89H179.132ZM181.748 85.736H184.544L182.96 81.056H183.356L181.748 85.736ZM190.045 89.144C189.605 89.144 189.217 89.068 188.881 88.916C188.553 88.756 188.297 88.54 188.113 88.268C187.929 87.988 187.837 87.66 187.837 87.284C187.837 86.932 187.913 86.616 188.065 86.336C188.225 86.056 188.469 85.82 188.797 85.628C189.125 85.436 189.537 85.3 190.033 85.22L192.289 84.848V85.916L190.297 86.264C189.937 86.328 189.673 86.444 189.505 86.612C189.337 86.772 189.253 86.98 189.253 87.236C189.253 87.484 189.345 87.688 189.529 87.848C189.721 88 189.965 88.076 190.261 88.076C190.629 88.076 190.949 87.996 191.221 87.836C191.501 87.676 191.717 87.464 191.869 87.2C192.021 86.928 192.097 86.628 192.097 86.3V84.632C192.097 84.312 191.977 84.052 191.737 83.852C191.505 83.644 191.193 83.54 190.801 83.54C190.441 83.54 190.125 83.636 189.853 83.828C189.589 84.012 189.393 84.252 189.265 84.548L188.137 83.984C188.257 83.664 188.453 83.384 188.725 83.144C188.997 82.896 189.313 82.704 189.673 82.568C190.041 82.432 190.429 82.364 190.837 82.364C191.349 82.364 191.801 82.46 192.193 82.652C192.593 82.844 192.901 83.112 193.117 83.456C193.341 83.792 193.453 84.184 193.453 84.632V89H192.157V87.824L192.433 87.86C192.281 88.124 192.085 88.352 191.845 88.544C191.613 88.736 191.345 88.884 191.041 88.988C190.745 89.092 190.413 89.144 190.045 89.144ZM195.038 89V82.508H196.334V83.78L196.178 83.612C196.338 83.204 196.594 82.896 196.946 82.688C197.298 82.472 197.706 82.364 198.17 82.364C198.65 82.364 199.074 82.468 199.442 82.676C199.81 82.884 200.098 83.172 200.306 83.54C200.514 83.908 200.618 84.332 200.618 84.812V89H199.274V85.172C199.274 84.844 199.214 84.568 199.094 84.344C198.974 84.112 198.802 83.936 198.578 83.816C198.362 83.688 198.114 83.624 197.834 83.624C197.554 83.624 197.302 83.688 197.078 83.816C196.862 83.936 196.694 84.112 196.574 84.344C196.454 84.576 196.394 84.852 196.394 85.172V89H195.038ZM205.201 91.64C204.729 91.64 204.293 91.564 203.893 91.412C203.493 91.26 203.149 91.048 202.861 90.776C202.573 90.512 202.357 90.2 202.213 89.84L203.461 89.324C203.573 89.628 203.777 89.88 204.073 90.08C204.377 90.28 204.749 90.38 205.189 90.38C205.533 90.38 205.841 90.312 206.113 90.176C206.385 90.048 206.601 89.856 206.761 89.6C206.921 89.352 207.001 89.052 207.001 88.7V87.236L207.241 87.512C207.017 87.928 206.705 88.244 206.305 88.46C205.913 88.676 205.469 88.784 204.973 88.784C204.373 88.784 203.833 88.644 203.353 88.364C202.873 88.084 202.493 87.7 202.213 87.212C201.941 86.724 201.805 86.176 201.805 85.568C201.805 84.952 201.941 84.404 202.213 83.924C202.493 83.444 202.869 83.064 203.341 82.784C203.813 82.504 204.353 82.364 204.961 82.364C205.457 82.364 205.897 82.472 206.281 82.688C206.673 82.896 206.993 83.2 207.241 83.6L207.061 83.936V82.508H208.345V88.7C208.345 89.26 208.209 89.76 207.937 90.2C207.673 90.648 207.305 91 206.833 91.256C206.361 91.512 205.817 91.64 205.201 91.64ZM205.129 87.524C205.489 87.524 205.809 87.44 206.089 87.272C206.369 87.096 206.589 86.864 206.749 86.576C206.917 86.28 207.001 85.948 207.001 85.58C207.001 85.212 206.917 84.88 206.749 84.584C206.581 84.288 206.357 84.056 206.077 83.888C205.797 83.712 205.481 83.624 205.129 83.624C204.761 83.624 204.433 83.712 204.145 83.888C203.857 84.056 203.629 84.288 203.461 84.584C203.301 84.872 203.221 85.204 203.221 85.58C203.221 85.94 203.301 86.268 203.461 86.564C203.629 86.86 203.857 87.096 204.145 87.272C204.433 87.44 204.761 87.524 205.129 87.524ZM212.981 89.144C212.333 89.144 211.757 88.996 211.253 88.7C210.757 88.396 210.369 87.988 210.089 87.476C209.809 86.956 209.669 86.376 209.669 85.736C209.669 85.08 209.809 84.5 210.089 83.996C210.377 83.492 210.761 83.096 211.241 82.808C211.721 82.512 212.265 82.364 212.873 82.364C213.361 82.364 213.797 82.448 214.181 82.616C214.565 82.784 214.889 83.016 215.153 83.312C215.417 83.6 215.617 83.932 215.753 84.308C215.897 84.684 215.969 85.084 215.969 85.508C215.969 85.612 215.965 85.72 215.957 85.832C215.949 85.944 215.933 86.048 215.909 86.144H210.737V85.064H215.141L214.493 85.556C214.573 85.164 214.545 84.816 214.409 84.512C214.281 84.2 214.081 83.956 213.809 83.78C213.545 83.596 213.233 83.504 212.873 83.504C212.513 83.504 212.193 83.596 211.913 83.78C211.633 83.956 211.417 84.212 211.265 84.548C211.113 84.876 211.053 85.276 211.085 85.748C211.045 86.188 211.105 86.572 211.265 86.9C211.433 87.228 211.665 87.484 211.961 87.668C212.265 87.852 212.609 87.944 212.993 87.944C213.385 87.944 213.717 87.856 213.989 87.68C214.269 87.504 214.489 87.276 214.649 86.996L215.753 87.536C215.625 87.84 215.425 88.116 215.153 88.364C214.889 88.604 214.569 88.796 214.193 88.94C213.825 89.076 213.421 89.144 212.981 89.144ZM217.292 89V82.508H218.588V83.78L218.432 83.612C218.592 83.204 218.848 82.896 219.2 82.688C219.552 82.472 219.96 82.364 220.424 82.364C220.904 82.364 221.328 82.468 221.696 82.676C222.064 82.884 222.352 83.172 222.56 83.54C222.768 83.908 222.872 84.332 222.872 84.812V89H221.528V85.172C221.528 84.844 221.468 84.568 221.348 84.344C221.228 84.112 221.056 83.936 220.832 83.816C220.616 83.688 220.368 83.624 220.088 83.624C219.808 83.624 219.556 83.688 219.332 83.816C219.116 83.936 218.948 84.112 218.828 84.344C218.708 84.576 218.648 84.852 218.648 85.172V89H217.292ZM227.455 89.144C226.831 89.144 226.259 88.996 225.739 88.7C225.227 88.404 224.819 88 224.515 87.488C224.211 86.976 224.059 86.396 224.059 85.748C224.059 85.092 224.211 84.512 224.515 84.008C224.819 83.496 225.227 83.096 225.739 82.808C226.251 82.512 226.823 82.364 227.455 82.364C228.095 82.364 228.667 82.512 229.171 82.808C229.683 83.096 230.087 83.496 230.383 84.008C230.687 84.512 230.839 85.092 230.839 85.748C230.839 86.404 230.687 86.988 230.383 87.5C230.079 88.012 229.671 88.416 229.159 88.712C228.647 89 228.079 89.144 227.455 89.144ZM227.455 87.884C227.839 87.884 228.179 87.792 228.475 87.608C228.771 87.424 229.003 87.172 229.171 86.852C229.347 86.524 229.435 86.156 229.435 85.748C229.435 85.34 229.347 84.976 229.171 84.656C229.003 84.336 228.771 84.084 228.475 83.9C228.179 83.716 227.839 83.624 227.455 83.624C227.079 83.624 226.739 83.716 226.435 83.9C226.139 84.084 225.903 84.336 225.727 84.656C225.559 84.976 225.475 85.34 225.475 85.748C225.475 86.156 225.559 86.524 225.727 86.852C225.903 87.172 226.139 87.424 226.435 87.608C226.739 87.792 227.079 87.884 227.455 87.884ZM232.163 89V82.508H233.459V83.912L233.291 83.696C233.427 83.256 233.675 82.924 234.035 82.7C234.395 82.476 234.807 82.364 235.271 82.364C235.791 82.364 236.251 82.504 236.651 82.784C237.059 83.056 237.331 83.42 237.467 83.876L237.083 83.912C237.275 83.392 237.567 83.004 237.959 82.748C238.359 82.492 238.815 82.364 239.327 82.364C239.775 82.364 240.179 82.468 240.539 82.676C240.907 82.884 241.199 83.172 241.415 83.54C241.631 83.908 241.739 84.328 241.739 84.8V89H240.383V85.172C240.383 84.844 240.323 84.568 240.203 84.344C240.091 84.112 239.931 83.936 239.723 83.816C239.523 83.688 239.287 83.624 239.015 83.624C238.743 83.624 238.503 83.688 238.295 83.816C238.087 83.936 237.923 84.112 237.803 84.344C237.683 84.576 237.623 84.852 237.623 85.172V89H236.279V85.172C236.279 84.844 236.219 84.568 236.099 84.344C235.987 84.112 235.827 83.936 235.619 83.816C235.419 83.688 235.179 83.624 234.899 83.624C234.627 83.624 234.387 83.688 234.179 83.816C233.971 83.936 233.807 84.112 233.687 84.344C233.575 84.576 233.519 84.852 233.519 85.172V89H232.163ZM246.238 89.144C245.59 89.144 245.014 88.996 244.51 88.7C244.014 88.396 243.626 87.988 243.346 87.476C243.066 86.956 242.926 86.376 242.926 85.736C242.926 85.08 243.066 84.5 243.346 83.996C243.634 83.492 244.018 83.096 244.498 82.808C244.978 82.512 245.522 82.364 246.13 82.364C246.618 82.364 247.054 82.448 247.438 82.616C247.822 82.784 248.146 83.016 248.41 83.312C248.674 83.6 248.874 83.932 249.01 84.308C249.154 84.684 249.226 85.084 249.226 85.508C249.226 85.612 249.222 85.72 249.214 85.832C249.206 85.944 249.19 86.048 249.166 86.144H243.994V85.064H248.398L247.75 85.556C247.83 85.164 247.802 84.816 247.666 84.512C247.538 84.2 247.338 83.956 247.066 83.78C246.802 83.596 246.49 83.504 246.13 83.504C245.77 83.504 245.45 83.596 245.17 83.78C244.89 83.956 244.674 84.212 244.522 84.548C244.37 84.876 244.31 85.276 244.342 85.748C244.302 86.188 244.362 86.572 244.522 86.9C244.69 87.228 244.922 87.484 245.218 87.668C245.522 87.852 245.866 87.944 246.25 87.944C246.642 87.944 246.974 87.856 247.246 87.68C247.526 87.504 247.746 87.276 247.906 86.996L249.01 87.536C248.882 87.84 248.682 88.116 248.41 88.364C248.146 88.604 247.826 88.796 247.45 88.94C247.082 89.076 246.678 89.144 246.238 89.144ZM250.55 89V82.508H251.846V83.78L251.69 83.612C251.85 83.204 252.106 82.896 252.458 82.688C252.81 82.472 253.218 82.364 253.682 82.364C254.162 82.364 254.586 82.468 254.954 82.676C255.322 82.884 255.61 83.172 255.818 83.54C256.026 83.908 256.13 84.332 256.13 84.812V89H254.786V85.172C254.786 84.844 254.726 84.568 254.606 84.344C254.486 84.112 254.314 83.936 254.09 83.816C253.874 83.688 253.626 83.624 253.346 83.624C253.066 83.624 252.814 83.688 252.59 83.816C252.374 83.936 252.206 84.112 252.086 84.344C251.966 84.576 251.906 84.852 251.906 85.172V89H250.55Z" fill="#676868"/>
<defs>
<clipPath id="clip0_3011_9826">
<rect width="26" height="26" fill="white" transform="translate(52.5 27)"/>
</clipPath>
</defs>
</svg>
