<svg width="75" height="75" viewBox="0 0 75 75" fill="none" xmlns="http://www.w3.org/2000/svg">
<g clip-path="url(#clip0_2929_7435)">
<path d="M74.7497 22.0678C74.7497 16.3948 69.0768 11.4727 62.5695 11.2224C62.5695 11.2224 55.6452 10.4715 53.5595 11.2224C51.5573 11.8898 4.1713 27.7407 4.1713 27.7407C1.50167 28.9921 0.083426 30.4104 0 32.5794C0 39.3369 3.92102 39.7541 8.0089 39.7541L59.0656 37.9187C62.069 37.8353 64.1546 35.9165 64.1546 33.08V24.8208C64.1546 20.8998 58.9822 20.4827 58.6485 24.1534L58.0645 25.4048C58.0645 29.3258 53.2258 29.3258 53.2258 25.3214V22.2346C53.2258 19.8153 55.4783 17.1456 58.3982 17.3959L63.5706 17.4793C66.8242 17.7296 69.911 19.2313 69.911 24.07V38.0021C69.911 41.0055 67.4082 42.9243 64.1546 42.8408L7.75862 43.1745L7.84205 48.9309V55.1879L8.50945 53.7697L9.76085 55.5216L10.5117 54.0199L11.8465 55.7719L12.6808 54.1868L14.099 56.0222L15.0167 54.3536L16.5184 56.2724L17.5195 54.6039L19.188 56.6061L20.2725 54.8542L22.0245 56.9398L23.1924 55.1045L25.1112 57.357L26.4461 55.4382L28.5317 57.7741L30.0334 55.7719L32.2859 58.1912L33.9544 56.1056L36.4572 58.6918L38.2925 56.5227L41.0456 59.2758L43.1313 57.0233L46.218 59.9432L48.5539 57.5238L51.9744 60.694L54.7275 58.1912L58.6485 61.5283L61.8187 58.8586L66.2403 62.5294L69.911 59.6929L75 63.6139L74.7497 22.0678Z" fill="#035E46"/>
</g>
<defs>
<clipPath id="clip0_2929_7435">
<rect width="75" height="75" fill="white"/>
</clipPath>
</defs>
</svg>
