<svg width="75" height="75" viewBox="0 0 75 75" fill="none" xmlns="http://www.w3.org/2000/svg">
<path fill-rule="evenodd" clip-rule="evenodd" d="M63.7786 55.3882H55.2622C55.5756 56.9058 56.1657 58.4224 57.0285 59.9394C57.115 60.0913 57.1918 60.2488 57.2577 60.4109C57.2577 60.4115 57.2577 60.4121 57.2582 60.4127C57.6988 61.5052 58.0237 62.5983 58.2351 63.6909C58.246 63.7453 58.2511 63.8003 58.2511 63.8542H62.0599C63.0092 63.8542 63.7786 63.0847 63.7786 62.1354V55.3882Z" fill="#035E46"/>
<path fill-rule="evenodd" clip-rule="evenodd" d="M45.7589 63.8542H56.5149C56.3235 62.9215 56.0405 61.9893 55.6641 61.0566L55.5346 60.7902C54.5108 58.9895 53.8296 57.1889 53.4973 55.3882H42.77C43.0834 56.9058 43.6735 58.4224 44.5363 59.9394C44.6228 60.0913 44.6996 60.2488 44.7649 60.4109C44.7655 60.4115 44.7655 60.4121 44.7661 60.4127C45.2066 61.5052 45.5315 62.5983 45.7429 63.6909C45.7538 63.7453 45.7589 63.8003 45.7589 63.8542Z" fill="#035E46"/>
<path fill-rule="evenodd" clip-rule="evenodd" d="M33.2667 63.8542H44.0232C43.8318 62.9215 43.5482 61.9893 43.1724 61.0566L43.0429 60.7902C42.0191 58.9895 41.3379 57.1889 41.0056 55.3882H30.2783C30.5917 56.9058 31.1818 58.4224 32.0446 59.9394C32.1311 60.0913 32.2079 60.2488 32.2732 60.4109C32.2738 60.4115 32.2738 60.4121 32.2744 60.4127C32.7149 61.5052 33.0392 62.5983 33.2512 63.6909C33.2621 63.7453 33.2672 63.8003 33.2667 63.8542Z" fill="#035E46"/>
<path fill-rule="evenodd" clip-rule="evenodd" d="M20.7745 63.8542H31.531C31.3396 62.9215 31.056 61.9893 30.6802 61.0566L30.5507 60.7902C29.5263 58.9895 28.8457 57.1889 28.5134 55.3882H17.7861C18.0995 56.9058 18.6896 58.4224 19.5524 59.9394C19.6389 60.0913 19.7151 60.2488 19.781 60.4109C19.7816 60.4115 19.7816 60.4121 19.7822 60.4127C20.2227 61.5052 20.547 62.5983 20.759 63.6909C20.7699 63.7453 20.775 63.8003 20.7745 63.8542Z" fill="#035E46"/>
<path fill-rule="evenodd" clip-rule="evenodd" d="M11.0703 55.3882V62.1354C11.0703 63.0847 11.8397 63.8542 12.7891 63.8542H19.0396C18.8482 62.9215 18.5646 61.9893 18.1888 61.0566L18.0593 60.7902C17.0349 58.9895 16.3543 57.1889 16.022 55.3882H11.0703Z" fill="#035E46"/>
<path fill-rule="evenodd" clip-rule="evenodd" d="M63.7782 44.0359H57.7832C57.5953 44.5349 57.3873 45.0345 57.1599 45.5341C57.1473 45.5616 57.1335 45.5885 57.118 45.6143C55.5328 48.2995 54.843 50.9848 55.0258 53.6695H63.7782V44.0359Z" fill="#035E46"/>
<path fill-rule="evenodd" clip-rule="evenodd" d="M11.0703 44.0359V53.6695H15.8112C15.6307 50.7058 16.399 47.7427 18.1395 44.779C18.2518 44.5309 18.359 44.2834 18.4609 44.0359H11.0703Z" fill="#035E46"/>
<path fill-rule="evenodd" clip-rule="evenodd" d="M30.9524 44.0359H20.3076C20.1197 44.5349 19.9117 45.0345 19.6843 45.5341C19.6717 45.5616 19.6574 45.5885 19.6419 45.6143C18.0566 48.2995 17.3674 50.9848 17.5502 53.6695H28.3027C28.1222 50.7058 28.8905 47.7427 30.6316 44.779C30.7439 44.5309 30.8504 44.2834 30.9524 44.0359Z" fill="#035E46"/>
<path fill-rule="evenodd" clip-rule="evenodd" d="M43.4446 44.0359H32.7998C32.6119 44.5349 32.4039 45.0345 32.1765 45.5341C32.1639 45.5616 32.1496 45.5885 32.1347 45.6143C30.5488 48.2995 29.8596 50.9848 30.0424 53.6695H40.7949C40.6144 50.7058 41.3827 47.7427 43.1238 44.779C43.2361 44.5309 43.3426 44.2834 43.4446 44.0359Z" fill="#035E46"/>
<path fill-rule="evenodd" clip-rule="evenodd" d="M55.9363 44.0359H45.2915C45.1036 44.5349 44.8956 45.0345 44.6682 45.5341C44.6556 45.5616 44.6418 45.5885 44.6264 45.6143C43.0405 48.2995 42.3513 50.9848 42.5341 53.6695H53.2866C53.1061 50.7058 53.8744 47.7427 55.6155 44.779C55.7278 44.5309 55.8349 44.2834 55.9363 44.0359Z" fill="#035E46"/>
<path fill-rule="evenodd" clip-rule="evenodd" d="M63.7786 32.6829H58.4023C59.3138 35.8941 59.2577 39.1058 58.3496 42.317H63.7786V32.6829Z" fill="#035E46"/>
<path fill-rule="evenodd" clip-rule="evenodd" d="M11.0703 42.317H19.0791C20.072 39.1058 20.1396 35.8946 19.129 32.6829H11.0703V42.317Z" fill="#035E46"/>
<path fill-rule="evenodd" clip-rule="evenodd" d="M31.6208 32.6829H20.9262C21.8382 35.8941 21.7815 39.1058 20.874 42.317H31.5715C32.5638 39.1058 32.6314 35.8946 31.6208 32.6829Z" fill="#035E46"/>
<path fill-rule="evenodd" clip-rule="evenodd" d="M44.1131 32.6829H33.4179C34.3299 35.8941 34.2738 39.1058 33.3657 42.317H44.0632C45.0555 39.1058 45.1231 35.8946 44.1131 32.6829Z" fill="#035E46"/>
<path fill-rule="evenodd" clip-rule="evenodd" d="M56.6048 32.6829H45.9101C46.8216 35.8941 46.7655 39.1058 45.8574 42.317H56.5549C57.5472 39.1058 57.6148 35.8946 56.6048 32.6829Z" fill="#035E46"/>
<path fill-rule="evenodd" clip-rule="evenodd" d="M63.7782 21.3306H55.35C55.2371 24.0382 55.8857 26.7452 57.1535 29.4522C57.4005 29.9558 57.6228 30.46 57.8204 30.9642H63.7782V21.3306Z" fill="#035E46"/>
<path fill-rule="evenodd" clip-rule="evenodd" d="M11.0703 21.3306V30.9642H18.4844C18.3739 30.7104 18.2558 30.4554 18.1309 30.201C18.1286 30.1965 18.1264 30.1919 18.1246 30.1873C16.741 27.235 16.0346 24.2828 16.1452 21.3306H11.0703Z" fill="#035E46"/>
<path fill-rule="evenodd" clip-rule="evenodd" d="M28.6367 21.3306H17.8744C17.7616 24.0382 18.4101 26.7452 19.6774 29.4522C19.9243 29.9558 20.1466 30.46 20.3448 30.9642H30.9759C30.8653 30.7104 30.7473 30.4554 30.6224 30.201C30.6201 30.1965 30.6178 30.1919 30.6161 30.1873C29.2325 27.235 28.5261 24.2828 28.6367 21.3306Z" fill="#035E46"/>
<path fill-rule="evenodd" clip-rule="evenodd" d="M41.1289 21.3306H30.3666C30.2537 24.0382 30.9023 26.7452 32.1696 29.4522C32.4171 29.9558 32.6388 30.46 32.837 30.9642H43.4686C43.3575 30.7104 43.2395 30.4554 43.1146 30.201C43.1123 30.1965 43.1106 30.1919 43.1083 30.1873C41.7247 27.235 41.0183 24.2828 41.1289 21.3306Z" fill="#035E46"/>
<path fill-rule="evenodd" clip-rule="evenodd" d="M53.6211 21.3306H42.8583C42.7454 24.0382 43.394 26.7452 44.6613 29.4522C44.9088 29.9558 45.1311 30.46 45.3287 30.9642H55.9603C55.8492 30.7104 55.7317 30.4554 55.6063 30.201C55.604 30.1965 55.6023 30.1919 55.6 30.1873C54.2164 27.235 53.5105 24.2828 53.6211 21.3306Z" fill="#035E46"/>
<path fill-rule="evenodd" clip-rule="evenodd" d="M11.0703 19.6119H16.3028C16.572 17.7768 17.1667 15.9423 18.1212 14.1073L18.1676 14.0208C18.697 13.0623 19.1083 12.1044 19.3931 11.1459H12.7891C11.8397 11.1459 11.0703 11.9153 11.0703 12.8646V19.6119Z" fill="#035E46"/>
<path fill-rule="evenodd" clip-rule="evenodd" d="M58.6219 11.1459C58.6219 11.2215 58.6122 11.2983 58.591 11.3745C58.2707 12.5335 57.7872 13.6931 57.1472 14.8515L57.1209 14.9008C56.3045 16.4711 55.782 18.0421 55.5259 19.6119H63.7782V12.8646C63.7782 11.9153 63.0087 11.1459 62.0594 11.1459H58.6219Z" fill="#035E46"/>
<path fill-rule="evenodd" clip-rule="evenodd" d="M46.1303 11.1459C46.1303 11.2215 46.1206 11.2983 46.0994 11.3745C45.7791 12.5335 45.2956 13.6931 44.6556 14.8515L44.6293 14.9008C43.8129 16.4711 43.2898 18.0421 43.0337 19.6119H53.7787C54.0474 17.7768 54.6421 15.9423 55.5966 14.1073L55.643 14.0208C56.1724 13.0623 56.5837 12.1044 56.8685 11.1459H46.1303Z" fill="#035E46"/>
<path fill-rule="evenodd" clip-rule="evenodd" d="M33.6386 11.1459C33.6386 11.2215 33.6289 11.2983 33.6077 11.3745C33.2874 12.5335 32.8039 13.6931 32.1639 14.8515L32.1376 14.9008C31.3212 16.4711 30.7981 18.0421 30.542 19.6119H41.287C41.5557 17.7768 42.1504 15.9423 43.1049 14.1073L43.1513 14.0208C43.6807 13.0623 44.092 12.1044 44.3768 11.1459H33.6386Z" fill="#035E46"/>
<path fill-rule="evenodd" clip-rule="evenodd" d="M21.1464 11.1459C21.1464 11.2215 21.1361 11.2983 21.1155 11.3745C20.7952 12.5335 20.3117 13.6931 19.6717 14.8515L19.6454 14.9008C18.8284 16.4711 18.3059 18.0421 18.0498 19.6119H28.7949C29.0636 17.7768 29.6582 15.9423 30.6127 14.1073L30.6591 14.0208C31.1885 13.0623 31.5999 12.1044 31.8846 11.1459H21.1464Z" fill="#035E46"/>
</svg>
