<svg width="75" height="75" viewBox="0 0 75 75" fill="none" xmlns="http://www.w3.org/2000/svg">
<path d="M7.92355 60.5198H67.0765C67.8518 60.5198 68.5954 60.1935 69.1437 59.6126C69.692 59.0317 70 58.2438 70 57.4223C70 56.6008 69.692 55.8129 69.1437 55.232C68.5954 54.6511 67.8518 54.3247 67.0765 54.3247H7.92355C7.14818 54.3247 6.40456 54.6511 5.85629 55.232C5.30802 55.8129 5 56.6008 5 57.4223C5 58.2438 5.30802 59.0317 5.85629 59.6126C6.40456 60.1935 7.14818 60.5198 7.92355 60.5198Z" fill="#035E46"/>
<path d="M38.8944 24.3672V21.5264H43.437C43.8068 21.5264 44.1614 21.3707 44.4228 21.0937C44.6843 20.8167 44.8312 20.441 44.8312 20.0492V15.6439C44.8312 15.2521 44.6843 14.8764 44.4228 14.5994C44.1614 14.3224 43.8068 14.1667 43.437 14.1667H31.5634C31.1937 14.1667 30.8391 14.3224 30.5776 14.5994C30.3162 14.8764 30.1693 15.2521 30.1693 15.6439V20.0492C30.1693 20.441 30.3162 20.8167 30.5776 21.0937C30.8391 21.3707 31.1937 21.5264 31.5634 21.5264H36.1061V24.3672C22.037 24.6597 10.6044 36.5517 9.99316 51.3704H65.0073C64.396 36.5517 52.9634 24.6597 38.8944 24.3672Z" fill="#035E46"/>
</svg>
