<svg width="107" height="107" viewBox="0 0 107 107" fill="none" xmlns="http://www.w3.org/2000/svg">
<circle cx="53.5" cy="53.5" r="53" fill="#053237" stroke="#F8FBF8"/>
<path d="M40.3941 42.2161C38.5527 42.2161 37.0596 40.7229 37.0596 38.8816C37.0596 37.0403 38.5527 35.5471 40.3941 35.5471C42.2354 35.5471 43.7286 37.0403 43.7286 38.8816C43.7286 40.7229 42.2354 42.2161 40.3941 42.2161ZM40.3941 36.7927C39.2413 36.7927 38.3052 37.7289 38.3052 38.8816C38.3052 40.0344 39.2413 40.9705 40.3941 40.9705C41.5468 40.9705 42.483 40.0344 42.483 38.8816C42.483 37.7289 41.5468 36.7927 40.3941 36.7927Z" fill="#F8FBF8"/>
<path d="M40.3941 53.7901C38.5527 53.7901 37.0596 52.2969 37.0596 50.4556C37.0596 48.6143 38.5527 47.1211 40.3941 47.1211C42.2354 47.1211 43.7286 48.6143 43.7286 50.4556C43.7286 52.2969 42.2354 53.7901 40.3941 53.7901ZM40.3941 48.3667C39.2413 48.3667 38.3052 49.3028 38.3052 50.4556C38.3052 51.6083 39.2413 52.5445 40.3941 52.5445C41.5468 52.5445 42.483 51.6083 42.483 50.4556C42.483 49.3028 41.5468 48.3667 40.3941 48.3667Z" fill="#F8FBF8"/>
<path d="M40.3941 65.3643C38.5527 65.3643 37.0596 63.8711 37.0596 62.0298C37.0596 60.1885 38.5527 58.6953 40.3941 58.6953C42.2354 58.6953 43.7286 60.1885 43.7286 62.0298C43.7286 63.8711 42.2354 65.3643 40.3941 65.3643ZM40.3941 59.9409C39.2413 59.9409 38.3052 60.877 38.3052 62.0298C38.3052 63.1826 39.2413 64.1187 40.3941 64.1187C41.5468 64.1187 42.483 63.1826 42.483 62.0298C42.483 60.877 41.5468 59.9409 40.3941 59.9409Z" fill="#F8FBF8"/>
<path d="M40.3941 76.9378C38.5527 76.9378 37.0596 75.4446 37.0596 73.6033C37.0596 71.762 38.5527 70.2688 40.3941 70.2688C42.2354 70.2688 43.7286 71.762 43.7286 73.6033C43.7286 75.4446 42.2354 76.9378 40.3941 76.9378ZM40.3941 71.5144C39.2413 71.5144 38.3052 72.4505 38.3052 73.6033C38.3052 74.7561 39.2413 75.6922 40.3941 75.6922C41.5468 75.6922 42.483 74.7561 42.483 73.6033C42.483 72.4505 41.5468 71.5144 40.3941 71.5144Z" fill="#F8FBF8"/>
<path d="M78.3888 86.6708H28.6189C28.2785 86.6708 28 86.3923 28 86.0519V26.5803C28 26.2399 28.2785 25.9613 28.6189 25.9613C28.9593 25.9613 29.2379 26.2399 29.2379 26.5803V85.4252H77.7621V18.4259H37.0209C36.6805 18.4259 36.402 18.1473 36.402 17.8069C36.402 17.4665 36.6805 17.188 37.0209 17.188H78.3811C78.7215 17.188 79 17.4665 79 17.8069V86.0519C79 86.3923 78.7215 86.6708 78.3811 86.6708H78.3888Z" fill="#F8FBF8"/>
<path d="M37.1295 27.1603H30.8396C30.4992 27.1603 30.2207 26.8818 30.2207 26.5414C30.2207 26.201 30.4992 25.9225 30.8396 25.9225H36.5029V19.9265C36.5029 19.5861 36.7814 19.3076 37.1218 19.3076C37.4622 19.3076 37.7407 19.5861 37.7407 19.9265V26.5491C37.7407 26.8895 37.4622 27.1681 37.1218 27.1681L37.1295 27.1603Z" fill="#F8FBF8"/>
<path d="M29.5554 24.9864C29.393 24.9864 29.2382 24.9245 29.1144 24.8007C28.8746 24.5609 28.8746 24.1663 29.1144 23.9187L34.5843 18.4489C34.8318 18.2091 35.2187 18.2091 35.4662 18.4489C35.7061 18.6888 35.7061 19.0833 35.4662 19.3309L29.9964 24.8007C29.8726 24.9245 29.7179 24.9864 29.5554 24.9864Z" fill="#F8FBF8"/>
<path d="M67.3951 39.3609H47.6975C47.3571 39.3609 47.0786 39.0824 47.0786 38.742C47.0786 38.4016 47.3571 38.123 47.6975 38.123H67.3951C67.7355 38.123 68.014 38.4016 68.014 38.742C68.014 39.0824 67.7355 39.3609 67.3951 39.3609Z" fill="#F8FBF8"/>
<path d="M67.3951 50.803H47.6975C47.3571 50.803 47.0786 50.5245 47.0786 50.1841C47.0786 49.8437 47.3571 49.5652 47.6975 49.5652H67.3951C67.7355 49.5652 68.014 49.8437 68.014 50.1841C68.014 50.5245 67.7355 50.803 67.3951 50.803Z" fill="#F8FBF8"/>
<path d="M67.3951 62.4549H47.6975C47.3571 62.4549 47.0786 62.1764 47.0786 61.836C47.0786 61.4956 47.3571 61.217 47.6975 61.217H67.3951C67.7355 61.217 68.014 61.4956 68.014 61.836C68.014 62.1764 67.7355 62.4549 67.3951 62.4549Z" fill="#F8FBF8"/>
<path d="M67.3951 74.5321H47.6975C47.3571 74.5321 47.0786 74.2535 47.0786 73.9131C47.0786 73.5727 47.3571 73.2942 47.6975 73.2942H67.3951C67.7355 73.2942 68.014 73.5727 68.014 73.9131C68.014 74.2535 67.7355 74.5321 67.3951 74.5321Z" fill="#F8FBF8"/>
</svg>
