<svg width="107" height="107" viewBox="0 0 107 107" fill="none" xmlns="http://www.w3.org/2000/svg">
<circle cx="53.5" cy="53.5" r="53" fill="#053237" stroke="#F8FBF8"/>
<path d="M50.2398 80.181C44.9537 80.181 39.4883 79.1507 33.9484 77.1049C33.7244 77.0228 33.575 76.8137 33.575 76.5748L33.2241 61.1793C33.2241 60.8583 33.4705 60.5969 33.7841 60.5895H33.799C34.1126 60.5895 34.3665 60.8359 34.3739 61.1494L34.7174 76.1492C41.0861 78.4488 47.3354 79.3821 53.3084 78.8968C57.064 78.5981 60.0579 77.8067 62.9549 77.0452C66.6581 76.0671 70.4883 75.0517 75.9611 75.0069C80.1124 74.9845 84.2188 75.4847 88.2805 76.5375L88.512 50.7788C84.4279 50.0919 80.2916 49.8679 76.2225 50.1068C75.9014 50.1217 75.6326 49.8828 75.6177 49.5692C75.6028 49.2482 75.8417 48.9794 76.1553 48.9645C80.4782 48.7106 84.8609 48.9645 89.1914 49.7335C89.4676 49.7858 89.6692 50.0247 89.6692 50.3009L89.4228 77.2841C89.4228 77.4633 89.3332 77.6275 89.1914 77.7395C89.0495 77.8441 88.8629 77.8814 88.6912 77.8366C84.5026 76.6868 80.2094 76.1044 75.9611 76.1567C70.6377 76.2015 66.8747 77.1945 63.2386 78.1576C60.2894 78.9341 57.2432 79.7405 53.3906 80.0466C52.3453 80.1287 51.2925 80.1735 50.2248 80.1735L50.2398 80.181Z" fill="#F8FBF8"/>
<path d="M38.2865 62.3142C38.2865 62.3142 38.2492 62.3142 38.2268 62.3142C37.9132 62.2844 37.6817 62.0006 37.7116 61.6796L37.943 59.477C37.9729 59.1634 38.2566 58.9245 38.5777 58.9619C38.8913 58.9917 39.1227 59.2754 39.0928 59.5965L38.8614 61.799C38.8315 62.0977 38.5777 62.3142 38.294 62.3142H38.2865Z" fill="#F8FBF8"/>
<path d="M43.0354 76.1567C41.3256 76.1567 39.6084 75.7909 38.0479 75.0816C37.8388 74.9845 37.7119 74.7829 37.7119 74.5589V69.2131C37.7119 68.892 37.9732 68.6382 38.2868 68.6382C38.6004 68.6382 38.8617 68.8995 38.8617 69.2131V74.1856C40.2505 74.7531 41.7661 75.0443 43.2594 75.0069C44.7377 74.9771 46.1787 74.6485 47.5301 74.0363C47.8213 73.9094 48.1572 74.0363 48.2916 74.3275C48.426 74.6187 48.2916 74.9547 48.0005 75.0891C46.5072 75.761 44.9169 76.1269 43.2818 76.1567C43.1996 76.1567 43.1175 76.1567 43.0279 76.1567H43.0354Z" fill="#F8FBF8"/>
<path d="M84.2417 60.4028C83.9207 60.4028 83.6668 60.1415 83.6668 59.8279V54.9301C82.3527 54.6239 81.0088 54.4597 79.6649 54.4447C78.0447 54.4074 76.4544 54.6314 74.9014 55.0346C74.5878 55.1167 74.2817 54.9301 74.1996 54.6239C74.1174 54.3178 74.3041 54.0042 74.6102 53.9221C76.2603 53.4891 77.985 53.28 79.6724 53.2949C81.2552 53.3099 82.8455 53.5189 84.3836 53.9221C84.6374 53.9893 84.8166 54.2133 84.8166 54.4746V59.8205C84.8166 60.1415 84.5553 60.3954 84.2417 60.3954V60.4028Z" fill="#F8FBF8"/>
<path d="M74.7594 73.2301C74.5055 73.2301 74.2741 73.0584 74.2069 72.8046C74.1248 72.4984 74.3114 72.1849 74.6175 72.1027C76.3572 71.6473 78.1566 71.4308 79.941 71.4756C81.1953 71.5054 82.4422 71.6548 83.6667 71.931V67.3168C83.6667 66.9958 83.928 66.7419 84.2416 66.7419C84.5552 66.7419 84.8165 67.0033 84.8165 67.3168V72.6627C84.8165 72.8419 84.7344 73.0062 84.5925 73.1182C84.4506 73.2301 84.264 73.2675 84.0922 73.2227C82.7259 72.8643 81.3223 72.6627 79.9111 72.6328C78.2238 72.5955 76.5438 72.7971 74.9087 73.2227C74.8565 73.2376 74.8117 73.2451 74.7594 73.2451V73.2301Z" fill="#F8FBF8"/>
<path d="M32.9037 60.5447C27.6175 60.5447 22.1522 59.5144 16.6197 57.4686C16.3957 57.3865 16.2464 57.1699 16.2464 56.931L16 29.9479C16 29.7463 16.1045 29.5596 16.2763 29.4551C16.448 29.3506 16.6645 29.3431 16.8437 29.4327C22.9063 32.576 28.9241 34.0991 34.8001 33.9871C39.2873 33.8901 43.0578 32.8821 47.0448 31.807C52.4952 30.3361 58.1397 28.8205 66.2854 29.4028C68.152 29.5372 70.0335 29.7761 71.8702 30.1121C72.1465 30.1644 72.348 30.4033 72.3406 30.6796L72.0942 57.6627C72.0942 57.8419 72.0046 58.0062 71.8627 58.1182C71.7209 58.2227 71.5342 58.26 71.3625 58.2152C67.1739 57.0654 62.8659 56.5129 58.6325 56.5353C53.309 56.5801 49.546 57.5731 45.9099 58.5363C42.9608 59.3128 39.9145 60.1191 36.0619 60.4252C35.0166 60.5074 33.9639 60.5522 32.8962 60.5522L32.9037 60.5447ZM17.3887 56.5278C23.75 58.8275 29.9993 59.7533 35.9798 59.2754C39.7353 58.9768 42.7293 58.1854 45.6262 57.4238C49.3295 56.4457 53.1597 55.4303 58.6325 55.3855C62.7613 55.3706 66.8902 55.8633 70.9519 56.9161L71.1833 31.1574C69.5407 30.8737 67.8683 30.6721 66.2033 30.5526C58.2592 29.9852 52.7043 31.4785 47.3435 32.9194C43.2818 34.0095 39.4516 35.0473 34.8225 35.1444C29.0511 35.2788 23.1154 33.8303 17.1573 30.8886L17.3887 56.5278Z" fill="#F8FBF8"/>
<path d="M43.6548 51.4507C41.8032 51.4507 39.9814 50.6742 38.6674 49.3228C37.3906 48.0088 36.7112 46.3139 36.756 44.5369C36.853 40.9531 39.9964 37.989 43.6548 37.989C43.7071 37.989 43.7594 37.989 43.8116 37.989C47.4328 38.0711 50.4566 41.0054 50.5462 44.5369C50.591 46.3065 49.9116 48.0088 48.6348 49.3228C47.3208 50.6742 45.499 51.4507 43.6548 51.4507ZM43.6548 39.1388C40.6011 39.1388 37.9805 41.5952 37.9058 44.5668C37.8685 46.0302 38.4284 47.4264 39.4886 48.5165C40.5937 49.6513 42.1093 50.2935 43.6548 50.2935C45.2004 50.2935 46.716 49.6439 47.8136 48.5165C48.8738 47.4264 49.4412 46.0227 49.4039 44.5668C49.3292 41.64 46.8131 39.206 43.7892 39.1388C43.7444 39.1388 43.6996 39.1388 43.6623 39.1388H43.6548Z" fill="#F8FBF8"/>
<path d="M20.9497 42.1105L20.3748 42.0433L20.3076 36.1375C20.3076 35.9359 20.4121 35.7493 20.5839 35.6447C20.7556 35.5402 20.9721 35.5327 21.1513 35.6223C22.7267 36.4287 24.4066 36.9663 26.1463 37.2052C27.5574 37.3993 28.9909 37.3993 30.4095 37.2052C30.7231 37.1679 31.0143 37.3844 31.0591 37.698C31.1039 38.0115 30.8799 38.3027 30.5663 38.3475C29.0432 38.5566 27.5051 38.5566 25.9895 38.3475C24.429 38.131 22.9134 37.698 21.4724 37.0559L21.5246 42.0359L20.9497 42.1105Z" fill="#F8FBF8"/>
<path d="M25.691 56.5204C23.9887 56.5204 22.2714 56.1545 20.711 55.4527C20.5019 55.3556 20.375 55.154 20.375 54.93V49.5842C20.375 49.2631 20.6363 49.0093 20.9499 49.0093C21.2635 49.0093 21.5248 49.2706 21.5248 49.5842V54.5567C22.9135 55.1242 24.4217 55.4004 25.9225 55.378C27.4008 55.3482 28.8343 55.0196 30.1932 54.4074C30.4843 54.2805 30.8203 54.4074 30.9547 54.6986C31.0891 54.9898 30.9547 55.3258 30.6635 55.4601C29.1628 56.1321 27.58 56.4905 25.9448 56.5278C25.8627 56.5278 25.7731 56.5278 25.691 56.5278V56.5204Z" fill="#F8FBF8"/>
<path d="M66.9053 40.7664C66.5842 40.7664 66.3304 40.505 66.3304 40.1915V35.2936C65.0163 34.9875 63.6724 34.8232 62.3285 34.8083C60.7083 34.7635 59.118 34.9949 57.565 35.3981C57.2589 35.4802 56.9453 35.2936 56.8631 34.9875C56.781 34.6813 56.9677 34.3677 57.2738 34.2856C58.9238 33.8526 60.6261 33.6211 62.3359 33.6585C63.9262 33.6734 65.5091 33.8824 67.0472 34.2856C67.301 34.3528 67.4802 34.5768 67.4802 34.8381V40.184C67.4802 40.505 67.2189 40.7589 66.9053 40.7589V40.7664Z" fill="#F8FBF8"/>
<path d="M57.423 53.5861C57.1691 53.5861 56.9377 53.4144 56.8705 53.1605C56.7883 52.8544 56.975 52.5408 57.2811 52.4587C59.0208 52.0032 60.7977 51.7867 62.6046 51.8315C63.8589 51.8614 65.1058 52.0107 66.3377 52.287V47.6728C66.3377 47.3518 66.599 47.0979 66.9126 47.0979C67.2262 47.0979 67.4875 47.3592 67.4875 47.6728V53.0187C67.4875 53.1979 67.4054 53.3621 67.2635 53.4741C67.1217 53.5786 66.935 53.6234 66.7633 53.5786C65.397 53.2203 63.9933 53.0187 62.5822 52.9888C60.8948 52.944 59.2149 53.1456 57.5798 53.5786C57.5275 53.5936 57.4827 53.601 57.4304 53.601L57.423 53.5861Z" fill="#F8FBF8"/>
<path d="M43.8115 43.7453V44.0515H40.7578V43.7528H43.8115V43.7453ZM43.8115 45.0295V45.3357H40.7578V45.037H43.8115V45.0295ZM43.9161 47.6353C43.5203 47.6353 43.1769 47.5681 42.8708 47.4337C42.5647 47.2993 42.3108 47.0977 42.1017 46.8364C41.8927 46.5751 41.7284 46.254 41.6239 45.8732C41.5194 45.4924 41.4596 45.0594 41.4596 44.5741C41.4596 43.9245 41.5567 43.3646 41.7434 42.9016C41.9375 42.4387 42.2063 42.0804 42.5647 41.8414C42.923 41.595 43.3561 41.4756 43.8638 41.4756C44.0878 41.4756 44.3043 41.5129 44.5208 41.5801C44.7373 41.6473 44.9389 41.7518 45.1256 41.8788L44.8941 42.1923C44.7523 42.0804 44.5955 41.9908 44.4238 41.9236C44.2595 41.8564 44.0728 41.819 43.8787 41.819C43.4382 41.819 43.0649 41.9236 42.7662 42.1326C42.4676 42.3417 42.2361 42.6478 42.0868 43.0584C41.9375 43.4691 41.8554 43.9768 41.8554 44.5741C41.8554 45.1714 41.93 45.6492 42.0868 46.0524C42.2436 46.4556 42.4751 46.7617 42.7812 46.9782C43.0948 47.1873 43.483 47.2918 43.9459 47.2918C44.14 47.2918 44.3267 47.262 44.4984 47.2097C44.6701 47.1574 44.8269 47.0828 44.9688 46.9857L45.1704 47.2694C44.9912 47.3889 44.7971 47.4785 44.588 47.5457C44.3715 47.6129 44.155 47.6427 43.9161 47.6427V47.6353Z" fill="#F8FBF8"/>
<path d="M60.9244 71.9381C59.0727 71.9381 57.251 71.1616 55.9369 69.8102C54.6602 68.4962 53.9807 66.8013 54.0255 65.0243C54.1226 61.3883 57.3779 58.3793 61.0812 58.4764C64.7023 58.5585 67.7262 61.4928 67.8157 65.0243C67.8605 66.7938 67.1811 68.4962 65.9044 69.8102C64.5903 71.1616 62.776 71.9381 60.9244 71.9381ZM60.9244 59.6262C57.8707 59.6262 55.25 62.0826 55.1753 65.0542C55.138 66.5176 55.698 67.9138 56.7582 69.0039C57.8632 70.1387 59.3788 70.7808 60.9244 70.7808C62.4699 70.7808 63.9781 70.1313 65.0831 69.0039C66.1433 67.9138 66.7107 66.5101 66.6734 65.0542C66.5987 62.1274 64.0826 59.6934 61.0588 59.6262C61.014 59.6262 60.9692 59.6262 60.9318 59.6262H60.9244Z" fill="#F8FBF8"/>
<path d="M61.0732 64.2256V64.5317H58.0195V64.233H61.0732V64.2256ZM61.0732 65.5098V65.8159H58.0195V65.5172H61.0732V65.5098ZM61.1778 68.1155C60.7821 68.1155 60.4386 68.0483 60.1325 67.9139C59.8264 67.7795 59.5725 67.5779 59.3635 67.3166C59.1544 67.0553 58.9902 66.7342 58.8856 66.3535C58.7811 65.9727 58.7214 65.5396 58.7214 65.0543C58.7214 64.4048 58.8184 63.8448 59.0051 63.3819C59.1992 62.919 59.468 62.5606 59.8264 62.3217C60.1848 62.0753 60.6178 61.9558 61.1255 61.9558C61.3495 61.9558 61.566 61.9931 61.7825 62.0603C61.9991 62.1275 62.2006 62.2321 62.3873 62.359L62.1559 62.6726C62.014 62.5606 61.8572 62.471 61.6855 62.4038C61.5212 62.3366 61.3346 62.2993 61.1404 62.2993C60.6999 62.2993 60.3266 62.4038 60.028 62.6128C59.7293 62.8219 59.4979 63.128 59.3485 63.5387C59.1992 63.9493 59.1171 64.457 59.1171 65.0543C59.1171 65.6516 59.1917 66.1295 59.3485 66.5326C59.5053 66.9358 59.7368 67.2419 60.0429 67.4585C60.3565 67.6675 60.7447 67.772 61.2076 67.772C61.4018 67.772 61.5884 67.7422 61.7601 67.6899C61.9319 67.6377 62.0887 67.563 62.2305 67.4659L62.4321 67.7496C62.2529 67.8691 62.0588 67.9587 61.8497 68.0259C61.6332 68.0931 61.4167 68.123 61.1778 68.123V68.1155Z" fill="#F8FBF8"/>
<path d="M43.812 43.7453V44.0515H40.7583V43.7528H43.812V43.7453ZM43.812 45.0295V45.3357H40.7583V45.037H43.812V45.0295ZM43.9165 47.6353C43.5208 47.6353 43.1774 47.5681 42.8713 47.4337C42.5651 47.2993 42.3113 47.0977 42.1022 46.8364C41.8932 46.5751 41.7289 46.254 41.6244 45.8732C41.5199 45.4924 41.4601 45.0594 41.4601 44.5741C41.4601 43.9245 41.5572 43.3646 41.7439 42.9016C41.938 42.4387 42.2068 42.0804 42.5651 41.8414C42.9235 41.595 43.3566 41.4756 43.8643 41.4756C44.0883 41.4756 44.3048 41.5129 44.5213 41.5801C44.7378 41.6473 44.9394 41.7518 45.1261 41.8788L44.8946 42.1923C44.7528 42.0804 44.596 41.9908 44.4242 41.9236C44.26 41.8564 44.0733 41.819 43.8792 41.819C43.4387 41.819 43.0654 41.9236 42.7667 42.1326C42.4681 42.3417 42.2366 42.6478 42.0873 43.0584C41.938 43.4691 41.8558 43.9768 41.8558 44.5741C41.8558 45.1714 41.9305 45.6492 42.0873 46.0524C42.2441 46.4556 42.4755 46.7617 42.7817 46.9782C43.0952 47.1873 43.4835 47.2918 43.9464 47.2918C44.1405 47.2918 44.3272 47.262 44.4989 47.2097C44.6706 47.1574 44.8274 47.0828 44.9693 46.9857L45.1709 47.2694C44.9917 47.3889 44.7976 47.4785 44.5885 47.5457C44.372 47.6129 44.1555 47.6427 43.9165 47.6427V47.6353Z" fill="#F8FBF8"/>
<path d="M43.9165 47.7997C43.5058 47.7997 43.1325 47.7251 42.8114 47.5832C42.4904 47.4414 42.2067 47.2248 41.9827 46.9486C41.7587 46.6723 41.5944 46.3289 41.4824 45.9332C41.4451 45.7988 41.4078 45.6495 41.3854 45.5001H40.6089V44.9103H41.3256C41.3256 44.8058 41.3256 44.7012 41.3256 44.5967C41.3256 44.4623 41.3256 44.3354 41.3406 44.2085H40.6238V43.6186H41.4152C41.4675 43.3424 41.5347 43.096 41.6318 42.872C41.8334 42.3867 42.132 42.0059 42.5053 41.7446C42.8861 41.4833 43.349 41.3489 43.8866 41.3489C44.1255 41.3489 44.357 41.3862 44.5884 41.4609C44.8199 41.5355 45.0364 41.6401 45.2305 41.7819L45.35 41.864L44.9393 42.4166L44.8199 42.327C44.6855 42.2224 44.5436 42.1403 44.3868 42.0731C44.2375 42.0134 44.0732 41.9835 43.8941 41.9835C43.4834 41.9835 43.14 42.0806 42.8637 42.2747C42.5875 42.4688 42.3784 42.7525 42.2365 43.1333C42.1843 43.2752 42.1395 43.4394 42.1021 43.6112H43.9687V44.201H42.0275C42.02 44.3279 42.0125 44.4623 42.0125 44.5967C42.0125 44.7012 42.0125 44.8058 42.02 44.9028H43.9612V45.4927H42.0872C42.1245 45.6868 42.1693 45.8585 42.2291 46.0228C42.3709 46.3961 42.5875 46.6873 42.8712 46.8739C43.1549 47.0681 43.5207 47.1651 43.9538 47.1651C44.133 47.1651 44.3047 47.1427 44.4615 47.0904C44.6257 47.0382 44.7676 46.971 44.8945 46.8814L45.014 46.8067L45.3798 47.3219L45.2529 47.404C45.0663 47.5235 44.8572 47.628 44.6332 47.6952C44.4092 47.7624 44.1703 47.7997 43.9239 47.7997H43.9165ZM41.6766 45.5001C41.699 45.6271 41.7288 45.7465 41.7587 45.8585C41.8632 46.2169 42.0125 46.523 42.2141 46.7694C42.4083 47.0083 42.6472 47.195 42.9309 47.3219C43.2146 47.4488 43.5506 47.516 43.9165 47.516C44.133 47.516 44.342 47.4862 44.5436 47.4264C44.6929 47.3816 44.8348 47.3219 44.9617 47.2472L44.9319 47.2024C44.8124 47.2696 44.6855 47.3219 44.5511 47.3667C44.3644 47.4264 44.1628 47.4563 43.9538 47.4563C43.461 47.4563 43.0429 47.3443 42.7069 47.1203C42.3709 46.8963 42.1245 46.5603 41.9603 46.1273C41.8856 45.9406 41.8334 45.7316 41.796 45.5076H41.684L41.6766 45.5001ZM40.9001 45.194V45.2164H41.3481C41.3481 45.2164 41.3481 45.2015 41.3481 45.194H40.9001ZM41.6392 45.194V45.2164H41.7512C41.7512 45.2164 41.7512 45.2015 41.7512 45.194H41.6392ZM42.0349 45.194C42.0349 45.194 42.0349 45.2089 42.0349 45.2164H43.6626V45.194H42.0275H42.0349ZM41.6168 44.2159C41.6094 44.3429 41.6019 44.4698 41.6019 44.6042C41.6019 44.7087 41.6019 44.8132 41.6094 44.9178H41.7214C41.7214 44.8132 41.7214 44.7162 41.7214 44.6042C41.7214 44.4698 41.7214 44.3429 41.7363 44.2159H41.6243H41.6168ZM40.9001 43.9098V43.9322H41.3555C41.3555 43.9322 41.3555 43.9173 41.3555 43.9098H40.9001ZM41.6467 43.9098V43.9322H41.7512C41.7512 43.9322 41.7512 43.9173 41.7512 43.9098H41.6467ZM42.0424 43.9098C42.0424 43.9098 42.0424 43.9247 42.0424 43.9322H43.6701V43.9098H42.0499H42.0424ZM43.8642 41.655C43.3863 41.655 42.9832 41.767 42.6472 41.9984C42.3187 42.2224 42.0573 42.5584 41.8782 42.9989C41.796 43.193 41.7363 43.4021 41.6915 43.6336H41.796C41.8334 43.4245 41.8856 43.2304 41.9528 43.0512C42.1171 42.6181 42.3635 42.2822 42.692 42.0582C43.013 41.8342 43.4162 41.7222 43.8866 41.7222C44.1031 41.7222 44.3047 41.7595 44.4839 41.8342C44.6183 41.8865 44.7452 41.9536 44.8647 42.0358L44.9244 41.9611C44.7825 41.879 44.6332 41.8118 44.4839 41.7595C44.2823 41.6923 44.0732 41.6625 43.8717 41.6625L43.8642 41.655Z" fill="#F8FBF8"/>
<path d="M61.0737 64.2256V64.5317H58.02V64.233H61.0737V64.2256ZM61.0737 65.5098V65.8159H58.02V65.5172H61.0737V65.5098ZM61.1783 68.1155C60.7825 68.1155 60.4391 68.0483 60.133 67.9139C59.8269 67.7795 59.573 67.5779 59.364 67.3166C59.1549 67.0553 58.9906 66.7342 58.8861 66.3535C58.7816 65.9727 58.7219 65.5396 58.7219 65.0543C58.7219 64.4048 58.8189 63.8448 59.0056 63.3819C59.1997 62.919 59.4685 62.5606 59.8269 62.3217C60.1852 62.0753 60.6183 61.9558 61.126 61.9558C61.35 61.9558 61.5665 61.9931 61.783 62.0603C61.9996 62.1275 62.2011 62.2321 62.3878 62.359L62.1563 62.6726C62.0145 62.5606 61.8577 62.471 61.686 62.4038C61.5217 62.3366 61.3351 62.2993 61.1409 62.2993C60.7004 62.2993 60.3271 62.4038 60.0285 62.6128C59.7298 62.8219 59.4983 63.128 59.349 63.5387C59.1997 63.9493 59.1176 64.457 59.1176 65.0543C59.1176 65.6516 59.1922 66.1295 59.349 66.5326C59.5058 66.9358 59.7373 67.2419 60.0434 67.4585C60.357 67.6675 60.7452 67.772 61.2081 67.772C61.4022 67.772 61.5889 67.7422 61.7606 67.6899C61.9324 67.6377 62.0891 67.563 62.231 67.4659L62.4326 67.7496C62.2534 67.8691 62.0593 67.9587 61.8502 68.0259C61.6337 68.0931 61.4172 68.123 61.1783 68.123V68.1155Z" fill="#F8FBF8"/>
<path d="M61.186 68.2797C60.7753 68.2797 60.402 68.2051 60.081 68.0632C59.7599 67.9213 59.4837 67.7048 59.2597 67.4286C59.0357 67.1523 58.8714 66.8089 58.752 66.4132C58.7146 66.2788 58.6773 66.1294 58.6549 65.9801H57.8784V65.3903H58.5952C58.5952 65.2857 58.5952 65.1812 58.5952 65.0767C58.5952 64.9423 58.5952 64.8154 58.6101 64.6884H57.8934V64.0986H58.6848C58.737 63.8298 58.8042 63.576 58.9013 63.352C59.1029 62.8667 59.3941 62.4859 59.7749 62.2246C60.1556 61.9632 60.6185 61.8289 61.1561 61.8289C61.395 61.8289 61.6265 61.8662 61.8579 61.9409C62.0894 62.0155 62.3059 62.12 62.5001 62.2619L62.6195 62.344L62.2089 62.8965L62.0894 62.8069C61.955 62.7024 61.8132 62.6203 61.6564 62.5531C61.507 62.4934 61.3353 62.4635 61.1636 62.4635C60.7529 62.4635 60.4095 62.5606 60.1332 62.7547C59.857 62.9488 59.6479 63.2325 59.4986 63.6133C59.4463 63.7552 59.4015 63.9194 59.3642 64.0911H61.2308V64.681H59.2895C59.2821 64.8079 59.2746 64.9423 59.2746 65.0767C59.2746 65.1812 59.2746 65.2857 59.2821 65.3828H61.2233V65.9726H59.3493C59.3866 66.1668 59.4314 66.3385 59.4911 66.5028C59.633 66.8761 59.8495 67.1673 60.1332 67.3539C60.417 67.548 60.7828 67.6451 61.2158 67.6451C61.395 67.6451 61.5668 67.6227 61.7236 67.5704C61.8878 67.5182 62.0297 67.451 62.1566 67.3614L62.2761 67.2867L62.6419 67.8019L62.515 67.884C62.3283 68.0035 62.1193 68.1005 61.8953 68.1752C61.6713 68.2424 61.4249 68.2797 61.186 68.2797ZM58.9461 65.9801C58.9685 66.107 58.9984 66.2265 59.0282 66.3385C59.1328 66.6969 59.2821 67.003 59.4837 67.2494C59.6853 67.4958 59.9167 67.675 60.2004 67.8019C60.4842 67.9288 60.8201 67.996 61.186 67.996C61.4025 67.996 61.6116 67.9661 61.8132 67.9064C61.9625 67.8616 62.1043 67.8019 62.2313 67.7272L62.2014 67.6824C62.0819 67.7496 61.955 67.8019 61.8206 67.8467C61.634 67.9064 61.4324 67.9363 61.2233 67.9363C60.7305 67.9363 60.3124 67.8243 59.9764 67.6003C59.6405 67.3763 59.3941 67.0403 59.2298 66.6073C59.1552 66.4206 59.1029 66.2116 59.0656 65.9876H58.9536L58.9461 65.9801ZM58.1696 65.674V65.6964H58.6176C58.6176 65.6964 58.6176 65.6815 58.6176 65.674H58.1696ZM58.9088 65.674V65.6964H59.0208C59.0208 65.6964 59.0208 65.6815 59.0208 65.674H58.9088ZM59.3045 65.674C59.3045 65.674 59.3045 65.6889 59.3045 65.6964H60.9321V65.674H59.297H59.3045ZM58.8864 64.6959C58.8789 64.8228 58.8714 64.9498 58.8714 65.0842C58.8714 65.1887 58.8714 65.2932 58.8789 65.3977H58.9909C58.9909 65.2932 58.9909 65.1962 58.9909 65.0842C58.9909 64.9498 58.9909 64.8228 59.0058 64.6959H58.8938H58.8864ZM58.1696 64.3898V64.4122H58.625C58.625 64.4122 58.625 64.3973 58.625 64.3898H58.1696ZM58.9162 64.3898V64.4122H59.0208C59.0208 64.4122 59.0208 64.3973 59.0208 64.3898H58.9162ZM59.3119 64.3898C59.3119 64.3898 59.3119 64.4047 59.3119 64.4122H60.9396V64.3898H59.3194H59.3119ZM61.1337 62.135C60.6633 62.135 60.2527 62.247 59.9167 62.4784C59.5807 62.7024 59.3269 63.0384 59.1477 63.4789C59.0656 63.673 59.0058 63.8821 58.961 64.1135H59.0656C59.1029 63.9045 59.1552 63.7104 59.2224 63.5312C59.3866 63.0981 59.633 62.7621 59.9615 62.5382C60.2826 62.3142 60.6857 62.2022 61.1561 62.2022C61.3652 62.2022 61.5742 62.2395 61.7534 62.3142C61.8878 62.3664 62.0147 62.4336 62.1342 62.5158L62.1939 62.4411C62.0595 62.359 61.9102 62.2918 61.7534 62.2395C61.5518 62.1723 61.3428 62.1424 61.1412 62.1424L61.1337 62.135Z" fill="#F8FBF8"/>
</svg>
