<svg width="107" height="107" viewBox="0 0 107 107" fill="none" xmlns="http://www.w3.org/2000/svg">
<circle cx="53.5" cy="53.5" r="53" fill="#053237" stroke="#F8FBF8"/>
<path d="M54.6216 65.7063C54.4145 65.7063 54.2221 65.5953 54.1112 65.4104L50.3313 58.8567C39.9756 56.8225 32.4824 47.739 32.4824 37.1391C32.4824 24.9341 42.4166 15 54.6216 15C66.8266 15 76.7607 24.9341 76.7607 37.1391C76.7607 47.7316 69.2676 56.8225 58.9118 58.8567L55.132 65.4104C55.0284 65.5953 54.8361 65.7063 54.6216 65.7063ZM54.6216 16.1835C43.0601 16.1835 33.6585 25.5851 33.6585 37.1465C33.6585 47.2656 40.8706 55.9349 50.8121 57.7619C50.9823 57.7915 51.1302 57.8951 51.2116 58.043L54.6216 63.9458L58.0316 58.043C58.1203 57.8951 58.2683 57.7915 58.431 57.7619C68.3725 55.9349 75.5846 47.2656 75.5846 37.1465C75.5846 25.5851 66.183 16.1835 54.6216 16.1835Z" fill="#F8FBF8"/>
<path d="M54.6211 43.3674C54.4362 43.3674 54.266 43.2786 54.1551 43.1381L44.7535 30.8073C44.6204 30.6298 44.5982 30.3931 44.6944 30.1934C44.7905 29.9937 44.9976 29.8679 45.2195 29.8679H64.0227C64.2446 29.8679 64.4517 29.9937 64.5478 30.1934C64.644 30.3931 64.6218 30.6298 64.4887 30.8073L55.0871 43.1381C54.9762 43.286 54.806 43.3674 54.6211 43.3674ZM46.4031 31.0366L54.6211 41.814L62.8391 31.0366H46.4031Z" fill="#F8FBF8"/>
<path d="M50.4051 43.5008H38.2963C37.9708 43.5008 37.7119 43.2419 37.7119 42.9164C37.7119 42.5909 37.9708 42.332 38.2963 42.332H50.4051C50.7306 42.332 50.9895 42.5909 50.9895 42.9164C50.9895 43.2419 50.7306 43.5008 50.4051 43.5008Z" fill="#F8FBF8"/>
<path d="M70.2957 43.2417H58.1869C57.8614 43.2417 57.6025 42.9828 57.6025 42.6574C57.6025 42.3319 57.8614 42.073 58.1869 42.073H70.2957C70.6212 42.073 70.8801 42.3319 70.8801 42.6574C70.8801 42.9828 70.6212 43.2417 70.2957 43.2417Z" fill="#F8FBF8"/>
<path d="M61.0565 47.8572H48.9476C48.6222 47.8572 48.3633 47.5983 48.3633 47.2728C48.3633 46.9474 48.6222 46.6885 48.9476 46.6885H61.0565C61.382 46.6885 61.6408 46.9474 61.6408 47.2728C61.6408 47.5983 61.382 47.8572 61.0565 47.8572Z" fill="#F8FBF8"/>
<path d="M37.1722 87.3278H28.5844C28.2589 87.3278 28 87.0689 28 86.7435V68.2584C28 67.933 28.2589 67.6741 28.5844 67.6741H37.1722C37.4977 67.6741 37.7566 67.933 37.7566 68.2584V86.7435C37.7566 87.0689 37.4977 87.3278 37.1722 87.3278ZM29.1761 86.1591H36.5879V68.8428H29.1761V86.1591Z" fill="#F8FBF8"/>
<path d="M44.9984 84.1028C41.4109 84.1028 38.2376 84.0141 37.1576 83.9845C36.8322 83.9771 36.5807 83.7034 36.588 83.3853C36.5954 83.0599 36.8543 82.7788 37.1872 82.8158C38.5852 82.8601 50.9752 83.2078 56.0939 82.4237C57.3514 82.2314 58.4387 81.9207 58.5571 81.8911C60.5912 81.3068 62.5292 80.3822 64.3045 79.1395C71.8198 74.6051 77.6635 70.7957 79.5941 69.1683C80.134 68.7097 80.8515 68.0144 80.8294 67.2451C80.8146 66.7495 80.4965 66.217 80.0601 65.9359C79.3574 65.492 78.3366 65.7509 76.8054 66.3575C74.3496 67.3265 72.6039 68.3103 70.7547 69.3607C69.8448 69.8785 68.898 70.411 67.8699 70.9362C66.6937 71.5428 65.4732 72.0975 64.2601 72.5931C63.9643 72.7115 63.6166 72.571 63.4982 72.2677C63.3799 71.9718 63.5204 71.6241 63.8237 71.5058C65.0072 71.025 66.1907 70.485 67.3373 69.8932C68.3433 69.3755 69.2753 68.8503 70.1777 68.3399C71.9826 67.3191 73.8392 66.2613 76.369 65.2701C77.9371 64.6488 79.4461 64.1606 80.6814 64.9521C81.4507 65.4403 81.9611 66.3279 81.9907 67.2081C82.0351 68.4952 81.0661 69.4568 80.3412 70.0708C78.3662 71.7351 72.4634 75.5889 64.9333 80.1307C63.0766 81.4251 61.0277 82.4089 58.8677 83.0303C58.6606 83.0895 57.5659 83.3927 56.264 83.5998C53.5641 84.0141 49.015 84.125 44.9836 84.125L44.9984 84.1028Z" fill="#F8FBF8"/>
<path d="M56.937 76.4618C54.9251 76.4618 52.5137 76.3212 49.8803 76.0401C49.5623 76.0032 49.3256 75.7147 49.3625 75.3966C49.3995 75.0785 49.688 74.8566 50.0061 74.8788C55.4872 75.4632 60.0586 75.4336 61.6637 74.7975C61.9966 74.6643 62.6179 74.4202 63.0469 73.7915C63.476 73.1627 63.4908 72.4526 63.4686 72.0902C63.4686 72.0902 63.3724 71.0842 62.6549 70.2853C61.8782 69.4273 60.7539 69.3829 56.9592 69.3755H55.3689C53.3125 69.3533 52.24 69.3163 51.4633 69.2941C50.5461 69.2645 50.0431 69.2497 48.793 69.2941C45.6345 69.4272 44.0441 69.4938 42.3576 70.0782C40.6119 70.6847 39.0142 71.6685 37.594 72.9926C37.3573 73.2145 36.9874 73.1997 36.7655 72.963C36.5436 72.7263 36.5584 72.3565 36.7951 72.1345C38.3337 70.6921 40.0793 69.627 41.9804 68.9686C43.837 68.3251 45.4791 68.2585 48.756 68.118C50.0505 68.0662 50.5683 68.081 51.5151 68.118C52.2843 68.1476 53.3569 68.1772 55.3911 68.192H56.9814C60.8057 68.2141 62.3886 68.2141 63.5425 69.5012C64.5337 70.6034 64.6521 71.9422 64.6595 72.0014C64.7039 72.5192 64.6743 73.5326 64.0381 74.4572C63.4094 75.3744 62.507 75.7295 62.1223 75.8848C61.1533 76.2695 59.3337 76.4618 56.9592 76.4618H56.937Z" fill="#F8FBF8"/>
</svg>
