<svg width="107" height="107" viewBox="0 0 107 107" fill="none" xmlns="http://www.w3.org/2000/svg">
<circle cx="53.5" cy="53.5" r="53.5" fill="#035E46"/>
<path d="M41.2063 90.3918C39.9855 90.3918 38.7901 90.0272 37.7473 89.3321C36.3654 88.408 35.4243 86.9921 35.1022 85.3559L31.4227 66.6873C28.2943 66.7297 25.3779 65.1952 23.7247 62.5501L21.7832 63.0418C20.5878 63.347 19.3416 63.169 18.2734 62.5331C17.2136 61.8973 16.4591 60.8969 16.1454 59.693C15.8402 58.4976 16.0182 57.2513 16.6541 56.1831C17.2814 55.1149 18.2903 54.3603 19.4942 54.0551L21.69 53.4956C22.0885 49.7398 24.8608 46.6115 28.5741 45.7976L46.6661 41.8214C46.9883 41.7536 47.3359 41.7027 47.7089 41.6688L64.6056 22.6188C64.7751 22.4322 65.0379 22.3475 65.2838 22.4153C65.5297 22.4831 65.7162 22.6866 65.7671 22.9324L75.8389 73.7834C75.8898 74.0378 75.788 74.2921 75.5846 74.4447C75.3811 74.5973 75.1098 74.6312 74.8809 74.5125L51.2188 62.8383C51.0917 62.779 50.9899 62.6773 50.9306 62.5586L43.6395 64.1609L47.3359 82.9312C47.6581 84.5674 47.3274 86.2291 46.3948 87.611C45.4623 88.9929 44.0549 89.934 42.4187 90.2562C42.0117 90.3325 41.6048 90.3748 41.1978 90.3748L41.2063 90.3918ZM31.9738 65.3139C32.296 65.3139 32.5672 65.5428 32.6351 65.8565L36.4247 85.1015C36.6791 86.3817 37.4167 87.4923 38.4934 88.213C39.5785 88.9421 40.8757 89.1964 42.1643 88.9505C43.4445 88.6962 44.5551 87.9586 45.2758 86.8734C46.0049 85.7882 46.2677 84.4826 46.0133 83.2025L42.1898 63.7879C42.1219 63.4318 42.3508 63.0757 42.7069 62.9994L50.9136 61.1936C50.973 61.1767 51.0323 61.1597 51.0917 61.1427L51.2358 61.1004C51.4138 61.0495 51.6088 61.0834 51.7614 61.1767C51.9225 61.2699 52.0327 61.431 52.0666 61.609L52.1005 61.7786L74.245 72.7067L64.6988 24.5263L48.5228 42.7625C48.4041 42.8981 48.243 42.9744 48.065 42.9829C47.6411 43.0083 47.2766 43.0592 46.9459 43.1355L28.8539 47.1117C25.5644 47.8323 23.1482 50.6894 22.9871 54.0636C22.9702 54.3604 22.7667 54.6062 22.4784 54.6825L19.8164 55.3608C18.9686 55.5812 18.2479 56.1153 17.8071 56.8698C17.3577 57.6244 17.2306 58.5061 17.451 59.3624C17.6714 60.2102 18.2055 60.9308 18.9601 61.3801C19.7146 61.8295 20.5963 61.9566 21.4526 61.7362L23.8858 61.1173C24.1825 61.041 24.4962 61.1767 24.6403 61.4479C26.0731 64.0761 28.9217 65.5937 31.9144 65.3139C31.9399 65.3139 31.9568 65.3139 31.9738 65.3139Z" fill="#F8FBF8"/>
<path d="M48.6989 42.2236L47.3711 42.4558L50.8559 62.3819L52.1838 62.1496L48.6989 42.2236Z" fill="#F8FBF8"/>
<path d="M22.9795 53.8925L21.6641 54.187L23.3941 61.9141L24.7095 61.6196L22.9795 53.8925Z" fill="#F8FBF8"/>
<path d="M42.707 63.0049L31.8281 65.3232L32.1091 66.6416L42.9879 64.3233L42.707 63.0049Z" fill="#F8FBF8"/>
<path d="M71.5903 55.5474L71.3614 54.2248C74.6424 53.6483 76.8466 50.5115 76.2701 47.2305C75.6936 43.9495 72.5568 41.7452 69.2758 42.3217L69.0469 40.9991C73.057 40.304 76.8975 42.9915 77.6012 47.0016C78.3048 51.0117 75.6088 54.8522 71.5988 55.5559L71.5903 55.5474Z" fill="#F8FBF8"/>
<path d="M81.8994 45.9842C81.5857 45.9842 81.2975 45.7553 81.2381 45.4331C81.1703 45.0686 81.4077 44.7125 81.7722 44.6447L90.2502 43.0423C90.6148 42.9745 90.9709 43.2119 91.0387 43.5764C91.1065 43.941 90.8691 44.2971 90.5046 44.3649L82.0266 45.9672C82.0266 45.9672 81.9418 45.9757 81.8994 45.9757V45.9842Z" fill="#F8FBF8"/>
<path d="M88.2691 71.9945C88.1419 71.9945 88.0063 71.9606 87.8961 71.8759L80.7406 67.0519C80.4354 66.8484 80.3506 66.4245 80.5626 66.1193C80.7745 65.8141 81.19 65.7293 81.4952 65.9413L88.6506 70.7652C88.9558 70.9687 89.0406 71.3926 88.8286 71.6978C88.7015 71.8928 88.4895 71.9945 88.2691 71.9945Z" fill="#F8FBF8"/>
<path d="M73.4732 27.1715C73.3291 27.1715 73.1849 27.1291 73.0663 27.0359C72.7695 26.807 72.7187 26.3831 72.9476 26.0948L78.2124 19.2616C78.4413 18.9648 78.8652 18.914 79.1535 19.1429C79.4502 19.3718 79.501 19.7957 79.2721 20.0839L74.0073 26.9172C73.8717 27.0868 73.6767 27.18 73.4732 27.18V27.1715Z" fill="#F8FBF8"/>
</svg>
