<svg width="42" height="42" viewBox="0 0 42 42" fill="none" xmlns="http://www.w3.org/2000/svg">
<circle cx="21" cy="21" r="21" fill="#035E46"/>
<path d="M16.1753 35.481C15.6961 35.481 15.2269 35.3379 14.8176 35.065C14.2751 34.7023 13.9058 34.1466 13.7793 33.5043L12.335 26.1765C11.1071 26.1931 9.9623 25.5908 9.31338 24.5525L8.55131 24.7455C8.08209 24.8653 7.5929 24.7954 7.1736 24.5458C6.75762 24.2963 6.46145 23.9036 6.33832 23.431C6.21852 22.9618 6.2884 22.4726 6.53798 22.0533C6.78424 21.634 7.18025 21.3378 7.6528 21.218L8.5147 20.9984C8.67111 19.5242 9.7593 18.2962 11.2169 17.9768L18.3184 16.416C18.4449 16.3894 18.5813 16.3694 18.7277 16.3561L25.3601 8.87852C25.4266 8.80531 25.5298 8.77203 25.6263 8.79866C25.7228 8.82528 25.796 8.90515 25.816 9.00165L29.7694 28.9619C29.7894 29.0617 29.7494 29.1615 29.6696 29.2214C29.5897 29.2813 29.4832 29.2946 29.3934 29.248L20.1055 24.6656C20.0555 24.6424 20.0156 24.6024 19.9923 24.5558L17.1304 25.1848L18.5813 32.5526C18.7078 33.1948 18.578 33.8471 18.2119 34.3895C17.8459 34.9319 17.2935 35.3013 16.6512 35.4278C16.4915 35.4577 16.3317 35.4744 16.172 35.4744L16.1753 35.481ZM12.5513 25.6374C12.6778 25.6374 12.7843 25.7272 12.8109 25.8503L14.2984 33.4045C14.3983 33.907 14.6878 34.3429 15.1104 34.6258C15.5364 34.912 16.0455 35.0118 16.5514 34.9153C17.0539 34.8155 17.4898 34.5259 17.7727 34.1C18.0589 33.674 18.162 33.1615 18.0622 32.659L16.5613 25.0384C16.5347 24.8986 16.6246 24.7588 16.7643 24.7289L19.9857 24.0201C20.009 24.0134 20.0322 24.0067 20.0555 24.0001L20.1121 23.9834C20.182 23.9635 20.2585 23.9768 20.3184 24.0134C20.3817 24.05 20.4249 24.1132 20.4382 24.1831L20.4516 24.2497L29.1438 28.5392L25.3967 9.62728L19.0472 16.7854C19.0006 16.8386 18.9374 16.8686 18.8675 16.8719C18.7011 16.8819 18.558 16.9019 18.4282 16.9318L11.3267 18.4926C10.0355 18.7754 9.08709 19.8969 9.02386 21.2214C9.0172 21.3378 8.93733 21.4343 8.82419 21.4643L7.77926 21.7305C7.44648 21.817 7.16361 22.0267 6.99057 22.3229C6.81419 22.619 6.76428 22.9651 6.8508 23.3012C6.93732 23.634 7.14697 23.9169 7.44315 24.0933C7.73932 24.2696 8.08542 24.3196 8.42152 24.233L9.37661 23.9901C9.49308 23.9602 9.61621 24.0134 9.67278 24.1199C10.2352 25.1515 11.3533 25.7472 12.528 25.6374C12.538 25.6374 12.5447 25.6374 12.5513 25.6374Z" fill="#1F2223"/>
<path d="M19.1159 16.5736L18.5947 16.6648L19.9626 24.4862L20.4838 24.3951L19.1159 16.5736Z" fill="#1F2223"/>
<path d="M9.02122 21.1542L8.50488 21.2698L9.18397 24.3029L9.70031 24.1873L9.02122 21.1542Z" fill="#1F2223"/>
<path d="M16.7634 24.7309L12.4932 25.6409L12.6034 26.1584L16.8736 25.2484L16.7634 24.7309Z" fill="#1F2223"/>
<path d="M28.1019 21.8035L28.012 21.2844C29.2999 21.0581 30.1651 19.8268 29.9388 18.539C29.7125 17.2511 28.4812 16.3859 27.1934 16.6122L27.1035 16.093C28.6776 15.8202 30.1851 16.8751 30.4613 18.4491C30.7375 20.0232 29.6792 21.5307 28.1052 21.8069L28.1019 21.8035Z" fill="#1F2223"/>
<path d="M32.1489 18.0499C32.0257 18.0499 31.9126 17.9601 31.8893 17.8336C31.8627 17.6905 31.9559 17.5507 32.099 17.5241L35.4268 16.8952C35.5699 16.8685 35.7096 16.9617 35.7362 17.1048C35.7629 17.2479 35.6697 17.3877 35.5266 17.4143L32.1988 18.0433C32.1988 18.0433 32.1655 18.0466 32.1489 18.0466V18.0499Z" fill="#1F2223"/>
<path d="M34.6482 28.2595C34.5982 28.2595 34.545 28.2462 34.5017 28.2129L31.6931 26.3194C31.5733 26.2395 31.54 26.0731 31.6232 25.9533C31.7064 25.8335 31.8694 25.8002 31.9892 25.8834L34.7979 27.777C34.9177 27.8568 34.951 28.0232 34.8678 28.143C34.8179 28.2196 34.7347 28.2595 34.6482 28.2595Z" fill="#1F2223"/>
<path d="M28.8415 10.6655C28.7849 10.6655 28.7284 10.6489 28.6818 10.6123C28.5653 10.5224 28.5453 10.356 28.6352 10.2429L30.7018 7.56068C30.7916 7.44421 30.958 7.42424 31.0711 7.51409C31.1876 7.60394 31.2076 7.77033 31.1177 7.88348L29.0512 10.5657C28.9979 10.6322 28.9214 10.6689 28.8415 10.6689V10.6655Z" fill="#1F2223"/>
<path d="M16.1734 35.4815C15.6942 35.4815 15.2249 35.3384 14.8156 35.0655C14.2732 34.7028 13.9038 34.1471 13.7773 33.5048L12.3331 26.177C11.1051 26.1936 9.96035 25.5913 9.31142 24.553L8.54936 24.746C8.08013 24.8658 7.59095 24.7959 7.17164 24.5463C6.75567 24.2968 6.45949 23.9041 6.33636 23.4315C6.21656 22.9623 6.28645 22.4731 6.53603 22.0538C6.78229 21.6345 7.1783 21.3383 7.65085 21.2185L8.51275 20.9989C8.66916 19.5247 9.75735 18.2967 11.2149 17.9772L18.3165 16.4165C18.4429 16.3899 18.5794 16.3699 18.7258 16.3566L25.3581 8.87901C25.4247 8.8058 25.5278 8.77252 25.6243 8.79915C25.7208 8.82577 25.7941 8.90563 25.814 9.00214L29.7675 28.9623C29.7874 29.0622 29.7475 29.162 29.6676 29.2219C29.5878 29.2818 29.4813 29.2951 29.3914 29.2485L20.1035 24.6661C20.0536 24.6428 20.0137 24.6029 19.9904 24.5563L17.1284 25.1853L18.5794 32.553C18.7058 33.1953 18.576 33.8476 18.21 34.39C17.8439 34.9324 17.2915 35.3018 16.6492 35.4283C16.4895 35.4582 16.3298 35.4749 16.17 35.4749L16.1734 35.4815ZM12.5494 25.6379C12.6758 25.6379 12.7823 25.7277 12.809 25.8508L14.2965 33.405C14.3963 33.9075 14.6858 34.3434 15.1085 34.6263C15.5344 34.9125 16.0436 35.0123 16.5494 34.9158C17.0519 34.816 17.4878 34.5264 17.7707 34.1005C18.0569 33.6745 18.1601 33.162 18.0602 32.6595L16.5594 25.0389C16.5328 24.8991 16.6226 24.7593 16.7624 24.7294L19.9837 24.0205C20.007 24.0139 20.0303 24.0072 20.0536 24.0006L20.1102 23.9839C20.18 23.964 20.2566 23.9773 20.3165 24.0139C20.3797 24.0505 20.423 24.1137 20.4363 24.1836L20.4496 24.2502L29.1418 28.5397L25.3947 9.62777L19.0453 16.7859C18.9987 16.8391 18.9354 16.8691 18.8656 16.8724C18.6992 16.8824 18.5561 16.9024 18.4263 16.9323L11.3247 18.4931C10.0336 18.7759 9.08513 19.8974 9.0219 21.2219C9.01525 21.3383 8.93538 21.4348 8.82224 21.4648L7.7773 21.731C7.44452 21.8175 7.16166 22.0272 6.98861 22.3234C6.81224 22.6195 6.76232 22.9656 6.84885 23.3017C6.93537 23.6345 7.14502 23.9174 7.4412 24.0938C7.73737 24.2701 8.08346 24.32 8.41957 24.2335L9.37465 23.9906C9.49113 23.9606 9.61425 24.0139 9.67083 24.1204C10.2332 25.152 11.3514 25.7477 12.5261 25.6379C12.5361 25.6379 12.5427 25.6379 12.5494 25.6379Z" fill="#F8FBF8"/>
<path d="M19.115 16.5739L18.5938 16.665L19.9616 24.4865L20.4828 24.3953L19.115 16.5739Z" fill="#F8FBF8"/>
<path d="M9.01731 21.1551L8.50098 21.2708L9.18006 24.3038L9.6964 24.1882L9.01731 21.1551Z" fill="#F8FBF8"/>
<path d="M16.7624 24.7326L12.4922 25.6426L12.6025 26.1601L16.8727 25.2501L16.7624 24.7326Z" fill="#F8FBF8"/>
<path d="M28.0989 21.8033L28.0091 21.2842C29.2969 21.0579 30.1622 19.8266 29.9359 18.5387C29.7096 17.2509 28.4783 16.3856 27.1904 16.6119L27.1006 16.0928C28.6746 15.8199 30.1821 16.8748 30.4583 18.4489C30.7346 20.0229 29.6763 21.5304 28.1023 21.8066L28.0989 21.8033Z" fill="#F8FBF8"/>
<path d="M32.1469 18.0511C32.0238 18.0511 31.9106 17.9613 31.8874 17.8348C31.8607 17.6917 31.9539 17.552 32.097 17.5253L35.4248 16.8964C35.5679 16.8698 35.7077 16.9629 35.7343 17.106C35.7609 17.2491 35.6677 17.3889 35.5246 17.4155L32.1968 18.0445C32.1968 18.0445 32.1636 18.0478 32.1469 18.0478V18.0511Z" fill="#F8FBF8"/>
<path d="M34.6472 28.2602C34.5973 28.2602 34.544 28.2469 34.5008 28.2136L31.6921 26.3201C31.5723 26.2402 31.539 26.0739 31.6222 25.9541C31.7054 25.8343 31.8685 25.801 31.9883 25.8842L34.7969 27.7777C34.9167 27.8576 34.95 28.024 34.8668 28.1438C34.8169 28.2203 34.7337 28.2602 34.6472 28.2602Z" fill="#F8FBF8"/>
<path d="M28.8396 10.6658C28.783 10.6658 28.7264 10.6491 28.6798 10.6125C28.5633 10.5227 28.5434 10.3563 28.6332 10.2431L30.6998 7.56092C30.7897 7.44445 30.956 7.42448 31.0692 7.51433C31.1857 7.60419 31.2056 7.77058 31.1158 7.88372L29.0492 10.5659C28.996 10.6325 28.9194 10.6691 28.8396 10.6691V10.6658Z" fill="#F8FBF8"/>
</svg>
