<svg width="60" height="60" viewBox="0 0 60 60" fill="none" xmlns="http://www.w3.org/2000/svg">
<circle cx="30" cy="30" r="30" fill="#22532C"/>
<path d="M46.1234 19.7136L30.6154 11.1598C30.4272 11.055 30.2154 11 30 11C29.7846 11 29.5728 11.055 29.3846 11.1598L13.8755 19.7148C13.6102 19.8619 13.3892 20.0773 13.2352 20.3387C13.0813 20.6 13.0001 20.8978 13 21.2011V24.6011C13.0006 24.7992 13.0533 24.9936 13.1527 25.1649C13.2522 25.3362 13.3949 25.4783 13.5667 25.5769V43.8678C13.5667 44.1684 13.6861 44.4567 13.8986 44.6692C14.1112 44.8817 14.3994 45.0011 14.7 45.0011H45.3C45.6006 45.0011 45.8888 44.8817 46.1014 44.6692C46.3139 44.4567 46.4333 44.1684 46.4333 43.8678V25.5769C46.6051 25.4783 46.7478 25.3362 46.8473 25.1649C46.9467 24.9936 46.9994 24.7992 47 24.6011V21.2011C47 20.8975 46.9187 20.5994 46.7646 20.3378C46.6104 20.0762 46.389 19.8607 46.1234 19.7136ZM45.8667 24.6011H14.1333V23.4678H45.8667V24.6011ZM41.0749 25.7345L31.7 38.5196V25.7345H41.0749ZM31.7 42.7345H43.0333V43.8678H31.7V42.7345ZM33.6573 41.6011L43.0333 28.816V41.6011H33.6573ZM43.0333 26.899L32.2514 41.6011H31.7V40.4366L42.482 25.7345H43.0333V26.899ZM16.9667 28.816L26.3427 41.6011H16.9667V28.816ZM16.9667 42.7345H28.3V43.8678H16.9667V42.7345ZM27.7486 41.6011L16.9667 26.899V25.7345H17.518L28.3 40.4366V41.6011H27.7486ZM18.9239 25.7345H28.3V38.5196L18.9239 25.7345ZM30 15.0505L34.9521 17.8011H25.0479L30 15.0505ZM43.1132 22.3345H39.6333V20.4016L43.1132 22.3345ZM38.5 22.3345H37.3667V19.1424L38.5 19.772V22.3345ZM36.2333 20.0678H23.7667V18.9345H36.2333V20.0678ZM23.7667 21.2011H36.2333V22.3345H23.7667V21.2011ZM22.6333 22.3345H21.5V19.772L22.6333 19.1424V22.3345ZM20.3667 22.3345H16.8868L20.3667 20.4016V22.3345ZM45.5743 20.7053C45.6628 20.7543 45.7367 20.8261 45.7881 20.9133C45.8395 21.0005 45.8667 21.0999 45.8667 21.2011V22.3345H45.4468L30.5667 14.0691V12.4257L45.5743 20.7053ZM14.1333 21.2011C14.1334 21.1002 14.1605 21.0012 14.2117 20.9142C14.2629 20.8272 14.3364 20.7555 14.4246 20.7064L29.4333 12.4269V14.0702L14.5532 22.3345H14.1333V21.2011ZM15.8333 43.8678H14.7V25.7345H15.8333V43.8678ZM30.5667 43.8678H29.4333V25.7345H30.5667V43.8678ZM44.1667 43.8678V25.7345H45.3V43.8678H44.1667Z" fill="#F8FAF8" stroke="#F8FAF8"/>
</svg>
