<svg width="107" height="107" viewBox="0 0 107 107" fill="none" xmlns="http://www.w3.org/2000/svg">
<circle cx="53.5" cy="53.5" r="53.5" fill="#035E46"/>
<g clip-path="url(#clip0_348_5440)">
<path d="M87.0604 33.7401L55.7519 16.4711C55.372 16.2595 54.9443 16.1484 54.5095 16.1484C54.0746 16.1484 53.647 16.2595 53.2671 16.4711L21.9562 33.7424C21.4207 34.0394 20.9744 34.4743 20.6636 35.002C20.3528 35.5296 20.1888 36.1308 20.1887 36.7432V43.6074C20.1899 44.0072 20.2963 44.3997 20.4971 44.7455C20.6979 45.0913 20.9861 45.3781 21.3327 45.5774V82.5042C21.3327 83.111 21.5738 83.693 22.0029 84.1221C22.432 84.5512 23.014 84.7923 23.6208 84.7923H85.3982C86.005 84.7923 86.587 84.5512 87.0161 84.1221C87.4451 83.693 87.6862 83.111 87.6862 82.5042V45.5774C88.0329 45.3781 88.3211 45.0913 88.5219 44.7455C88.7227 44.3997 88.829 44.0072 88.8302 43.6074V36.7432C88.8303 36.1302 88.6662 35.5284 88.355 35.0003C88.0437 34.4721 87.5967 34.037 87.0604 33.7401ZM86.5422 43.6074H22.4768V41.3193H86.5422V43.6074ZM76.8683 45.8954L57.9416 71.7069V45.8954H76.8683ZM57.9416 80.2162H80.8221V82.5042H57.9416V80.2162ZM61.893 77.9281L80.8221 52.1166V77.9281H61.893ZM80.8221 48.2464L59.0547 77.9281H57.9416V75.5771L79.7089 45.8954H80.8221V48.2464ZM28.1969 52.1166L47.1259 77.9281H28.1969V52.1166ZM28.1969 80.2162H51.0774V82.5042H28.1969V80.2162ZM49.9643 77.9281L28.1969 48.2464V45.8954H29.31L51.0774 75.5771V77.9281H49.9643ZM32.1484 45.8954H51.0774V71.7069L32.1484 45.8954ZM54.5095 24.326L64.5071 29.879H44.5118L54.5095 24.326ZM80.9834 39.0312H73.9579V35.129L80.9834 39.0312ZM71.6699 39.0312H69.3818V32.587L71.6699 33.858V39.0312ZM67.0938 34.4551H41.9252V32.1671H67.0938V34.4551ZM41.9252 36.7432H67.0938V39.0312H41.9252V36.7432ZM39.6371 39.0312H37.3491V33.858L39.6371 32.587V39.0312ZM35.061 39.0312H28.0356L35.061 35.129V39.0312ZM85.9519 35.7422C86.1307 35.8411 86.2798 35.9861 86.3836 36.1622C86.4874 36.3382 86.5422 36.5388 86.5422 36.7432V39.0312H85.6945L55.6535 22.3445V19.0268L85.9519 35.7422ZM22.4768 36.7432C22.477 36.5394 22.5316 36.3394 22.635 36.1639C22.7383 35.9883 22.8867 35.8435 23.0648 35.7445L53.3655 19.0291V22.3468L23.3245 39.0312H22.4768V36.7432ZM25.9088 82.5042H23.6208V45.8954H25.9088V82.5042ZM55.6535 82.5042H53.3655V45.8954H55.6535V82.5042ZM83.1101 82.5042V45.8954H85.3982V82.5042H83.1101Z" fill="#F8FBF8"/>
</g>
<defs>
<clipPath id="clip0_348_5440">
<rect width="68.6415" height="68.6415" fill="white" transform="translate(20.1887 16.1514)"/>
</clipPath>
</defs>
</svg>
