<svg width="25" height="25" viewBox="0 0 25 25" fill="none" xmlns="http://www.w3.org/2000/svg">
<circle cx="12.3075" cy="12.3075" r="12.3075" fill="#035E46"/>
<g clip-path="url(#clip0_348_5566)">
<path d="M20.0279 7.76177L12.8255 3.78907C12.7381 3.74039 12.6397 3.71484 12.5397 3.71484C12.4396 3.71484 12.3413 3.74039 12.2539 3.78907L5.0509 7.76229C4.9277 7.83062 4.82503 7.93066 4.75353 8.05205C4.68203 8.17343 4.64431 8.31174 4.64429 8.45261V10.0317C4.64456 10.1237 4.66903 10.214 4.71522 10.2935C4.76141 10.3731 4.82771 10.4391 4.90747 10.4849V18.9798C4.90747 19.1194 4.96292 19.2533 5.06163 19.352C5.16035 19.4507 5.29423 19.5062 5.43383 19.5062H19.6455C19.7851 19.5062 19.919 19.4507 20.0177 19.352C20.1164 19.2533 20.1719 19.1194 20.1719 18.9798V10.4849C20.2517 10.4391 20.318 10.3731 20.3642 10.2935C20.4103 10.214 20.4348 10.1237 20.4351 10.0317V8.45261C20.4351 8.31159 20.3973 8.17314 20.3257 8.05165C20.2541 7.93016 20.1513 7.83007 20.0279 7.76177ZM19.9087 10.0317H5.17065V9.50533H19.9087V10.0317ZM17.6833 10.5581L13.3292 16.4959V10.5581H17.6833ZM13.3292 18.4535H18.5928V18.9798H13.3292V18.4535ZM14.2382 17.9271L18.5928 11.9892V17.9271H14.2382ZM18.5928 11.0989L13.5853 17.9271H13.3292V17.3863L18.3367 10.5581H18.5928V11.0989ZM6.48655 11.9892L10.8411 17.9271H6.48655V11.9892ZM6.48655 18.4535H11.7501V18.9798H6.48655V18.4535ZM11.4941 17.9271L6.48655 11.0989V10.5581H6.74262L11.7501 17.3863V17.9271H11.4941ZM7.39557 10.5581H11.7501V16.4959L7.39557 10.5581ZM12.5397 5.59606L14.8396 6.87353H10.2398L12.5397 5.59606ZM18.6299 8.97897H17.0137V8.08127L18.6299 8.97897ZM16.4874 8.97897H15.961V7.49648L16.4874 7.78887V8.97897ZM15.4347 7.92625H9.64471V7.39989H15.4347V7.92625ZM9.64471 8.45261H15.4347V8.97897H9.64471V8.45261ZM9.11835 8.97897H8.59199V7.78887L9.11835 7.49648V8.97897ZM8.06563 8.97897H6.44944L8.06563 8.08127V8.97897ZM19.7729 8.22233C19.8141 8.24509 19.8484 8.27845 19.8722 8.31894C19.8961 8.35944 19.9087 8.4056 19.9087 8.45261V8.97897H19.7137L12.8029 5.14023V4.37701L19.7729 8.22233ZM5.17065 8.45261C5.17069 8.40574 5.18325 8.35973 5.20704 8.31934C5.23082 8.27895 5.26496 8.24564 5.30592 8.22286L12.2765 4.37754V5.14076L5.36566 8.97897H5.17065V8.45261ZM5.96019 18.9798H5.43383V10.5581H5.96019V18.9798ZM12.8029 18.9798H12.2765V10.5581H12.8029V18.9798ZM19.1192 18.9798V10.5581H19.6455V18.9798H19.1192Z" fill="#F8FBF8"/>
</g>
<defs>
<clipPath id="clip0_348_5566">
<rect width="15.7908" height="15.7908" fill="white" transform="translate(4.64429 3.71484)"/>
</clipPath>
</defs>
</svg>
