<svg width="21" height="20" viewBox="0 0 21 20" fill="none" xmlns="http://www.w3.org/2000/svg">
<g clip-path="url(#clip0_2647_2416)">
<path d="M5.33879 7.33336L4.77612 6.97603L4.67212 7.13869V7.33336H5.33879ZM10.6721 7.33336L10.0761 7.03469C10.0252 7.13633 10.0011 7.24931 10.0061 7.36288C10.0112 7.47645 10.0452 7.58685 10.1049 7.68359C10.1646 7.78032 10.2481 7.86018 10.3474 7.91556C10.4466 7.97095 10.5584 8.00002 10.6721 8.00003V7.33336ZM20.0055 14L20.5388 14.4L20.6721 14.2227V14H20.0055ZM0.672119 6.66669V20H2.00545V6.66669H0.672119ZM5.90145 7.69069L9.49745 2.04003L8.37345 1.32269L4.77612 6.97603L5.90145 7.69069ZM11.8948 3.39736L10.0761 7.03469L11.2681 7.63069L13.0881 3.99069L11.8948 3.39736ZM10.6721 8.00003H17.3388V6.66669H10.6721V8.00003ZM19.3388 10V14H20.6721V10H19.3388ZM19.4721 13.6L16.2721 17.8667L17.3388 18.6667L20.5388 14.4L19.4721 13.6ZM14.6721 18.6667H8.00545V20H14.6721V18.6667ZM6.00545 16.6667V7.33336H4.67212V16.6667H6.00545ZM17.3388 8.00003C17.8692 8.00003 18.3779 8.21074 18.753 8.58581C19.1281 8.96089 19.3388 9.46959 19.3388 10H20.6721C20.6721 9.11597 20.3209 8.26813 19.6958 7.643C19.0707 7.01788 18.2228 6.66669 17.3388 6.66669V8.00003ZM8.00545 18.6667C7.47502 18.6667 6.96631 18.456 6.59124 18.0809C6.21617 17.7058 6.00545 17.1971 6.00545 16.6667H4.67212C4.67212 17.5507 5.02331 18.3986 5.64843 19.0237C6.27355 19.6488 7.1214 20 8.00545 20V18.6667ZM11.3708 1.59736C11.9895 1.96803 12.2175 2.75203 11.8948 3.39736L13.0881 3.99069C13.3937 3.3795 13.4574 2.67679 13.2663 2.02071C13.0752 1.36462 12.6435 0.804854 12.0575 0.45336L11.3708 1.59736ZM16.2721 17.8667C16.0858 18.1151 15.8443 18.3167 15.5665 18.4555C15.2888 18.5944 14.9826 18.6667 14.6721 18.6667V20C15.1896 20 15.7 19.8795 16.1628 19.6481C16.6257 19.4167 17.0283 19.0807 17.3388 18.6667L16.2721 17.8667ZM9.49745 2.04003C9.89745 1.40803 10.7308 1.21336 11.3708 1.59736L12.0588 0.45336C11.4526 0.0894299 10.7282 -0.0233588 10.04 0.13903C9.35188 0.30142 8.75301 0.726145 8.37345 1.32269L9.49745 2.04003Z" fill="#035E46"/>
</g>
<defs>
<clipPath id="clip0_2647_2416">
<rect width="20" height="20" fill="white" transform="translate(0.672119)"/>
</clipPath>
</defs>
</svg>
