<svg width="107" height="107" viewBox="0 0 107 107" fill="none" xmlns="http://www.w3.org/2000/svg">
<circle cx="53.5" cy="53.5" r="53.5" fill="#035E46"/>
<path d="M84.9848 82.1421H19.9967C17.8851 82.1421 16.1643 80.398 16.1643 78.2579V64.7319H17.902V78.2579C17.902 79.4289 18.8413 80.3809 19.9967 80.3809H84.9848C86.1401 80.3809 87.0795 79.4289 87.0795 78.2579V64.7319H88.8172V78.2579C88.8172 80.3961 87.0964 82.1401 84.9848 82.1401V82.1421Z" fill="#F8FAF8"/>
<path d="M88.6754 63.9395L77.7454 24.2794C77.3114 22.6952 75.878 21.5757 74.253 21.5757H66.2086C65.5229 21.5757 64.888 21.8403 64.4183 22.2802C63.9486 21.8403 63.3136 21.5757 62.6279 21.5757H54.2773C53.5916 21.5757 52.9567 21.8403 52.487 22.2802C52.0173 21.8403 51.3824 21.5757 50.6966 21.5757H42.3461C41.6604 21.5757 41.0254 21.8403 40.5557 22.2802C40.086 21.8403 39.4511 21.5757 38.7654 21.5757H30.721C29.096 21.5757 27.6626 22.6857 27.2286 24.2698L16.3005 63.9395C16.169 64.4231 16.1258 64.9163 16.1615 65.4018C16.2216 66.1596 16.4996 66.8983 16.9693 67.5229C17.2379 67.8751 17.5517 68.174 17.8992 68.4215C18.5605 68.888 19.3589 69.1432 20.193 69.1432H31.4969C32.5226 69.1432 33.3642 69.9885 33.3642 71.0357H35.102C35.102 69.9885 35.9361 69.1432 36.9694 69.1432H49.7404C50.7662 69.1432 51.6078 69.9885 51.6078 71.0357H53.3455C53.3455 69.9885 54.1797 69.1432 55.2129 69.1432H67.984C69.0172 69.1432 69.8513 69.9885 69.8513 71.0357H71.5891C71.5891 69.9885 72.4232 69.1432 73.4565 69.1432H84.7772C85.6113 69.1432 86.4116 68.888 87.071 68.4215C87.4186 68.174 87.7323 67.8751 88.001 67.5229C88.4706 66.8888 88.7487 66.1577 88.8088 65.4018C88.8539 64.9182 88.8088 64.4251 88.6716 63.9395H88.6754ZM87.0767 65.3047C87.0335 65.7179 86.8775 66.1139 86.6164 66.4585C86.173 67.0488 85.5042 67.3839 84.7828 67.3839H73.4602C72.365 67.3839 71.3843 67.877 70.723 68.6614C70.0617 67.877 69.0811 67.3839 67.9858 67.3839H55.2148C54.1195 67.3839 53.1389 67.877 52.4776 68.6614C51.8163 67.877 50.8357 67.3839 49.7404 67.3839H36.9713C35.876 67.3839 34.8953 67.877 34.2341 68.6614C33.5728 67.877 32.5921 67.3839 31.4969 67.3839H20.193C19.4623 67.3839 18.7935 67.0488 18.3595 66.4585C18.0984 66.1158 17.9424 65.7179 17.8992 65.3047C17.8823 65.1371 17.8823 64.9696 17.8992 64.7944C17.9086 64.6611 17.933 64.5393 17.9687 64.4155L28.9006 24.7458C29.126 23.9176 29.8737 23.3369 30.7247 23.3369H38.7691C39.2726 23.3369 39.6897 23.7596 39.6897 24.2698H41.4274C41.4274 23.7596 41.8445 23.3369 42.3479 23.3369H50.6985C51.202 23.3369 51.6191 23.7596 51.6191 24.2698H53.3568C53.3568 23.7596 53.7739 23.3369 54.2773 23.3369H62.6279C63.1314 23.3369 63.5485 23.7596 63.5485 24.2698H65.2862C65.2862 23.7596 65.7033 23.3369 66.2068 23.3369H74.2511C75.1022 23.3369 75.8499 23.9176 76.0753 24.7458L87.0053 64.4155C87.0391 64.5393 87.0654 64.6707 87.0748 64.7944C87.0917 64.962 87.0917 65.1371 87.0748 65.3047H87.0767Z" fill="#F8FAF8"/>
<path d="M37.4155 56.6923C37.4155 57.3701 36.8688 57.9261 36.1981 57.9261C35.5274 57.9261 34.9807 57.372 34.9807 56.6923C34.9807 56.0126 35.5274 55.4585 36.1981 55.4585C36.8669 55.4585 37.4155 56.0145 37.4155 56.6923Z" fill="#F8FAF8"/>
<path d="M53.7069 56.6923C53.7069 57.3701 53.1602 57.9261 52.4895 57.9261C51.8188 57.9261 51.2721 57.372 51.2721 56.6923C51.2721 56.0126 51.8188 55.4585 52.4895 55.4585C53.1583 55.4585 53.7069 56.0145 53.7069 56.6923Z" fill="#F8FAF8"/>
<path d="M70.0831 56.6923C70.0831 57.3701 69.5364 57.9261 68.8657 57.9261C68.195 57.9261 67.6483 57.372 67.6483 56.6923C67.6483 56.0126 68.195 55.4585 68.8657 55.4585C69.5364 55.4585 70.0831 56.0145 70.0831 56.6923Z" fill="#F8FAF8"/>
<path d="M39.0666 44.454C39.0666 45.1318 38.5199 45.6878 37.8493 45.6878C37.1786 45.6878 36.6319 45.1337 36.6319 44.454C36.6319 43.7743 37.1786 43.2202 37.8493 43.2202C38.5181 43.2202 39.0666 43.7762 39.0666 44.454Z" fill="#F8FAF8"/>
<path d="M53.7069 44.454C53.7069 45.1318 53.1602 45.6878 52.4895 45.6878C51.8188 45.6878 51.2721 45.1337 51.2721 44.454C51.2721 43.7743 51.8188 43.2202 52.4895 43.2202C53.1583 43.2202 53.7069 43.7762 53.7069 44.454Z" fill="#F8FAF8"/>
<path d="M68.4339 44.454C68.4339 45.1318 67.8872 45.6878 67.2165 45.6878C66.5458 45.6878 65.9991 45.1337 65.9991 44.454C65.9991 43.7743 66.5458 43.2202 67.2165 43.2202C67.8853 43.2202 68.4339 43.7762 68.4339 44.454Z" fill="#F8FAF8"/>
<path d="M40.6296 32.7421C40.6296 33.4199 40.0829 33.9759 39.4122 33.9759C38.7415 33.9759 38.1949 33.4218 38.1949 32.7421C38.1949 32.0624 38.7415 31.5083 39.4122 31.5083C40.0829 31.5083 40.6296 32.0624 40.6296 32.7421Z" fill="#F8FAF8"/>
<path d="M53.7069 32.7421C53.7069 33.4199 53.1602 33.9759 52.4895 33.9759C51.8188 33.9759 51.2721 33.4218 51.2721 32.7421C51.2721 32.0624 51.8188 31.5083 52.4895 31.5083C53.1602 31.5083 53.7069 32.0624 53.7069 32.7421Z" fill="#F8FAF8"/>
<path d="M66.8689 32.7421C66.8689 33.4199 66.3223 33.9759 65.6516 33.9759C64.9809 33.9759 64.4342 33.4218 64.4342 32.7421C64.4342 32.0624 64.9809 31.5083 65.6516 31.5083C66.3223 31.5083 66.8689 32.0624 66.8689 32.7421Z" fill="#F8FAF8"/>
</svg>
