<svg width="21" height="22" viewBox="0 0 21 22" fill="none" xmlns="http://www.w3.org/2000/svg">
<g clip-path="url(#clip0_2647_2420)">
<path d="M15.4994 13.6389L16.0639 13.9933L16.167 13.8301L16.166 13.6354L15.4994 13.6389ZM10.1661 13.6666L10.7636 13.9621C10.8141 13.8602 10.8376 13.7471 10.8319 13.6336C10.8263 13.5201 10.7917 13.4098 10.7315 13.3134C10.6713 13.217 10.5874 13.1376 10.4878 13.0827C10.3883 13.0278 10.2763 12.9993 10.1626 12.9999L10.1661 13.6666ZM0.798251 7.04851L0.262846 6.65129L0.130437 6.82931L0.131594 7.05198L0.798251 7.04851ZM20.1694 14.2813L20.1001 0.948119L18.7668 0.955048L18.8361 14.2882L20.1694 14.2813ZM14.9349 13.2845L11.3683 18.9537L12.496 19.6652L16.0639 13.9933L14.9349 13.2845ZM8.96391 17.6089L10.7636 13.9621L9.56857 13.3724L7.76751 17.0218L8.96391 17.6089ZM10.1626 12.9999L3.49606 13.0346L3.50299 14.3679L10.1696 14.3332L10.1626 12.9999ZM1.4857 11.045L1.46491 7.04505L0.131594 7.05198L0.152382 11.0519L1.4857 11.045ZM1.33366 7.44574L4.51144 3.1625L3.44063 2.36805L0.262846 6.65129L1.33366 7.44574ZM6.10726 2.35419L12.7738 2.31954L12.7669 0.98623L6.10033 1.02088L6.10726 2.35419ZM14.7842 4.30912L14.8327 13.6423L16.166 13.6354L16.1175 4.30219L14.7842 4.30912ZM3.49606 13.0346C2.96564 13.0373 2.45584 12.8293 2.07882 12.4561C1.70181 12.083 1.48845 11.5754 1.4857 11.045L0.152382 11.0519C0.156976 11.936 0.512566 12.782 1.14093 13.4038C1.76929 14.0257 2.61895 14.3725 3.50299 14.3679L3.49606 13.0346ZM12.7738 2.31954C13.3043 2.31679 13.8141 2.52486 14.1911 2.89797C14.5681 3.27109 14.7814 3.7787 14.7842 4.30912L16.1175 4.30219C16.1129 3.41815 15.7573 2.57214 15.129 1.95028C14.5006 1.32841 13.651 0.981636 12.7669 0.98623L12.7738 2.31954ZM9.49726 19.4061C8.87667 19.0387 8.6446 18.2559 8.96391 17.6089L7.76751 17.0218C7.46506 17.6345 7.40508 18.3376 7.59958 18.9926C7.79408 19.6477 8.22871 20.2052 8.81655 20.5537L9.49726 19.4061ZM4.51144 3.1625C4.69644 2.91314 4.93696 2.71028 5.21394 2.56998C5.49093 2.42969 5.79677 2.3558 6.10726 2.35419L6.10033 1.02088C5.58285 1.02357 5.07311 1.1467 4.61147 1.38053C4.14982 1.61436 3.74896 1.95246 3.44063 2.36805L4.51144 3.1625ZM11.3683 18.9537C10.9716 19.5878 10.1392 19.7868 9.49726 19.4061L8.81521 20.5537C9.42331 20.9145 10.1483 21.0235 10.8356 20.8575C11.5229 20.6916 12.1195 20.2637 12.496 19.6652L11.3683 18.9537Z" fill="#035E46"/>
</g>
<defs>
<clipPath id="clip0_2647_2420">
<rect width="20" height="20" fill="white" transform="translate(20.2041 20.9479) rotate(179.702)"/>
</clipPath>
</defs>
</svg>
