<svg width="69" height="69" viewBox="0 0 69 69" fill="none" xmlns="http://www.w3.org/2000/svg">
<circle cx="34.5" cy="34.5" r="34" fill="#035E46" stroke="#FDFDFD"/>
<path d="M33.9175 19.0332C33.7772 19.0332 33.667 18.9229 33.667 18.7826V9.50738C33.667 9.36708 33.7772 9.25684 33.9175 9.25684C34.0578 9.25684 34.1681 9.36708 34.1681 9.50738V18.7826C34.1681 18.9229 34.0578 19.0332 33.9175 19.0332Z" fill="#F8FBF8"/>
<path d="M33.9176 7.73828L34.9348 10.2337L33.9176 9.63743L32.9004 10.2337L33.9176 7.73828Z" fill="#F8FBF8"/>
<path d="M23.4138 23.0867C23.3437 23.0867 23.2735 23.0566 23.2234 22.9965L17.2604 15.8909C17.1702 15.7857 17.1852 15.6254 17.2905 15.5402C17.3957 15.45 17.556 15.465 17.6412 15.5702L23.6042 22.6758C23.6944 22.781 23.6794 22.9413 23.5742 23.0265C23.5291 23.0666 23.4689 23.0867 23.4138 23.0867Z" fill="#F8FBF8"/>
<path d="M16.3135 14.3777L18.6937 15.6304L17.5361 15.8309L17.1353 16.9383L16.3135 14.3777Z" fill="#F8FBF8"/>
<path d="M17.9723 32.9436C17.9723 32.9436 17.9422 32.9436 17.9272 32.9436L8.79222 31.3351C8.65692 31.31 8.56672 31.1797 8.58677 31.0444C8.61182 30.9091 8.74211 30.8139 8.8774 30.839L18.0123 32.4475C18.1476 32.4725 18.2378 32.6028 18.2178 32.7381C18.1977 32.8584 18.0925 32.9436 17.9723 32.9436Z" fill="#F8FBF8"/>
<path d="M7.09375 30.7738L9.7295 30.2075L8.96784 31.1045L9.37373 32.2119L7.09375 30.7738Z" fill="#F8FBF8"/>
<path d="M12.1094 48.6272C12.0242 48.6272 11.939 48.5821 11.8939 48.502C11.8237 48.3817 11.8638 48.2314 11.9841 48.1612L20.0166 43.5211C20.1369 43.4509 20.2872 43.491 20.3574 43.6113C20.4275 43.7316 20.3874 43.8819 20.2672 43.952L12.2346 48.5922C12.1946 48.6172 12.1545 48.6272 12.1094 48.6272Z" fill="#F8FBF8"/>
<path d="M10.5762 49.2637L12.2248 47.134L12.2198 48.3116L13.242 48.8979L10.5762 49.2637Z" fill="#F8FBF8"/>
<path d="M25.7293 59.777C25.6992 59.777 25.6741 59.777 25.6441 59.7619C25.5138 59.7168 25.4486 59.5715 25.4937 59.4412L28.6657 50.7222C28.7108 50.5919 28.8561 50.5268 28.9864 50.5719C29.1167 50.617 29.1818 50.7623 29.1367 50.8926L25.9648 59.6116C25.9297 59.7118 25.8295 59.777 25.7293 59.777Z" fill="#F8FBF8"/>
<path d="M25.1227 61.1901L25.0225 58.4993L25.7741 59.4012L26.9366 59.1958L25.1227 61.1901Z" fill="#F8FBF8"/>
<path d="M43.3328 59.5614C43.2326 59.5614 43.1324 59.4963 43.0973 59.3961L39.9254 50.677C39.8803 50.5468 39.9454 50.4014 40.0757 50.3563C40.206 50.3062 40.3513 50.3764 40.3964 50.5067L43.5683 59.2257C43.6134 59.356 43.5483 59.5013 43.418 59.5464C43.3879 59.5564 43.3629 59.5614 43.3328 59.5614Z" fill="#F8FBF8"/>
<path d="M43.9339 60.9746L42.125 58.9802L43.2875 59.1857L44.0392 58.2837L43.9339 60.9746Z" fill="#F8FBF8"/>
<path d="M56.6771 48.0813C56.637 48.0813 56.5919 48.0713 56.5518 48.0463L48.5192 43.4061C48.399 43.336 48.3589 43.1857 48.4291 43.0654C48.4992 42.9451 48.6495 42.905 48.7698 42.9752L56.8023 47.6153C56.9226 47.6855 56.9627 47.8358 56.8925 47.9561C56.8474 48.0362 56.7622 48.0813 56.6771 48.0813Z" fill="#F8FBF8"/>
<path d="M58.2059 48.7128L55.54 48.352L56.5623 47.7657L56.5573 46.5881L58.2059 48.7128Z" fill="#F8FBF8"/>
<path d="M50.3835 32.3221C50.2632 32.3221 50.158 32.237 50.138 32.1167C50.1129 31.9814 50.2031 31.8511 50.3434 31.8261L59.4783 30.2176C59.6136 30.1925 59.7439 30.2827 59.769 30.423C59.794 30.5583 59.7038 30.6886 59.5635 30.7136L50.4286 32.3221C50.4286 32.3221 50.3985 32.3221 50.3835 32.3221Z" fill="#F8FBF8"/>
<path d="M61.2626 30.1523L58.9826 31.5854L59.3885 30.483L58.6318 29.5811L61.2626 30.1523Z" fill="#F8FBF8"/>
<path d="M44.566 22.6809C44.5109 22.6809 44.4508 22.6608 44.4057 22.6208C44.3005 22.5306 44.2854 22.3752 44.3756 22.27L50.3386 15.1645C50.4288 15.0593 50.5842 15.0442 50.6894 15.1344C50.7946 15.2246 50.8097 15.38 50.7195 15.4852L44.7565 22.5907C44.7064 22.6508 44.6362 22.6809 44.566 22.6809Z" fill="#F8FBF8"/>
<path d="M51.6663 13.9668L50.8445 16.5324L50.4437 15.425L49.2861 15.2245L51.6663 13.9668Z" fill="#F8FBF8"/>
<path d="M28.8965 31.9613C28.1799 31.9613 27.5986 31.38 27.5986 30.6634C27.5986 29.9469 28.1799 29.3706 28.8965 29.3706C29.613 29.3706 30.1893 29.9519 30.1893 30.6634C30.1893 31.375 29.608 31.9613 28.8965 31.9613ZM28.8965 29.8517C28.4505 29.8517 28.0847 30.2175 28.0847 30.6634C28.0847 31.1094 28.4505 31.4752 28.8965 31.4752C29.3424 31.4752 29.7082 31.1094 29.7082 30.6634C29.7082 30.2175 29.3424 29.8517 28.8965 29.8517Z" fill="#F8FBF8"/>
<path d="M28.8965 36.4561C28.1799 36.4561 27.5986 35.8749 27.5986 35.1583C27.5986 34.4417 28.1799 33.8655 28.8965 33.8655C29.613 33.8655 30.1893 34.4467 30.1893 35.1583C30.1893 35.8699 29.608 36.4561 28.8965 36.4561ZM28.8965 34.3465C28.4505 34.3465 28.0847 34.7123 28.0847 35.1583C28.0847 35.6043 28.4505 35.9701 28.8965 35.9701C29.3424 35.9701 29.7082 35.6043 29.7082 35.1583C29.7082 34.7123 29.3424 34.3465 28.8965 34.3465Z" fill="#F8FBF8"/>
<path d="M28.8965 40.951C28.1799 40.951 27.5986 40.3697 27.5986 39.6532C27.5986 38.9366 28.1799 38.3604 28.8965 38.3604C29.613 38.3604 30.1893 38.9416 30.1893 39.6532C30.1893 40.3647 29.608 40.951 28.8965 40.951ZM28.8965 38.8414C28.4505 38.8414 28.0847 39.2072 28.0847 39.6532C28.0847 40.0991 28.4505 40.4649 28.8965 40.4649C29.3424 40.4649 29.7082 40.0991 29.7082 39.6532C29.7082 39.2072 29.3424 38.8414 28.8965 38.8414Z" fill="#F8FBF8"/>
<path d="M28.8965 45.4459C28.1799 45.4459 27.5986 44.8646 27.5986 44.148C27.5986 43.4315 28.1799 42.8552 28.8965 42.8552C29.613 42.8552 30.1893 43.4365 30.1893 44.148C30.1893 44.8596 29.608 45.4459 28.8965 45.4459ZM28.8965 43.3363C28.4505 43.3363 28.0847 43.7021 28.0847 44.148C28.0847 44.594 28.4505 44.9598 28.8965 44.9598C29.3424 44.9598 29.7082 44.594 29.7082 44.148C29.7082 43.7021 29.3424 43.3363 28.8965 43.3363Z" fill="#F8FBF8"/>
<path d="M43.6537 49.2239H24.3265C24.1912 49.2239 24.0859 49.1137 24.0859 48.9834V25.888C24.0859 25.7527 24.1962 25.6474 24.3265 25.6474C24.4567 25.6474 24.567 25.7577 24.567 25.888V48.7378H43.4131V22.721H27.5936C27.4583 22.721 27.3531 22.6108 27.3531 22.4805C27.3531 22.3502 27.4633 22.24 27.5936 22.24H43.6587C43.794 22.24 43.8992 22.3502 43.8992 22.4805V48.9834C43.8992 49.1187 43.7889 49.2239 43.6587 49.2239H43.6537Z" fill="#F8FBF8"/>
<path d="M27.634 26.1134H25.1936C25.0584 26.1134 24.9531 26.0032 24.9531 25.8729C24.9531 25.7426 25.0634 25.6324 25.1936 25.6324H27.3935V23.3023C27.3935 23.167 27.5037 23.0618 27.634 23.0618C27.7643 23.0618 27.8745 23.172 27.8745 23.3023V25.8729C27.8745 26.0082 27.7643 26.1134 27.634 26.1134Z" fill="#F8FBF8"/>
<path d="M24.692 25.2669C24.6318 25.2669 24.5667 25.2418 24.5216 25.1967C24.4264 25.1015 24.4264 24.9512 24.5216 24.856L26.6462 22.7313C26.7414 22.6361 26.8918 22.6361 26.987 22.7313C27.0822 22.8265 27.0822 22.9769 26.987 23.0721L24.8623 25.1967C24.8172 25.2418 24.7521 25.2669 24.692 25.2669Z" fill="#F8FBF8"/>
<path d="M39.3844 30.849H31.7327C31.5974 30.849 31.4922 30.7387 31.4922 30.6084C31.4922 30.4782 31.6024 30.3679 31.7327 30.3679H39.3844C39.5197 30.3679 39.6249 30.4782 39.6249 30.6084C39.6249 30.7387 39.5147 30.849 39.3844 30.849Z" fill="#F8FBF8"/>
<path d="M39.3844 35.2938H31.7327C31.5974 35.2938 31.4922 35.1836 31.4922 35.0533C31.4922 34.923 31.6024 34.8127 31.7327 34.8127H39.3844C39.5197 34.8127 39.6249 34.923 39.6249 35.0533C39.6249 35.1836 39.5147 35.2938 39.3844 35.2938Z" fill="#F8FBF8"/>
<path d="M39.3844 39.8187H31.7327C31.5974 39.8187 31.4922 39.7085 31.4922 39.5782C31.4922 39.4479 31.6024 39.3376 31.7327 39.3376H39.3844C39.5197 39.3376 39.6249 39.4479 39.6249 39.5782C39.6249 39.7085 39.5147 39.8187 39.3844 39.8187Z" fill="#F8FBF8"/>
<path d="M39.3844 44.5089H31.7327C31.5974 44.5089 31.4922 44.3986 31.4922 44.2684C31.4922 44.1381 31.6024 44.0278 31.7327 44.0278H39.3844C39.5197 44.0278 39.6249 44.1381 39.6249 44.2684C39.6249 44.3986 39.5147 44.5089 39.3844 44.5089Z" fill="#F8FBF8"/>
</svg>
