<svg width="107" height="107" viewBox="0 0 107 107" fill="none" xmlns="http://www.w3.org/2000/svg">
<circle cx="53.5" cy="53.5" r="53" fill="#053237" stroke="#F8FBF8"/>
<path d="M78.6582 43.6982C74.9587 43.6982 71.9492 40.6887 71.9492 36.9892C71.9492 33.2897 74.9587 30.2803 78.6582 30.2803C82.3577 30.2803 85.3671 33.2897 85.3671 36.9892C85.3671 40.6887 82.3577 43.6982 78.6582 43.6982ZM78.6582 31.4358C75.5988 31.4358 73.1048 33.9299 73.1048 36.9892C73.1048 40.0486 75.5988 42.5426 78.6582 42.5426C81.7175 42.5426 84.2116 40.0486 84.2116 36.9892C84.2116 33.9299 81.7175 31.4358 78.6582 31.4358Z" fill="#F8FBF8"/>
<path d="M79.8808 86.0805C76.1813 86.0805 73.1719 83.071 73.1719 79.3716C73.1719 75.6721 76.1813 72.6626 79.8808 72.6626C83.5803 72.6626 86.5898 75.6721 86.5898 79.3716C86.5898 83.071 83.5803 86.0805 79.8808 86.0805ZM79.8808 73.8182C76.8215 73.8182 74.3274 76.3122 74.3274 79.3716C74.3274 82.4309 76.8215 84.9249 79.8808 84.9249C82.9402 84.9249 85.4342 82.4309 85.4342 79.3716C85.4342 76.3122 82.9402 73.8182 79.8808 73.8182Z" fill="#F8FBF8"/>
<path d="M34.9297 47.539C31.2302 47.539 28.2207 44.5295 28.2207 40.8301C28.2207 37.1306 31.2302 34.1211 34.9297 34.1211C38.6291 34.1211 41.6386 37.1306 41.6386 40.8301C41.6386 44.5295 38.6291 47.539 34.9297 47.539ZM34.9297 35.2767C31.8703 35.2767 29.3763 37.7707 29.3763 40.8301C29.3763 43.8894 31.8703 46.3834 34.9297 46.3834C37.989 46.3834 40.483 43.8894 40.483 40.8301C40.483 37.7707 37.989 35.2767 34.9297 35.2767Z" fill="#F8FBF8"/>
<path d="M40.109 63.401C39.9261 63.401 39.7432 63.3095 39.6269 63.1516C39.444 62.8855 39.5188 62.528 39.7765 62.3451L73.1966 39.5746C73.4626 39.3917 73.8201 39.4665 74.003 39.7243C74.1859 39.9903 74.111 40.3478 73.8533 40.5307L40.4333 63.3012C40.3335 63.3677 40.2171 63.401 40.109 63.401Z" fill="#F8FBF8"/>
<path d="M73.8617 78.5397C73.7952 78.5397 73.7287 78.5314 73.6622 78.5064L40.8573 66.6348C40.5581 66.5268 40.4001 66.1942 40.5082 65.8949C40.6163 65.5957 40.9488 65.4377 41.2481 65.5458L74.0529 77.4174C74.3522 77.5255 74.5102 77.858 74.4021 78.1573C74.319 78.3901 74.0945 78.5397 73.8617 78.5397Z" fill="#F8FBF8"/>
<path d="M34.9297 65.3463C34.7551 65.3463 34.5889 65.2549 34.4974 65.0969L31.2635 59.4937C22.4097 57.7561 16 49.9831 16 40.9297C16 30.4963 24.488 22 34.9297 22C45.3714 22 53.8595 30.488 53.8595 40.9297C53.8595 49.9914 47.4581 57.7561 38.6043 59.4937L35.3703 65.0969C35.2789 65.2549 35.1126 65.3463 34.938 65.3463H34.9297ZM34.9297 23.0059C25.045 23.0059 17.0059 31.045 17.0059 40.9297C17.0059 49.584 23.1745 56.9913 31.6709 58.5542C31.8122 58.5792 31.9369 58.6706 32.0117 58.7953L34.9297 63.8416L37.8477 58.7953C37.9226 58.6706 38.0473 58.5792 38.1886 58.5542C46.6849 56.9913 52.8535 49.584 52.8535 40.9297C52.8535 31.045 44.8144 23.0059 34.9297 23.0059Z" fill="#F8FBF8"/>
<path d="M34.9297 72.7954C31.2302 72.7954 28.2207 69.786 28.2207 66.0865C28.2207 63.5176 29.8169 61.0569 32.2028 59.9512L32.685 60.9987C30.7397 61.8965 29.3763 63.9915 29.3763 66.0782C29.3763 69.1375 31.8703 71.6316 34.9297 71.6316C37.989 71.6316 40.483 69.1375 40.483 66.0782C40.483 63.4428 38.2384 61.6554 37.0496 61.0735L37.5567 60.0343C39.0698 60.7742 41.6386 62.8775 41.6386 66.0782C41.6386 69.7777 38.6291 72.7871 34.9297 72.7871V72.7954Z" fill="#F8FBF8"/>
</svg>
