<svg width="107" height="107" viewBox="0 0 107 107" fill="none" xmlns="http://www.w3.org/2000/svg">
<circle cx="53.5" cy="53.5" r="53" fill="#053237" stroke="#F8FBF8"/>
<path d="M42.7673 86.9927C37.2086 86.9927 31.4595 85.9088 25.6372 83.7556C25.4101 83.6677 25.2563 83.4553 25.2563 83.2136L25 54.8196C25 54.6145 25.1025 54.4241 25.2783 54.3143C25.4541 54.2117 25.6738 54.2044 25.8569 54.2923C32.2725 57.6685 38.6294 59.2797 44.7521 59.0893C44.7521 59.0893 44.7667 59.0893 44.774 59.0893C45.089 59.0893 45.3526 59.3383 45.3599 59.6606C45.3673 59.9828 45.1182 60.2538 44.796 60.2684C38.7613 60.4662 32.4922 58.9575 26.1864 55.7863L26.4281 82.8035C33.1293 85.2277 39.7133 86.2017 46.0044 85.7037C49.9519 85.3888 53.1084 84.5539 56.1551 83.7483C60.0513 82.7156 64.0794 81.6537 69.8358 81.6097C74.1641 81.5951 78.5364 82.1151 82.8207 83.2283L83.0624 56.0866C78.7561 55.3615 74.3985 55.1199 70.1141 55.3762C69.8138 55.3762 69.5135 55.1492 69.4916 54.8269C69.4696 54.5047 69.7186 54.2264 70.0409 54.2044C74.5816 53.9334 79.1882 54.2044 83.7509 55.0173C84.0365 55.0686 84.2342 55.3103 84.2342 55.6032L83.9779 83.9973C83.9779 84.1804 83.89 84.3488 83.7435 84.4587C83.5971 84.5685 83.4066 84.6052 83.2382 84.5539C78.822 83.3381 74.3106 82.7156 69.8431 82.7815C64.2332 82.8255 60.2783 83.8728 56.4554 84.8834C53.3574 85.7037 50.1496 86.5459 46.0923 86.8682C44.9937 86.9561 43.8805 87 42.7673 87V86.9927Z" fill="#F8FBF8"/>
<path d="M54.0898 77.421C50.1716 77.421 46.8613 74.1034 46.854 70.1852C46.854 67.1239 48.89 64.3335 51.9367 63.235C52.2443 63.1251 52.5812 63.2862 52.6837 63.5865C52.7935 63.8941 52.6324 64.231 52.3321 64.3335C49.7542 65.2636 48.0185 67.6072 48.0258 70.1778C48.0258 73.4662 50.8088 76.2419 54.0898 76.2419C57.3709 76.2419 60.1392 73.4662 60.1539 70.1778C60.1612 67.5852 58.4182 65.227 55.8109 64.3042C55.5033 64.1944 55.3422 63.8648 55.452 63.5572C55.5546 63.2496 55.8915 63.0885 56.1991 63.1983C59.275 64.2822 61.3403 67.0872 61.3257 70.1852C61.311 74.1107 58.0007 77.421 54.0898 77.421Z" fill="#F8FBF8"/>
<path d="M30.1918 68.1854C29.8696 68.1854 29.606 67.9291 29.606 67.6069L29.54 61.3231C29.54 61.118 29.6426 60.9276 29.8183 60.8178C29.9941 60.7079 30.2138 60.7006 30.3969 60.7958C32.0521 61.6527 33.8244 62.2093 35.6627 62.4656C37.1567 62.6707 38.6654 62.6707 40.1594 62.4656C40.4743 62.4217 40.7746 62.6414 40.8186 62.9636C40.8625 63.2859 40.6355 63.5788 40.3206 63.6228C38.724 63.8425 37.1054 63.8425 35.5089 63.6228C33.861 63.3957 32.2571 62.9343 30.7338 62.2532L30.7924 67.5922C30.7924 67.9145 30.5361 68.1781 30.2138 68.1854H30.1918Z" fill="#F8FBF8"/>
<path d="M35.1871 82.7526C33.3928 82.7526 31.5912 82.3645 29.9507 81.6248C29.7383 81.5296 29.6064 81.3245 29.6064 81.0902V75.4655C29.6064 75.1433 29.8701 74.8796 30.1923 74.8796C30.5146 74.8796 30.7782 75.1433 30.7782 75.4655V80.7093C32.2503 81.3099 33.8396 81.6248 35.4288 81.5808C36.9888 81.5442 38.4974 81.2073 39.9256 80.5628C40.2185 80.431 40.57 80.5628 40.7019 80.8558C40.8337 81.1487 40.7019 81.5003 40.4089 81.6321C38.8343 82.3425 37.1718 82.716 35.4508 82.7526C35.3629 82.7526 35.275 82.7526 35.1871 82.7526Z" fill="#F8FBF8"/>
<path d="M78.5431 66.1789C78.2209 66.1789 77.9572 65.9153 77.9572 65.593V60.4225C76.5731 60.0929 75.1523 59.9245 73.7315 59.9098C72.0763 59.8879 70.3552 60.1002 68.722 60.5323C68.4071 60.6202 68.0849 60.4298 68.0043 60.1149C67.9238 59.8 68.1068 59.4777 68.4218 59.3972C70.1575 58.9431 71.9518 58.7454 73.7461 58.738C75.4159 58.7527 77.0784 58.9797 78.6969 59.3972C78.9533 59.4631 79.1364 59.6974 79.1364 59.9611V65.5857C79.1364 65.908 78.8727 66.1716 78.5505 66.1716L78.5431 66.1789Z" fill="#F8FBF8"/>
<path d="M68.5682 79.6692C68.3046 79.6692 68.0702 79.4934 68.0043 79.2298C67.9238 78.9149 68.1068 78.5926 68.4218 78.5121C70.2527 78.0287 72.1276 77.809 74.0171 77.8529C75.3427 77.8822 76.6609 78.0433 77.9572 78.3363V73.4514C77.9572 73.1291 78.2209 72.8655 78.5431 72.8655C78.8654 72.8655 79.129 73.1291 79.129 73.4514V79.076C79.129 79.2591 79.0412 79.4275 78.902 79.5374C78.7555 79.6472 78.5724 79.6839 78.3967 79.6399C76.9539 79.2591 75.4745 79.054 73.9878 79.0174C72.2154 78.9661 70.4431 79.1858 68.7147 79.6399C68.6634 79.6546 68.6122 79.6619 68.5682 79.6619V79.6692Z" fill="#F8FBF8"/>
<path d="M53.9868 67.7753C53.7744 67.7753 53.584 67.6655 53.4814 67.4824L49.6951 60.9203C39.3174 58.8843 31.8179 49.781 31.8179 39.1689C31.8179 26.9456 41.7635 17 53.9868 17C66.21 17 76.1557 26.9456 76.1557 39.1689C76.1557 49.781 68.6562 58.8843 58.2785 60.9203L54.4921 67.4824C54.3896 67.6655 54.1918 67.7753 53.9868 67.7753ZM53.9868 18.1718C42.408 18.1718 32.9897 27.5901 32.9897 39.1689C32.9897 49.3049 40.2182 57.9835 50.1711 59.8145C50.3396 59.8437 50.486 59.9463 50.5739 60.1001L53.9868 66.0103L57.3996 60.1001C57.4875 59.9536 57.634 59.8511 57.8024 59.8145C67.7627 57.9835 74.9839 49.3049 74.9839 39.1689C74.9839 27.5901 65.5656 18.1718 53.9868 18.1718Z" fill="#F8FBF8"/>
<path d="M54.6023 70.2069V70.5291H51.3872V70.2142H54.6023V70.2069ZM54.6023 71.5618V71.884H51.3872V71.5691H54.6023V71.5618ZM54.7195 74.3008C54.3094 74.3008 53.9359 74.2276 53.6209 74.0884C53.2987 73.942 53.0277 73.7369 52.808 73.4586C52.5883 73.1803 52.4199 72.8434 52.3027 72.4479C52.1855 72.0451 52.1342 71.591 52.1342 71.0784C52.1342 70.39 52.2368 69.8041 52.4345 69.3134C52.6322 68.8227 52.9252 68.4565 53.2987 68.1928C53.6795 67.9365 54.1336 67.8047 54.6609 67.8047C54.8953 67.8047 55.1223 67.8413 55.3567 67.9145C55.5837 67.9878 55.7961 68.0903 55.9938 68.2295L55.7521 68.559C55.5983 68.4419 55.4372 68.3466 55.2615 68.2734C55.0857 68.2002 54.8953 68.1635 54.6902 68.1635C54.2288 68.1635 53.8407 68.2734 53.5184 68.4931C53.2035 68.7128 52.9618 69.0351 52.8007 69.4672C52.6396 69.8993 52.559 70.4266 52.559 71.0637C52.559 71.7009 52.6396 72.1916 52.8007 72.6164C52.9618 73.0411 53.2035 73.3634 53.5331 73.5831C53.8626 73.8028 54.2654 73.9127 54.7634 73.9127C54.9685 73.9127 55.1662 73.8834 55.342 73.8248C55.5251 73.7662 55.6862 73.6856 55.8327 73.5904L56.0451 73.8834C55.862 74.0079 55.6496 74.1031 55.4299 74.169C55.2029 74.2349 54.9685 74.2715 54.7268 74.2715L54.7195 74.3008Z" fill="#F8FBF8"/>
<path d="M54.7195 74.469C54.2874 74.469 53.8992 74.3958 53.5623 74.242C53.2255 74.0882 52.9325 73.8685 52.6981 73.5755C52.4638 73.2899 52.288 72.931 52.1708 72.5136C52.1269 72.3671 52.0976 72.2133 52.0683 72.0522H51.2554V71.437H52.0097C52.0097 71.3271 52.0024 71.2173 52.0024 71.1001C52.0024 70.961 52.0024 70.8218 52.017 70.69H51.2627V70.0748H52.0903C52.1415 69.7892 52.2148 69.5255 52.3173 69.2838C52.5297 68.7712 52.8373 68.3757 53.2401 68.1047C53.6429 67.8337 54.1263 67.6946 54.6902 67.6946C54.9392 67.6946 55.1882 67.7385 55.4299 67.8118C55.6716 67.885 55.8986 68.0022 56.1037 68.1487L56.2282 68.2365L55.8034 68.8078L55.6862 68.7126C55.5471 68.6027 55.3933 68.5148 55.2321 68.4489C55.0784 68.383 54.9026 68.3537 54.7122 68.3537C54.2801 68.3537 53.9139 68.4562 53.6283 68.654C53.3353 68.859 53.1156 69.1593 52.9618 69.5621C52.9032 69.7159 52.8593 69.8844 52.8226 70.0748H54.7854V70.6827H52.7494C52.7421 70.8218 52.7348 70.961 52.7348 71.1074C52.7348 71.2173 52.7348 71.3345 52.7421 71.437H54.7854V72.0449H52.8153C52.8519 72.2499 52.9032 72.4403 52.9691 72.6088C53.1156 73.0043 53.35 73.3045 53.6429 73.5096C53.9432 73.7147 54.324 73.8172 54.7854 73.8172C54.9758 73.8172 55.1589 73.7879 55.32 73.7366C55.4885 73.6781 55.6423 73.6048 55.7814 73.5169L55.8986 73.4364L56.2794 73.971L56.1549 74.0516C55.9572 74.1761 55.7375 74.2859 55.5031 74.3592C55.2688 74.4324 55.0124 74.469 54.7561 74.469H54.7195ZM52.3613 72.0449C52.3832 72.1767 52.4125 72.3085 52.4491 72.4257C52.559 72.8139 52.7128 73.1215 52.9252 73.3851C53.1302 73.6414 53.3866 73.8392 53.6795 73.971C53.9798 74.1028 54.3313 74.1687 54.7195 74.1687C54.9465 74.1687 55.1736 74.1321 55.3786 74.0735C55.5397 74.0223 55.6862 73.9564 55.8254 73.8831L55.7888 73.8245C55.6643 73.8978 55.5251 73.9564 55.3786 74.0003C55.1882 74.0662 54.9758 74.0955 54.7488 74.0955C54.2288 74.0955 53.7894 73.9783 53.4378 73.7366C53.0863 73.5023 52.8226 73.1508 52.6542 72.6967C52.581 72.4989 52.5224 72.2792 52.4784 72.0375H52.3539L52.3613 72.0449ZM51.541 71.7226V71.7519H52.0244C52.0244 71.7519 52.0244 71.7299 52.0244 71.7226H51.541ZM52.3173 71.7226C52.3173 71.7226 52.3173 71.7446 52.3173 71.7519H52.4418C52.4418 71.7519 52.4418 71.7299 52.4418 71.7226H52.3173ZM52.7348 71.7226C52.7348 71.7226 52.7348 71.7446 52.7348 71.7519H54.4558V71.7153H52.7274L52.7348 71.7226ZM52.2953 70.69C52.288 70.8218 52.2807 70.961 52.2807 71.1074C52.2807 71.2173 52.2807 71.3345 52.288 71.437H52.4125C52.4125 71.3271 52.4052 71.2173 52.4052 71.1074C52.4052 70.9683 52.4052 70.8291 52.4198 70.69H52.2953ZM51.541 70.3677V70.397H52.0317C52.0317 70.397 52.0317 70.3751 52.0317 70.3677H51.541ZM52.332 70.3677C52.332 70.3677 52.332 70.3897 52.332 70.397H52.4565C52.4565 70.397 52.4565 70.3751 52.4565 70.3677H52.332ZM52.7494 70.3677C52.7494 70.3677 52.7494 70.3897 52.7494 70.397H54.4705V70.3604H52.7567L52.7494 70.3677ZM54.6755 67.9949C54.1775 67.9949 53.7454 68.1194 53.3939 68.3537C53.0424 68.5881 52.7714 68.9469 52.581 69.4083C52.4931 69.6134 52.4345 69.8404 52.3832 70.0821H52.5004C52.5443 69.8624 52.5956 69.6573 52.6688 69.4669C52.8373 69.0128 53.101 68.6613 53.4378 68.4196C53.7747 68.1853 54.1995 68.0608 54.6902 68.0608C54.9172 68.0608 55.1296 68.0974 55.32 68.1779C55.4592 68.2365 55.5983 68.3098 55.7228 68.3977L55.7888 68.3098C55.6423 68.2219 55.4812 68.1487 55.32 68.0974C55.1076 68.0241 54.8879 67.9949 54.6755 67.9949Z" fill="#F8FBF8"/>
<path d="M54.0605 52.1245C53.7383 52.1245 53.4746 51.8608 53.4746 51.5386V30.9809C53.4746 30.6587 53.7383 30.395 54.0605 30.395C54.3827 30.395 54.6464 30.6587 54.6464 30.9809V51.5386C54.6464 51.8608 54.3827 52.1245 54.0605 52.1245Z" fill="#F8FBF8"/>
<path d="M64.3355 41.8422H43.7778C43.4555 41.8422 43.1919 41.5786 43.1919 41.2563C43.1919 40.9341 43.4555 40.6704 43.7778 40.6704H64.3355C64.6577 40.6704 64.9214 40.9341 64.9214 41.2563C64.9214 41.5786 64.6577 41.8422 64.3355 41.8422Z" fill="#F8FBF8"/>
<path d="M66.928 33.3173H64.2402C63.918 33.3173 63.6543 33.0536 63.6543 32.7314C63.6543 32.4092 63.918 32.1455 64.2402 32.1455H66.928C67.2502 32.1455 67.5139 32.4092 67.5139 32.7314C67.5139 33.0536 67.2502 33.3173 66.928 33.3173Z" fill="#F8FBF8"/>
<path d="M65.1487 31.0324H62.4536C62.1313 31.0324 61.8677 30.7687 61.8677 30.4465C61.8677 30.1243 62.1313 29.8606 62.4536 29.8606H65.1487C65.4709 29.8606 65.7346 30.1243 65.7346 30.4465C65.7346 30.7687 65.4709 31.0324 65.1487 31.0324Z" fill="#F8FBF8"/>
</svg>
