<svg width="107" height="107" viewBox="0 0 107 107" fill="none" xmlns="http://www.w3.org/2000/svg">
<circle cx="53.5" cy="53.5" r="53.5" fill="#035E46"/>
<path d="M78.0139 22.9928L78.0141 22.9927C79.2625 22.5666 80.2797 23.3252 80.63 24.2876C80.9894 25.2482 80.725 26.5237 79.5311 27.0693C79.5309 27.0694 79.5306 27.0695 79.5304 27.0696L68.0519 32.4983C69.1964 33.3975 69.9163 34.8302 69.9163 36.3801C69.9163 37.6813 69.4327 38.8995 68.555 39.8111C67.7063 40.7232 66.5143 41.2431 65.2813 41.2431H62.6714L65.9378 88.6004H69.2037C69.5401 88.6004 69.7977 88.8782 69.7977 89.2193C69.7977 89.5604 69.5401 89.8381 69.2037 89.8381H43.6637C43.3272 89.8381 43.0697 89.5604 43.0697 89.2193C43.0697 88.8782 43.3272 88.6004 43.6637 88.6004H55.0312L58.2976 41.2431H54.9863C54.5379 41.2431 54.1252 41.1619 53.7185 41.0342L48.3659 67.7275C48.1285 68.92 47.2044 69.4787 46.3214 69.4787H46.3179C46.2119 69.4787 46.1055 69.4787 45.9881 69.4564M78.0139 22.9928L46.0053 69.3579M78.0139 22.9928L51.9704 31.9375C51.9703 31.9375 51.9702 31.9376 51.9701 31.9376C51.6954 32.0306 51.3939 31.9844 51.1533 31.8068C51.1532 31.8067 51.1531 31.8066 51.1529 31.8065L28.9237 14.9759L28.9234 14.9757C27.8632 14.1788 26.6765 14.5764 26.0572 15.3785C25.4386 16.1798 25.3228 17.4733 26.2845 18.3965L26.2852 18.3971L46.6769 37.6144M78.0139 22.9928L46.6773 37.6148M45.9881 69.4564C45.9876 69.4563 45.987 69.4562 45.9865 69.4561L46.0053 69.3579M45.9881 69.4564C45.9887 69.4565 45.9892 69.4566 45.9898 69.4567L46.0053 69.3579M45.9881 69.4564C45.0128 69.303 44.092 68.4193 44.2261 67.0651M46.0053 69.3579C45.0765 69.2126 44.1972 68.3721 44.3256 67.075M44.2261 67.0651L44.2261 67.0654L44.3256 67.075M44.2261 67.0651L46.9826 38.4365M44.2261 67.0651L44.3256 67.075M44.3256 67.075L46.9826 38.4365M46.9826 38.4365L47.0822 38.4451L46.9826 38.4356L46.9826 38.436C46.9826 38.4362 46.9826 38.4364 46.9826 38.4365ZM46.6773 37.6148L46.6777 37.6151L46.7463 37.5424L46.6769 37.6144M46.6773 37.6148C46.6772 37.6146 46.677 37.6145 46.6769 37.6144M46.6773 37.6148L46.6769 37.6144M53.6228 41.0033L53.6426 40.9045C53.6745 40.9151 53.7064 40.9255 53.7383 40.9356L53.6228 41.0033ZM27.0942 17.4837L27.0938 17.4834C26.8469 17.2528 26.7603 17.0043 26.7625 16.7753C26.7647 16.543 26.8584 16.3223 26.9863 16.1543C27.1513 15.9427 27.4013 15.7782 27.6876 15.7782C27.8516 15.7782 28.0373 15.8322 28.2278 15.9846L28.2278 15.9846L28.2299 15.9863L49.8106 32.3085C48.1789 32.7752 46.9608 34.3096 46.8869 36.1414L27.0942 17.4837ZM67.7189 38.9568L67.7179 38.9578C67.0841 39.6336 66.2013 40.0262 65.2813 40.0262H55.006C54.6461 40.0262 54.3087 39.9496 53.9848 39.8337L54.0369 39.5759C54.0369 39.5758 54.0369 39.5757 54.0369 39.5756C54.1001 39.2726 54.2982 39.0195 54.5546 38.8988L54.5547 38.8987L66.7628 33.1289C67.9478 33.7129 68.7381 34.9913 68.7381 36.4009C68.7381 37.3717 68.3724 38.2806 67.7189 38.9568ZM79.0407 25.9649L54.6274 37.4992C54.7387 37.1219 54.8096 36.7265 54.8096 36.3075C54.8096 34.8635 54.0968 33.611 53.0356 32.8605L78.395 24.1574L78.396 24.157C78.705 24.0472 78.9471 24.0921 79.1297 24.206C79.3159 24.3222 79.4495 24.5165 79.5231 24.7188C79.5969 24.9274 79.6228 25.1701 79.5583 25.3931C79.4949 25.6125 79.3419 25.8211 79.0408 25.9648C79.0408 25.9649 79.0407 25.9649 79.0407 25.9649ZM50.8465 39.2376C49.3158 39.2376 48.0714 37.9279 48.0714 36.3179C48.0714 34.7081 49.3255 33.3982 50.8465 33.3982C52.3675 33.3982 53.6216 34.7081 53.6216 36.3179C53.6216 37.9276 52.3675 39.2376 50.8465 39.2376ZM47.2213 67.4805C47.1522 67.8194 46.9918 68.0194 46.8064 68.1291C46.6185 68.2404 46.3941 68.2653 46.1897 68.232C45.9902 68.1986 45.7829 68.1038 45.6342 67.9361C45.4876 67.7707 45.3908 67.5264 45.4231 67.1776L48.1089 39.2886C48.8177 40.0118 49.7879 40.4649 50.8564 40.4649C51.5483 40.4649 52.1898 40.2679 52.7588 39.9449L47.2213 67.4805ZM61.4632 41.2535L64.7394 88.6108H56.2296L59.496 41.2535H61.4632Z" fill="#F8FAF8" stroke="#F8FAF8" stroke-width="0.2"/>
</svg>
