<svg width="25" height="25" viewBox="0 0 25 25" fill="none" xmlns="http://www.w3.org/2000/svg">
<circle cx="12.5962" cy="12.4999" r="12.3075" fill="#035E46"/>
<path d="M18.228 5.45979L18.2281 5.45976C18.53 5.3567 18.7755 5.54123 18.8594 5.7717C18.9453 6.00139 18.8827 6.30922 18.5945 6.44101C18.5944 6.44106 18.5943 6.4411 18.5942 6.44115L15.9875 7.67397C16.2394 7.88623 16.3962 8.21128 16.3962 8.56168C16.3962 8.86681 16.2828 9.15287 16.0767 9.36705C16.0766 9.36715 16.0765 9.36725 16.0764 9.36735L16.0429 9.33513C15.852 9.54043 15.5838 9.6574 15.3065 9.6574L18.228 5.45979ZM18.228 5.45979L12.2368 7.51747C12.2368 7.51748 12.2368 7.51749 12.2367 7.5175C12.1809 7.53638 12.1197 7.5271 12.0705 7.49085C12.0704 7.49079 12.0703 7.49074 12.0702 7.49069L6.95667 3.61901L6.95654 3.61891C6.70036 3.42635 6.41319 3.52345 6.26455 3.71598C6.11618 3.90817 6.08787 4.21948 6.31916 4.4415L6.31916 4.4415L6.31947 4.4418L11.0103 8.86251C11.0104 8.86256 11.0105 8.86261 11.0105 8.86266C11.0548 8.90543 11.0791 8.96789 11.0736 9.03249C11.0736 9.03257 11.0736 9.03265 11.0736 9.03273L10.4395 15.6184L10.4857 15.623L10.4395 15.6185L10.4395 15.6185C10.4074 15.9433 10.6289 16.1567 10.8641 16.1939L18.228 5.45979ZM15.4794 20.5514L14.7312 9.70384L10.8721 16.1481C10.8971 16.1529 10.9198 16.1529 10.9448 16.1529C11.138 16.1529 11.3403 16.0312 11.3926 15.7686L11.4381 15.7777L11.4381 15.7776L12.6644 9.66227C12.7517 9.68781 12.8413 9.70384 12.9381 9.70384H13.6748L12.9266 20.5514H10.3334C10.242 20.5514 10.1733 20.6269 10.1733 20.7172C10.1733 20.8075 10.242 20.883 10.3334 20.883H16.2088C16.3002 20.883 16.3689 20.8075 16.3689 20.7172C16.3689 20.6269 16.3002 20.5514 16.2088 20.5514H15.4794ZM6.53774 4.19755L6.53774 4.19755L6.53757 4.1974C6.48538 4.14868 6.46835 4.09775 6.46879 4.05186C6.46924 4.0045 6.48845 3.95855 6.5154 3.9231C6.55035 3.87833 6.60162 3.84571 6.65816 3.84571C6.69035 3.84571 6.72794 3.85616 6.76779 3.88805L6.76778 3.88806L6.76879 3.88883L11.6971 7.61629C11.3488 7.73556 11.09 8.06309 11.0548 8.45556L6.53774 4.19755ZM15.8504 9.13814L15.8499 9.13864C15.7084 9.28952 15.5115 9.37701 15.3065 9.37701H12.9427C12.8702 9.37701 12.8015 9.36295 12.7348 9.34071L12.7427 9.30163C12.7427 9.3016 12.7427 9.30157 12.7427 9.30154C12.7558 9.23863 12.7969 9.18675 12.8488 9.1623L12.8489 9.16227L15.647 7.83981C15.9057 7.97228 16.0783 8.25474 16.0783 8.56646C16.0783 8.78384 15.9964 8.98704 15.8504 9.13814ZM18.4617 6.14453L12.8915 8.77621C12.9098 8.70263 12.921 8.62575 12.921 8.54497C12.921 8.22154 12.7691 7.93877 12.5391 7.75971L18.3309 5.77204L18.3313 5.77187C18.3961 5.74886 18.4443 5.75874 18.4799 5.78094C18.5172 5.80422 18.5451 5.84407 18.5607 5.88701C18.5765 5.93155 18.5815 5.9822 18.5684 6.02763C18.5557 6.07144 18.5252 6.1142 18.4618 6.14448C18.4618 6.14449 18.4618 6.14451 18.4617 6.14453ZM11.9858 9.19559C11.6477 9.19559 11.3708 8.90594 11.3708 8.54736C11.3708 8.18889 11.6499 7.89914 11.9858 7.89914C12.3217 7.89914 12.6008 8.18889 12.6008 8.54736C12.6008 8.90583 12.3217 9.19559 11.9858 9.19559ZM11.1289 15.7115C11.1289 15.7115 11.1289 15.7116 11.1289 15.7116C11.1141 15.7838 11.0807 15.8238 11.0445 15.8453C11.007 15.8675 10.9612 15.873 10.9184 15.866C10.8767 15.859 10.8342 15.8393 10.8043 15.8055C10.7753 15.7728 10.7547 15.7232 10.7615 15.6489L10.7615 15.6487L11.3747 9.2815C11.5381 9.43191 11.7529 9.5248 11.9881 9.5248C12.134 9.5248 12.2702 9.48776 12.3929 9.42589L11.1289 15.7115ZM14.4063 9.70623L15.1567 20.5538H13.2493L13.9975 9.70623H14.4063Z" fill="#F8FAF8" stroke="#F8FAF8" stroke-width="0.092887"/>
</svg>
