<svg width="44" height="44" viewBox="0 0 44 44" fill="none" xmlns="http://www.w3.org/2000/svg">
<path d="M42.8655 11.2761L22.7964 0.206807C22.5529 0.0711847 22.2787 0 22 0C21.7213 0 21.4471 0.0711847 21.2036 0.206807L1.133 11.2776C0.789714 11.4679 0.50362 11.7467 0.304395 12.0849C0.10517 12.4231 7.09824e-05 12.8085 0 13.201L0 17.6009C0.000772893 17.8572 0.0689357 18.1088 0.19765 18.3304C0.326364 18.5521 0.511103 18.7359 0.733333 18.8636V42.5334C0.733333 42.9224 0.887857 43.2954 1.16291 43.5704C1.43796 43.8455 1.81102 44 2.2 44H41.8C42.189 44 42.562 43.8455 42.8371 43.5704C43.1121 43.2954 43.2667 42.9224 43.2667 42.5334V18.8636C43.4889 18.7359 43.6736 18.5521 43.8023 18.3304C43.9311 18.1088 43.9992 17.8572 44 17.6009V13.201C44 12.8081 43.8948 12.4223 43.6953 12.0838C43.4958 11.7453 43.2093 11.4664 42.8655 11.2761ZM42.5333 17.6009H1.46667V16.1343H42.5333V17.6009ZM36.3323 19.0675L24.2 35.6124V19.0675H36.3323ZM24.2 41.0668H38.8667V42.5334H24.2V41.0668ZM26.7329 39.6001L38.8667 23.0552V39.6001H26.7329ZM38.8667 20.5745L24.9135 39.6001H24.2V38.0932L38.1531 19.0675H38.8667V20.5745ZM5.13333 23.0552L17.2671 39.6001H5.13333V23.0552ZM5.13333 41.0668H19.8V42.5334H5.13333V41.0668ZM19.0865 39.6001L5.13333 20.5745V19.0675H5.84687L19.8 38.0932V39.6001H19.0865ZM7.66627 19.0675H19.8V35.6124L7.66627 19.0675ZM22 5.2417L28.4086 8.80118H15.5914L22 5.2417ZM38.9701 14.6677H34.4667V12.1663L38.9701 14.6677ZM33 14.6677H31.5333V10.5369L33 11.3516V14.6677ZM30.0667 11.7344H13.9333V10.2678H30.0667V11.7344ZM13.9333 13.201H30.0667V14.6677H13.9333V13.201ZM12.4667 14.6677H11V11.3516L12.4667 10.5369V14.6677ZM9.53333 14.6677H5.02993L9.53333 12.1663V14.6677ZM42.1549 12.5594C42.2696 12.6228 42.3651 12.7157 42.4317 12.8286C42.4982 12.9414 42.5333 13.07 42.5333 13.201V14.6677H41.9899L22.7333 3.97161V1.84502L42.1549 12.5594ZM1.46667 13.201C1.46679 13.0704 1.5018 12.9422 1.56806 12.8297C1.63433 12.7171 1.72945 12.6243 1.8436 12.5609L21.2667 1.84648V3.97308L2.01007 14.6677H1.46667V13.201ZM3.66667 42.5334H2.2V19.0675H3.66667V42.5334ZM22.7333 42.5334H21.2667V19.0675H22.7333V42.5334ZM40.3333 42.5334V19.0675H41.8V42.5334H40.3333Z" fill="#1F2223"/>
</svg>
