<svg width="107" height="107" viewBox="0 0 107 107" fill="none" xmlns="http://www.w3.org/2000/svg">
<circle cx="53.5" cy="53.5" r="53.5" fill="#035E46"/>
<g clip-path="url(#clip0_146_4657)">
<path d="M87.0605 33.7396L55.7519 16.4706C55.372 16.259 54.9444 16.1479 54.5095 16.1479C54.0747 16.1479 53.647 16.259 53.2671 16.4706L21.9563 33.7419C21.4207 34.0389 20.9744 34.4738 20.6636 35.0015C20.3528 35.5291 20.1889 36.1303 20.1888 36.7427V43.6069C20.19 44.0067 20.2963 44.3992 20.4971 44.745C20.6979 45.0908 20.9861 45.3777 21.3328 45.5769V82.5037C21.3328 83.1105 21.5738 83.6925 22.0029 84.1216C22.432 84.5507 23.014 84.7918 23.6208 84.7918H85.3982C86.005 84.7918 86.587 84.5507 87.0161 84.1216C87.4452 83.6925 87.6862 83.1105 87.6862 82.5037V45.5769C88.0329 45.3777 88.3211 45.0908 88.5219 44.745C88.7227 44.3992 88.8291 44.0067 88.8303 43.6069V36.7427C88.8303 36.1297 88.6662 35.5279 88.355 34.9998C88.0438 34.4717 87.5968 34.0365 87.0605 33.7396ZM86.5422 43.6069H22.4768V41.3188H86.5422V43.6069ZM76.8683 45.8949L57.9416 71.7064V45.8949H76.8683ZM57.9416 80.2157H80.8221V82.5037H57.9416V80.2157ZM61.8931 77.9276L80.8221 52.1161V77.9276H61.8931ZM80.8221 48.2459L59.0547 77.9276H57.9416V75.5766L79.709 45.8949H80.8221V48.2459ZM28.1969 52.1161L47.126 77.9276H28.1969V52.1161ZM28.1969 80.2157H51.0774V82.5037H28.1969V80.2157ZM49.9643 77.9276L28.1969 48.2459V45.8949H29.3101L51.0774 75.5766V77.9276H49.9643ZM32.1484 45.8949H51.0774V71.7064L32.1484 45.8949ZM54.5095 24.3255L64.5071 29.8786H44.5119L54.5095 24.3255ZM80.9834 39.0308H73.9579V35.1285L80.9834 39.0308ZM71.6699 39.0308H69.3818V32.5865L71.6699 33.8575V39.0308ZM67.0938 34.4547H41.9252V32.1666H67.0938V34.4547ZM41.9252 36.7427H67.0938V39.0308H41.9252V36.7427ZM39.6372 39.0308H37.3491V33.8575L39.6372 32.5865V39.0308ZM35.0611 39.0308H28.0356L35.0611 35.1285V39.0308ZM85.9519 35.7417C86.1307 35.8406 86.2798 35.9856 86.3836 36.1617C86.4874 36.3377 86.5422 36.5383 86.5422 36.7427V39.0308H85.6945L55.6535 22.344V19.0263L85.9519 35.7417ZM22.4768 36.7427C22.477 36.539 22.5316 36.339 22.635 36.1634C22.7384 35.9878 22.8868 35.843 23.0648 35.744L53.3655 19.0286V22.3463L23.3245 39.0308H22.4768V36.7427ZM25.9089 82.5037H23.6208V45.8949H25.9089V82.5037ZM55.6535 82.5037H53.3655V45.8949H55.6535V82.5037ZM83.1101 82.5037V45.8949H85.3982V82.5037H83.1101Z" fill="#F8FBF8"/>
</g>
<defs>
<clipPath id="clip0_146_4657">
<rect width="68.6415" height="68.6415" fill="white" transform="translate(20.1887 16.1509)"/>
</clipPath>
</defs>
</svg>
