<svg width="90" height="90" viewBox="0 0 90 90" fill="none" xmlns="http://www.w3.org/2000/svg">
<g id="Property 1=Zakjes en wikkels">
<path id="Screenshot 2024-02-28 at 13.24 10 (Traced)" fill-rule="evenodd" clip-rule="evenodd" d="M59.5607 2.44419C59.1835 2.67868 58.8747 2.94817 58.8747 3.04342C58.8747 3.13841 58.6071 3.53515 58.2798 3.92488C57.151 5.26933 56.0619 7.32875 54.6026 10.8794C53.7562 12.9385 53.1176 18.0883 53.5821 19.1098C53.7268 19.428 54.6119 20.1143 55.5493 20.6347C57.3346 21.6264 58.0139 22.1814 60.4029 24.6016C61.9564 26.175 62.3725 26.9412 61.8494 27.2652C61.6411 27.3942 61.0816 27.0857 60.2637 26.3913C59.5682 25.801 58.6627 25.1311 58.2511 24.9023C57.8395 24.6738 56.9642 24.1533 56.3059 23.7456C53.1508 21.7917 48.0618 20.5772 44.1162 20.8367C40.9278 21.0465 37.6295 21.6094 36.9029 22.0677C36.5709 22.2769 35.8674 22.5857 35.3393 22.7537C34.3031 23.0831 31.8702 24.4031 30.6192 25.3143C29.0791 26.4363 26.044 29.6721 24.7624 31.5588C24.0422 32.619 23.4522 33.5747 23.4517 33.6825C23.4512 33.7902 23.2018 34.2722 22.8972 34.7534C22.2529 35.7714 21.3289 39.0665 20.9343 41.7532C20.5923 44.0836 20.8058 48.6247 21.3516 50.6278C21.5764 51.4528 21.867 52.576 21.9975 53.124C22.1277 53.672 22.3908 54.2937 22.5822 54.5054C22.7735 54.7174 23.0758 55.3119 23.2539 55.8266C23.5835 56.7798 24.7302 58.4965 26.6345 60.8884C28.1155 62.7486 27.4093 63.0288 25.36 61.3942C24.2889 60.5397 20.9582 56.7028 20.9582 56.3231C20.9582 56.1896 20.738 55.8804 20.4688 55.6361C20.1994 55.3919 19.8517 54.8049 19.6958 54.3314C19.4121 53.4705 19.4121 53.4705 17.0047 53.563C12.3774 53.7402 7.00298 55.8786 3.18489 59.0612C2.27315 59.8215 2 60.2152 2 60.7699C2 61.9136 2.82593 62.2704 6.04758 62.5184C7.59443 62.6374 9.31489 62.7986 9.87116 62.8766C11.3135 63.0786 13.7716 64.1315 14.2852 64.767C14.8168 65.425 14.8492 66.714 14.3583 67.6694C14.1582 68.0587 13.6419 69.2209 13.2108 70.2521C12.7798 71.2833 12.2701 72.4965 12.0778 72.948C11.5402 74.2112 11.641 75.5069 12.3594 76.5661C13.8479 78.7615 15.7278 78.7187 20.2099 76.3876C20.8273 76.0663 21.9498 75.6696 22.7044 75.5059C24.6035 75.0939 25.3129 75.4029 25.9864 76.9361C26.5928 78.3158 27.6777 84.0348 27.6869 85.9002C27.6974 87.9864 28.9773 88.6451 30.4329 87.3139C31.2042 86.6084 32.8777 84.059 33.5919 82.5016C33.8124 82.0204 34.1472 81.3281 34.3355 80.9632C35.6304 78.4543 36.6517 73.0887 36.3386 70.4391C36.0959 68.3864 36.844 67.5409 38.2404 68.2896C39.2684 68.8411 44.8224 69.2576 47.4 68.9769C50.6054 68.6274 53.5609 67.8192 55.0082 66.8962C55.2826 66.7212 55.9282 66.4397 56.4426 66.2707C56.9572 66.1017 57.378 65.8562 57.378 65.725C57.378 65.5937 57.5746 65.4132 57.8146 65.324C59.306 64.768 63.5736 60.7462 64.6672 58.8658C65.0833 58.1505 65.2838 57.8288 66.1385 56.5036C66.3605 56.1594 66.6264 55.5964 66.7292 55.2526C66.8319 54.9089 67.0545 54.4589 67.2233 54.2527C67.3925 54.0464 67.8562 52.584 68.2541 51.0028C68.8929 48.4637 68.9742 47.7192 68.9493 44.6281C68.9263 41.7762 68.8186 40.7947 68.3673 39.3278C67.5466 36.6594 67.5731 36.6296 70.783 36.6221C73.8857 36.6149 76.4523 36.0811 80.2888 34.6452C81.5338 34.1792 85.399 32.0028 85.5265 31.6958C85.5734 31.5828 86.0454 31.2686 86.5752 30.9976C87.3433 30.6051 87.5728 30.3226 87.707 29.6061C88.0003 28.0389 87.4687 27.7672 83.5494 27.4827C79.8987 27.2177 76.4031 26.3233 75.5867 25.4448C74.7939 24.5921 74.7393 23.3861 75.4335 22.0607C75.774 21.4107 76.1297 20.5977 76.2238 20.254C76.3181 19.9103 76.5403 19.4603 76.7177 19.254C77.3061 18.5693 77.8958 15.9974 77.7686 14.6702C77.6711 13.6545 77.495 13.2723 76.8633 12.7065C76.1624 12.0791 75.8937 12.0043 74.3369 12.0043C72.9846 12.0043 72.3296 12.1401 71.4099 12.6108C66.7052 15.019 65.0224 15.2459 63.957 13.616C63.3344 12.6638 62.1348 6.93727 62.1256 4.87284C62.1136 2.20895 61.252 1.39323 59.5607 2.44419ZM43.768 37.2533C45.2779 38.73 45.9849 39.2533 46.4708 39.2533C46.8327 39.2533 48.2212 38.6823 49.5563 37.9846C51.6105 36.9109 52.0722 36.7564 52.5604 36.9791C53.2389 37.2891 53.2469 37.3776 52.6888 38.4255C51.1472 41.3209 50.3934 42.9481 50.3939 43.3804C50.3939 43.6706 51.3381 44.8428 52.6572 46.191C55.2475 48.8384 55.4191 49.3951 53.631 49.3491C53.0166 49.3334 51.613 49.1564 50.5121 48.9554C47.6624 48.4357 47.4654 48.5427 46.1617 51.3203C44.9422 53.9184 44.5243 54.5027 43.8857 54.5027C43.3644 54.5027 43.3522 54.4684 42.5599 50.7788C42.2234 49.2119 41.7998 47.8369 41.6182 47.7237C41.4369 47.6102 40.7833 47.4524 40.1659 47.3732C39.5485 47.2937 38.5944 47.126 38.0456 47.0005C37.4968 46.875 36.6821 46.7025 36.2351 46.6172C35.7881 46.532 35.3104 46.2527 35.1734 45.9965C34.9552 45.5875 35.1916 45.3845 37.1087 44.3336C38.31 43.6751 39.6239 42.9656 40.0285 42.7571C40.4351 42.5476 40.8387 42.0902 40.9307 41.7342C41.062 41.2274 40.7234 37.7196 40.4139 36.3784C40.2383 35.6167 40.4498 35.2534 41.0694 35.2534C41.5504 35.2534 42.2648 35.7829 43.768 37.2533Z" fill="#035E46"/>
</g>
</svg>
