<svg width="90" height="90" viewBox="0 0 90 90" fill="none" xmlns="http://www.w3.org/2000/svg">
<g id="Property 1=Sigarettenpeuken">
<path id="Screenshot 2024-02-28 at 13.24 5 (Traced)" fill-rule="evenodd" clip-rule="evenodd" d="M78.9422 5.52373C78.8506 5.81222 78.8496 6.54069 78.9397 7.14242C79.0642 7.97464 78.9781 8.52036 78.5805 9.42108C77.9334 10.8875 77.7027 11.1475 75.1421 13.2982C72.2227 15.7501 71.2843 17.79 71.8531 20.4482C72.0426 21.3339 72.4295 22.0646 73.1332 22.8656C74.1505 24.0238 75.946 25.1115 76.3886 24.8375C76.6642 24.6667 76.55 23.6323 76.0695 21.9466C75.7752 20.9139 75.7864 20.6031 76.1608 19.4124C76.5966 18.027 77.3711 17.1673 79.8 15.3736C80.3586 14.9611 81.1808 14.0049 81.6273 13.2487C82.3205 12.0747 82.439 11.6362 82.4372 10.2488C82.4355 8.91635 82.301 8.38012 81.6904 7.26991C81.0553 6.11496 79.8741 5.00325 79.2784 5C79.1849 4.9995 79.0335 5.23499 78.9422 5.52373ZM82.8788 18.678C82.6725 18.7522 82.565 19.3544 82.561 20.4567C82.5492 23.747 82.2245 24.336 78.922 27.0541C76.2838 29.2253 75.511 30.5123 75.5038 32.7479C75.4993 34.1119 75.618 34.5736 76.2436 35.6228C77.0249 36.9333 78.819 38.5005 79.5306 38.4939C80.5107 38.485 80.6629 38.1287 80.2299 36.8558C79.8252 35.6653 79.7252 33.3531 80.035 32.3447C80.1241 32.054 81.2558 30.929 82.55 29.8448C85.6619 27.2371 86.1239 26.3877 86.0149 23.4748C85.9375 21.4059 85.8994 21.2834 84.9821 20.1622C83.9599 18.9125 83.3749 18.4997 82.8788 18.678ZM14.0928 44.2475C0.740435 44.3812 0.718235 44.3835 0.236296 45.6539C-0.0261255 46.3459 -0.0944751 58.2172 0.156971 59.4764C0.264983 60.0184 0.560582 60.4004 1.09241 60.6856C1.80484 61.0676 4.75185 61.1101 36.4565 61.1938C75.8248 61.2976 72.5889 61.4726 72.5889 59.2404C72.5889 58.3302 72.4552 57.863 72.09 57.497C71.5986 57.0045 71.2586 56.997 49.0545 56.997C27.7756 56.997 26.4955 56.9722 26.1165 56.5527C25.7955 56.197 25.7079 55.4545 25.6783 52.8341C25.6551 50.7942 25.7481 49.3598 25.925 49.0288C26.2086 48.4973 26.2086 48.4973 45.9688 48.4583C56.8369 48.4371 66.9638 48.4483 68.473 48.4836C70.9673 48.5418 71.2793 48.4983 71.9029 48.0043C72.4797 47.5476 72.5889 47.2711 72.5889 46.2679C72.5889 44.0795 74.6387 44.2612 49.1239 44.1877C36.7167 44.1517 20.9527 44.1787 14.0928 44.2475ZM75.4993 44.4142C75.2523 44.6617 75.2975 60.6953 75.5454 60.8491C75.6624 60.9216 76.4487 61.0081 77.2926 61.0416C78.3869 61.0848 78.934 60.9948 79.2004 60.7281C79.5139 60.4138 79.5795 59.1202 79.6107 52.6372C79.6536 43.7318 79.802 44.2475 77.1978 44.2475C76.3549 44.2475 75.5906 44.3225 75.4993 44.4142ZM82.6168 44.5475C82.1888 44.9765 82.1888 60.2679 82.6168 60.6968C83.0362 61.1171 85.6045 61.0776 86.1987 60.6418C86.6597 60.3036 86.6829 59.9209 86.6829 52.6527C86.6829 45.3112 86.6637 45.0042 86.184 44.641C85.5783 44.1827 83.0471 44.1162 82.6168 44.5475Z" fill="#035E46"/>
</g>
</svg>
