<svg width="90" height="90" viewBox="0 0 90 90" fill="none" xmlns="http://www.w3.org/2000/svg">
<g id="Property 1=Tasjes">
<path id="Screenshot 2024-02-28 at 13.24 11 (Traced)" fill-rule="evenodd" clip-rule="evenodd" d="M59.7589 8.07429C58.4288 8.43552 56.205 9.95946 55.3711 11.0807C54.1997 12.6559 52.4767 16.109 52.2577 17.3204C52.1621 17.8484 51.9456 18.5616 51.7767 18.9054C51.6076 19.2491 51.3257 20.4866 51.1501 21.6553C50.647 25.0021 49.7569 28.212 48.9896 29.4472C46.8987 32.8126 42.2577 34.3575 35.0633 34.0833C31.5495 33.9493 28.2386 33.3163 27.0971 32.5606C26.0961 31.8979 25.2397 30.8592 25.0751 30.1084C24.8421 29.0455 25.1776 26.2591 25.7007 24.9111C25.9421 24.2892 26.219 23.3429 26.3161 22.8087C26.4131 22.2745 26.7092 21.4325 26.9739 20.9375C27.2385 20.4426 27.4551 19.9226 27.4551 19.7821C27.4551 19.2809 28.7717 17.0167 29.5277 16.218C30.5186 15.1715 31.673 15.1048 32.4159 16.0512C33.7375 17.7352 34.415 21.0808 34.5804 26.7413C34.64 28.7822 34.7517 30.5542 34.8283 30.6787C34.9051 30.8032 35.8982 30.9049 37.035 30.9049C39.3638 30.9049 39.7487 30.6792 40.0206 29.1535C40.2978 27.5988 39.2705 19.1194 38.5519 17.0304C37.3311 13.4806 35.647 11.2949 33.4711 10.4359C31.7823 9.76922 30.5747 9.76572 28.8986 10.4227C27.2817 11.0567 26.0152 12.2411 24.523 14.5153C23.4446 16.159 21.7177 19.7756 21.7177 20.3903C21.7177 20.5471 21.4919 21.1188 21.2158 21.661C20.9399 22.2032 20.558 23.3519 20.3674 24.2137C20.0354 25.7148 19.7193 27.0418 18.7141 31.1549C18.4621 32.1861 18.184 33.9298 18.0962 35.0297C18.0081 36.1297 17.84 37.3354 17.7225 37.7089C17.6048 38.0826 17.3319 40.0513 17.1156 42.0837C16.8996 44.1164 16.604 46.3981 16.4588 47.1543C16.3136 47.9105 16.131 50.7881 16.0529 53.5488C15.9414 57.4916 15.9966 59.1006 16.3101 61.0485C16.5294 62.4127 16.7796 64.0911 16.8659 64.7786C17.1829 67.3052 18.8942 72.3593 19.8912 73.7135C20.2098 74.1462 20.4704 74.6102 20.4704 74.7445C20.4704 75.0487 23.1266 77.5803 24.2509 78.3476C26.0911 79.603 26.8958 80.0683 28.3281 80.704C29.1513 81.0692 30.1055 81.4277 30.4485 81.5002C30.7915 81.5729 32.0824 81.8882 33.3171 82.2007C35.4255 82.7344 36.0484 82.7684 43.5446 82.7589C48.4403 82.7524 51.9611 82.6426 52.6496 82.4749C58.9537 80.938 60.8206 80.019 65.9016 75.9517C68.9399 73.5195 71.7285 69.0744 72.4939 65.4428C72.6869 64.5276 72.9701 63.3849 73.123 62.9037C73.8147 60.729 73.6044 40.3763 72.8598 37.4046C72.7391 36.9234 72.5121 34.8422 72.3554 32.7798C72.1985 30.7174 71.9186 28.355 71.7335 27.53C71.5484 26.7051 71.2735 25.1301 71.1229 24.0302C70.6507 20.5841 68.9721 14.6875 67.9394 12.8476C66.7468 10.7222 65.4726 9.34873 63.9836 8.58376C63.1647 8.16303 60.5798 7.85104 59.7589 8.07429ZM62.4363 13.8431C62.9551 14.4325 63.8526 16.4665 64.0362 17.4679C64.1181 17.9149 64.3308 18.5156 64.5087 18.8034C64.9245 19.4753 65.621 24.4789 65.621 26.7953C65.621 27.777 65.4935 28.9627 65.3376 29.4302C64.5558 31.7746 61.3225 33.4196 59.0036 32.6526C57.6264 32.1971 56.1975 30.7904 55.868 29.5655C55.5083 28.2295 55.7767 24.6891 56.4113 22.3942C56.6747 21.4413 56.8902 20.4211 56.8902 20.1273C56.8902 19.6223 57.679 17.5612 58.5917 15.681C59.3017 14.2188 60.2311 13.4056 61.1923 13.4056C61.6976 13.4056 62.21 13.5858 62.4363 13.8431Z" fill="#035E46"/>
</g>
</svg>
