<svg width="90" height="90" viewBox="0 0 90 90" fill="none" xmlns="http://www.w3.org/2000/svg">
<g id="Property 1=Wattenstaafjes">
<path id="Screenshot 2024-02-28 at 13.24 3 (Traced)" fill-rule="evenodd" clip-rule="evenodd" d="M62.753 7.74882C60.2799 8.91928 57.2033 12.5616 57.2033 14.3193C57.2033 15.4188 58.6381 13.9381 35.236 36.9859C29.4518 42.6827 24.5772 47.4338 24.4032 47.5443C24.2295 47.6545 23.6749 47.7465 23.171 47.7488C22.4915 47.7515 21.7734 48.0745 20.3915 48.999C16.3721 51.6879 14.6846 56.3429 17.1922 57.8244C18.845 58.8008 21.1506 58.1289 23.5369 55.9747C25.4737 54.2263 26.3682 52.8463 26.5981 51.2524C26.7546 50.1672 27.0927 49.7967 36.1845 40.7528C50.717 26.2969 58.7549 18.4664 59.5776 17.9637C59.99 17.7117 60.6011 17.5052 60.9358 17.5047C62.6101 17.5019 65.6595 15.1355 66.9946 12.8026C67.6465 11.6634 67.8109 11.0949 67.8174 9.95848C67.8244 8.72203 67.7304 8.43879 67.0913 7.77107C66.1139 6.74986 64.8777 6.74361 62.753 7.74882ZM69.5749 23.2597C68.1568 23.4462 66.0876 24.3259 65.2201 25.1111C64.4468 25.8109 62.5231 26.4451 60.6901 26.6041C58.0513 26.8331 54.9856 27.2498 53.9154 27.5246C52.4038 27.9128 49.7171 30.4154 50.117 31.0624C50.3029 31.3637 52.0849 31.2859 54.2961 30.8802C55.414 30.6752 57.7344 30.3247 59.4527 30.1012C61.171 29.878 63.0025 29.6397 63.5226 29.572C64.1749 29.4872 64.8735 29.6255 65.772 30.0167C66.7892 30.4597 67.5697 30.5892 69.325 30.6064C72.4219 30.6364 74.0967 30.0942 75.7098 28.5388C76.8065 27.4816 76.9479 27.2258 76.9479 26.2994C76.9479 25.5699 76.789 25.0944 76.4228 24.7282C75.1654 23.4705 72.4302 22.884 69.5749 23.2597ZM35.4592 30.0315C33.8444 30.3322 29.1981 30.9652 24.7121 31.4957C22.5814 31.7476 20.5265 32.0339 20.1454 32.1319C19.676 32.2526 18.9739 32.1309 17.9672 31.7544C16.6795 31.2727 16.1057 31.2109 13.6614 31.2904C11.3123 31.3667 10.6529 31.4794 9.71619 31.9639C7.99966 32.8521 6.71625 34.2023 6.7205 35.1163C6.7265 36.4992 6.98868 36.9104 8.41379 37.7737C9.76318 38.5909 9.92763 38.6274 12.207 38.6166C14.3709 38.6066 14.7563 38.5284 16.4019 37.7672C17.3986 37.3062 18.2139 36.8537 18.2139 36.7619C18.2139 36.6702 18.667 36.3402 19.2209 36.029C19.9522 35.6177 20.9269 35.396 22.7824 35.2188C24.1875 35.0845 26.5179 34.7598 27.9612 34.4973C29.4046 34.2348 31.2603 33.9553 32.0851 33.8761C32.9099 33.7968 33.9459 33.6763 34.3872 33.6081C35.4732 33.4403 37.9585 31.1752 37.9585 30.3532C37.9585 29.686 37.5776 29.637 35.4592 30.0315ZM59.5776 42.238C57.1486 42.709 54.5623 44.3777 53.1959 46.3553C52.1312 47.8965 51.4229 48.3722 46.1465 51.0899C43.8454 52.2751 41.7647 53.3496 41.5228 53.4778C41.2806 53.606 40.4641 54.0178 39.708 54.3928C38.952 54.7678 36.7026 55.9177 34.7094 56.9484C32.7162 57.9789 28.9485 59.9138 26.3367 61.2477C22.1128 63.4054 15.2267 66.9755 14.215 67.5328C12.8963 68.2587 11.7051 68.573 10.466 68.5212C8.85567 68.4542 5.78826 69.2389 4.73904 69.9864C4.34115 70.2699 3.96425 70.5016 3.90177 70.5016C3.49913 70.5016 1.87957 72.4173 1.46568 73.383C0.740377 75.0752 0.820606 75.5597 2.00229 76.6274C3.03625 77.5616 3.03625 77.5616 4.93899 77.4469C6.50806 77.3521 7.14889 77.1724 8.5915 76.4214C10.6682 75.3402 11.9871 74.2015 12.5524 73.0015C13.06 71.9243 13.9106 71.3791 19.6118 68.4777C26.7563 64.8416 32.8224 61.73 36.4829 59.8238C38.3519 58.8506 40.0952 57.9484 40.3569 57.8189C40.6185 57.6891 41.1701 57.4069 41.5825 57.1914C41.9949 56.9759 44.8067 55.54 47.8308 54C53.2256 51.2534 53.3601 51.2011 54.9539 51.2251C58.0341 51.2719 60.9255 50.0114 63.1604 47.6478C64.3958 46.3413 64.4513 46.2228 64.4513 44.8961C64.4513 43.5707 64.4103 43.4827 63.5141 42.8922C62.4481 42.1897 61.0365 41.9552 59.5776 42.238ZM81.4467 57.4861C79.9534 57.7871 78.3683 58.6256 77.2393 59.7113C76.6438 60.2843 75.8565 60.8108 75.4898 60.8815C75.1234 60.9523 74.3174 61.135 73.6988 61.2878C73.0802 61.4402 71.7306 61.7162 70.6996 61.901C69.6687 62.0855 67.8691 62.4637 66.7007 62.7412C65.5323 63.0187 63.1704 63.5349 61.4521 63.8884C59.7338 64.2421 57.4845 64.7441 56.4535 65.0041C55.4225 65.2643 53.623 65.6446 52.4546 65.8493C50.0645 66.2681 48.7006 66.5553 45.0476 67.4095C43.6542 67.7353 42.2748 68.0017 41.9824 68.0017C41.6898 68.0017 40.2991 68.2737 38.8923 68.6062C31.9022 70.2581 32.1911 70.2204 30.5573 69.6897C26.7036 68.4377 21.3528 70.0082 19.8499 72.832C19.48 73.527 19.4685 73.7518 19.7577 74.6265C20.1374 75.7744 21.332 76.5184 23.6174 77.0299C24.7611 77.2859 25.1942 77.2666 26.5236 76.8999C28.4379 76.3719 31.1221 75.092 31.3028 74.621C31.6375 73.7488 33.4462 73.1928 40.2079 71.8846C41.3763 71.6586 42.9057 71.3109 43.6065 71.1119C44.307 70.9129 46.0503 70.5284 47.4804 70.2574C50.9465 69.6007 53.2489 69.1289 55.8886 68.535C59.8708 67.6385 62.8133 67.019 63.8265 66.8638C64.3763 66.7793 65.501 66.5023 66.3258 66.2481C67.1506 65.9936 68.554 65.7076 69.4442 65.6126C70.3347 65.5173 71.4594 65.3001 71.9435 65.1296C72.4279 64.9591 73.78 64.6851 74.9485 64.5209C76.7515 64.2669 77.2983 64.2809 78.5625 64.6119C82.1658 65.5553 86.1122 64.5496 88.2079 62.1537C89.3416 60.8578 89.3583 59.5506 88.2559 58.4476C87.1814 57.3732 84.138 56.9432 81.4467 57.4861Z" fill="#035E46"/>
</g>
</svg>
