<svg width="90" height="90" viewBox="0 0 90 90" fill="none" xmlns="http://www.w3.org/2000/svg">
<g id="Property 1=Vistuig">
<path id="Screenshot 2024-02-28 at 13.24 8 (Traced)" fill-rule="evenodd" clip-rule="evenodd" d="M29.2427 5.04668C23.7222 5.56091 18.9805 7.1706 15.5022 9.7115C12.9909 11.5457 11.6475 12.9011 10.613 14.6441C10.4701 14.8845 10.2276 15.234 10.0739 15.4205C9.48032 16.141 7.42213 20.3428 6.84679 22.0095C6.51438 22.972 6.076 24.7719 5.87281 26.0094C5.66936 27.2468 5.38969 28.6523 5.25122 29.1325C4.86733 30.4632 4.93981 38.2514 5.35694 40.5438C5.55389 41.6245 5.84006 43.4987 5.99277 44.7089C6.14573 45.9188 6.37867 47.1923 6.51038 47.5385C6.64185 47.885 6.87428 48.9762 7.02674 49.9634C7.1792 50.9507 7.44738 52.0396 7.62258 52.3833C7.79803 52.7271 8.07096 53.627 8.22891 54.3833C8.38712 55.1395 9.13767 57.5581 9.89646 59.7581C12.3081 66.7483 12.2466 66.5865 13.4615 69.1327C14.1238 70.5209 14.1283 70.8891 13.497 72.0673C12.3463 74.2145 13.1948 76.9946 15.3942 78.2838C16.3835 78.8638 16.7179 78.9316 18.008 78.8146C19.2432 78.7026 19.6348 78.5423 20.3804 77.8439C21.8077 76.5067 22.2446 75.6212 22.2446 74.0655C22.2446 72.8995 22.1074 72.4791 21.3698 71.3826C20.8887 70.6674 20.4951 69.9274 20.4951 69.7379C20.4951 68.3267 22.8609 63.1799 23.8177 62.5097C25.0686 61.6332 27.24 62.293 29.3597 64.1934C30.6013 65.3066 30.6013 65.3066 30.5529 66.907C30.4891 69.0014 30.8103 69.9102 31.991 70.9771C33.5203 72.3588 36.1366 72.5323 37.8404 71.3646C38.7329 70.7529 39.9898 68.5847 39.9898 67.6565C39.9898 66.8455 39.102 65.0364 38.2418 64.0944C37.6629 63.4604 37.4905 63.0364 37.4905 62.2482C37.4905 59.2708 38.6861 56.3732 40.251 55.5587C41.6658 54.8223 44.2106 55.2375 47.1676 56.6874C47.5357 56.8679 47.8959 57.4812 48.2383 58.5106C48.8566 60.3688 49.3997 60.9255 51.3065 61.6552C52.5771 62.1415 52.8715 62.1715 53.7588 61.9057C55.1764 61.481 56.6153 60.0975 57.0904 58.7021C57.6087 57.1807 57.589 56.6974 56.9589 55.5045C56.2189 54.1035 55.5378 53.4298 54.3144 52.8886C53.0157 52.3141 52.8755 51.8891 52.8673 48.5085C52.859 45.1181 52.9578 44.8564 54.5456 44.0527C55.7083 43.4644 56.1596 43.3837 58.2891 43.3837C61.0848 43.3837 61.7611 43.6164 62.3967 44.7966C63.9048 47.5978 67.8517 47.7683 70.0726 45.1284C71.2448 43.7352 71.2223 41.1103 70.0249 39.5371C69.2581 38.5299 67.4228 37.6339 66.1269 37.6339C65.3726 37.6339 65.1502 37.4927 64.6463 36.6945C63.5861 35.0148 62.9583 33.5318 62.8216 32.3841C62.6984 31.3494 62.7566 31.1929 63.5479 30.4339C64.4214 29.596 65.6248 29.162 68.577 28.6203C70.2971 28.3045 71.2305 28.5735 71.7437 29.5325C71.9246 29.871 72.5777 30.4822 73.1945 30.8909C75.264 32.2621 77.9472 31.7096 79.4766 29.598C79.8839 29.0355 80.2853 28.2128 80.3683 27.7695C80.703 25.9856 79.4683 23.6755 77.6795 22.7382C77.2869 22.5325 76.2817 22.3845 75.2769 22.3845C73.7749 22.3845 73.4332 22.2948 72.6592 21.697C71.9316 21.1353 68.4813 18.8336 66.758 17.7604C66.5378 17.6232 65.9997 17.2575 65.5621 16.948C65.1245 16.6382 64.6716 16.3847 64.5554 16.3847C64.4394 16.3847 64.0755 16.188 63.7468 15.9473C62.148 14.7766 55.014 11.1449 51.6116 9.7695C50.3745 9.26926 49.1373 8.75729 48.8624 8.63154C47.9161 8.19856 45.3606 7.36384 43.8637 6.9991C43.039 6.79811 42.0847 6.51187 41.7433 6.36313C41.0647 6.06739 34.587 5.18567 31.992 5.03568C31.0985 4.98418 29.8613 4.98893 29.2427 5.04668ZM32.7113 9.51001C32.8455 9.6475 33.0339 10.5737 33.1301 11.5679C33.3821 14.1688 33.4496 14.1643 28.6091 11.8712C27.1133 11.1624 25.7654 10.03 26.0633 9.732C26.6294 9.16577 32.1947 8.97978 32.7113 9.51001ZM39.4899 10.134C40.1085 10.2985 41.05 10.5435 41.5824 10.6782C43.0814 11.0579 43.7388 11.8699 43.7388 13.3429C43.7388 15.1298 43.5163 15.2375 40.1917 15.062C36.9953 14.8935 36.8024 14.7811 36.1501 12.7129C35.1943 9.68275 35.8604 9.16827 39.4899 10.134ZM22.5663 11.6172C23.2211 12.3956 23.3651 13.0589 23.7327 16.9912C23.9599 19.4224 23.8162 20.3846 23.2256 20.3846C22.6987 20.3846 20.8387 19.2759 18.955 17.8384C16.9191 16.2855 16.2462 15.55 16.2462 14.8783C16.2462 14.1826 18.6218 12.2574 20.5738 11.3709C21.9092 10.7645 21.842 10.7562 22.5663 11.6172ZM48.6379 13.1761C48.8609 13.5371 48.234 14.1348 47.6322 14.1348C47.0846 14.1348 46.488 13.7136 46.488 13.3269C46.488 12.7581 48.301 12.6309 48.6379 13.1761ZM28.4434 14.8683C29.7206 15.5365 32.4568 16.6347 32.8445 16.6347C33.6907 16.6347 34.0047 17.5399 34.1591 20.4248C34.3768 24.4847 34.0619 24.8802 31.3671 23.9337C30.9547 23.789 29.9908 23.4942 29.225 23.2787C27.0526 22.6677 26.8711 22.3363 26.5144 18.3259C26.3467 16.4375 26.2798 14.7783 26.3662 14.6386C26.6087 14.2463 27.4272 14.3368 28.4434 14.8683ZM54.1107 15.8223C54.4289 16.6027 54.5521 21.7198 54.2702 22.44C54.0992 22.8762 53.7538 23.1757 53.3074 23.2745C52.9245 23.3592 51.9365 23.6345 51.1118 23.8859C49.1753 24.4762 47.9324 24.6727 47.5875 24.4427C47.425 24.3344 47.2516 22.9445 47.1643 21.0466C47.0209 17.9369 47.0344 17.8154 47.5867 17.263C47.9089 16.9407 48.6372 16.6135 49.2598 16.511C49.8658 16.4115 50.8118 16.1213 51.3617 15.8665C52.6616 15.2638 53.8753 15.2443 54.1107 15.8223ZM43.875 18.2484C44.4483 18.8216 44.4886 19.0336 44.4886 21.48C44.4886 24.0022 44.4648 24.1169 43.8385 24.6097C42.9172 25.3346 41.6498 25.5059 39.4974 25.1964C36.8826 24.8204 36.7407 24.6059 36.7407 21.0318C36.7407 19.1896 36.8431 18.1322 37.0406 17.9347C37.24 17.7352 38.3317 17.6347 40.3009 17.6347C43.1112 17.6347 43.2929 17.6659 43.875 18.2484ZM59.6757 18.4964C60.6092 19.3579 60.6092 19.3579 59.7344 20.1111C58.1988 21.433 57.2351 21.0443 57.2351 19.1029C57.2351 17.9202 57.3668 17.7609 58.426 17.6637C58.5997 17.6477 59.1621 18.0224 59.6757 18.4964ZM13.7042 19.2081C14.0481 19.6226 14.0368 25.1487 13.6909 25.5719C13.2598 26.0999 12.5735 25.9226 11.6402 25.0424C10.607 24.0677 10.4618 22.9912 11.1976 21.7595C11.444 21.347 11.7854 20.5316 11.9564 19.9471C12.2076 19.0889 12.3798 18.8846 12.8517 18.8846C13.1728 18.8846 13.5565 19.0301 13.7042 19.2081ZM18.7975 21.1046C19.5591 21.6383 20.9355 22.4963 21.8565 23.0112C22.9044 23.5975 23.6187 24.1794 23.7662 24.5672C23.9839 25.1397 23.9039 27.7623 23.5905 30.3362C23.518 30.9309 23.3016 31.4739 23.1069 31.5484C22.9132 31.6229 22.2743 31.4562 21.6873 31.1779C21.1004 30.8997 20.2264 30.4904 19.7453 30.2685C17.8041 29.3722 17.0033 28.8648 16.7329 28.3595C16.4592 27.848 16.6104 20.8066 16.9053 20.3291C17.1103 19.9974 17.3682 20.1031 18.7975 21.1046ZM64.3377 21.2863C64.6438 21.4038 64.7323 21.8125 64.7293 23.0987C64.7271 24.0122 64.6428 24.8849 64.5419 25.0384C64.4409 25.1916 63.7396 25.6136 62.9835 25.9759C61.4417 26.7148 59.5755 28.3623 59.2196 29.2985C59.0903 29.6385 58.9846 30.196 58.9846 30.5374C58.9846 31.1737 57.9149 32.3841 57.3528 32.3841C56.8672 32.3841 56.812 31.4882 57.0986 28.2445C57.4116 24.7004 57.6437 24.2324 59.552 23.2985C60.298 22.9335 61.4037 22.2993 62.0086 21.889C63.1183 21.1371 63.6144 21.0086 64.3377 21.2863ZM68.2321 24.1344C68.2321 24.2719 68.1264 24.3844 67.9969 24.3844C67.8675 24.3844 67.6923 24.2719 67.6073 24.1344C67.5223 23.9969 67.6283 23.8844 67.8425 23.8844C68.0567 23.8844 68.2321 23.9969 68.2321 24.1344ZM29.6261 26.2469C30.103 26.4461 31.1269 26.7263 31.9017 26.8696C34.2264 27.2993 34.2254 27.2963 33.5248 32.0764C33.1616 34.553 32.8017 34.7283 29.5706 34.0006C27.31 33.4916 26.5259 33.1616 26.2208 32.5914C25.9566 32.0979 26.3655 27.5716 26.7759 26.4468C27.0236 25.7679 28.2705 25.6801 29.6261 26.2469ZM54.2424 26.5266C54.5568 27.3536 54.1534 33.0061 53.7448 33.4986C53.5813 33.6956 52.8096 33.9788 52.0298 34.1283C51.25 34.2778 49.9933 34.559 49.2373 34.7533C48.4812 34.9475 47.5382 35.0403 47.1418 34.9598C46.4213 34.813 46.4213 34.813 46.5912 33.0361C47.0129 28.6283 47.1233 28.0815 47.6859 27.6261C47.9876 27.3816 48.8076 27.1028 49.5082 27.0063C50.2088 26.9101 51.3622 26.6223 52.0715 26.3669C53.77 25.7551 53.9545 25.7686 54.2424 26.5266ZM11.5223 28.4468C12.2368 28.9133 12.8304 29.511 12.9161 29.8502C13.317 31.4349 12.4443 35.6177 11.4673 36.7952C11.0971 37.2414 9.53781 36.2542 9.33486 35.4455C9.09543 34.4913 9.46208 28.3538 9.78174 27.9688C10.1471 27.5283 10.0924 27.5131 11.5223 28.4468ZM43.6305 28.3285C44.0172 28.545 44.0499 28.8458 43.912 30.9164C43.6855 34.3138 43.5336 34.8793 42.7663 35.1728C41.8903 35.508 36.9161 35.3425 36.46 34.963C36.1526 34.7073 36.1561 34.2495 36.485 31.5882C36.6944 29.8947 36.9536 28.3735 37.0611 28.2075C37.2983 27.8418 42.9465 27.9458 43.6305 28.3285ZM19.6711 33.2678C22.4945 34.6518 22.4945 34.6518 22.4945 35.736C22.4945 36.7267 21.5658 40.0668 20.9924 41.1383C20.7945 41.5085 20.5963 41.5473 19.8063 41.3695C18.2212 41.0135 15.0491 39.4466 14.6359 38.8156C14.277 38.2679 14.2953 38.0599 14.8716 36.134C15.2153 34.9855 15.4964 33.6946 15.4964 33.2651C15.4964 32.4201 15.8751 31.8841 16.4719 31.8841C16.6784 31.8841 18.118 32.5069 19.6711 33.2678ZM59.2376 35.586C59.5445 35.8347 59.9966 36.568 60.2425 37.2157C60.8459 38.8056 60.526 39.1339 58.3725 39.1339C56.3891 39.1339 56.1222 38.8664 56.3626 37.1179C56.517 35.9935 56.6345 35.7957 57.3243 35.4955C58.3653 35.0423 58.5787 35.0525 59.2376 35.586ZM29.1892 36.6697C31.6013 37.2632 32.2419 37.6629 32.2419 38.5741C32.2419 39.4131 31.5878 41.869 30.9975 43.2467C30.5406 44.3124 30.4504 44.3837 29.5554 44.3837C29.0303 44.3837 27.9606 44.1587 27.1783 43.8837C26.3962 43.6087 25.4937 43.3837 25.1728 43.3837C24.0716 43.3837 23.6485 42.8325 23.8382 41.6455C23.9319 41.0603 24.1758 40.2576 24.3803 39.8618C24.585 39.4661 24.8222 38.6061 24.9076 37.9507C24.9931 37.2952 25.1736 36.6185 25.309 36.4465C25.6617 35.9985 26.7049 36.0585 29.1892 36.6697ZM53.134 37.5107C53.4726 38.8606 53.0517 39.7526 51.5117 40.949C50.4472 41.7758 49.9316 42.3875 49.6272 43.1845C49.137 44.4679 48.6289 44.8376 46.7567 45.2731C44.5953 45.7756 43.9185 45.1044 44.61 43.144C44.818 42.5537 44.9884 41.7508 44.9884 41.3595C44.9884 40.9683 45.2561 40.0428 45.583 39.3034C46.2193 37.8639 46.5952 37.6607 48.7062 37.6139C49.2045 37.6027 50.1183 37.4487 50.7369 37.2714C52.5336 36.7567 52.9553 36.7987 53.134 37.5107ZM40.862 38.1339C42.004 38.1339 42.1929 38.2089 42.4446 38.7611C42.789 39.5173 42.3706 41.6865 41.4321 44.0087C40.8261 45.5086 40.8261 45.5086 37.8589 45.4531C35.1409 45.4021 34.8442 45.3496 34.3298 44.8281C33.768 44.2587 33.768 44.2587 34.2386 42.2542C34.4975 41.1518 34.9444 39.7013 35.2316 39.0309C35.7542 37.8117 35.7542 37.8117 37.6597 37.9727C38.7079 38.0614 40.149 38.1339 40.862 38.1339ZM16.6031 43.07C18.8003 44.0547 19.4954 44.5296 19.4954 45.0471C19.4954 45.5234 17.5066 49.9352 17.0958 50.3707C16.9078 50.5697 16.3867 50.7214 15.9378 50.7074C14.9333 50.6764 11.6245 49.0245 11.1184 48.3015C10.5793 47.5318 10.6762 46.3998 11.3791 45.2586C11.7177 44.7086 11.9954 44.0704 11.9961 43.8404C11.9969 43.6102 12.2953 43.068 12.6595 42.6352C13.4395 41.708 13.6055 41.7263 16.6031 43.07ZM26.4935 46.4933C27.112 46.6886 27.9913 46.9231 28.4474 47.0145C29.8293 47.2915 29.8503 47.1815 27.4369 52.3441C26.6956 53.9298 26.6957 53.9298 25.6572 53.8263C24.6085 53.7215 21.5943 53.0013 20.5576 52.6076C19.7983 52.3193 19.8078 51.0604 20.5806 49.607C20.9022 49.0015 21.3041 48.0865 21.4733 47.5738C21.6425 47.061 22.0514 46.4286 22.3818 46.1686C23.0346 45.6551 24.1046 45.7396 26.4935 46.4933ZM48.3748 48.7235C48.4477 49.0177 48.5312 49.9334 48.56 50.7584C48.6217 52.5211 48.7654 52.4808 45.1389 51.7126C43.2297 51.3081 42.8835 51.1561 42.692 50.6384C42.4014 49.8527 42.87 48.7075 43.5783 48.4727C44.2619 48.2463 47.5125 47.9603 47.9274 48.09C48.1003 48.1443 48.3015 48.4292 48.3748 48.7235ZM38.5552 48.3593C39.2092 48.4668 39.8113 48.6217 39.8928 48.7032C40.1385 48.949 38.7454 51.6479 38.2892 51.8101C37.4667 52.1024 35.8079 53.6178 35.502 54.3565C35.0541 55.438 33.9477 55.5815 30.7053 54.978C29.8308 54.8153 29.6526 54.0405 30.2287 52.9088C31.1055 51.1869 31.992 49.207 31.992 48.971C31.992 48.3265 32.6905 48.134 34.9786 48.1485C36.2915 48.1565 37.9008 48.2515 38.5552 48.3593ZM14.37 53.2263C14.8054 53.5446 14.8124 53.6385 14.47 54.5388C13.9859 55.8107 13.3335 55.8215 12.6835 54.5683C12.4153 54.0513 12.2601 53.4608 12.3385 53.2558C12.5182 52.7873 13.7457 52.7696 14.37 53.2263ZM20.1202 55.3695C23.1941 56.2087 24.5652 56.6209 24.6869 56.7429C24.9991 57.0552 24.407 57.5831 22.8574 58.3744C21.5615 59.0361 20.8615 59.6143 19.891 60.8238C18.6761 62.3377 18.5796 62.402 17.6851 62.294C17.1705 62.2317 16.2427 61.8607 15.6234 61.4695C14.2393 60.5948 14.1558 59.8828 15.2548 58.3294C15.6716 57.7401 16.1958 56.9769 16.4192 56.6332C16.8226 56.013 18.006 54.883 18.2457 54.8887C18.3144 54.8905 19.1579 55.1067 20.1202 55.3695ZM31.0862 57.7641C32.0107 57.8631 32.93 58.1071 33.1292 58.3064C33.668 58.8453 33.591 60.4655 33.0012 60.9995C32.5286 61.4272 32.4823 61.4195 31.7323 60.7883C31.3041 60.4278 30.8655 60.133 30.7575 60.133C30.6496 60.133 30.164 59.8236 29.6783 59.4456C29.1927 59.0676 28.5869 58.6281 28.3317 58.4691C27.8833 58.1899 27.8846 58.1674 28.3679 57.7886C28.6429 57.5734 28.9888 57.4391 29.1367 57.4906C29.2844 57.5419 30.162 57.6651 31.0862 57.7641ZM64.2332 60.6778C61.3532 61.2785 61.2338 61.3393 61.2358 62.2055C61.2365 62.6469 61.4607 63.3454 61.7339 63.7579C62.7116 65.2346 62.5204 65.5003 59.422 66.97C57.8757 67.7035 56.1227 68.4552 55.5266 68.6402C53.4901 69.2729 51.0088 68.3497 47.9716 65.8296C46.5145 64.6204 45.3578 64.5194 45.1249 65.5808C44.9134 66.5433 45.9157 68.4815 48.3698 71.8571C49.1745 72.9641 49.1495 73.3358 48.1821 74.6575C47.336 75.8132 47.0539 76.2762 45.9112 78.3806C45.0499 79.9668 45.0904 80.9025 46.0346 81.2327C46.6167 81.4362 46.8829 81.3325 48.0341 80.4535C48.7647 79.8958 50.0371 79.0608 50.8618 78.5983C52.1935 77.8516 52.5711 77.7574 54.2359 77.7581C55.652 77.7584 56.3853 77.8921 57.2351 78.3046C57.8537 78.6048 58.6972 78.9511 59.1096 79.0741C59.522 79.1968 60.0281 79.604 60.2343 79.9788C60.5919 80.6292 60.5774 80.6837 59.9149 81.1722C59.533 81.4537 59.0544 82.0057 58.8512 82.3984C58.5118 83.0549 58.52 83.1334 58.9514 83.3644C60.6889 84.2943 63.8905 84.1346 65.5751 83.0334C67.6373 81.6857 67.9829 81.5682 69.445 81.7177C71.0406 81.881 75.9718 81.1687 77.681 80.5283C79.2031 79.958 82.1568 78.2491 83.4487 77.1914C84.5237 76.3114 85.7274 74.1802 85.7274 73.1573C85.7274 72.2586 84.7411 70.4939 83.6794 69.4932C82.5182 68.3987 80.7255 67.1328 80.3366 67.1328C80.2046 67.1328 79.652 66.8945 79.1087 66.6033C78.5653 66.3118 77.6111 65.9216 76.988 65.7358C76.0122 65.4448 75.6468 65.1211 74.3554 63.4044C72.368 60.7623 71.529 60.3713 67.9359 60.413C66.5181 60.4295 64.8518 60.5488 64.2332 60.6778ZM77.3659 70.2464C78.5821 71.4629 77.7748 73.8825 76.1527 73.8825C75.1977 73.8825 74.2305 72.8136 74.2305 71.7581C74.2305 70.6701 75.1455 69.6327 76.105 69.6327C76.4611 69.6327 77.0285 69.9089 77.3659 70.2464Z" fill="#035E46"/>
</g>
</svg>
