<svg width="90" height="90" viewBox="0 0 90 90" fill="none" xmlns="http://www.w3.org/2000/svg">
<g id="Property 1=Oxo degradeerbaar">
<path id="Screenshot 2024-02-28 at 13.24 1 (Traced)" fill-rule="evenodd" clip-rule="evenodd" d="M33.0295 2.38582C32.6578 2.78156 32.3714 3.61027 32.1284 4.99222C31.9325 6.10668 31.5971 7.35738 31.3831 7.77161C31.169 8.1856 30.9938 8.78757 30.9938 9.10906C30.9938 9.43055 30.7713 10.13 30.4994 10.6635C30.2275 11.197 29.8856 11.9799 29.7396 12.4037C29.5934 12.8274 29.1505 13.5526 28.7549 14.0151C27.235 15.7923 24.5065 15.2303 18.4971 11.9027C16.7726 10.9475 16.4747 11.7987 17.7808 13.9491C18.3372 14.8651 18.9523 16.0683 19.148 16.6228C19.3437 17.1772 19.6086 17.7575 19.7368 17.912C19.8653 18.0667 20.0907 18.9472 20.2379 19.8686C20.4509 21.2018 20.4349 21.7126 20.1602 22.3705C19.7781 23.2853 18.4232 24.5487 17.8246 24.5487C17.6134 24.5487 17.0315 24.7685 16.5317 25.0372C16.0318 25.3059 15.0043 25.6914 14.2483 25.8939C13.4923 26.0964 12.4238 26.3836 11.8739 26.5321C11.3241 26.6806 10.2276 26.9216 9.43711 27.0681C8.48212 27.2449 8 27.4539 8 27.6913C8 28.3788 8.93925 28.9933 10.2706 29.1765C10.9994 29.2768 12.2209 29.575 12.9846 29.8393C13.7484 30.1035 14.8586 30.4295 15.452 30.5637C16.0453 30.6982 16.8326 31.0137 17.2015 31.265C17.5704 31.5162 18.3549 32.0249 18.9445 32.3954C20.1509 33.1531 20.4966 33.8304 20.4966 35.4365C20.4966 36.614 19.0602 40.4443 18.2157 41.5193C17.958 41.8473 17.7474 42.2515 17.7474 42.418C17.7474 42.5843 17.5224 42.9243 17.2475 43.173C16.6861 43.6812 16.5862 44.4494 17.06 44.6162C17.4069 44.7382 18.5389 44.3742 18.7421 44.0752C18.8136 43.9697 19.4344 43.5902 20.1217 43.2317C23.7467 41.3406 26.9069 40.6053 28.0873 41.3791C29.4634 42.2808 31.4619 46.9411 32.2502 51.0862C32.4808 52.2999 32.6111 52.5229 33.1697 52.6631C33.9692 52.8639 34.1546 52.5999 34.3828 50.9347C34.787 47.9848 36.6545 43.4567 38.0983 41.9255C38.8639 41.1136 39.0366 41.0481 40.4104 41.0481C41.8943 41.0481 45.6388 42.1888 46.4895 42.9C47.9234 44.0987 49.9886 44.7827 49.9886 44.059C49.9886 43.7915 48.2363 40.4931 47.8579 40.0481C47.6825 39.8419 47.422 39.2794 47.2793 38.7982C47.1366 38.3169 46.8492 37.4732 46.6405 36.9232C45.815 34.7453 46.3423 33.1706 48.3775 31.7357C50.0186 30.5785 54.6283 29.0805 56.6185 29.0573C57.569 29.0463 58.4863 28.4211 58.4863 27.7843C58.4863 27.5171 58.458 27.2984 58.4238 27.2984C57.866 27.2951 54.082 26.4821 53.2687 26.1906C52.6674 25.9752 52.0043 25.7987 51.7954 25.7987C51.0746 25.7987 47.8619 24.0847 47.1144 23.301C46.4908 22.6475 46.3678 22.3183 46.3836 21.3446C46.4091 19.7714 47.2991 17.1608 48.7554 14.3871C49.7479 12.4969 49.9039 12.0289 49.6552 11.6885C49.312 11.2195 48.8647 11.3692 46.2396 12.8319C45.4836 13.2534 44.4151 13.7506 43.8653 13.9369C43.3154 14.1234 42.4157 14.4449 41.8658 14.6516C39.5239 15.5313 37.9434 14.7008 37.0031 12.0967C36.7204 11.3142 36.3893 10.4975 36.2668 10.2815C36.0164 9.83978 34.6313 4.66548 34.3878 3.26204C34.1611 1.95559 33.7083 1.66335 33.0295 2.38582ZM63.8511 11.2872C62.9773 11.6415 62.7691 12.1257 62.4627 14.5156C62.1058 17.2985 62.167 17.4025 64.4784 17.9417C66.1969 18.3427 67.8542 18.3642 70.7125 18.0225C73.1103 17.7355 73.484 17.4042 73.4762 15.5728C73.4672 13.4776 73.1058 12.2529 72.3078 11.613C71.6525 11.0875 71.3765 11.0527 67.9837 11.0662C65.9905 11.0742 64.1308 11.1737 63.8511 11.2872ZM37.3375 19.0347C40.0083 20.3279 42.1965 22.8945 42.7546 25.3882C43.8003 30.0623 41.7683 34.6346 37.7419 36.6685C36.2196 37.4375 35.2229 37.6252 32.8862 37.5825C27.1793 37.4787 23.1539 32.7554 23.676 26.7751C23.8427 24.8662 25.0249 22.3171 26.2848 21.1503C27.7696 19.7752 29.3609 18.7967 30.5029 18.5569C32.4469 18.1487 36.0244 18.3987 37.3375 19.0347ZM62.7199 21.2988C62.3625 21.5051 61.5827 22.2126 60.9869 22.8713C59.9039 24.0687 59.9039 24.0687 60.7824 24.9962C62.6384 26.9559 62.9336 28.1388 61.9601 29.7143C61.2873 30.8032 60.0689 31.4114 57.7995 31.7907C54.7318 32.3034 54.9485 31.2137 55.015 45.7874C55.046 52.5991 55.1527 58.5364 55.2519 58.9814C55.3514 59.4261 55.7673 60.2071 56.1759 60.7166C56.9187 61.6428 56.9187 61.6428 56.1404 62.1735C55.4696 62.6307 55.3651 62.8485 55.3836 63.7479C55.4109 65.0851 56.0287 65.7971 57.1616 65.7971C58.3183 65.7971 59.2361 64.8661 59.2361 63.6934C59.2361 62.833 59.0996 62.618 58.1254 61.944C57.6715 61.63 57.6658 61.5688 58.0404 61.0151C59.3695 59.0501 60.4638 58.4594 61.7691 59.0024C62.187 59.1764 63.986 61.2125 63.9833 61.5085C63.9823 61.5985 63.6564 61.8573 63.259 62.0835C62.2993 62.6295 62.0416 63.7672 62.6459 64.7904C63.1735 65.6836 63.7196 65.9026 64.8783 65.6851C65.9163 65.4904 66.2864 64.8649 66.1857 63.477C66.123 62.6137 65.9865 62.3672 65.4219 62.098C65.044 61.9175 64.7346 61.664 64.7346 61.5343C64.7346 61.3043 66.3624 59.3536 66.859 58.9886C66.9965 58.8876 67.4866 58.8034 67.9482 58.8011C68.6318 58.7981 68.9912 59.0179 69.8827 59.9848C70.4848 60.6381 70.9786 61.2918 70.9801 61.4378C70.9816 61.5838 70.6455 61.9528 70.2331 62.2578C69.4143 62.8632 69.2544 63.7712 69.7677 64.8981C70.2973 66.0606 72.6682 66.0606 73.1978 64.8981C73.7691 63.6437 73.4947 62.3847 72.5735 62.0343C72.2486 61.9108 71.9826 61.709 71.9826 61.586C71.9826 61.4633 72.442 60.7853 73.0036 60.0801C73.8931 58.9626 74.1405 58.7974 74.9256 58.7974C75.6906 58.7974 76.0075 58.9934 77.0287 60.0986C77.6898 60.8143 78.2309 61.483 78.2309 61.585C78.2309 61.6868 77.929 61.9168 77.5599 62.096C76.3414 62.6882 76.3022 64.9161 77.4989 65.5566C78.2547 65.9611 79.4468 65.8309 79.9937 65.2839C80.3941 64.8834 80.4901 64.5139 80.4311 63.5984C80.3666 62.6015 80.2526 62.377 79.668 62.098C78.7925 61.6803 78.8045 61.5153 79.793 60.3891C80.6053 59.4636 80.6053 59.4636 80.6053 45.1934C80.6053 30.9235 80.6053 30.9235 79.6798 28.9845C78.806 27.1546 77.6671 25.3892 77.1077 24.9979C76.9695 24.9012 75.9938 23.954 74.9396 22.8933C73.0231 20.9644 73.0231 20.9644 68.1964 20.9441C64.334 20.9279 63.24 20.9989 62.7199 21.2988ZM56.2439 70.5752C55.4139 70.9067 55.2454 71.2291 55.2409 72.4971C55.2374 73.4968 55.3004 73.5988 56.1379 73.9488C57.827 74.6545 59.2388 73.9213 59.2323 72.3416C59.2276 71.2059 59.0424 70.9009 58.1526 70.5627C57.3231 70.2472 57.0614 70.2489 56.2439 70.5752ZM63.2507 70.6044C61.9806 71.2664 62.1565 73.7501 63.5039 74.1778C64.2375 74.4108 65.6198 74.1108 66.0165 73.6328C66.4426 73.1193 66.4014 71.3541 65.9533 70.9182C65.4339 70.4127 63.9491 70.2402 63.2507 70.6044ZM70.3093 70.5379C69.6935 70.7992 69.3271 72.1401 69.5878 73.1791C69.8859 74.3678 71.8782 74.674 72.8686 73.6831C73.5974 72.9541 73.6729 71.8356 73.0448 71.0669C72.5505 70.4622 71.1343 70.1882 70.3093 70.5379ZM77.2329 70.7452C76.7553 71.1319 76.6176 71.4794 76.6176 72.2969C76.6176 73.7003 77.4169 74.4048 78.7993 74.2193C80.1651 74.036 80.4803 73.6758 80.4803 72.2969C80.4803 70.9179 80.1651 70.5577 78.7993 70.3744C78.087 70.2789 77.6938 70.3719 77.2329 70.7452ZM55.7995 80.1016C55.0555 80.8983 55.0397 82.349 55.767 83.0764C56.2119 83.5214 56.4818 83.5812 57.4541 83.4497C58.8017 83.2674 59.2361 82.8037 59.2361 81.5465C59.2361 80.2973 58.8007 79.8251 57.4866 79.6496C56.5131 79.5193 56.2861 79.5801 55.7995 80.1016ZM63.2447 79.8566C62.475 80.257 62.193 81.4695 62.6287 82.5062C63.0206 83.4384 64.296 83.7832 65.4007 83.2557C66.0017 82.9687 66.1205 82.7472 66.1827 81.7945C66.2249 81.1493 66.1187 80.492 65.9328 80.2498C65.4931 79.6763 64.0085 79.4591 63.2447 79.8566ZM70.4453 79.7141C69.7862 79.8891 69.3691 81.192 69.6318 82.255C69.8242 83.0342 69.9954 83.2054 70.7744 83.3979C72.1438 83.7364 73.1746 83.2332 73.3825 82.1245C73.7246 80.3008 72.3828 79.1998 70.4453 79.7141ZM77.3267 79.8976C76.2155 80.6975 76.4951 83.0292 77.7501 83.4274C78.5526 83.6822 79.9445 83.3309 80.2274 82.8022C80.5865 82.1307 80.541 80.408 80.1554 80.0881C79.5623 79.5956 77.9018 79.4838 77.3267 79.8976Z" fill="#035E46"/>
</g>
</svg>
