<svg width="90" height="90" viewBox="0 0 90 90" fill="none" xmlns="http://www.w3.org/2000/svg">
<g id="Property 1=Ballonnen">
<path id="Screenshot 2024-02-28 at 13.24 4 (Traced)" fill-rule="evenodd" clip-rule="evenodd" d="M51.1769 0.440321C46.1824 1.38003 42.293 3.4607 38.9187 6.99807C37.5944 8.38676 35.6955 11.7211 35.3129 13.3308C35.1492 14.0183 34.9005 14.8058 34.7598 15.0808C34.6192 15.3557 34.4328 16.7904 34.346 18.2689C34.259 19.7476 34.0599 21.0853 33.9037 21.2418C33.6915 21.4545 33.3981 21.4208 32.741 21.1085C30.3688 19.9803 28.113 19.4556 25.6629 19.4616C22.6712 19.4693 21.5854 19.7121 18.895 20.9755C15.6759 22.4872 13.8883 24.5401 12.5989 28.2052C11.865 30.2917 11.7934 33.782 12.4515 35.3975C12.6907 35.9847 12.8863 36.6909 12.8863 36.9672C12.8863 37.2431 13.2904 38.2816 13.7843 39.2743C15.1246 41.9695 15.4756 42.5734 16.2092 43.4469C16.5767 43.8849 16.8775 44.3424 16.8775 44.4641C16.8775 44.5856 17.1232 44.9146 17.4235 45.1948C17.9479 45.6846 18.2659 45.7046 25.5419 45.7046C33.1145 45.7046 33.1145 45.7046 33.6643 45.1098C35.1345 43.5199 37.2132 40.0038 37.8204 38.0799C38.3736 36.3262 39.3168 35.9717 39.9813 37.2674C40.5104 38.2991 42.7216 41.2395 44.0701 42.7047C44.6396 43.3234 45.3578 44.1246 45.6663 44.4854C45.9749 44.8461 46.4636 45.2678 46.7524 45.4228C47.1134 45.6163 50.0108 45.7046 56.0128 45.7046C64.748 45.7046 64.748 45.7046 66.4817 43.8921C69.7021 40.5253 72.0485 37.2771 73.7495 33.83C74.2247 32.8676 74.7458 31.9114 74.9079 31.7051C75.0698 31.4989 75.3362 30.8239 75.4996 30.2052C75.663 29.5864 75.8922 28.963 76.0092 28.8195C76.2864 28.48 77.2303 24.4699 77.4486 22.7055C77.6828 20.812 77.3832 16.6647 76.8708 14.7058C76.4558 13.1191 75.5256 11.0229 74.4048 9.14923C72.597 6.1266 68.6218 2.95247 65.0214 1.65702C60.3667 -0.0176605 55.7628 -0.422396 51.1769 0.440321ZM50.3039 6.94357C50.3039 7.07406 49.9392 7.70704 49.4931 8.35027C47.871 10.6897 47.2326 12.0949 46.7766 14.3308C46.2181 17.0697 46.2044 18.0136 46.6871 20.5415C46.8931 21.62 46.9909 22.617 46.9044 22.7572C46.629 23.2039 44.681 23.9427 42.6926 24.3549C39.9429 24.9246 39.9517 24.9379 39.9517 20.2531C39.9517 16.7594 39.9898 16.4719 40.6893 14.6998C41.509 12.6223 43.071 10.3927 44.5001 9.25948C46.7158 7.5028 50.3039 6.0711 50.3039 6.94357ZM21.6669 24.0054C21.5023 24.1704 21.3676 24.4541 21.3676 24.6356C21.3676 24.8174 21.061 25.4304 20.6863 25.9978C20.0515 26.9593 19.9961 27.2588 19.8756 30.3882C19.7639 33.284 19.6823 33.7933 19.2817 34.0863C18.6189 34.5712 16.1678 34.8437 15.7986 34.4738C15.6155 34.2903 15.5132 33.364 15.5265 32.0051C15.5444 30.1237 15.6504 29.6109 16.312 28.2052C17.0833 26.5663 18.2657 25.2621 19.8709 24.2806C20.8383 23.6892 22.189 23.4822 21.6669 24.0054ZM21.4232 48.9987C20.9231 49.4999 21.061 49.8007 22.2459 50.7934C24.1567 52.3941 23.9721 51.8188 25.7105 61.579C25.931 62.8164 26.3282 64.7851 26.5931 65.9538C26.858 67.1225 27.1327 68.6717 27.2035 69.3961C27.2743 70.1209 27.4981 71.3021 27.7009 72.021C27.9037 72.7403 28.2435 74.341 28.4557 75.5784C29.37 80.9057 29.6479 81.5364 31.0792 81.5364C32.1476 81.5364 32.8423 80.8245 32.8423 79.7295C32.8423 78.8773 32.3759 76.4039 31.3287 71.7036C31.0685 70.5349 30.7851 68.9599 30.6993 68.2037C30.6135 67.4475 30.3413 66.0318 30.0944 65.0576C29.8477 64.0836 29.5655 62.6212 29.4678 61.8077C29.3697 60.9945 29.0806 59.4853 28.8247 58.4541C28.0761 55.4342 28.107 55.3037 29.9352 53.7648C30.4715 53.313 30.5738 53.063 30.4466 52.5148C30.3588 52.1378 30.0769 51.6081 29.82 51.3376C29.3617 50.8556 29.366 50.8351 30.0373 50.2919C30.6025 49.8347 30.6738 49.6587 30.4456 49.2837C30.1989 48.8782 29.717 48.8222 25.9488 48.7612C22.877 48.7117 21.6452 48.7762 21.4232 48.9987ZM49.2437 48.9722C49.0037 49.1137 48.8072 49.3759 48.8072 49.5549C48.8072 49.8617 50.8706 51.5921 52.3446 52.5216C52.7542 52.7798 53.0443 53.212 53.093 53.6363C53.1957 54.5312 52.6704 58.2556 52.3558 58.8623C52.2226 59.119 52.037 59.8915 51.9432 60.579C51.7222 62.2012 50.681 67.7087 50.0532 70.5786C49.7823 71.8161 49.4617 73.4472 49.3405 74.2035C48.9419 76.6901 48.2853 80.0445 47.7991 82.0782C46.7909 86.295 46.8472 87.7002 48.0501 88.3234C49.1344 88.8854 49.8793 88.7884 50.6471 87.9852C51.2106 87.396 51.4002 86.8482 51.708 84.9228C51.9143 83.6333 52.2364 82.0157 52.4237 81.3282C52.611 80.6407 52.8927 79.1783 53.0498 78.0783C53.207 76.9784 53.4916 75.5159 53.6822 74.8284C53.873 74.141 54.1439 72.6353 54.2841 71.4826C54.4243 70.3299 54.6548 69.2467 54.7965 69.0757C54.9382 68.9047 55.1701 67.7665 55.3121 66.5468C55.454 65.3268 55.7222 63.7664 55.908 63.0789C56.0939 62.3914 56.372 60.9852 56.5264 59.954C57.0717 56.3082 57.041 56.4179 57.4898 56.5039C57.7574 56.5551 57.9578 56.9016 58.0368 57.4504C58.2025 58.5988 59.0818 59.0883 60.0152 58.5516C61.7806 57.5359 63.4275 55.9929 63.8034 55.002C64.1159 54.1782 63.4938 53.2655 62.1932 52.6398C61.6908 52.3981 61.2797 52.0976 61.2797 51.9718C61.2797 51.8461 61.8128 51.2861 62.4646 50.7274C63.4639 49.8707 63.6061 49.6427 63.3731 49.2704C63.1214 48.8692 62.4905 48.8242 56.3885 48.7724C52.1383 48.7362 49.5203 48.8094 49.2437 48.9722Z" fill="#035E46"/>
</g>
</svg>
