<svg width="90" height="90" viewBox="0 0 90 90" fill="none" xmlns="http://www.w3.org/2000/svg">
<g id="Property 1=Kartonnenbekers">
<path id="Screenshot 2024-02-28 at 13.24 9 (Traced)" fill-rule="evenodd" clip-rule="evenodd" d="M38.101 6.20675C35.2353 6.40574 30.2518 7.29446 28.8713 7.85269C28.3911 8.04668 27.3689 8.36717 26.5998 8.56491C24.2223 9.17563 21.5676 10.6001 19.825 12.2005C18.5201 13.3987 18.0703 14.0187 17.5368 15.3541C17.0576 16.5538 16.9199 17.2331 17.0421 17.795C17.3701 19.3025 18.3445 21.0844 19.3822 22.0736C19.9592 22.6236 20.5826 23.3623 20.7677 23.7153C20.9525 24.0683 21.2306 25.7557 21.3855 27.4652C21.5404 29.1746 21.8258 31.3045 22.0194 32.1982C22.213 33.092 22.4951 35.0044 22.646 36.4481C22.7969 37.8918 23.0686 39.8042 23.2494 40.6979C23.4303 41.5916 23.654 43.2791 23.7466 44.4478C23.8391 45.6165 24.1245 47.6414 24.3804 48.9476C24.6366 50.2538 24.9756 52.5037 25.1343 53.9474C25.2929 55.3911 25.5189 56.966 25.6369 57.4473C25.7547 57.9285 25.9722 59.5034 26.1201 60.9471C26.268 62.3908 26.5584 64.472 26.7649 65.5719C26.9717 66.6719 27.3033 68.8656 27.5016 70.4468C27.7001 72.0279 27.9755 73.9404 28.1137 74.6966C28.2517 75.4528 28.4278 76.5945 28.5049 77.2335C28.6618 78.5364 29.4977 79.7799 30.8669 80.7476C31.8577 81.4481 36.06 83.1948 36.7637 83.199C37.0191 83.2005 37.7844 83.3708 38.4644 83.5775C40.1694 84.096 47.0473 84.3357 50.1993 83.9867C55.6314 83.3853 61.023 80.9646 62.1278 78.6312C62.3511 78.16 62.5998 77.11 62.6808 76.298C62.7617 75.4861 62.9859 74.0904 63.1792 73.1967C63.3726 72.3029 63.7071 69.9635 63.9223 67.9981C64.1379 66.0327 64.4078 64.1765 64.5225 63.8733C64.637 63.57 64.8101 62.3658 64.9074 61.1971C65.0047 60.0284 65.2402 58.2847 65.4308 57.3223C65.6213 56.3598 65.9524 54.0536 66.1664 52.1975C66.3802 50.3413 66.6631 48.4194 66.7948 47.9266C66.9265 47.4339 67.1497 45.859 67.2912 44.4268C67.4326 42.9946 67.713 40.9792 67.9141 39.9479C68.1154 38.9167 68.3972 36.9481 68.5404 35.5731C68.6836 34.1982 68.9615 32.2295 69.1583 31.1983C69.3549 30.1671 69.638 28.1626 69.7877 26.7437C69.9371 25.325 70.1247 23.9751 70.2043 23.7438C70.2838 23.5128 70.9536 22.7426 71.6922 22.0324C72.7137 21.0507 73.1523 20.392 73.5224 19.2825C74.1423 17.4266 74.1396 16.8863 73.5025 15.1989C72.2063 11.7655 66.8324 8.65565 59.8995 7.32696C58.9236 7.13996 57.6828 6.86747 57.1423 6.72173C54.671 6.05475 44.319 5.77477 38.101 6.20675ZM53.406 10.6953C56.0552 10.9683 58.6624 11.3438 59.2 11.5298C59.7376 11.7158 60.907 12.0153 61.7988 12.195C62.6906 12.375 63.5886 12.6657 63.7944 12.8412C64.0002 13.0165 64.4951 13.2417 64.8942 13.3415C66.4872 13.7402 69.0967 15.6771 69.5108 16.7686C69.7947 17.5168 69.429 18.1903 68.1583 19.26C66.2734 20.8469 63.5719 21.9034 58.3065 23.1123C52.0704 24.5443 39.1893 24.5788 32.9872 23.1801C27.6824 21.9839 25.0335 20.9522 22.9466 19.2697C21.6816 18.25 21.3015 17.6151 21.528 16.9001C21.76 16.1671 23.3971 14.5562 24.1412 14.3279C24.479 14.2244 24.9237 13.9982 25.1295 13.825C25.3353 13.6517 26.3456 13.2217 27.3746 12.8695C30.9031 11.6615 33.9885 10.9923 37.3461 10.7066C39.1946 10.5493 40.7569 10.3708 40.8175 10.3098C41.1161 10.0106 49.1464 10.2566 53.406 10.6953ZM48.081 38.9687C50.7553 40.2984 53.6392 43.683 54.5605 46.5727C54.7358 47.1227 55.005 47.7304 55.1584 47.9234C55.318 48.1236 55.4752 49.5893 55.5253 51.3415C55.6119 54.3794 55.6049 54.4246 54.7972 56.0688C53.5238 58.6612 51.4852 60.2129 48.2499 61.0519C45.0858 61.8726 41.6075 60.3284 38.8241 56.867C37.6567 55.4151 37.4033 54.9764 36.1999 52.3225C35.5803 50.956 35.5182 50.5443 35.5007 47.6976C35.4865 45.3497 35.5748 44.41 35.8559 43.918C36.0617 43.5581 36.4835 42.8016 36.7931 42.2374C37.4704 41.0029 39.6728 39.3142 41.4339 38.6785C42.2451 38.3857 43.4163 38.2128 44.6234 38.207C46.2635 38.1993 46.7484 38.306 48.081 38.9687ZM41.4159 42.2689C41.1178 42.4021 40.8105 42.6773 40.7327 42.8803C40.5715 43.3011 41.6786 44.7298 42.5479 45.2232C43.4671 45.745 43.6475 46.3507 43.8401 49.5596C44.0369 52.8419 44.4248 53.9939 45.7501 55.2344C47.272 56.6583 49.5368 57.36 50.5448 56.7203C51.1028 56.3661 50.6668 55.2961 49.7276 54.7141C49.2616 54.4256 48.5657 53.7757 48.1805 53.2699C47.5591 52.4532 47.4618 52.0682 47.3134 49.8363C47.052 45.899 45.8559 43.754 43.2873 42.6156C42.2808 42.1694 41.8265 42.0854 41.4159 42.2689Z" fill="#035E46"/>
</g>
</svg>
