<svg width="90" height="90" viewBox="0 0 90 90" fill="none" xmlns="http://www.w3.org/2000/svg">
<g id="Property 1=Bestek">
<path id="Screenshot 2024-02-28 at 13.24 6 (Traced)" fill-rule="evenodd" clip-rule="evenodd" d="M29.4504 12.1973C29.1286 12.586 28.8178 15.7372 28.2677 24.1868C27.8654 30.3701 27.8654 30.3701 28.623 31.6865C29.4521 33.1277 30.3337 33.9135 32.3405 35.0012C33.1158 35.4214 33.7107 35.9316 33.7888 36.2436C33.8617 36.5349 33.804 38.0625 33.6609 39.638C33.3331 43.2416 32.9996 48.6239 32.4922 58.5022C31.5934 75.9988 31.5767 74.5949 32.701 75.9248C33.6855 77.0895 36.8576 77.4795 39.3398 76.7408C40.3776 76.4321 40.7684 76.1543 41.3003 75.3489C41.9648 74.3426 41.9648 74.3426 41.6695 70.4223C41.5068 68.2661 41.2616 63.0146 41.1242 58.7522C40.9867 54.4899 40.7527 49.7651 40.6041 48.2526C40.4554 46.7402 40.2518 43.8716 40.1516 41.8779C40.0323 39.5087 39.8497 38.0633 39.6242 37.7051C39.4346 37.4036 38.7965 36.9721 38.2063 36.7463C37.6161 36.5204 37.1903 36.2431 37.2599 36.1304C37.3295 36.0174 37.9559 35.8464 38.6519 35.7506C39.9133 35.5766 42.7725 34.2794 43.7776 33.4247C44.0689 33.177 44.602 32.4193 44.9625 31.7408C45.754 30.2508 45.8151 28.3317 45.2573 22.5036C45.06 20.4412 44.819 17.3146 44.7222 15.5554C44.5731 12.8525 44.4768 12.3198 44.1004 12.118C43.8245 11.9698 43.4246 11.9668 43.0499 12.1095C42.34 12.38 42.1255 13.1843 42.1255 15.5747C42.1255 18.0846 41.1182 27.9634 40.8263 28.3159C40.4908 28.7212 39.5167 28.7179 39.1792 28.3104C39.0343 28.1354 38.8457 26.42 38.7596 24.4981C38.4742 18.1078 37.8723 12.55 37.431 12.2265C36.7944 11.7601 35.9246 12.3135 35.654 13.3572C35.526 13.8505 35.3007 17.0664 35.1533 20.5037C35.0061 23.9411 34.8161 27.072 34.7307 27.4615C34.6414 27.8704 34.3221 28.2852 33.9747 28.4437C33.473 28.6729 33.2869 28.6314 32.8499 28.1934C32.2517 27.5939 32.0886 26.1707 31.6548 17.7618C31.4812 14.3985 31.2958 12.6743 31.0863 12.4763C30.5644 11.9833 29.7437 11.8433 29.4504 12.1973ZM51.5729 12.8165C51.204 13.7597 51.2224 74.7441 51.5919 75.7178C51.9082 76.5518 53.1766 77.1308 54.6524 77.1153C56.7103 77.0935 57.8932 76.0641 59.002 73.3292C60.4818 69.6798 60.2752 60.1802 58.4398 47.4597C58.218 45.9237 58.103 44.5595 58.1841 44.428C58.2649 44.2968 58.8252 44.0646 59.4288 43.9123C60.1602 43.7278 60.7861 43.3391 61.304 42.7479C61.9964 41.9574 62.0812 41.6906 62.08 40.3067C62.0793 39.4522 61.9051 37.6281 61.6934 36.2531C61.4816 34.8782 61.1997 32.7412 61.067 31.5043C60.9343 30.2673 60.6135 28.4112 60.3543 27.3795C60.0951 26.3477 59.7678 24.9973 59.6274 24.3786C58.555 19.6565 56.5981 15.0294 54.8878 13.173C54.0544 12.268 53.7875 12.129 52.884 12.129C51.9785 12.129 51.8064 12.2193 51.5729 12.8165Z" fill="#035E46"/>
</g>
</svg>
