<svg width="90" height="90" viewBox="0 0 90 90" fill="none" xmlns="http://www.w3.org/2000/svg">
<g id="Property 1=Eenpersoons voedsel">
<path id="Screenshot 2024-02-28 at 13.24 7 (Traced)" fill-rule="evenodd" clip-rule="evenodd" d="M50.862 10.456C49.8998 10.7148 48.5341 11.243 47.8276 11.6297C44.4807 13.4617 42.6032 14.5469 42.4893 14.7149C42.4205 14.8161 41.9504 15.1094 41.4446 15.3661C40.568 15.8111 37.2474 17.707 35.2847 18.8832C34.7796 19.186 33.8604 19.7014 33.2418 20.0289C32.6232 20.3562 31.1049 21.2231 29.8677 21.9551C26.6128 23.8813 24.7233 24.982 23.8693 25.45C23.4569 25.6759 22.4692 26.2484 21.6744 26.7219C20.8799 27.1951 19.731 27.8639 19.1214 28.2076C11.5262 32.4914 10.4495 33.2029 8.8834 34.9713C7.9799 35.9916 7.46854 36.8875 6.95693 38.3462C6.08466 40.8341 6.06792 42.3303 6.87695 45.5814C7.21885 46.9559 7.49878 48.4521 7.49878 48.906C7.49878 49.36 7.65599 50.0355 7.84793 50.407C8.27057 51.2242 8.60973 53.7121 8.39228 54.3978C8.25732 54.8231 7.9529 54.9096 6.23987 55.0086C3.76204 55.1521 3 55.6945 3 57.315C3 58.7479 3.54635 59.0314 6.55478 59.1602C8.1386 59.2279 9.07935 59.3779 9.25605 59.5906C9.73142 60.1636 10.8409 63.3495 11.9951 67.4561C12.2462 68.3498 12.6214 69.531 12.8291 70.081C13.0365 70.631 13.4582 71.7944 13.7658 72.6666C14.6593 75.199 16.4543 77.0092 19.479 78.4282C20.8701 79.0806 20.8701 79.0806 42.9891 79.1561C57.8174 79.2069 65.6142 79.1441 66.6435 78.9661C68.1148 78.7114 69.396 78.1079 71.1852 76.827C72.9158 75.588 74.3084 73.2299 75.2431 69.956C75.5378 68.9248 75.9829 67.5186 76.2324 66.8311C76.482 66.1436 76.7625 65.1312 76.8557 64.5812C76.9489 64.0312 77.2401 63.1092 77.5025 62.5325C77.7649 61.9558 77.9796 61.2476 77.9796 60.9586C77.9796 60.6698 78.2558 60.1576 78.5932 59.8201C79.1431 59.2699 79.4152 59.2064 81.2255 59.2064C83.6678 59.2064 84.8565 58.7857 85.0337 57.8585C85.2349 56.8055 84.9592 55.956 84.2694 55.5038C83.6738 55.1133 80.9838 55.0768 48.5174 55.0168C29.2079 54.9813 13.3619 54.9046 13.304 54.8466C13.0688 54.6113 14.1397 53.2036 14.7341 52.9671C15.0847 52.8274 15.934 52.3772 16.6213 51.9667C17.3086 51.556 18.2646 51.0202 18.7457 50.7757C19.2268 50.5315 20.2953 49.9275 21.1201 49.4335C21.9449 48.9396 23.8568 47.8328 25.3689 46.9739C26.881 46.1152 29.1304 44.809 30.3676 44.0712C31.6047 43.3338 32.9544 42.5738 33.3668 42.3823C33.7791 42.1911 34.271 41.8483 34.4595 41.6208C34.6482 41.3933 34.8996 41.2071 35.0181 41.2071C35.1365 41.2071 36.8688 40.2791 38.8675 39.1447C40.866 38.0102 42.8642 36.8783 43.3076 36.6293C43.7509 36.38 44.5637 35.9058 45.1136 35.5756C45.6634 35.2453 46.6194 34.6876 47.238 34.3359C47.8566 33.9841 48.8126 33.4132 49.3624 33.0669C49.9123 32.7209 50.812 32.2149 51.3619 31.9427C51.9117 31.6705 53.3738 30.833 54.611 30.0815C55.8481 29.3303 57.3102 28.4871 57.8601 28.2079C58.41 27.9289 59.275 27.4489 59.7821 27.1416C60.2894 26.8342 61.5828 26.0832 62.6563 25.4725C63.73 24.862 65.1706 24.0095 65.8579 23.5783C66.5452 23.147 68.479 22.0341 70.1553 21.1051C71.8316 20.1762 73.4906 19.1497 73.8418 18.824C74.7418 17.9897 74.697 16.886 73.7235 15.9123C73.078 15.2666 72.8413 15.1786 72.116 15.3149C71.242 15.4788 69.318 16.4461 68.261 17.253C67.0156 18.2037 66.3643 17.8488 61.9095 13.7904C59.7476 11.8207 58.074 10.8813 55.8114 10.367C53.5763 9.85906 53.0472 9.86881 50.862 10.456Z" fill="#035E46"/>
</g>
</svg>
