<svg width="436" height="119" viewBox="0 0 436 119" fill="none" xmlns="http://www.w3.org/2000/svg">
<path d="M65 40L370 40" stroke="#BFC0BF" stroke-linecap="round"/>
<circle cx="65.5" cy="40" r="20" fill="#A2A3A2" stroke="#FDFDFD" stroke-width="8"/>
<circle cx="65.5" cy="40" r="13.5" fill="#FDFDFD" stroke="#028352" stroke-width="5"/>
<rect x="0.5" y="73.5" width="131" height="21" rx="9.5" stroke="#028352"/>
<path d="M14.424 89V80.06H15.84V89H14.424ZM17.5615 89V82.508H18.8575V83.78L18.7015 83.612C18.8615 83.204 19.1175 82.896 19.4695 82.688C19.8215 82.472 20.2295 82.364 20.6935 82.364C21.1735 82.364 21.5975 82.468 21.9655 82.676C22.3335 82.884 22.6215 83.172 22.8295 83.54C23.0375 83.908 23.1415 84.332 23.1415 84.812V89H21.7975V85.172C21.7975 84.844 21.7375 84.568 21.6175 84.344C21.4975 84.112 21.3255 83.936 21.1015 83.816C20.8855 83.688 20.6375 83.624 20.3575 83.624C20.0775 83.624 19.8255 83.688 19.6015 83.816C19.3855 83.936 19.2175 84.112 19.0975 84.344C18.9775 84.576 18.9175 84.852 18.9175 85.172V89H17.5615ZM29.8224 89.144C29.1984 89.144 28.6264 88.996 28.1064 88.7C27.5944 88.404 27.1864 88 26.8824 87.488C26.5784 86.976 26.4264 86.396 26.4264 85.748C26.4264 85.092 26.5784 84.512 26.8824 84.008C27.1864 83.496 27.5944 83.096 28.1064 82.808C28.6184 82.512 29.1904 82.364 29.8224 82.364C30.4624 82.364 31.0344 82.512 31.5384 82.808C32.0504 83.096 32.4544 83.496 32.7504 84.008C33.0544 84.512 33.2064 85.092 33.2064 85.748C33.2064 86.404 33.0544 86.988 32.7504 87.5C32.4464 88.012 32.0384 88.416 31.5264 88.712C31.0144 89 30.4464 89.144 29.8224 89.144ZM29.8224 87.884C30.2064 87.884 30.5464 87.792 30.8424 87.608C31.1384 87.424 31.3704 87.172 31.5384 86.852C31.7144 86.524 31.8024 86.156 31.8024 85.748C31.8024 85.34 31.7144 84.976 31.5384 84.656C31.3704 84.336 31.1384 84.084 30.8424 83.9C30.5464 83.716 30.2064 83.624 29.8224 83.624C29.4464 83.624 29.1064 83.716 28.8024 83.9C28.5064 84.084 28.2704 84.336 28.0944 84.656C27.9264 84.976 27.8424 85.34 27.8424 85.748C27.8424 86.156 27.9264 86.524 28.0944 86.852C28.2704 87.172 28.5064 87.424 28.8024 87.608C29.1064 87.792 29.4464 87.884 29.8224 87.884ZM34.5303 89V82.508H35.8263V83.78L35.6703 83.612C35.8303 83.204 36.0863 82.896 36.4383 82.688C36.7903 82.472 37.1983 82.364 37.6623 82.364C38.1423 82.364 38.5663 82.468 38.9343 82.676C39.3023 82.884 39.5903 83.172 39.7983 83.54C40.0063 83.908 40.1103 84.332 40.1103 84.812V89H38.7663V85.172C38.7663 84.844 38.7063 84.568 38.5863 84.344C38.4663 84.112 38.2943 83.936 38.0703 83.816C37.8543 83.688 37.6063 83.624 37.3263 83.624C37.0463 83.624 36.7943 83.688 36.5703 83.816C36.3543 83.936 36.1863 84.112 36.0663 84.344C35.9463 84.576 35.8863 84.852 35.8863 85.172V89H34.5303ZM44.5615 89.144C43.9375 89.144 43.3775 88.996 42.8815 88.7C42.3935 88.396 42.0055 87.988 41.7175 87.476C41.4375 86.964 41.2975 86.388 41.2975 85.748C41.2975 85.108 41.4415 84.532 41.7295 84.02C42.0175 83.508 42.4055 83.104 42.8935 82.808C43.3815 82.512 43.9335 82.364 44.5495 82.364C45.0695 82.364 45.5295 82.468 45.9295 82.676C46.3295 82.884 46.6455 83.172 46.8775 83.54L46.6735 83.852V79.916H48.0175V89H46.7335V87.68L46.8895 87.932C46.6655 88.324 46.3455 88.624 45.9295 88.832C45.5135 89.04 45.0575 89.144 44.5615 89.144ZM44.6935 87.884C45.0695 87.884 45.4055 87.792 45.7015 87.608C46.0055 87.424 46.2415 87.172 46.4095 86.852C46.5855 86.524 46.6735 86.156 46.6735 85.748C46.6735 85.34 46.5855 84.976 46.4095 84.656C46.2415 84.336 46.0055 84.084 45.7015 83.9C45.4055 83.716 45.0695 83.624 44.6935 83.624C44.3175 83.624 43.9775 83.716 43.6735 83.9C43.3695 84.084 43.1335 84.336 42.9655 84.656C42.7975 84.976 42.7135 85.34 42.7135 85.748C42.7135 86.156 42.7975 86.524 42.9655 86.852C43.1335 87.172 43.3655 87.424 43.6615 87.608C43.9655 87.792 44.3095 87.884 44.6935 87.884ZM52.6486 89.144C52.0006 89.144 51.4246 88.996 50.9206 88.7C50.4246 88.396 50.0366 87.988 49.7566 87.476C49.4766 86.956 49.3366 86.376 49.3366 85.736C49.3366 85.08 49.4766 84.5 49.7566 83.996C50.0446 83.492 50.4286 83.096 50.9086 82.808C51.3886 82.512 51.9326 82.364 52.5406 82.364C53.0286 82.364 53.4646 82.448 53.8486 82.616C54.2326 82.784 54.5566 83.016 54.8206 83.312C55.0846 83.6 55.2846 83.932 55.4206 84.308C55.5646 84.684 55.6366 85.084 55.6366 85.508C55.6366 85.612 55.6326 85.72 55.6246 85.832C55.6166 85.944 55.6006 86.048 55.5766 86.144H50.4046V85.064H54.8086L54.1606 85.556C54.2406 85.164 54.2126 84.816 54.0766 84.512C53.9486 84.2 53.7486 83.956 53.4766 83.78C53.2126 83.596 52.9006 83.504 52.5406 83.504C52.1806 83.504 51.8606 83.596 51.5806 83.78C51.3006 83.956 51.0846 84.212 50.9326 84.548C50.7806 84.876 50.7206 85.276 50.7526 85.748C50.7126 86.188 50.7726 86.572 50.9326 86.9C51.1006 87.228 51.3326 87.484 51.6286 87.668C51.9326 87.852 52.2766 87.944 52.6606 87.944C53.0526 87.944 53.3846 87.856 53.6566 87.68C53.9366 87.504 54.1566 87.276 54.3166 86.996L55.4206 87.536C55.2926 87.84 55.0926 88.116 54.8206 88.364C54.5566 88.604 54.2366 88.796 53.8606 88.94C53.4926 89.076 53.0886 89.144 52.6486 89.144ZM56.96 89V82.508H58.256V83.816L58.136 83.624C58.28 83.2 58.512 82.896 58.832 82.712C59.152 82.52 59.536 82.424 59.984 82.424H60.38V83.66H59.816C59.368 83.66 59.004 83.8 58.724 84.08C58.452 84.352 58.316 84.744 58.316 85.256V89H56.96ZM61.3076 89V79.916H62.6636V83.78L62.4476 83.612C62.6076 83.204 62.8636 82.896 63.2156 82.688C63.5676 82.472 63.9756 82.364 64.4396 82.364C64.9196 82.364 65.3436 82.468 65.7116 82.676C66.0796 82.884 66.3676 83.172 66.5756 83.54C66.7836 83.908 66.8876 84.328 66.8876 84.8V89H65.5436V85.172C65.5436 84.844 65.4796 84.568 65.3516 84.344C65.2316 84.112 65.0636 83.936 64.8476 83.816C64.6316 83.688 64.3836 83.624 64.1036 83.624C63.8316 83.624 63.5836 83.688 63.3596 83.816C63.1436 83.936 62.9716 84.112 62.8436 84.344C62.7236 84.576 62.6636 84.852 62.6636 85.172V89H61.3076ZM70.2829 89.144C69.8429 89.144 69.4549 89.068 69.1189 88.916C68.7909 88.756 68.5349 88.54 68.3509 88.268C68.1669 87.988 68.0749 87.66 68.0749 87.284C68.0749 86.932 68.1509 86.616 68.3029 86.336C68.4629 86.056 68.7069 85.82 69.0349 85.628C69.3629 85.436 69.7749 85.3 70.2709 85.22L72.5269 84.848V85.916L70.5349 86.264C70.1749 86.328 69.9109 86.444 69.7429 86.612C69.5749 86.772 69.4909 86.98 69.4909 87.236C69.4909 87.484 69.5829 87.688 69.7669 87.848C69.9589 88 70.2029 88.076 70.4989 88.076C70.8669 88.076 71.1869 87.996 71.4589 87.836C71.7389 87.676 71.9549 87.464 72.1069 87.2C72.2589 86.928 72.3349 86.628 72.3349 86.3V84.632C72.3349 84.312 72.2149 84.052 71.9749 83.852C71.7429 83.644 71.4309 83.54 71.0389 83.54C70.6789 83.54 70.3629 83.636 70.0909 83.828C69.8269 84.012 69.6309 84.252 69.5029 84.548L68.3749 83.984C68.4949 83.664 68.6909 83.384 68.9629 83.144C69.2349 82.896 69.5509 82.704 69.9109 82.568C70.2789 82.432 70.6669 82.364 71.0749 82.364C71.5869 82.364 72.0389 82.46 72.4309 82.652C72.8309 82.844 73.1389 83.112 73.3549 83.456C73.5789 83.792 73.6909 84.184 73.6909 84.632V89H72.3949V87.824L72.6709 87.86C72.5189 88.124 72.3229 88.352 72.0829 88.544C71.8509 88.736 71.5829 88.884 71.2789 88.988C70.9829 89.092 70.6509 89.144 70.2829 89.144ZM75.2764 89V82.508H76.5724V83.78L76.4164 83.612C76.5764 83.204 76.8324 82.896 77.1844 82.688C77.5364 82.472 77.9444 82.364 78.4084 82.364C78.8884 82.364 79.3124 82.468 79.6804 82.676C80.0484 82.884 80.3364 83.172 80.5444 83.54C80.7524 83.908 80.8564 84.332 80.8564 84.812V89H79.5124V85.172C79.5124 84.844 79.4524 84.568 79.3324 84.344C79.2124 84.112 79.0404 83.936 78.8164 83.816C78.6004 83.688 78.3524 83.624 78.0724 83.624C77.7924 83.624 77.5404 83.688 77.3164 83.816C77.1004 83.936 76.9324 84.112 76.8124 84.344C76.6924 84.576 76.6324 84.852 76.6324 85.172V89H75.2764ZM85.3076 89.144C84.6836 89.144 84.1236 88.996 83.6276 88.7C83.1396 88.396 82.7516 87.988 82.4636 87.476C82.1836 86.964 82.0436 86.388 82.0436 85.748C82.0436 85.108 82.1876 84.532 82.4756 84.02C82.7636 83.508 83.1516 83.104 83.6396 82.808C84.1276 82.512 84.6796 82.364 85.2956 82.364C85.8156 82.364 86.2756 82.468 86.6756 82.676C87.0756 82.884 87.3916 83.172 87.6236 83.54L87.4196 83.852V79.916H88.7636V89H87.4796V87.68L87.6356 87.932C87.4116 88.324 87.0916 88.624 86.6756 88.832C86.2596 89.04 85.8036 89.144 85.3076 89.144ZM85.4396 87.884C85.8156 87.884 86.1516 87.792 86.4476 87.608C86.7516 87.424 86.9876 87.172 87.1556 86.852C87.3316 86.524 87.4196 86.156 87.4196 85.748C87.4196 85.34 87.3316 84.976 87.1556 84.656C86.9876 84.336 86.7516 84.084 86.4476 83.9C86.1516 83.716 85.8156 83.624 85.4396 83.624C85.0636 83.624 84.7236 83.716 84.4196 83.9C84.1156 84.084 83.8796 84.336 83.7116 84.656C83.5436 84.976 83.4596 85.34 83.4596 85.748C83.4596 86.156 83.5436 86.524 83.7116 86.852C83.8796 87.172 84.1116 87.424 84.4076 87.608C84.7116 87.792 85.0556 87.884 85.4396 87.884ZM93.3947 89.144C92.7467 89.144 92.1707 88.996 91.6667 88.7C91.1707 88.396 90.7827 87.988 90.5027 87.476C90.2227 86.956 90.0827 86.376 90.0827 85.736C90.0827 85.08 90.2227 84.5 90.5027 83.996C90.7907 83.492 91.1747 83.096 91.6547 82.808C92.1347 82.512 92.6787 82.364 93.2867 82.364C93.7747 82.364 94.2107 82.448 94.5947 82.616C94.9787 82.784 95.3027 83.016 95.5667 83.312C95.8307 83.6 96.0307 83.932 96.1667 84.308C96.3107 84.684 96.3827 85.084 96.3827 85.508C96.3827 85.612 96.3787 85.72 96.3707 85.832C96.3627 85.944 96.3467 86.048 96.3227 86.144H91.1507V85.064H95.5547L94.9067 85.556C94.9867 85.164 94.9587 84.816 94.8227 84.512C94.6947 84.2 94.4947 83.956 94.2227 83.78C93.9587 83.596 93.6467 83.504 93.2867 83.504C92.9267 83.504 92.6067 83.596 92.3267 83.78C92.0467 83.956 91.8307 84.212 91.6787 84.548C91.5267 84.876 91.4667 85.276 91.4987 85.748C91.4587 86.188 91.5187 86.572 91.6787 86.9C91.8467 87.228 92.0787 87.484 92.3747 87.668C92.6787 87.852 93.0227 87.944 93.4067 87.944C93.7987 87.944 94.1307 87.856 94.4027 87.68C94.6827 87.504 94.9027 87.276 95.0627 86.996L96.1667 87.536C96.0387 87.84 95.8387 88.116 95.5667 88.364C95.3027 88.604 94.9827 88.796 94.6067 88.94C94.2387 89.076 93.8347 89.144 93.3947 89.144ZM97.7061 89V79.916H99.0621V89H97.7061ZM100.647 89V82.508H102.003V89H100.647ZM100.647 81.62V80.06H102.003V81.62H100.647ZM103.589 89V82.508H104.885V83.78L104.729 83.612C104.889 83.204 105.145 82.896 105.497 82.688C105.849 82.472 106.257 82.364 106.721 82.364C107.201 82.364 107.625 82.468 107.993 82.676C108.361 82.884 108.649 83.172 108.857 83.54C109.065 83.908 109.169 84.332 109.169 84.812V89H107.825V85.172C107.825 84.844 107.765 84.568 107.645 84.344C107.525 84.112 107.353 83.936 107.129 83.816C106.913 83.688 106.665 83.624 106.385 83.624C106.105 83.624 105.853 83.688 105.629 83.816C105.413 83.936 105.245 84.112 105.125 84.344C105.005 84.576 104.945 84.852 104.945 85.172V89H103.589ZM113.752 91.64C113.28 91.64 112.844 91.564 112.444 91.412C112.044 91.26 111.7 91.048 111.412 90.776C111.124 90.512 110.908 90.2 110.764 89.84L112.012 89.324C112.124 89.628 112.328 89.88 112.624 90.08C112.928 90.28 113.3 90.38 113.74 90.38C114.084 90.38 114.392 90.312 114.664 90.176C114.936 90.048 115.152 89.856 115.312 89.6C115.472 89.352 115.552 89.052 115.552 88.7V87.236L115.792 87.512C115.568 87.928 115.256 88.244 114.856 88.46C114.464 88.676 114.02 88.784 113.524 88.784C112.924 88.784 112.384 88.644 111.904 88.364C111.424 88.084 111.044 87.7 110.764 87.212C110.492 86.724 110.356 86.176 110.356 85.568C110.356 84.952 110.492 84.404 110.764 83.924C111.044 83.444 111.42 83.064 111.892 82.784C112.364 82.504 112.904 82.364 113.512 82.364C114.008 82.364 114.448 82.472 114.832 82.688C115.224 82.896 115.544 83.2 115.792 83.6L115.612 83.936V82.508H116.896V88.7C116.896 89.26 116.76 89.76 116.488 90.2C116.224 90.648 115.856 91 115.384 91.256C114.912 91.512 114.368 91.64 113.752 91.64ZM113.68 87.524C114.04 87.524 114.36 87.44 114.64 87.272C114.92 87.096 115.14 86.864 115.3 86.576C115.468 86.28 115.552 85.948 115.552 85.58C115.552 85.212 115.468 84.88 115.3 84.584C115.132 84.288 114.908 84.056 114.628 83.888C114.348 83.712 114.032 83.624 113.68 83.624C113.312 83.624 112.984 83.712 112.696 83.888C112.408 84.056 112.18 84.288 112.012 84.584C111.852 84.872 111.772 85.204 111.772 85.58C111.772 85.94 111.852 86.268 112.012 86.564C112.18 86.86 112.408 87.096 112.696 87.272C112.984 87.44 113.312 87.524 113.68 87.524Z" fill="#028352"/>
<circle cx="217.5" cy="40" r="20" fill="#A2A3A2" stroke="#FDFDFD" stroke-width="8"/>
<circle cx="217.5" cy="40" r="13.5" fill="#DAD8D8" stroke="#F0F0F0" stroke-width="5"/>
<rect x="152" y="73" width="132" height="22" rx="10" fill="#F0F0F0"/>
<path d="M179.132 89L182.276 80.06H184.028L187.172 89H185.66L184.976 86.996H181.34L180.644 89H179.132ZM181.748 85.736H184.544L182.96 81.056H183.356L181.748 85.736ZM190.045 89.144C189.605 89.144 189.217 89.068 188.881 88.916C188.553 88.756 188.297 88.54 188.113 88.268C187.929 87.988 187.837 87.66 187.837 87.284C187.837 86.932 187.913 86.616 188.065 86.336C188.225 86.056 188.469 85.82 188.797 85.628C189.125 85.436 189.537 85.3 190.033 85.22L192.289 84.848V85.916L190.297 86.264C189.937 86.328 189.673 86.444 189.505 86.612C189.337 86.772 189.253 86.98 189.253 87.236C189.253 87.484 189.345 87.688 189.529 87.848C189.721 88 189.965 88.076 190.261 88.076C190.629 88.076 190.949 87.996 191.221 87.836C191.501 87.676 191.717 87.464 191.869 87.2C192.021 86.928 192.097 86.628 192.097 86.3V84.632C192.097 84.312 191.977 84.052 191.737 83.852C191.505 83.644 191.193 83.54 190.801 83.54C190.441 83.54 190.125 83.636 189.853 83.828C189.589 84.012 189.393 84.252 189.265 84.548L188.137 83.984C188.257 83.664 188.453 83.384 188.725 83.144C188.997 82.896 189.313 82.704 189.673 82.568C190.041 82.432 190.429 82.364 190.837 82.364C191.349 82.364 191.801 82.46 192.193 82.652C192.593 82.844 192.901 83.112 193.117 83.456C193.341 83.792 193.453 84.184 193.453 84.632V89H192.157V87.824L192.433 87.86C192.281 88.124 192.085 88.352 191.845 88.544C191.613 88.736 191.345 88.884 191.041 88.988C190.745 89.092 190.413 89.144 190.045 89.144ZM195.038 89V82.508H196.334V83.78L196.178 83.612C196.338 83.204 196.594 82.896 196.946 82.688C197.298 82.472 197.706 82.364 198.17 82.364C198.65 82.364 199.074 82.468 199.442 82.676C199.81 82.884 200.098 83.172 200.306 83.54C200.514 83.908 200.618 84.332 200.618 84.812V89H199.274V85.172C199.274 84.844 199.214 84.568 199.094 84.344C198.974 84.112 198.802 83.936 198.578 83.816C198.362 83.688 198.114 83.624 197.834 83.624C197.554 83.624 197.302 83.688 197.078 83.816C196.862 83.936 196.694 84.112 196.574 84.344C196.454 84.576 196.394 84.852 196.394 85.172V89H195.038ZM205.201 91.64C204.729 91.64 204.293 91.564 203.893 91.412C203.493 91.26 203.149 91.048 202.861 90.776C202.573 90.512 202.357 90.2 202.213 89.84L203.461 89.324C203.573 89.628 203.777 89.88 204.073 90.08C204.377 90.28 204.749 90.38 205.189 90.38C205.533 90.38 205.841 90.312 206.113 90.176C206.385 90.048 206.601 89.856 206.761 89.6C206.921 89.352 207.001 89.052 207.001 88.7V87.236L207.241 87.512C207.017 87.928 206.705 88.244 206.305 88.46C205.913 88.676 205.469 88.784 204.973 88.784C204.373 88.784 203.833 88.644 203.353 88.364C202.873 88.084 202.493 87.7 202.213 87.212C201.941 86.724 201.805 86.176 201.805 85.568C201.805 84.952 201.941 84.404 202.213 83.924C202.493 83.444 202.869 83.064 203.341 82.784C203.813 82.504 204.353 82.364 204.961 82.364C205.457 82.364 205.897 82.472 206.281 82.688C206.673 82.896 206.993 83.2 207.241 83.6L207.061 83.936V82.508H208.345V88.7C208.345 89.26 208.209 89.76 207.937 90.2C207.673 90.648 207.305 91 206.833 91.256C206.361 91.512 205.817 91.64 205.201 91.64ZM205.129 87.524C205.489 87.524 205.809 87.44 206.089 87.272C206.369 87.096 206.589 86.864 206.749 86.576C206.917 86.28 207.001 85.948 207.001 85.58C207.001 85.212 206.917 84.88 206.749 84.584C206.581 84.288 206.357 84.056 206.077 83.888C205.797 83.712 205.481 83.624 205.129 83.624C204.761 83.624 204.433 83.712 204.145 83.888C203.857 84.056 203.629 84.288 203.461 84.584C203.301 84.872 203.221 85.204 203.221 85.58C203.221 85.94 203.301 86.268 203.461 86.564C203.629 86.86 203.857 87.096 204.145 87.272C204.433 87.44 204.761 87.524 205.129 87.524ZM212.981 89.144C212.333 89.144 211.757 88.996 211.253 88.7C210.757 88.396 210.369 87.988 210.089 87.476C209.809 86.956 209.669 86.376 209.669 85.736C209.669 85.08 209.809 84.5 210.089 83.996C210.377 83.492 210.761 83.096 211.241 82.808C211.721 82.512 212.265 82.364 212.873 82.364C213.361 82.364 213.797 82.448 214.181 82.616C214.565 82.784 214.889 83.016 215.153 83.312C215.417 83.6 215.617 83.932 215.753 84.308C215.897 84.684 215.969 85.084 215.969 85.508C215.969 85.612 215.965 85.72 215.957 85.832C215.949 85.944 215.933 86.048 215.909 86.144H210.737V85.064H215.141L214.493 85.556C214.573 85.164 214.545 84.816 214.409 84.512C214.281 84.2 214.081 83.956 213.809 83.78C213.545 83.596 213.233 83.504 212.873 83.504C212.513 83.504 212.193 83.596 211.913 83.78C211.633 83.956 211.417 84.212 211.265 84.548C211.113 84.876 211.053 85.276 211.085 85.748C211.045 86.188 211.105 86.572 211.265 86.9C211.433 87.228 211.665 87.484 211.961 87.668C212.265 87.852 212.609 87.944 212.993 87.944C213.385 87.944 213.717 87.856 213.989 87.68C214.269 87.504 214.489 87.276 214.649 86.996L215.753 87.536C215.625 87.84 215.425 88.116 215.153 88.364C214.889 88.604 214.569 88.796 214.193 88.94C213.825 89.076 213.421 89.144 212.981 89.144ZM217.292 89V82.508H218.588V83.78L218.432 83.612C218.592 83.204 218.848 82.896 219.2 82.688C219.552 82.472 219.96 82.364 220.424 82.364C220.904 82.364 221.328 82.468 221.696 82.676C222.064 82.884 222.352 83.172 222.56 83.54C222.768 83.908 222.872 84.332 222.872 84.812V89H221.528V85.172C221.528 84.844 221.468 84.568 221.348 84.344C221.228 84.112 221.056 83.936 220.832 83.816C220.616 83.688 220.368 83.624 220.088 83.624C219.808 83.624 219.556 83.688 219.332 83.816C219.116 83.936 218.948 84.112 218.828 84.344C218.708 84.576 218.648 84.852 218.648 85.172V89H217.292ZM227.455 89.144C226.831 89.144 226.259 88.996 225.739 88.7C225.227 88.404 224.819 88 224.515 87.488C224.211 86.976 224.059 86.396 224.059 85.748C224.059 85.092 224.211 84.512 224.515 84.008C224.819 83.496 225.227 83.096 225.739 82.808C226.251 82.512 226.823 82.364 227.455 82.364C228.095 82.364 228.667 82.512 229.171 82.808C229.683 83.096 230.087 83.496 230.383 84.008C230.687 84.512 230.839 85.092 230.839 85.748C230.839 86.404 230.687 86.988 230.383 87.5C230.079 88.012 229.671 88.416 229.159 88.712C228.647 89 228.079 89.144 227.455 89.144ZM227.455 87.884C227.839 87.884 228.179 87.792 228.475 87.608C228.771 87.424 229.003 87.172 229.171 86.852C229.347 86.524 229.435 86.156 229.435 85.748C229.435 85.34 229.347 84.976 229.171 84.656C229.003 84.336 228.771 84.084 228.475 83.9C228.179 83.716 227.839 83.624 227.455 83.624C227.079 83.624 226.739 83.716 226.435 83.9C226.139 84.084 225.903 84.336 225.727 84.656C225.559 84.976 225.475 85.34 225.475 85.748C225.475 86.156 225.559 86.524 225.727 86.852C225.903 87.172 226.139 87.424 226.435 87.608C226.739 87.792 227.079 87.884 227.455 87.884ZM232.163 89V82.508H233.459V83.912L233.291 83.696C233.427 83.256 233.675 82.924 234.035 82.7C234.395 82.476 234.807 82.364 235.271 82.364C235.791 82.364 236.251 82.504 236.651 82.784C237.059 83.056 237.331 83.42 237.467 83.876L237.083 83.912C237.275 83.392 237.567 83.004 237.959 82.748C238.359 82.492 238.815 82.364 239.327 82.364C239.775 82.364 240.179 82.468 240.539 82.676C240.907 82.884 241.199 83.172 241.415 83.54C241.631 83.908 241.739 84.328 241.739 84.8V89H240.383V85.172C240.383 84.844 240.323 84.568 240.203 84.344C240.091 84.112 239.931 83.936 239.723 83.816C239.523 83.688 239.287 83.624 239.015 83.624C238.743 83.624 238.503 83.688 238.295 83.816C238.087 83.936 237.923 84.112 237.803 84.344C237.683 84.576 237.623 84.852 237.623 85.172V89H236.279V85.172C236.279 84.844 236.219 84.568 236.099 84.344C235.987 84.112 235.827 83.936 235.619 83.816C235.419 83.688 235.179 83.624 234.899 83.624C234.627 83.624 234.387 83.688 234.179 83.816C233.971 83.936 233.807 84.112 233.687 84.344C233.575 84.576 233.519 84.852 233.519 85.172V89H232.163ZM246.238 89.144C245.59 89.144 245.014 88.996 244.51 88.7C244.014 88.396 243.626 87.988 243.346 87.476C243.066 86.956 242.926 86.376 242.926 85.736C242.926 85.08 243.066 84.5 243.346 83.996C243.634 83.492 244.018 83.096 244.498 82.808C244.978 82.512 245.522 82.364 246.13 82.364C246.618 82.364 247.054 82.448 247.438 82.616C247.822 82.784 248.146 83.016 248.41 83.312C248.674 83.6 248.874 83.932 249.01 84.308C249.154 84.684 249.226 85.084 249.226 85.508C249.226 85.612 249.222 85.72 249.214 85.832C249.206 85.944 249.19 86.048 249.166 86.144H243.994V85.064H248.398L247.75 85.556C247.83 85.164 247.802 84.816 247.666 84.512C247.538 84.2 247.338 83.956 247.066 83.78C246.802 83.596 246.49 83.504 246.13 83.504C245.77 83.504 245.45 83.596 245.17 83.78C244.89 83.956 244.674 84.212 244.522 84.548C244.37 84.876 244.31 85.276 244.342 85.748C244.302 86.188 244.362 86.572 244.522 86.9C244.69 87.228 244.922 87.484 245.218 87.668C245.522 87.852 245.866 87.944 246.25 87.944C246.642 87.944 246.974 87.856 247.246 87.68C247.526 87.504 247.746 87.276 247.906 86.996L249.01 87.536C248.882 87.84 248.682 88.116 248.41 88.364C248.146 88.604 247.826 88.796 247.45 88.94C247.082 89.076 246.678 89.144 246.238 89.144ZM250.55 89V82.508H251.846V83.78L251.69 83.612C251.85 83.204 252.106 82.896 252.458 82.688C252.81 82.472 253.218 82.364 253.682 82.364C254.162 82.364 254.586 82.468 254.954 82.676C255.322 82.884 255.61 83.172 255.818 83.54C256.026 83.908 256.13 84.332 256.13 84.812V89H254.786V85.172C254.786 84.844 254.726 84.568 254.606 84.344C254.486 84.112 254.314 83.936 254.09 83.816C253.874 83.688 253.626 83.624 253.346 83.624C253.066 83.624 252.814 83.688 252.59 83.816C252.374 83.936 252.206 84.112 252.086 84.344C251.966 84.576 251.906 84.852 251.906 85.172V89H250.55Z" fill="#676868"/>
<circle cx="369.5" cy="40" r="20" fill="#A2A3A2" stroke="#FDFDFD" stroke-width="8"/>
<circle cx="369.5" cy="40" r="13.5" fill="#DAD8D8" stroke="#F0F0F0" stroke-width="5"/>
<rect x="304" y="73" width="132" height="22" rx="10" fill="#F0F0F0"/>
<path d="M328.424 89V80.06H329.84V89H328.424ZM331.562 89V82.508H332.858V83.912L332.69 83.696C332.826 83.256 333.074 82.924 333.434 82.7C333.794 82.476 334.206 82.364 334.67 82.364C335.19 82.364 335.65 82.504 336.05 82.784C336.458 83.056 336.73 83.42 336.866 83.876L336.482 83.912C336.674 83.392 336.966 83.004 337.358 82.748C337.758 82.492 338.214 82.364 338.726 82.364C339.174 82.364 339.578 82.468 339.938 82.676C340.306 82.884 340.598 83.172 340.814 83.54C341.03 83.908 341.138 84.328 341.138 84.8V89H339.782V85.172C339.782 84.844 339.722 84.568 339.602 84.344C339.49 84.112 339.33 83.936 339.122 83.816C338.922 83.688 338.686 83.624 338.414 83.624C338.142 83.624 337.902 83.688 337.694 83.816C337.486 83.936 337.322 84.112 337.202 84.344C337.082 84.576 337.022 84.852 337.022 85.172V89H335.678V85.172C335.678 84.844 335.618 84.568 335.498 84.344C335.386 84.112 335.226 83.936 335.018 83.816C334.818 83.688 334.578 83.624 334.298 83.624C334.026 83.624 333.786 83.688 333.578 83.816C333.37 83.936 333.206 84.112 333.086 84.344C332.974 84.576 332.918 84.852 332.918 85.172V89H331.562ZM342.589 91.4V82.508H343.885V83.852L343.729 83.54C343.969 83.172 344.289 82.884 344.689 82.676C345.089 82.468 345.545 82.364 346.057 82.364C346.673 82.364 347.225 82.512 347.713 82.808C348.209 83.104 348.597 83.508 348.877 84.02C349.165 84.532 349.309 85.108 349.309 85.748C349.309 86.388 349.165 86.964 348.877 87.476C348.597 87.988 348.213 88.396 347.725 88.7C347.237 88.996 346.681 89.144 346.057 89.144C345.553 89.144 345.093 89.04 344.677 88.832C344.269 88.624 343.953 88.324 343.729 87.932L343.945 87.68V91.4H342.589ZM345.925 87.884C346.309 87.884 346.649 87.792 346.945 87.608C347.241 87.424 347.473 87.172 347.641 86.852C347.817 86.524 347.905 86.156 347.905 85.748C347.905 85.34 347.817 84.976 347.641 84.656C347.473 84.336 347.241 84.084 346.945 83.9C346.649 83.716 346.309 83.624 345.925 83.624C345.549 83.624 345.209 83.716 344.905 83.9C344.609 84.084 344.373 84.336 344.197 84.656C344.029 84.976 343.945 85.34 343.945 85.748C343.945 86.156 344.029 86.524 344.197 86.852C344.373 87.172 344.609 87.424 344.905 87.608C345.209 87.792 345.549 87.884 345.925 87.884ZM350.628 89V79.916H351.984V89H350.628ZM356.617 89.144C355.969 89.144 355.393 88.996 354.889 88.7C354.393 88.396 354.005 87.988 353.725 87.476C353.445 86.956 353.305 86.376 353.305 85.736C353.305 85.08 353.445 84.5 353.725 83.996C354.013 83.492 354.397 83.096 354.877 82.808C355.357 82.512 355.901 82.364 356.509 82.364C356.997 82.364 357.433 82.448 357.817 82.616C358.201 82.784 358.525 83.016 358.789 83.312C359.053 83.6 359.253 83.932 359.389 84.308C359.533 84.684 359.605 85.084 359.605 85.508C359.605 85.612 359.601 85.72 359.593 85.832C359.585 85.944 359.569 86.048 359.545 86.144H354.373V85.064H358.777L358.129 85.556C358.209 85.164 358.181 84.816 358.045 84.512C357.917 84.2 357.717 83.956 357.445 83.78C357.181 83.596 356.869 83.504 356.509 83.504C356.149 83.504 355.829 83.596 355.549 83.78C355.269 83.956 355.053 84.212 354.901 84.548C354.749 84.876 354.689 85.276 354.721 85.748C354.681 86.188 354.741 86.572 354.901 86.9C355.069 87.228 355.301 87.484 355.597 87.668C355.901 87.852 356.245 87.944 356.629 87.944C357.021 87.944 357.353 87.856 357.625 87.68C357.905 87.504 358.125 87.276 358.285 86.996L359.389 87.536C359.261 87.84 359.061 88.116 358.789 88.364C358.525 88.604 358.205 88.796 357.829 88.94C357.461 89.076 357.057 89.144 356.617 89.144ZM360.929 89V82.508H362.225V83.912L362.057 83.696C362.193 83.256 362.441 82.924 362.801 82.7C363.161 82.476 363.573 82.364 364.037 82.364C364.557 82.364 365.017 82.504 365.417 82.784C365.825 83.056 366.097 83.42 366.233 83.876L365.849 83.912C366.041 83.392 366.333 83.004 366.725 82.748C367.125 82.492 367.581 82.364 368.093 82.364C368.541 82.364 368.945 82.468 369.305 82.676C369.673 82.884 369.965 83.172 370.181 83.54C370.397 83.908 370.505 84.328 370.505 84.8V89H369.149V85.172C369.149 84.844 369.089 84.568 368.969 84.344C368.857 84.112 368.697 83.936 368.489 83.816C368.289 83.688 368.053 83.624 367.781 83.624C367.509 83.624 367.269 83.688 367.061 83.816C366.853 83.936 366.689 84.112 366.569 84.344C366.449 84.576 366.389 84.852 366.389 85.172V89H365.045V85.172C365.045 84.844 364.985 84.568 364.865 84.344C364.753 84.112 364.593 83.936 364.385 83.816C364.185 83.688 363.945 83.624 363.665 83.624C363.393 83.624 363.153 83.688 362.945 83.816C362.737 83.936 362.573 84.112 362.453 84.344C362.341 84.576 362.285 84.852 362.285 85.172V89H360.929ZM375.004 89.144C374.356 89.144 373.78 88.996 373.276 88.7C372.78 88.396 372.392 87.988 372.112 87.476C371.832 86.956 371.692 86.376 371.692 85.736C371.692 85.08 371.832 84.5 372.112 83.996C372.4 83.492 372.784 83.096 373.264 82.808C373.744 82.512 374.288 82.364 374.896 82.364C375.384 82.364 375.82 82.448 376.204 82.616C376.588 82.784 376.912 83.016 377.176 83.312C377.44 83.6 377.64 83.932 377.776 84.308C377.92 84.684 377.992 85.084 377.992 85.508C377.992 85.612 377.988 85.72 377.98 85.832C377.972 85.944 377.956 86.048 377.932 86.144H372.76V85.064H377.164L376.516 85.556C376.596 85.164 376.568 84.816 376.432 84.512C376.304 84.2 376.104 83.956 375.832 83.78C375.568 83.596 375.256 83.504 374.896 83.504C374.536 83.504 374.216 83.596 373.936 83.78C373.656 83.956 373.44 84.212 373.288 84.548C373.136 84.876 373.076 85.276 373.108 85.748C373.068 86.188 373.128 86.572 373.288 86.9C373.456 87.228 373.688 87.484 373.984 87.668C374.288 87.852 374.632 87.944 375.016 87.944C375.408 87.944 375.74 87.856 376.012 87.68C376.292 87.504 376.512 87.276 376.672 86.996L377.776 87.536C377.648 87.84 377.448 88.116 377.176 88.364C376.912 88.604 376.592 88.796 376.216 88.94C375.848 89.076 375.444 89.144 375.004 89.144ZM379.315 89V82.508H380.611V83.78L380.455 83.612C380.615 83.204 380.871 82.896 381.223 82.688C381.575 82.472 381.983 82.364 382.447 82.364C382.927 82.364 383.351 82.468 383.719 82.676C384.087 82.884 384.375 83.172 384.583 83.54C384.791 83.908 384.895 84.332 384.895 84.812V89H383.551V85.172C383.551 84.844 383.491 84.568 383.371 84.344C383.251 84.112 383.079 83.936 382.855 83.816C382.639 83.688 382.391 83.624 382.111 83.624C381.831 83.624 381.579 83.688 381.355 83.816C381.139 83.936 380.971 84.112 380.851 84.344C380.731 84.576 380.671 84.852 380.671 85.172V89H379.315ZM389.155 89.072C388.475 89.072 387.947 88.88 387.571 88.496C387.195 88.112 387.007 87.572 387.007 86.876V83.732H385.867V82.508H386.047C386.351 82.508 386.587 82.42 386.755 82.244C386.923 82.068 387.007 81.828 387.007 81.524V81.02H388.363V82.508H389.839V83.732H388.363V86.816C388.363 87.04 388.399 87.232 388.471 87.392C388.543 87.544 388.659 87.664 388.819 87.752C388.979 87.832 389.187 87.872 389.443 87.872C389.507 87.872 389.579 87.868 389.659 87.86C389.739 87.852 389.815 87.844 389.887 87.836V89C389.775 89.016 389.651 89.032 389.515 89.048C389.379 89.064 389.259 89.072 389.155 89.072ZM393.095 89.144C392.655 89.144 392.267 89.068 391.931 88.916C391.603 88.756 391.347 88.54 391.163 88.268C390.979 87.988 390.887 87.66 390.887 87.284C390.887 86.932 390.963 86.616 391.115 86.336C391.275 86.056 391.519 85.82 391.847 85.628C392.175 85.436 392.587 85.3 393.083 85.22L395.339 84.848V85.916L393.347 86.264C392.987 86.328 392.723 86.444 392.555 86.612C392.387 86.772 392.303 86.98 392.303 87.236C392.303 87.484 392.395 87.688 392.579 87.848C392.771 88 393.015 88.076 393.311 88.076C393.679 88.076 393.999 87.996 394.271 87.836C394.551 87.676 394.767 87.464 394.919 87.2C395.071 86.928 395.147 86.628 395.147 86.3V84.632C395.147 84.312 395.027 84.052 394.787 83.852C394.555 83.644 394.243 83.54 393.851 83.54C393.491 83.54 393.175 83.636 392.903 83.828C392.639 84.012 392.443 84.252 392.315 84.548L391.187 83.984C391.307 83.664 391.503 83.384 391.775 83.144C392.047 82.896 392.363 82.704 392.723 82.568C393.091 82.432 393.479 82.364 393.887 82.364C394.399 82.364 394.851 82.46 395.243 82.652C395.643 82.844 395.951 83.112 396.167 83.456C396.391 83.792 396.503 84.184 396.503 84.632V89H395.207V87.824L395.483 87.86C395.331 88.124 395.135 88.352 394.895 88.544C394.663 88.736 394.395 88.884 394.091 88.988C393.795 89.092 393.463 89.144 393.095 89.144ZM400.78 89.072C400.1 89.072 399.572 88.88 399.196 88.496C398.82 88.112 398.632 87.572 398.632 86.876V83.732H397.492V82.508H397.672C397.976 82.508 398.212 82.42 398.38 82.244C398.548 82.068 398.632 81.828 398.632 81.524V81.02H399.988V82.508H401.464V83.732H399.988V86.816C399.988 87.04 400.024 87.232 400.096 87.392C400.168 87.544 400.284 87.664 400.444 87.752C400.604 87.832 400.812 87.872 401.068 87.872C401.132 87.872 401.204 87.868 401.284 87.86C401.364 87.852 401.44 87.844 401.512 87.836V89C401.4 89.016 401.276 89.032 401.14 89.048C401.004 89.064 400.884 89.072 400.78 89.072ZM402.835 89V82.508H404.191V89H402.835ZM402.835 81.62V80.06H404.191V81.62H402.835ZM408.824 89.144C408.176 89.144 407.6 88.996 407.096 88.7C406.6 88.396 406.212 87.988 405.932 87.476C405.652 86.956 405.512 86.376 405.512 85.736C405.512 85.08 405.652 84.5 405.932 83.996C406.22 83.492 406.604 83.096 407.084 82.808C407.564 82.512 408.108 82.364 408.716 82.364C409.204 82.364 409.64 82.448 410.024 82.616C410.408 82.784 410.732 83.016 410.996 83.312C411.26 83.6 411.46 83.932 411.596 84.308C411.74 84.684 411.812 85.084 411.812 85.508C411.812 85.612 411.808 85.72 411.8 85.832C411.792 85.944 411.776 86.048 411.752 86.144H406.58V85.064H410.984L410.336 85.556C410.416 85.164 410.388 84.816 410.252 84.512C410.124 84.2 409.924 83.956 409.652 83.78C409.388 83.596 409.076 83.504 408.716 83.504C408.356 83.504 408.036 83.596 407.756 83.78C407.476 83.956 407.26 84.212 407.108 84.548C406.956 84.876 406.896 85.276 406.928 85.748C406.888 86.188 406.948 86.572 407.108 86.9C407.276 87.228 407.508 87.484 407.804 87.668C408.108 87.852 408.452 87.944 408.836 87.944C409.228 87.944 409.56 87.856 409.832 87.68C410.112 87.504 410.332 87.276 410.492 86.996L411.596 87.536C411.468 87.84 411.268 88.116 410.996 88.364C410.732 88.604 410.412 88.796 410.036 88.94C409.668 89.076 409.264 89.144 408.824 89.144Z" fill="#676868"/>
</svg>
