<svg width="70" height="54" viewBox="0 0 70 54" fill="none" xmlns="http://www.w3.org/2000/svg">
<path id="Vector" d="M24.3702 35.5924C28.1835 31.7004 31.8241 27.9236 35.5282 24.2133C42.9457 16.7837 50.3874 9.38444 57.8352 1.98817C60.5217 -0.680176 63.4747 -0.652917 66.2006 2.01543C66.8124 2.61513 67.4273 3.21483 68.0209 3.8327C70.5227 6.42836 70.5106 9.41776 67.9452 11.9771C56.763 23.1351 45.5686 34.281 34.3803 45.4299C31.9846 47.8165 29.6009 50.2153 27.19 52.5869C25.291 54.4556 23.3556 54.4738 21.4929 52.6202C14.978 46.1447 8.47222 39.6631 1.98459 33.1633C-0.511122 30.6646 -0.49295 27.6358 1.95733 25.1341C2.66303 24.4132 3.37479 23.6984 4.11079 23.0079C6.58529 20.6908 9.63224 20.7272 12.0431 23.1411C16.0684 27.1785 20.0694 31.2431 24.3702 35.5894V35.5924Z" fill="#035E46"/>
</svg>
