<svg width="90" height="90" viewBox="0 0 90 90" fill="none" xmlns="http://www.w3.org/2000/svg">
<g id="Property 1=Circulairiteits icoon" clip-path="url(#clip0_2300_35079)">
<path id="Vector" d="M45.5411 0C50.2792 2.89326 55.0212 5.78275 59.7593 8.67602C60.0192 8.83424 60.2792 8.98493 60.5313 9.15069C62.2879 10.2997 62.3272 12.2285 60.547 13.3286C55.8444 16.2369 51.122 19.1189 46.3879 21.9782C44.4541 23.1461 42.8353 22.3286 42.2997 19.9891C26.8054 20.8481 13.8909 34.738 15.7223 50.8393C15.3836 50.6999 15.0882 50.5869 14.7967 50.455C12.4139 49.3926 10.0429 48.3039 7.64824 47.2754C6.14371 46.6275 4.64706 46.7857 3.26856 47.6296C2.21697 48.2738 1.21657 48.9933 0.0350052 49.7807C-0.386421 37.9816 3.33946 27.6781 11.5317 18.9833C19.716 10.2884 29.8775 5.31561 42.3469 4.90121C42.5557 3.11553 41.7207 0.930515 44.2532 0C44.6825 0 45.1118 0 45.5411 0Z" fill="#035E46"/>
<path id="Vector_2" d="M7.41663 71.0317C7.137 71.1861 6.90068 71.3218 6.66043 71.4461C4.78568 72.4067 2.88335 71.3745 2.87548 69.3402C2.86366 66.5863 2.92668 63.8362 2.96606 61.0823C3.00151 58.5055 3.05271 55.9287 3.09603 53.3519C3.13542 51.0727 4.87626 50.0292 7.03065 51.0162C11.9657 53.2803 16.8889 55.567 21.8199 57.8312C22.7967 58.2795 23.5017 58.9199 23.5608 60.0087C23.6238 61.0936 23.0251 61.8282 22.0799 62.3519C21.6348 62.6005 21.1976 62.8718 20.6108 63.2221C26.2311 69.8563 33.0882 74.3619 42.072 75.2058C51.1465 76.0572 58.5076 72.2485 65.2622 66.7144C65.3843 67.0873 65.4789 67.3737 65.5655 67.6637C66.3414 70.2782 67.1685 72.8814 67.8735 75.5147C68.4919 77.8278 69.5277 79.7906 72.198 80.8529C61.7924 88.6813 50.1461 91.2694 37.4127 89.4385C24.6084 87.5964 14.5021 81.516 7.42057 71.0279L7.41663 71.0317Z" fill="#035E46"/>
<path id="Vector_3" d="M54.4707 21.4884C57.2553 19.7856 59.898 18.1506 62.5605 16.5495C64.2935 15.506 65.3805 14.0518 65.6798 12.1155C65.7822 11.4637 65.6956 10.7894 65.6956 10.0435C75.0457 15.2875 82.1076 22.4453 85.924 32.2251C89.7011 41.907 89.8587 51.7245 86.4833 61.655C87.0426 61.8321 87.5861 61.9941 88.1217 62.1787C90.1856 62.8907 90.6582 64.9514 89.004 66.3302C84.7543 69.8677 80.477 73.375 76.1761 76.8559C74.5101 78.2008 72.5841 77.5981 71.9815 75.5826C70.4534 70.4968 68.941 65.4072 67.4561 60.3101C66.7945 58.0422 68.3974 56.5504 70.7763 57.1607C70.9811 57.2134 71.182 57.2699 71.3789 57.3227C76.9599 44.1561 70.4928 27.6818 54.4746 21.5035L54.4707 21.4884Z" fill="#035E46"/>
</g>
<defs>
<clipPath id="clip0_2300_35079">
<rect width="90" height="90" fill="white"/>
</clipPath>
</defs>
</svg>
