<svg width="90" height="90" viewBox="0 0 90 90" fill="none" xmlns="http://www.w3.org/2000/svg">
<g id="Property 1=Voorschriften">
<path id="Vector" d="M68.2217 11.4074C67.1535 11.4074 66.0852 11.4074 65.0551 11.4074C65.0551 11.2166 64.9788 11.1403 64.9788 11.064C64.788 7.5159 62.8805 5.68461 59.3323 5.68461C57.3103 5.68461 55.2883 5.68461 53.3044 5.68461C53.2281 5.53201 53.1899 5.41755 53.1136 5.30309C51.8164 2.02204 49.0695 0 45.7503 0C42.4311 0 39.646 1.90759 38.3489 5.15049C38.1581 5.60831 37.9292 5.72276 37.5095 5.72276C35.4875 5.72276 33.4655 5.72276 31.4434 5.72276C29.0398 5.72276 27.056 7.32514 26.56 9.6524C26.4455 10.1865 26.4455 10.7588 26.3692 11.4455C25.301 11.4455 24.3472 11.4455 23.3552 11.4455C18.3192 11.4455 15 14.7266 15 19.7245C15 40.4027 15 61.0428 15 81.6829C15 82.2933 15 82.9419 15.1145 83.5524C15.8393 87.3675 19.0059 89.9619 22.8974 90C28.9254 90 34.9152 90 40.9432 90C50.0996 90 59.256 90 68.4506 90C72.6092 90 75.8902 87.1386 76.348 83.0182L76.4625 19.5337C76.4625 14.841 73.0288 11.4837 68.298 11.4837L68.2217 11.4074ZM28.315 28.5757C28.582 28.5757 28.8491 28.5757 29.1162 28.5757C40.142 28.5757 51.1679 28.5757 62.1937 28.5757C62.4226 28.5757 62.6515 28.5757 62.9186 28.5757C64.0632 28.652 64.9407 29.5676 64.9407 30.674C64.9407 31.8186 64.0632 32.7724 62.8805 32.8487C62.0793 32.8868 61.2781 32.8487 60.4769 32.8487C55.5172 32.8487 50.5574 32.8487 45.5977 32.8487C40.0276 32.8487 34.4192 32.8487 28.8491 32.8487C27.4375 32.8487 26.5218 32.0856 26.4455 30.8648C26.3692 29.6821 27.1704 28.7283 28.315 28.5757ZM64.9788 42.1577C64.9788 43.3786 64.025 44.2942 62.6897 44.2942C57.8063 44.2942 52.9228 44.2942 48.0776 44.2942C47.2764 44.2942 46.4752 44.2942 45.674 44.2942C40.1039 44.2942 34.4955 44.2942 28.9254 44.2942C27.5138 44.2942 26.6363 43.6075 26.4837 42.4629C26.3311 41.2039 27.1704 40.1738 28.4294 40.0212C28.7346 40.0212 29.0398 40.0212 29.3069 40.0212C40.2565 40.0212 51.1679 40.0212 62.1174 40.0212C62.3082 40.0212 62.5371 40.0212 62.7278 40.0212C64.025 40.0593 64.9788 40.975 64.9788 42.1577ZM28.2387 51.4667C28.4294 51.4667 28.6583 51.4667 28.8491 51.4667C38.0437 51.4667 51.0153 51.4667 60.2098 51.4667C61.6214 51.4667 62.4989 52.1535 62.6134 53.3362C62.766 54.7096 61.8122 55.7397 60.3243 55.7397C55.6698 55.7397 47.2382 55.7397 42.5837 55.7397C38.0055 55.7397 33.4273 55.7397 28.8491 55.7397C27.8571 55.7397 27.056 55.3964 26.5981 54.4807C26.0259 53.2217 26.827 51.7338 28.2005 51.5049L28.2387 51.4667ZM60.2098 78.5545C57.5392 78.5545 39.6079 78.5545 36.8991 78.5545C34.1903 78.5545 31.5579 78.5545 28.8491 78.5545C27.3612 78.5545 26.4074 77.7151 26.4074 76.418C26.4074 75.1208 27.323 74.2433 28.8109 74.2433C34.1903 74.2433 54.8304 74.2433 60.2098 74.2433C61.6978 74.2433 62.6515 75.0827 62.6897 76.3798C62.6897 77.677 61.6978 78.5545 60.1717 78.5545H60.2098ZM62.766 67.1471C59.6376 67.1471 41.2484 67.1471 38.12 67.1471C34.9915 67.1471 31.8249 67.1471 28.6583 67.1471C27.7427 67.1471 27.0178 66.7656 26.6363 65.9644C26.2548 65.2014 26.2548 64.362 26.827 63.7897C27.2849 63.3319 28.0479 62.9123 28.6583 62.9123C34.9534 62.8359 56.471 62.8741 62.766 62.9123C64.1013 62.9123 64.9788 63.8279 64.9788 65.0869C64.9788 66.3078 64.0632 67.1852 62.766 67.1852V67.1471Z" fill="#035E46"/>
</g>
</svg>
