<svg width="90" height="90" viewBox="0 0 90 90" fill="none" xmlns="http://www.w3.org/2000/svg">
<g id="Property 1=Digitaal passpoort" clip-path="url(#clip0_2300_35282)">
<path id="Vector" d="M70.3388 0.118081C71.7684 0.118081 73.0999 0.100494 74.4314 0.120593C79.4989 0.203501 83.1895 3.83385 83.197 8.89624C83.2222 33.0023 83.2146 57.1083 83.2021 81.2143C83.2021 84.1286 82.1192 86.6284 79.6747 88.2715C78.4663 89.083 76.9488 89.4397 75.5695 90.0025H13.6401C12.7205 89.7161 11.7407 89.5453 10.8915 89.1182C7.53253 87.4324 6 84.611 6 80.9128C6 67.9415 6 54.9678 6 41.9965C6 31.0627 6 20.129 6 9.19772C6 5.61762 7.43455 2.81132 10.6629 1.17076C11.8839 0.550205 13.3336 0.374341 14.6802 0L70.3388 0.118081ZM44.5973 60.0427C57.5635 60.0553 68.1983 49.4255 68.1707 36.4794C68.143 23.5257 57.6339 13.014 44.6576 12.9612C31.6863 12.9085 21.0766 23.4654 21.0339 36.4693C20.9912 49.4054 31.6109 60.0302 44.5973 60.0452V60.0427ZM43.517 68.5847C50.0164 68.5847 56.5184 68.5847 63.0178 68.5847C63.4198 68.5847 63.8268 68.5897 64.2213 68.532C65.4423 68.3511 66.1859 67.2733 65.9573 66.0598C65.7337 64.889 64.8845 64.3238 63.3042 64.3238C50.137 64.3238 36.9673 64.3212 23.8 64.3288C23.3704 64.3288 22.9232 64.3615 22.5137 64.482C21.5464 64.7634 20.9987 65.6176 21.0641 66.6226C21.1294 67.5999 21.8253 68.3787 22.8152 68.5244C23.2423 68.5872 23.6844 68.5847 24.1191 68.5847C30.5859 68.5872 37.0527 68.5847 43.5195 68.5847H43.517ZM43.5371 72.8934C41.0925 72.8934 38.648 72.8909 36.2035 72.8934C34.6634 72.8959 33.1208 72.8658 31.5833 72.9386C30.4351 72.9914 29.6538 73.8682 29.6186 74.9636C29.5835 75.9911 30.2919 76.873 31.3748 77.0865C31.7642 77.1644 32.1737 77.1569 32.5731 77.1569C39.8062 77.1619 47.0393 77.1594 54.2723 77.1569C54.6743 77.1569 55.0788 77.177 55.4757 77.1267C56.3325 77.0162 56.9806 76.5941 57.2972 75.7575C57.865 74.2576 56.8048 72.911 54.9884 72.9009C51.1721 72.8783 47.3533 72.8934 43.5371 72.8934Z" fill="#035E46"/>
<path id="Vector_2" d="M50.9082 34.3212H38.2334C38.4168 32.5802 38.55 30.8994 38.7811 29.2337C39.2082 26.1486 39.9443 23.1388 41.4165 20.3676C41.8663 19.5235 42.4315 18.707 43.0873 18.0161C44.0822 16.9659 45.1851 16.9408 46.1272 18.0412C46.9613 19.016 47.6899 20.134 48.2225 21.2972C50.0967 25.3923 50.6972 29.7689 50.9057 34.3212H50.9082Z" fill="#035E46"/>
<path id="Vector_3" d="M38.3037 38.6904H50.9459C50.5389 44.0995 49.961 49.388 46.9236 54.051C46.8507 54.164 46.7729 54.272 46.6899 54.3776C45.3408 56.1613 43.7681 56.2442 42.5697 54.3776C41.5698 52.8199 40.7231 51.1215 40.0975 49.383C38.869 45.9662 38.4394 42.3811 38.3037 38.6904Z" fill="#035E46"/>
<path id="Vector_4" d="M25.5283 34.291C26.6438 26.9976 30.5028 21.8498 37.4419 18.6265C35.0451 23.7265 34.2814 28.9271 33.9246 34.291H25.5283Z" fill="#035E46"/>
<path id="Vector_5" d="M63.6232 34.3214H55.2897C54.9179 28.9902 54.1943 23.767 51.8604 18.8579C57.0433 20.5261 62.8343 26.5507 63.6232 34.3214Z" fill="#035E46"/>
<path id="Vector_6" d="M25.5205 38.6904H33.9193C34.3012 44.0342 35.0147 49.2624 37.4617 54.365C30.505 51.1743 26.6611 46.0039 25.5205 38.6904Z" fill="#035E46"/>
<path id="Vector_7" d="M63.686 38.7002C62.5279 46.0438 58.6664 51.1816 51.7549 54.3723C54.1718 49.2747 54.9204 44.054 55.2797 38.7002H63.6835H63.686Z" fill="#035E46"/>
</g>
<defs>
<clipPath id="clip0_2300_35282">
<rect width="90" height="90" fill="white"/>
</clipPath>
</defs>
</svg>
