<svg width="501" height="501" viewBox="0 0 501 501" fill="none" xmlns="http://www.w3.org/2000/svg">
<path d="M501 250.5C501 388.847 388.847 501 250.5 501C112.153 501 0 388.847 0 250.5C0 112.153 112.153 0 250.5 0C388.847 0 501 112.153 501 250.5ZM47.9969 250.5C47.9969 362.339 138.661 453.003 250.5 453.003C362.339 453.003 453.003 362.339 453.003 250.5C453.003 138.661 362.339 47.9969 250.5 47.9969C138.661 47.9969 47.9969 138.661 47.9969 250.5Z" fill="#F8FBF8"/>
<g opacity="0.2">
<mask id="path-2-inside-1_4178_1395" fill="white">
<path d="M453 250.5C453 362.338 362.338 453 250.5 453C138.662 453 48 362.338 48 250.5C48 138.662 138.662 48 250.5 48C362.338 48 453 138.662 453 250.5ZM85.1246 250.5C85.1246 341.834 159.166 415.875 250.5 415.875C341.834 415.875 415.875 341.834 415.875 250.5C415.875 159.166 341.834 85.1246 250.5 85.1246C159.166 85.1246 85.1246 159.166 85.1246 250.5Z"/>
</mask>
<path d="M453 250.5C453 362.338 362.338 453 250.5 453C138.662 453 48 362.338 48 250.5C48 138.662 138.662 48 250.5 48C362.338 48 453 138.662 453 250.5ZM85.1246 250.5C85.1246 341.834 159.166 415.875 250.5 415.875C341.834 415.875 415.875 341.834 415.875 250.5C415.875 159.166 341.834 85.1246 250.5 85.1246C159.166 85.1246 85.1246 159.166 85.1246 250.5Z" stroke="#D1F9EB" stroke-width="98" mask="url(#path-2-inside-1_4178_1395)"/>
</g>
<g opacity="0.2">
<mask id="path-3-inside-2_4178_1395" fill="white">
<path d="M355 250.5C355 308.214 308.214 355 250.5 355C192.786 355 146 308.214 146 250.5C146 192.786 192.786 146 250.5 146C308.214 146 355 192.786 355 250.5ZM175.691 250.5C175.691 291.816 209.184 325.309 250.5 325.309C291.816 325.309 325.309 291.816 325.309 250.5C325.309 209.184 291.816 175.691 250.5 175.691C209.184 175.691 175.691 209.184 175.691 250.5Z"/>
</mask>
<path d="M355 250.5C355 308.214 308.214 355 250.5 355C192.786 355 146 308.214 146 250.5C146 192.786 192.786 146 250.5 146C308.214 146 355 192.786 355 250.5ZM175.691 250.5C175.691 291.816 209.184 325.309 250.5 325.309C291.816 325.309 325.309 291.816 325.309 250.5C325.309 209.184 291.816 175.691 250.5 175.691C209.184 175.691 175.691 209.184 175.691 250.5Z" stroke="#25C38B" stroke-width="98" mask="url(#path-3-inside-2_4178_1395)"/>
</g>
<g opacity="0.2">
<mask id="path-4-inside-3_4178_1395" fill="white">
<path d="M404 250.5C404 335.276 335.276 404 250.5 404C165.724 404 97 335.276 97 250.5C97 165.724 165.724 97 250.5 97C335.276 97 404 165.724 404 250.5ZM134.224 250.5C134.224 314.717 186.283 366.776 250.5 366.776C314.717 366.776 366.776 314.717 366.776 250.5C366.776 186.283 314.717 134.224 250.5 134.224C186.283 134.224 134.224 186.283 134.224 250.5Z"/>
</mask>
<path d="M404 250.5C404 335.276 335.276 404 250.5 404C165.724 404 97 335.276 97 250.5C97 165.724 165.724 97 250.5 97C335.276 97 404 165.724 404 250.5ZM134.224 250.5C134.224 314.717 186.283 366.776 250.5 366.776C314.717 366.776 366.776 314.717 366.776 250.5C366.776 186.283 314.717 134.224 250.5 134.224C186.283 134.224 134.224 186.283 134.224 250.5Z" stroke="#84E9C5" stroke-width="98" mask="url(#path-4-inside-3_4178_1395)"/>
</g>
<path d="M355 250.5C355 308.214 308.214 355 250.5 355C192.786 355 146 308.214 146 250.5C146 192.786 192.786 146 250.5 146C308.214 146 355 192.786 355 250.5ZM185.752 250.5C185.752 286.259 214.741 315.248 250.5 315.248C286.259 315.248 315.248 286.259 315.248 250.5C315.248 214.741 286.259 185.752 250.5 185.752C214.741 185.752 185.752 214.741 185.752 250.5Z" fill="#25C38B"/>
<path d="M453 250.5C453 362.338 362.338 453 250.5 453C138.662 453 48 362.338 48 250.5C48 138.662 138.662 48 250.5 48C362.338 48 453 138.662 453 250.5ZM88.0545 250.5C88.0545 340.216 160.784 412.945 250.5 412.945C340.216 412.945 412.945 340.216 412.945 250.5C412.945 160.784 340.216 88.0545 250.5 88.0545C160.784 88.0545 88.0545 160.784 88.0545 250.5Z" fill="#D1F9EB"/>
<path d="M404 250.5C404 335.276 335.276 404 250.5 404C165.724 404 97 335.276 97 250.5C97 165.724 165.724 97 250.5 97C335.276 97 404 165.724 404 250.5ZM138.414 250.5C138.414 312.403 188.597 362.586 250.5 362.586C312.403 362.586 362.586 312.403 362.586 250.5C362.586 188.597 312.403 138.414 250.5 138.414C188.597 138.414 138.414 188.597 138.414 250.5Z" fill="#84E9C5"/>
<path d="M260.961 341.961C261.807 348.715 257.009 354.952 250.203 354.998C243.397 355.043 238.516 348.871 239.271 342.107L242.375 314.315C242.79 310.597 246.146 307.962 249.887 307.937C253.627 307.912 257.019 310.501 257.484 314.213L260.961 341.961Z" fill="#07B071"/>
<path d="M392.953 257.438C398.954 257.73 403.621 262.84 402.905 268.805C402.188 274.77 396.444 278.629 390.544 277.492L363.188 272.219C359.069 271.425 356.402 267.444 356.902 263.28C357.403 259.115 360.936 255.878 365.126 256.083L392.953 257.438Z" fill="#25C38B"/>
<path d="M415.457 150.641C420.026 147.875 425.996 149.326 428.541 154.023C431.086 158.72 429.042 164.513 424.23 166.831L399.088 178.939C395.347 180.741 390.87 179.159 388.892 175.508C386.913 171.857 388.033 167.243 391.585 165.092L415.457 150.641Z" fill="#84E9C5"/>
<path d="M38.5593 179.159L30.8085 177.027L30.1489 179.425L28.8773 179.075L30.5762 172.898L31.8479 173.248L31.1982 175.61L38.9491 177.742L38.5593 179.159Z" fill="#053237"/>
<path d="M41.4705 169.359L32.6307 166.289L34.6538 160.463L35.8997 160.896L34.3628 165.321L36.902 166.203L38.3564 162.015L39.6023 162.447L38.1479 166.636L40.7108 167.526L42.2477 163.1L43.4935 163.533L41.4705 169.359Z" fill="#053237"/>
<path d="M45.9039 157.274L37.3044 153.585L38.6465 150.457C38.8941 149.88 39.2197 149.418 39.6234 149.072C40.0193 148.722 40.474 148.512 40.9875 148.441C41.4967 148.358 42.0321 148.438 42.5938 148.679C43.1864 148.933 43.6299 149.301 43.9244 149.783C44.2222 150.257 44.36 150.785 44.3377 151.368L48.6524 150.868L47.9888 152.415L43.3311 152.918L44.2318 152.252L43.2563 154.526L46.4883 155.912L45.9039 157.274ZM42.0442 154.006L42.8118 152.216C42.9472 151.901 43.0028 151.601 42.9788 151.318C42.9547 151.034 42.8613 150.784 42.6987 150.569C42.5316 150.342 42.2981 150.165 41.9979 150.036C41.6978 149.907 41.412 149.862 41.1404 149.9C40.8644 149.928 40.6192 150.032 40.4047 150.213C40.1825 150.391 40.0037 150.638 39.8684 150.954L39.1008 152.743L42.0442 154.006Z" fill="#053237"/>
<path d="M53.3493 141.591C53.029 142.208 52.6134 142.691 52.1025 143.039C51.5954 143.379 51.0438 143.569 50.4477 143.609C49.8555 143.641 49.2695 143.506 48.6899 143.205L43.2613 140.386L43.9443 139.071L49.3172 141.861C49.6813 142.05 50.0451 142.14 50.4086 142.131C50.7758 142.114 51.1089 142.008 51.4078 141.814C51.7105 141.613 51.9564 141.33 52.1455 140.966C52.3384 140.595 52.4282 140.231 52.415 139.875C52.4056 139.511 52.3002 139.178 52.0988 138.876C51.9013 138.566 51.6205 138.316 51.2564 138.127L45.8835 135.337L46.5607 134.033L51.9894 136.852C52.569 137.153 53.016 137.555 53.3304 138.057C53.6448 138.56 53.8066 139.121 53.8159 139.739C53.829 140.35 53.6735 140.967 53.3493 141.591Z" fill="#053237"/>
<path d="M60.6383 128.801C60.2881 129.362 59.8592 129.82 59.3518 130.174C58.8487 130.522 58.303 130.764 57.7146 130.9C57.1236 131.024 56.5174 131.031 55.896 130.92C55.2746 130.808 54.6655 130.566 54.0688 130.194C53.4791 129.826 52.9955 129.391 52.618 128.889C52.2377 128.375 51.9773 127.828 51.8366 127.246C51.6889 126.661 51.6641 126.068 51.7622 125.468C51.8532 124.863 52.076 124.277 52.4306 123.708C52.7809 123.147 53.1893 122.706 53.656 122.386C54.127 122.058 54.6142 121.839 55.1174 121.728C55.6135 121.613 56.0848 121.601 56.5313 121.693L56.3765 123.151C55.8412 123.044 55.3247 123.096 54.8269 123.309C54.322 123.517 53.9033 123.887 53.5708 124.42C53.2428 124.946 53.0767 125.489 53.0727 126.049C53.0686 126.609 53.2159 127.14 53.5145 127.642C53.8175 128.137 54.2638 128.569 54.8534 128.937C55.443 129.305 56.0326 129.514 56.622 129.566C57.2087 129.607 57.7527 129.502 58.2541 129.252C58.7483 128.998 59.1594 128.608 59.4875 128.083C59.7623 127.642 59.924 127.185 59.9725 126.712C60.0183 126.228 59.9465 125.773 59.7572 125.349C59.5607 124.92 59.2423 124.569 58.8018 124.294L58.2584 123.955L59.1223 123.709L57.2471 126.714L56.1815 126.049L58.4823 122.362L59.2282 122.828C59.8107 123.191 60.2708 123.617 60.6084 124.104C60.9389 124.586 61.1576 125.098 61.2645 125.638C61.3714 126.179 61.3691 126.72 61.2577 127.263C61.1462 127.805 60.9397 128.318 60.6383 128.801Z" fill="#053237"/>
<path d="M66.8436 119.153L59.3205 113.589L60.2018 112.397L64.2815 115.415L63.9288 115.638L62.4875 109.307L63.5854 107.823L64.8839 113.439L64.0804 112.751L71.1983 113.266L70.16 114.67L65.0882 114.324L65.5539 116.356L67.725 117.962L66.8436 119.153Z" fill="#053237"/>
<path d="M78.3608 104.82C77.9144 105.331 77.4068 105.727 76.8382 106.009C76.2751 106.284 75.6836 106.445 75.0636 106.493C74.4492 106.534 73.8387 106.456 73.2321 106.259C72.631 106.056 72.0688 105.726 71.5456 105.269C71.0223 104.811 70.62 104.298 70.3386 103.729C70.0563 103.149 69.8978 102.554 69.8628 101.945C69.8216 101.331 69.9057 100.726 70.115 100.13C70.318 99.5293 70.6427 98.9735 71.0891 98.4628C71.5411 97.9459 72.0486 97.5499 72.6117 97.2747C73.1741 96.9878 73.7624 96.8237 74.3768 96.7825C74.9968 96.735 75.6073 96.8127 76.2084 97.0157C76.8095 97.2187 77.3717 97.549 77.8949 98.0064C78.4181 98.4639 78.8177 98.9801 79.0937 99.555C79.3751 100.124 79.5364 100.715 79.5776 101.33C79.6188 101.944 79.5379 102.552 79.3349 103.153C79.1319 103.754 78.8072 104.31 78.3608 104.82ZM77.3395 103.928C77.6592 103.562 77.8851 103.17 78.0173 102.752C78.155 102.327 78.2064 101.899 78.1716 101.468C78.1305 101.032 78.0074 100.613 77.8024 100.211C77.5912 99.8041 77.2996 99.438 76.9276 99.1128C76.5557 98.7876 76.157 98.5502 75.7316 98.4007C75.3061 98.2512 74.8744 98.1852 74.4365 98.2027C73.9985 98.2203 73.5783 98.3256 73.1758 98.5187C72.7789 98.7056 72.4206 98.9818 72.1009 99.3475C71.7813 99.7131 71.5526 100.108 71.4149 100.533C71.2827 100.951 71.2372 101.379 71.2783 101.815C71.3195 102.251 71.4425 102.67 71.6475 103.072C71.858 103.467 72.1492 103.828 72.5211 104.153C72.8931 104.478 73.2921 104.721 73.7184 104.883C74.1438 105.032 74.5755 105.098 75.0135 105.081C75.4451 105.058 75.8622 104.949 76.2646 104.756C76.6671 104.563 77.0254 104.287 77.3395 103.928Z" fill="#053237"/>
<path d="M86.5985 95.6831L80.0792 88.9703L82.521 86.5989C82.9715 86.1613 83.4496 85.8604 83.9554 85.6961C84.4613 85.5199 84.965 85.4976 85.4664 85.6293C85.962 85.755 86.4227 86.0371 86.8486 86.4756C87.2686 86.9081 87.5312 87.3768 87.6363 87.8817C87.7475 88.3807 87.7135 88.8806 87.5345 89.3813C87.3554 89.882 87.0406 90.3512 86.5901 90.7887L85.2115 92.1276L87.6618 94.6505L86.5985 95.6831ZM84.2927 91.1815L85.6983 89.8164C85.9386 89.583 86.1022 89.3308 86.189 89.0596C86.2759 88.7885 86.2887 88.5193 86.2275 88.2519C86.1604 87.9785 86.0131 87.7247 85.7856 87.4904C85.5581 87.2562 85.3116 87.1045 85.0461 87.0355C84.7748 86.9605 84.5053 86.9654 84.2376 87.0503C83.964 87.1292 83.7071 87.2854 83.4668 87.5187L82.0612 88.8838L84.2927 91.1815Z" fill="#053237"/>
<path d="M96.7188 86.2037L90.7113 79.0292L93.3211 76.8439C93.8026 76.4407 94.3016 76.1758 94.8181 76.0491C95.3356 75.9106 95.8395 75.9255 96.3299 76.0938C96.8149 76.2556 97.2536 76.5708 97.646 77.0395C98.0331 77.5018 98.2605 77.9885 98.3281 78.4998C98.4022 79.0056 98.3316 79.5017 98.1162 79.9879C97.9007 80.474 97.5523 80.9187 97.0708 81.3219L95.5973 82.5557L97.8552 85.2521L96.7188 86.2037ZM94.7506 81.5445L96.2529 80.2866C96.5098 80.0715 96.6915 79.832 96.798 79.568C96.9046 79.304 96.9372 79.0364 96.8959 78.7653C96.8491 78.4877 96.7209 78.2237 96.5112 77.9733C96.3016 77.723 96.0669 77.5536 95.8072 77.4652C95.5422 77.3704 95.2731 77.3555 94.9998 77.4205C94.7212 77.479 94.4535 77.6158 94.1967 77.8309L92.6944 79.0888L94.7506 81.5445Z" fill="#053237"/>
<path d="M107.519 77.4991L102.036 69.9162L107.034 66.3026L107.807 67.3713L104.01 70.1165L105.585 72.2947L109.178 69.6967L109.951 70.7654L106.358 73.3634L107.947 75.5619L111.744 72.8167L112.517 73.8855L107.519 77.4991Z" fill="#053237"/>
<path d="M118.096 70.1485L113.123 62.2215L114.379 61.4339L118.65 68.2437L122.077 66.0944L122.777 67.2116L118.096 70.1485Z" fill="#053237"/>
<path d="M128.296 64.0214L123.768 55.8319L125.065 55.1148L129.593 63.3043L128.296 64.0214Z" fill="#053237"/>
<path d="M136.131 59.8276L132.13 51.3687L133.209 50.8584L141.054 55.1648L140.58 55.486L137.444 48.8551L138.772 48.2267L142.774 56.6856L141.695 57.1959L133.862 52.828L134.308 52.5062L137.471 59.1938L136.131 59.8276Z" fill="#053237"/>
<path d="M153.822 52.3048C153.203 52.538 152.584 52.6414 151.966 52.6148C151.355 52.5854 150.775 52.4461 150.224 52.197C149.679 51.9371 149.193 51.5742 148.767 51.1083C148.341 50.6425 148.004 50.0804 147.756 49.4222C147.511 48.7718 147.391 48.1325 147.396 47.5042C147.406 46.8652 147.532 46.2721 147.773 45.7249C148.011 45.1698 148.352 44.6837 148.794 44.2665C149.233 43.8415 149.766 43.5109 150.393 43.2747C151.012 43.0416 151.605 42.9392 152.17 42.9678C152.744 42.9934 153.264 43.1151 153.731 43.333C154.194 43.543 154.576 43.8198 154.876 44.1634L153.867 45.2277C153.507 44.8176 153.064 44.5458 152.54 44.4123C152.012 44.271 151.455 44.3111 150.867 44.5324C150.287 44.7509 149.826 45.0814 149.482 45.5239C149.139 45.9664 148.933 46.4778 148.866 47.0581C148.806 47.6354 148.898 48.2493 149.143 48.8997C149.388 49.5501 149.729 50.0749 150.166 50.4741C150.608 50.8626 151.103 51.1098 151.653 51.2158C152.2 51.314 152.764 51.2538 153.344 51.0354C153.829 50.8524 154.235 50.5876 154.561 50.2412C154.892 49.884 155.111 49.4794 155.218 49.0274C155.322 48.5676 155.283 48.0948 155.1 47.6089L154.874 47.0095L155.709 47.339L152.395 48.5876L151.952 47.4122L156.019 45.8802L156.329 46.703C156.571 47.3456 156.678 47.9628 156.651 48.5548C156.62 49.139 156.483 49.6782 156.24 50.1725C155.997 50.6669 155.666 51.0956 155.248 51.4589C154.83 51.8221 154.355 52.1041 153.822 52.3048Z" fill="#053237"/>
<path d="M350.991 55.1987C350.357 54.9572 349.81 54.6186 349.348 54.183C348.895 53.7504 348.538 53.2516 348.279 52.6867C348.027 52.1247 347.888 51.5252 347.862 50.888C347.843 50.2538 347.958 49.612 348.206 48.9625C348.453 48.313 348.795 47.7577 349.23 47.2964C349.677 46.8302 350.179 46.4752 350.738 46.2311C351.3 45.9793 351.897 45.8481 352.528 45.8377C353.162 45.8195 353.796 45.9312 354.43 46.1726C355.072 46.4171 355.619 46.7557 356.073 47.1883C356.537 47.6161 356.895 48.111 357.147 48.6729C357.407 49.2378 357.545 49.8374 357.564 50.4716C357.582 51.1058 357.467 51.7476 357.22 52.3971C356.972 53.0465 356.627 53.6004 356.183 54.0587C355.748 54.52 355.249 54.8766 354.687 55.1284C354.125 55.3803 353.527 55.5153 352.893 55.5336C352.259 55.5518 351.625 55.4402 350.991 55.1987ZM351.474 53.931C351.928 54.104 352.374 54.1798 352.812 54.1586C353.258 54.1404 353.677 54.0401 354.069 53.858C354.464 53.6679 354.814 53.4071 355.12 53.0755C355.428 52.7361 355.671 52.3355 355.847 51.8738C356.022 51.4122 356.107 50.9559 356.099 50.505C356.092 50.0542 356.004 49.6264 355.836 49.2217C355.667 48.817 355.423 48.4595 355.102 48.1491C354.789 47.8416 354.405 47.6015 353.951 47.4285C353.498 47.2556 353.048 47.1783 352.602 47.1965C352.163 47.2177 351.747 47.3233 351.352 47.5134C350.957 47.7034 350.607 47.9642 350.301 48.2958C350.003 48.6304 349.766 49.0285 349.591 49.4902C349.415 49.9519 349.325 50.4106 349.322 50.8663C349.329 51.3172 349.417 51.7449 349.585 52.1496C349.757 52.5465 350.003 52.9001 350.324 53.2105C350.644 53.5209 351.028 53.7611 351.474 53.931Z" fill="#053237"/>
<path d="M362.399 59.7614L366.509 51.3549L367.581 51.879L369.114 60.696L368.568 60.5267L371.79 53.9369L373.11 54.5824L369 62.9889L367.928 62.4648L366.451 53.6192L366.98 53.7662L363.73 60.4124L362.399 59.7614Z" fill="#053237"/>
<path d="M377.036 67.4121L381.108 60.4815L378.964 59.2215L379.633 58.0844L385.155 61.33L384.487 62.467L382.375 61.2261L378.303 68.1566L377.036 67.4121Z" fill="#053237"/>
<path d="M387.165 73.7235L390.473 64.5994L391.754 65.507L388.772 73.323L388.455 73.0979L394.901 67.736L396.161 68.6291L393.241 76.4887L392.913 76.2564L399.308 70.8581L400.579 71.7585L393.079 77.913L391.715 76.9473L394.553 69.1829L394.912 69.437L388.518 74.6819L387.165 73.7235Z" fill="#053237"/>
<path d="M400.057 83.3867L406.035 76.1871L407.175 77.1338L401.198 84.3335L400.057 83.3867Z" fill="#053237"/>
<path d="M406.802 89.1686L413.236 82.3737L414.312 83.3927L410.823 87.0775L410.644 86.7003L417.103 86.0353L418.443 87.3048L412.712 87.9144L413.492 87.2001L412.119 94.2033L410.851 93.0029L411.808 88.0101L409.735 88.2267L407.878 90.1876L406.802 89.1686Z" fill="#053237"/>
<path d="M416.676 98.8897L423.628 92.6264L424.62 93.7276L420.85 97.1241L420.701 96.7339L427.193 96.5832L428.429 97.955L422.666 98.1081L423.501 97.4579L421.577 104.33L420.409 103.033L421.758 98.1319L419.674 98.1834L417.668 99.9909L416.676 98.8897Z" fill="#053237"/>
<path d="M425.744 109.372L433.155 103.659L436.92 108.543L435.876 109.349L433.015 105.638L430.887 107.279L433.594 110.791L432.549 111.596L429.842 108.085L427.693 109.741L430.554 113.451L429.509 114.257L425.744 109.372Z" fill="#053237"/>
<path d="M433.396 119.722L441.193 114.548L442.012 115.783L435.314 120.228L437.551 123.598L436.452 124.327L433.396 119.722Z" fill="#053237"/>
<path d="M439.763 129.765L447.854 125.064L448.599 126.345L440.508 131.046L439.763 129.765Z" fill="#053237"/>
<path d="M444.111 137.506L452.503 133.366L453.031 134.436L448.854 142.351L448.525 141.883L455.103 138.638L455.754 139.956L447.362 144.096L446.834 143.026L451.072 135.122L451.401 135.562L444.767 138.835L444.111 137.506Z" fill="#053237"/>
<path d="M451.876 155.077C451.636 154.461 451.526 153.843 451.547 153.224C451.57 152.613 451.703 152.032 451.947 151.479C452.201 150.931 452.559 150.442 453.021 150.011C453.482 149.58 454.041 149.238 454.696 148.983C455.344 148.731 455.982 148.605 456.611 148.603C457.25 148.607 457.844 148.726 458.394 148.962C458.951 149.195 459.441 149.53 459.862 149.968C460.292 150.403 460.628 150.933 460.87 151.557C461.11 152.174 461.218 152.765 461.195 153.331C461.175 153.905 461.059 154.426 460.846 154.895C460.641 155.361 460.368 155.745 460.027 156.048L458.953 155.051C459.359 154.686 459.626 154.241 459.755 153.715C459.891 153.186 459.845 152.629 459.617 152.044C459.393 151.466 459.058 151.008 458.612 150.669C458.166 150.33 457.653 150.13 457.072 150.068C456.494 150.014 455.881 150.113 455.233 150.365C454.585 150.616 454.064 150.962 453.669 151.403C453.285 151.849 453.043 152.347 452.942 152.898C452.85 153.446 452.916 154.009 453.14 154.586C453.328 155.07 453.597 155.473 453.947 155.796C454.307 156.123 454.714 156.338 455.167 156.44C455.628 156.54 456.1 156.495 456.584 156.307L457.181 156.076L456.86 156.914L455.578 153.613L456.749 153.158L458.322 157.209L457.503 157.527C456.862 157.776 456.246 157.889 455.654 157.868C455.07 157.843 454.529 157.712 454.032 157.474C453.536 157.235 453.103 156.909 452.736 156.495C452.368 156.081 452.082 155.608 451.876 155.077Z" fill="#053237"/>
<path d="M137.971 445.383C138.609 445.658 139.121 446.037 139.505 446.522C139.881 447.003 140.11 447.539 140.193 448.131C140.267 448.72 140.176 449.314 139.917 449.913L137.497 455.531L136.136 454.945L138.531 449.385C138.693 449.008 138.757 448.639 138.721 448.277C138.678 447.912 138.549 447.587 138.334 447.303C138.111 447.016 137.811 446.791 137.434 446.629C137.05 446.463 136.681 446.4 136.327 446.439C135.965 446.474 135.64 446.603 135.353 446.826C135.058 447.045 134.829 447.343 134.667 447.72L132.272 453.281L130.922 452.699L133.342 447.081C133.6 446.481 133.969 446.006 134.448 445.657C134.927 445.307 135.474 445.105 136.09 445.051C136.698 444.994 137.325 445.104 137.971 445.383Z" fill="#053237"/>
<path d="M128.54 441.107L124.207 449.401L122.894 448.714L127.226 440.42L128.54 441.107Z" fill="#053237"/>
<path d="M119.344 435.97L115.145 442.825L117.266 444.124L116.577 445.249L111.114 441.903L111.803 440.779L113.892 442.058L118.09 435.203L119.344 435.97Z" fill="#053237"/>
<path d="M108.78 428.968L105.909 438.471L104.623 437.527L107.17 429.483L107.423 429.669L100.515 434.506L99.2297 433.561L107.444 427.986L108.78 428.968Z" fill="#053237"/>
<path d="M96.5344 418.883C97.0377 419.337 97.4255 419.851 97.6977 420.424C97.9637 420.992 98.1154 421.586 98.1528 422.207C98.1841 422.821 98.0965 423.431 97.89 424.034C97.6772 424.632 97.338 425.189 96.8721 425.704C96.4062 426.22 95.8867 426.614 95.3136 426.886C94.7286 427.159 94.1315 427.308 93.5221 427.333C92.9071 427.364 92.3035 427.27 91.7114 427.051C91.1137 426.839 90.5631 426.505 90.0598 426.05C89.5503 425.59 89.1625 425.076 88.8965 424.509C88.6187 423.942 88.4642 423.351 88.433 422.736C88.3955 422.115 88.4831 421.506 88.6958 420.908C88.9085 420.311 89.2478 419.754 89.7137 419.238C90.1796 418.722 90.7022 418.331 91.2815 418.065C91.8546 417.792 92.4487 417.641 93.0637 417.609C93.6787 417.578 94.2851 417.669 94.8828 417.882C95.4806 418.094 96.0311 418.428 96.5344 418.883ZM95.6251 419.889C95.2647 419.564 94.8764 419.332 94.4603 419.193C94.0379 419.048 93.6111 418.99 93.1797 419.018C92.7427 419.052 92.3217 419.168 91.9168 419.366C91.5063 419.571 91.1354 419.857 90.8043 420.223C90.4731 420.59 90.2293 420.985 90.0729 421.408C89.9166 421.83 89.8436 422.261 89.854 422.699C89.8644 423.137 89.9629 423.559 90.1495 423.965C90.3299 424.365 90.6003 424.727 90.9607 425.053C91.3211 425.379 91.7125 425.614 92.1348 425.758C92.551 425.897 92.9775 425.95 93.4145 425.916C93.8515 425.881 94.2725 425.765 94.6774 425.567C95.0761 425.363 95.4411 425.077 95.7722 424.711C96.1034 424.344 96.3531 423.949 96.5213 423.526C96.6776 423.103 96.7506 422.672 96.7402 422.234C96.7242 421.802 96.6229 421.383 96.4363 420.978C96.2497 420.572 95.9793 420.209 95.6251 419.889Z" fill="#053237"/>
<path d="M87.6145 410.454L80.6964 416.755L76.5437 412.196L77.5187 411.308L80.6735 414.771L82.6607 412.961L79.6751 409.683L80.6501 408.795L83.6357 412.073L85.6415 410.246L82.4867 406.783L83.4618 405.895L87.6145 410.454Z" fill="#053237"/>
<path d="M79.1728 400.777L71.7296 406.448L69.6667 403.741C69.286 403.241 69.0444 402.731 68.9416 402.209C68.8321 401.692 68.8727 401.193 69.0634 400.711C69.2422 400.227 69.5748 399.8 70.061 399.43C70.5739 399.039 71.1124 398.834 71.6767 398.814C72.2359 398.788 72.7636 398.928 73.26 399.234L74.948 395.232L75.968 396.571L74.114 400.873L73.9775 399.762L75.4771 401.73L78.2746 399.598L79.1728 400.777ZM74.4281 402.529L73.2482 400.981C73.0401 400.707 72.8066 400.512 72.5478 400.393C72.289 400.274 72.0258 400.233 71.7581 400.268C71.4786 400.302 71.209 400.418 70.9493 400.616C70.6895 400.814 70.5095 401.041 70.4093 401.296C70.2973 401.55 70.2675 401.815 70.3199 402.091C70.3655 402.372 70.4924 402.649 70.7005 402.922L71.8804 404.47L74.4281 402.529Z" fill="#053237"/>
<path d="M71.0506 389.544L63.205 394.644L62.3972 393.401L70.2428 388.301L71.0506 389.544Z" fill="#053237"/>
<path d="M66.3457 382.035L58.1269 386.509L57.5564 385.461L61.4117 377.385L61.7591 377.839L55.3165 381.346L54.6139 380.055L62.8326 375.581L63.4031 376.629L59.4858 384.697L59.1393 384.27L65.6371 380.733L66.3457 382.035Z" fill="#053237"/>
<path d="M57.9788 364.772C58.2351 365.382 58.3616 365.996 58.3583 366.615C58.3518 367.227 58.2345 367.812 58.0062 368.371C57.767 368.926 57.4226 369.425 56.9731 369.868C56.5236 370.311 55.9746 370.669 55.3261 370.941C54.6854 371.211 54.051 371.355 53.4231 371.373C52.7841 371.388 52.1867 371.284 51.6308 371.064C51.0672 370.847 50.5686 370.525 50.1351 370.098C49.6938 369.675 49.3435 369.155 49.0839 368.537C48.8276 367.927 48.7031 367.339 48.7104 366.773C48.7145 366.199 48.8166 365.675 49.0167 365.2C49.2092 364.729 49.4714 364.337 49.8035 364.025L50.905 364.993C50.5087 365.368 50.2537 365.82 50.1401 366.35C50.0187 366.882 50.0796 367.438 50.3229 368.017C50.563 368.588 50.9106 369.037 51.3657 369.363C51.8208 369.69 52.3396 369.876 52.922 369.922C53.5012 369.96 54.1112 369.844 54.7519 369.575C55.3926 369.306 55.9042 368.945 56.2868 368.494C56.6583 368.038 56.8867 367.533 56.972 366.98C57.0496 366.43 56.9683 365.869 56.7282 365.298C56.5271 364.819 56.2473 364.423 55.8888 364.111C55.5194 363.794 55.1069 363.59 54.6512 363.5C54.1878 363.413 53.7168 363.47 53.2382 363.671L52.6476 363.92L52.9455 363.072L54.3178 366.338L53.1599 366.824L51.4761 362.818L52.2867 362.477C52.9197 362.211 53.5325 362.081 54.1251 362.086C54.71 362.095 55.254 362.211 55.7572 362.436C56.2603 362.66 56.7012 362.975 57.0798 363.379C57.4585 363.783 57.7582 364.247 57.9788 364.772Z" fill="#053237"/>
<path d="M450.252 346.747L459.143 349.664L458.188 352.576C457.885 353.499 457.436 354.237 456.84 354.791C456.249 355.355 455.559 355.714 454.768 355.869C453.977 356.023 453.14 355.956 452.256 355.666C451.381 355.379 450.667 354.938 450.113 354.342C449.568 353.748 449.22 353.048 449.071 352.241C448.918 351.442 448.994 350.582 449.297 349.659L450.252 346.747ZM451.043 348.566L450.542 350.094C450.336 350.722 450.288 351.31 450.399 351.858C450.508 352.413 450.759 352.897 451.153 353.308C451.547 353.719 452.07 354.032 452.722 354.246C453.375 354.46 453.979 354.513 454.534 354.404C455.095 354.306 455.583 354.07 455.997 353.694C456.411 353.319 456.721 352.817 456.927 352.188L457.428 350.661L451.043 348.566Z" fill="#053237"/>
<path d="M443.398 364.847C443.671 364.226 444.037 363.696 444.495 363.257C444.95 362.826 445.465 362.495 446.043 362.264C446.616 362.04 447.222 361.932 447.86 361.937C448.494 361.951 449.13 362.097 449.766 362.377C450.402 362.656 450.94 363.025 451.379 363.483C451.822 363.953 452.151 364.472 452.367 365.043C452.591 365.617 452.692 366.219 452.671 366.85C452.657 367.484 452.514 368.112 452.241 368.733C451.965 369.362 451.6 369.891 451.145 370.323C450.694 370.765 450.182 371.098 449.609 371.321C449.031 371.553 448.426 371.661 447.791 371.648C447.157 371.635 446.522 371.488 445.885 371.208C445.249 370.929 444.713 370.556 444.278 370.09C443.839 369.632 443.507 369.116 443.284 368.542C443.06 367.969 442.955 367.365 442.969 366.73C442.982 366.096 443.126 365.468 443.398 364.847ZM444.64 365.393C444.445 365.838 444.347 366.279 444.346 366.718C444.342 367.164 444.421 367.588 444.584 367.989C444.754 368.393 444.997 368.755 445.313 369.077C445.636 369.402 446.024 369.664 446.477 369.863C446.929 370.062 447.38 370.169 447.831 370.184C448.282 370.199 448.713 370.132 449.126 369.984C449.538 369.836 449.908 369.61 450.234 369.305C450.557 369.008 450.816 368.637 451.011 368.192C451.206 367.748 451.306 367.302 451.31 366.856C451.311 366.417 451.226 365.996 451.056 365.592C450.886 365.188 450.643 364.825 450.327 364.503C450.008 364.189 449.622 363.933 449.17 363.734C448.717 363.535 448.264 363.423 447.809 363.397C447.358 363.381 446.926 363.448 446.514 363.596C446.109 363.747 445.743 363.975 445.417 364.28C445.091 364.585 444.832 364.956 444.64 365.393Z" fill="#053237"/>
<path d="M435.906 379.875C436.241 379.285 436.659 378.796 437.16 378.406C437.656 378.024 438.204 377.747 438.802 377.577C439.395 377.414 440.009 377.368 440.643 377.439C441.272 377.518 441.889 377.729 442.493 378.072C443.098 378.416 443.594 378.838 443.984 379.339C444.377 379.851 444.651 380.402 444.807 380.992C444.97 381.585 445.009 382.195 444.923 382.82C444.844 383.45 444.637 384.06 444.302 384.649C443.963 385.246 443.545 385.736 443.048 386.118C442.554 386.511 442.011 386.79 441.417 386.953C440.819 387.124 440.205 387.17 439.576 387.091C438.946 387.012 438.329 386.801 437.725 386.458C437.121 386.114 436.626 385.688 436.241 385.18C435.851 384.68 435.575 384.132 435.412 383.539C435.248 382.945 435.206 382.333 435.285 381.704C435.363 381.074 435.57 380.464 435.906 379.875ZM437.085 380.545C436.845 380.967 436.702 381.397 436.656 381.833C436.606 382.277 436.641 382.706 436.762 383.121C436.889 383.541 437.094 383.926 437.375 384.279C437.663 384.636 438.022 384.936 438.452 385.18C438.881 385.425 439.319 385.577 439.766 385.639C440.213 385.7 440.649 385.678 441.074 385.574C441.5 385.469 441.891 385.282 442.246 385.012C442.598 384.749 442.894 384.407 443.134 383.985C443.374 383.563 443.519 383.13 443.569 382.686C443.615 382.25 443.574 381.822 443.446 381.403C443.319 380.983 443.114 380.597 442.833 380.245C442.548 379.9 442.19 379.605 441.761 379.361C441.331 379.116 440.892 378.958 440.442 378.885C439.995 378.824 439.559 378.846 439.133 378.95C438.715 379.059 438.328 379.249 437.972 379.518C437.617 379.788 437.321 380.13 437.085 380.545Z" fill="#053237"/>
<path d="M429.63 390.429L437.295 395.797L435.342 398.586C434.982 399.1 434.569 399.485 434.103 399.742C433.644 400.003 433.156 400.116 432.639 400.081C432.124 400.058 431.616 399.871 431.115 399.52C430.587 399.15 430.228 398.699 430.038 398.168C429.843 397.643 429.816 397.097 429.957 396.531L425.631 396.139L426.597 394.761L431.259 395.22L430.241 395.688L431.661 393.661L428.78 391.643L429.63 390.429ZM432.741 394.418L431.624 396.012C431.427 396.293 431.312 396.575 431.277 396.858C431.243 397.141 431.283 397.404 431.399 397.648C431.516 397.904 431.708 398.126 431.976 398.313C432.243 398.5 432.514 398.603 432.787 398.621C433.063 398.651 433.325 398.598 433.572 398.465C433.825 398.336 434.051 398.131 434.248 397.85L435.365 396.255L432.741 394.418Z" fill="#053237"/>
<path d="M420.374 402.949L429.158 407.078L428.137 408.27L420.626 404.586L420.879 404.29L425.629 411.2L424.625 412.373L417.065 408.747L417.326 408.441L422.117 415.303L421.104 416.486L415.662 408.455L416.748 407.186L424.22 410.721L423.934 411.055L419.296 404.208L420.374 402.949Z" fill="#053237"/>
<path d="M409.59 414.879L416.097 421.604L411.665 425.892L410.748 424.944L414.115 421.687L412.246 419.755L409.059 422.838L408.142 421.89L411.328 418.807L409.442 416.857L406.075 420.115L405.158 419.167L409.59 414.879Z" fill="#053237"/>
<path d="M400.177 423.629L406.112 430.863L403.481 433.022C402.995 433.421 402.494 433.681 401.976 433.802C401.464 433.93 400.963 433.908 400.474 433.734C399.985 433.573 399.546 433.256 399.158 432.783C398.749 432.285 398.525 431.754 398.485 431.191C398.439 430.633 398.56 430.101 398.848 429.594L394.788 428.051L396.089 426.983L400.455 428.681L399.349 428.858L401.262 427.288L399.031 424.569L400.177 423.629ZM402.098 428.308L400.593 429.543C400.328 429.76 400.14 430.001 400.031 430.264C399.922 430.527 399.89 430.791 399.935 431.057C399.979 431.335 400.105 431.601 400.312 431.853C400.519 432.106 400.752 432.277 401.011 432.368C401.268 432.471 401.534 432.491 401.808 432.429C402.087 432.373 402.359 432.236 402.625 432.019L404.13 430.784L402.098 428.308Z" fill="#053237"/>
<path d="M389.292 432.188L394.593 439.899L393.372 440.738L390.497 436.557L390.903 436.46L390.205 442.916L388.683 443.962L389.284 438.229L389.82 439.141L383.258 436.336L384.696 435.347L389.379 437.325L389.601 435.253L388.071 433.027L389.292 432.188Z" fill="#053237"/>
<path d="M377.68 439.776L382.432 447.838L381.155 448.591L376.404 440.529L377.68 439.776Z" fill="#053237"/>
<path d="M369.969 444.161L374.122 452.546L373.053 453.076L365.132 448.911L365.599 448.582L368.855 455.155L367.538 455.807L363.385 447.422L364.454 446.892L372.364 451.118L371.924 451.448L368.641 444.818L369.969 444.161Z" fill="#053237"/>
<path d="M352.403 451.905C353.021 451.668 353.639 451.562 354.258 451.585C354.869 451.611 355.45 451.747 356.001 451.993C356.548 452.249 357.036 452.61 357.464 453.073C357.893 453.536 358.233 454.097 358.485 454.753C358.734 455.402 358.857 456.041 358.856 456.669C358.85 457.308 358.727 457.902 358.489 458.451C358.254 459.007 357.916 459.495 357.476 459.915C357.039 460.342 356.508 460.676 355.883 460.916C355.265 461.152 354.673 461.258 354.107 461.233C353.534 461.21 353.013 461.091 352.545 460.876C352.08 460.669 351.697 460.394 351.395 460.052L352.398 458.982C352.76 459.39 353.204 459.66 353.73 459.79C354.258 459.928 354.815 459.885 355.402 459.661C355.98 459.439 356.44 459.106 356.781 458.661C357.122 458.217 357.324 457.704 357.389 457.124C357.446 456.546 357.35 455.933 357.101 455.284C356.852 454.635 356.508 454.112 356.069 453.715C355.626 453.329 355.129 453.085 354.578 452.982C354.03 452.887 353.467 452.95 352.889 453.172C352.404 453.357 352 453.625 351.676 453.973C351.347 454.332 351.13 454.738 351.026 455.19C350.924 455.651 350.966 456.123 351.152 456.608L351.381 457.206L350.544 456.881L353.851 455.614L354.301 456.787L350.242 458.342L349.928 457.521C349.682 456.88 349.572 456.263 349.596 455.671C349.623 455.087 349.757 454.547 349.997 454.051C350.238 453.555 350.566 453.125 350.982 452.759C351.398 452.393 351.872 452.109 352.403 451.905Z" fill="#053237"/>
<path d="M230.9 74.5784L225.172 67.0382L226.861 66.4899L231.476 72.7766L231.145 72.884L231.187 65.086L232.877 64.5377L232.68 74.0005L230.9 74.5784Z" fill="#035E46"/>
<path d="M241.909 71.7297L240.481 62.9046L242.092 62.6438L243.52 71.4689L241.909 71.7297Z" fill="#035E46"/>
<path d="M253.818 70.7536C253.25 70.7614 252.72 70.6647 252.23 70.4635C251.747 70.2622 251.327 69.9799 250.97 69.6168C250.621 69.2456 250.363 68.8132 250.196 68.3194L251.544 67.7127C251.767 68.2217 252.084 68.6213 252.496 68.9117C252.908 69.194 253.37 69.3316 253.882 69.3245C254.17 69.3206 254.417 69.2731 254.624 69.1823C254.839 69.0833 255.001 68.953 255.111 68.7915C255.229 68.6299 255.286 68.437 255.283 68.2131C255.279 67.9491 255.196 67.7342 255.034 67.5684C254.879 67.3946 254.646 67.2618 254.332 67.1701L252.609 66.6419C251.91 66.4355 251.381 66.1188 251.024 65.6917C250.666 65.2646 250.483 64.7591 250.474 64.1752C250.467 63.6632 250.585 63.2095 250.828 62.8141C251.078 62.4186 251.426 62.1098 251.871 61.8876C252.324 61.6574 252.842 61.5382 253.426 61.5301C253.962 61.5227 254.455 61.6119 254.906 61.7977C255.357 61.9754 255.744 62.2301 256.069 62.5617C256.401 62.8851 256.651 63.2697 256.817 63.7154L255.481 64.334C255.299 63.8884 255.03 63.5481 254.675 63.313C254.32 63.0699 253.91 62.9515 253.446 62.958C253.174 62.9617 252.935 63.013 252.728 63.1119C252.521 63.2028 252.359 63.333 252.241 63.5027C252.132 63.6642 252.078 63.857 252.081 64.0809C252.085 64.3289 252.168 64.5478 252.33 64.7376C252.493 64.9193 252.739 65.0599 253.068 65.1594L254.719 65.6526C255.434 65.8747 255.971 66.1874 256.328 66.5905C256.694 66.9934 256.881 67.4949 256.889 68.0948C256.896 68.6068 256.771 69.0606 256.512 69.4562C256.254 69.8518 255.894 70.1648 255.433 70.3952C254.972 70.6256 254.434 70.745 253.818 70.7536Z" fill="#035E46"/>
<path d="M263.385 71.1006L264.569 62.2394L266.187 62.4556L265.003 71.3168L263.385 71.1006Z" fill="#035E46"/>
<path d="M272.039 72.5907L274.505 63.9977L280.215 65.6364L279.818 67.0205L275.677 65.832L275.044 68.0351L278.955 69.1573L278.557 70.5415L274.647 69.4192L274.005 71.6568L278.146 72.8453L277.748 74.2294L272.039 72.5907Z" fill="#035E46"/>
<path d="M227.806 168.312L225.594 159.65L228.826 158.824C229.416 158.674 229.963 158.65 230.468 158.752C230.978 158.844 231.414 159.063 231.775 159.409C232.134 159.747 232.387 160.206 232.536 160.788C232.682 161.361 232.676 161.887 232.517 162.365C232.364 162.834 232.091 163.234 231.697 163.565C231.303 163.897 230.811 164.138 230.222 164.289L228.571 164.71L229.387 167.908L227.806 168.312ZM228.215 163.315L229.889 162.888C230.176 162.814 230.41 162.697 230.591 162.535C230.771 162.365 230.893 162.165 230.958 161.934C231.023 161.702 231.022 161.455 230.954 161.191C230.885 160.92 230.767 160.702 230.602 160.538C230.434 160.366 230.232 160.253 229.995 160.198C229.756 160.135 229.493 160.14 229.206 160.214L227.532 160.641L228.215 163.315Z" fill="#035E46"/>
<path d="M240.293 165.687L239.456 156.786L241.081 156.633L241.783 164.1L245.594 163.742L245.729 165.176L240.293 165.687Z" fill="#035E46"/>
<path d="M251.301 164.981L254.991 156.274L257.098 156.419L259.561 165.55L257.789 165.428L257.287 163.468L253.839 163.231L253.06 165.102L251.301 164.981ZM254.405 161.827L256.919 162L255.74 157.456L256.195 157.487L254.405 161.827Z" fill="#035E46"/>
<path d="M265.683 166.538L267.84 157.863L269.075 158.17L272.25 165.785L271.578 165.754L273.209 159.198L274.792 159.592L272.635 168.267L271.389 167.957L268.294 160.313L268.908 160.329L267.266 166.932L265.683 166.538Z" fill="#035E46"/>
<path d="M179.792 146.666L174.771 138.77L177.643 136.943C178.173 136.606 178.702 136.408 179.231 136.35C179.762 136.28 180.26 136.361 180.724 136.591C181.184 136.815 181.578 137.185 181.906 137.701C182.229 138.209 182.391 138.722 182.392 139.237C182.399 139.748 182.264 140.231 181.987 140.685C181.71 141.139 181.307 141.534 180.777 141.871L179.155 142.903L181.043 145.87L179.792 146.666ZM178.448 141.79L180.101 140.738C180.384 140.559 180.595 140.345 180.735 140.097C180.875 139.849 180.943 139.588 180.937 139.314C180.927 139.033 180.834 138.754 180.659 138.479C180.483 138.203 180.273 138.004 180.027 137.883C179.777 137.754 179.512 137.705 179.232 137.733C178.948 137.755 178.665 137.856 178.382 138.036L176.729 139.087L178.448 141.79Z" fill="#035E46"/>
<path d="M191.632 139.573L187.503 131.176L190.557 129.674C191.121 129.397 191.668 129.258 192.2 129.258C192.728 129.25 193.21 129.386 193.647 129.666C194.087 129.935 194.442 130.344 194.712 130.892C194.996 131.471 195.093 132.039 195.004 132.596C194.921 133.15 194.682 133.641 194.286 134.069L197.888 136.497L196.377 137.239L192.513 134.591L193.63 134.671L191.41 135.763L192.962 138.919L191.632 139.573ZM190.828 134.579L192.575 133.72C192.883 133.569 193.12 133.378 193.287 133.146C193.453 132.915 193.544 132.665 193.561 132.396C193.582 132.115 193.52 131.828 193.376 131.535C193.232 131.242 193.044 131.021 192.813 130.874C192.586 130.715 192.331 130.635 192.051 130.633C191.766 130.624 191.47 130.695 191.162 130.846L189.415 131.705L190.828 134.579Z" fill="#035E46"/>
<path d="M208.481 132.418C207.841 132.642 207.204 132.736 206.57 132.7C205.945 132.661 205.351 132.509 204.788 132.244C204.234 131.977 203.741 131.608 203.311 131.137C202.888 130.664 202.562 130.099 202.333 129.443C202.104 128.787 202.008 128.142 202.044 127.508C202.085 126.864 202.241 126.269 202.511 125.722C202.778 125.167 203.15 124.683 203.626 124.268C204.1 123.846 204.656 123.523 205.297 123.299C205.945 123.073 206.582 122.979 207.208 123.018C207.838 123.046 208.431 123.194 208.985 123.461C209.548 123.726 210.041 124.095 210.463 124.568C210.886 125.042 211.211 125.607 211.44 126.263C211.67 126.919 211.762 127.565 211.718 128.201C211.682 128.835 211.53 129.429 211.263 129.983C210.995 130.538 210.625 131.027 210.151 131.449C209.678 131.872 209.121 132.195 208.481 132.418ZM208.034 131.138C208.492 130.977 208.882 130.748 209.204 130.45C209.533 130.148 209.789 129.802 209.972 129.41C210.151 129.01 210.251 128.585 210.271 128.134C210.289 127.676 210.216 127.214 210.053 126.747C209.89 126.281 209.661 125.878 209.365 125.537C209.068 125.197 208.726 124.927 208.336 124.726C207.947 124.525 207.529 124.409 207.084 124.378C206.646 124.345 206.198 124.408 205.74 124.568C205.281 124.728 204.887 124.959 204.558 125.26C204.236 125.559 203.986 125.908 203.806 126.308C203.626 126.707 203.527 127.132 203.506 127.583C203.494 128.031 203.57 128.488 203.732 128.954C203.895 129.421 204.122 129.829 204.413 130.18C204.709 130.52 205.052 130.791 205.442 130.992C205.828 131.185 206.244 131.297 206.69 131.327C207.135 131.358 207.583 131.295 208.034 131.138Z" fill="#035E46"/>
<path d="M224.436 127.934C223.789 128.07 223.162 128.078 222.554 127.957C221.955 127.835 221.403 127.609 220.897 127.278C220.398 126.938 219.974 126.506 219.624 125.98C219.274 125.455 219.026 124.848 218.882 124.159C218.739 123.479 218.718 122.829 218.819 122.209C218.926 121.579 219.141 121.012 219.463 120.508C219.783 119.996 220.193 119.567 220.694 119.223C221.193 118.87 221.771 118.624 222.426 118.487C223.074 118.351 223.675 118.34 224.229 118.454C224.792 118.567 225.287 118.767 225.715 119.053C226.142 119.332 226.477 119.664 226.72 120.049L225.561 120.947C225.268 120.487 224.872 120.15 224.374 119.938C223.874 119.718 223.317 119.673 222.702 119.802C222.096 119.929 221.589 120.185 221.183 120.57C220.776 120.955 220.495 121.429 220.339 121.992C220.192 122.554 220.189 123.175 220.332 123.855C220.475 124.535 220.732 125.106 221.103 125.567C221.48 126.018 221.932 126.338 222.459 126.527C222.985 126.707 223.551 126.734 224.157 126.607C224.666 126.5 225.107 126.3 225.482 126.007C225.863 125.705 226.141 125.338 226.316 124.908C226.489 124.47 226.523 123.996 226.416 123.488L226.284 122.861L227.06 123.315L223.593 124.043L223.335 122.813L227.588 121.92L227.769 122.781C227.91 123.452 227.922 124.079 227.804 124.66C227.685 125.232 227.467 125.744 227.151 126.196C226.836 126.647 226.443 127.021 225.975 127.316C225.506 127.611 224.994 127.817 224.436 127.934Z" fill="#035E46"/>
<path d="M235.651 125.888L234.812 116.568L238.202 116.263C238.827 116.207 239.388 116.274 239.885 116.464C240.38 116.647 240.781 116.947 241.088 117.365C241.402 117.774 241.587 118.283 241.642 118.891C241.7 119.534 241.587 120.099 241.303 120.587C241.027 121.074 240.628 121.446 240.104 121.704L242.594 125.263L240.918 125.414L238.262 121.554L239.276 122.03L236.812 122.252L237.127 125.755L235.651 125.888ZM236.693 120.939L238.632 120.764C238.974 120.733 239.264 120.64 239.503 120.484C239.741 120.328 239.916 120.127 240.028 119.882C240.148 119.627 240.194 119.337 240.164 119.012C240.135 118.687 240.039 118.414 239.876 118.193C239.721 117.963 239.513 117.797 239.251 117.694C238.989 117.583 238.687 117.543 238.345 117.574L236.406 117.749L236.693 120.939Z" fill="#035E46"/>
<path d="M248.596 125L252.069 115.709L253.903 115.745L257.01 125.165L255.428 125.134L254.753 123.022L250.948 122.948L250.178 125.031L248.596 125ZM251.401 121.638L254.327 121.695L252.765 116.765L253.179 116.773L251.401 121.638Z" fill="#035E46"/>
<path d="M263.202 125.622L264.477 116.352L265.846 116.54L268.666 121.847L267.982 121.753L272.068 117.396L273.436 117.584L272.161 126.854L270.705 126.654L271.743 119.114L272.27 119.338L268.116 123.635L267.966 123.615L265.202 118.366L265.708 118.283L264.67 125.824L263.202 125.622Z" fill="#035E46"/>
<path d="M278.767 128.186L281.188 119.148L282.523 119.505L284.659 125.123L283.992 124.944L288.589 121.13L289.924 121.488L287.502 130.526L286.083 130.146L288.052 122.794L288.547 123.082L283.89 126.828L283.744 126.789L281.656 121.236L282.168 121.218L280.199 128.57L278.767 128.186Z" fill="#035E46"/>
<path d="M293.122 132.4L299.641 124.924L301.345 125.602L300.941 135.513L299.471 134.928L299.581 132.714L296.045 131.307L294.593 132.986L293.122 132.4ZM296.93 130.239L299.649 131.322L299.921 126.157L300.306 126.311L296.93 130.239Z" fill="#035E46"/>
<path d="M309.515 132.958L309.83 132.343C310.106 132.409 310.352 132.398 310.566 132.31C310.784 132.215 310.967 132.059 311.115 131.843L310.522 131.54L311.266 130.086L312.552 130.744L312.066 131.694C311.787 132.239 311.43 132.625 310.993 132.853C310.561 133.074 310.068 133.109 309.515 132.958Z" fill="#035E46"/>
<path d="M317.916 144.76C317.422 144.445 317.021 144.061 316.714 143.608C316.411 143.148 316.215 142.661 316.125 142.147C316.035 141.633 316.054 141.119 316.182 140.606L317.525 140.834C317.406 141.443 317.447 141.995 317.648 142.49C317.849 142.985 318.19 143.386 318.67 143.691C318.953 143.871 319.227 143.986 319.493 144.036C319.764 144.079 320.007 144.055 320.223 143.964C320.447 143.878 320.626 143.729 320.761 143.517C320.945 143.228 321.01 142.946 320.955 142.673C320.9 142.4 320.745 142.113 320.49 141.812L319.303 140.402C318.826 139.841 318.552 139.274 318.479 138.702C318.411 138.123 318.538 137.579 318.862 137.07C319.145 136.625 319.502 136.306 319.932 136.113C320.366 135.913 320.835 135.839 321.338 135.891C321.848 135.948 322.35 136.133 322.845 136.448C323.318 136.749 323.696 137.108 323.976 137.524C324.262 137.934 324.45 138.371 324.541 138.836C324.64 139.306 324.631 139.771 324.516 140.234L323.187 140.029C323.297 139.513 323.258 139.037 323.069 138.6C322.888 138.167 322.582 137.813 322.151 137.539C321.889 137.373 321.631 137.273 321.374 137.239C321.122 137.198 320.886 137.226 320.665 137.324C320.456 137.419 320.282 137.576 320.142 137.795C319.981 138.05 319.918 138.327 319.955 138.629C319.991 138.93 320.144 139.235 320.414 139.545L321.515 140.856C322.023 141.447 322.321 142.024 322.41 142.586C322.503 143.142 322.381 143.684 322.044 144.214C321.766 144.652 321.402 144.967 320.953 145.158C320.511 145.353 320.026 145.422 319.497 145.363C318.973 145.298 318.446 145.097 317.916 144.76Z" fill="#035E46"/>
</svg>
