<svg width="635" height="623" viewBox="0 0 635 623" fill="none" xmlns="http://www.w3.org/2000/svg">
<path d="M576 309.5C576 447.847 463.847 560 325.5 560C187.153 560 75 447.847 75 309.5C75 171.153 187.153 59 325.5 59C463.847 59 576 171.153 576 309.5ZM122.997 309.5C122.997 421.339 213.661 512.003 325.5 512.003C437.339 512.003 528.003 421.339 528.003 309.5C528.003 197.661 437.339 106.997 325.5 106.997C213.661 106.997 122.997 197.661 122.997 309.5Z" fill="#F8FBF8"/>
<mask id="path-2-inside-1_3689_22544" fill="white">
<path d="M528 309.5C528 421.338 437.338 512 325.5 512C213.662 512 123 421.338 123 309.5C123 197.662 213.662 107 325.5 107C437.338 107 528 197.662 528 309.5ZM163.054 309.5C163.054 399.216 235.784 471.945 325.5 471.945C415.216 471.945 487.945 399.216 487.945 309.5C487.945 219.784 415.216 147.054 325.5 147.054C235.784 147.054 163.054 219.784 163.054 309.5Z"/>
</mask>
<path d="M528 309.5C528 421.338 437.338 512 325.5 512C213.662 512 123 421.338 123 309.5C123 197.662 213.662 107 325.5 107C437.338 107 528 197.662 528 309.5ZM163.054 309.5C163.054 399.216 235.784 471.945 325.5 471.945C415.216 471.945 487.945 399.216 487.945 309.5C487.945 219.784 415.216 147.054 325.5 147.054C235.784 147.054 163.054 219.784 163.054 309.5Z" stroke="#E6FBF3" stroke-width="98" mask="url(#path-2-inside-1_3689_22544)"/>
<mask id="path-3-inside-2_3689_22544" fill="white">
<path d="M430 309.5C430 367.214 383.214 414 325.5 414C267.786 414 221 367.214 221 309.5C221 251.786 267.786 205 325.5 205C383.214 205 430 251.786 430 309.5ZM260.752 309.5C260.752 345.259 289.741 374.248 325.5 374.248C361.259 374.248 390.248 345.259 390.248 309.5C390.248 273.741 361.259 244.752 325.5 244.752C289.741 244.752 260.752 273.741 260.752 309.5Z"/>
</mask>
<path d="M430 309.5C430 367.214 383.214 414 325.5 414C267.786 414 221 367.214 221 309.5C221 251.786 267.786 205 325.5 205C383.214 205 430 251.786 430 309.5ZM260.752 309.5C260.752 345.259 289.741 374.248 325.5 374.248C361.259 374.248 390.248 345.259 390.248 309.5C390.248 273.741 361.259 244.752 325.5 244.752C289.741 244.752 260.752 273.741 260.752 309.5Z" stroke="#E6FBF3" stroke-width="98" mask="url(#path-3-inside-2_3689_22544)"/>
<mask id="path-4-inside-3_3689_22544" fill="white">
<path d="M479 309.5C479 394.276 410.276 463 325.5 463C240.724 463 172 394.276 172 309.5C172 224.724 240.724 156 325.5 156C410.276 156 479 224.724 479 309.5ZM213.414 309.5C213.414 371.403 263.597 421.586 325.5 421.586C387.403 421.586 437.586 371.403 437.586 309.5C437.586 247.597 387.403 197.414 325.5 197.414C263.597 197.414 213.414 247.597 213.414 309.5Z"/>
</mask>
<path d="M479 309.5C479 394.276 410.276 463 325.5 463C240.724 463 172 394.276 172 309.5C172 224.724 240.724 156 325.5 156C410.276 156 479 224.724 479 309.5ZM213.414 309.5C213.414 371.403 263.597 421.586 325.5 421.586C387.403 421.586 437.586 371.403 437.586 309.5C437.586 247.597 387.403 197.414 325.5 197.414C263.597 197.414 213.414 247.597 213.414 309.5Z" stroke="#E6FBF3" stroke-width="98" mask="url(#path-4-inside-3_3689_22544)"/>
<path d="M254.792 205.666L249.771 197.77L252.643 195.943C253.173 195.606 253.702 195.408 254.231 195.35C254.762 195.28 255.26 195.361 255.724 195.591C256.184 195.815 256.578 196.185 256.906 196.701C257.229 197.209 257.391 197.722 257.392 198.237C257.399 198.748 257.264 199.231 256.987 199.685C256.71 200.139 256.307 200.534 255.777 200.871L254.155 201.903L256.043 204.87L254.792 205.666ZM253.448 200.79L255.101 199.738C255.384 199.559 255.595 199.345 255.735 199.097C255.875 198.849 255.943 198.588 255.937 198.314C255.927 198.033 255.834 197.754 255.659 197.479C255.483 197.203 255.273 197.004 255.027 196.883C254.777 196.754 254.512 196.705 254.232 196.733C253.948 196.755 253.665 196.856 253.382 197.036L251.729 198.087L253.448 200.79Z" fill="#035E46"/>
<path d="M266.632 198.573L262.503 190.176L265.557 188.674C266.121 188.397 266.668 188.258 267.2 188.258C267.728 188.25 268.21 188.386 268.647 188.666C269.087 188.935 269.442 189.344 269.712 189.892C269.996 190.471 270.093 191.039 270.004 191.596C269.921 192.15 269.682 192.641 269.286 193.069L272.888 195.497L271.377 196.239L267.513 193.591L268.63 193.671L266.41 194.763L267.962 197.919L266.632 198.573ZM265.828 193.579L267.575 192.72C267.883 192.569 268.12 192.378 268.287 192.146C268.453 191.915 268.544 191.665 268.561 191.396C268.582 191.115 268.52 190.828 268.376 190.535C268.232 190.242 268.044 190.021 267.813 189.874C267.586 189.715 267.331 189.635 267.051 189.633C266.766 189.624 266.47 189.695 266.162 189.846L264.415 190.705L265.828 193.579Z" fill="#035E46"/>
<path d="M283.481 191.418C282.841 191.642 282.204 191.736 281.57 191.7C280.945 191.661 280.351 191.509 279.788 191.244C279.234 190.977 278.741 190.608 278.311 190.137C277.888 189.664 277.562 189.099 277.333 188.443C277.104 187.787 277.008 187.142 277.044 186.508C277.085 185.864 277.241 185.269 277.511 184.722C277.778 184.167 278.15 183.683 278.626 183.268C279.1 182.846 279.656 182.523 280.297 182.299C280.945 182.073 281.582 181.979 282.208 182.018C282.838 182.046 283.431 182.194 283.985 182.461C284.548 182.726 285.041 183.095 285.463 183.568C285.886 184.042 286.211 184.607 286.44 185.263C286.67 185.919 286.762 186.565 286.718 187.201C286.682 187.835 286.53 188.429 286.263 188.983C285.995 189.538 285.625 190.027 285.151 190.449C284.678 190.872 284.121 191.195 283.481 191.418ZM283.034 190.138C283.492 189.977 283.882 189.748 284.204 189.45C284.533 189.148 284.789 188.802 284.972 188.41C285.151 188.01 285.251 187.585 285.271 187.134C285.289 186.676 285.216 186.214 285.053 185.747C284.89 185.281 284.661 184.878 284.365 184.537C284.068 184.197 283.726 183.927 283.336 183.726C282.947 183.525 282.529 183.409 282.084 183.378C281.646 183.345 281.198 183.408 280.74 183.568C280.281 183.728 279.887 183.959 279.558 184.26C279.236 184.559 278.986 184.908 278.806 185.308C278.626 185.707 278.527 186.132 278.506 186.583C278.494 187.031 278.57 187.488 278.732 187.954C278.895 188.421 279.122 188.829 279.413 189.18C279.709 189.52 280.052 189.791 280.442 189.992C280.828 190.185 281.244 190.297 281.69 190.327C282.135 190.358 282.583 190.295 283.034 190.138Z" fill="#035E46"/>
<path d="M299.436 186.934C298.789 187.07 298.162 187.078 297.554 186.957C296.955 186.835 296.403 186.609 295.897 186.278C295.398 185.938 294.974 185.506 294.624 184.98C294.274 184.455 294.026 183.848 293.882 183.159C293.739 182.479 293.718 181.829 293.819 181.209C293.926 180.579 294.141 180.012 294.463 179.508C294.783 178.996 295.193 178.567 295.694 178.223C296.193 177.87 296.771 177.624 297.426 177.487C298.074 177.351 298.675 177.34 299.229 177.454C299.792 177.567 300.287 177.767 300.715 178.053C301.142 178.332 301.477 178.664 301.72 179.049L300.561 179.947C300.268 179.487 299.872 179.15 299.374 178.938C298.874 178.718 298.317 178.673 297.702 178.802C297.096 178.929 296.589 179.185 296.183 179.57C295.776 179.955 295.495 180.429 295.339 180.992C295.192 181.554 295.189 182.175 295.332 182.855C295.475 183.535 295.732 184.106 296.103 184.567C296.48 185.018 296.932 185.338 297.459 185.527C297.985 185.707 298.551 185.734 299.157 185.607C299.666 185.5 300.107 185.3 300.482 185.007C300.863 184.705 301.141 184.338 301.316 183.908C301.489 183.47 301.523 182.996 301.416 182.488L301.284 181.861L302.06 182.315L298.593 183.043L298.335 181.813L302.588 180.92L302.769 181.781C302.91 182.452 302.922 183.079 302.804 183.66C302.685 184.232 302.467 184.744 302.151 185.196C301.836 185.647 301.443 186.021 300.975 186.316C300.506 186.611 299.994 186.817 299.436 186.934Z" fill="#035E46"/>
<path d="M310.651 184.888L309.812 175.568L313.202 175.263C313.827 175.207 314.388 175.274 314.885 175.464C315.38 175.647 315.781 175.947 316.088 176.365C316.402 176.774 316.587 177.283 316.642 177.891C316.7 178.534 316.587 179.099 316.303 179.587C316.027 180.074 315.628 180.446 315.104 180.704L317.594 184.263L315.918 184.414L313.262 180.554L314.276 181.03L311.812 181.252L312.127 184.755L310.651 184.888ZM311.693 179.939L313.632 179.764C313.974 179.733 314.264 179.64 314.503 179.484C314.741 179.328 314.916 179.127 315.028 178.882C315.148 178.627 315.194 178.337 315.164 178.012C315.135 177.687 315.039 177.414 314.876 177.193C314.721 176.963 314.513 176.797 314.251 176.694C313.989 176.583 313.687 176.543 313.345 176.574L311.406 176.749L311.693 179.939Z" fill="#035E46"/>
<path d="M323.596 184L327.069 174.709L328.903 174.745L332.01 184.165L330.428 184.134L329.753 182.022L325.948 181.948L325.178 184.031L323.596 184ZM326.401 180.638L329.327 180.695L327.765 175.765L328.179 175.773L326.401 180.638Z" fill="#035E46"/>
<path d="M338.202 184.622L339.477 175.352L340.846 175.54L343.666 180.847L342.982 180.753L347.068 176.396L348.436 176.584L347.161 185.854L345.705 185.654L346.743 178.114L347.27 178.338L343.116 182.635L342.966 182.615L340.202 177.366L340.708 177.283L339.67 184.824L338.202 184.622Z" fill="#035E46"/>
<path d="M353.767 187.186L356.188 178.148L357.523 178.505L359.659 184.123L358.992 183.944L363.589 180.13L364.924 180.488L362.502 189.526L361.083 189.146L363.052 181.794L363.547 182.082L358.89 185.828L358.744 185.789L356.656 180.236L357.168 180.218L355.199 187.57L353.767 187.186Z" fill="#035E46"/>
<path d="M368.122 191.4L374.641 183.924L376.345 184.602L375.941 194.513L374.471 193.928L374.581 191.714L371.045 190.307L369.593 191.986L368.122 191.4ZM371.93 189.239L374.649 190.322L374.921 185.157L375.306 185.311L371.93 189.239Z" fill="#035E46"/>
<path d="M384.515 191.958L384.83 191.343C385.106 191.409 385.352 191.398 385.566 191.31C385.784 191.215 385.967 191.059 386.115 190.843L385.522 190.54L386.266 189.086L387.552 189.744L387.066 190.694C386.787 191.239 386.43 191.625 385.993 191.853C385.561 192.074 385.068 192.109 384.515 191.958Z" fill="#035E46"/>
<path d="M392.916 203.76C392.422 203.445 392.021 203.061 391.714 202.608C391.411 202.148 391.215 201.661 391.125 201.147C391.035 200.633 391.054 200.119 391.182 199.606L392.525 199.834C392.406 200.443 392.447 200.995 392.648 201.49C392.849 201.985 393.19 202.386 393.67 202.691C393.953 202.871 394.227 202.986 394.493 203.036C394.764 203.079 395.007 203.055 395.223 202.964C395.447 202.878 395.626 202.729 395.761 202.517C395.945 202.228 396.01 201.946 395.955 201.673C395.9 201.4 395.745 201.113 395.49 200.812L394.303 199.402C393.826 198.841 393.552 198.274 393.479 197.702C393.411 197.123 393.538 196.579 393.862 196.07C394.145 195.625 394.502 195.306 394.932 195.113C395.366 194.913 395.835 194.839 396.338 194.891C396.848 194.948 397.35 195.133 397.845 195.448C398.318 195.749 398.696 196.108 398.976 196.524C399.262 196.934 399.45 197.371 399.541 197.836C399.64 198.306 399.631 198.771 399.516 199.234L398.187 199.029C398.297 198.513 398.258 198.037 398.069 197.6C397.888 197.167 397.582 196.813 397.151 196.539C396.889 196.373 396.631 196.273 396.374 196.239C396.122 196.198 395.886 196.226 395.665 196.324C395.456 196.419 395.282 196.576 395.142 196.795C394.981 197.05 394.918 197.327 394.955 197.629C394.991 197.93 395.144 198.235 395.414 198.545L396.515 199.856C397.023 200.447 397.321 201.024 397.41 201.586C397.503 202.142 397.381 202.684 397.044 203.214C396.766 203.652 396.402 203.967 395.953 204.158C395.511 204.353 395.026 204.422 394.497 204.363C393.973 204.298 393.446 204.097 392.916 203.76Z" fill="#035E46"/>
<path d="M113.559 238.157L105.808 236.025L105.149 238.423L103.877 238.073L105.576 231.897L106.848 232.246L106.198 234.608L113.949 236.74L113.559 238.157Z" fill="#053237"/>
<path d="M116.47 228.357L107.631 225.287L109.654 219.461L110.9 219.894L109.363 224.32L111.902 225.201L113.356 221.013L114.602 221.445L113.148 225.634L115.711 226.524L117.248 222.098L118.494 222.531L116.47 228.357Z" fill="#053237"/>
<path d="M120.904 216.274L112.304 212.584L113.646 209.456C113.894 208.879 114.22 208.417 114.623 208.071C115.019 207.722 115.474 207.511 115.988 207.44C116.497 207.358 117.032 207.437 117.594 207.678C118.186 207.932 118.63 208.3 118.924 208.782C119.222 209.256 119.36 209.784 119.338 210.367L123.652 209.867L122.989 211.414L118.331 211.917L119.232 211.251L118.256 213.525L121.488 214.912L120.904 216.274ZM117.044 213.005L117.812 211.216C117.947 210.9 118.003 210.601 117.979 210.317C117.955 210.034 117.861 209.784 117.699 209.568C117.532 209.342 117.298 209.164 116.998 209.035C116.698 208.907 116.412 208.861 116.14 208.9C115.864 208.927 115.619 209.032 115.405 209.213C115.183 209.391 115.004 209.638 114.868 209.953L114.101 211.742L117.044 213.005Z" fill="#053237"/>
<path d="M128.349 200.59C128.029 201.207 127.613 201.689 127.102 202.037C126.595 202.378 126.044 202.568 125.448 202.608C124.855 202.64 124.27 202.505 123.69 202.204L118.261 199.385L118.944 198.07L124.317 200.86C124.681 201.049 125.045 201.139 125.409 201.13C125.776 201.113 126.109 201.007 126.408 200.813C126.71 200.612 126.956 200.329 127.145 199.965C127.338 199.594 127.428 199.23 127.415 198.874C127.406 198.51 127.3 198.177 127.099 197.875C126.901 197.564 126.621 197.315 126.256 197.126L120.883 194.336L121.561 193.031L126.989 195.85C127.569 196.151 128.016 196.553 128.33 197.056C128.645 197.559 128.807 198.12 128.816 198.738C128.829 199.349 128.674 199.966 128.349 200.59Z" fill="#053237"/>
<path d="M135.638 187.8C135.288 188.361 134.859 188.819 134.352 189.173C133.849 189.521 133.303 189.762 132.715 189.899C132.124 190.023 131.517 190.03 130.896 189.919C130.275 189.807 129.665 189.565 129.069 189.193C128.479 188.825 127.996 188.39 127.618 187.888C127.238 187.374 126.977 186.827 126.837 186.245C126.689 185.66 126.664 185.067 126.762 184.467C126.853 183.862 127.076 183.276 127.431 182.707C127.781 182.146 128.189 181.705 128.656 181.385C129.127 181.057 129.614 180.838 130.117 180.727C130.613 180.612 131.085 180.6 131.531 180.692L131.377 182.15C130.841 182.042 130.325 182.095 129.827 182.308C129.322 182.516 128.903 182.886 128.571 183.419C128.243 183.945 128.077 184.488 128.073 185.048C128.069 185.608 128.216 186.139 128.514 186.641C128.817 187.136 129.264 187.568 129.853 187.936C130.443 188.303 131.033 188.513 131.622 188.565C132.209 188.606 132.753 188.501 133.254 188.251C133.748 187.997 134.159 187.607 134.487 187.082C134.762 186.641 134.924 186.184 134.972 185.711C135.018 185.227 134.947 184.772 134.757 184.348C134.561 183.919 134.242 183.568 133.802 183.293L133.258 182.954L134.122 182.708L132.247 185.713L131.182 185.048L133.482 181.361L134.228 181.827C134.811 182.19 135.271 182.615 135.608 183.103C135.939 183.585 136.158 184.097 136.265 184.637C136.371 185.178 136.369 185.719 136.258 186.262C136.146 186.804 135.94 187.317 135.638 187.8Z" fill="#053237"/>
<path d="M141.844 178.152L134.32 172.588L135.202 171.396L139.282 174.414L138.929 174.637L137.487 168.306L138.585 166.822L139.884 172.438L139.08 171.75L146.198 172.265L145.16 173.669L140.088 173.323L140.554 175.355L142.725 176.961L141.844 178.152Z" fill="#053237"/>
<path d="M153.361 163.819C152.914 164.33 152.407 164.726 151.838 165.007C151.275 165.282 150.684 165.444 150.064 165.491C149.449 165.532 148.839 165.455 148.232 165.258C147.631 165.055 147.069 164.725 146.546 164.267C146.022 163.81 145.62 163.297 145.339 162.728C145.056 162.148 144.898 161.553 144.863 160.944C144.822 160.33 144.906 159.725 145.115 159.129C145.318 158.528 145.643 157.972 146.089 157.462C146.541 156.945 147.049 156.549 147.612 156.273C148.174 155.987 148.762 155.822 149.377 155.781C149.997 155.734 150.607 155.811 151.208 156.014C151.81 156.217 152.372 156.548 152.895 157.005C153.418 157.463 153.818 157.979 154.094 158.554C154.375 159.122 154.536 159.714 154.578 160.328C154.619 160.943 154.538 161.55 154.335 162.152C154.132 162.753 153.807 163.309 153.361 163.819ZM152.34 162.926C152.659 162.561 152.885 162.169 153.017 161.75C153.155 161.326 153.206 160.898 153.172 160.467C153.13 160.031 153.007 159.612 152.802 159.21C152.591 158.803 152.3 158.437 151.928 158.111C151.556 157.786 151.157 157.549 150.732 157.399C150.306 157.25 149.874 157.184 149.436 157.201C148.999 157.219 148.578 157.324 148.176 157.517C147.779 157.704 147.421 157.981 147.101 158.346C146.781 158.712 146.553 159.107 146.415 159.532C146.283 159.95 146.237 160.377 146.278 160.814C146.319 161.25 146.443 161.669 146.647 162.071C146.858 162.466 147.149 162.826 147.521 163.152C147.893 163.477 148.292 163.72 148.718 163.881C149.144 164.031 149.575 164.097 150.013 164.079C150.445 164.056 150.862 163.948 151.265 163.755C151.667 163.562 152.025 163.286 152.34 162.926Z" fill="#053237"/>
<path d="M161.599 154.681L155.079 147.968L157.521 145.597C157.972 145.159 158.45 144.858 158.955 144.694C159.461 144.518 159.965 144.496 160.466 144.627C160.962 144.753 161.423 145.035 161.849 145.474C162.269 145.906 162.531 146.375 162.636 146.88C162.747 147.379 162.714 147.879 162.534 148.379C162.355 148.88 162.041 149.349 161.59 149.787L160.212 151.126L162.662 153.649L161.599 154.681ZM159.293 150.18L160.698 148.814C160.939 148.581 161.102 148.329 161.189 148.058C161.276 147.787 161.289 147.517 161.227 147.25C161.16 146.977 161.013 146.723 160.786 146.489C160.558 146.254 160.312 146.103 160.046 146.034C159.775 145.959 159.505 145.964 159.238 146.048C158.964 146.127 158.707 146.283 158.467 146.517L157.061 147.882L159.293 150.18Z" fill="#053237"/>
<path d="M171.719 145.202L165.711 138.027L168.321 135.842C168.803 135.439 169.302 135.174 169.818 135.047C170.336 134.909 170.84 134.924 171.33 135.092C171.815 135.254 172.254 135.569 172.646 136.038C173.033 136.5 173.26 136.987 173.328 137.498C173.402 138.004 173.332 138.5 173.116 138.986C172.901 139.472 172.552 139.917 172.071 140.32L170.597 141.554L172.855 144.25L171.719 145.202ZM169.751 140.543L171.253 139.285C171.51 139.07 171.691 138.83 171.798 138.566C171.905 138.302 171.937 138.035 171.896 137.763C171.849 137.486 171.721 137.222 171.511 136.971C171.302 136.721 171.067 136.552 170.807 136.463C170.542 136.369 170.273 136.354 170 136.419C169.721 136.477 169.453 136.614 169.197 136.829L167.694 138.087L169.751 140.543Z" fill="#053237"/>
<path d="M182.519 136.499L177.036 128.916L182.034 125.303L182.807 126.371L179.01 129.116L180.585 131.295L184.178 128.697L184.951 129.765L181.358 132.363L182.947 134.562L186.744 131.817L187.517 132.885L182.519 136.499Z" fill="#053237"/>
<path d="M193.096 129.147L188.123 121.22L189.379 120.432L193.65 127.242L197.077 125.093L197.777 126.21L193.096 129.147Z" fill="#053237"/>
<path d="M203.296 123.021L198.768 114.831L200.065 114.114L204.593 122.304L203.296 123.021Z" fill="#053237"/>
<path d="M211.131 118.826L207.13 110.367L208.209 109.857L216.054 114.164L215.58 114.485L212.444 107.854L213.772 107.225L217.774 115.684L216.695 116.195L208.862 111.827L209.308 111.505L212.471 118.193L211.131 118.826Z" fill="#053237"/>
<path d="M228.822 111.303C228.203 111.536 227.584 111.64 226.966 111.613C226.355 111.584 225.775 111.444 225.224 111.195C224.679 110.935 224.193 110.573 223.767 110.107C223.341 109.641 223.004 109.079 222.756 108.42C222.511 107.77 222.391 107.131 222.396 106.503C222.406 105.864 222.532 105.27 222.773 104.723C223.011 104.168 223.352 103.682 223.794 103.265C224.233 102.84 224.766 102.509 225.393 102.273C226.012 102.04 226.605 101.938 227.17 101.966C227.744 101.992 228.264 102.113 228.731 102.331C229.194 102.541 229.576 102.818 229.876 103.162L228.867 104.226C228.507 103.816 228.064 103.544 227.54 103.411C227.012 103.269 226.455 103.309 225.867 103.531C225.287 103.749 224.826 104.08 224.482 104.522C224.139 104.965 223.933 105.476 223.866 106.056C223.806 106.634 223.898 107.248 224.143 107.898C224.388 108.548 224.729 109.073 225.166 109.472C225.608 109.861 226.103 110.108 226.653 110.214C227.2 110.312 227.764 110.252 228.344 110.034C228.829 109.851 229.235 109.586 229.561 109.239C229.892 108.882 230.111 108.478 230.218 108.026C230.322 107.566 230.283 107.093 230.1 106.607L229.874 106.008L230.709 106.337L227.395 107.586L226.952 106.41L231.019 104.878L231.329 105.701C231.571 106.344 231.678 106.961 231.651 107.553C231.62 108.137 231.483 108.677 231.24 109.171C230.997 109.665 230.666 110.094 230.248 110.457C229.83 110.82 229.355 111.102 228.822 111.303Z" fill="#053237"/>
<path d="M425.991 114.199C425.357 113.958 424.81 113.619 424.348 113.184C423.895 112.751 423.538 112.252 423.279 111.687C423.027 111.126 422.888 110.526 422.862 109.889C422.843 109.255 422.958 108.613 423.206 107.963C423.453 107.314 423.795 106.758 424.23 106.297C424.677 105.831 425.179 105.476 425.738 105.232C426.3 104.98 426.897 104.849 427.528 104.839C428.162 104.82 428.796 104.932 429.43 105.173C430.072 105.418 430.619 105.756 431.073 106.189C431.537 106.617 431.895 107.112 432.147 107.674C432.407 108.239 432.545 108.838 432.564 109.472C432.582 110.107 432.467 110.748 432.22 111.398C431.972 112.047 431.627 112.601 431.183 113.06C430.748 113.521 430.249 113.877 429.687 114.129C429.125 114.381 428.527 114.516 427.893 114.534C427.259 114.553 426.625 114.441 425.991 114.199ZM426.474 112.932C426.928 113.105 427.374 113.181 427.812 113.159C428.258 113.141 428.677 113.041 429.069 112.859C429.464 112.669 429.814 112.408 430.12 112.076C430.428 111.737 430.671 111.336 430.847 110.875C431.022 110.413 431.107 109.957 431.099 109.506C431.092 109.055 431.004 108.627 430.836 108.222C430.667 107.818 430.423 107.46 430.102 107.15C429.789 106.842 429.405 106.602 428.951 106.429C428.498 106.256 428.048 106.179 427.602 106.197C427.163 106.219 426.747 106.324 426.352 106.514C425.957 106.704 425.607 106.965 425.301 107.297C425.003 107.631 424.766 108.029 424.591 108.491C424.415 108.953 424.325 109.411 424.322 109.867C424.329 110.318 424.417 110.746 424.585 111.15C424.757 111.547 425.003 111.901 425.324 112.211C425.644 112.522 426.028 112.762 426.474 112.932Z" fill="#053237"/>
<path d="M437.399 118.762L441.509 110.355L442.581 110.879L444.114 119.696L443.568 119.527L446.79 112.937L448.11 113.583L444 121.989L442.928 121.465L441.451 112.62L441.98 112.767L438.73 119.413L437.399 118.762Z" fill="#053237"/>
<path d="M452.036 126.413L456.108 119.482L453.964 118.222L454.633 117.085L460.155 120.331L459.487 121.468L457.375 120.227L453.303 127.158L452.036 126.413Z" fill="#053237"/>
<path d="M462.165 132.723L465.473 123.599L466.754 124.507L463.772 132.323L463.455 132.098L469.901 126.736L471.161 127.629L468.241 135.488L467.913 135.256L474.308 129.858L475.579 130.758L468.079 136.913L466.715 135.947L469.553 128.182L469.912 128.437L463.518 133.682L462.165 132.723Z" fill="#053237"/>
<path d="M475.057 142.388L481.035 135.188L482.175 136.135L476.198 143.334L475.057 142.388Z" fill="#053237"/>
<path d="M481.802 148.169L488.236 141.374L489.312 142.393L485.823 146.078L485.644 145.701L492.103 145.036L493.443 146.305L487.712 146.915L488.492 146.201L487.119 153.204L485.851 152.004L486.808 147.011L484.735 147.227L482.878 149.188L481.802 148.169Z" fill="#053237"/>
<path d="M491.676 157.891L498.628 151.627L499.62 152.728L495.85 156.125L495.701 155.735L502.193 155.584L503.429 156.956L497.666 157.109L498.501 156.459L496.577 163.331L495.409 162.034L496.758 157.133L494.674 157.184L492.668 158.992L491.676 157.891Z" fill="#053237"/>
<path d="M500.744 168.373L508.155 162.66L511.92 167.544L510.876 168.349L508.015 164.639L505.887 166.28L508.594 169.791L507.549 170.597L504.842 167.085L502.693 168.742L505.554 172.452L504.509 173.257L500.744 168.373Z" fill="#053237"/>
<path d="M508.396 178.723L516.193 173.548L517.012 174.783L510.314 179.228L512.551 182.598L511.452 183.327L508.396 178.723Z" fill="#053237"/>
<path d="M514.763 188.766L522.854 184.065L523.599 185.346L515.508 190.047L514.763 188.766Z" fill="#053237"/>
<path d="M519.111 196.506L527.503 192.366L528.031 193.436L523.854 201.351L523.525 200.883L530.103 197.637L530.754 198.955L522.362 203.095L521.834 202.025L526.072 194.122L526.401 194.562L519.767 197.835L519.111 196.506Z" fill="#053237"/>
<path d="M526.876 214.079C526.636 213.462 526.526 212.844 526.547 212.226C526.57 211.615 526.703 211.033 526.947 210.48C527.201 209.932 527.559 209.443 528.021 209.012C528.482 208.581 529.041 208.239 529.696 207.984C530.344 207.733 530.982 207.606 531.611 207.605C532.25 207.608 532.844 207.727 533.394 207.963C533.951 208.196 534.441 208.531 534.862 208.969C535.292 209.404 535.628 209.934 535.87 210.559C536.11 211.175 536.218 211.766 536.195 212.332C536.175 212.906 536.059 213.427 535.846 213.896C535.641 214.362 535.368 214.747 535.027 215.049L533.953 214.052C534.359 213.688 534.626 213.242 534.755 212.717C534.891 212.188 534.845 211.63 534.617 211.045C534.393 210.467 534.058 210.009 533.612 209.67C533.166 209.332 532.653 209.131 532.072 209.069C531.494 209.015 530.881 209.114 530.233 209.366C529.585 209.617 529.064 209.964 528.669 210.404C528.285 210.85 528.043 211.348 527.942 211.899C527.85 212.447 527.916 213.01 528.14 213.588C528.328 214.071 528.597 214.475 528.947 214.797C529.307 215.124 529.714 215.339 530.167 215.441C530.628 215.541 531.1 215.497 531.584 215.309L532.181 215.077L531.86 215.916L530.578 212.614L531.749 212.159L533.322 216.21L532.503 216.529C531.862 216.777 531.246 216.891 530.654 216.869C530.07 216.845 529.529 216.713 529.032 216.475C528.536 216.237 528.103 215.91 527.736 215.496C527.368 215.082 527.082 214.609 526.876 214.079Z" fill="#053237"/>
<path d="M212.971 504.384C213.609 504.659 214.121 505.038 214.505 505.523C214.881 506.004 215.11 506.54 215.193 507.132C215.267 507.72 215.176 508.315 214.917 508.914L212.497 514.532L211.136 513.946L213.531 508.386C213.693 508.009 213.757 507.64 213.721 507.278C213.678 506.913 213.549 506.588 213.334 506.304C213.111 506.017 212.811 505.792 212.434 505.629C212.05 505.464 211.681 505.4 211.327 505.439C210.965 505.475 210.64 505.604 210.353 505.827C210.058 506.046 209.829 506.344 209.667 506.721L207.272 512.281L205.922 511.7L208.342 506.082C208.6 505.482 208.969 505.007 209.448 504.658C209.927 504.308 210.474 504.106 211.09 504.052C211.698 503.995 212.325 504.105 212.971 504.384Z" fill="#053237"/>
<path d="M203.54 500.106L199.207 508.4L197.894 507.714L202.226 499.42L203.54 500.106Z" fill="#053237"/>
<path d="M194.344 494.971L190.145 501.826L192.266 503.125L191.577 504.249L186.114 500.904L186.803 499.779L188.892 501.058L193.09 494.203L194.344 494.971Z" fill="#053237"/>
<path d="M183.78 487.968L180.909 497.472L179.623 496.527L182.17 488.484L182.423 488.67L175.515 493.506L174.23 492.561L182.444 486.986L183.78 487.968Z" fill="#053237"/>
<path d="M171.534 477.883C172.038 478.338 172.425 478.851 172.698 479.425C172.964 479.992 173.115 480.586 173.153 481.207C173.184 481.822 173.096 482.431 172.89 483.034C172.677 483.632 172.338 484.189 171.872 484.705C171.406 485.22 170.887 485.614 170.314 485.886C169.729 486.159 169.131 486.308 168.522 486.333C167.907 486.364 167.304 486.271 166.711 486.052C166.114 485.839 165.563 485.505 165.06 485.051C164.55 484.59 164.163 484.076 163.897 483.509C163.619 482.942 163.464 482.351 163.433 481.736C163.396 481.115 163.483 480.506 163.696 479.909C163.909 479.311 164.248 478.754 164.714 478.238C165.18 477.723 165.702 477.331 166.282 477.065C166.855 476.793 167.449 476.641 168.064 476.61C168.679 476.578 169.285 476.669 169.883 476.882C170.481 477.095 171.031 477.428 171.534 477.883ZM170.625 478.89C170.265 478.564 169.876 478.332 169.46 478.193C169.038 478.048 168.611 477.99 168.18 478.018C167.743 478.052 167.322 478.168 166.917 478.367C166.506 478.571 166.135 478.857 165.804 479.223C165.473 479.59 165.229 479.985 165.073 480.408C164.917 480.831 164.844 481.261 164.854 481.699C164.864 482.138 164.963 482.56 165.149 482.965C165.33 483.365 165.6 483.728 165.961 484.053C166.321 484.379 166.712 484.614 167.135 484.758C167.551 484.897 167.978 484.95 168.415 484.916C168.852 484.882 169.272 484.765 169.677 484.567C170.076 484.363 170.441 484.078 170.772 483.711C171.103 483.344 171.353 482.949 171.521 482.526C171.678 482.103 171.751 481.672 171.74 481.234C171.724 480.802 171.623 480.383 171.436 479.978C171.25 479.572 170.979 479.21 170.625 478.89Z" fill="#053237"/>
<path d="M162.615 469.455L155.696 475.756L151.544 471.197L152.519 470.309L155.673 473.772L157.661 471.962L154.675 468.684L155.65 467.796L158.636 471.074L160.641 469.247L157.487 465.784L158.462 464.896L162.615 469.455Z" fill="#053237"/>
<path d="M154.173 459.778L146.73 465.449L144.667 462.741C144.286 462.242 144.044 461.731 143.942 461.209C143.832 460.693 143.873 460.193 144.063 459.711C144.242 459.228 144.575 458.801 145.061 458.43C145.574 458.039 146.112 457.834 146.677 457.815C147.236 457.789 147.764 457.929 148.26 458.235L149.948 454.233L150.968 455.572L149.114 459.874L148.977 458.762L150.477 460.73L153.275 458.599L154.173 459.778ZM149.428 461.53L148.248 459.981C148.04 459.708 147.807 459.512 147.548 459.393C147.289 459.275 147.026 459.233 146.758 459.269C146.479 459.303 146.209 459.419 145.949 459.617C145.69 459.815 145.51 460.041 145.409 460.296C145.297 460.55 145.268 460.815 145.32 461.091C145.366 461.372 145.492 461.649 145.7 461.922L146.88 463.471L149.428 461.53Z" fill="#053237"/>
<path d="M146.051 448.543L138.205 453.643L137.397 452.401L145.243 447.301L146.051 448.543Z" fill="#053237"/>
<path d="M141.346 441.035L133.127 445.509L132.556 444.461L136.412 436.384L136.759 436.839L130.316 440.346L129.614 439.055L137.833 434.581L138.403 435.629L134.486 443.696L134.139 443.27L140.637 439.733L141.346 441.035Z" fill="#053237"/>
<path d="M132.979 423.773C133.235 424.383 133.362 424.997 133.358 425.616C133.352 426.228 133.234 426.813 133.006 427.372C132.767 427.927 132.423 428.426 131.973 428.869C131.524 429.312 130.975 429.67 130.326 429.942C129.685 430.212 129.051 430.356 128.423 430.374C127.784 430.389 127.187 430.285 126.631 430.065C126.067 429.848 125.569 429.526 125.135 429.099C124.694 428.676 124.343 428.156 124.084 427.538C123.828 426.928 123.703 426.34 123.71 425.774C123.714 425.2 123.817 424.676 124.017 424.201C124.209 423.73 124.471 423.338 124.803 423.026L125.905 423.994C125.509 424.369 125.254 424.821 125.14 425.35C125.019 425.883 125.08 426.439 125.323 427.018C125.563 427.589 125.911 428.038 126.366 428.364C126.821 428.691 127.34 428.877 127.922 428.923C128.501 428.961 129.111 428.845 129.752 428.576C130.393 428.307 130.904 427.946 131.287 427.495C131.658 427.039 131.887 426.534 131.972 425.981C132.05 425.431 131.968 424.87 131.728 424.298C131.527 423.82 131.247 423.424 130.889 423.112C130.519 422.795 130.107 422.591 129.651 422.501C129.188 422.414 128.717 422.471 128.238 422.672L127.648 422.921L127.946 422.073L129.318 425.339L128.16 425.825L126.476 421.819L127.287 421.478C127.92 421.212 128.533 421.082 129.125 421.087C129.71 421.096 130.254 421.212 130.757 421.437C131.26 421.661 131.701 421.976 132.08 422.38C132.459 422.784 132.758 423.248 132.979 423.773Z" fill="#053237"/>
<path d="M525.252 405.747L534.143 408.664L533.188 411.576C532.885 412.499 532.436 413.238 531.84 413.791C531.249 414.355 530.559 414.715 529.768 414.869C528.977 415.024 528.14 414.957 527.256 414.667C526.381 414.38 525.667 413.938 525.113 413.342C524.568 412.749 524.22 412.049 524.071 411.242C523.918 410.443 523.994 409.582 524.297 408.659L525.252 405.747ZM526.043 407.567L525.542 409.094C525.336 409.723 525.288 410.311 525.399 410.858C525.508 411.414 525.759 411.897 526.153 412.309C526.547 412.72 527.07 413.033 527.722 413.247C528.375 413.461 528.979 413.513 529.534 413.405C530.095 413.307 530.583 413.07 530.997 412.695C531.411 412.32 531.721 411.818 531.927 411.189L532.428 409.661L526.043 407.567Z" fill="#053237"/>
<path d="M518.398 423.848C518.671 423.227 519.037 422.697 519.495 422.258C519.95 421.827 520.465 421.496 521.043 421.264C521.616 421.041 522.222 420.932 522.86 420.938C523.494 420.951 524.13 421.098 524.766 421.377C525.402 421.657 525.94 422.026 526.379 422.484C526.822 422.953 527.151 423.473 527.367 424.043C527.591 424.617 527.692 425.22 527.671 425.851C527.657 426.485 527.514 427.112 527.241 427.733C526.965 428.362 526.6 428.892 526.145 429.323C525.694 429.766 525.182 430.099 524.609 430.322C524.031 430.553 523.426 430.662 522.791 430.649C522.157 430.635 521.522 430.489 520.885 430.209C520.249 429.929 519.713 429.557 519.278 429.091C518.839 428.633 518.507 428.117 518.284 427.543C518.06 426.969 517.955 426.365 517.969 425.731C517.982 425.097 518.126 424.469 518.398 423.848ZM519.64 424.394C519.445 424.838 519.347 425.28 519.346 425.719C519.342 426.165 519.421 426.589 519.584 426.989C519.754 427.393 519.997 427.756 520.313 428.078C520.636 428.403 521.024 428.665 521.477 428.864C521.929 429.062 522.38 429.169 522.831 429.184C523.282 429.199 523.713 429.133 524.126 428.985C524.538 428.837 524.908 428.611 525.234 428.306C525.557 428.008 525.816 427.637 526.011 427.193C526.206 426.748 526.306 426.303 526.31 425.856C526.311 425.418 526.226 424.996 526.056 424.592C525.886 424.188 525.643 423.825 525.327 423.504C525.008 423.19 524.622 422.933 524.17 422.734C523.717 422.536 523.264 422.423 522.809 422.397C522.358 422.382 521.926 422.448 521.514 422.596C521.109 422.748 520.743 422.976 520.417 423.281C520.091 423.586 519.832 423.957 519.64 424.394Z" fill="#053237"/>
<path d="M510.906 438.875C511.241 438.285 511.659 437.796 512.16 437.406C512.656 437.024 513.204 436.748 513.802 436.577C514.395 436.414 515.009 436.368 515.643 436.439C516.272 436.518 516.889 436.729 517.493 437.073C518.098 437.416 518.594 437.838 518.984 438.339C519.377 438.851 519.651 439.402 519.807 439.992C519.97 440.586 520.009 441.195 519.923 441.821C519.844 442.45 519.637 443.06 519.302 443.649C518.963 444.246 518.545 444.736 518.048 445.118C517.554 445.512 517.011 445.79 516.417 445.953C515.819 446.124 515.205 446.17 514.576 446.091C513.946 446.013 513.329 445.802 512.725 445.458C512.121 445.115 511.626 444.689 511.241 444.181C510.851 443.68 510.575 443.132 510.412 442.539C510.248 441.945 510.206 441.333 510.285 440.704C510.363 440.074 510.57 439.465 510.906 438.875ZM512.085 439.546C511.845 439.968 511.702 440.397 511.656 440.833C511.606 441.277 511.641 441.706 511.762 442.121C511.889 442.541 512.094 442.927 512.375 443.279C512.663 443.636 513.022 443.936 513.452 444.181C513.881 444.425 514.319 444.578 514.766 444.639C515.213 444.7 515.649 444.679 516.074 444.574C516.5 444.469 516.891 444.282 517.246 444.012C517.598 443.75 517.894 443.407 518.134 442.985C518.374 442.563 518.519 442.13 518.569 441.686C518.615 441.25 518.574 440.822 518.446 440.403C518.319 439.984 518.114 439.598 517.833 439.245C517.548 438.9 517.19 438.605 516.761 438.361C516.331 438.117 515.892 437.958 515.442 437.885C514.995 437.824 514.559 437.846 514.133 437.951C513.715 438.059 513.328 438.249 512.972 438.519C512.617 438.788 512.321 439.131 512.085 439.546Z" fill="#053237"/>
<path d="M504.63 449.43L512.295 454.798L510.342 457.586C509.982 458.101 509.569 458.486 509.103 458.743C508.644 459.004 508.156 459.117 507.639 459.082C507.124 459.059 506.616 458.871 506.115 458.521C505.587 458.151 505.228 457.7 505.038 457.168C504.843 456.644 504.816 456.098 504.957 455.532L500.631 455.14L501.597 453.762L506.259 454.221L505.241 454.689L506.661 452.662L503.78 450.644L504.63 449.43ZM507.741 453.418L506.624 455.013C506.427 455.294 506.312 455.576 506.277 455.859C506.243 456.141 506.283 456.405 506.399 456.649C506.516 456.905 506.708 457.127 506.976 457.314C507.243 457.501 507.514 457.604 507.787 457.622C508.063 457.651 508.325 457.599 508.572 457.466C508.825 457.337 509.051 457.132 509.248 456.85L510.365 455.256L507.741 453.418Z" fill="#053237"/>
<path d="M495.374 461.949L504.158 466.078L503.137 467.271L495.626 463.587L495.879 463.291L500.629 470.2L499.625 471.374L492.065 467.747L492.326 467.442L497.117 474.304L496.104 475.487L490.662 467.455L491.748 466.186L499.22 469.722L498.934 470.056L494.296 463.209L495.374 461.949Z" fill="#053237"/>
<path d="M484.59 473.879L491.097 480.604L486.665 484.892L485.748 483.944L489.115 480.686L487.246 478.755L484.059 481.838L483.142 480.89L486.328 477.807L484.442 475.857L481.075 479.115L480.158 478.167L484.59 473.879Z" fill="#053237"/>
<path d="M475.177 482.63L481.112 489.864L478.481 492.023C477.995 492.421 477.494 492.681 476.976 492.803C476.464 492.931 475.963 492.908 475.474 492.735C474.985 492.574 474.546 492.257 474.158 491.784C473.749 491.286 473.525 490.755 473.485 490.192C473.439 489.634 473.56 489.101 473.848 488.594L469.788 487.052L471.089 485.984L475.455 487.682L474.349 487.858L476.262 486.289L474.031 483.57L475.177 482.63ZM477.098 487.308L475.593 488.543C475.328 488.761 475.14 489.001 475.031 489.264C474.922 489.527 474.89 489.792 474.935 490.058C474.979 490.336 475.105 490.601 475.312 490.854C475.519 491.106 475.752 491.278 476.011 491.369C476.268 491.472 476.534 491.492 476.808 491.43C477.087 491.374 477.359 491.237 477.625 491.019L479.13 489.784L477.098 487.308Z" fill="#053237"/>
<path d="M464.292 491.187L469.593 498.898L468.372 499.737L465.497 495.556L465.903 495.459L465.205 501.915L463.683 502.961L464.284 497.228L464.82 498.14L458.258 495.335L459.696 494.346L464.379 496.324L464.601 494.252L463.071 492.026L464.292 491.187Z" fill="#053237"/>
<path d="M452.68 498.776L457.432 506.837L456.155 507.59L451.404 499.528L452.68 498.776Z" fill="#053237"/>
<path d="M444.969 503.16L449.122 511.546L448.053 512.076L440.132 507.911L440.599 507.581L443.855 514.155L442.538 514.807L438.385 506.421L439.454 505.892L447.364 510.118L446.924 510.448L443.641 503.818L444.969 503.16Z" fill="#053237"/>
<path d="M427.403 510.906C428.021 510.669 428.639 510.562 429.258 510.585C429.869 510.611 430.45 510.747 431.001 510.993C431.548 511.25 432.036 511.61 432.464 512.074C432.893 512.537 433.233 513.097 433.485 513.754C433.734 514.403 433.857 515.042 433.856 515.67C433.85 516.309 433.727 516.903 433.489 517.451C433.254 518.008 432.916 518.496 432.476 518.916C432.039 519.343 431.508 519.677 430.883 519.916C430.265 520.153 429.673 520.259 429.107 520.233C428.534 520.211 428.013 520.092 427.545 519.877C427.08 519.669 426.697 519.395 426.395 519.053L427.398 517.983C427.76 518.391 428.204 518.66 428.73 518.791C429.258 518.929 429.815 518.886 430.402 518.661C430.98 518.44 431.44 518.107 431.781 517.662C432.122 517.218 432.324 516.705 432.389 516.124C432.446 515.547 432.35 514.933 432.101 514.284C431.852 513.635 431.508 513.113 431.069 512.716C430.626 512.33 430.129 512.085 429.578 511.982C429.03 511.887 428.467 511.951 427.889 512.172C427.404 512.358 427 512.625 426.676 512.973C426.347 513.333 426.13 513.738 426.026 514.191C425.924 514.651 425.966 515.124 426.152 515.609L426.381 516.207L425.544 515.882L428.851 514.615L429.301 515.788L425.242 517.343L424.928 516.522C424.682 515.88 424.572 515.264 424.596 514.672C424.623 514.087 424.757 513.547 424.997 513.052C425.238 512.556 425.566 512.125 425.982 511.76C426.398 511.394 426.872 511.109 427.403 510.906Z" fill="#053237"/>
<path d="M305.9 133.578L300.172 126.038L301.861 125.49L306.476 131.776L306.145 131.884L306.187 124.086L307.877 123.537L307.68 133L305.9 133.578Z" fill="#035E46"/>
<path d="M316.909 130.729L315.481 121.904L317.092 121.643L318.52 130.468L316.909 130.729Z" fill="#035E46"/>
<path d="M328.818 129.753C328.25 129.761 327.72 129.664 327.23 129.463C326.747 129.261 326.327 128.979 325.97 128.616C325.621 128.245 325.363 127.812 325.196 127.319L326.544 126.712C326.767 127.221 327.084 127.621 327.496 127.911C327.908 128.193 328.37 128.331 328.882 128.324C329.17 128.32 329.417 128.272 329.624 128.181C329.839 128.082 330.001 127.952 330.111 127.791C330.229 127.629 330.286 127.436 330.283 127.212C330.279 126.948 330.196 126.733 330.034 126.568C329.879 126.394 329.646 126.261 329.332 126.169L327.609 125.641C326.91 125.435 326.381 125.118 326.024 124.691C325.666 124.264 325.483 123.758 325.474 123.174C325.467 122.662 325.585 122.209 325.828 121.813C326.078 121.418 326.426 121.109 326.871 120.887C327.324 120.657 327.842 120.537 328.426 120.529C328.962 120.522 329.455 120.611 329.906 120.797C330.357 120.975 330.744 121.229 331.069 121.561C331.401 121.884 331.651 122.269 331.817 122.715L330.481 123.333C330.299 122.888 330.03 122.547 329.675 122.312C329.32 122.069 328.91 121.951 328.446 121.957C328.174 121.961 327.935 122.012 327.728 122.111C327.521 122.202 327.359 122.332 327.241 122.502C327.132 122.663 327.078 122.856 327.081 123.08C327.085 123.328 327.168 123.547 327.33 123.737C327.493 123.919 327.739 124.059 328.068 124.159L329.719 124.652C330.434 124.874 330.971 125.187 331.328 125.59C331.694 125.993 331.881 126.494 331.889 127.094C331.896 127.606 331.771 128.06 331.512 128.455C331.254 128.851 330.894 129.164 330.433 129.394C329.972 129.625 329.434 129.744 328.818 129.753Z" fill="#035E46"/>
<path d="M338.385 130.101L339.569 121.239L341.187 121.455L340.003 130.317L338.385 130.101Z" fill="#035E46"/>
<path d="M347.039 131.591L349.505 122.998L355.215 124.637L354.818 126.021L350.677 124.832L350.044 127.035L353.955 128.158L353.557 129.542L349.647 128.419L349.005 130.657L353.146 131.846L352.748 133.23L347.039 131.591Z" fill="#035E46"/>
<path d="M302.806 227.312L300.594 218.65L303.826 217.824C304.416 217.674 304.963 217.65 305.468 217.752C305.978 217.844 306.414 218.063 306.775 218.409C307.134 218.747 307.387 219.206 307.536 219.788C307.682 220.361 307.676 220.887 307.517 221.365C307.364 221.834 307.091 222.234 306.697 222.565C306.303 222.897 305.811 223.138 305.222 223.289L303.571 223.71L304.387 226.908L302.806 227.312ZM303.215 222.315L304.889 221.888C305.176 221.814 305.41 221.697 305.591 221.535C305.771 221.365 305.893 221.165 305.958 220.934C306.023 220.702 306.022 220.455 305.954 220.191C305.885 219.92 305.767 219.702 305.602 219.538C305.434 219.366 305.232 219.253 304.995 219.198C304.756 219.135 304.493 219.14 304.206 219.214L302.532 219.641L303.215 222.315Z" fill="#035E46"/>
<path d="M315.293 224.687L314.456 215.786L316.081 215.633L316.783 223.1L320.594 222.742L320.729 224.176L315.293 224.687Z" fill="#035E46"/>
<path d="M326.301 223.981L329.991 215.274L332.098 215.419L334.561 224.55L332.789 224.428L332.287 222.468L328.839 222.231L328.06 224.102L326.301 223.981ZM329.405 220.827L331.919 221L330.74 216.456L331.195 216.487L329.405 220.827Z" fill="#035E46"/>
<path d="M340.683 225.537L342.84 216.862L344.075 217.169L347.25 224.784L346.578 224.753L348.209 218.197L349.792 218.591L347.635 227.266L346.389 226.956L343.294 219.312L343.908 219.328L342.266 225.931L340.683 225.537Z" fill="#035E46"/>
</svg>
