<svg width="27" height="26" viewBox="0 0 27 26" fill="none" xmlns="http://www.w3.org/2000/svg">
<g clip-path="url(#clip0_2616_579)">
<path d="M23.25 15.1667L20 11.9167H12.4167C12.1294 11.9167 11.8538 11.8025 11.6507 11.5994C11.4475 11.3962 11.3334 11.1206 11.3334 10.8333V4.33333C11.3334 4.04602 11.4475 3.77047 11.6507 3.5673C11.8538 3.36414 12.1294 3.25 12.4167 3.25H22.1667C22.454 3.25 22.7296 3.36414 22.9327 3.5673C23.1359 3.77047 23.25 4.04602 23.25 4.33333V15.1667Z" stroke="#1F2223" stroke-width="1.75" stroke-linecap="round" stroke-linejoin="round"/>
<path d="M15.6667 16.2499V18.4166C15.6667 18.7039 15.5525 18.9795 15.3494 19.1826C15.1462 19.3858 14.8706 19.4999 14.5833 19.4999H7L3.75 22.7499V11.9166C3.75 11.6293 3.86414 11.3537 4.0673 11.1506C4.27047 10.9474 4.54602 10.8333 4.83333 10.8333H7" stroke="#1F2223" stroke-width="1.75" stroke-linecap="round" stroke-linejoin="round"/>
</g>
<defs>
<clipPath id="clip0_2616_579">
<rect width="26" height="26" fill="white" transform="translate(0.5)"/>
</clipPath>
</defs>
</svg>
