<svg width="272" height="170" viewBox="0 0 272 170" fill="none" xmlns="http://www.w3.org/2000/svg">
<path fill-rule="evenodd" clip-rule="evenodd" d="M212.522 13.0617C206.028 14.0701 195.356 15.6437 183.245 17.0972L178.893 166.389C191.562 164.743 204.732 162.704 217.042 160.638L212.522 13.0617ZM223.014 159.623C250.314 154.924 272 150.403 272 150.403L219.138 12C219.138 12 218.917 12.0374 218.495 12.1072L223.014 159.623ZM141.002 20.5649C152.383 20.2542 165.257 19.1308 177.222 17.7951L172.869 167.145C161.257 168.551 150.268 169.565 141.002 169.889V20.5649ZM135.002 20.6502C127.985 20.6488 120.154 20.2573 112.171 19.6416L90.2183 166.214C106.934 168.444 122.91 169.997 135.002 170V20.6502ZM77.5788 15.9318C86.237 17.0717 96.1972 18.2484 106.179 19.1415L84.2737 165.397C71.6919 163.621 58.904 161.525 47.2189 159.472L77.5788 15.9318ZM71.6166 15.1258C59.3802 13.4292 50.9399 12 50.9399 12L0 150.403C0 150.403 17.7545 154.182 41.3085 158.42L71.6166 15.1258Z" fill="#84E9C5"/>
<ellipse cx="135" cy="12.5" rx="84" ry="12.5" fill="#7EDEBC"/>
</svg>
