<svg width="272" height="102" viewBox="0 0 272 102" fill="none" xmlns="http://www.w3.org/2000/svg">
<path fill-rule="evenodd" clip-rule="evenodd" d="M212.522 11.6115C206.028 12.1923 195.355 13.0986 183.245 13.9357L178.893 99.9201C191.562 98.9724 204.732 97.7977 217.042 96.608L212.522 11.6115ZM223.014 96.0234C250.314 93.317 272 90.7131 272 90.7131L219.138 11C219.138 11 218.917 11.0215 218.495 11.0618L223.014 96.0234ZM141.002 15.933C152.383 15.754 165.257 15.107 177.222 14.3377L172.869 100.356C161.257 101.166 150.268 101.749 141.002 101.936V15.933ZM135.002 15.9821C127.985 15.9813 120.154 15.7558 112.172 15.4012L90.2185 99.8194C106.934 101.104 122.91 101.998 135.002 102V15.9821ZM77.5788 13.2645C86.237 13.921 96.1973 14.5987 106.18 15.1132L84.2738 99.3491C71.692 98.3262 58.9041 97.1189 47.2188 95.9362L77.5788 13.2645ZM71.6165 12.8003C59.3802 11.8232 50.9399 11 50.9399 11L0 90.7131C0 90.7131 17.7544 92.8894 41.3084 95.3308L71.6165 12.8003Z" fill="#84E9C5"/>
<ellipse cx="135.5" cy="12.5" rx="85.5" ry="12.5" fill="#84E9C5"/>
<ellipse cx="137.5" cy="10.5" rx="44.0323" ry="7.5" fill="white"/>
</svg>
