<svg width="43" height="274" viewBox="0 0 43 274" fill="none" xmlns="http://www.w3.org/2000/svg">
<path d="M41.961 34.9614C42.8072 41.7146 38.0094 47.9518 31.2035 47.9976V47.9976C24.3977 48.0434 19.5164 41.8713 20.2716 35.1074L23.3749 7.31502C23.79 3.59724 27.146 0.96199 30.8868 0.936819V0.936819C34.6276 0.911649 38.0189 3.50149 38.484 7.21335L41.961 34.9614Z" fill="#07B071"/>
<path d="M22.3809 260.748C23.2271 267.501 18.4293 273.738 11.6235 273.784C4.81764 273.83 -0.0636949 267.658 0.691554 260.894L3.7948 233.102C4.20992 229.384 7.56597 226.749 11.3068 226.723C15.0476 226.698 18.4388 229.288 18.9039 233L22.3809 260.748Z" fill="#07B071"/>
</svg>
