<svg width="423" height="310" viewBox="0 0 423 310" fill="none" xmlns="http://www.w3.org/2000/svg">
<ellipse cx="211.5" cy="271" rx="211.5" ry="38.5" fill="#D0FDED"/>
<path d="M401 275.236L369 173C335 186.395 266.5 187.761 214.5 187.761C162.5 187.761 99 183.934 60 176.827L19 275.236C19 275.236 139.712 289.76 214.5 289.997C291.59 290.241 401 275.236 401 275.236Z" fill="#D1F9EB"/>
<ellipse cx="213.5" cy="173" rx="153.5" ry="30" fill="#7CE1BD"/>
<path fill-rule="evenodd" clip-rule="evenodd" d="M290.522 105.612C284.028 106.192 273.355 107.099 261.245 107.936L256.893 193.92C269.562 192.972 282.732 191.798 295.042 190.608L290.522 105.612ZM301.014 190.023C328.314 187.317 350 184.713 350 184.713L297.138 105C297.138 105 296.917 105.022 296.495 105.062L301.014 190.023ZM219.002 109.933C230.383 109.754 243.257 109.107 255.222 108.338L250.869 194.356C239.257 195.166 228.268 195.749 219.002 195.936V109.933ZM213.002 109.982C205.985 109.981 198.154 109.756 190.172 109.401L168.218 193.819C184.934 195.104 200.91 195.998 213.002 196V109.982ZM155.579 107.264C164.237 107.921 174.197 108.599 184.18 109.113L162.274 193.349C149.692 192.326 136.904 191.119 125.219 189.936L155.579 107.264ZM149.617 106.8C137.38 105.823 128.94 105 128.94 105L78 184.713C78 184.713 95.7544 186.889 119.308 189.331L149.617 106.8Z" fill="#84E9C5"/>
<ellipse cx="215.5" cy="105.5" rx="85.5" ry="12.5" fill="#15B67D"/>
<path d="M143 104.49L161 18C203.695 21.8617 224.647 21.9283 268.5 18L289 103.596C289 103.596 244.567 106.827 215.771 106.993C187.245 107.157 143 104.49 143 104.49Z" fill="#25C38B"/>
<ellipse cx="215" cy="16" rx="54" ry="16" fill="#0CA56F"/>
</svg>
