<svg width="53" height="53" viewBox="0 0 53 53" fill="none" xmlns="http://www.w3.org/2000/svg">
<circle cx="26.5" cy="26.5" r="26.5" fill="#FFF3ED"/>
<g clip-path="url(#clip0_293_1455)">
<path d="M42.1234 17.7124L26.6154 9.15856C26.4272 9.05376 26.2154 8.99875 26 8.99875C25.7846 8.99875 25.5728 9.05376 25.3846 9.15856L9.8755 17.7135C9.61023 17.8606 9.38916 18.0761 9.23521 18.3374C9.08127 18.5988 9.00005 18.8966 9 19.1999V22.5999C9.0006 22.7979 9.05327 22.9924 9.15273 23.1636C9.25219 23.3349 9.39494 23.477 9.56667 23.5757V41.8666C9.56667 42.1671 9.68607 42.4554 9.89861 42.6679C10.1112 42.8805 10.3994 42.9999 10.7 42.9999H41.3C41.6006 42.9999 41.8888 42.8805 42.1014 42.6679C42.3139 42.4554 42.4333 42.1671 42.4333 41.8666V23.5757C42.6051 23.477 42.7478 23.3349 42.8473 23.1636C42.9467 22.9924 42.9994 22.7979 43 22.5999V19.1999C43 18.8963 42.9187 18.5982 42.7646 18.3366C42.6104 18.075 42.389 17.8595 42.1234 17.7124ZM41.8667 22.5999H10.1333V21.4666H41.8667V22.5999ZM37.0749 23.7332L27.7 36.5184V23.7332H37.0749ZM27.7 40.7332H39.0333V41.8666H27.7V40.7332ZM29.6573 39.5999L39.0333 26.8148V39.5999H29.6573ZM39.0333 24.8977L28.2514 39.5999H27.7V38.4354L38.482 23.7332H39.0333V24.8977ZM12.9667 26.8148L22.3427 39.5999H12.9667V26.8148ZM12.9667 40.7332H24.3V41.8666H12.9667V40.7332ZM23.7486 39.5999L12.9667 24.8977V23.7332H13.518L24.3 38.4354V39.5999H23.7486ZM14.9239 23.7332H24.3V36.5184L14.9239 23.7332ZM26 13.0493L30.9521 15.7999H21.0479L26 13.0493ZM39.1132 20.3332H35.6333V18.4003L39.1132 20.3332ZM34.5 20.3332H33.3667V17.1412L34.5 17.7708V20.3332ZM32.2333 18.0666H19.7667V16.9332H32.2333V18.0666ZM19.7667 19.1999H32.2333V20.3332H19.7667V19.1999ZM18.6333 20.3332H17.5V17.7708L18.6333 17.1412V20.3332ZM16.3667 20.3332H12.8868L16.3667 18.4003V20.3332ZM41.5743 18.7041C41.6628 18.7531 41.7367 18.8249 41.7881 18.9121C41.8395 18.9993 41.8667 19.0987 41.8667 19.1999V20.3332H41.4468L26.5667 12.0678V10.4245L41.5743 18.7041ZM10.1333 19.1999C10.1334 19.099 10.1605 18.9999 10.2117 18.9129C10.2629 18.826 10.3364 18.7542 10.4246 18.7052L25.4333 10.4256V12.069L10.5532 20.3332H10.1333V19.1999ZM11.8333 41.8666H10.7V23.7332H11.8333V41.8666ZM26.5667 41.8666H25.4333V23.7332H26.5667V41.8666ZM40.1667 41.8666V23.7332H41.3V41.8666H40.1667Z" fill="#22532C"/>
</g>
<defs>
<clipPath id="clip0_293_1455">
<rect width="34" height="34" fill="white" transform="translate(9 9)"/>
</clipPath>
</defs>
</svg>
