<svg width="41" height="45" viewBox="0 0 41 45" fill="none" xmlns="http://www.w3.org/2000/svg">
<path d="M28.7089 42.6872C28.577 42.6055 28.4453 42.5209 28.3152 42.4319C27.7876 42.0831 27.2697 41.6721 26.7783 41.207C25.7882 40.2796 24.9434 39.1124 24.2601 37.8568C23.583 36.5955 23.0796 35.2373 22.6661 33.8738C22.2467 32.5102 21.9356 31.1244 21.6288 29.7627C21.3219 28.4009 21.0534 27.0496 20.7414 25.7456C20.4412 24.4378 20.1108 23.1734 19.7373 21.9727C19.3653 20.772 18.9457 19.6364 18.4844 18.59C18.0201 17.5449 17.5185 16.5861 17.0016 15.731C16.4847 14.8774 15.9615 14.1204 15.4599 13.4776C15.3329 13.3187 15.2101 13.1629 15.0912 13.0133C14.9677 12.8679 14.8467 12.7286 14.7326 12.5941C14.5092 12.3178 14.283 12.0846 14.088 11.8617C13.6882 11.4319 13.3613 11.1035 13.1301 10.882C12.9019 10.6577 12.7796 10.5392 12.7796 10.5392C12.7334 10.4941 12.7326 10.4165 12.7776 10.3678C12.8164 10.3247 12.879 10.317 12.9263 10.3458C12.9263 10.3458 13.0691 10.4368 13.3383 10.6078C13.6079 10.7713 13.993 11.047 14.4798 11.403C14.959 11.7647 15.5376 12.22 16.1498 12.805C16.7651 13.3856 17.4386 14.0715 18.1036 14.8912C18.7701 15.7095 19.4331 16.6498 20.0545 17.6986C20.6849 18.7433 21.2485 19.9059 21.7779 21.1282C22.2956 22.3544 22.7641 23.6485 23.1878 24.9661C23.6071 26.2865 24.0035 27.6253 24.3851 28.9456C24.7668 30.2659 25.1677 31.5571 25.6006 32.7767C26.0335 33.9963 26.5432 35.1209 27.1152 36.108C27.2847 36.3909 27.4609 36.6607 27.6421 36.9188C27.715 37.0665 27.7908 37.2128 27.8681 37.3576C28.5513 38.6132 29.3977 39.779 30.3863 40.7078C30.8775 41.1744 31.3955 41.5839 31.9232 41.9328C32.4459 42.2918 32.9819 42.5784 33.4996 42.836C34.5432 43.335 35.5379 43.6486 36.4192 43.8635C37.302 44.0785 38.0729 44.1903 38.707 44.2754C39.3405 44.3486 39.8356 44.3936 40.1724 44.4094C40.3407 44.4196 40.4701 44.4281 40.5578 44.4333C40.5798 44.4283 40.5986 44.4499 40.6163 44.4224C40.6354 44.3725 40.6648 44.1383 40.6943 43.8579C40.7091 43.7169 40.7214 43.5923 40.7326 43.4854C40.7477 43.3177 40.7611 43.1767 40.7697 43.0653C40.7898 42.8411 40.7999 42.7282 40.7999 42.7282C40.806 42.6555 40.8118 42.5648 40.8152 42.4905L40.8154 42.486C40.8154 42.486 40.8198 42.3729 40.8285 42.1468C40.8329 42.0337 40.839 41.8939 40.8454 41.7257C40.8479 41.6185 40.8516 41.4935 40.8564 41.3521C40.8643 41.0708 40.8678 40.8355 40.8567 40.7828C40.8442 40.754 40.8256 40.7726 40.8073 40.7658C40.7311 40.7611 40.6175 40.7548 40.4693 40.747C40.1727 40.7343 39.7433 40.6981 39.2027 40.6408C38.6642 40.5732 38.0132 40.4828 37.2964 40.3137C36.5827 40.1417 35.7981 39.9056 35.0049 39.5544C34.614 39.3693 34.2125 39.1689 33.8288 38.9156C33.8024 38.8996 33.7775 38.8821 33.7512 38.8646C46.5588 5.17393 0.961499 4.10399e-05 0.961499 4.10399e-05C13.3747 4.74507 2.48599 39.9638 28.7087 42.6873L28.7089 42.6872Z" fill="white"/>
</svg>
