<svg width="53" height="54" viewBox="0 0 53 54" fill="none" xmlns="http://www.w3.org/2000/svg">
<circle cx="26.5" cy="27.4528" r="26.5" fill="#FFF3ED"/>
<path d="M31.9769 42.7318C31.8818 42.673 31.7869 42.612 31.6931 42.5478C31.3126 42.2963 30.9392 41.9999 30.5849 41.6646C29.871 40.9959 29.2618 40.1543 28.7692 39.249C28.281 38.3395 27.918 37.3602 27.6198 36.3771C27.3175 35.3939 27.0932 34.3946 26.8719 33.4128C26.6507 32.4309 26.457 31.4566 26.2321 30.5164C26.0156 29.5734 25.7774 28.6616 25.5081 27.7959C25.2398 26.9302 24.9373 26.1114 24.6047 25.3568C24.2699 24.6033 23.9083 23.912 23.5356 23.2954C23.1628 22.6799 22.7856 22.1341 22.4239 21.6706C22.3323 21.556 22.2438 21.4437 22.158 21.3358C22.069 21.231 21.9817 21.1306 21.8995 21.0336C21.7384 20.8344 21.5753 20.6663 21.4347 20.5055C21.1465 20.1956 20.9107 19.9588 20.744 19.7991C20.5795 19.6374 20.4913 19.552 20.4913 19.552C20.458 19.5194 20.4574 19.4635 20.4899 19.4283C20.5179 19.3973 20.563 19.3917 20.5971 19.4125C20.5971 19.4125 20.7001 19.4781 20.8941 19.6014C21.0885 19.7193 21.3662 19.9181 21.7172 20.1748C22.0627 20.4356 22.4799 20.7639 22.9213 21.1857C23.365 21.6043 23.8506 22.0989 24.3301 22.6899C24.8107 23.2799 25.2887 23.9579 25.7368 24.7141C26.1913 25.4674 26.5977 26.3057 26.9794 27.187C27.3527 28.0711 27.6905 29.0043 27.9961 29.9543C28.2983 30.9063 28.5841 31.8716 28.8594 32.8236C29.1346 33.7756 29.4236 34.7067 29.7357 35.586C30.0479 36.4654 30.4154 37.2763 30.8278 37.988C30.9501 38.192 31.0771 38.3866 31.2078 38.5726C31.2603 38.6791 31.3149 38.7846 31.3707 38.8891C31.8633 39.7944 32.4736 40.6349 33.1864 41.3047C33.5406 41.641 33.9141 41.9363 34.2946 42.1879C34.6715 42.4468 35.058 42.6535 35.4312 42.8391C36.1837 43.1989 36.9009 43.4251 37.5364 43.58C38.1729 43.735 38.7288 43.8157 39.186 43.877C39.6427 43.9298 39.9997 43.9622 40.2426 43.9736C40.3639 43.981 40.4572 43.9871 40.5205 43.9909C40.5363 43.9872 40.5499 44.0029 40.5626 43.983C40.5764 43.947 40.5976 43.7782 40.6189 43.576C40.6296 43.4743 40.6384 43.3845 40.6465 43.3074C40.6574 43.1865 40.667 43.0848 40.6732 43.0045C40.6877 42.8428 40.695 42.7615 40.695 42.7615C40.6994 42.709 40.7036 42.6436 40.706 42.59L40.7062 42.5868C40.7062 42.5868 40.7094 42.5053 40.7157 42.3422C40.7188 42.2607 40.7232 42.1598 40.7278 42.0386C40.7297 41.9613 40.7323 41.8712 40.7357 41.7692C40.7414 41.5664 40.744 41.3967 40.736 41.3588C40.7269 41.338 40.7136 41.3514 40.7004 41.3465C40.6454 41.3431 40.5635 41.3385 40.4566 41.3329C40.2428 41.3238 39.9332 41.2977 39.5434 41.2564C39.1551 41.2076 38.6857 41.1424 38.1689 41.0205C37.6543 40.8965 37.0885 40.7262 36.5166 40.473C36.2347 40.3395 35.9453 40.195 35.6686 40.0124C35.6496 40.0008 35.6316 39.9882 35.6127 39.9756C44.8474 15.6834 11.97 11.9528 11.97 11.9528C20.9204 15.3741 13.0692 40.7682 31.9768 42.7319L31.9769 42.7318Z" fill="#22532C"/>
</svg>
