<svg width="266" height="177" viewBox="0 0 266 177" fill="none" xmlns="http://www.w3.org/2000/svg">
<path d="M30.2461 29.7773H215.65" stroke="#DAD8D8" stroke-width="5.20983"/>
<path d="M30.2461 42.5469H237" stroke="#DAD8D8" stroke-width="5.20983"/>
<path d="M30.2461 55.5723H215.65" stroke="#DAD8D8" stroke-width="5.20983"/>
<circle cx="35.2929" cy="72.7734" r="5.91401" fill="#F8FAF8"/>
<circle cx="51.0644" cy="72.7734" r="5.91401" fill="#F8FAF8"/>
<circle cx="66.832" cy="72.7734" r="5.42117" stroke="#F8FAF8" stroke-width="0.985668"/>
<circle cx="82.6072" cy="72.7734" r="5.42117" stroke="#F8FAF8" stroke-width="0.985668"/>
<circle cx="98.3786" cy="72.7734" r="5.42117" stroke="#F8FAF8" stroke-width="0.985668"/>
<path d="M54.918 9.55078H125.251" stroke="#F8FAF8" stroke-width="11.828"/>
<circle cx="37.3638" cy="9.36385" r="8.87101" fill="#F8FAF8" stroke="#F8FAF8" stroke-width="0.985668"/>
<path d="M30.2461 127.777H215.65" stroke="#DAD8D8" stroke-width="5.20983"/>
<path d="M30.2461 140.547H237" stroke="#DAD8D8" stroke-width="5.20983"/>
<path d="M30.2461 153.572H215.65" stroke="#DAD8D8" stroke-width="5.20983"/>
<circle cx="35.2929" cy="170.773" r="5.91401" fill="#F8FAF8"/>
<circle cx="51.0644" cy="170.773" r="5.91401" fill="#F8FAF8"/>
<circle cx="66.832" cy="170.773" r="5.42117" stroke="#F8FAF8" stroke-width="0.985668"/>
<circle cx="82.6072" cy="170.773" r="5.42117" stroke="#F8FAF8" stroke-width="0.985668"/>
<circle cx="98.3786" cy="170.773" r="5.42117" stroke="#F8FAF8" stroke-width="0.985668"/>
<path d="M54.918 107.551H125.251" stroke="#F8FAF8" stroke-width="11.828"/>
<circle cx="37.3638" cy="107.364" r="8.87101" fill="#F8FAF8" stroke="#F8FAF8" stroke-width="0.985668"/>
<line y1="87.5" x2="266" y2="87.5" stroke="white"/>
</svg>
