<svg width="350" height="212" viewBox="0 0 350 212" fill="none" xmlns="http://www.w3.org/2000/svg">
<path d="M261 142L88 142" stroke="#BFC0BF" stroke-width="2" stroke-linecap="round"/>
<path d="M101 40L263 40" stroke="#028352" stroke-width="2" stroke-linecap="round"/>
<path d="M262 40H332C333.657 40 335 41.3431 335 43V139C335 140.657 333.657 142 332 142H262" stroke="#028352" stroke-width="2" stroke-linecap="round" stroke-dasharray="4 6"/>
<circle cx="88.5" cy="40" r="20" fill="#A2A3A2" stroke="#FDFDFD" stroke-width="8"/>
<circle cx="88.5" cy="40" r="13.5" fill="#028352" stroke="#028352" stroke-width="5"/>
<g clip-path="url(#clip0_2000_7293)">
<path d="M93.917 30.6176C95.5509 31.561 96.9102 32.9148 97.8601 34.545C98.8101 36.1751 99.3178 38.0252 99.333 39.9119C99.3483 41.7985 98.8705 43.6565 97.947 45.3018C97.0235 46.9471 95.6863 48.3227 94.0678 49.2924C92.4493 50.2621 90.6056 50.7923 88.7193 50.8305C86.8329 50.8686 84.9693 50.4135 83.3128 49.5101C81.6564 48.6067 80.2647 47.2863 79.2754 45.6797C78.2861 44.0731 77.7335 42.236 77.6724 40.3502L77.667 39.9992L77.6724 39.6482C77.7331 37.7773 78.2775 35.954 79.2526 34.3561C80.2277 32.7583 81.6002 31.4403 83.2363 30.5308C84.8724 29.6212 86.7162 29.1512 88.5881 29.1664C90.4599 29.1816 92.2959 29.6816 93.917 30.6176ZM92.5162 37.0666C92.3297 36.8801 92.0815 36.7681 91.8182 36.7515C91.555 36.735 91.2947 36.815 91.0862 36.9767L90.9844 37.0666L87.417 40.633L86.0162 39.2333L85.9144 39.1434C85.706 38.9818 85.4457 38.9018 85.1825 38.9184C84.9193 38.9351 84.6712 39.0471 84.4847 39.2336C84.2982 39.4201 84.1861 39.6682 84.1695 39.9314C84.1529 40.1946 84.2329 40.4549 84.3945 40.6633L84.4844 40.7651L86.6511 42.9318L86.7529 43.0217C86.9429 43.1691 87.1765 43.2491 87.417 43.2491C87.6575 43.2491 87.8911 43.1691 88.0811 43.0217L88.1829 42.9318L92.5162 38.5985L92.6062 38.4966C92.7678 38.2882 92.8479 38.0279 92.8314 37.7647C92.8148 37.5014 92.7028 37.2532 92.5162 37.0666Z" fill="#FDFDFD"/>
</g>
<rect x="23" y="64" width="132" height="22" rx="10" fill="#028352"/>
<path d="M55.8 80L52.632 71.06H54.156L56.748 78.692H56.448L59.028 71.06H60.552L57.384 80H55.8ZM64.006 80.144C63.382 80.144 62.81 79.996 62.29 79.7C61.778 79.404 61.37 79 61.066 78.488C60.762 77.976 60.61 77.396 60.61 76.748C60.61 76.092 60.762 75.512 61.066 75.008C61.37 74.496 61.778 74.096 62.29 73.808C62.802 73.512 63.374 73.364 64.006 73.364C64.646 73.364 65.218 73.512 65.722 73.808C66.234 74.096 66.638 74.496 66.934 75.008C67.238 75.512 67.39 76.092 67.39 76.748C67.39 77.404 67.238 77.988 66.934 78.5C66.63 79.012 66.222 79.416 65.71 79.712C65.198 80 64.63 80.144 64.006 80.144ZM64.006 78.884C64.39 78.884 64.73 78.792 65.026 78.608C65.322 78.424 65.554 78.172 65.722 77.852C65.898 77.524 65.986 77.156 65.986 76.748C65.986 76.34 65.898 75.976 65.722 75.656C65.554 75.336 65.322 75.084 65.026 74.9C64.73 74.716 64.39 74.624 64.006 74.624C63.63 74.624 63.29 74.716 62.986 74.9C62.69 75.084 62.454 75.336 62.278 75.656C62.11 75.976 62.026 76.34 62.026 76.748C62.026 77.156 62.11 77.524 62.278 77.852C62.454 78.172 62.69 78.424 62.986 78.608C63.29 78.792 63.63 78.884 64.006 78.884ZM71.8459 80.144C71.2219 80.144 70.6499 79.996 70.1299 79.7C69.6179 79.404 69.2099 79 68.9059 78.488C68.6019 77.976 68.4499 77.396 68.4499 76.748C68.4499 76.092 68.6019 75.512 68.9059 75.008C69.2099 74.496 69.6179 74.096 70.1299 73.808C70.6419 73.512 71.2139 73.364 71.8459 73.364C72.4859 73.364 73.0579 73.512 73.5619 73.808C74.0739 74.096 74.4779 74.496 74.7739 75.008C75.0779 75.512 75.2299 76.092 75.2299 76.748C75.2299 77.404 75.0779 77.988 74.7739 78.5C74.4699 79.012 74.0619 79.416 73.5499 79.712C73.0379 80 72.4699 80.144 71.8459 80.144ZM71.8459 78.884C72.2299 78.884 72.5699 78.792 72.8659 78.608C73.1619 78.424 73.3939 78.172 73.5619 77.852C73.7379 77.524 73.8259 77.156 73.8259 76.748C73.8259 76.34 73.7379 75.976 73.5619 75.656C73.3939 75.336 73.1619 75.084 72.8659 74.9C72.5699 74.716 72.2299 74.624 71.8459 74.624C71.4699 74.624 71.1299 74.716 70.8259 74.9C70.5299 75.084 70.2939 75.336 70.1179 75.656C69.9499 75.976 69.8659 76.34 69.8659 76.748C69.8659 77.156 69.9499 77.524 70.1179 77.852C70.2939 78.172 70.5299 78.424 70.8259 78.608C71.1299 78.792 71.4699 78.884 71.8459 78.884ZM76.5537 80V73.508H77.8497V74.816L77.7297 74.624C77.8737 74.2 78.1057 73.896 78.4257 73.712C78.7457 73.52 79.1297 73.424 79.5777 73.424H79.9737V74.66H79.4097C78.9617 74.66 78.5977 74.8 78.3177 75.08C78.0457 75.352 77.9097 75.744 77.9097 76.256V80H76.5537ZM84.0334 82.64C83.5614 82.64 83.1254 82.564 82.7254 82.412C82.3254 82.26 81.9814 82.048 81.6934 81.776C81.4054 81.512 81.1894 81.2 81.0454 80.84L82.2934 80.324C82.4054 80.628 82.6094 80.88 82.9054 81.08C83.2094 81.28 83.5814 81.38 84.0214 81.38C84.3654 81.38 84.6734 81.312 84.9454 81.176C85.2174 81.048 85.4334 80.856 85.5934 80.6C85.7534 80.352 85.8334 80.052 85.8334 79.7V78.236L86.0734 78.512C85.8494 78.928 85.5374 79.244 85.1374 79.46C84.7454 79.676 84.3014 79.784 83.8054 79.784C83.2054 79.784 82.6654 79.644 82.1854 79.364C81.7054 79.084 81.3254 78.7 81.0454 78.212C80.7734 77.724 80.6374 77.176 80.6374 76.568C80.6374 75.952 80.7734 75.404 81.0454 74.924C81.3254 74.444 81.7014 74.064 82.1734 73.784C82.6454 73.504 83.1854 73.364 83.7934 73.364C84.2894 73.364 84.7294 73.472 85.1134 73.688C85.5054 73.896 85.8254 74.2 86.0734 74.6L85.8934 74.936V73.508H87.1774V79.7C87.1774 80.26 87.0414 80.76 86.7694 81.2C86.5054 81.648 86.1374 82 85.6654 82.256C85.1934 82.512 84.6494 82.64 84.0334 82.64ZM83.9614 78.524C84.3214 78.524 84.6414 78.44 84.9214 78.272C85.2014 78.096 85.4214 77.864 85.5814 77.576C85.7494 77.28 85.8334 76.948 85.8334 76.58C85.8334 76.212 85.7494 75.88 85.5814 75.584C85.4134 75.288 85.1894 75.056 84.9094 74.888C84.6294 74.712 84.3134 74.624 83.9614 74.624C83.5934 74.624 83.2654 74.712 82.9774 74.888C82.6894 75.056 82.4614 75.288 82.2934 75.584C82.1334 75.872 82.0534 76.204 82.0534 76.58C82.0534 76.94 82.1334 77.268 82.2934 77.564C82.4614 77.86 82.6894 78.096 82.9774 78.272C83.2654 78.44 83.5934 78.524 83.9614 78.524ZM91.8127 80.144C91.1647 80.144 90.5887 79.996 90.0847 79.7C89.5887 79.396 89.2007 78.988 88.9207 78.476C88.6407 77.956 88.5007 77.376 88.5007 76.736C88.5007 76.08 88.6407 75.5 88.9207 74.996C89.2087 74.492 89.5927 74.096 90.0727 73.808C90.5527 73.512 91.0967 73.364 91.7047 73.364C92.1927 73.364 92.6287 73.448 93.0127 73.616C93.3967 73.784 93.7207 74.016 93.9847 74.312C94.2487 74.6 94.4487 74.932 94.5847 75.308C94.7287 75.684 94.8007 76.084 94.8007 76.508C94.8007 76.612 94.7967 76.72 94.7887 76.832C94.7807 76.944 94.7647 77.048 94.7407 77.144H89.5687V76.064H93.9727L93.3247 76.556C93.4047 76.164 93.3767 75.816 93.2407 75.512C93.1127 75.2 92.9127 74.956 92.6407 74.78C92.3767 74.596 92.0647 74.504 91.7047 74.504C91.3447 74.504 91.0247 74.596 90.7447 74.78C90.4647 74.956 90.2487 75.212 90.0967 75.548C89.9447 75.876 89.8847 76.276 89.9167 76.748C89.8767 77.188 89.9367 77.572 90.0967 77.9C90.2647 78.228 90.4967 78.484 90.7927 78.668C91.0967 78.852 91.4407 78.944 91.8247 78.944C92.2167 78.944 92.5487 78.856 92.8207 78.68C93.1007 78.504 93.3207 78.276 93.4807 77.996L94.5847 78.536C94.4567 78.84 94.2567 79.116 93.9847 79.364C93.7207 79.604 93.4007 79.796 93.0247 79.94C92.6567 80.076 92.2527 80.144 91.8127 80.144ZM98.524 80.144C97.86 80.144 97.276 79.98 96.772 79.652C96.276 79.324 95.928 78.884 95.728 78.332L96.772 77.84C96.948 78.208 97.188 78.5 97.492 78.716C97.804 78.932 98.148 79.04 98.524 79.04C98.844 79.04 99.104 78.968 99.304 78.824C99.504 78.68 99.604 78.484 99.604 78.236C99.604 78.076 99.56 77.948 99.472 77.852C99.384 77.748 99.272 77.664 99.136 77.6C99.008 77.536 98.876 77.488 98.74 77.456L97.72 77.168C97.16 77.008 96.74 76.768 96.46 76.448C96.188 76.12 96.052 75.74 96.052 75.308C96.052 74.916 96.152 74.576 96.352 74.288C96.552 73.992 96.828 73.764 97.18 73.604C97.532 73.444 97.928 73.364 98.368 73.364C98.96 73.364 99.488 73.512 99.952 73.808C100.416 74.096 100.744 74.5 100.936 75.02L99.892 75.512C99.764 75.2 99.56 74.952 99.28 74.768C99.008 74.584 98.7 74.492 98.356 74.492C98.06 74.492 97.824 74.564 97.648 74.708C97.472 74.844 97.384 75.024 97.384 75.248C97.384 75.4 97.424 75.528 97.504 75.632C97.584 75.728 97.688 75.808 97.816 75.872C97.944 75.928 98.076 75.976 98.212 76.016L99.268 76.328C99.804 76.48 100.216 76.72 100.504 77.048C100.792 77.368 100.936 77.752 100.936 78.2C100.936 78.584 100.832 78.924 100.624 79.22C100.424 79.508 100.144 79.736 99.784 79.904C99.424 80.064 99.004 80.144 98.524 80.144ZM105.073 80.072C104.393 80.072 103.865 79.88 103.489 79.496C103.113 79.112 102.925 78.572 102.925 77.876V74.732H101.785V73.508H101.965C102.269 73.508 102.505 73.42 102.673 73.244C102.841 73.068 102.925 72.828 102.925 72.524V72.02H104.281V73.508H105.757V74.732H104.281V77.816C104.281 78.04 104.317 78.232 104.389 78.392C104.461 78.544 104.577 78.664 104.737 78.752C104.897 78.832 105.105 78.872 105.361 78.872C105.425 78.872 105.497 78.868 105.577 78.86C105.657 78.852 105.733 78.844 105.805 78.836V80C105.693 80.016 105.569 80.032 105.433 80.048C105.297 80.064 105.177 80.072 105.073 80.072ZM110.059 80.144C109.411 80.144 108.835 79.996 108.331 79.7C107.835 79.396 107.447 78.988 107.167 78.476C106.887 77.956 106.747 77.376 106.747 76.736C106.747 76.08 106.887 75.5 107.167 74.996C107.455 74.492 107.839 74.096 108.319 73.808C108.799 73.512 109.343 73.364 109.951 73.364C110.439 73.364 110.875 73.448 111.259 73.616C111.643 73.784 111.967 74.016 112.231 74.312C112.495 74.6 112.695 74.932 112.831 75.308C112.975 75.684 113.047 76.084 113.047 76.508C113.047 76.612 113.043 76.72 113.035 76.832C113.027 76.944 113.011 77.048 112.987 77.144H107.815V76.064H112.219L111.571 76.556C111.651 76.164 111.623 75.816 111.487 75.512C111.359 75.2 111.159 74.956 110.887 74.78C110.623 74.596 110.311 74.504 109.951 74.504C109.591 74.504 109.271 74.596 108.991 74.78C108.711 74.956 108.495 75.212 108.343 75.548C108.191 75.876 108.131 76.276 108.163 76.748C108.123 77.188 108.183 77.572 108.343 77.9C108.511 78.228 108.743 78.484 109.039 78.668C109.343 78.852 109.687 78.944 110.071 78.944C110.463 78.944 110.795 78.856 111.067 78.68C111.347 78.504 111.567 78.276 111.727 77.996L112.831 78.536C112.703 78.84 112.503 79.116 112.231 79.364C111.967 79.604 111.647 79.796 111.271 79.94C110.903 80.076 110.499 80.144 110.059 80.144ZM114.37 80V70.916H115.726V80H114.37ZM120.312 80.144C119.688 80.144 119.128 79.996 118.632 79.7C118.144 79.396 117.756 78.988 117.468 78.476C117.188 77.964 117.048 77.388 117.048 76.748C117.048 76.108 117.192 75.532 117.48 75.02C117.768 74.508 118.156 74.104 118.644 73.808C119.132 73.512 119.684 73.364 120.3 73.364C120.82 73.364 121.28 73.468 121.68 73.676C122.08 73.884 122.396 74.172 122.628 74.54L122.424 74.852V70.916H123.768V80H122.484V78.68L122.64 78.932C122.416 79.324 122.096 79.624 121.68 79.832C121.264 80.04 120.808 80.144 120.312 80.144ZM120.444 78.884C120.82 78.884 121.156 78.792 121.452 78.608C121.756 78.424 121.992 78.172 122.16 77.852C122.336 77.524 122.424 77.156 122.424 76.748C122.424 76.34 122.336 75.976 122.16 75.656C121.992 75.336 121.756 75.084 121.452 74.9C121.156 74.716 120.82 74.624 120.444 74.624C120.068 74.624 119.728 74.716 119.424 74.9C119.12 75.084 118.884 75.336 118.716 75.656C118.548 75.976 118.464 76.34 118.464 76.748C118.464 77.156 118.548 77.524 118.716 77.852C118.884 78.172 119.116 78.424 119.412 78.608C119.716 78.792 120.06 78.884 120.444 78.884Z" fill="#FDFDFD"/>
<circle cx="260.5" cy="40" r="20" fill="#A2A3A2" stroke="#FDFDFD" stroke-width="8"/>
<circle cx="260.5" cy="40" r="13.5" fill="#028352" stroke="#028352" stroke-width="5"/>
<g clip-path="url(#clip1_2000_7293)">
<path d="M265.917 30.6176C267.551 31.561 268.91 32.9148 269.86 34.545C270.81 36.1751 271.318 38.0252 271.333 39.9119C271.348 41.7985 270.871 43.6565 269.947 45.3018C269.024 46.9471 267.686 48.3227 266.068 49.2924C264.449 50.2621 262.606 50.7923 260.719 50.8305C258.833 50.8686 256.969 50.4135 255.313 49.5101C253.656 48.6067 252.265 47.2863 251.275 45.6797C250.286 44.0731 249.734 42.236 249.672 40.3502L249.667 39.9992L249.672 39.6482C249.733 37.7773 250.278 35.954 251.253 34.3561C252.228 32.7583 253.6 31.4403 255.236 30.5308C256.872 29.6212 258.716 29.1512 260.588 29.1664C262.46 29.1816 264.296 29.6816 265.917 30.6176ZM264.516 37.0666C264.33 36.8801 264.082 36.7681 263.818 36.7515C263.555 36.735 263.295 36.815 263.086 36.9767L262.984 37.0666L259.417 40.633L258.016 39.2333L257.914 39.1434C257.706 38.9818 257.446 38.9018 257.183 38.9184C256.919 38.9351 256.671 39.0471 256.485 39.2336C256.298 39.4201 256.186 39.6682 256.17 39.9314C256.153 40.1946 256.233 40.4549 256.394 40.6633L256.484 40.7651L258.651 42.9318L258.753 43.0217C258.943 43.1691 259.177 43.2491 259.417 43.2491C259.657 43.2491 259.891 43.1691 260.081 43.0217L260.183 42.9318L264.516 38.5985L264.606 38.4966C264.768 38.2882 264.848 38.0279 264.831 37.7647C264.815 37.5014 264.703 37.2532 264.516 37.0666Z" fill="#FDFDFD"/>
</g>
<rect x="195" y="64" width="132" height="22" rx="10" fill="#028352"/>
<path d="M209.424 80V71.06H210.84V80H209.424ZM212.562 80V73.508H213.858V74.78L213.702 74.612C213.862 74.204 214.118 73.896 214.47 73.688C214.822 73.472 215.23 73.364 215.694 73.364C216.174 73.364 216.598 73.468 216.966 73.676C217.334 73.884 217.622 74.172 217.83 74.54C218.038 74.908 218.142 75.332 218.142 75.812V80H216.798V76.172C216.798 75.844 216.738 75.568 216.618 75.344C216.498 75.112 216.326 74.936 216.102 74.816C215.886 74.688 215.638 74.624 215.358 74.624C215.078 74.624 214.826 74.688 214.602 74.816C214.386 74.936 214.218 75.112 214.098 75.344C213.978 75.576 213.918 75.852 213.918 76.172V80H212.562ZM224.822 80.144C224.198 80.144 223.626 79.996 223.106 79.7C222.594 79.404 222.186 79 221.882 78.488C221.578 77.976 221.426 77.396 221.426 76.748C221.426 76.092 221.578 75.512 221.882 75.008C222.186 74.496 222.594 74.096 223.106 73.808C223.618 73.512 224.19 73.364 224.822 73.364C225.462 73.364 226.034 73.512 226.538 73.808C227.05 74.096 227.454 74.496 227.75 75.008C228.054 75.512 228.206 76.092 228.206 76.748C228.206 77.404 228.054 77.988 227.75 78.5C227.446 79.012 227.038 79.416 226.526 79.712C226.014 80 225.446 80.144 224.822 80.144ZM224.822 78.884C225.206 78.884 225.546 78.792 225.842 78.608C226.138 78.424 226.37 78.172 226.538 77.852C226.714 77.524 226.802 77.156 226.802 76.748C226.802 76.34 226.714 75.976 226.538 75.656C226.37 75.336 226.138 75.084 225.842 74.9C225.546 74.716 225.206 74.624 224.822 74.624C224.446 74.624 224.106 74.716 223.802 74.9C223.506 75.084 223.27 75.336 223.094 75.656C222.926 75.976 222.842 76.34 222.842 76.748C222.842 77.156 222.926 77.524 223.094 77.852C223.27 78.172 223.506 78.424 223.802 78.608C224.106 78.792 224.446 78.884 224.822 78.884ZM229.53 80V73.508H230.826V74.78L230.67 74.612C230.83 74.204 231.086 73.896 231.438 73.688C231.79 73.472 232.198 73.364 232.662 73.364C233.142 73.364 233.566 73.468 233.934 73.676C234.302 73.884 234.59 74.172 234.798 74.54C235.006 74.908 235.11 75.332 235.11 75.812V80H233.766V76.172C233.766 75.844 233.706 75.568 233.586 75.344C233.466 75.112 233.294 74.936 233.07 74.816C232.854 74.688 232.606 74.624 232.326 74.624C232.046 74.624 231.794 74.688 231.57 74.816C231.354 74.936 231.186 75.112 231.066 75.344C230.946 75.576 230.886 75.852 230.886 76.172V80H229.53ZM239.562 80.144C238.938 80.144 238.378 79.996 237.882 79.7C237.394 79.396 237.006 78.988 236.718 78.476C236.438 77.964 236.298 77.388 236.298 76.748C236.298 76.108 236.442 75.532 236.73 75.02C237.018 74.508 237.406 74.104 237.894 73.808C238.382 73.512 238.934 73.364 239.55 73.364C240.07 73.364 240.53 73.468 240.93 73.676C241.33 73.884 241.646 74.172 241.878 74.54L241.674 74.852V70.916H243.018V80H241.734V78.68L241.89 78.932C241.666 79.324 241.346 79.624 240.93 79.832C240.514 80.04 240.058 80.144 239.562 80.144ZM239.694 78.884C240.07 78.884 240.406 78.792 240.702 78.608C241.006 78.424 241.242 78.172 241.41 77.852C241.586 77.524 241.674 77.156 241.674 76.748C241.674 76.34 241.586 75.976 241.41 75.656C241.242 75.336 241.006 75.084 240.702 74.9C240.406 74.716 240.07 74.624 239.694 74.624C239.318 74.624 238.978 74.716 238.674 74.9C238.37 75.084 238.134 75.336 237.966 75.656C237.798 75.976 237.714 76.34 237.714 76.748C237.714 77.156 237.798 77.524 237.966 77.852C238.134 78.172 238.366 78.424 238.662 78.608C238.966 78.792 239.31 78.884 239.694 78.884ZM247.649 80.144C247.001 80.144 246.425 79.996 245.921 79.7C245.425 79.396 245.037 78.988 244.757 78.476C244.477 77.956 244.337 77.376 244.337 76.736C244.337 76.08 244.477 75.5 244.757 74.996C245.045 74.492 245.429 74.096 245.909 73.808C246.389 73.512 246.933 73.364 247.541 73.364C248.029 73.364 248.465 73.448 248.849 73.616C249.233 73.784 249.557 74.016 249.821 74.312C250.085 74.6 250.285 74.932 250.421 75.308C250.565 75.684 250.637 76.084 250.637 76.508C250.637 76.612 250.633 76.72 250.625 76.832C250.617 76.944 250.601 77.048 250.577 77.144H245.405V76.064H249.809L249.161 76.556C249.241 76.164 249.213 75.816 249.077 75.512C248.949 75.2 248.749 74.956 248.477 74.78C248.213 74.596 247.901 74.504 247.541 74.504C247.181 74.504 246.861 74.596 246.581 74.78C246.301 74.956 246.085 75.212 245.933 75.548C245.781 75.876 245.721 76.276 245.753 76.748C245.713 77.188 245.773 77.572 245.933 77.9C246.101 78.228 246.333 78.484 246.629 78.668C246.933 78.852 247.277 78.944 247.661 78.944C248.053 78.944 248.385 78.856 248.657 78.68C248.937 78.504 249.157 78.276 249.317 77.996L250.421 78.536C250.293 78.84 250.093 79.116 249.821 79.364C249.557 79.604 249.237 79.796 248.861 79.94C248.493 80.076 248.089 80.144 247.649 80.144ZM251.96 80V73.508H253.256V74.816L253.136 74.624C253.28 74.2 253.512 73.896 253.832 73.712C254.152 73.52 254.536 73.424 254.984 73.424H255.38V74.66H254.816C254.368 74.66 254.004 74.8 253.724 75.08C253.452 75.352 253.316 75.744 253.316 76.256V80H251.96ZM256.308 80V70.916H257.664V74.78L257.448 74.612C257.608 74.204 257.864 73.896 258.216 73.688C258.568 73.472 258.976 73.364 259.44 73.364C259.92 73.364 260.344 73.468 260.712 73.676C261.08 73.884 261.368 74.172 261.576 74.54C261.784 74.908 261.888 75.328 261.888 75.8V80H260.544V76.172C260.544 75.844 260.48 75.568 260.352 75.344C260.232 75.112 260.064 74.936 259.848 74.816C259.632 74.688 259.384 74.624 259.104 74.624C258.832 74.624 258.584 74.688 258.36 74.816C258.144 74.936 257.972 75.112 257.844 75.344C257.724 75.576 257.664 75.852 257.664 76.172V80H256.308ZM265.283 80.144C264.843 80.144 264.455 80.068 264.119 79.916C263.791 79.756 263.535 79.54 263.351 79.268C263.167 78.988 263.075 78.66 263.075 78.284C263.075 77.932 263.151 77.616 263.303 77.336C263.463 77.056 263.707 76.82 264.035 76.628C264.363 76.436 264.775 76.3 265.271 76.22L267.527 75.848V76.916L265.535 77.264C265.175 77.328 264.911 77.444 264.743 77.612C264.575 77.772 264.491 77.98 264.491 78.236C264.491 78.484 264.583 78.688 264.767 78.848C264.959 79 265.203 79.076 265.499 79.076C265.867 79.076 266.187 78.996 266.459 78.836C266.739 78.676 266.955 78.464 267.107 78.2C267.259 77.928 267.335 77.628 267.335 77.3V75.632C267.335 75.312 267.215 75.052 266.975 74.852C266.743 74.644 266.431 74.54 266.039 74.54C265.679 74.54 265.363 74.636 265.091 74.828C264.827 75.012 264.631 75.252 264.503 75.548L263.375 74.984C263.495 74.664 263.691 74.384 263.963 74.144C264.235 73.896 264.551 73.704 264.911 73.568C265.279 73.432 265.667 73.364 266.075 73.364C266.587 73.364 267.039 73.46 267.431 73.652C267.831 73.844 268.139 74.112 268.355 74.456C268.579 74.792 268.691 75.184 268.691 75.632V80H267.395V78.824L267.671 78.86C267.519 79.124 267.323 79.352 267.083 79.544C266.851 79.736 266.583 79.884 266.279 79.988C265.983 80.092 265.651 80.144 265.283 80.144ZM270.276 80V73.508H271.572V74.78L271.416 74.612C271.576 74.204 271.832 73.896 272.184 73.688C272.536 73.472 272.944 73.364 273.408 73.364C273.888 73.364 274.312 73.468 274.68 73.676C275.048 73.884 275.336 74.172 275.544 74.54C275.752 74.908 275.856 75.332 275.856 75.812V80H274.512V76.172C274.512 75.844 274.452 75.568 274.332 75.344C274.212 75.112 274.04 74.936 273.816 74.816C273.6 74.688 273.352 74.624 273.072 74.624C272.792 74.624 272.54 74.688 272.316 74.816C272.1 74.936 271.932 75.112 271.812 75.344C271.692 75.576 271.632 75.852 271.632 76.172V80H270.276ZM280.308 80.144C279.684 80.144 279.124 79.996 278.628 79.7C278.14 79.396 277.752 78.988 277.464 78.476C277.184 77.964 277.044 77.388 277.044 76.748C277.044 76.108 277.188 75.532 277.476 75.02C277.764 74.508 278.152 74.104 278.64 73.808C279.128 73.512 279.68 73.364 280.296 73.364C280.816 73.364 281.276 73.468 281.676 73.676C282.076 73.884 282.392 74.172 282.624 74.54L282.42 74.852V70.916H283.764V80H282.48V78.68L282.636 78.932C282.412 79.324 282.092 79.624 281.676 79.832C281.26 80.04 280.804 80.144 280.308 80.144ZM280.44 78.884C280.816 78.884 281.152 78.792 281.448 78.608C281.752 78.424 281.988 78.172 282.156 77.852C282.332 77.524 282.42 77.156 282.42 76.748C282.42 76.34 282.332 75.976 282.156 75.656C281.988 75.336 281.752 75.084 281.448 74.9C281.152 74.716 280.816 74.624 280.44 74.624C280.064 74.624 279.724 74.716 279.42 74.9C279.116 75.084 278.88 75.336 278.712 75.656C278.544 75.976 278.46 76.34 278.46 76.748C278.46 77.156 278.544 77.524 278.712 77.852C278.88 78.172 279.112 78.424 279.408 78.608C279.712 78.792 280.056 78.884 280.44 78.884ZM288.395 80.144C287.747 80.144 287.171 79.996 286.667 79.7C286.171 79.396 285.783 78.988 285.503 78.476C285.223 77.956 285.083 77.376 285.083 76.736C285.083 76.08 285.223 75.5 285.503 74.996C285.791 74.492 286.175 74.096 286.655 73.808C287.135 73.512 287.679 73.364 288.287 73.364C288.775 73.364 289.211 73.448 289.595 73.616C289.979 73.784 290.303 74.016 290.567 74.312C290.831 74.6 291.031 74.932 291.167 75.308C291.311 75.684 291.383 76.084 291.383 76.508C291.383 76.612 291.379 76.72 291.371 76.832C291.363 76.944 291.347 77.048 291.323 77.144H286.151V76.064H290.555L289.907 76.556C289.987 76.164 289.959 75.816 289.823 75.512C289.695 75.2 289.495 74.956 289.223 74.78C288.959 74.596 288.647 74.504 288.287 74.504C287.927 74.504 287.607 74.596 287.327 74.78C287.047 74.956 286.831 75.212 286.679 75.548C286.527 75.876 286.467 76.276 286.499 76.748C286.459 77.188 286.519 77.572 286.679 77.9C286.847 78.228 287.079 78.484 287.375 78.668C287.679 78.852 288.023 78.944 288.407 78.944C288.799 78.944 289.131 78.856 289.403 78.68C289.683 78.504 289.903 78.276 290.063 77.996L291.167 78.536C291.039 78.84 290.839 79.116 290.567 79.364C290.303 79.604 289.983 79.796 289.607 79.94C289.239 80.076 288.835 80.144 288.395 80.144ZM292.706 80V70.916H294.062V80H292.706ZM295.647 80V73.508H297.003V80H295.647ZM295.647 72.62V71.06H297.003V72.62H295.647ZM298.589 80V73.508H299.885V74.78L299.729 74.612C299.889 74.204 300.145 73.896 300.497 73.688C300.849 73.472 301.257 73.364 301.721 73.364C302.201 73.364 302.625 73.468 302.993 73.676C303.361 73.884 303.649 74.172 303.857 74.54C304.065 74.908 304.169 75.332 304.169 75.812V80H302.825V76.172C302.825 75.844 302.765 75.568 302.645 75.344C302.525 75.112 302.353 74.936 302.129 74.816C301.913 74.688 301.665 74.624 301.385 74.624C301.105 74.624 300.853 74.688 300.629 74.816C300.413 74.936 300.245 75.112 300.125 75.344C300.005 75.576 299.945 75.852 299.945 76.172V80H298.589ZM308.752 82.64C308.28 82.64 307.844 82.564 307.444 82.412C307.044 82.26 306.7 82.048 306.412 81.776C306.124 81.512 305.908 81.2 305.764 80.84L307.012 80.324C307.124 80.628 307.328 80.88 307.624 81.08C307.928 81.28 308.3 81.38 308.74 81.38C309.084 81.38 309.392 81.312 309.664 81.176C309.936 81.048 310.152 80.856 310.312 80.6C310.472 80.352 310.552 80.052 310.552 79.7V78.236L310.792 78.512C310.568 78.928 310.256 79.244 309.856 79.46C309.464 79.676 309.02 79.784 308.524 79.784C307.924 79.784 307.384 79.644 306.904 79.364C306.424 79.084 306.044 78.7 305.764 78.212C305.492 77.724 305.356 77.176 305.356 76.568C305.356 75.952 305.492 75.404 305.764 74.924C306.044 74.444 306.42 74.064 306.892 73.784C307.364 73.504 307.904 73.364 308.512 73.364C309.008 73.364 309.448 73.472 309.832 73.688C310.224 73.896 310.544 74.2 310.792 74.6L310.612 74.936V73.508H311.896V79.7C311.896 80.26 311.76 80.76 311.488 81.2C311.224 81.648 310.856 82 310.384 82.256C309.912 82.512 309.368 82.64 308.752 82.64ZM308.68 78.524C309.04 78.524 309.36 78.44 309.64 78.272C309.92 78.096 310.14 77.864 310.3 77.576C310.468 77.28 310.552 76.948 310.552 76.58C310.552 76.212 310.468 75.88 310.3 75.584C310.132 75.288 309.908 75.056 309.628 74.888C309.348 74.712 309.032 74.624 308.68 74.624C308.312 74.624 307.984 74.712 307.696 74.888C307.408 75.056 307.18 75.288 307.012 75.584C306.852 75.872 306.772 76.204 306.772 76.58C306.772 76.94 306.852 77.268 307.012 77.564C307.18 77.86 307.408 78.096 307.696 78.272C307.984 78.44 308.312 78.524 308.68 78.524Z" fill="#FDFDFD"/>
<circle cx="88.5" cy="142" r="20" fill="#A2A3A2" stroke="#FDFDFD" stroke-width="8"/>
<circle cx="88.5" cy="142" r="13.5" fill="#DAD8D8" stroke="#F0F0F0" stroke-width="5"/>
<rect x="23" y="166" width="132" height="22" rx="10" fill="#F0F0F0"/>
<path d="M58.424 182V173.06H61.352C62.28 173.06 63.084 173.248 63.764 173.624C64.452 173.992 64.984 174.512 65.36 175.184C65.736 175.856 65.924 176.636 65.924 177.524C65.924 178.404 65.736 179.184 65.36 179.864C64.984 180.536 64.452 181.06 63.764 181.436C63.084 181.812 62.28 182 61.352 182H58.424ZM59.84 180.74H61.376C62.008 180.74 62.556 180.608 63.02 180.344C63.492 180.08 63.856 179.708 64.112 179.228C64.368 178.748 64.496 178.18 64.496 177.524C64.496 176.868 64.364 176.304 64.1 175.832C63.844 175.352 63.484 174.98 63.02 174.716C62.556 174.452 62.008 174.32 61.376 174.32H59.84V180.74ZM70.3185 182.144C69.6945 182.144 69.1225 181.996 68.6025 181.7C68.0905 181.404 67.6825 181 67.3785 180.488C67.0745 179.976 66.9225 179.396 66.9225 178.748C66.9225 178.092 67.0745 177.512 67.3785 177.008C67.6825 176.496 68.0905 176.096 68.6025 175.808C69.1145 175.512 69.6865 175.364 70.3185 175.364C70.9585 175.364 71.5305 175.512 72.0345 175.808C72.5465 176.096 72.9505 176.496 73.2465 177.008C73.5505 177.512 73.7025 178.092 73.7025 178.748C73.7025 179.404 73.5505 179.988 73.2465 180.5C72.9425 181.012 72.5345 181.416 72.0225 181.712C71.5105 182 70.9425 182.144 70.3185 182.144ZM70.3185 180.884C70.7025 180.884 71.0425 180.792 71.3385 180.608C71.6345 180.424 71.8665 180.172 72.0345 179.852C72.2105 179.524 72.2985 179.156 72.2985 178.748C72.2985 178.34 72.2105 177.976 72.0345 177.656C71.8665 177.336 71.6345 177.084 71.3385 176.9C71.0425 176.716 70.7025 176.624 70.3185 176.624C69.9425 176.624 69.6025 176.716 69.2985 176.9C69.0025 177.084 68.7665 177.336 68.5905 177.656C68.4225 177.976 68.3385 178.34 68.3385 178.748C68.3385 179.156 68.4225 179.524 68.5905 179.852C68.7665 180.172 69.0025 180.424 69.2985 180.608C69.6025 180.792 69.9425 180.884 70.3185 180.884ZM78.1584 182.144C77.5344 182.144 76.9624 181.996 76.4424 181.7C75.9304 181.404 75.5224 181 75.2184 180.488C74.9144 179.976 74.7624 179.396 74.7624 178.748C74.7624 178.092 74.9144 177.512 75.2184 177.008C75.5224 176.496 75.9304 176.096 76.4424 175.808C76.9544 175.512 77.5264 175.364 78.1584 175.364C78.7984 175.364 79.3704 175.512 79.8744 175.808C80.3864 176.096 80.7904 176.496 81.0864 177.008C81.3904 177.512 81.5424 178.092 81.5424 178.748C81.5424 179.404 81.3904 179.988 81.0864 180.5C80.7824 181.012 80.3744 181.416 79.8624 181.712C79.3504 182 78.7824 182.144 78.1584 182.144ZM78.1584 180.884C78.5424 180.884 78.8824 180.792 79.1784 180.608C79.4744 180.424 79.7064 180.172 79.8744 179.852C80.0504 179.524 80.1384 179.156 80.1384 178.748C80.1384 178.34 80.0504 177.976 79.8744 177.656C79.7064 177.336 79.4744 177.084 79.1784 176.9C78.8824 176.716 78.5424 176.624 78.1584 176.624C77.7824 176.624 77.4424 176.716 77.1384 176.9C76.8424 177.084 76.6064 177.336 76.4304 177.656C76.2624 177.976 76.1784 178.34 76.1784 178.748C76.1784 179.156 76.2624 179.524 76.4304 179.852C76.6064 180.172 76.8424 180.424 77.1384 180.608C77.4424 180.792 77.7824 180.884 78.1584 180.884ZM82.8662 182V175.508H84.1622V176.816L84.0422 176.624C84.1862 176.2 84.4182 175.896 84.7382 175.712C85.0582 175.52 85.4422 175.424 85.8902 175.424H86.2862V176.66H85.7222C85.2742 176.66 84.9102 176.8 84.6302 177.08C84.3582 177.352 84.2222 177.744 84.2222 178.256V182H82.8662ZM90.3459 184.64C89.8739 184.64 89.4379 184.564 89.0379 184.412C88.6379 184.26 88.2939 184.048 88.0059 183.776C87.7179 183.512 87.5019 183.2 87.3579 182.84L88.6059 182.324C88.7179 182.628 88.9219 182.88 89.2179 183.08C89.5219 183.28 89.8939 183.38 90.3339 183.38C90.6779 183.38 90.9859 183.312 91.2579 183.176C91.5299 183.048 91.7459 182.856 91.9059 182.6C92.0659 182.352 92.1459 182.052 92.1459 181.7V180.236L92.3859 180.512C92.1619 180.928 91.8499 181.244 91.4499 181.46C91.0579 181.676 90.6139 181.784 90.1179 181.784C89.5179 181.784 88.9779 181.644 88.4979 181.364C88.0179 181.084 87.6379 180.7 87.3579 180.212C87.0859 179.724 86.9499 179.176 86.9499 178.568C86.9499 177.952 87.0859 177.404 87.3579 176.924C87.6379 176.444 88.0139 176.064 88.4859 175.784C88.9579 175.504 89.4979 175.364 90.1059 175.364C90.6019 175.364 91.0419 175.472 91.4259 175.688C91.8179 175.896 92.1379 176.2 92.3859 176.6L92.2059 176.936V175.508H93.4899V181.7C93.4899 182.26 93.3539 182.76 93.0819 183.2C92.8179 183.648 92.4499 184 91.9779 184.256C91.5059 184.512 90.9619 184.64 90.3459 184.64ZM90.2739 180.524C90.6339 180.524 90.9539 180.44 91.2339 180.272C91.5139 180.096 91.7339 179.864 91.8939 179.576C92.0619 179.28 92.1459 178.948 92.1459 178.58C92.1459 178.212 92.0619 177.88 91.8939 177.584C91.7259 177.288 91.5019 177.056 91.2219 176.888C90.9419 176.712 90.6259 176.624 90.2739 176.624C89.9059 176.624 89.5779 176.712 89.2899 176.888C89.0019 177.056 88.7739 177.288 88.6059 177.584C88.4459 177.872 88.3659 178.204 88.3659 178.58C88.3659 178.94 88.4459 179.268 88.6059 179.564C88.7739 179.86 89.0019 180.096 89.2899 180.272C89.5779 180.44 89.9059 180.524 90.2739 180.524ZM98.1252 182.144C97.4772 182.144 96.9012 181.996 96.3972 181.7C95.9012 181.396 95.5132 180.988 95.2332 180.476C94.9532 179.956 94.8132 179.376 94.8132 178.736C94.8132 178.08 94.9532 177.5 95.2332 176.996C95.5212 176.492 95.9052 176.096 96.3852 175.808C96.8652 175.512 97.4092 175.364 98.0172 175.364C98.5052 175.364 98.9412 175.448 99.3252 175.616C99.7092 175.784 100.033 176.016 100.297 176.312C100.561 176.6 100.761 176.932 100.897 177.308C101.041 177.684 101.113 178.084 101.113 178.508C101.113 178.612 101.109 178.72 101.101 178.832C101.093 178.944 101.077 179.048 101.053 179.144H95.8812V178.064H100.285L99.6372 178.556C99.7172 178.164 99.6892 177.816 99.5532 177.512C99.4252 177.2 99.2252 176.956 98.9532 176.78C98.6892 176.596 98.3772 176.504 98.0172 176.504C97.6572 176.504 97.3372 176.596 97.0572 176.78C96.7772 176.956 96.5612 177.212 96.4092 177.548C96.2572 177.876 96.1972 178.276 96.2292 178.748C96.1892 179.188 96.2492 179.572 96.4092 179.9C96.5772 180.228 96.8092 180.484 97.1052 180.668C97.4092 180.852 97.7532 180.944 98.1372 180.944C98.5292 180.944 98.8612 180.856 99.1332 180.68C99.4132 180.504 99.6332 180.276 99.7932 179.996L100.897 180.536C100.769 180.84 100.569 181.116 100.297 181.364C100.033 181.604 99.7132 181.796 99.3372 181.94C98.9692 182.076 98.5652 182.144 98.1252 182.144ZM101.849 182V180.884L105.665 176.264L105.881 176.732H102.029V175.508H107.081V176.612L103.313 181.244L103.097 180.764H107.093V182H101.849ZM111.133 182.144C110.485 182.144 109.909 181.996 109.405 181.7C108.909 181.396 108.521 180.988 108.241 180.476C107.961 179.956 107.821 179.376 107.821 178.736C107.821 178.08 107.961 177.5 108.241 176.996C108.529 176.492 108.913 176.096 109.393 175.808C109.873 175.512 110.417 175.364 111.025 175.364C111.513 175.364 111.949 175.448 112.333 175.616C112.717 175.784 113.041 176.016 113.305 176.312C113.569 176.6 113.769 176.932 113.905 177.308C114.049 177.684 114.121 178.084 114.121 178.508C114.121 178.612 114.117 178.72 114.109 178.832C114.101 178.944 114.085 179.048 114.061 179.144H108.889V178.064H113.293L112.645 178.556C112.725 178.164 112.697 177.816 112.561 177.512C112.433 177.2 112.233 176.956 111.961 176.78C111.697 176.596 111.385 176.504 111.025 176.504C110.665 176.504 110.345 176.596 110.065 176.78C109.785 176.956 109.569 177.212 109.417 177.548C109.265 177.876 109.205 178.276 109.237 178.748C109.197 179.188 109.257 179.572 109.417 179.9C109.585 180.228 109.817 180.484 110.113 180.668C110.417 180.852 110.761 180.944 111.145 180.944C111.537 180.944 111.869 180.856 112.141 180.68C112.421 180.504 112.641 180.276 112.801 179.996L113.905 180.536C113.777 180.84 113.577 181.116 113.305 181.364C113.041 181.604 112.721 181.796 112.345 181.94C111.977 182.076 111.573 182.144 111.133 182.144ZM118.252 182.072C117.572 182.072 117.044 181.88 116.668 181.496C116.292 181.112 116.104 180.572 116.104 179.876V176.732H114.964V175.508H115.144C115.448 175.508 115.684 175.42 115.852 175.244C116.02 175.068 116.104 174.828 116.104 174.524V174.02H117.46V175.508H118.936V176.732H117.46V179.816C117.46 180.04 117.496 180.232 117.568 180.392C117.64 180.544 117.756 180.664 117.916 180.752C118.076 180.832 118.284 180.872 118.54 180.872C118.604 180.872 118.676 180.868 118.756 180.86C118.836 180.852 118.912 180.844 118.984 180.836V182C118.872 182.016 118.748 182.032 118.612 182.048C118.476 182.064 118.356 182.072 118.252 182.072Z" fill="#676868"/>
<circle cx="260.5" cy="142" r="20" fill="#A2A3A2" stroke="#FDFDFD" stroke-width="8"/>
<circle cx="260.5" cy="142" r="13.5" fill="#028352" stroke="#028352" stroke-width="5"/>
<g clip-path="url(#clip2_2000_7293)">
<path d="M265.917 132.618C267.551 133.561 268.91 134.915 269.86 136.545C270.81 138.175 271.318 140.025 271.333 141.912C271.348 143.799 270.871 145.657 269.947 147.302C269.024 148.947 267.686 150.323 266.068 151.292C264.449 152.262 262.606 152.792 260.719 152.83C258.833 152.869 256.969 152.413 255.313 151.51C253.656 150.607 252.265 149.286 251.275 147.68C250.286 146.073 249.734 144.236 249.672 142.35L249.667 141.999L249.672 141.648C249.733 139.777 250.278 137.954 251.253 136.356C252.228 134.758 253.6 133.44 255.236 132.531C256.872 131.621 258.716 131.151 260.588 131.166C262.46 131.182 264.296 131.682 265.917 132.618ZM264.516 139.067C264.33 138.88 264.082 138.768 263.818 138.752C263.555 138.735 263.295 138.815 263.086 138.977L262.984 139.067L259.417 142.633L258.016 141.233L257.914 141.143C257.706 140.982 257.446 140.902 257.183 140.918C256.919 140.935 256.671 141.047 256.485 141.234C256.298 141.42 256.186 141.668 256.17 141.931C256.153 142.195 256.233 142.455 256.394 142.663L256.484 142.765L258.651 144.932L258.753 145.022C258.943 145.169 259.177 145.249 259.417 145.249C259.657 145.249 259.891 145.169 260.081 145.022L260.183 144.932L264.516 140.598L264.606 140.497C264.768 140.288 264.848 140.028 264.831 139.765C264.815 139.501 264.703 139.253 264.516 139.067Z" fill="#FDFDFD"/>
</g>
<rect x="195" y="166" width="132" height="22" rx="10" fill="#028352"/>
<path d="M222.132 182L225.276 173.06H227.028L230.172 182H228.66L227.976 179.996H224.34L223.644 182H222.132ZM224.748 178.736H227.544L225.96 174.056H226.356L224.748 178.736ZM233.045 182.144C232.605 182.144 232.217 182.068 231.881 181.916C231.553 181.756 231.297 181.54 231.113 181.268C230.929 180.988 230.837 180.66 230.837 180.284C230.837 179.932 230.913 179.616 231.065 179.336C231.225 179.056 231.469 178.82 231.797 178.628C232.125 178.436 232.537 178.3 233.033 178.22L235.289 177.848V178.916L233.297 179.264C232.937 179.328 232.673 179.444 232.505 179.612C232.337 179.772 232.253 179.98 232.253 180.236C232.253 180.484 232.345 180.688 232.529 180.848C232.721 181 232.965 181.076 233.261 181.076C233.629 181.076 233.949 180.996 234.221 180.836C234.501 180.676 234.717 180.464 234.869 180.2C235.021 179.928 235.097 179.628 235.097 179.3V177.632C235.097 177.312 234.977 177.052 234.737 176.852C234.505 176.644 234.193 176.54 233.801 176.54C233.441 176.54 233.125 176.636 232.853 176.828C232.589 177.012 232.393 177.252 232.265 177.548L231.137 176.984C231.257 176.664 231.453 176.384 231.725 176.144C231.997 175.896 232.313 175.704 232.673 175.568C233.041 175.432 233.429 175.364 233.837 175.364C234.349 175.364 234.801 175.46 235.193 175.652C235.593 175.844 235.901 176.112 236.117 176.456C236.341 176.792 236.453 177.184 236.453 177.632V182H235.157V180.824L235.433 180.86C235.281 181.124 235.085 181.352 234.845 181.544C234.613 181.736 234.345 181.884 234.041 181.988C233.745 182.092 233.413 182.144 233.045 182.144ZM238.038 182V175.508H239.334V176.78L239.178 176.612C239.338 176.204 239.594 175.896 239.946 175.688C240.298 175.472 240.706 175.364 241.17 175.364C241.65 175.364 242.074 175.468 242.442 175.676C242.81 175.884 243.098 176.172 243.306 176.54C243.514 176.908 243.618 177.332 243.618 177.812V182H242.274V178.172C242.274 177.844 242.214 177.568 242.094 177.344C241.974 177.112 241.802 176.936 241.578 176.816C241.362 176.688 241.114 176.624 240.834 176.624C240.554 176.624 240.302 176.688 240.078 176.816C239.862 176.936 239.694 177.112 239.574 177.344C239.454 177.576 239.394 177.852 239.394 178.172V182H238.038ZM248.201 184.64C247.729 184.64 247.293 184.564 246.893 184.412C246.493 184.26 246.149 184.048 245.861 183.776C245.573 183.512 245.357 183.2 245.213 182.84L246.461 182.324C246.573 182.628 246.777 182.88 247.073 183.08C247.377 183.28 247.749 183.38 248.189 183.38C248.533 183.38 248.841 183.312 249.113 183.176C249.385 183.048 249.601 182.856 249.761 182.6C249.921 182.352 250.001 182.052 250.001 181.7V180.236L250.241 180.512C250.017 180.928 249.705 181.244 249.305 181.46C248.913 181.676 248.469 181.784 247.973 181.784C247.373 181.784 246.833 181.644 246.353 181.364C245.873 181.084 245.493 180.7 245.213 180.212C244.941 179.724 244.805 179.176 244.805 178.568C244.805 177.952 244.941 177.404 245.213 176.924C245.493 176.444 245.869 176.064 246.341 175.784C246.813 175.504 247.353 175.364 247.961 175.364C248.457 175.364 248.897 175.472 249.281 175.688C249.673 175.896 249.993 176.2 250.241 176.6L250.061 176.936V175.508H251.345V181.7C251.345 182.26 251.209 182.76 250.937 183.2C250.673 183.648 250.305 184 249.833 184.256C249.361 184.512 248.817 184.64 248.201 184.64ZM248.129 180.524C248.489 180.524 248.809 180.44 249.089 180.272C249.369 180.096 249.589 179.864 249.749 179.576C249.917 179.28 250.001 178.948 250.001 178.58C250.001 178.212 249.917 177.88 249.749 177.584C249.581 177.288 249.357 177.056 249.077 176.888C248.797 176.712 248.481 176.624 248.129 176.624C247.761 176.624 247.433 176.712 247.145 176.888C246.857 177.056 246.629 177.288 246.461 177.584C246.301 177.872 246.221 178.204 246.221 178.58C246.221 178.94 246.301 179.268 246.461 179.564C246.629 179.86 246.857 180.096 247.145 180.272C247.433 180.44 247.761 180.524 248.129 180.524ZM255.981 182.144C255.333 182.144 254.757 181.996 254.253 181.7C253.757 181.396 253.369 180.988 253.089 180.476C252.809 179.956 252.669 179.376 252.669 178.736C252.669 178.08 252.809 177.5 253.089 176.996C253.377 176.492 253.761 176.096 254.241 175.808C254.721 175.512 255.265 175.364 255.873 175.364C256.361 175.364 256.797 175.448 257.181 175.616C257.565 175.784 257.889 176.016 258.153 176.312C258.417 176.6 258.617 176.932 258.753 177.308C258.897 177.684 258.969 178.084 258.969 178.508C258.969 178.612 258.965 178.72 258.957 178.832C258.949 178.944 258.933 179.048 258.909 179.144H253.737V178.064H258.141L257.493 178.556C257.573 178.164 257.545 177.816 257.409 177.512C257.281 177.2 257.081 176.956 256.809 176.78C256.545 176.596 256.233 176.504 255.873 176.504C255.513 176.504 255.193 176.596 254.913 176.78C254.633 176.956 254.417 177.212 254.265 177.548C254.113 177.876 254.053 178.276 254.085 178.748C254.045 179.188 254.105 179.572 254.265 179.9C254.433 180.228 254.665 180.484 254.961 180.668C255.265 180.852 255.609 180.944 255.993 180.944C256.385 180.944 256.717 180.856 256.989 180.68C257.269 180.504 257.489 180.276 257.649 179.996L258.753 180.536C258.625 180.84 258.425 181.116 258.153 181.364C257.889 181.604 257.569 181.796 257.193 181.94C256.825 182.076 256.421 182.144 255.981 182.144ZM260.292 182V175.508H261.588V176.78L261.432 176.612C261.592 176.204 261.848 175.896 262.2 175.688C262.552 175.472 262.96 175.364 263.424 175.364C263.904 175.364 264.328 175.468 264.696 175.676C265.064 175.884 265.352 176.172 265.56 176.54C265.768 176.908 265.872 177.332 265.872 177.812V182H264.528V178.172C264.528 177.844 264.468 177.568 264.348 177.344C264.228 177.112 264.056 176.936 263.832 176.816C263.616 176.688 263.368 176.624 263.088 176.624C262.808 176.624 262.556 176.688 262.332 176.816C262.116 176.936 261.948 177.112 261.828 177.344C261.708 177.576 261.648 177.852 261.648 178.172V182H260.292ZM270.455 182.144C269.831 182.144 269.259 181.996 268.739 181.7C268.227 181.404 267.819 181 267.515 180.488C267.211 179.976 267.059 179.396 267.059 178.748C267.059 178.092 267.211 177.512 267.515 177.008C267.819 176.496 268.227 176.096 268.739 175.808C269.251 175.512 269.823 175.364 270.455 175.364C271.095 175.364 271.667 175.512 272.171 175.808C272.683 176.096 273.087 176.496 273.383 177.008C273.687 177.512 273.839 178.092 273.839 178.748C273.839 179.404 273.687 179.988 273.383 180.5C273.079 181.012 272.671 181.416 272.159 181.712C271.647 182 271.079 182.144 270.455 182.144ZM270.455 180.884C270.839 180.884 271.179 180.792 271.475 180.608C271.771 180.424 272.003 180.172 272.171 179.852C272.347 179.524 272.435 179.156 272.435 178.748C272.435 178.34 272.347 177.976 272.171 177.656C272.003 177.336 271.771 177.084 271.475 176.9C271.179 176.716 270.839 176.624 270.455 176.624C270.079 176.624 269.739 176.716 269.435 176.9C269.139 177.084 268.903 177.336 268.727 177.656C268.559 177.976 268.475 178.34 268.475 178.748C268.475 179.156 268.559 179.524 268.727 179.852C268.903 180.172 269.139 180.424 269.435 180.608C269.739 180.792 270.079 180.884 270.455 180.884ZM275.163 182V175.508H276.459V176.912L276.291 176.696C276.427 176.256 276.675 175.924 277.035 175.7C277.395 175.476 277.807 175.364 278.271 175.364C278.791 175.364 279.251 175.504 279.651 175.784C280.059 176.056 280.331 176.42 280.467 176.876L280.083 176.912C280.275 176.392 280.567 176.004 280.959 175.748C281.359 175.492 281.815 175.364 282.327 175.364C282.775 175.364 283.179 175.468 283.539 175.676C283.907 175.884 284.199 176.172 284.415 176.54C284.631 176.908 284.739 177.328 284.739 177.8V182H283.383V178.172C283.383 177.844 283.323 177.568 283.203 177.344C283.091 177.112 282.931 176.936 282.723 176.816C282.523 176.688 282.287 176.624 282.015 176.624C281.743 176.624 281.503 176.688 281.295 176.816C281.087 176.936 280.923 177.112 280.803 177.344C280.683 177.576 280.623 177.852 280.623 178.172V182H279.279V178.172C279.279 177.844 279.219 177.568 279.099 177.344C278.987 177.112 278.827 176.936 278.619 176.816C278.419 176.688 278.179 176.624 277.899 176.624C277.627 176.624 277.387 176.688 277.179 176.816C276.971 176.936 276.807 177.112 276.687 177.344C276.575 177.576 276.519 177.852 276.519 178.172V182H275.163ZM289.238 182.144C288.59 182.144 288.014 181.996 287.51 181.7C287.014 181.396 286.626 180.988 286.346 180.476C286.066 179.956 285.926 179.376 285.926 178.736C285.926 178.08 286.066 177.5 286.346 176.996C286.634 176.492 287.018 176.096 287.498 175.808C287.978 175.512 288.522 175.364 289.13 175.364C289.618 175.364 290.054 175.448 290.438 175.616C290.822 175.784 291.146 176.016 291.41 176.312C291.674 176.6 291.874 176.932 292.01 177.308C292.154 177.684 292.226 178.084 292.226 178.508C292.226 178.612 292.222 178.72 292.214 178.832C292.206 178.944 292.19 179.048 292.166 179.144H286.994V178.064H291.398L290.75 178.556C290.83 178.164 290.802 177.816 290.666 177.512C290.538 177.2 290.338 176.956 290.066 176.78C289.802 176.596 289.49 176.504 289.13 176.504C288.77 176.504 288.45 176.596 288.17 176.78C287.89 176.956 287.674 177.212 287.522 177.548C287.37 177.876 287.31 178.276 287.342 178.748C287.302 179.188 287.362 179.572 287.522 179.9C287.69 180.228 287.922 180.484 288.218 180.668C288.522 180.852 288.866 180.944 289.25 180.944C289.642 180.944 289.974 180.856 290.246 180.68C290.526 180.504 290.746 180.276 290.906 179.996L292.01 180.536C291.882 180.84 291.682 181.116 291.41 181.364C291.146 181.604 290.826 181.796 290.45 181.94C290.082 182.076 289.678 182.144 289.238 182.144ZM293.55 182V175.508H294.846V176.78L294.69 176.612C294.85 176.204 295.106 175.896 295.458 175.688C295.81 175.472 296.218 175.364 296.682 175.364C297.162 175.364 297.586 175.468 297.954 175.676C298.322 175.884 298.61 176.172 298.818 176.54C299.026 176.908 299.13 177.332 299.13 177.812V182H297.786V178.172C297.786 177.844 297.726 177.568 297.606 177.344C297.486 177.112 297.314 176.936 297.09 176.816C296.874 176.688 296.626 176.624 296.346 176.624C296.066 176.624 295.814 176.688 295.59 176.816C295.374 176.936 295.206 177.112 295.086 177.344C294.966 177.576 294.906 177.852 294.906 178.172V182H293.55Z" fill="#FDFDFD"/>
<defs>
<clipPath id="clip0_2000_7293">
<rect width="26" height="26" fill="white" transform="translate(75.5 27)"/>
</clipPath>
<clipPath id="clip1_2000_7293">
<rect width="26" height="26" fill="white" transform="translate(247.5 27)"/>
</clipPath>
<clipPath id="clip2_2000_7293">
<rect width="26" height="26" fill="white" transform="translate(247.5 129)"/>
</clipPath>
</defs>
</svg>
