<svg width="44" height="46" viewBox="0 0 44 46" fill="none" xmlns="http://www.w3.org/2000/svg">
<g clip-path="url(#clip0_10_205)">
<path d="M29.443 26.3528H14.9556C12.601 26.3558 10.3437 27.336 8.67875 29.0784C7.0138 30.8208 6.07719 33.1831 6.07434 35.6472V45.1028H38.3243V35.6472C38.3215 33.1831 37.3849 30.8208 35.7199 29.0784C34.055 27.336 31.7976 26.3558 29.443 26.3528Z" fill="white"/>
<path d="M22.1993 22.6017C28.1364 22.6017 32.9493 17.5649 32.9493 11.3517C32.9493 5.13848 28.1364 0.101685 22.1993 0.101685C16.2623 0.101685 11.4493 5.13848 11.4493 11.3517C11.4493 17.5649 16.2623 22.6017 22.1993 22.6017Z" fill="white"/>
</g>
<defs>
<clipPath id="clip0_10_205">
<rect width="43" height="45" fill="white" transform="translate(0.699341 0.101685)"/>
</clipPath>
</defs>
</svg>
