<svg width="53" height="54" viewBox="0 0 53 54" fill="none" xmlns="http://www.w3.org/2000/svg">
<circle cx="26.5" cy="27.4528" r="26.5" fill="#FFF3ED"/>
<g clip-path="url(#clip0_293_1435)">
<path d="M32.0591 29.3704H20.9409C19.1339 29.3727 17.4015 30.135 16.1237 31.4902C14.846 32.8454 14.1272 34.6828 14.125 36.5993V43.9537H38.875V36.5993C38.8728 34.6828 38.154 32.8454 36.8763 31.4902C35.5985 30.135 33.8661 29.3727 32.0591 29.3704V29.3704Z" fill="#22532C"/>
<path d="M26.5 26.4528C31.0563 26.4528 34.75 22.5353 34.75 17.7028C34.75 12.8703 31.0563 8.95282 26.5 8.95282C21.9437 8.95282 18.25 12.8703 18.25 17.7028C18.25 22.5353 21.9437 26.4528 26.5 26.4528Z" fill="#22532C"/>
</g>
<defs>
<clipPath id="clip0_293_1435">
<rect width="33" height="35" fill="white" transform="translate(10 8.95282)"/>
</clipPath>
</defs>
</svg>
