<svg width="85" height="89" viewBox="0 0 85 89" fill="none" xmlns="http://www.w3.org/2000/svg">
<rect width="85" height="89" rx="8" fill="#ECA985"/>
<path d="M42.6143 44.613C31.0115 43.2006 21.8678 34.0569 20.4553 22.4541C32.0581 23.8666 41.2018 33.0102 42.6143 44.613Z" fill="#FDFDFD"/>
<path d="M64.7725 66.7726C53.1697 65.3601 44.026 56.2165 42.6135 44.6137C54.2163 46.0261 63.36 55.1698 64.7725 66.7726Z" fill="#FDFDFD"/>
<path d="M42.6143 44.613C41.2018 56.2158 32.0581 65.3595 20.4553 66.772C21.8678 55.1692 31.0115 46.0255 42.6143 44.613Z" fill="#FDFDFD"/>
<path d="M64.7725 22.4542C63.36 34.057 54.2163 43.2007 42.6135 44.6131C44.026 33.0103 53.1697 23.8667 64.7725 22.4542Z" fill="#FDFDFD"/>
</svg>
