<svg width="85" height="89" viewBox="0 0 85 89" fill="none" xmlns="http://www.w3.org/2000/svg">
<rect x="85" y="89" width="85" height="89" rx="8" transform="rotate(-180 85 89)" fill="#E9A63B"/>
<path d="M22.1015 47.3551C20.8186 46.0721 20.8186 43.9921 22.1015 42.7091C23.3844 41.4262 25.4645 41.4262 26.7474 42.7091L31.1889 47.1507C34.0524 50.0141 38.9485 47.9861 38.9485 43.9366L38.9485 29.734C38.9485 27.9198 40.4191 26.4491 42.2333 26.4491C44.0475 26.4491 45.5182 27.9198 45.5182 29.734L45.5182 44.7114C45.5182 48.7609 50.4143 50.7889 53.2777 47.9255L58.494 42.7091C59.777 41.4262 61.857 41.4262 63.1399 42.7091C64.4229 43.9921 64.4229 46.0721 63.1399 47.3551L45.8348 64.6602C44.0597 66.4353 41.1817 66.4353 39.4066 64.6602L22.1015 47.3551Z" fill="#E57238"/>
</svg>
