<svg width="53" height="53" viewBox="0 0 53 53" fill="none" xmlns="http://www.w3.org/2000/svg">
<circle cx="26.5" cy="26.5" r="26.5" fill="#22532C"/>
<path d="M38.6257 13.1299L38.6259 13.1299C39.2768 12.9055 39.8053 13.3075 39.9857 13.8077C40.1702 14.3061 40.0361 14.9747 39.4155 15.2613C39.4153 15.2614 39.4151 15.2615 39.4149 15.2616L33.8007 17.9428C34.344 18.4043 34.6819 19.1113 34.6819 19.8733C34.6819 20.5361 34.4379 21.1578 33.9942 21.6233C33.994 21.6235 33.9938 21.6237 33.9936 21.6239L33.9212 21.5549C33.5101 22.0013 32.9327 22.2556 32.3356 22.2556L38.6257 13.1299ZM38.6257 13.1299L25.7259 17.6039C25.7258 17.6039 25.7257 17.6039 25.7256 17.604C25.6058 17.6449 25.4741 17.6248 25.3682 17.546C25.3681 17.5459 25.3679 17.5458 25.3678 17.5457L14.3575 9.12765L14.3572 9.12744C13.8052 8.70844 13.1865 8.92003 12.8666 9.3384C12.5475 9.75578 12.4866 10.4316 12.9841 10.9139L12.9841 10.9139L12.9848 10.9145L23.085 20.5263C23.0851 20.5264 23.0852 20.5265 23.0853 20.5266C23.1809 20.6197 23.2334 20.756 23.2215 20.8971C23.2215 20.8973 23.2215 20.8974 23.2214 20.8976L21.8562 35.2165C21.787 35.9215 22.263 36.3857 22.7704 36.4667C22.833 36.4786 22.8896 36.4786 22.9411 36.4786H22.9443C23.4042 36.4786 23.8839 36.1838 24.0064 35.5624C24.0064 35.5623 24.0065 35.5623 24.0065 35.5623L26.6469 22.2653C26.8349 22.3208 27.0277 22.3556 27.2362 22.3556H28.8224L27.2113 45.943H21.6278C21.4301 45.943 21.2831 46.1076 21.2831 46.3025C21.2831 46.4974 21.4301 46.662 21.6278 46.662H34.2785C34.4762 46.662 34.6232 46.4974 34.6232 46.3025C34.6232 46.1076 34.4762 45.943 34.2785 45.943H32.708L31.0968 22.3556L38.6257 13.1299ZM13.4555 10.3855L13.4555 10.3855L13.4551 10.3852C13.3427 10.2792 13.3057 10.1681 13.3067 10.0677C13.3076 9.9642 13.3492 9.86397 13.4073 9.78677C13.4827 9.68922 13.5931 9.61851 13.7144 9.61851C13.7834 9.61851 13.8643 9.64112 13.9501 9.71048L13.9501 9.71051L13.9522 9.71217L24.5655 17.8181C23.8142 18.077 23.2566 18.7898 23.1809 19.6432L13.4555 10.3855ZM33.5064 21.1276L33.5054 21.1287C33.2006 21.4569 32.7766 21.647 32.3356 21.647H27.246C27.0899 21.647 26.9419 21.6163 26.7981 21.5679L26.8154 21.4817C26.8154 21.4816 26.8154 21.4815 26.8154 21.4814C26.8438 21.3441 26.9325 21.2312 27.0442 21.1781L27.0443 21.178L33.0687 18.3028C33.6254 18.5909 33.9974 19.2052 33.9974 19.8836C33.9974 20.3568 33.8209 20.799 33.5064 21.1276ZM39.1289 14.6188L27.1355 20.3407C27.175 20.1804 27.1992 20.0129 27.1992 19.8369C27.1992 19.1335 26.8717 18.5184 26.3755 18.1291L38.8478 13.8068L38.8489 13.8064C38.988 13.7565 39.0915 13.7779 39.168 13.8261C39.2483 13.8768 39.3087 13.9635 39.3424 14.0572C39.3764 14.1543 39.3872 14.2648 39.3588 14.3641C39.3314 14.4598 39.2655 14.5529 39.1292 14.6186C39.1291 14.6187 39.129 14.6187 39.1289 14.6188ZM25.1856 21.2525C24.4586 21.2525 23.8615 20.6232 23.8615 19.8421C23.8615 19.0613 24.4633 18.4317 25.1856 18.4317C25.908 18.4317 26.5098 19.0613 26.5098 19.8421C26.5098 20.623 25.908 21.2525 25.1856 21.2525ZM23.3405 35.4193C23.3087 35.577 23.2365 35.6641 23.1584 35.7108C23.0777 35.7591 22.9792 35.7709 22.8871 35.7557C22.7977 35.7405 22.7065 35.6977 22.642 35.6242C22.5793 35.5529 22.5347 35.4446 22.5495 35.2823C22.5495 35.2822 22.5496 35.2822 22.5496 35.2821L23.8699 21.4376C24.2215 21.7644 24.684 21.9663 25.1905 21.9663C25.5049 21.9663 25.7983 21.8858 26.0625 21.7513L23.3405 35.4193ZM30.3972 22.3608L32.0132 45.9482H27.906L29.5171 22.3608H30.3972Z" fill="#F8FAF8" stroke="#F8FAF8" stroke-width="0.2"/>
</svg>
