<svg width="196" height="61" viewBox="0 0 196 61" fill="none" xmlns="http://www.w3.org/2000/svg">
<mask id="mask0_537_11756" style="mask-type:luminance" maskUnits="userSpaceOnUse" x="1" y="0" width="195" height="61">
<path d="M195.4 0H1V61H195.4V0Z" fill="white"/>
</mask>
<g mask="url(#mask0_537_11756)">
<path fill-rule="evenodd" clip-rule="evenodd" d="M92.1001 36.1001V49.8001C92.1001 51.1001 93.2001 52.2001 94.5001 52.2001V38.5001C94.5001 37.2001 93.4001 36.1001 92.1001 36.1001Z" fill="#F8FBF8"/>
</g>
<mask id="mask1_537_11756" style="mask-type:luminance" maskUnits="userSpaceOnUse" x="1" y="0" width="195" height="61">
<path d="M195.4 0H1V61H195.4V0Z" fill="white"/>
</mask>
<g mask="url(#mask1_537_11756)">
<path fill-rule="evenodd" clip-rule="evenodd" d="M106 32V45.5C106 46.8 107.1 47.9 108.4 47.9V34.4C108.4 33.1 107.3 32 106 32Z" fill="#F8FBF8"/>
</g>
<mask id="mask2_537_11756" style="mask-type:luminance" maskUnits="userSpaceOnUse" x="1" y="0" width="195" height="61">
<path d="M195.4 0H1V61H195.4V0Z" fill="white"/>
</mask>
<g mask="url(#mask2_537_11756)">
<path fill-rule="evenodd" clip-rule="evenodd" d="M92.2998 32.0001L104.8 51.3001C105.5 52.4001 107.1 52.9001 108.2 52.2001L95.5998 32.7001C94.8998 31.6001 93.3998 31.3001 92.2998 32.0001Z" fill="#F8FBF8"/>
</g>
<mask id="mask3_537_11756" style="mask-type:luminance" maskUnits="userSpaceOnUse" x="1" y="0" width="195" height="61">
<path d="M195.4 0H1V61H195.4V0Z" fill="white"/>
</mask>
<g mask="url(#mask3_537_11756)">
<path fill-rule="evenodd" clip-rule="evenodd" d="M76.6001 42.2V49.9C76.6001 51.2 77.6001 52.2 78.9001 52.2V42.2C78.1001 42.4 77.3001 42.4 76.6001 42.2Z" fill="#F8FBF8"/>
</g>
<mask id="mask4_537_11756" style="mask-type:luminance" maskUnits="userSpaceOnUse" x="1" y="0" width="195" height="61">
<path d="M195.4 0H1V61H195.4V0Z" fill="white"/>
</mask>
<g mask="url(#mask4_537_11756)">
<path fill-rule="evenodd" clip-rule="evenodd" d="M83.0998 33.2001L79.6998 39.1001C78.8998 40.5001 78.7998 41.1001 78.7998 42.2001C79.8998 41.9001 80.7998 41.2001 81.4998 40.2001L86.5998 32.1001H85.2998C84.2998 32.0001 83.4998 32.4001 83.0998 33.2001Z" fill="#F8FBF8"/>
</g>
<mask id="mask5_537_11756" style="mask-type:luminance" maskUnits="userSpaceOnUse" x="1" y="0" width="195" height="61">
<path d="M195.4 0H1V61H195.4V0Z" fill="white"/>
</mask>
<g mask="url(#mask5_537_11756)">
<path fill-rule="evenodd" clip-rule="evenodd" d="M72.4 33.2C72 32.5 71.2 32 70.3 32H69L73.8 40.1C74.5 41.2 75.4 41.9 76.6 42.2C76.6 41.1 76.4 40.6 75.7 39.1L72.4 33.2Z" fill="#F8FBF8"/>
</g>
<mask id="mask6_537_11756" style="mask-type:luminance" maskUnits="userSpaceOnUse" x="1" y="0" width="195" height="61">
<path d="M195.4 0H1V61H195.4V0Z" fill="white"/>
</mask>
<g mask="url(#mask6_537_11756)">
<path fill-rule="evenodd" clip-rule="evenodd" d="M66.6001 26.4C68.4001 26.1 69.8001 24.7 69.8001 22.8C69.8001 21 68.4001 19.7 66.8001 19.3C66.8001 19.3 67.3001 20.6 67.3001 22.9C67.4001 25.2 66.6001 26.4 66.6001 26.4Z" fill="#F8FBF8"/>
</g>
<mask id="mask7_537_11756" style="mask-type:luminance" maskUnits="userSpaceOnUse" x="1" y="0" width="195" height="61">
<path d="M195.4 0H1V61H195.4V0Z" fill="white"/>
</mask>
<g mask="url(#mask7_537_11756)">
<path fill-rule="evenodd" clip-rule="evenodd" d="M57.2998 17.2C57.2998 18.3 58.1998 19.2 59.2998 19.2H65.6998C66.0998 19.2 66.4998 19.3 66.8998 19.3C66.5998 18.6 66.5998 17.7 66.8998 17C66.5998 17.1 66.1998 17.1 65.6998 17.1H57.2998V17.2Z" fill="#F8FBF8"/>
</g>
<mask id="mask8_537_11756" style="mask-type:luminance" maskUnits="userSpaceOnUse" x="1" y="0" width="195" height="61">
<path d="M195.4 0H1V61H195.4V0Z" fill="white"/>
</mask>
<g mask="url(#mask8_537_11756)">
<path fill-rule="evenodd" clip-rule="evenodd" d="M59.1998 10.2H64.9998C65.5998 10.2 66.0998 10.3 66.5998 10.4C66.1998 9.10005 65.0998 8.30005 62.9998 8.30005H57.2998C57.2998 9.40005 58.0998 10.2 59.1998 10.2Z" fill="#F8FBF8"/>
</g>
<mask id="mask9_537_11756" style="mask-type:luminance" maskUnits="userSpaceOnUse" x="1" y="0" width="195" height="61">
<path d="M195.4 0H1V61H195.4V0Z" fill="white"/>
</mask>
<g mask="url(#mask9_537_11756)">
<path fill-rule="evenodd" clip-rule="evenodd" d="M66.8001 16.9999C68.4001 16.5999 69.5001 15.3999 69.5001 13.6999C69.5001 11.8999 68.3001 10.7999 66.6001 10.3999C66.6001 10.3999 67.3001 11.6999 67.3001 13.6999C67.3001 15.7999 66.8001 16.9999 66.8001 16.9999Z" fill="#F8FBF8"/>
</g>
<mask id="mask10_537_11756" style="mask-type:luminance" maskUnits="userSpaceOnUse" x="1" y="0" width="195" height="61">
<path d="M195.4 0H1V61H195.4V0Z" fill="white"/>
</mask>
<g mask="url(#mask10_537_11756)">
<path fill-rule="evenodd" clip-rule="evenodd" d="M59.1998 26.6C58.0998 26.6 57.2998 27.5 57.2998 28.5H63.2998C65.2998 28.5 66.2998 27.7 66.6998 26.5C66.3998 26.6 65.9998 26.6 65.5998 26.6H59.1998Z" fill="#F8FBF8"/>
</g>
<mask id="mask11_537_11756" style="mask-type:luminance" maskUnits="userSpaceOnUse" x="1" y="0" width="195" height="61">
<path d="M195.4 0H1V61H195.4V0Z" fill="white"/>
</mask>
<g mask="url(#mask11_537_11756)">
<path fill-rule="evenodd" clip-rule="evenodd" d="M57.2998 26V8.30005C55.8998 8.30005 54.7998 9.40005 54.7998 10.8V28.5C56.1998 28.5 57.2998 27.4 57.2998 26Z" fill="#F8FBF8"/>
</g>
<mask id="mask12_537_11756" style="mask-type:luminance" maskUnits="userSpaceOnUse" x="1" y="0" width="195" height="61">
<path d="M195.4 0H1V61H195.4V0Z" fill="white"/>
</mask>
<g mask="url(#mask12_537_11756)">
<path fill-rule="evenodd" clip-rule="evenodd" d="M66.7998 40.7C66.4998 40.8 66.0998 40.7999 65.6998 40.7999H57.2998C57.2998 41.8999 58.1998 42.7999 59.2998 42.7999H65.6998C66.0998 42.7999 66.4998 42.9 66.7998 42.9C66.5998 42.2 66.5998 41.4 66.7998 40.7Z" fill="#F8FBF8"/>
</g>
<mask id="mask13_537_11756" style="mask-type:luminance" maskUnits="userSpaceOnUse" x="1" y="0" width="195" height="61">
<path d="M195.4 0H1V61H195.4V0Z" fill="white"/>
</mask>
<g mask="url(#mask13_537_11756)">
<path fill-rule="evenodd" clip-rule="evenodd" d="M59.1998 50.2001C58.0998 50.2001 57.2998 51.1001 57.2998 52.1001H63.2998C65.2998 52.1001 66.2998 51.3001 66.6998 50.1001C66.3998 50.2001 65.9998 50.2001 65.5998 50.2001H59.1998Z" fill="#F8FBF8"/>
</g>
<mask id="mask14_537_11756" style="mask-type:luminance" maskUnits="userSpaceOnUse" x="1" y="0" width="195" height="61">
<path d="M195.4 0H1V61H195.4V0Z" fill="white"/>
</mask>
<g mask="url(#mask14_537_11756)">
<path fill-rule="evenodd" clip-rule="evenodd" d="M62.9998 32H57.2998C57.2998 33.1 58.1998 33.9 59.1998 33.9H64.9998C65.5998 33.9 66.0998 34 66.5998 34.1C66.2998 32.8 65.1998 32 62.9998 32Z" fill="#F8FBF8"/>
</g>
<mask id="mask15_537_11756" style="mask-type:luminance" maskUnits="userSpaceOnUse" x="1" y="0" width="195" height="61">
<path d="M195.4 0H1V61H195.4V0Z" fill="white"/>
</mask>
<g mask="url(#mask15_537_11756)">
<path fill-rule="evenodd" clip-rule="evenodd" d="M54.7998 34.4V52.1C56.1998 52.1 57.2998 51 57.2998 49.6V32C55.8998 32 54.7998 33.1 54.7998 34.4Z" fill="#F8FBF8"/>
</g>
<mask id="mask16_537_11756" style="mask-type:luminance" maskUnits="userSpaceOnUse" x="1" y="0" width="195" height="61">
<path d="M195.4 0H1V61H195.4V0Z" fill="white"/>
</mask>
<g mask="url(#mask16_537_11756)">
<path fill-rule="evenodd" clip-rule="evenodd" d="M66.8001 43C66.8001 43 67.3001 44.3 67.3001 46.6C67.3001 48.9 66.6001 50.2 66.6001 50.2C68.4001 49.9 69.8001 48.5 69.8001 46.6C69.8001 44.6 68.4001 43.4 66.8001 43Z" fill="#F8FBF8"/>
</g>
<mask id="mask17_537_11756" style="mask-type:luminance" maskUnits="userSpaceOnUse" x="1" y="0" width="195" height="61">
<path d="M195.4 0H1V61H195.4V0Z" fill="white"/>
</mask>
<g mask="url(#mask17_537_11756)">
<path fill-rule="evenodd" clip-rule="evenodd" d="M69.5001 37.4001C69.5001 35.6001 68.3001 34.5001 66.6001 34.1001C66.6001 34.1001 67.3001 35.4001 67.3001 37.4001C67.3001 39.4001 66.8001 40.7001 66.8001 40.7001C68.4001 40.3001 69.5001 39.1001 69.5001 37.4001Z" fill="#F8FBF8"/>
</g>
<mask id="mask18_537_11756" style="mask-type:luminance" maskUnits="userSpaceOnUse" x="1" y="0" width="195" height="61">
<path d="M195.4 0H1V61H195.4V0Z" fill="white"/>
</mask>
<g mask="url(#mask18_537_11756)">
<path fill-rule="evenodd" clip-rule="evenodd" d="M84.8001 10.8V24.4C84.8001 24.8 84.7001 25.3001 84.6001 25.7001C86.4001 24.8001 87.3001 23.3 87.3001 21.3V8.30005C85.9001 8.30005 84.8001 9.40005 84.8001 10.8Z" fill="#F8FBF8"/>
</g>
<mask id="mask19_537_11756" style="mask-type:luminance" maskUnits="userSpaceOnUse" x="1" y="0" width="195" height="61">
<path d="M195.4 0H1V61H195.4V0Z" fill="white"/>
</mask>
<g mask="url(#mask19_537_11756)">
<path fill-rule="evenodd" clip-rule="evenodd" d="M74.6001 25.7C75.2001 27.5 76.9001 28.7999 79.6001 28.7999C82.3001 28.7999 84.1001 27.4 84.6001 25.7C83.4001 26.3 81.7001 26.6 79.6001 26.6C77.5001 26.6 75.8001 26.3 74.6001 25.7Z" fill="#F8FBF8"/>
</g>
<mask id="mask20_537_11756" style="mask-type:luminance" maskUnits="userSpaceOnUse" x="1" y="0" width="195" height="61">
<path d="M195.4 0H1V61H195.4V0Z" fill="white"/>
</mask>
<g mask="url(#mask20_537_11756)">
<path fill-rule="evenodd" clip-rule="evenodd" d="M74.3999 10.8C74.3999 9.40005 73.2999 8.30005 71.8999 8.30005V21.3C71.8999 23.3 72.7999 24.8001 74.5999 25.7001C74.4999 25.3001 74.3999 24.9 74.3999 24.4V10.8Z" fill="#F8FBF8"/>
</g>
<mask id="mask21_537_11756" style="mask-type:luminance" maskUnits="userSpaceOnUse" x="1" y="0" width="195" height="61">
<path d="M195.4 0H1V61H195.4V0Z" fill="white"/>
</mask>
<g mask="url(#mask21_537_11756)">
<path fill-rule="evenodd" clip-rule="evenodd" d="M93.1998 26.1V8.30005C91.8998 8.30005 90.7998 9.40005 90.7998 10.7V28.5C92.0998 28.5 93.1998 27.4 93.1998 26.1Z" fill="#F8FBF8"/>
</g>
<mask id="mask22_537_11756" style="mask-type:luminance" maskUnits="userSpaceOnUse" x="1" y="0" width="195" height="61">
<path d="M195.4 0H1V61H195.4V0Z" fill="white"/>
</mask>
<g mask="url(#mask22_537_11756)">
<path fill-rule="evenodd" clip-rule="evenodd" d="M96.6001 8.30005V24C96.6001 25.3 97.7001 26.4 99.0001 26.4V10.7C99.0001 9.40005 97.9001 8.30005 96.6001 8.30005Z" fill="#F8FBF8"/>
</g>
<mask id="mask23_537_11756" style="mask-type:luminance" maskUnits="userSpaceOnUse" x="1" y="0" width="195" height="61">
<path d="M195.4 0H1V61H195.4V0Z" fill="white"/>
</mask>
<g mask="url(#mask23_537_11756)">
<path fill-rule="evenodd" clip-rule="evenodd" d="M108.1 26.3999H99.1001C99.1001 27.4999 100 28.3999 101.1 28.3999H110.1C110.1 27.3999 109.2 26.3999 108.1 26.3999Z" fill="#F8FBF8"/>
</g>
<mask id="mask24_537_11756" style="mask-type:luminance" maskUnits="userSpaceOnUse" x="1" y="0" width="195" height="61">
<path d="M195.4 0H1V61H195.4V0Z" fill="white"/>
</mask>
<g mask="url(#mask24_537_11756)">
<path fill-rule="evenodd" clip-rule="evenodd" d="M122.7 8.30005H117.5C116.4 8.30005 115.5 9.20005 115.5 10.3H120.7C121.8 10.3 122.7 9.40005 122.7 8.30005Z" fill="#F8FBF8"/>
</g>
<mask id="mask25_537_11756" style="mask-type:luminance" maskUnits="userSpaceOnUse" x="1" y="0" width="195" height="61">
<path d="M195.4 0H1V61H195.4V0Z" fill="white"/>
</mask>
<g mask="url(#mask25_537_11756)">
<path fill-rule="evenodd" clip-rule="evenodd" d="M115.5 28.5V12.8C115.5 11.4 114.4 10.3 113.1 10.3V26C113 27.4 114.1 28.5 115.5 28.5Z" fill="#F8FBF8"/>
</g>
<mask id="mask26_537_11756" style="mask-type:luminance" maskUnits="userSpaceOnUse" x="1" y="0" width="195" height="61">
<path d="M195.4 0H1V61H195.4V0Z" fill="white"/>
</mask>
<g mask="url(#mask26_537_11756)">
<path fill-rule="evenodd" clip-rule="evenodd" d="M107.8 10.3H113C113 9.20005 112.1 8.30005 111 8.30005H105.8C105.8 9.40005 106.7 10.3 107.8 10.3Z" fill="#F8FBF8"/>
</g>
<mask id="mask27_537_11756" style="mask-type:luminance" maskUnits="userSpaceOnUse" x="1" y="0" width="195" height="61">
<path d="M195.4 0H1V61H195.4V0Z" fill="white"/>
</mask>
<g mask="url(#mask27_537_11756)">
<path fill-rule="evenodd" clip-rule="evenodd" d="M131.9 32H126.7C126.7 33.1 127.6 34 128.7 34H133.9C133.9 32.9 133 32 131.9 32Z" fill="#F8FBF8"/>
</g>
<mask id="mask28_537_11756" style="mask-type:luminance" maskUnits="userSpaceOnUse" x="1" y="0" width="195" height="61">
<path d="M195.4 0H1V61H195.4V0Z" fill="white"/>
</mask>
<g mask="url(#mask28_537_11756)">
<path fill-rule="evenodd" clip-rule="evenodd" d="M136.4 34H141.6C142.7 34 143.6 33.1 143.6 32H138.4C137.3 32 136.4 32.9 136.4 34Z" fill="#F8FBF8"/>
</g>
<mask id="mask29_537_11756" style="mask-type:luminance" maskUnits="userSpaceOnUse" x="1" y="0" width="195" height="61">
<path d="M195.4 0H1V61H195.4V0Z" fill="white"/>
</mask>
<g mask="url(#mask29_537_11756)">
<path fill-rule="evenodd" clip-rule="evenodd" d="M133.9 34V49.7C133.9 51.1 135 52.2 136.3 52.2V36.4C136.4 35.1 135.3 34 133.9 34Z" fill="#F8FBF8"/>
</g>
<mask id="mask30_537_11756" style="mask-type:luminance" maskUnits="userSpaceOnUse" x="1" y="0" width="195" height="61">
<path d="M195.4 0H1V61H195.4V0Z" fill="white"/>
</mask>
<g mask="url(#mask30_537_11756)">
<path fill-rule="evenodd" clip-rule="evenodd" d="M157.9 34.4V48C157.9 48.4 157.8 48.9 157.7 49.3C159.5 48.4 160.4 46.9 160.4 44.9V32H160.3C159 32 157.9 33.1 157.9 34.4Z" fill="#F8FBF8"/>
</g>
<mask id="mask31_537_11756" style="mask-type:luminance" maskUnits="userSpaceOnUse" x="1" y="0" width="195" height="61">
<path d="M195.4 0H1V61H195.4V0Z" fill="white"/>
</mask>
<g mask="url(#mask31_537_11756)">
<path fill-rule="evenodd" clip-rule="evenodd" d="M147.5 34.3999C147.5 32.9999 146.4 31.8999 145 31.8999V44.8999C145 46.8999 145.9 48.3999 147.7 49.2999C147.6 48.8999 147.5 48.4999 147.5 47.9999V34.3999Z" fill="#F8FBF8"/>
</g>
<mask id="mask32_537_11756" style="mask-type:luminance" maskUnits="userSpaceOnUse" x="1" y="0" width="195" height="61">
<path d="M195.4 0H1V61H195.4V0Z" fill="white"/>
</mask>
<g mask="url(#mask32_537_11756)">
<path fill-rule="evenodd" clip-rule="evenodd" d="M147.7 49.3999C148.3 51.1999 150 52.4999 152.7 52.4999C155.4 52.4999 157.2 51.0999 157.7 49.3999C156.5 49.9999 154.8 50.2999 152.7 50.2999C150.6 50.2999 148.9 49.9999 147.7 49.3999Z" fill="#F8FBF8"/>
<mask id="mask33_537_11756" style="mask-type:luminance" maskUnits="userSpaceOnUse" x="1" y="0" width="195" height="61">
<path d="M195.4 0H1V61H195.4V0Z" fill="white"/>
</mask>
<g mask="url(#mask33_537_11756)">
<path fill-rule="evenodd" clip-rule="evenodd" d="M185.8 33.9999H194.4C194.4 32.8999 193.5 31.8999 192.3 31.8999H183.7C183.7 33.0999 184.6 33.9999 185.8 33.9999Z" fill="#F8FBF8"/>
</g>
<mask id="mask34_537_11756" style="mask-type:luminance" maskUnits="userSpaceOnUse" x="1" y="0" width="195" height="61">
<path d="M195.4 0H1V61H195.4V0Z" fill="white"/>
</mask>
<g mask="url(#mask34_537_11756)">
<path fill-rule="evenodd" clip-rule="evenodd" d="M183.7 40.7V34.4C183.7 33.1 182.6 32 181.3 32V38.3C181.3 39.6 182.4 40.7 183.7 40.7Z" fill="#F8FBF8"/>
</g>
<mask id="mask35_537_11756" style="mask-type:luminance" maskUnits="userSpaceOnUse" x="1" y="0" width="195" height="61">
<path d="M195.4 0H1V61H195.4V0Z" fill="white"/>
</mask>
<g mask="url(#mask35_537_11756)">
<path fill-rule="evenodd" clip-rule="evenodd" d="M185.7 42.7H193.8C193.8 41.6 192.9 40.7 191.8 40.7H183.7C183.7 41.8 184.6 42.7 185.7 42.7Z" fill="#F8FBF8"/>
</g>
<mask id="mask36_537_11756" style="mask-type:luminance" maskUnits="userSpaceOnUse" x="1" y="0" width="195" height="61">
<path d="M195.4 0H1V61H195.4V0Z" fill="white"/>
</mask>
<g mask="url(#mask36_537_11756)">
<path fill-rule="evenodd" clip-rule="evenodd" d="M183.7 42.7C182.4 42.7 181.3 43.7999 181.3 45.0999V52.0999C182.6 52.0999 183.7 51 183.7 49.7V42.7Z" fill="#F8FBF8"/>
</g>
<mask id="mask37_537_11756" style="mask-type:luminance" maskUnits="userSpaceOnUse" x="1" y="0" width="195" height="61">
<path d="M195.4 0H1V61H195.4V0Z" fill="white"/>
</mask>
<g mask="url(#mask37_537_11756)">
<path fill-rule="evenodd" clip-rule="evenodd" d="M185.8 50.1001C184.7 50.1001 183.7 51.0001 183.7 52.2001H192.6C193.7 52.2001 194.7 51.3001 194.7 50.1001H185.8Z" fill="#F8FBF8"/>
</g>
</g>
<mask id="mask38_537_11756" style="mask-type:luminance" maskUnits="userSpaceOnUse" x="1" y="0" width="195" height="61">
<path d="M195.4 0H1V61H195.4V0Z" fill="white"/>
</mask>
<g mask="url(#mask38_537_11756)">
<path fill-rule="evenodd" clip-rule="evenodd" d="M124.5 34.8C124.6 35.2 124.7 35.6 124.7 36.1V49.7001C124.7 51.1001 125.8 52.2001 127.2 52.2001V39.2001C127.1 37.1001 126.2 35.6 124.5 34.8Z" fill="#F8FBF8"/>
</g>
<mask id="mask39_537_11756" style="mask-type:luminance" maskUnits="userSpaceOnUse" x="1" y="0" width="195" height="61">
<path d="M195.4 0H1V61H195.4V0Z" fill="white"/>
</mask>
<g mask="url(#mask39_537_11756)">
<path fill-rule="evenodd" clip-rule="evenodd" d="M112.1 39.2V52.2H112.2C113.6 52.2 114.7 51.1 114.7 49.7V44.7H122.8C123.9 44.7 124.8 43.8 124.8 42.7H116.7C115.6 42.7 114.7 43.6 114.7 44.7V36C114.7 35.6 114.8 35.1 114.9 34.7C113 35.6 112.1 37.1 112.1 39.2Z" fill="#F8FBF8"/>
</g>
<mask id="mask40_537_11756" style="mask-type:luminance" maskUnits="userSpaceOnUse" x="1" y="0" width="195" height="61">
<path d="M195.4 0H1V61H195.4V0Z" fill="white"/>
</mask>
<g mask="url(#mask40_537_11756)">
<path fill-rule="evenodd" clip-rule="evenodd" d="M119.6 31.6001C116.9 31.6001 115.3 33.0001 114.7 34.7001C115.9 34.1001 117.5 33.8001 119.6 33.8001C121.7 33.8001 123.2 34.1001 124.4 34.7001C123.9 33.0001 122.3 31.6001 119.6 31.6001Z" fill="#F8FBF8"/>
<mask id="mask41_537_11756" style="mask-type:luminance" maskUnits="userSpaceOnUse" x="1" y="0" width="195" height="61">
<path d="M195.4 0H1V61H195.4V0Z" fill="white"/>
</mask>
<g mask="url(#mask41_537_11756)">
<path fill-rule="evenodd" clip-rule="evenodd" d="M171.8 32H166C166 33.1 166.8 33.9 167.9 33.9H173.1C173.9 33.9 174.7 34 175.4 34.2C175 32.7 173.9 32 171.8 32Z" fill="#F8FBF8"/>
</g>
<mask id="mask42_537_11756" style="mask-type:luminance" maskUnits="userSpaceOnUse" x="1" y="0" width="195" height="61">
<path d="M195.4 0H1V61H195.4V0Z" fill="white"/>
</mask>
<g mask="url(#mask42_537_11756)">
<path fill-rule="evenodd" clip-rule="evenodd" d="M175.1 41.3999C174.7 41.3999 174.4 41.4999 173.9 41.4999H168C166.9 41.4999 166 42.3999 166 43.4999H172.9C174.2 43.4999 175.1 42.5999 175.1 41.3999Z" fill="#F8FBF8"/>
</g>
</g>
<mask id="mask43_537_11756" style="mask-type:luminance" maskUnits="userSpaceOnUse" x="1" y="0" width="195" height="61">
<path d="M195.4 0H1V61H195.4V0Z" fill="white"/>
</mask>
<g mask="url(#mask43_537_11756)">
<path fill-rule="evenodd" clip-rule="evenodd" d="M163.6 32V49.7C163.6 51.1 164.7 52.2 166.1 52.2V34.4C166.1 33.1 165 32 163.6 32Z" fill="#F8FBF8"/>
<mask id="mask44_537_11756" style="mask-type:luminance" maskUnits="userSpaceOnUse" x="1" y="0" width="195" height="61">
<path d="M195.4 0H1V61H195.4V0Z" fill="white"/>
</mask>
<g mask="url(#mask44_537_11756)">
<path fill-rule="evenodd" clip-rule="evenodd" d="M178.3 37.7999C178.3 35.7999 177.2 34.7 175.4 34.2C175.4 34.2 176 35.4 176 37.7C176 40.3 175.1 41.4 175.1 41.4C177.2 41.2 178.3 39.8999 178.3 37.7999Z" fill="#F8FBF8"/>
</g>
<mask id="mask45_537_11756" style="mask-type:luminance" maskUnits="userSpaceOnUse" x="1" y="0" width="195" height="61">
<path d="M195.4 0H1V61H195.4V0Z" fill="white"/>
</mask>
<g mask="url(#mask45_537_11756)">
<path fill-rule="evenodd" clip-rule="evenodd" d="M174.9 43.8999H174.2C175.2 45.3999 175 47.9999 175.4 49.9999C175.6 51.1999 176.7 52.0999 177.9 52.0999H178.8C177.6 50.5999 177.6 48.0999 177.3 46.0999C177.2 44.8999 176.2 43.8999 174.9 43.8999Z" fill="#F8FBF8"/>
</g>
</g>
<mask id="mask46_537_11756" style="mask-type:luminance" maskUnits="userSpaceOnUse" x="1" y="0" width="195" height="61">
<path d="M195.4 0H1V61H195.4V0Z" fill="white"/>
</mask>
<g mask="url(#mask46_537_11756)">
<path d="M16.2001 9.1001V38.3001C16.2001 46.2001 9.8001 52.7001 1.9001 52.9001H1.6001V23.7001C1.6001 15.7001 8.0001 9.3001 15.9001 9.1001H16.2001ZM15.4001 10.0001H15.3001C8.3001 10.5001 2.8001 16.3001 2.6001 23.3001V23.6001V52.0001H2.7001C9.7001 51.5001 15.2001 45.7001 15.4001 38.7001V38.4001V10.0001Z" fill="#F8FBF8"/>
</g>
<mask id="mask47_537_11756" style="mask-type:luminance" maskUnits="userSpaceOnUse" x="1" y="0" width="195" height="61">
<path d="M195.4 0H1V61H195.4V0Z" fill="white"/>
</mask>
<g mask="url(#mask47_537_11756)">
<path d="M15.3999 9.1001V38.3001C15.3999 46.2001 21.7999 52.7001 29.6999 52.9001H29.9999V23.7001C29.9999 15.8001 23.6999 9.3001 15.6999 9.1001H15.3999ZM16.1999 10.0001H16.2999C23.2999 10.5001 28.7999 16.3001 28.9999 23.3001V23.6001V52.0001C21.9999 51.5001 16.3999 45.7001 16.2999 38.7001V38.4001L16.1999 10.0001Z" fill="#F8FBF8"/>
</g>
<mask id="mask48_537_11756" style="mask-type:luminance" maskUnits="userSpaceOnUse" x="0" y="0" width="195" height="61">
<path d="M194.4 0H0V61H194.4V0Z" fill="white"/>
</mask>
<g mask="url(#mask48_537_11756)">
<path d="M43.7001 9.1001V38.3001C43.7001 46.2001 37.3001 52.7001 29.4001 52.9001H29.1001V23.7001C29.1001 15.8001 35.4001 9.3001 43.4001 9.1001H43.7001ZM42.8001 10.0001H42.7001C35.7001 10.5001 30.2001 16.3001 30.0001 23.3001V23.6001V52.0001H30.1001C37.1001 51.5001 42.6001 45.7001 42.8001 38.7001V38.4001V10.0001Z" fill="#F8FBF8"/>
</g>
</svg>
