<svg width="195" height="61" viewBox="0 0 195 61" fill="none" xmlns="http://www.w3.org/2000/svg">
<mask id="mask0_537_12012" style="mask-type:luminance" maskUnits="userSpaceOnUse" x="0" y="0" width="195" height="61">
<path d="M194.36 0H0V61H194.36V0Z" fill="white"/>
</mask>
<g mask="url(#mask0_537_12012)">
<path d="M23.1898 33.25H22.5098V35.12H23.1898V33.25Z" fill="#F8FBF8"/>
<path d="M19 33.8701C18.9968 33.9244 19.0059 33.9787 19.0267 34.0289C19.0475 34.0791 19.0794 34.124 19.12 34.1601C19.42 33.9501 19.82 33.9801 19.75 34.3701C19.75 34.3701 19.68 34.4601 19.3 34.4601C19.3078 34.519 19.3247 34.5763 19.35 34.6301C19.3314 34.6602 19.3215 34.6948 19.3215 34.7301C19.3215 34.7654 19.3314 34.8001 19.35 34.8301C19.5077 34.7492 19.6828 34.7081 19.86 34.7101C19.93 34.9001 19.86 35.1501 19.33 35.2401C18.8 35.3301 18.33 35.5301 18.23 36.2401C18.6775 36.2438 19.1134 36.3833 19.48 36.6401C19.6893 36.7142 19.9122 36.7418 20.1332 36.7211C20.3542 36.7004 20.5681 36.6318 20.76 36.5201C20.6759 36.419 20.6351 36.2888 20.6463 36.1578C20.6575 36.0268 20.7199 35.9055 20.82 35.8201C20.8433 35.8715 20.8778 35.9171 20.9209 35.9535C20.964 35.9899 21.0147 36.0162 21.0693 36.0306C21.1239 36.045 21.181 36.047 21.2365 36.0365C21.2919 36.0261 21.3444 36.0034 21.39 35.9701C21.39 35.9701 21.39 35.9701 21.39 35.9201C21.3286 35.8883 21.2746 35.8438 21.2316 35.7895C21.1886 35.7353 21.1576 35.6726 21.1406 35.6055C21.1236 35.5385 21.121 35.4685 21.1329 35.4004C21.1449 35.3322 21.1711 35.2674 21.21 35.2101C21.35 35.4301 21.7 35.2101 21.73 35.0701C21.51 35.1501 21.4 34.9001 21.4 34.7301C21.4716 34.3753 21.426 34.0068 21.27 33.6801C21.4524 33.524 21.6678 33.4111 21.9 33.3501C21.95 33.3501 21.95 33.3501 21.9 33.2901C21.85 33.2301 21.31 33.2901 21.24 33.2101C21.17 33.1301 21.16 32.6201 21.14 32.6101C20.9512 32.6847 20.7674 32.7715 20.59 32.8701C20.47 32.8701 20.31 32.4701 20.15 32.3701C19.99 32.2701 20.08 32.3701 20.1 32.3701C20.1838 32.5933 20.2146 32.833 20.19 33.0701C19.72 33.0701 19.56 33.2101 19.53 33.3401C19.5 33.4701 18.97 33.6201 18.97 33.7101C18.9656 33.7332 18.9656 33.757 18.97 33.7801H19.02M20.02 33.4701C19.87 33.7501 19.67 33.7701 19.53 33.6101C19.39 33.4501 19.71 33.4501 20.02 33.4701Z" fill="#F8FBF8"/>
<path d="M10.1098 30.8699C10.1098 30.6299 9.8498 30.5699 9.2998 30.5999C9.4098 31.0999 9.8398 31.1699 10.1098 30.8699Z" fill="#F8FBF8"/>
<path d="M29.6301 30.6001C29.0801 30.6001 28.8401 30.6001 28.8101 30.8701C29.0801 31.1701 29.5201 31.1001 29.6301 30.6001Z" fill="#F8FBF8"/>
<path d="M18.4001 40.4601C18.4001 39.6401 18.8401 39.4601 19.8201 39.1201C19.6301 39.1201 19.3801 38.8601 19.6301 38.5501C19.471 38.4351 19.2851 38.3628 19.0901 38.3401C18.3501 38.3401 17.7901 39.1501 17.6901 39.2701C17.5901 39.3901 17.4001 39.5601 17.2801 39.4001C17.2801 39.7201 17.5501 39.7301 17.6501 39.6701C17.6524 39.9885 17.7134 40.3038 17.8301 40.6001C17.6813 40.7645 17.486 40.8796 17.2701 40.9301C17.1201 40.9301 17.0901 40.6401 16.8601 40.6401C16.819 40.6412 16.7788 40.6517 16.7424 40.6708C16.706 40.6899 16.6744 40.717 16.6501 40.7501C16.6501 40.7501 16.9201 40.8601 16.8801 41.0201C16.6701 40.8401 16.3501 40.8701 16.3501 41.2701C16.3754 41.2422 16.4063 41.2199 16.4407 41.2046C16.4752 41.1893 16.5124 41.1815 16.5501 41.1815C16.5878 41.1815 16.625 41.1893 16.6595 41.2046C16.6939 41.2199 16.7248 41.2422 16.7501 41.2701C16.6896 41.2726 16.6312 41.2933 16.5827 41.3296C16.5342 41.3659 16.4978 41.416 16.4783 41.4733C16.4589 41.5307 16.4572 41.5926 16.4736 41.6509C16.49 41.7092 16.5236 41.7612 16.5701 41.8001C16.5687 41.7669 16.5742 41.7337 16.5862 41.7028C16.5983 41.6718 16.6167 41.6437 16.6402 41.6201C16.6637 41.5966 16.6918 41.5783 16.7228 41.5662C16.7538 41.5542 16.7869 41.5487 16.8201 41.5501C17.0501 41.5501 17.1901 41.7601 17.3601 41.5501C17.4301 41.8201 17.7201 41.7901 17.8201 41.7901C17.7746 41.7666 17.7355 41.7325 17.7059 41.6908C17.6763 41.649 17.6572 41.6008 17.6501 41.5501C17.6501 41.3701 18.0201 41.1501 18.1301 41.1501C18.2401 41.1501 18.2701 41.2601 18.4801 41.2601C18.5347 41.2561 18.5878 41.2407 18.6361 41.2149C18.6843 41.189 18.7266 41.1533 18.7601 41.1101C18.5101 41.1701 18.3601 40.9301 18.3601 40.5001" fill="#F8FBF8"/>
<path d="M0 61H38.87V-16.74H0V61ZM28.87 30.29C28.92 30.06 29.22 29.71 30.16 29.83C30.59 29.89 30.91 29.77 30.76 29.51C30.76 29.51 30.82 29.51 30.86 29.51C30.9 29.51 31.11 29.9 30.72 30.09C30.5874 30.1571 30.4749 30.2581 30.3941 30.3829C30.3133 30.5076 30.267 30.6515 30.26 30.8C30.26 30.89 30.36 30.9 30.38 30.8C30.449 30.6376 30.5536 30.4927 30.686 30.3761C30.8185 30.2594 30.9754 30.1739 31.1452 30.126C31.3151 30.078 31.4935 30.0687 31.6674 30.0988C31.8413 30.129 32.0062 30.1977 32.15 30.3C32.1245 30.4656 32.045 30.6182 31.9238 30.7339C31.8026 30.8496 31.6466 30.9221 31.48 30.94C31.3993 30.9352 31.3232 30.901 31.2661 30.8439C31.2089 30.7868 31.1748 30.7107 31.17 30.63C31.17 30.55 31.12 30.55 31.1 30.63C31.0875 30.7325 31.1057 30.8363 31.1524 30.9284C31.1991 31.0205 31.2722 31.0965 31.3622 31.1469C31.4523 31.1974 31.5554 31.2198 31.6583 31.2114C31.7612 31.2031 31.8592 31.1643 31.94 31.1C32.1265 31.3065 32.2522 31.5606 32.3034 31.8341C32.3546 32.1077 32.3292 32.39 32.23 32.65C32.13 33.12 32.36 33.57 32.78 33.36C32.7694 33.4533 32.7342 33.5421 32.678 33.6173C32.6218 33.6926 32.5466 33.7515 32.4601 33.7881C32.3736 33.8248 32.279 33.8377 32.1858 33.8258C32.0927 33.8138 32.0044 33.7773 31.93 33.72C31.87 33.81 31.23 34.63 32.21 34.95C32.21 34.95 32.27 35 32.21 35.04C32.0292 35.1356 31.8197 35.1619 31.6209 35.114C31.4221 35.0661 31.2475 34.9474 31.13 34.78C31.0172 34.9889 30.9757 35.2289 31.0118 35.4636C31.0479 35.6982 31.1596 35.9146 31.33 36.08C31.0862 36.3619 30.7489 36.5465 30.38 36.6C30.1128 36.4711 29.9001 36.2513 29.78 35.98C29.7 36.2099 29.7 36.4601 29.78 36.69C28.31 36.83 27.78 35.69 26.64 35.86C26.6364 35.3174 26.8192 34.79 27.1577 34.3659C27.4963 33.9418 27.9701 33.6467 28.5 33.53C29.9 33.26 29.5 32.68 29.5 32.68C29.1723 32.6581 28.8462 32.7422 28.57 32.92C28.46 32.75 28.62 32.55 28.62 32.55C28.5711 32.4531 28.5406 32.348 28.53 32.24C28.8217 32.2688 29.1158 32.2169 29.38 32.09C29.48 31.7 29.2 31.14 28.21 31.73C28.1379 31.6581 28.0812 31.5722 28.0434 31.4776C28.0056 31.3831 27.9874 31.2818 27.99 31.18C27.9542 31.1567 27.924 31.1258 27.9015 31.0895C27.8791 31.0532 27.8649 31.0124 27.86 30.97C27.86 30.81 28.65 30.37 28.86 30.31M26.56 31.7C26.56 31.61 26.63 31.63 26.65 31.7C26.6993 31.8171 26.7857 31.9148 26.8959 31.978C27.0061 32.0412 27.134 32.0665 27.26 32.05C27.62 32.05 27.69 31.92 28.26 31.92C28.31 31.92 28.66 31.92 28.66 31.99C28.66 32.06 28.5 31.99 28.26 32.07C27.71 32.16 27.5 32.44 27.12 32.44C27.0282 32.4495 26.9355 32.4353 26.8508 32.3988C26.7661 32.3623 26.6921 32.3048 26.6359 32.2315C26.5798 32.1583 26.5433 32.072 26.53 31.9807C26.5167 31.8894 26.527 31.7962 26.56 31.71M18.79 22.71C18.8937 22.7092 18.995 22.7407 19.08 22.8C19.21 22.89 19.28 22.87 19.32 22.8C19.36 22.73 19.37 22.69 19.32 22.57C19.2585 22.4817 19.2238 22.3775 19.22 22.27C19.2088 22.2299 19.207 22.1877 19.2148 22.1467C19.2225 22.1058 19.2397 22.0672 19.2649 22.034C19.2901 22.0008 19.3226 21.9739 19.3599 21.9554C19.3972 21.9368 19.4383 21.9272 19.48 21.9272C19.5217 21.9272 19.5628 21.9368 19.6001 21.9554C19.6374 21.9739 19.6699 22.0008 19.6951 22.034C19.7203 22.0672 19.7375 22.1058 19.7452 22.1467C19.753 22.1877 19.7512 22.2299 19.74 22.27C19.7407 22.3783 19.7056 22.4838 19.64 22.57C19.56 22.69 19.57 22.76 19.64 22.8C19.71 22.84 19.75 22.86 19.87 22.8C19.9608 22.7452 20.064 22.7143 20.17 22.71C20.2077 22.7025 20.2466 22.7034 20.2839 22.7128C20.3212 22.7221 20.356 22.7396 20.3857 22.764C20.4154 22.7884 20.4393 22.8191 20.4558 22.8538C20.4722 22.8886 20.4807 22.9265 20.4807 22.965C20.4807 23.0034 20.4722 23.0414 20.4558 23.0762C20.4393 23.1109 20.4154 23.1416 20.3857 23.166C20.356 23.1904 20.3212 23.2079 20.2839 23.2172C20.2466 23.2265 20.2077 23.2275 20.17 23.22C20.064 23.2157 19.9608 23.1848 19.87 23.13C19.75 23.04 19.68 23.06 19.64 23.13C19.6288 23.3986 19.6523 23.6675 19.71 23.93C19.8408 23.9498 19.9619 24.011 20.0554 24.1046C20.149 24.1981 20.2102 24.3192 20.23 24.45C20.23 24.88 19.77 25.13 19.51 25.27C19.24 25.12 18.79 24.88 18.79 24.45C18.8113 24.3198 18.873 24.1995 18.9663 24.1062C19.0596 24.0129 19.1798 23.9513 19.31 23.93C19.3674 23.6674 19.3909 23.3986 19.38 23.13C19.38 23.13 19.27 23.07 19.14 23.13C19.0537 23.1866 18.9532 23.2178 18.85 23.22C18.8123 23.2275 18.7734 23.2265 18.7361 23.2172C18.6988 23.2079 18.664 23.1904 18.6343 23.166C18.6046 23.1416 18.5807 23.1109 18.5642 23.0762C18.5478 23.0414 18.5393 23.0034 18.5393 22.965C18.5393 22.9265 18.5478 22.8886 18.5642 22.8538C18.5807 22.8191 18.6046 22.7884 18.6343 22.764C18.664 22.7396 18.6988 22.7221 18.7361 22.7128C18.7734 22.7034 18.8123 22.7025 18.85 22.71M20 26C19.9995 26.1035 19.9682 26.2044 19.91 26.29C19.8506 26.3717 19.7714 26.437 19.68 26.48C19.5822 26.5095 19.4778 26.5095 19.38 26.48C19.2776 26.4625 19.1833 26.4136 19.11 26.34C19.0384 26.2653 18.9898 26.1715 18.97 26.07C18.9405 25.9722 18.9405 25.8678 18.97 25.77C19.0106 25.676 19.0775 25.5958 19.1626 25.539C19.2478 25.4822 19.3476 25.4513 19.45 25.45C19.5847 25.4524 19.7134 25.5061 19.81 25.6C19.8692 25.6486 19.9169 25.7096 19.9497 25.7788C19.9826 25.8479 19.9997 25.9234 20 26ZM15.24 26.1C15.71 26.1 15.64 26.4 16.03 26.4C16.08 26.4 16.13 26.4 16.13 26.4C16.13 26.4 16.03 26.75 15.84 26.75C15.65 26.75 15.58 26.51 15.4 26.51C15.22 26.51 15.21 26.58 15.21 26.82C15.2678 27.37 15.5153 27.8827 15.91 28.27C15.9458 28.212 15.9958 28.1641 16.0553 28.1308C16.1148 28.0976 16.1818 28.0801 16.25 28.08C16.3739 28.0951 16.487 28.1578 16.5654 28.2549C16.6438 28.3519 16.6813 28.4757 16.67 28.6C16.6748 28.6927 16.6577 28.7852 16.62 28.87C16.7157 28.933 16.8258 28.9709 16.94 28.98C16.9982 28.985 17.0567 28.9769 17.1113 28.9562C17.1659 28.9356 17.2152 28.9029 17.2555 28.8607C17.2958 28.8185 17.3261 28.7677 17.3442 28.7122C17.3623 28.6567 17.3677 28.5979 17.36 28.54C17.36 27.7 16.25 26.97 16.25 25.92C16.25 25.6548 16.3554 25.4004 16.5429 25.2129C16.7304 25.0254 16.9848 24.92 17.25 24.92C18.01 24.92 17.87 25.61 18.52 25.61H18.57C18.57 25.61 18.46 26.03 18.12 26.03C17.78 26.03 17.66 25.41 17.34 25.41C17.22 25.41 17.04 25.48 17.04 25.9C17.0901 26.3769 17.2256 26.841 17.44 27.27C17.4812 27.2226 17.5324 27.185 17.59 27.16C17.6495 27.1486 17.7105 27.1486 17.77 27.16C17.9117 27.1751 18.0416 27.2456 18.1315 27.3561C18.2214 27.4667 18.264 27.6082 18.25 27.75C18.251 27.8486 18.2321 27.9464 18.1943 28.0375C18.1564 28.1286 18.1006 28.2111 18.03 28.28C18.087 28.3828 18.1674 28.4707 18.2647 28.5368C18.362 28.6028 18.4734 28.645 18.59 28.66C19.03 28.66 19.24 28.41 19.24 28.13C19.24 27.85 18.68 27.71 18.68 27.25C18.6731 27.1901 18.6783 27.1294 18.6953 27.0715C18.7123 27.0136 18.7408 26.9598 18.7791 26.9131C18.8173 26.8665 18.8646 26.828 18.918 26.8C18.9714 26.772 19.0299 26.755 19.09 26.75C19.2185 26.7585 19.341 26.8075 19.44 26.89C19.5374 26.805 19.6608 26.7556 19.79 26.75C19.8492 26.7562 19.9067 26.7741 19.9589 26.8027C20.0112 26.8313 20.0572 26.8699 20.0945 26.9164C20.1317 26.9629 20.1593 27.0164 20.1757 27.0736C20.1921 27.1309 20.1969 27.1908 20.19 27.25C20.19 27.71 19.64 27.82 19.64 28.13C19.64 28.44 19.83 28.66 20.28 28.66C20.3966 28.645 20.508 28.6028 20.6053 28.5368C20.7026 28.4707 20.783 28.3828 20.84 28.28C20.7703 28.211 20.7156 28.1282 20.6795 28.037C20.6433 27.9458 20.6265 27.8481 20.63 27.75C20.616 27.6082 20.6586 27.4667 20.7485 27.3561C20.8384 27.2456 20.9683 27.1751 21.11 27.16C21.2342 27.1697 21.351 27.2228 21.44 27.31C21.6528 26.8811 21.785 26.4167 21.83 25.94C21.83 25.52 21.65 25.45 21.54 25.45C21.21 25.45 21.11 26.07 20.75 26.07C20.39 26.07 20.3 25.69 20.3 25.65C20.3 25.61 20.3 25.65 20.35 25.65C21.01 25.65 20.87 24.96 21.62 24.96C21.8852 24.96 22.1396 25.0654 22.3271 25.2529C22.5146 25.4404 22.62 25.6948 22.62 25.96C22.62 26.96 21.51 27.74 21.51 28.58C21.5052 28.6427 21.5152 28.7056 21.5393 28.7637C21.5634 28.8217 21.6008 28.8733 21.6485 28.9142C21.6962 28.9551 21.7529 28.9842 21.814 28.9991C21.8751 29.014 21.9388 29.0143 22 29C22.1136 28.9878 22.223 28.9502 22.32 28.89C22.2792 28.8059 22.2587 28.7134 22.26 28.62C22.2487 28.4957 22.2862 28.3719 22.3646 28.2749C22.443 28.1778 22.5561 28.1151 22.68 28.1C22.7497 28.0993 22.8184 28.1164 22.8796 28.1496C22.9409 28.1829 22.9926 28.2312 23.03 28.29C23.4247 27.9027 23.6722 27.39 23.73 26.84C23.73 26.59 23.62 26.53 23.54 26.53C23.46 26.53 23.35 26.77 23.1 26.77C22.85 26.77 22.81 26.55 22.81 26.42C22.81 26.29 22.86 26.42 22.91 26.42C23.31 26.42 23.24 26.12 23.7 26.12C23.86 26.12 24.39 26.21 24.39 26.96C24.39 28.1 22.98 28.45 23.31 29.33C22.71 29.25 22.71 29.83 22.7 30.88C21.6459 30.5862 20.5539 30.4514 19.46 30.48C18.366 30.4484 17.2735 30.5833 16.22 30.88C16.22 29.88 16.22 29.25 15.62 29.33C15.94 28.45 14.53 28.11 14.53 26.96C14.53 26.21 15.06 26.12 15.22 26.12M12.22 31.72C12.22 31.66 12.28 31.64 12.3 31.72C12.333 31.8062 12.3433 31.8994 12.33 31.9907C12.3167 32.082 12.2802 32.1683 12.2241 32.2415C12.1679 32.3147 12.0939 32.3723 12.0092 32.4088C11.9245 32.4453 11.8318 32.4595 11.74 32.45C11.36 32.45 11.15 32.17 10.61 32.08C10.37 32.08 10.2 32.08 10.2 32C10.2 31.92 10.55 31.93 10.61 31.93C11.17 31.93 11.24 32.06 11.61 32.06C11.737 32.0739 11.8651 32.0476 11.9764 31.9848C12.0876 31.922 12.1763 31.8259 12.23 31.71M6.13 33.38C6.56 33.59 6.79 33.13 6.69 32.66C6.59427 32.3997 6.57256 32.118 6.62729 31.8462C6.68201 31.5743 6.81103 31.3229 7 31.12C7.08183 31.1827 7.18016 31.2201 7.28296 31.2278C7.38575 31.2354 7.48855 31.2129 7.57876 31.1631C7.66896 31.1132 7.74267 31.0381 7.79085 30.947C7.83902 30.8558 7.85958 30.7526 7.85 30.65C7.85 30.58 7.78 30.57 7.78 30.65C7.77524 30.7307 7.74106 30.8068 7.68392 30.8639C7.62678 30.9211 7.55066 30.9552 7.47 30.96C7.30136 30.9404 7.14371 30.8663 7.02099 30.749C6.89826 30.6317 6.81716 30.4776 6.79 30.31C6.93519 30.2095 7.10078 30.1422 7.27496 30.1131C7.44913 30.0839 7.62759 30.0936 7.79761 30.1413C7.96762 30.1891 8.125 30.2738 8.25852 30.3894C8.39203 30.5049 8.49839 30.6486 8.57 30.81C8.57 30.9 8.7 30.9 8.69 30.81C8.68127 30.6633 8.6342 30.5214 8.55348 30.3986C8.47275 30.2757 8.36121 30.1762 8.23 30.11C7.85 29.91 7.99 29.62 8.09 29.52C8.19 29.42 8.21 29.52 8.19 29.52C8.04 29.78 8.36 29.89 8.8 29.84C9.73 29.71 10.04 30.06 10.09 30.3C10.29 30.35 11.09 30.8 11.09 30.96C11.0851 31.0011 11.0708 31.0404 11.0483 31.0751C11.0257 31.1098 10.9955 31.1388 10.96 31.16C10.9628 31.2633 10.9448 31.3662 10.907 31.4624C10.8692 31.5586 10.8124 31.6462 10.74 31.72C9.74 31.12 9.47 31.72 9.57 32.08C9.57 32.08 9.74 32.23 10.41 32.23C10.3994 32.338 10.3689 32.4431 10.32 32.54C10.3639 32.5878 10.3921 32.6479 10.4011 32.7122C10.41 32.7765 10.3992 32.842 10.37 32.9C10.0915 32.7283 9.76639 32.6479 9.44 32.67C9.44 32.67 9.06 33.24 10.44 33.52C10.9717 33.6333 11.4476 33.9274 11.7868 34.3523C12.1259 34.7771 12.3073 35.3064 12.3 35.85C11.16 35.63 10.64 36.85 9.16 36.68C9.23707 36.4462 9.23707 36.1938 9.16 35.96C9.03709 36.2294 8.82523 36.4483 8.56 36.58C8.17293 36.5393 7.81565 36.3535 7.56 36.06C7.73036 35.8947 7.84208 35.6782 7.87818 35.4436C7.91428 35.2089 7.87278 34.9689 7.76 34.76C7.64249 34.9274 7.46795 35.0461 7.26911 35.094C7.07028 35.1419 6.86081 35.1156 6.68 35.02C6.62 35.02 6.68 34.95 6.68 34.94C7.68 34.62 7.02 33.79 6.96 33.71C6.88402 33.7614 6.79638 33.793 6.70506 33.802C6.61374 33.8109 6.52165 33.7968 6.43716 33.761C6.35267 33.7252 6.27848 33.6689 6.22134 33.5971C6.1642 33.5253 6.12592 33.4404 6.11 33.35M13.27 49.23C13.27 50.72 10.83 49.32 8.49 49.23C6.49 49.1 5.99 49.6 5.99 49.6L6.35 47.6C6.35 47.49 6.79 47.18 8.14 47.18C9.0653 47.1428 9.98902 47.2854 10.86 47.6V48.6C10.8538 48.6951 10.8801 48.7894 10.9347 48.8676C10.9892 48.9457 11.0686 49.003 11.16 49.03C11.16 48.94 11.43 48.35 13.27 48.35V49.23ZM11.1 41.43C10.4625 41.069 9.79297 40.7677 9.1 40.53C9.19072 40.5127 9.27393 40.4679 9.33833 40.4017C9.40274 40.3356 9.44521 40.2512 9.46 40.16C9.47695 40.085 9.47073 40.0065 9.44216 39.9351C9.41359 39.8637 9.36402 39.8026 9.3 39.76C9.63372 39.4305 10.0726 39.2287 10.54 39.19C11.79 39.19 12.84 40.87 13.34 40.87C13.3844 40.8673 13.4274 40.8542 13.4657 40.8316C13.504 40.809 13.5363 40.7776 13.56 40.74C13.56 41.25 13.29 41.29 13.15 41.29C13.0691 41.2931 12.9891 41.2723 12.92 41.23C12.92 41.23 12.92 41.3 12.92 41.33C12.8478 41.8038 12.6313 42.2438 12.3 42.59C12.59 42.88 13.3 43.38 13.49 43.12C13.68 42.86 13.94 42.35 14.44 42.87C14.16 42.87 13.94 43.06 14.02 43.35C14.42 43.03 14.97 43.08 14.97 43.82C14.9273 43.7634 14.8732 43.7164 14.8113 43.6819C14.7494 43.6474 14.681 43.6262 14.6104 43.6196C14.5399 43.613 14.4687 43.6212 14.4015 43.6436C14.3343 43.6661 14.2724 43.7023 14.22 43.75C14.339 43.7447 14.4564 43.7781 14.5547 43.8453C14.6531 43.9124 14.7269 44.0097 14.7653 44.1224C14.8036 44.2351 14.8043 44.3573 14.7673 44.4704C14.7303 44.5836 14.6575 44.6817 14.56 44.75C14.56 44.36 14.29 44.3 14.1 44.3C13.7 44.3 13.41 44.66 13.1 44.3C13 44.8 12.44 44.75 12.3 44.73C12.3829 44.6865 12.4542 44.6239 12.5081 44.5474C12.562 44.4709 12.5969 44.3827 12.61 44.29C12.61 43.98 12.01 43.57 11.73 43.57C11.45 43.57 11.44 43.78 11.11 43.78C11.0072 43.7785 10.9063 43.7523 10.8158 43.7036C10.7253 43.6548 10.6478 43.585 10.59 43.5C10.59 43.5 11.1 43.61 11.27 42.95C11.44 42.29 11.5 41.76 11.2 41.5M11.41 48.31H11.35V46.31C11.35 45.73 15.35 45.39 19.54 45.39C23.73 45.39 27.73 45.73 27.73 46.31V48.31C27.73 48.31 27.73 48.39 27.67 48.31C27.17 47.73 23.33 47.54 19.55 47.54C15.77 47.54 11.92 47.74 11.41 48.31ZM24.6 42.97C25.1 42.45 25.46 43.11 25.6 43.22C25.74 43.33 26.51 42.98 26.79 42.69C26.3809 42.347 26.1021 41.874 26 41.35V41.25C25.9299 41.2898 25.8506 41.3105 25.77 41.31C25.63 41.31 25.35 41.31 25.35 40.76C25.3715 40.7974 25.4019 40.8288 25.4386 40.8515C25.4752 40.8742 25.517 40.8874 25.56 40.89C26.07 40.89 27.12 39.21 28.36 39.21C28.8309 39.2464 29.2737 39.4484 29.61 39.78C29.5505 39.8267 29.5044 39.8883 29.4763 39.9585C29.4482 40.0287 29.4391 40.1051 29.45 40.18C29.4654 40.2725 29.5094 40.358 29.5757 40.4243C29.642 40.4906 29.7275 40.5346 29.82 40.55C29.1255 40.7839 28.4556 41.0853 27.82 41.45C27.51 41.71 27.57 42.21 27.75 42.9C27.93 43.59 28.29 43.47 28.42 43.45C28.36 43.5352 28.2807 43.605 28.1886 43.6536C28.0965 43.7023 27.9942 43.7285 27.89 43.73C27.56 43.73 27.45 43.52 27.28 43.52C27.11 43.52 26.4 43.93 26.4 44.24C26.4131 44.3327 26.448 44.4209 26.5019 44.4974C26.5558 44.5739 26.6271 44.6365 26.71 44.68C26.71 44.68 26.02 44.75 25.9 44.25C25.6 44.63 25.31 44.25 24.9 44.25C24.8393 44.2457 24.7784 44.2543 24.7214 44.2752C24.6643 44.2962 24.6123 44.329 24.5688 44.3715C24.5253 44.4141 24.4914 44.4653 24.4692 44.5219C24.447 44.5786 24.437 44.6393 24.44 44.7C24.3425 44.6317 24.2697 44.5336 24.2327 44.4204C24.1957 44.3073 24.1964 44.1851 24.2347 44.0724C24.273 43.9597 24.3469 43.8624 24.4453 43.7953C24.5436 43.7281 24.661 43.6947 24.78 43.7C24.7284 43.6525 24.6674 43.6165 24.601 43.5941C24.5346 43.5717 24.4642 43.5636 24.3944 43.5702C24.3246 43.5768 24.257 43.598 24.196 43.6324C24.1349 43.6668 24.0818 43.7137 24.04 43.77C24.04 43.77 23.99 43.77 23.99 43.77C23.99 43.03 24.55 42.98 24.99 43.3C25.07 43.01 24.85 42.82 24.57 42.82M30.47 49.1C28.12 49.24 25.69 50.63 25.69 49.1V48.23C27.52 48.23 27.8 48.82 27.8 48.91C27.8886 48.8797 27.9648 48.8212 28.0171 48.7436C28.0695 48.666 28.0951 48.5735 28.09 48.48V47.48C28.9652 47.1685 29.8916 47.026 30.82 47.06C32.17 47.06 32.59 47.37 32.61 47.48L32.97 49.48C32.97 49.48 32.42 48.98 30.47 49.11M35.47 35.62C35.283 35.6241 35.0977 35.583 34.93 35.5C34.85 35.5 34.93 35.5 34.93 35.5C35.0246 35.6274 35.0875 35.7754 35.1136 35.9319C35.1397 36.0884 35.1282 36.2488 35.08 36.4C35.08 36.4 35.03 36.4 35.03 36.4C34.9546 36.1186 34.7901 35.8691 34.5612 35.6889C34.3323 35.5087 34.0512 35.4073 33.76 35.4C33.6492 35.3895 33.5375 35.4045 33.4334 35.4437C33.3294 35.483 33.2356 35.5456 33.1594 35.6266C33.0832 35.7077 33.0265 35.8051 32.9937 35.9114C32.9608 36.0177 32.9527 36.1301 32.97 36.24C32.97 37.24 34.68 37.94 34.68 39.24C34.68 40.54 33.25 40.91 32.41 40.69C32.41 42.06 34.02 42.53 34.07 41.55C34.07 41.55 34.07 41.49 34.13 41.55C34.33 42.04 34.25 42.46 33.64 42.55C33.64 42.55 33.64 42.55 33.64 42.61C34.24 42.99 33.92 44.5 33.89 44.94C33.89 45.58 34.48 45.5 34.53 45.48C34.58 45.46 34.53 45.48 34.53 45.54C34.4655 45.6078 34.388 45.6617 34.302 45.6986C34.2161 45.7355 34.1235 45.7545 34.03 45.7545C33.9365 45.7545 33.8439 45.7355 33.758 45.6986C33.672 45.6617 33.5945 45.6078 33.53 45.54C33.11 45.67 33.37 46.02 33.65 46.21V46.27C33.65 46.27 32.93 46.34 32.81 45.81C32.7134 45.9216 32.5836 45.9993 32.4396 46.0317C32.2956 46.0641 32.1451 46.0495 32.01 45.99C31.89 45.92 31.28 45.7 31.22 46.38C31.22 46.38 31.22 46.38 31.17 46.38C31.0748 46.3131 31.0032 46.2177 30.9657 46.1076C30.9281 45.9975 30.9264 45.8783 30.9608 45.7671C30.9953 45.656 31.0641 45.5586 31.1574 45.489C31.2507 45.4195 31.3636 45.3813 31.48 45.38C31.4312 45.3282 31.371 45.2884 31.3042 45.2638C31.2374 45.2392 31.1658 45.2304 31.0951 45.2382C31.0243 45.2459 30.9563 45.27 30.8964 45.3085C30.8366 45.347 30.7864 45.3988 30.75 45.46C30.75 44.72 31.31 44.66 31.7 44.98C31.7 44.9 31.84 44.49 31.26 44.5C31.3159 44.4293 31.3884 44.3734 31.4709 44.3372C31.5535 44.3011 31.6437 44.2858 31.7336 44.2927C31.8235 44.2996 31.9103 44.3285 31.9864 44.3769C32.0625 44.4252 32.1256 44.4915 32.17 44.57C32.37 44.81 32.88 44.71 32.93 44.71C32.76 42.15 30.52 43.06 30.21 41.81C30.21 41.75 30.21 41.81 30.16 41.81C30.07 42.11 29.31 42.16 29.16 41.56C29.81 42.21 31.28 40.18 29.27 38.56C28.762 38.0727 28.0936 37.7875 27.3902 37.758C26.6869 37.7286 25.997 37.9568 25.45 38.4C25.441 38.4302 25.4383 38.4619 25.4421 38.4932C25.4459 38.5245 25.4561 38.5547 25.472 38.5819C25.488 38.6091 25.5093 38.6327 25.5348 38.6513C25.5602 38.6699 25.5892 38.6831 25.62 38.69C25.62 38.69 25.62 38.69 25.62 38.75C25.5354 38.7846 25.4422 38.7927 25.3528 38.773C25.2635 38.7534 25.1823 38.707 25.12 38.64C24.75 38.9 25.07 39.21 25.22 39.31C25.0742 39.3224 24.9289 39.2801 24.8125 39.1914C24.6961 39.1027 24.6168 38.9739 24.59 38.83H24.53V40.29C24.53 42.35 22.15 42.63 19.53 44.39C16.91 42.64 14.53 42.39 14.53 40.29V39.06H14.47C14.4432 39.2039 14.3639 39.3327 14.2475 39.4214C14.1311 39.5101 13.9858 39.5524 13.84 39.54C13.84 39.54 14.3 39.13 13.93 38.87C13.8686 38.9382 13.7873 38.9855 13.6976 39.0052C13.608 39.0249 13.5144 39.0161 13.43 38.98C13.43 38.98 13.43 38.98 13.43 38.92C13.461 38.9129 13.4902 38.8998 13.516 38.8814C13.5419 38.8629 13.5638 38.8395 13.5805 38.8126C13.5973 38.7856 13.6085 38.7556 13.6136 38.7242C13.6186 38.6929 13.6174 38.6609 13.61 38.63C13.0597 38.1902 12.3689 37.9641 11.6651 37.9935C10.9612 38.0229 10.2917 38.3058 9.78 38.79C7.78 40.45 9.24 42.48 9.9 41.79C9.76 42.38 9 42.34 8.9 42.04C8.59 43.29 6.33 42.38 6.18 44.94C6.18 44.94 6.73 45.04 6.93 44.8C6.97565 44.7215 7.0397 44.6553 7.11663 44.6071C7.19356 44.5588 7.28106 44.53 7.3716 44.5231C7.46213 44.5163 7.55299 44.5315 7.63633 44.5675C7.71967 44.6036 7.793 44.6593 7.85 44.73C7.27 44.73 7.4 45.13 7.42 45.21C7.8 44.89 8.42 44.95 8.36 45.69C8.32357 45.6288 8.27344 45.577 8.21356 45.5385C8.15368 45.5 8.08569 45.4759 8.01493 45.4682C7.94417 45.4604 7.87257 45.4692 7.80578 45.4938C7.73898 45.5184 7.67881 45.5582 7.63 45.61C7.74418 45.6152 7.85403 45.6553 7.94479 45.7248C8.03554 45.7943 8.10286 45.8899 8.1377 45.9987C8.17253 46.1076 8.17322 46.2245 8.13967 46.3338C8.10612 46.4431 8.03993 46.5394 7.95 46.61C7.95 46.61 7.89 46.67 7.89 46.61C7.89 45.93 7.22 46.15 7.1 46.22C6.96494 46.2795 6.81435 46.2941 6.67036 46.2617C6.52637 46.2293 6.39656 46.1516 6.3 46.04C6.18 46.57 5.53 46.51 5.47 46.5C5.41 46.49 5.41 46.5 5.47 46.44C5.76 46.25 6.01 45.9 5.59 45.77C5.52555 45.8378 5.44799 45.8917 5.36203 45.9286C5.27608 45.9655 5.18353 45.9845 5.09 45.9845C4.99647 45.9845 4.90392 45.9655 4.81797 45.9286C4.73201 45.8917 4.65445 45.8378 4.59 45.77C4.59 45.71 4.59 45.71 4.59 45.71C4.59 45.71 5.28 45.81 5.23 45.17C5.23 44.73 4.88 43.17 5.48 42.84C5.48 42.84 5.54 42.78 5.48 42.78C4.87 42.64 4.8 42.22 4.99 41.78C4.99 41.72 5.05 41.73 5.05 41.78C5.05 42.78 6.67 42.29 6.72 40.92C5.88 41.13 4.44 40.84 4.44 39.47C4.44 38.1 6 37.37 6 36.39C6.01554 36.2795 6.00589 36.167 5.97179 36.0607C5.93769 35.9545 5.88001 35.8574 5.80307 35.7766C5.72613 35.6958 5.63192 35.6335 5.52749 35.5942C5.42306 35.555 5.3111 35.5399 5.2 35.55C4.90959 35.5562 4.62921 35.6573 4.40168 35.8379C4.17416 36.0185 4.01201 36.2686 3.94 36.55C3.94 36.55 3.94 36.55 3.88 36.55C3.83321 36.3981 3.82332 36.2372 3.85114 36.0806C3.87897 35.9241 3.94371 35.7765 4.04 35.65C4.04 35.65 4.04 35.57 3.98 35.65C3.81231 35.733 3.62704 35.7741 3.44 35.77C3.33119 35.7836 3.22071 35.7729 3.11655 35.7387C3.01239 35.7044 2.91714 35.6474 2.83771 35.5718C2.75828 35.4962 2.69665 35.4039 2.65726 35.3015C2.61788 35.1992 2.60174 35.0893 2.61 34.98C2.61 34.68 2.71 34.52 2.68 34.42C2.65 34.32 2.68 34.34 2.74 34.42C2.79021 34.5807 2.89172 34.7206 3.02898 34.8181C3.16625 34.9156 3.3317 34.9655 3.5 34.96H4.84C5.04564 34.9387 5.25346 34.9614 5.4497 35.0264C5.64594 35.0915 5.82613 35.1975 5.97833 35.3374C6.13054 35.4773 6.25129 35.6479 6.3326 35.838C6.41392 36.0281 6.45393 36.2333 6.45 36.44C6.45 37.65 4.91 38.17 4.91 39.44C4.91 39.72 5.05 40.2 5.85 40.2C6.1487 40.1949 6.4438 40.1338 6.72 40.02C6.72 40.02 7.08 37.76 8.11 37C8.48828 37.1789 8.90154 37.2717 9.32 37.2717C9.73846 37.2717 10.1517 37.1789 10.53 37C11.44 36.51 11.87 36.17 12.68 36.73C13.49 37.29 14.19 37.89 14.27 37.88H14.47V33C14.4172 32.9908 14.3629 32.9947 14.3119 33.0112C14.2609 33.0277 14.2146 33.0564 14.1772 33.0948C14.1398 33.1332 14.1123 33.1802 14.0971 33.2316C14.0819 33.2831 14.0795 33.3374 14.09 33.39C14.09 33.5 14.24 33.59 13.98 33.97H13.92C13.92 33.88 13.87 33.72 13.74 33.72C13.2896 33.9457 12.8858 34.2544 12.55 34.63C12.465 34.3881 12.3328 34.1654 12.1611 33.9749C11.9895 33.7843 11.7818 33.6297 11.55 33.52C11.93 33.46 13.55 33.06 13.55 32.34C13.55 32.1 13.82 32.04 14 32.06C14 32.06 14.27 31.4 14.78 31.73V31.8C14.56 31.8 14.46 32.08 14.46 32.32C14.63 32.27 15.04 32.15 15.61 32.03V33.56H16.28V31.85C17.3121 31.6552 18.3597 31.5548 19.41 31.55C21.1018 31.5595 22.7843 31.8018 24.41 32.27C24.41 32.03 24.31 31.8 24.08 31.75C24.08 31.75 24.08 31.7 24.08 31.68C24.57 31.35 24.84 31.99 24.85 32.01C25.03 32.01 25.3 32.01 25.3 32.29C25.3 33.01 26.95 33.41 27.3 33.47C26.8547 33.707 26.5154 34.1034 26.35 34.58C26.0112 34.2076 25.6081 33.8994 25.16 33.67C25.03 33.67 24.98 33.83 24.97 33.92C24.96 34.01 24.97 33.92 24.92 33.92C24.67 33.54 24.78 33.44 24.81 33.34C24.8205 33.2874 24.8181 33.2331 24.8029 33.1816C24.7877 33.1302 24.7602 33.0832 24.7228 33.0448C24.6854 33.0064 24.6391 32.9777 24.5881 32.9612C24.5371 32.9447 24.4828 32.9408 24.43 32.95V37.77H24.62C24.71 37.77 25.41 37.18 26.21 36.62C27.01 36.06 27.46 36.4 28.38 36.89C28.7513 37.0798 29.1603 37.1845 29.5771 37.1966C29.994 37.2087 30.4083 37.1279 30.79 36.96C31.79 37.7 32.18 39.84 32.18 39.84C32.4594 39.9548 32.758 40.0159 33.06 40.02C33.84 40.02 33.99 39.55 33.99 39.26C33.99 38.04 32.46 37.52 32.46 36.26C32.4546 36.0538 32.4933 35.8488 32.5735 35.6587C32.6536 35.4686 32.7735 35.2978 32.9249 35.1577C33.0763 35.0176 33.2559 34.9115 33.4517 34.8463C33.6474 34.7812 33.8548 34.7586 34.06 34.78H35.37C35.539 34.7889 35.7061 34.7405 35.8441 34.6424C35.9821 34.5444 36.0828 34.4026 36.13 34.24C36.13 34.19 36.22 34.24 36.2 34.24C36.18 34.24 36.26 34.5 36.26 34.8C36.2683 34.9093 36.2521 35.0192 36.2127 35.1215C36.1734 35.2238 36.1117 35.3162 36.0323 35.3918C35.9529 35.4674 35.8576 35.5244 35.7535 35.5587C35.6493 35.5929 35.5388 35.6036 35.43 35.59" fill="#F8FBF8"/>
<path d="M23.6199 35.9999C23.603 36.089 23.5539 36.1688 23.482 36.2241C23.4101 36.2795 23.3204 36.3064 23.2299 36.2999C22.9799 36.2999 22.5499 36.1699 22.2299 36.1699C22.1325 36.1631 22.0348 36.1763 21.9428 36.2089C21.8508 36.2415 21.7665 36.2927 21.6952 36.3593C21.6239 36.426 21.5671 36.5066 21.5283 36.5962C21.4895 36.6857 21.4697 36.7823 21.4699 36.8799C21.4699 37.5299 22.1499 37.6499 22.1499 38.2699C22.1499 38.7299 21.4999 38.8799 21.0399 38.4399C20.9568 37.9524 20.7766 37.4865 20.5099 37.0699C19.3099 37.4599 19.0799 36.6999 18.4299 36.6999C17.7799 36.6999 17.1699 37.6999 16.5999 37.8099L16.6799 37.2299H16.7399V36.7399C16.7399 36.7399 16.6099 37.0499 16.5999 37.0999C16.5899 37.1499 16.5999 37.0999 16.5499 37.0999L16.3699 36.6799C16.3699 36.6799 16.3699 37.0499 16.3699 37.1399L16.0899 36.7199L16.1999 37.2199L15.8199 36.8399L16.0199 37.3499L15.5899 37.0599L15.8799 37.4899L15.4499 37.3299L15.7899 37.6599H15.3999L15.8399 37.8599V37.8099L16.2199 37.9099C16.1199 38.0199 16.1599 38.1699 16.1399 38.2299C16.1816 38.1676 16.2381 38.1166 16.3045 38.0817C16.3709 38.0467 16.4449 38.029 16.5199 38.0299C16.4315 38.0676 16.3596 38.1358 16.3174 38.2221C16.2752 38.3084 16.2654 38.407 16.2899 38.4999C16.3799 38.3956 16.4979 38.3192 16.6299 38.2799L16.5599 38.7899C16.6563 38.8184 16.7578 38.8252 16.8572 38.8098C16.9565 38.7943 17.0512 38.7571 17.1344 38.7006C17.2176 38.6442 17.2873 38.57 17.3384 38.4835C17.3895 38.3969 17.4207 38.3 17.4299 38.1999L16.9899 38.0899C17.4896 37.7236 18.0904 37.521 18.7099 37.5099C19.1212 37.552 19.504 37.7391 19.7899 38.0378C20.0757 38.3365 20.2459 38.7272 20.2699 39.1399C20.2773 39.3329 20.2287 39.524 20.1299 39.6899C19.9599 39.9399 19.8199 39.8799 19.7599 39.8199C19.8399 40.1399 20.2599 40.1299 20.3199 39.9599C20.5399 40.7399 21.5099 39.8999 22.0199 40.9599C22.0199 40.9599 21.7499 41.0999 21.5999 40.9599C21.4499 40.8199 21.1599 40.9599 21.1099 41.0899C21.1951 41.0592 21.2887 41.0617 21.3721 41.0969C21.4555 41.1321 21.5225 41.1975 21.5599 41.2799C21.3199 41.1699 20.9999 41.2799 21.1399 41.6999C21.1479 41.6622 21.1645 41.6269 21.1884 41.5966C21.2123 41.5664 21.2429 41.5421 21.2777 41.5256C21.3126 41.5092 21.3508 41.501 21.3893 41.5017C21.4279 41.5025 21.4657 41.5121 21.4999 41.5299C21.4441 41.5538 21.3965 41.5935 21.3631 41.6442C21.3297 41.6949 21.3119 41.7542 21.3119 41.8149C21.3119 41.8756 21.3297 41.935 21.3631 41.9856C21.3965 42.0363 21.4441 42.076 21.4999 42.0999C21.4999 41.8999 21.5599 41.7499 21.7099 41.7499C21.7924 41.7595 21.8757 41.741 21.9465 41.6975C22.0172 41.654 22.0713 41.5879 22.0999 41.5099C22.2399 41.7499 22.5199 41.6599 22.6499 41.6099C22.6499 41.6099 22.2399 41.4299 22.4399 41.2899C22.4891 41.3092 22.5417 41.3186 22.5945 41.3175C22.6474 41.3164 22.6995 41.3048 22.7479 41.2834C22.7962 41.262 22.8399 41.2313 22.8763 41.1929C22.9127 41.1545 22.9411 41.1093 22.9599 41.0599C22.9599 41.0599 22.5699 41.2699 22.4799 40.9099C22.3899 40.5499 22.3899 40.2699 22.1899 40.1899C22.24 40.1756 22.2856 40.1484 22.322 40.111C22.3584 40.0737 22.3845 40.0275 22.3976 39.977C22.4107 39.9265 22.4105 39.8735 22.3968 39.8232C22.3832 39.7728 22.3567 39.7269 22.3199 39.6899C22.3199 40.2299 21.1699 39.7799 21.1399 39.0299C21.9299 39.2299 22.7199 39.0299 22.7199 38.2399C22.7199 37.4499 21.9799 37.1399 21.9799 36.7699C21.9798 36.7262 21.9887 36.6829 22.006 36.6427C22.0233 36.6025 22.0487 36.5663 22.0806 36.5363C22.1125 36.5063 22.1501 36.4831 22.1913 36.4683C22.2325 36.4534 22.2762 36.4472 22.3199 36.4499C22.4894 36.4795 22.6466 36.5576 22.7726 36.6748C22.8987 36.7919 22.988 36.9431 23.0299 37.1099C23.1399 36.9499 23.1599 36.6999 23.0299 36.6299C23.0299 36.5799 22.8999 36.5599 23.0299 36.6299C23.0299 36.6799 23.6999 36.6299 23.6999 36.2199C23.6999 36.0799 23.6999 35.9999 23.6999 35.9299C23.6999 35.8599 23.6199 35.8599 23.5999 35.9299" fill="#F8FBF8"/>
<path d="M16.0501 35.2899L15.7701 35.6699C15.7101 35.7499 16.0001 35.9599 16.0601 35.8799L16.4201 35.3799C16.4201 35.3799 17.5901 36.0099 17.8701 36.1799C17.8956 35.9452 17.9818 35.7212 18.1201 35.5299C17.7601 35.4399 17.0301 35.1999 17.0301 35.1999C17.0007 35.2347 16.9639 35.2627 16.9224 35.2817C16.8809 35.3007 16.8358 35.3103 16.7901 35.3099C16.6101 35.3099 16.4801 35.0999 16.4501 35.0299C16.4501 35.0299 16.6301 35.1099 16.6701 35.0299L16.8101 34.8299L17.1301 34.9899L17.2901 34.7699L17.0101 34.6699L18.3301 32.8199C18.3508 32.6773 18.3508 32.5325 18.3301 32.3899C18.1886 32.4145 18.0529 32.4653 17.9301 32.5399L16.5901 34.3799L16.4101 34.1499L16.2501 34.3599L16.5001 34.6299L16.3801 34.7999C16.2768 34.7466 16.1586 34.7294 16.0444 34.7512C15.9302 34.7729 15.8266 34.8323 15.7501 34.9199C15.8401 34.9199 16.1501 34.8299 16.1501 35.0399C16.1037 35.0185 16.0534 35.0067 16.0022 35.0052C15.9511 35.0038 15.9002 35.0126 15.8526 35.0313C15.8049 35.05 15.7616 35.0781 15.7251 35.1139C15.6886 35.1498 15.6597 35.1926 15.6401 35.2399C15.6401 35.2399 15.9201 35.1699 16.0201 35.2399" fill="#F8FBF8"/>
<path d="M20.1502 41.52H19.4702V43.39H20.1502V41.52Z" fill="#F8FBF8"/>
<path d="M48.11 33.3699C48.3234 33.3377 48.5158 33.2236 48.6465 33.0518C48.7772 32.8801 48.8358 32.6642 48.81 32.4499V26.5399L48 26.2999V25.9999C48.7963 25.8681 49.6029 25.8079 50.41 25.8199C52.23 25.8199 53.1 26.5299 53.1 27.8199C53.1214 28.3455 52.9596 28.8623 52.6422 29.2818C52.3248 29.7013 51.8716 29.9976 51.36 30.1199L53.07 32.3999C53.3466 32.7832 53.7393 33.0673 54.19 33.2099V33.4399C53.9178 33.6201 53.5962 33.711 53.27 33.6999C52.75 33.6999 52.41 33.4999 51.98 32.8499L50.38 30.4399H49.82V32.9799L50.58 33.1799V33.4399C50.1326 33.5753 49.6674 33.6427 49.2 33.6399C48.82 33.643 48.4409 33.6027 48.07 33.5199L48.11 33.3699ZM50.32 29.9399C50.5571 29.9429 50.7921 29.8953 51.0094 29.8004C51.2267 29.7055 51.4212 29.5654 51.5802 29.3894C51.7391 29.2135 51.8587 29.0057 51.9311 28.7799C52.0035 28.5541 52.027 28.3155 52 28.0799C52.0134 27.8629 51.9788 27.6455 51.8987 27.4433C51.8186 27.2411 51.6948 27.059 51.5364 26.9101C51.3779 26.7612 51.1885 26.649 50.9817 26.5815C50.7749 26.5141 50.5558 26.4931 50.34 26.5199C50.1655 26.5215 49.9915 26.5382 49.82 26.5699V29.9399H50.32ZM54.82 33.3999C55.15 33.2799 55.46 33.0399 55.46 32.7499V28.6699L54.69 28.3499V28.0899C55.156 27.9592 55.6362 27.8853 56.12 27.8699H56.51L56.45 28.5199V33.0999L57.12 33.2799V33.4999C56.6736 33.6542 56.2018 33.7221 55.73 33.6999C55.4236 33.7062 55.1177 33.6726 54.82 33.5999V33.3999ZM55.33 26.0699C55.3259 25.9781 55.3405 25.8865 55.3729 25.8005C55.4052 25.7145 55.4547 25.6359 55.5182 25.5696C55.5818 25.5032 55.6581 25.4504 55.7427 25.4144C55.8272 25.3784 55.9181 25.3598 56.01 25.3599C56.0953 25.3598 56.1798 25.3771 56.2582 25.4106C56.3367 25.4441 56.4075 25.4932 56.4664 25.5549C56.5253 25.6167 56.5711 25.6897 56.6009 25.7696C56.6308 25.8496 56.6441 25.9347 56.64 26.0199C56.6468 26.113 56.6346 26.2065 56.6043 26.2947C56.5739 26.383 56.526 26.4641 56.4633 26.5333C56.4007 26.6025 56.3247 26.6582 56.2399 26.6972C56.1551 26.7361 56.0633 26.7575 55.97 26.7599C55.8824 26.7574 55.7963 26.7374 55.7165 26.7012C55.6367 26.665 55.565 26.6133 55.5054 26.549C55.4458 26.4848 55.3997 26.4094 55.3695 26.3271C55.3394 26.2449 55.326 26.1574 55.33 26.0699ZM58.33 28.6699L57.56 28.3499V28.0899C58.0292 27.9578 58.5128 27.8839 59 27.8699H59.39L59.32 28.5399V33.9999C59.32 35.9999 58.73 36.5899 57.96 36.5899C57.832 36.5967 57.7042 36.574 57.5864 36.5238C57.4685 36.4735 57.3637 36.3969 57.28 36.2999V36.1099C57.81 36.1099 58.33 35.4999 58.33 34.2799V28.6699ZM58.19 26.0699C58.1873 25.9777 58.2032 25.8858 58.2367 25.7997C58.2701 25.7137 58.3205 25.6353 58.3849 25.569C58.4492 25.5028 58.5262 25.4502 58.6112 25.4143C58.6963 25.3784 58.7877 25.3599 58.88 25.3599C58.9653 25.3598 59.0498 25.3771 59.1282 25.4106C59.2067 25.4441 59.2775 25.4932 59.3364 25.5549C59.3953 25.6167 59.4411 25.6897 59.4709 25.7696C59.5008 25.8496 59.5141 25.9347 59.51 26.0199C59.5154 26.1135 59.5019 26.2072 59.4704 26.2955C59.4389 26.3838 59.39 26.4648 59.3266 26.5338C59.2632 26.6028 59.1865 26.6584 59.1012 26.6973C59.0159 26.7361 58.9237 26.7574 58.83 26.7599C58.7424 26.7574 58.6563 26.7374 58.5765 26.7012C58.4967 26.665 58.425 26.6133 58.3654 26.549C58.3058 26.4848 58.2597 26.4094 58.2295 26.3271C58.1994 26.2449 58.186 26.1574 58.19 26.0699ZM60.5 33.3999C60.83 33.2799 61.16 33.0399 61.16 32.7499V25.7499L60.36 25.4199V25.1599C60.8408 25.0419 61.3351 24.9881 61.83 24.9999H62.24L62.17 25.6799V30.4999L62.83 29.9199C63.4652 29.4479 63.909 28.7627 64.08 27.9899C64.2832 27.9238 64.4964 27.8933 64.71 27.8999C64.8763 27.8995 65.0405 27.9371 65.19 28.0099C65.0751 28.4562 64.8704 28.8744 64.5884 29.2389C64.3064 29.6034 63.9531 29.9066 63.55 30.1299L63.13 30.4299L65 32.6399C65.0993 32.7949 65.2313 32.9263 65.3868 33.0247C65.5423 33.1232 65.7175 33.1864 65.9 33.2099V33.4699C65.6343 33.648 65.3197 33.7388 65 33.7299C64.831 33.7313 64.6644 33.6899 64.5157 33.6094C64.3671 33.529 64.2413 33.4122 64.15 33.2699L62.15 30.6799V33.1099L62.78 33.3099V33.5299C62.3427 33.6792 61.8817 33.747 61.42 33.7299C61.1164 33.7335 60.8138 33.6965 60.52 33.6199V33.3999H60.5ZM66.38 32.2999C66.5988 32.533 66.8618 32.7203 67.1536 32.8508C67.4455 32.9812 67.7604 33.0523 68.08 33.0599C68.76 33.0599 69.08 32.7299 69.08 32.3099C69.08 31.8899 68.84 31.6299 68.08 31.3099L67.5 30.9999C67.1859 30.8959 66.912 30.6964 66.7166 30.4293C66.5212 30.1622 66.414 29.8408 66.41 29.5099C66.4275 29.2539 66.4962 29.004 66.612 28.7749C66.7278 28.5459 66.8883 28.3424 67.0841 28.1764C67.2798 28.0105 67.5069 27.8855 67.7518 27.8088C67.9967 27.7321 68.2545 27.7053 68.51 27.7299C69.51 27.7299 69.86 28.0199 69.86 28.4799C69.8604 28.6517 69.8402 28.8229 69.8 28.9899C69.3934 28.7079 68.9145 28.5483 68.42 28.5299C67.65 28.5299 67.29 28.8599 67.29 29.2699C67.29 29.6799 67.5 29.9499 68.23 30.2199L68.88 30.4799C69.75 30.8099 70.08 31.2599 70.08 31.9699C70.0515 32.2342 69.9707 32.4902 69.8422 32.7228C69.7136 32.9555 69.54 33.1602 69.3315 33.325C69.1229 33.4898 68.8836 33.6114 68.6275 33.6826C68.3714 33.7539 68.1037 33.7734 67.84 33.7399C66.78 33.7399 66.31 33.4099 66.31 32.7399C66.2922 32.5713 66.3234 32.4012 66.4 32.2499M73.65 27.7499C73.9287 27.7468 74.207 27.7736 74.48 27.8299V25.7599L73.67 25.4299V25.1699C74.1572 25.0491 74.6581 24.992 75.16 24.9999H75.55L75.48 25.6799V32.5799C75.5729 32.8478 75.731 33.0883 75.94 33.2799C75.6827 33.5061 75.3969 33.6977 75.09 33.8499C74.8475 33.6525 74.6527 33.403 74.52 33.1199C74.1066 33.528 73.5597 33.773 72.98 33.8099C72.66 33.7944 72.3467 33.7131 72.0596 33.5711C71.7725 33.429 71.5177 33.2293 71.3112 32.9843C71.1048 32.7394 70.9511 32.4545 70.8596 32.1475C70.7682 31.8405 70.7411 31.5179 70.78 31.1999C70.78 29.0299 72.08 27.8499 73.65 27.8499M74.49 32.6399V28.6399C74.2048 28.5531 73.9082 28.5093 73.61 28.5099C72.61 28.5099 71.82 29.3199 71.82 30.9899C71.82 32.3099 72.5 32.9899 73.26 32.9899C73.7007 33.0023 74.1331 32.8687 74.49 32.6099M76.81 33.4199C77.14 33.2999 77.45 33.0599 77.45 32.7699V28.6699L76.68 28.3499V28.0899C77.149 27.9571 77.6327 27.8832 78.12 27.8699H78.5L78.44 28.5199V33.0999L79.12 33.2799V33.4999C78.6701 33.6543 78.1951 33.7222 77.72 33.6999C77.4169 33.7068 77.1142 33.6731 76.82 33.5999V33.3999L76.81 33.4199ZM77.31 26.0899C77.3073 25.9977 77.3232 25.9058 77.3567 25.8197C77.3901 25.7337 77.4405 25.6553 77.5049 25.5891C77.5692 25.5228 77.6462 25.4702 77.7312 25.4343C77.8163 25.3984 77.9077 25.3799 78 25.3799C78.0853 25.3798 78.1698 25.3971 78.2482 25.4306C78.3267 25.4641 78.3975 25.5132 78.4564 25.5749C78.5153 25.6367 78.5611 25.7097 78.5909 25.7896C78.6208 25.8696 78.6341 25.9547 78.63 26.0399C78.6354 26.1335 78.6219 26.2272 78.5904 26.3155C78.5589 26.4038 78.51 26.4848 78.4466 26.5538C78.3832 26.6228 78.3065 26.6784 78.2212 26.7173C78.1359 26.7561 78.0437 26.7774 77.95 26.7799C77.8624 26.7774 77.7763 26.7574 77.6965 26.7212C77.6167 26.685 77.545 26.6333 77.4854 26.569C77.4258 26.5048 77.3796 26.4294 77.3495 26.3471C77.3194 26.2649 77.306 26.1774 77.31 26.0899ZM82.24 27.7999C82.5278 27.7855 82.8154 27.8334 83.0829 27.9404C83.3505 28.0474 83.5918 28.211 83.7903 28.4199C83.9888 28.6288 84.1397 28.8782 84.2329 29.1509C84.3261 29.4236 84.3592 29.7132 84.33 29.9999C84.33 30.2199 84.33 30.4599 84.33 30.7599H80.76C80.76 32.1199 81.54 32.8899 82.54 32.8899C83.145 32.8846 83.7355 32.7039 84.24 32.3699C84.2696 32.4708 84.2864 32.5749 84.29 32.6799C84.29 33.2299 83.5 33.7299 82.21 33.7299C81.8641 33.7241 81.523 33.6476 81.2076 33.5053C80.8923 33.3629 80.6094 33.1576 80.3762 32.902C80.1431 32.6463 79.9646 32.3458 79.8517 32.0187C79.7389 31.6916 79.6941 31.345 79.72 30.9999C79.72 28.9099 80.99 27.7699 82.24 27.7699M83.36 30.1699C83.36 28.9899 82.86 28.4199 82.14 28.4199C81.7385 28.4949 81.3785 28.7143 81.1279 29.0368C80.8772 29.3593 80.7535 29.7624 80.78 30.1699H83.36ZM85.1 33.3999C85.42 33.2799 85.74 33.0399 85.74 32.7499V28.6699L85 28.3499V28.0799C85.4729 27.951 85.9599 27.8804 86.45 27.8699H86.74V28.5199C87.2243 28.0736 87.8614 27.8301 88.52 27.8399C88.7613 27.8299 89.0018 27.8734 89.2244 27.9671C89.4469 28.0608 89.6461 28.2025 89.8075 28.3821C89.969 28.5617 90.0887 28.7748 90.1583 29.006C90.2279 29.2373 90.2455 29.4811 90.21 29.7199V33.0999L90.84 33.2799V33.4999C90.4328 33.6449 90.0021 33.7127 89.57 33.6999C89.3031 33.7074 89.0366 33.6736 88.78 33.5999V33.3999C89.09 33.2699 89.22 33.0399 89.22 32.6099V30.3099C89.22 29.1299 88.72 28.6799 88.01 28.6799C87.5674 28.6759 87.1344 28.8087 86.77 29.0599V33.1099L87.45 33.2799V33.5099C86.9997 33.6627 86.525 33.7305 86.05 33.7099C85.7429 33.7184 85.4362 33.6813 85.14 33.5999L85.1 33.3999ZM91.6 32.2999C91.821 32.5329 92.0858 32.72 92.3792 32.8504C92.6727 32.9808 92.989 33.052 93.31 33.0599C93.98 33.0599 94.31 32.7299 94.31 32.3099C94.31 31.8899 94.07 31.6299 93.31 31.3099L92.7 30.9999C92.3858 30.8959 92.112 30.6964 91.9166 30.4293C91.7212 30.1622 91.614 29.8408 91.61 29.5099C91.6275 29.2539 91.6962 29.004 91.812 28.7749C91.9278 28.5459 92.0883 28.3424 92.2841 28.1764C92.4798 28.0105 92.7069 27.8855 92.9518 27.8088C93.1967 27.7321 93.4545 27.7053 93.71 27.7299C94.71 27.7299 95.06 28.0199 95.06 28.4799C95.0612 28.6551 95.041 28.8297 95 28.9999C94.5965 28.7192 94.1212 28.5596 93.63 28.5399C92.86 28.5399 92.49 28.8699 92.49 29.2799C92.49 29.6899 92.71 29.9599 93.43 30.2299L94.08 30.4899C94.95 30.8199 95.28 31.2699 95.28 31.9799C95.2544 32.2498 95.1741 32.5117 95.0442 32.7496C94.9142 32.9876 94.7372 33.1966 94.524 33.364C94.3107 33.5315 94.0657 33.6538 93.8037 33.7235C93.5417 33.7933 93.2683 33.8091 93 33.7699C91.94 33.7699 91.47 33.4399 91.47 32.7699C91.4522 32.6013 91.4834 32.4312 91.56 32.2799M96.47 30.2799V28.6799H95.81V28.2899L97.19 26.9999L97.58 26.9499V28.0399H99.17L99.08 28.6899H97.5V30.2099C97.5 30.7099 97.5 31.2099 97.5 31.6099C97.5 32.6099 97.78 32.9299 98.23 32.9299C98.5557 32.9271 98.8716 32.8182 99.13 32.6199H99.25C99.25 33.3299 98.79 33.6999 97.95 33.6999C97.11 33.6999 96.52 33.1899 96.52 32.0199C96.52 31.4299 96.52 30.7999 96.52 30.2399M101.52 28.4299L101.03 28.0799V27.7999H103.33V28.0799L102.65 28.3699L103.95 32.1899L105.29 28.3999L104.61 28.0799V27.7899H106.46V28.0799L106.13 28.3599L104 33.7399H103.59L101.52 28.4299ZM109.32 27.6999C109.691 27.6883 110.06 27.7557 110.402 27.8978C110.745 28.0399 111.053 28.2534 111.307 28.524C111.56 28.7946 111.753 29.1162 111.873 29.4672C111.992 29.8183 112.036 30.1908 112 30.5599C112.033 30.9597 111.985 31.3619 111.859 31.7428C111.734 32.1238 111.533 32.4757 111.269 32.7777C111.006 33.0798 110.684 33.3259 110.323 33.5015C109.963 33.6771 109.57 33.7785 109.17 33.7999C108.804 33.8139 108.439 33.75 108.1 33.6126C107.76 33.4752 107.454 33.2673 107.2 33.0027C106.947 32.7381 106.753 32.4227 106.63 32.0775C106.508 31.7323 106.46 31.365 106.49 30.9999C106.457 30.5994 106.505 30.1964 106.632 29.8148C106.758 29.4332 106.959 29.0809 107.224 28.7787C107.489 28.4765 107.812 28.2306 108.174 28.0556C108.535 27.8806 108.929 27.78 109.33 27.7599M109.21 33.0899C110.02 33.0899 110.86 32.2999 110.86 30.6499C110.86 29.2499 110.1 28.4599 109.24 28.4599C108.38 28.4599 107.6 29.2899 107.6 30.8899C107.6 32.4899 108.36 33.0899 109.21 33.0899ZM115.62 27.7599C115.98 27.7563 116.337 27.8273 116.668 27.9683C117 28.1094 117.298 28.3175 117.545 28.5795C117.792 28.8416 117.983 29.1519 118.104 29.491C118.225 29.8301 118.275 30.1907 118.25 30.5499C118.283 30.9497 118.235 31.3519 118.109 31.7328C117.984 32.1138 117.783 32.4657 117.519 32.7677C117.256 33.0698 116.934 33.3159 116.573 33.4915C116.213 33.6671 115.82 33.7685 115.42 33.7899C115.058 33.798 114.699 33.7302 114.365 33.5908C114.031 33.4514 113.73 33.2436 113.481 32.9807C113.232 32.7178 113.041 32.4058 112.921 32.0646C112.8 31.7234 112.752 31.3607 112.78 30.9999C112.747 30.5994 112.795 30.1964 112.922 29.8148C113.048 29.4332 113.249 29.0809 113.514 28.7787C113.779 28.4765 114.102 28.2306 114.464 28.0556C114.825 27.8806 115.219 27.78 115.62 27.7599ZM115.5 33.0899C116.31 33.0899 117.15 32.2999 117.15 30.6499C117.15 29.2499 116.39 28.4599 115.53 28.4599C114.67 28.4599 113.88 29.2899 113.88 30.8899C113.88 32.4899 114.65 33.0899 115.5 33.0899ZM119 33.3899C119.31 33.2699 119.64 33.0299 119.64 32.7399V28.6699L118.86 28.3499V28.0799C119.333 27.9502 119.82 27.8796 120.31 27.8699H120.59V28.7099L120.92 28.3299C121.05 28.1679 121.214 28.0365 121.401 27.9449C121.588 27.8533 121.792 27.8038 122 27.7999C122.42 27.7999 122.63 27.9799 122.63 28.3199C122.624 28.5747 122.559 28.8245 122.44 29.0499C122.228 28.8756 121.964 28.777 121.69 28.7699C121.489 28.779 121.292 28.8278 121.11 28.9137C120.928 28.9995 120.765 29.1206 120.63 29.2699V33.0999L121.46 33.2799V33.4999C120.98 33.6602 120.475 33.728 119.97 33.6999C119.634 33.7138 119.297 33.6801 118.97 33.5999V33.3999L119 33.3899ZM128.76 25.7799C130.54 25.7799 131.96 27.1799 131.96 29.4099C131.96 32.1899 130.26 33.7999 128.33 33.7999C126.56 33.7999 125.13 32.3499 125.13 29.9599C125.089 29.4462 125.151 28.9294 125.312 28.4398C125.473 27.9503 125.73 27.4977 126.068 27.1086C126.406 26.7194 126.818 26.4015 127.28 26.1734C127.743 25.9453 128.246 25.8115 128.76 25.7799ZM130.76 29.6299C130.76 27.5199 129.76 26.5599 128.61 26.5599C127.46 26.5599 126.3 27.7199 126.3 29.8199C126.3 31.9199 127.3 33.0299 128.43 33.0299C129.56 33.0299 130.76 31.9699 130.76 29.6299ZM132.88 33.3899C133.19 33.2699 133.52 33.0299 133.52 32.7399V28.6699L132.74 28.3499V28.0799C133.213 27.9502 133.7 27.8796 134.19 27.8699H134.47V28.5199C134.956 28.077 135.592 27.8342 136.25 27.8399C137.25 27.8399 137.94 28.4799 137.94 29.7199V33.0999L138.57 33.2799V33.4999C138.163 33.6456 137.732 33.7134 137.3 33.6999C137.036 33.7068 136.773 33.6731 136.52 33.5999V33.3999C136.82 33.2699 136.95 33.0399 136.95 32.6099V30.3099C136.95 29.1299 136.46 28.6799 135.75 28.6799C135.307 28.674 134.873 28.8068 134.51 29.0599V33.1099L135.18 33.2799V33.5099C134.73 33.6643 134.255 33.7322 133.78 33.7099C133.476 33.7191 133.173 33.682 132.88 33.5999V33.3899ZM142.06 27.7899C142.339 27.7868 142.617 27.8136 142.89 27.8699V25.7599L142.08 25.4299V25.1699C142.565 25.0323 143.066 24.9583 143.57 24.9499H144L143.93 25.6299V32.5299C144.015 32.8015 144.175 33.0439 144.39 33.2299C144.135 33.4538 143.852 33.6453 143.55 33.7999C143.307 33.6002 143.11 33.3514 142.97 33.0699C142.557 33.478 142.01 33.723 141.43 33.7599C141.111 33.7431 140.799 33.6608 140.513 33.5182C140.227 33.3756 139.973 33.1756 139.768 32.9308C139.562 32.6861 139.41 32.4016 139.319 32.0953C139.228 31.7889 139.201 31.4671 139.24 31.1499C139.24 28.9799 140.53 27.7999 142.1 27.7999M142.94 32.5899V28.5899C142.655 28.5031 142.358 28.4593 142.06 28.4599C141.06 28.4599 140.27 29.2699 140.27 30.9399C140.27 32.2599 140.95 32.9399 141.71 32.9399C142.151 32.9523 142.583 32.8187 142.94 32.5599M147.68 27.7499C147.97 27.7389 148.259 27.7912 148.527 27.9031C148.795 28.015 149.035 28.1838 149.231 28.3979C149.427 28.612 149.574 28.8662 149.662 29.1429C149.75 29.4195 149.776 29.712 149.74 29.9999C149.74 30.2199 149.74 30.4599 149.74 30.7599H146.19C146.19 32.1199 146.98 32.8899 147.97 32.8899C148.575 32.8863 149.166 32.7055 149.67 32.3699C149.688 32.4725 149.688 32.5774 149.67 32.6799C149.67 33.2299 148.88 33.7299 147.6 33.7299C147.25 33.7257 146.906 33.6495 146.587 33.5058C146.268 33.3622 145.983 33.1544 145.748 32.8953C145.513 32.6362 145.335 32.3315 145.223 32.0002C145.112 31.6689 145.07 31.3182 145.1 30.9699C145.1 28.8799 146.37 27.7399 147.63 27.7399M148.75 30.1399C148.75 28.9599 148.25 28.3899 147.53 28.3899C147.129 28.4649 146.768 28.6843 146.518 29.0068C146.267 29.3293 146.143 29.7324 146.17 30.1399H148.75ZM150.49 33.3599C150.8 33.2399 151.12 32.9999 151.12 32.7099V28.6699L150.35 28.3499V28.0799C150.819 27.9503 151.303 27.8797 151.79 27.8699H152.08V28.7099L152.41 28.3299C152.537 28.1694 152.698 28.0388 152.881 27.9472C153.064 27.8557 153.265 27.8054 153.47 27.7999C153.89 27.7999 154.1 27.9799 154.1 28.3199C154.095 28.5761 154.026 28.827 153.9 29.0499C153.692 28.8756 153.431 28.7769 153.16 28.7699C152.959 28.7773 152.761 28.8254 152.579 28.9113C152.397 28.9973 152.234 29.1193 152.1 29.2699V33.0999L152.93 33.2799V33.4999C152.45 33.659 151.945 33.7268 151.44 33.6999C151.104 33.7127 150.767 33.6791 150.44 33.5999V33.3999L150.49 33.3599ZM154.75 33.3599C155.06 33.2399 155.38 32.9999 155.38 32.7099V28.6699L154.6 28.3499V28.0799C155.073 27.9502 155.56 27.8796 156.05 27.8699H156.33V28.5199C156.815 28.0753 157.452 27.8322 158.11 27.8399C159.11 27.8399 159.8 28.4799 159.8 29.7199V33.0999L160.43 33.2799V33.4999C160.023 33.6449 159.592 33.7127 159.16 33.6999C158.896 33.7068 158.633 33.6731 158.38 33.5999V33.3999C158.68 33.2699 158.81 33.0399 158.81 32.6099V30.3099C158.81 29.1299 158.32 28.6799 157.61 28.6799C157.164 28.6758 156.728 28.8085 156.36 29.0599V33.1099L157.04 33.2799V33.5099C156.59 33.6643 156.115 33.7322 155.64 33.7099C155.336 33.7191 155.033 33.682 154.74 33.5999V33.3999L154.75 33.3599ZM163.56 27.7399C163.856 27.7195 164.153 27.7652 164.429 27.8736C164.705 27.9821 164.953 28.1506 165.156 28.3669C165.359 28.5832 165.511 28.842 165.602 29.1244C165.693 29.4069 165.719 29.7059 165.68 29.9999C165.68 30.2199 165.68 30.4599 165.68 30.7599H162.13C162.13 32.1199 162.91 32.8899 163.91 32.8899C164.515 32.8846 165.106 32.7039 165.61 32.3699C165.623 32.4729 165.623 32.577 165.61 32.6799C165.61 33.2299 164.82 33.7299 163.53 33.7299C163.187 33.7201 162.849 33.6407 162.537 33.4965C162.225 33.3524 161.946 33.1465 161.716 32.8913C161.486 32.6361 161.31 32.3369 161.199 32.0118C161.088 31.6867 161.044 31.3425 161.07 30.9999C161.07 28.9099 162.33 27.7699 163.59 27.7699M164.71 30.1699C164.71 28.9899 164.21 28.4199 163.49 28.4199C163.089 28.4949 162.728 28.7143 162.478 29.0368C162.227 29.3593 162.104 29.7624 162.13 30.1699H164.71ZM166.45 33.3899C166.77 33.2699 167.09 33.0299 167.09 32.7399V28.6699L166.31 28.3499V28.0799C166.779 27.9503 167.263 27.8797 167.75 27.8699H168V28.5199C168.481 28.0742 169.115 27.8307 169.77 27.8399C170.041 27.8372 170.308 27.9037 170.546 28.0332C170.784 28.1627 170.985 28.3509 171.13 28.5799C171.647 28.1276 172.304 27.8664 172.99 27.8399C173.99 27.8399 174.66 28.4599 174.66 29.7599V33.0999L175.29 33.2799V33.4999C174.883 33.644 174.452 33.7118 174.02 33.6999C173.76 33.7074 173.5 33.6737 173.25 33.5999V33.3999C173.55 33.2699 173.68 33.0399 173.68 32.6099V30.2599C173.68 29.1599 173.2 28.6799 172.46 28.6799C172.056 28.6762 171.658 28.7724 171.3 28.9599C171.345 29.2578 171.369 29.5586 171.37 29.8599V33.1099L172 33.2799V33.5099C171.593 33.654 171.162 33.7218 170.73 33.7099C170.462 33.7191 170.195 33.6819 169.94 33.5999V33.3999C170.25 33.2699 170.38 33.0399 170.38 32.6099V30.3899C170.38 29.0599 169.98 28.6799 169.24 28.6799C168.81 28.6741 168.389 28.8074 168.04 29.0599V33.1099L168.72 33.2799V33.5099C168.27 33.6627 167.795 33.7305 167.32 33.7099C167.013 33.7184 166.706 33.6813 166.41 33.5999L166.45 33.3899ZM178.45 27.7699C178.742 27.7518 179.035 27.7981 179.307 27.9055C179.58 28.0129 179.825 28.1788 180.026 28.3915C180.228 28.6042 180.38 28.8585 180.472 29.1364C180.564 29.4144 180.594 29.7091 180.56 29.9999C180.56 30.2199 180.56 30.4599 180.56 30.7599H177C177 32.1199 177.78 32.8899 178.78 32.8899C179.385 32.8846 179.975 32.7039 180.48 32.3699C180.51 32.4708 180.526 32.5749 180.53 32.6799C180.53 33.2299 179.73 33.7299 178.45 33.7299C178.107 33.7188 177.771 33.6384 177.46 33.4937C177.149 33.3489 176.871 33.1428 176.642 32.8878C176.414 32.6327 176.239 32.334 176.128 32.0095C176.018 31.6851 175.974 31.3417 176 30.9999C176 28.9099 177.27 27.7699 178.52 27.7699M179.64 30.1699C179.64 28.9899 179.14 28.4199 178.42 28.4199C178.006 28.4818 177.63 28.697 177.367 29.023C177.104 29.349 176.973 29.7619 177 30.1799L179.64 30.1699ZM181.38 33.3899C181.7 33.2699 182.02 33.0299 182.02 32.7399V28.6699L181.24 28.3499V28.0799C181.709 27.9503 182.193 27.8797 182.68 27.8699H182.97V28.5199C183.454 28.0736 184.091 27.8301 184.75 27.8399C184.991 27.8299 185.232 27.8734 185.454 27.9671C185.677 28.0608 185.876 28.2025 186.038 28.3821C186.199 28.5617 186.319 28.7748 186.388 29.006C186.458 29.2373 186.476 29.4811 186.44 29.7199V33.0999L187.07 33.2799V33.4999C186.663 33.6449 186.232 33.7127 185.8 33.6999C185.533 33.7067 185.267 33.673 185.01 33.5999V33.3999C185.32 33.2699 185.45 33.0399 185.45 32.6099V30.3099C185.45 29.1299 184.95 28.6799 184.25 28.6799C183.804 28.6745 183.367 28.8073 183 29.0599V33.1099L183.68 33.2799V33.5099C183.23 33.6634 182.755 33.7312 182.28 33.7099C181.976 33.7191 181.673 33.682 181.38 33.5999V33.3999V33.3899ZM190.56 27.7899C190.839 27.7868 191.117 27.8136 191.39 27.8699V25.7599L190.57 25.4299V25.1699C191.038 25.0555 191.518 24.9984 192 24.9999H192.38L192.31 25.6799V32.5799C192.403 32.8478 192.561 33.0883 192.77 33.2799C192.516 33.5061 192.234 33.6977 191.93 33.8499C191.69 33.6498 191.496 33.401 191.36 33.1199C190.947 33.528 190.4 33.773 189.82 33.8099C189.501 33.7931 189.189 33.7108 188.903 33.5682C188.617 33.4256 188.363 33.2256 188.158 32.9808C187.952 32.7361 187.8 32.4516 187.709 32.1453C187.618 31.8389 187.591 31.5171 187.63 31.1999C187.63 29.0299 188.93 27.8499 190.49 27.8499M191.34 32.6399V28.6399C191.054 28.5544 190.758 28.5106 190.46 28.5099C189.46 28.5099 188.66 29.3199 188.66 30.9899C188.66 32.3099 189.35 32.9899 190.11 32.9899C190.55 32.9972 190.981 32.8641 191.34 32.6099M48.11 47.0499C48.64 46.9099 48.81 46.6399 48.81 46.0499V40.1999L48 39.9999V39.6499C48.4412 39.5957 48.8854 39.569 49.33 39.5699H49.78L53.13 45.0699V40.1599L52.42 39.9999V39.7399C52.8123 39.6185 53.2194 39.5512 53.63 39.5399C53.9682 39.5282 54.306 39.5721 54.63 39.6699V39.8899C54.11 39.9999 54 40.2499 54 40.9999V47.3099L53.44 47.4399L49.63 41.1599V46.7199L50.37 46.9199V47.1799C50.0187 47.3134 49.6458 47.3812 49.27 47.3799C48.9028 47.3913 48.5359 47.3509 48.18 47.2599L48.11 47.0499ZM57.86 41.4599C58.1527 41.4457 58.4449 41.4959 58.716 41.6071C58.9871 41.7182 59.2305 41.8876 59.4289 42.1032C59.6273 42.3188 59.7759 42.5753 59.8643 42.8547C59.9526 43.1341 59.9784 43.4295 59.94 43.7199C59.94 43.9399 59.94 44.1799 59.94 44.4899H56.38C56.38 45.8399 57.16 46.6199 58.16 46.6199C58.765 46.6146 59.3555 46.4339 59.86 46.0999C59.8745 46.2028 59.8745 46.3071 59.86 46.4099C59.86 46.9499 59.07 47.4599 57.78 47.4599C57.4313 47.4544 57.0875 47.3771 56.77 47.2329C56.4525 47.0887 56.1681 46.8806 55.9345 46.6217C55.7009 46.3628 55.5231 46.0585 55.4122 45.7279C55.3014 45.3973 55.2598 45.0473 55.29 44.6999C55.29 42.6099 56.55 41.4599 57.81 41.4599M59 43.8699C59 42.6799 58.49 42.1199 57.77 42.1199C57.3685 42.1949 57.0085 42.4143 56.7579 42.7368C56.5073 43.0593 56.3835 43.4624 56.41 43.8699H59ZM63.64 41.4799C63.9184 41.4828 64.1961 41.5096 64.47 41.5599V39.4399L63.65 39.1199V38.8499C64.1361 38.7172 64.6363 38.6433 65.14 38.6299H65.53L65.46 39.3099V46.2099C65.5529 46.4778 65.711 46.7183 65.92 46.9099C65.6644 47.1384 65.3784 47.3302 65.07 47.4799C64.8306 47.2836 64.6362 47.038 64.5 46.7599C64.0831 47.1614 63.5375 47.4023 62.96 47.4399C62.6409 47.4231 62.3287 47.3408 62.0427 47.1982C61.7568 47.0556 61.5032 46.8556 61.2978 46.6108C61.0924 46.3661 60.9396 46.0816 60.8488 45.7753C60.758 45.4689 60.7312 45.1471 60.77 44.8299C60.77 42.6599 62.07 41.4799 63.64 41.4799ZM64.48 46.2799V42.2799C64.198 42.1941 63.9048 42.1503 63.61 42.1499C62.61 42.1499 61.81 42.9499 61.81 44.6299C61.81 45.9399 62.49 46.6299 63.26 46.6299C63.696 46.6311 64.1218 46.4985 64.48 46.2499M69.22 41.4299C69.5127 41.4157 69.8049 41.4659 70.076 41.5771C70.3471 41.6882 70.5905 41.8576 70.7889 42.0732C70.9873 42.2888 71.1359 42.5453 71.2243 42.8247C71.3126 43.1041 71.3384 43.3995 71.3 43.6899C71.3 43.9099 71.3 44.1499 71.3 44.4599H67.72C67.72 45.8099 68.51 46.5899 69.5 46.5899C70.1053 46.5863 70.6962 46.4055 71.2 46.0699C71.2195 46.1724 71.2195 46.2775 71.2 46.3799C71.2 46.9199 70.41 47.4299 69.13 47.4299C68.7809 47.4243 68.4367 47.347 68.1187 47.2029C67.8008 47.0588 67.5157 46.8509 67.2814 46.5922C67.047 46.3334 66.8682 46.0293 66.7562 45.6987C66.6442 45.368 66.6012 45.0179 66.63 44.6699C66.63 42.5799 67.9 41.4299 69.15 41.4299M70.27 43.8399C70.27 42.6499 69.76 42.0899 69.05 42.0899C68.6485 42.1649 68.2885 42.3843 68.0379 42.7068C67.7873 43.0293 67.6635 43.4324 67.69 43.8399H70.27ZM72.01 47.0499C72.32 46.9299 72.65 46.6999 72.65 46.3999V42.3599L71.91 41.9999V41.7399C72.3815 41.6028 72.8691 41.5288 73.36 41.5199H73.65V42.3699L74 41.9999C74.1216 41.8496 74.2735 41.7265 74.4458 41.6387C74.6181 41.5508 74.8069 41.5001 75 41.4899C75.42 41.4899 75.63 41.6699 75.63 42.0199C75.6224 42.2713 75.5574 42.5176 75.44 42.7399C75.2275 42.5669 74.9639 42.4685 74.69 42.4599C74.3041 42.4894 73.9451 42.6689 73.69 42.9599V46.7899L74.52 46.9699V47.1899C74.0316 47.3574 73.5155 47.4287 73 47.3999C72.6632 47.4097 72.3266 47.3727 72 47.2899V47.0799L72.01 47.0499ZM75.87 47.0499C76.18 46.9299 76.5 46.6999 76.5 46.3999V39.3999L75.72 39.0799V38.8099C76.1893 38.6784 76.6729 38.6045 77.16 38.5899H77.55L77.49 39.2699V46.7399L78.17 46.9199V47.1499C77.7186 47.2978 77.2448 47.3655 76.77 47.3499C76.4664 47.3541 76.1637 47.3171 75.87 47.2399V47.0499ZM81.87 44.1299V43.7999C81.87 42.5099 81.56 42.2299 80.8 42.2299C80.1175 42.2412 79.467 42.5216 78.99 43.0099C78.9742 42.8905 78.9742 42.7694 78.99 42.6499C78.99 41.8799 79.56 41.4299 80.99 41.4299C82.21 41.4299 82.99 42.0499 82.99 43.0499C82.99 43.3099 82.99 43.9199 82.99 44.2699V46.2699C83.0979 46.5122 83.2625 46.7248 83.47 46.8899C83.2405 47.1421 82.9657 47.349 82.66 47.4999C82.4253 47.3552 82.2323 47.1518 82.1 46.9099C81.6469 47.29 81.0712 47.4925 80.48 47.4799C80.291 47.4992 80.1001 47.4795 79.919 47.4221C79.7379 47.3647 79.5705 47.2708 79.4271 47.1462C79.2837 47.0215 79.1674 46.8688 79.0853 46.6975C79.0033 46.5261 78.9572 46.3398 78.95 46.1499C78.95 45.0899 80.11 44.1499 82.08 44.1499M80.93 46.7299C81.3044 46.7027 81.669 46.5971 82 46.4199V44.7299C80.64 44.7299 79.9 45.2999 79.9 45.9499C79.9 46.4299 80.23 46.7399 80.84 46.7399M84.23 47.0799C84.54 46.9599 84.87 46.7299 84.87 46.4299V42.3599L84.06 41.9999V41.7399C84.5315 41.6028 85.0191 41.5288 85.51 41.5199H85.8V42.1699C86.2858 41.7272 86.9228 41.4874 87.58 41.4999C88.58 41.4999 89.26 42.1299 89.26 43.3799V46.7499L89.89 46.9299V47.1599C89.4864 47.3057 89.0589 47.3736 88.63 47.3599C88.3626 47.3641 88.0961 47.327 87.84 47.2499V47.0499C87.9914 46.9869 88.1172 46.8746 88.1971 46.7313C88.2769 46.5879 88.3061 46.4219 88.28 46.2599V43.9999C88.28 42.8199 87.78 42.3799 87.07 42.3799C86.6289 42.3762 86.1969 42.5051 85.83 42.7499V46.7499L86.5 46.9299V47.1499C86.0509 47.3082 85.5758 47.3795 85.1 47.3599C84.7964 47.3635 84.4938 47.3265 84.2 47.2499V47.0399L84.23 47.0799ZM93.4 41.4799C93.6818 41.4823 93.9628 41.5091 94.24 41.5599V39.4399L93.42 39.1199V38.8499C93.9061 38.7172 94.4063 38.6433 94.91 38.6299H95.3L95.23 39.3099V46.2099C95.3229 46.4778 95.481 46.7183 95.69 46.9099C95.4327 47.1361 95.1469 47.3277 94.84 47.4799C94.5967 47.2874 94.4016 47.0409 94.27 46.7599C93.8531 47.1614 93.3075 47.4023 92.73 47.4399C92.4109 47.4231 92.0987 47.3408 91.8127 47.1982C91.5268 47.0556 91.2732 46.8556 91.0678 46.6108C90.8624 46.3661 90.7096 46.0816 90.6188 45.7753C90.528 45.4689 90.5012 45.1471 90.54 44.8299C90.54 42.6599 91.84 41.4799 93.4 41.4799ZM94.25 46.2799V42.2799C93.9648 42.1931 93.6682 42.1493 93.37 42.1499C92.37 42.1499 91.58 42.9499 91.58 44.6299C91.58 45.9399 92.26 46.6299 93.02 46.6299C93.4593 46.6325 93.8887 46.4998 94.25 46.2499" fill="#F8FBF8"/>
</g>
</svg>
