<svg width="195" height="61" viewBox="0 0 195 61" fill="none" xmlns="http://www.w3.org/2000/svg">
<path d="M32.5097 11.05H0.179688V43.3801H32.5097V11.05Z" fill="#F8FBF8"/>
<path d="M13.8998 20.2599L16.3398 17.8199L18.7898 20.2599L20.1398 18.9099L17.6998 16.4699L20.1398 14.0299L18.7898 12.6699L16.3398 15.1199L13.8998 12.6699L12.5498 14.0299L14.9898 16.4699L12.5498 18.9099L13.8998 20.2599Z" fill="#1F2223"/>
<path d="M13.8998 29.2399L16.3398 26.7999L18.7898 29.2399L20.1398 27.8899L17.6998 25.4499L20.1398 23.0099L18.7898 21.6599L16.3398 24.0999L13.8998 21.6599L12.5498 23.0099L14.9898 25.4499L12.5498 27.8899L13.8998 29.2399Z" fill="#1F2223"/>
<path d="M13.8998 41.7499L16.3398 39.3099L18.7898 41.7499L20.1398 40.3999L17.6998 37.9599L20.1398 35.5199L18.7898 34.1599L16.3398 36.6099L13.8998 34.1599L12.5498 35.5199L14.9898 37.9599L12.5498 40.3999L13.8998 41.7499Z" fill="#1F2223"/>
<mask id="mask0_537_11913" style="mask-type:luminance" maskUnits="userSpaceOnUse" x="0" y="0" width="195" height="61">
<path d="M194.36 0H0V61H194.36V0Z" fill="white"/>
</mask>
<g mask="url(#mask0_537_11913)">
<path d="M23.6901 20.2199L20.8801 20.3499C21.1246 22.34 21.2016 24.347 21.1101 26.3499C20.9501 29.2199 20.5001 29.7199 20.5001 29.7199C19.8701 30.9099 17.9001 31.1999 16.9001 31.2799C16.4145 31.3252 15.9257 31.3252 15.4401 31.2799C15.4401 31.2799 12.5401 31.1699 11.8901 29.8199C11.628 29.0864 11.4763 28.318 11.4401 27.5399C11.4401 27.5399 11.4401 20.4699 11.4401 20.3099C11.4401 20.1499 10.8501 20.3699 10.1901 20.3699H8.87012L9.10012 25.5699V28.6399C9.08502 29.427 9.22783 30.209 9.52012 30.9399C9.99059 31.7106 10.6897 32.3154 11.5201 32.6699C12.1631 32.9371 12.8339 33.1317 13.5201 33.2499C14.8091 33.469 16.1306 33.4007 17.3901 33.0499C18.3218 32.8516 19.1885 32.4217 19.9101 31.7999L21.2301 30.5599V33.4999L24.0101 32.6799C23.7386 30.5913 23.6183 28.4859 23.6501 26.3799C23.6501 22.3799 23.8401 20.2799 23.8401 20.2799" fill="#1F2223"/>
<path d="M43.0001 13.9399C43.0001 12.1699 41.9201 12.1699 40.6901 12.1699L40.5801 12.0799V11.6999C40.5801 11.4499 40.7401 11.4299 40.9801 11.4299C41.5701 11.4299 42.9801 11.5499 44.0501 11.5499C45.1201 11.5499 46.3101 11.4299 47.4301 11.4299L47.5001 11.4999V12.0799L47.3801 12.1699H47.1201C45.6601 12.1699 45.0101 12.3299 45.0101 14.0099V20.4999C45.0101 23.7199 45.6401 26.2399 49.4901 26.2399C53.3401 26.2399 54.7901 24.3199 54.7901 20.5399V14.7199C54.7901 12.1699 54.7901 12.3499 52.7901 12.1699L52.7401 11.9999V11.5799L52.8101 11.4399C53.2101 11.4399 53.6601 11.5599 55.3401 11.5599C56.2801 11.5599 57.4601 11.4399 58.1801 11.4399L58.2701 11.5799V11.9999L58.1301 12.1299C56.5001 12.1299 55.9201 12.2199 55.9201 13.3399V21.3399C55.9201 25.4299 53.5201 27.5099 49.4501 27.5099C46.2101 27.5099 43.0101 26.3699 43.0101 22.6399L43.0001 13.9399Z" fill="#F8FBF8"/>
<path d="M59.5403 17.4299C59.5681 17.2394 59.5403 17.045 59.4603 16.8699C59.1655 16.4632 58.7591 16.1506 58.2903 15.9699L57.4003 15.9199C57.3303 15.9199 57.3203 15.7499 57.3203 15.6199C57.3203 15.4899 57.3203 15.3999 57.4003 15.3999C57.9203 15.3999 58.3203 15.3999 58.7403 15.3999C59.5103 15.3999 60.7403 15.4599 61.0403 15.4999L66.1203 21.6299C66.9759 22.6781 67.8872 23.6796 68.8503 24.6299H68.9203V17.2399C68.9203 16.1399 68.5103 15.9699 67.9803 15.9499H67.2603C67.1903 15.9499 67.1503 15.7799 67.1503 15.6599C67.1503 15.5399 67.2103 15.3999 67.3103 15.3999C67.6803 15.3999 68.5503 15.4799 69.3703 15.4799C70.1903 15.4799 70.9303 15.3999 71.3703 15.3999C71.4503 15.3999 71.4703 15.4599 71.4703 15.5299V15.8499C71.4703 15.9299 71.4703 15.9499 71.3203 15.9499H70.8803C69.7303 15.9499 69.7303 16.5399 69.7303 17.9499V27.6499H69.3203L60.3203 17.3099V24.9999C60.3203 26.4399 60.5203 26.6099 61.9603 26.6599C62.0303 26.6599 62.0803 26.8099 62.0803 26.9399C62.0803 27.0699 62.0803 27.2099 62.0103 27.2099C61.6903 27.2099 60.6203 27.1299 59.9203 27.1299C59.2203 27.1299 58.7303 27.2099 57.9203 27.2099C57.8103 27.2099 57.8003 27.0899 57.8003 26.8699C57.8003 26.6499 57.8003 26.6599 58.0203 26.6599C58.7203 26.6599 59.5203 26.4899 59.5203 25.6599L59.5403 17.4299Z" fill="#F8FBF8"/>
<path d="M75.9002 24.0999C75.9002 26.5499 75.9002 26.5599 77.5902 26.6499L77.6702 26.7699V27.0799C77.6702 27.1799 77.4202 27.1999 77.2702 27.1999C77.1202 27.1999 75.9102 27.1199 75.2702 27.1199C74.6302 27.1199 73.6402 27.1999 72.7702 27.1999C72.7002 27.1999 72.6802 27.0699 72.6802 26.8999C72.6802 26.7299 72.6802 26.6499 73.2202 26.6499C74.3802 26.6499 74.4302 26.3999 74.4302 25.1199V17.1199C74.4302 16.1199 74.1402 15.9299 72.7302 15.9299V15.8499V15.5699C72.7302 15.3899 72.9002 15.3799 73.0002 15.3799C73.4502 15.3799 74.0002 15.4599 75.1302 15.4599C75.9702 15.4599 76.9702 15.3799 77.6402 15.3799L77.7302 15.4899V15.7899L77.6602 15.8899H77.2102C76.5402 15.9399 76.0202 16.0099 76.0202 16.7799L75.9002 24.0999Z" fill="#F8FBF8"/>
<path d="M80.0499 16.4898C79.8699 16.0298 79.1999 15.9198 78.7299 15.9198L78.6299 15.8398V15.3998H78.8099C79.5199 15.3998 80.5399 15.4798 80.9099 15.4798C81.6799 15.4798 82.4299 15.3998 83.2099 15.3998V15.8698L82.4199 15.9398C82.1499 15.9398 81.8499 16.0598 81.8499 16.3098C81.8701 16.484 81.9209 16.6533 81.9999 16.8098L83.9299 21.8098L84.9999 24.3498C85.1099 24.5998 85.1299 24.6498 85.1799 24.6498C85.2299 24.6498 85.2599 24.5798 85.3299 24.3798L87.7499 17.9998C87.9682 17.509 88.1195 16.991 88.1999 16.4598C88.1999 16.1698 88.0999 16.0198 87.6099 15.9698L86.7399 15.8898L86.6399 15.8398V15.3198C87.2999 15.3198 87.9499 15.4198 88.6399 15.4198C89.3299 15.4198 90.2699 15.3198 90.3899 15.3198L90.5199 15.3798V15.7698L90.3699 15.8898H89.8499C89.5099 15.8898 89.3799 16.0798 89.1399 16.6598C87.5499 20.4998 87.1399 21.7098 85.8899 24.9398L84.9999 27.1798C84.9199 27.4198 84.8799 27.4298 84.7599 27.4298C84.6399 27.4298 84.5799 27.4298 84.5499 27.3198L80.0499 16.4898Z" fill="#F8FBF8"/>
<path d="M93.0001 17.0699C93.0001 15.9899 92.1701 15.8699 91.2001 15.8699C91.1301 15.8699 91.1301 15.7799 91.1301 15.7199V15.5299C91.1301 15.3799 91.4201 15.3699 92.0101 15.3699C92.6001 15.3699 93.4301 15.4499 94.1401 15.4499C94.8501 15.4499 95.4801 15.3699 96.1401 15.3699H99.6701C99.8101 15.3699 99.8301 15.5199 99.8301 15.6999V17.7499C99.8314 17.7665 99.8294 17.7831 99.824 17.7989C99.8186 17.8146 99.8099 17.829 99.7987 17.8413C99.7874 17.8535 99.7737 17.8632 99.7584 17.8699C99.7432 17.8765 99.7267 17.8799 99.7101 17.8799C99.5701 17.8799 99.3101 17.8799 99.2901 17.6999V17.1799C99.1901 16.0999 98.4501 15.9199 97.5101 15.9199H95.7801C94.8501 15.9199 94.5401 16.1199 94.5401 17.3899V20.3899C94.5401 20.4399 94.6501 20.5199 94.6801 20.5199L96.6801 20.4599C97.6801 20.4599 97.9701 20.0999 98.2201 19.2099C98.2201 19.1099 98.3001 19.0799 98.4901 19.0799C98.6801 19.0799 98.6901 19.0799 98.6901 19.1799C98.6901 19.5299 98.5901 20.2999 98.5901 20.8599C98.5901 21.7599 98.6901 22.2499 98.6901 22.5299C98.6901 22.6299 98.5201 22.7399 98.4201 22.7399C98.3542 22.7457 98.2885 22.7262 98.2365 22.6853C98.1845 22.6445 98.15 22.5853 98.1401 22.5199C98.0501 22.0699 98.0501 21.7499 97.9701 21.5199C97.8901 21.2899 97.6801 21.1499 97.1801 21.1299H94.8001C94.5601 21.1299 94.5601 21.2099 94.5601 21.3299V25.3299C94.5601 26.5299 95.4501 26.5699 96.5601 26.5699H97.4701C98.1225 26.6387 98.7819 26.546 99.3901 26.2999C99.8557 25.8229 100.223 25.2588 100.47 24.6399C100.68 24.6399 100.97 24.6899 100.97 24.8099C100.953 24.8992 100.926 24.9864 100.89 25.0699L100.41 26.7699C100.28 27.2199 100.2 27.2199 99.9801 27.2199C98.1701 27.2199 96.3901 27.1399 93.9801 27.1399C93.4301 27.1399 91.9801 27.2199 91.1601 27.2199C91.1601 27.2199 91.0601 27.0499 91.0601 26.9499C91.0601 26.8499 91.0601 26.6699 91.1601 26.6699C92.6201 26.5999 93.0301 26.4499 93.0301 24.9099L93.0001 17.0699Z" fill="#F8FBF8"/>
<path d="M103.8 17.17C103.8 16.34 103.8 15.92 102.71 15.92H102C101.9 15.92 101.89 15.73 101.89 15.6C101.89 15.47 101.89 15.37 102 15.37C103 15.37 104 15.37 104.94 15.37C105.71 15.37 106.46 15.37 107.24 15.37C108.071 15.3092 108.892 15.5786 109.525 16.1198C110.157 16.661 110.551 17.4301 110.62 18.26C110.567 18.9643 110.267 19.6272 109.773 20.1321C109.279 20.637 108.623 20.9514 107.92 21.02C108.57 21.17 109.26 22.39 109.43 22.66L111.27 25.48C111.452 25.8455 111.74 26.1467 112.098 26.3434C112.455 26.54 112.864 26.6226 113.27 26.58L113.37 26.68V27C113.372 27.0237 113.368 27.0474 113.36 27.0694C113.351 27.0915 113.338 27.1114 113.32 27.1277C113.303 27.1439 113.283 27.1562 113.26 27.1635C113.238 27.1708 113.214 27.173 113.19 27.17C112.84 27.17 112.32 27.12 112.07 27.12C111.66 27.12 111.26 27.17 110.86 27.17C110.46 27.17 109.72 26.05 108.73 24.29C107.64 22.36 107 21.29 105.9 21.29C105.704 21.2735 105.506 21.2735 105.31 21.29V25.39C105.31 26 105.31 26.57 106.15 26.57C106.78 26.57 107.07 26.57 107.07 26.7C107.07 27.02 107.07 27.12 106.77 27.12C105.9 27.12 105.18 27.04 104.46 27.04L102.07 27.12C101.97 27.12 101.94 26.9 101.94 26.77C101.94 26.64 102.01 26.58 102.34 26.57C103.5 26.57 103.8 26.35 103.8 25.19V17.17ZM105.31 20.75C105.53 20.75 105.73 20.75 105.95 20.75C107.29 20.75 108.95 20.28 108.95 18.3C108.967 17.9723 108.913 17.6448 108.794 17.3392C108.674 17.0336 108.491 16.7568 108.257 16.5272C108.022 16.2975 107.742 16.1202 107.434 16.0069C107.126 15.8936 106.797 15.847 106.47 15.87C105.33 15.87 105.3 16.14 105.3 16.64L105.31 20.75Z" fill="#F8FBF8"/>
<path d="M116 21.0999C115.477 20.8761 115.034 20.4974 114.732 20.0148C114.43 19.5321 114.283 18.9686 114.31 18.3999C114.31 16.2999 116.02 15.1299 118.31 15.1299C119.039 15.1587 119.757 15.3179 120.43 15.5999L120.54 17.6999V17.7799C120.54 17.8599 120.38 17.8999 120.14 17.8999C119.9 17.8999 119.89 17.7999 119.87 17.6299C119.832 17.1063 119.589 16.6188 119.194 16.2727C118.799 15.9266 118.284 15.7496 117.76 15.7799C117.505 15.7705 117.251 15.8119 117.012 15.9016C116.773 15.9913 116.554 16.1275 116.368 16.3023C116.182 16.4772 116.032 16.6872 115.928 16.9202C115.824 17.1533 115.767 17.4047 115.76 17.6599C115.76 18.8699 116.5 19.3399 118.18 20.2299C119.86 21.1199 121.28 21.8699 121.28 23.9599C121.28 26.2499 119.22 27.4299 117.12 27.4299C116.279 27.4066 115.448 27.2444 114.66 26.9499C114.52 26.8799 114.47 26.6599 114.42 26.2899L114.22 24.7199C114.22 24.6199 114.56 24.6199 114.66 24.6199C114.76 24.6199 114.76 24.6199 114.79 24.7699C114.923 25.354 115.255 25.8735 115.73 26.2386C116.204 26.6038 116.792 26.7917 117.39 26.7699C117.973 26.7614 118.531 26.5349 118.955 26.1351C119.379 25.7352 119.638 25.1911 119.68 24.6099C119.671 24.1307 119.527 23.6639 119.263 23.2638C118.999 22.8637 118.627 22.5468 118.19 22.3499L116 21.0999Z" fill="#F8FBF8"/>
<path d="M126 24.0999C126 26.5499 126.05 26.5599 127.7 26.6499L127.78 26.7699V27.0799C127.78 27.1799 127.53 27.1999 127.38 27.1999C127.23 27.1999 126.02 27.1199 125.38 27.1199C124.74 27.1199 123.76 27.1999 122.89 27.1999C122.82 27.1999 122.8 27.0699 122.8 26.8999C122.8 26.7299 122.85 26.6499 123.34 26.6499C124.49 26.6499 124.54 26.3999 124.54 25.1199V17.1199C124.54 16.1199 124.26 15.9299 122.85 15.9299L122.8 15.8499V15.5699C122.8 15.3899 122.97 15.3799 123.07 15.3799C123.52 15.3799 124.07 15.4599 125.2 15.4599C126.03 15.4599 127.04 15.3799 127.71 15.3799L127.79 15.4899V15.7899L127.73 15.8899H127.27C126.6 15.9399 126.08 16.0099 126.08 16.7799L126 24.0999Z" fill="#F8FBF8"/>
<path d="M135 25.41C135 26.65 135.83 26.65 136.87 26.65L136.97 26.73V27C136.97 27.2 136.89 27.2 136.62 27.2C136.35 27.2 135.46 27.12 134.29 27.12C133.37 27.12 131.93 27.2 131.53 27.2C131.49 27.1046 131.467 27.0032 131.46 26.9C131.459 26.8301 131.484 26.7624 131.53 26.71L131.7 26.65H131.89C133.42 26.65 133.49 26.13 133.49 24.74V16.79L133.44 16.02H131.2C129.93 16.02 129.73 16.82 129.41 17.9C129.399 17.9458 129.371 17.9859 129.333 18.0134C129.294 18.0408 129.247 18.0538 129.2 18.05C128.97 18.05 128.82 17.98 128.82 17.88C128.82 17.59 129.02 16.04 129.02 14.71C129.02 14.64 129.26 14.64 129.49 14.64C130.03 15.37 130.2 15.37 130.92 15.37H137.15C137.522 15.419 137.9 15.3625 138.242 15.2069C138.583 15.0513 138.873 14.8029 139.08 14.49C139.2 14.49 139.58 14.49 139.58 14.64C139.4 15.5381 139.277 16.4465 139.21 17.36C139.21 17.54 139.21 17.9 139.08 17.9C138.95 17.9 138.54 17.81 138.54 17.73L138.48 16.89C138.41 16.04 138.01 16.02 137.32 16.02H135V25.41Z" fill="#F8FBF8"/>
<path d="M142.26 17.0699C142.26 15.9899 141.44 15.8699 140.47 15.8699C140.4 15.8699 140.4 15.7799 140.4 15.7199V15.5299C140.4 15.3799 140.69 15.3699 141.27 15.3699C141.85 15.3699 142.7 15.4499 143.4 15.4499C144.1 15.4499 144.74 15.3699 145.4 15.3699H149C149.13 15.3699 149.15 15.5199 149.15 15.6999V17.7499C149.151 17.7665 149.149 17.7831 149.144 17.7989C149.139 17.8146 149.13 17.829 149.119 17.8413C149.107 17.8535 149.094 17.8632 149.078 17.8699C149.063 17.8765 149.047 17.8799 149.03 17.8799C148.9 17.8799 148.63 17.8799 148.61 17.6999L148.56 17.1799C148.46 16.0999 147.73 15.9199 146.79 15.9199H145C144.06 15.9199 143.76 16.1199 143.76 17.3899V20.3899C143.76 20.4399 143.86 20.5199 143.89 20.5199L145.89 20.4599C146.89 20.4599 147.18 20.0999 147.44 19.2099C147.44 19.1099 147.52 19.0799 147.7 19.0799C147.88 19.0799 147.9 19.0799 147.9 19.1799C147.9 19.5299 147.8 20.2999 147.8 20.8599C147.8 21.7599 147.9 22.2499 147.9 22.5299C147.9 22.6299 147.74 22.7399 147.64 22.7399C147.573 22.746 147.506 22.7268 147.452 22.6861C147.399 22.6454 147.362 22.5861 147.35 22.5199C147.316 22.1831 147.259 21.8491 147.18 21.5199C147.1 21.2699 146.9 21.1499 146.4 21.1299H144.02C143.78 21.1299 143.78 21.2099 143.78 21.3299V25.3299C143.78 26.5299 144.67 26.5699 145.78 26.5699H146.68C147.336 26.6404 147.999 26.5476 148.61 26.2999C149.076 25.8249 149.44 25.2601 149.68 24.6399C149.9 24.6399 150.19 24.6899 150.19 24.8099C150.174 24.9006 150.143 24.9883 150.1 25.0699L149.63 26.7699C149.5 27.2199 149.41 27.2199 149.2 27.2199C147.39 27.2199 145.61 27.1399 143.2 27.1399C142.65 27.1399 141.2 27.2199 140.39 27.2199C140.34 27.2199 140.29 27.0499 140.29 26.9499C140.29 26.8499 140.29 26.6699 140.39 26.6699C141.85 26.5999 142.25 26.4499 142.25 24.9099L142.26 17.0699Z" fill="#F8FBF8"/>
<path d="M154.82 24.0999C154.82 26.5499 154.87 26.5599 156.51 26.6499L156.59 26.7699V27.0799C156.59 27.1799 156.34 27.1999 156.19 27.1999C156.04 27.1999 154.83 27.1199 154.19 27.1199C153.55 27.1199 152.56 27.1999 151.69 27.1999C151.62 27.1999 151.61 27.0699 151.61 26.8999C151.61 26.7299 151.66 26.6499 152.14 26.6499C153.3 26.6499 153.35 26.3999 153.35 25.1199V17.1199C153.35 16.1199 153.06 15.9299 151.66 15.9299L151.61 15.8499V15.5699C151.61 15.3899 151.78 15.3799 151.88 15.3799C152.33 15.3799 152.88 15.4599 154.01 15.4599C154.85 15.4599 155.85 15.3799 156.52 15.3799L156.61 15.4899V15.7899L156.54 15.8899H156.09C155.42 15.9399 154.9 16.0099 154.9 16.7799L154.82 24.0999Z" fill="#F8FBF8"/>
<path d="M163.54 25.41C163.54 26.65 164.38 26.65 165.42 26.65L165.52 26.73V27C165.52 27.2 165.43 27.2 165.17 27.2C164.91 27.2 164.01 27.12 162.84 27.12C161.91 27.12 160.47 27.2 160.07 27.2C160.035 27.1032 160.011 27.0024 160 26.9C159.999 26.8301 160.024 26.7624 160.07 26.71L160.24 26.65H160.44C161.96 26.65 162.03 26.13 162.03 24.74V16.79L162 16H159.76C158.48 16 158.28 16.8 157.96 17.88C157.951 17.9249 157.925 17.9649 157.888 17.9925C157.851 18.0201 157.806 18.0334 157.76 18.03C157.53 18.03 157.37 17.96 157.37 17.86C157.37 17.57 157.58 16.02 157.58 14.69C157.58 14.62 157.81 14.62 158.04 14.62C158.58 15.35 158.75 15.35 159.47 15.35H165.71C166.082 15.399 166.46 15.3425 166.801 15.1869C167.143 15.0313 167.433 14.7829 167.64 14.47C167.75 14.47 168.14 14.47 168.14 14.62C167.955 15.5172 167.831 16.4259 167.77 17.34C167.77 17.52 167.72 17.88 167.64 17.88C167.56 17.88 167.1 17.79 167.1 17.71L167.03 16.87C166.96 16.02 166.56 16 165.87 16H163.56L163.54 25.41Z" fill="#F8FBF8"/>
<path d="M42.0003 40.6998C41.8103 40.2498 41.1403 40.1298 40.6703 40.1298L40.5703 40.0498V39.6098H40.7603C41.4603 39.6098 42.4803 39.6898 42.8503 39.6898C43.6203 39.6898 44.3803 39.6098 45.1503 39.6098V39.6598V40.1298L44.3603 40.1998C44.0903 40.1998 43.7903 40.3098 43.7903 40.5698C43.8404 40.722 43.9111 40.8667 44.0003 40.9998L45.9303 45.9998L47.0003 48.5698C47.1103 48.8198 47.1303 48.8698 47.1803 48.8698C47.2303 48.8698 47.2703 48.7998 47.3403 48.5998L49.7303 42.2498C49.944 41.753 50.0984 41.2328 50.1903 40.6998C50.1903 40.4198 50.0803 40.2698 49.6003 40.2198L48.7303 40.1298L48.6303 40.0798V39.5598C49.2803 39.5598 49.9303 39.6598 50.6303 39.6598C51.3303 39.6598 52.2503 39.5598 52.3703 39.5598L52.5003 39.6298V39.9998L52.3503 40.1098H51.8303C51.5003 40.1098 51.3603 40.2898 51.1303 40.8798C49.5403 44.7198 49.1303 45.8798 47.8803 49.1598L47.0003 51.3998C46.9203 51.6298 46.8803 51.6498 46.7703 51.6498C46.6603 51.6498 46.5803 51.6498 46.5503 51.5298L42.0003 40.6998Z" fill="#F8FBF8"/>
<path d="M53.77 46.72L53 49.0999C52.8851 49.4527 52.8178 49.8193 52.8 50.1899C52.8 50.7399 53.59 50.86 54.04 50.86C54.19 50.86 54.23 50.96 54.23 51.18C54.23 51.4 54.23 51.4199 54.09 51.4199C53.71 51.4199 52.48 51.33 52.03 51.33C51.58 51.33 50.88 51.4199 50.37 51.4199C50.04 51.4199 50.04 51.36 50.04 51.15V51C50.04 50.92 50.19 50.8799 50.59 50.8499C51.46 50.7699 51.59 50.6 51.9 49.68L55.24 40C55.5577 39.6673 55.934 39.3961 56.35 39.2L60.56 49.81C60.6433 50.1474 60.8492 50.4418 61.1375 50.6358C61.4258 50.8299 61.7761 50.9098 62.12 50.86C62.3 50.86 62.34 51.07 62.34 51.25C62.34 51.43 62.22 51.4399 62.02 51.4399C61.82 51.4399 60.68 51.3499 60.02 51.3499C59.36 51.3499 58.68 51.3499 58.02 51.4399C57.77 51.4399 57.75 51.38 57.75 51.15C57.75 50.92 57.85 50.88 58.09 50.88C58.33 50.88 59.16 50.88 59.16 50.43C59.1094 50.0837 59.0084 49.7468 58.86 49.43L57.79 46.7299L53.77 46.72ZM57.47 46.07L55.61 41.27L54 46.07H57.47Z" fill="#F8FBF8"/>
<path d="M64.4099 41.6399C64.4327 41.4517 64.4014 41.261 64.3199 41.0899C64.0286 40.6774 63.6214 40.3607 63.1499 40.1799H62.2599C62.1899 40.1799 62.1699 40.0199 62.1699 39.8799C62.1699 39.7399 62.1699 39.6599 62.2599 39.6599C62.7799 39.6599 63.1799 39.6599 63.5999 39.6599C64.3699 39.6599 65.5999 39.7299 65.8999 39.7599L70.9999 45.8099C71.8529 46.8603 72.7644 47.8619 73.7299 48.8099H73.7999V41.4599C73.7999 40.3499 73.3899 40.1799 72.8599 40.1699H72.1399C72.0699 40.1699 72.0399 40.0099 72.0399 39.8899C72.0399 39.7699 72.0399 39.6199 72.1899 39.6199C72.5599 39.6199 73.4299 39.6999 74.2499 39.6999C75.0699 39.6999 75.8099 39.6199 76.2499 39.6199C76.3299 39.6199 76.3499 39.6899 76.3499 39.7599V39.9999C76.3499 40.0899 76.3499 40.0999 76.1999 40.0999H75.7599C74.6099 40.0999 74.6099 40.6899 74.6099 42.0999V51.8099H74.1999L65.1999 41.4699V49.1999C65.1999 50.6399 65.3999 50.8099 66.8399 50.8599C66.9099 50.8599 66.9599 51.0099 66.9599 51.1499C66.9599 51.2899 66.9599 51.4199 66.8899 51.4199C66.5699 51.4199 65.4999 51.3299 64.7999 51.3299C64.0999 51.3299 63.6099 51.4199 62.7999 51.4199C62.6999 51.4199 62.6799 51.2999 62.6799 51.0799C62.6799 50.8599 62.6799 50.8599 62.8899 50.8599C63.5999 50.8599 64.4099 50.6999 64.4099 49.8599V41.6399Z" fill="#F8FBF8"/>
<path d="M85.5103 45.1799L84.5103 48.3599C84.3549 48.8283 84.2673 49.3166 84.2503 49.8099C84.2503 50.5499 85.2503 50.7099 85.9003 50.7099C86.1003 50.7099 86.1503 50.8399 86.1503 51.1299C86.1503 51.4199 86.1503 51.4399 85.9703 51.4399C85.4503 51.4399 83.8203 51.3299 83.2103 51.3299C82.6003 51.3299 81.6703 51.4399 81.0003 51.4399C80.5503 51.4399 80.5503 51.3799 80.5503 51.0899V50.8399C80.5503 50.7299 80.7503 50.6799 81.2903 50.6399C82.4603 50.5299 82.6103 50.2999 83.0403 49.0699L87.4703 36.1899C87.9048 35.7333 88.4246 35.3664 89.0003 35.1099L94.6203 49.2699C94.7279 49.7224 95.0011 50.1182 95.3862 50.3792C95.7712 50.6402 96.2401 50.7475 96.7003 50.6799C96.9503 50.6799 96.9903 50.9499 96.9903 51.1999C96.9903 51.4499 96.8303 51.4399 96.5703 51.4399C96.3103 51.4399 94.7803 51.3299 93.9003 51.3299C93.0203 51.3299 92.1103 51.3799 91.2203 51.4399C90.8803 51.4399 90.8603 51.3799 90.8603 51.0599C90.8603 50.7399 90.9903 50.7099 91.3103 50.7099C91.6303 50.7099 92.7403 50.6399 92.7403 50.0999C92.6745 49.6409 92.5361 49.1953 92.3303 48.7799L90.9003 45.1799H85.5103ZM90.4503 44.3099L88.0003 37.9099L85.8803 44.3099H90.4503Z" fill="#F8FBF8"/>
<path d="M109 39.5801C109.52 39.5801 110.06 39.6301 110.6 39.6301C111.14 39.6301 111.45 39.5801 111.87 39.5801C112.12 39.5801 112.17 39.6501 112.17 39.7001V40C112.17 40.11 112.12 40.2001 112.05 40.2001C111.98 40.2001 111.75 40.2001 111.55 40.2001C110.55 40.2001 110.55 40.69 110.55 41.78C110.55 42.87 110.73 49 110.73 49.93C110.718 50.0644 110.735 50.1999 110.781 50.3268C110.827 50.4537 110.901 50.569 110.996 50.6644C111.091 50.7598 111.207 50.8331 111.334 50.879C111.46 50.9249 111.596 50.9423 111.73 50.93C112.4 50.93 112.48 50.93 112.48 51.12C112.48 51.31 112.38 51.4901 112.33 51.4901C111.44 51.4901 110.74 51.4001 110.04 51.4001C109.34 51.4001 108.61 51.4901 107.89 51.4901C107.77 51.4901 107.76 51.42 107.76 51.32V51.1501C107.76 50.9801 107.91 50.93 108.68 50.93C109.01 50.93 109.31 50.53 109.31 49.93C109.31 48.12 109.25 44.22 109.18 41.35H109.13C108.19 43.28 106.97 46.08 106.4 47.57L104.82 51.71C104.811 51.7417 104.791 51.7691 104.764 51.7874C104.736 51.8057 104.703 51.8137 104.67 51.8101C104.59 51.8101 104.52 51.73 104.47 51.5C104.367 51.0786 104.226 50.667 104.05 50.2701L100.88 42.5601C100.76 42.2701 100.66 42.07 100.6 42.07C100.54 42.07 100.53 42.41 100.53 42.59C100.53 43.92 100.33 48.98 100.33 49.8C100.33 50.62 100.33 50.94 101.81 50.94C101.91 50.94 101.92 51.03 101.92 51.23C101.92 51.43 101.92 51.5 101.84 51.5C101.6 51.5 100.78 51.41 99.8403 51.41C98.9003 51.41 97.9404 51.5 97.7104 51.5C97.7104 51.5 97.6104 51.4401 97.6104 51.3601V51C97.6104 50.85 97.7404 50.8301 97.9404 50.8301C99.3204 50.8301 99.5203 50.4101 99.5203 48.9501C99.5203 48.1301 99.8004 41.9501 99.8004 41.3601C99.8004 40.4701 99.3704 40.1 97.8604 40.1C97.8104 40.1 97.7703 40.02 97.7703 39.92V39.7001C97.7703 39.6619 97.7847 39.6252 97.8107 39.5974C97.8367 39.5695 97.8723 39.5526 97.9104 39.55C98.5504 39.55 99.1504 39.6301 99.8204 39.6301C100.24 39.6301 100.67 39.55 101.09 39.55C101.21 39.55 101.33 39.8201 101.41 40.0401L105 48.73H105.08L109 39.5801Z" fill="#F8FBF8"/>
<path d="M115.05 45.3099C114.525 45.0894 114.081 44.7132 113.777 44.2321C113.473 43.7511 113.324 43.1883 113.35 42.6199C113.35 40.5199 115.06 39.3499 117.35 39.3499C118.078 39.3753 118.796 39.5311 119.47 39.8099L119.58 41.9099V41.9999C119.58 42.0899 119.42 42.1199 119.18 42.1199C118.94 42.1199 118.93 42.0199 118.91 41.8499C118.891 41.5879 118.821 41.3322 118.703 41.0974C118.585 40.8626 118.422 40.6534 118.223 40.4816C118.024 40.3098 117.794 40.1788 117.545 40.0962C117.295 40.0135 117.032 39.9808 116.77 39.9999C116.515 39.9892 116.26 40.0296 116.02 40.1188C115.78 40.2079 115.561 40.3441 115.375 40.5192C115.188 40.6943 115.039 40.9049 114.935 41.1385C114.831 41.3722 114.775 41.6242 114.77 41.8799C114.77 43.0799 115.51 43.5499 117.19 44.4399C118.87 45.3299 120.29 46.0799 120.29 48.1799C120.29 50.4599 118.22 51.6499 116.13 51.6499C115.289 51.6232 114.457 51.4576 113.67 51.1599C113.53 51.0999 113.48 50.8799 113.43 50.5099L113.23 48.9299C113.23 48.8299 113.57 48.8299 113.67 48.8299C113.77 48.8299 113.77 48.8299 113.8 48.9799C113.932 49.5639 114.265 50.0834 114.739 50.4486C115.214 50.8138 115.801 51.0017 116.4 50.9799C116.985 50.9691 117.544 50.7408 117.97 50.3396C118.395 49.9383 118.655 49.3929 118.7 48.8099C118.69 48.331 118.545 47.8647 118.281 47.4648C118.017 47.0649 117.646 46.7477 117.21 46.5499L115.05 45.3099Z" fill="#F8FBF8"/>
<path d="M127.26 49.6199C127.26 50.8599 128.09 50.86 129.13 50.86L129.24 50.9399V51.2099C129.24 51.4099 129.15 51.41 128.88 51.41C128.61 51.41 127.73 51.33 126.55 51.33C125.63 51.33 124.19 51.41 123.79 51.41C123.75 51.3146 123.726 51.2132 123.72 51.11C123.719 51.0401 123.744 50.9723 123.79 50.9199L123.96 50.86H124.16C125.68 50.86 125.75 50.34 125.75 48.95V41V40.2299H123.5C122.23 40.2299 122.02 41.03 121.71 42.11C121.701 42.1549 121.675 42.1949 121.638 42.2225C121.601 42.2501 121.556 42.2634 121.51 42.2599C121.27 42.2599 121.12 42.19 121.12 42.09C121.12 41.81 121.32 40.2499 121.32 38.9199C121.32 38.8599 121.56 38.86 121.79 38.86C122.33 39.58 122.5 39.58 123.21 39.58H129.45C129.822 39.629 130.2 39.5725 130.541 39.4169C130.883 39.2613 131.173 39.0128 131.38 38.7C131.5 38.7 131.88 38.7 131.88 38.86C131.699 39.7545 131.576 40.6597 131.51 41.57C131.51 41.75 131.46 42.11 131.38 42.11C131.3 42.11 130.85 42.0199 130.85 41.9399L130.78 41.0999C130.71 40.2499 130.31 40.2299 129.62 40.2299H127.31L127.26 49.6199Z" fill="#F8FBF8"/>
<path d="M134.29 41.2898C134.29 40.1998 133.47 40.0798 132.5 40.0798C132.43 40.0798 132.43 39.9998 132.43 39.9298V39.7498C132.43 39.5998 132.72 39.5798 133.3 39.5798C133.88 39.5798 134.73 39.6598 135.43 39.6598C136.13 39.6598 136.77 39.5798 137.43 39.5798H141C141.13 39.5798 141.15 39.7298 141.15 39.9198V41.9198C141.15 41.9898 141.15 42.0598 141.03 42.0598C140.91 42.0598 140.63 42.0598 140.61 41.8698L140.56 41.3498C140.46 40.2798 139.73 40.0898 138.79 40.0898H137C136.06 40.0898 135.76 40.2898 135.76 41.5698V44.5698C135.76 44.5698 135.86 44.7098 135.9 44.7098L137.9 44.6398C138.9 44.6398 139.2 44.2898 139.45 43.3998C139.45 43.2998 139.53 43.2598 139.72 43.2598C139.91 43.2598 139.91 43.2598 139.91 43.3698C139.91 43.7198 139.81 44.4898 139.81 45.0398C139.81 45.9498 139.91 46.4298 139.91 46.7198C139.91 46.8198 139.75 46.9198 139.65 46.9198C139.583 46.9284 139.514 46.9102 139.46 46.869C139.406 46.8279 139.37 46.7672 139.36 46.6998C139.324 46.3639 139.271 46.0301 139.2 45.6998C139.11 45.4498 138.91 45.3298 138.41 45.3098L136 45.3298C135.76 45.3298 135.76 45.4098 135.76 45.5298V49.5298C135.76 50.7398 136.65 50.7698 137.76 50.7698H138.66C139.316 50.8403 139.979 50.7476 140.59 50.4998C141.058 50.0266 141.422 49.4614 141.66 48.8398C141.88 48.8398 142.16 48.8898 142.16 49.0098C142.148 49.1035 142.121 49.1947 142.08 49.2798L141.7 50.9998C141.57 51.4598 141.49 51.4598 141.27 51.4598C139.46 51.4598 137.68 51.3698 135.27 51.3698C134.72 51.3698 133.27 51.4598 132.45 51.4598C132.4 51.4598 132.35 51.2898 132.35 51.1898C132.35 51.0898 132.35 50.8998 132.45 50.8998C133.91 50.8298 134.31 50.6798 134.31 49.1398L134.29 41.2898Z" fill="#F8FBF8"/>
<path d="M144.82 41.3899C144.82 40.5499 144.82 40.1299 143.72 40.1299H143C142.91 40.1299 142.89 39.9499 142.89 39.8099C142.89 39.6699 142.94 39.5799 143 39.5799C144 39.5799 145 39.6299 145.94 39.6299C146.71 39.6299 147.47 39.5799 148.24 39.5799C149.072 39.5192 149.895 39.79 150.528 40.3333C151.161 40.8766 151.554 41.6482 151.62 42.4799C151.568 43.1702 151.278 43.8211 150.801 44.3224C150.323 44.8236 149.687 45.1442 149 45.2299C149.65 45.3799 150.34 46.6099 150.5 46.8699L152.35 49.6899C152.53 50.0572 152.818 50.3606 153.176 50.5591C153.533 50.7575 153.943 50.8416 154.35 50.7999L154.45 50.8999V51.2199C154.45 51.3699 154.33 51.3899 154.26 51.3899C153.91 51.3899 153.39 51.3299 153.14 51.3299C152.74 51.3299 152.33 51.3899 151.93 51.3899C151.53 51.3899 150.79 50.2599 149.8 48.4999C148.71 46.5699 148.07 45.4999 146.97 45.4999C146.774 45.4877 146.577 45.4877 146.38 45.4999V49.6099C146.38 50.2099 146.38 50.7799 147.22 50.7799C147.86 50.7799 148.14 50.7799 148.14 50.9099C148.14 51.2299 148.14 51.3399 147.84 51.3399C146.97 51.3399 146.25 51.2499 145.53 51.2499C145.24 51.2499 143.39 51.3399 143.15 51.3399C142.91 51.3399 143.01 51.1199 143.01 50.9799C143.01 50.8399 143.08 50.7999 143.41 50.7799C144.57 50.7799 144.88 50.5599 144.88 49.4099L144.82 41.3899ZM146.32 44.9599C146.54 44.9599 146.74 44.9599 146.96 44.9599C148.3 44.9599 149.96 44.4799 149.96 42.5099C149.977 42.1822 149.923 41.8547 149.804 41.5491C149.684 41.2435 149.501 40.9667 149.267 40.7371C149.032 40.5074 148.752 40.3301 148.444 40.2168C148.136 40.1035 147.807 40.0569 147.48 40.0799C146.34 40.0799 146.3 40.3399 146.3 40.8499L146.32 44.9599Z" fill="#F8FBF8"/>
<path d="M156.84 41.43C156.84 40.79 156.71 40.14 156.09 40.14C155.89 40.14 155.35 40.2 155.03 40.2C154.96 40.2 154.96 39.95 154.96 39.87C154.96 39.79 154.96 39.72 155.25 39.65C156.984 39.3829 158.735 39.2425 160.49 39.23C161.372 39.2197 162.253 39.3205 163.11 39.53C164.379 39.8594 165.502 40.6029 166.301 41.6426C167.1 42.6823 167.529 43.9588 167.52 45.27C167.52 49.42 164.05 51.27 160.86 51.27C159.27 51.27 158.43 51.21 157.6 51.21C156.77 51.21 155.92 51.21 155.08 51.27C155.02 51.27 155 51.12 155 51C155 50.88 155.08 50.72 155.15 50.72C155.59 50.7106 156.022 50.6084 156.42 50.42C156.579 50.3113 156.703 50.1592 156.777 49.9819C156.852 49.8045 156.874 49.6094 156.84 49.42V41.43ZM158.35 48.91C158.35 50.75 160.25 50.75 160.98 50.75C163.28 50.75 165.72 48.86 165.72 45.35C165.781 44.3276 165.56 43.3082 165.08 42.4033C164.6 41.4984 163.88 40.7431 163 40.22C162.175 39.9139 161.299 39.768 160.42 39.79C159.05 39.79 158.42 39.89 158.42 40.96L158.35 48.91Z" fill="#F8FBF8"/>
<path d="M170.5 46.72L169.76 49.0999C169.645 49.4527 169.578 49.8193 169.56 50.1899C169.56 50.7399 170.35 50.86 170.8 50.86C170.95 50.86 170.99 50.96 170.99 51.18C170.99 51.4 170.99 51.4199 170.85 51.4199C170.47 51.4199 169.24 51.33 168.79 51.33C168.34 51.33 167.63 51.4199 167.13 51.4199C166.8 51.4199 166.8 51.36 166.8 51.15V51C166.8 50.92 166.95 50.8799 167.35 50.8499C168.22 50.7699 168.35 50.6 168.66 49.68L172 40C172.318 39.6673 172.694 39.3961 173.11 39.2L177.32 49.81C177.404 50.1474 177.609 50.4418 177.898 50.6358C178.186 50.8299 178.536 50.9098 178.88 50.86C179.06 50.86 179.1 51.07 179.1 51.25C179.1 51.43 178.98 51.4399 178.78 51.4399C178.58 51.4399 177.44 51.3499 176.78 51.3499C176.12 51.3499 175.44 51.3499 174.78 51.4399C174.53 51.4399 174.51 51.38 174.51 51.15C174.51 50.92 174.61 50.88 174.85 50.88C175.09 50.88 175.92 50.88 175.92 50.43C175.87 50.0837 175.769 49.7468 175.62 49.43L174.55 46.7299L170.5 46.72ZM174.21 46.07L172.34 41.27L170.75 46.07H174.21Z" fill="#F8FBF8"/>
<path d="M190.71 39.5801C191.23 39.5801 191.71 39.6301 192.3 39.6301C192.89 39.6301 193.15 39.5801 193.57 39.5801C193.82 39.5801 193.87 39.6501 193.87 39.7001V40C193.87 40.11 193.82 40.2001 193.76 40.2001C193.7 40.2001 193.46 40.2001 193.26 40.2001C192.26 40.2001 192.26 40.69 192.26 41.78C192.26 42.87 192.45 49 192.45 49.93C192.437 50.0603 192.452 50.1919 192.495 50.3158C192.537 50.4397 192.606 50.553 192.696 50.6479C192.786 50.7428 192.896 50.8172 193.017 50.8659C193.139 50.9146 193.269 50.9365 193.4 50.93C194.07 50.93 194.16 50.93 194.16 51.12C194.16 51.31 194.06 51.4901 194.01 51.4901C193.12 51.4901 192.41 51.4001 191.71 51.4001C191.01 51.4001 190.28 51.4901 189.56 51.4901C189.45 51.4901 189.43 51.42 189.43 51.32V51.1501C189.43 50.9801 189.58 50.93 190.35 50.93C190.69 50.93 190.99 50.53 190.99 49.93C190.99 48.12 190.92 44.22 190.85 41.35H190.8C189.86 43.28 188.64 46.08 188.07 47.57L186.5 51.71C186.488 51.7399 186.467 51.7653 186.441 51.7832C186.414 51.801 186.382 51.8104 186.35 51.8101C186.26 51.8101 186.19 51.73 186.14 51.5C186.036 51.0786 185.896 50.667 185.72 50.2701L182.56 42.5601C182.44 42.2701 182.34 42.07 182.27 42.07C182.2 42.07 182.2 42.41 182.2 42.59C182.2 43.92 182 48.98 182 49.8C182 50.62 182 50.94 183.48 50.94C183.58 50.94 183.6 51.03 183.6 51.23C183.6 51.43 183.6 51.5 183.51 51.5C183.28 51.5 182.46 51.41 181.51 51.41C180.56 51.41 179.61 51.5 179.38 51.5C179.33 51.5 179.28 51.4401 179.28 51.3601V51C179.28 50.85 179.41 50.8301 179.61 50.8301C180.99 50.8301 181.19 50.4101 181.19 48.9501C181.19 48.1301 181.48 41.9501 181.48 41.3601C181.48 40.4701 181.04 40.1 179.53 40.1C179.48 40.1 179.45 40.02 179.45 39.92V39.7001C179.449 39.6817 179.451 39.6632 179.457 39.6457C179.463 39.6282 179.472 39.612 179.484 39.598C179.496 39.5841 179.511 39.5727 179.527 39.5644C179.544 39.5562 179.562 39.5513 179.58 39.55C180.22 39.55 180.82 39.6301 181.5 39.6301C181.91 39.6301 182.35 39.55 182.77 39.55C182.89 39.55 183 39.8201 183.09 40.0401L186.71 48.7001H186.79L190.71 39.5801Z" fill="#F8FBF8"/>
</g>
</svg>
