<svg width="212" height="67" viewBox="0 0 212 67" fill="none" xmlns="http://www.w3.org/2000/svg">
<path d="M0 63.0608L5.86401 57.1522L0 51.2437L3.90934 47.3046L9.77336 53.2132L15.6374 47.3046L19.5467 51.2437L13.6827 57.1522L19.5467 63.0608L15.6374 66.9999L9.77336 61.0913L3.90934 66.9999L0 63.0608Z" fill="#F8FBF8"/>
<path d="M0 15.7562L5.86401 9.84762L0 3.93905L3.90934 0L9.77336 5.90857L15.6374 0L19.5467 3.93905L13.6827 9.84762L19.5467 15.7562L15.6374 19.6952L9.77336 13.7867L3.9113 19.6952L0 15.7562Z" fill="#F8FBF8"/>
<path d="M0 39.4315L5.86401 33.523L0 27.6144L3.90934 23.6754L9.77336 29.5839L15.6374 23.6754L19.5467 27.6144L13.6827 33.523L19.5467 39.4315L15.6374 43.3706L9.77336 37.462L3.90934 43.3706L0 39.4315Z" fill="#F8FBF8"/>
<path d="M56.7169 25.8027C53.8396 27.3547 50.5597 28.1661 46.9142 28.1661C39.6194 28.1661 34.4043 23.1773 34.4043 15.7266C34.4043 8.07303 39.6252 3.08423 46.9142 3.08423C50.5264 3.08423 53.7731 3.85825 56.2477 6.08381L53.1359 9.24884C51.6308 7.76579 49.3223 6.92283 46.9474 6.92283C42.0607 6.92283 38.816 10.6984 38.816 15.4528C38.816 20.5441 42.0607 24.3157 46.9474 24.3157C49.0976 24.3157 51.0288 23.9119 52.5006 23.069V17.4421H47.6491V13.5995H56.7169V25.8027Z" fill="#F8FBF8"/>
<path d="M64.5476 20.8824C64.8154 23.2753 66.6215 24.7249 68.8635 24.7249C70.871 24.7249 72.1865 23.7815 73.1814 22.5348L76.0587 24.7249C74.1841 27.0529 71.8073 27.9628 69.2642 27.9628C64.4127 27.9628 60.5327 24.5575 60.5327 19.4663C60.5327 14.3751 64.4127 10.9678 69.2642 10.9678C73.7502 10.9678 76.7878 14.1387 76.7878 19.7696V20.8824H64.5476ZM72.7787 17.8473C72.7455 15.4839 71.2052 14.0048 68.6954 14.0048C66.3205 14.0048 64.8486 15.5213 64.5476 17.8473H72.7787Z" fill="#F8FBF8"/>
<path d="M80.3735 11.3755H84.1891V13.9043H84.2555C84.9572 12.3858 86.4975 10.9678 89.1735 10.9678C91.65 10.9678 93.3565 11.9525 94.1931 13.9693C95.3659 11.9131 97.0703 10.9678 99.4707 10.9678C103.755 10.9678 105.26 14.0363 105.26 17.9143V27.5551H101.251V18.387C101.251 16.3643 100.651 14.6114 98.2744 14.6114C95.7646 14.6114 94.8283 16.7011 94.8283 18.7927V27.5571H90.8134V17.9163C90.8134 15.927 90.0101 14.6114 88.0769 14.6114C85.4342 14.6114 84.3962 16.5671 84.3962 18.7238V27.5571H80.3735V11.3755Z" fill="#F8FBF8"/>
<path d="M112.865 20.8824C113.132 23.2753 114.938 24.7249 117.18 24.7249C119.188 24.7249 120.492 23.7815 121.496 22.5348L124.374 24.7249C122.501 27.0529 120.124 27.9628 117.581 27.9628C112.73 27.9628 108.844 24.5575 108.844 19.4663C108.844 14.3751 112.73 10.9678 117.581 10.9678C122.065 10.9678 125.111 14.1367 125.111 19.7676V20.8804L112.865 20.8824ZM121.096 17.8473C121.06 15.4839 119.532 14.0048 117.012 14.0048C114.637 14.0048 113.166 15.5213 112.865 17.8473H121.096Z" fill="#F8FBF8"/>
<path d="M132.07 20.8824C132.337 23.2753 134.143 24.7249 136.385 24.7249C138.393 24.7249 139.708 23.7815 140.701 22.5348L143.581 24.7249C141.706 27.0529 139.337 27.9628 136.796 27.9628C131.944 27.9628 128.062 24.5575 128.062 19.4663C128.062 14.3751 131.937 10.9678 136.796 10.9678C141.278 10.9678 144.323 14.1367 144.323 19.7676V20.8804L132.07 20.8824ZM140.301 17.8473C140.267 15.4839 138.737 14.0048 136.219 14.0048C133.842 14.0048 132.371 15.5213 132.07 17.8473H140.301Z" fill="#F8FBF8"/>
<path d="M148.063 11.3755H151.879V13.9713H151.945C152.682 12.3464 154.193 10.9678 156.863 10.9678C161.181 10.9678 162.727 14.0363 162.727 17.3412V27.5551H158.705V19.3658C158.705 17.5775 158.57 14.6114 155.759 14.6114C153.116 14.6114 152.08 16.5671 152.08 18.7238V27.5571H148.063V11.3755Z" fill="#F8FBF8"/>
<path d="M165.395 14.8147V11.3759H168.718V6.68848H172.723V11.3759H177.141V14.8147H172.723V21.905C172.723 23.522 173.192 24.5343 174.965 24.5343C175.667 24.5343 176.638 24.3984 177.141 24.0282V27.4335C176.304 27.8274 174.899 27.9731 173.962 27.9731C169.713 27.9731 168.708 26.0509 168.708 22.2418V14.8147H165.395Z" fill="#F8FBF8"/>
<path d="M183.497 20.8824C183.765 23.2753 185.571 24.7249 187.813 24.7249C189.821 24.7249 191.136 23.7815 192.129 22.5348L195.008 24.7249C193.134 27.0529 190.759 27.9628 188.216 27.9628C183.362 27.9628 179.482 24.5575 179.482 19.4663C179.482 14.3751 183.362 10.9678 188.216 10.9678C192.698 10.9678 195.743 14.1367 195.743 19.7676V20.8804L183.497 20.8824ZM191.723 17.8473C191.689 15.4839 190.159 14.0048 187.639 14.0048C185.264 14.0048 183.792 15.5213 183.491 17.8473H191.723Z" fill="#F8FBF8"/>
<path d="M43.3333 39.1846H46.9808L57.1861 63.0532H52.3678L50.1591 57.5917H39.8873L37.7371 63.0532H33.0283L43.3333 39.1846ZM48.6872 53.956L45.0398 44.2502L41.3259 53.9599L48.6872 53.956Z" fill="#F8FBF8"/>
<path d="M59.2939 46.873H63.1056V49.3999H63.174C63.8757 47.8834 65.414 46.4673 68.0919 46.4673C70.5685 46.4673 72.2749 47.452 73.1115 49.4669C74.2843 47.4107 75.9888 46.4673 78.3989 46.4673C82.6816 46.4673 84.1867 49.5358 84.1867 53.4118V63.0625H80.1737V53.8845C80.1737 51.8618 79.5717 50.1089 77.1968 50.1089C74.687 50.1089 73.7487 52.1986 73.7487 54.2883V63.0546H69.7338V53.4039C69.7338 51.4147 68.9305 50.1011 66.9973 50.1011C64.3546 50.1011 63.3167 52.0568 63.3167 54.2134V63.0467H59.2939V46.873Z" fill="#F8FBF8"/>
<path d="M97.1373 51.3552C96.3672 50.2779 95.3644 49.7028 93.9922 49.7028C92.9211 49.7028 91.6466 50.2089 91.6466 51.4222C91.6466 54.3213 100.312 51.9618 100.312 58.2662C100.312 62.1108 96.6662 63.4579 93.3863 63.4579C90.9097 63.4579 88.7694 62.8178 87.1313 60.9625L89.8092 58.4317C90.8472 59.578 91.9183 60.4209 93.6248 60.4209C94.7976 60.4209 96.3007 59.8478 96.3007 58.5656C96.3007 55.2292 87.6337 57.8586 87.6337 51.688C87.6337 48.0818 90.8472 46.4629 94.0841 46.4629C96.2342 46.4629 98.5017 47.1365 99.8074 48.9248L97.1373 51.3552Z" fill="#F8FBF8"/>
<path d="M101.552 50.3079V46.8711H104.865V42.1836H108.88V46.8711H113.298V50.3079H108.88V57.3883C108.88 59.0073 109.349 60.0176 111.122 60.0176C111.826 60.0176 112.796 59.8837 113.298 59.5134V62.9168C112.461 63.3225 111.056 63.4564 110.12 63.4564C105.87 63.4564 104.865 61.5361 104.865 57.7251V50.3079H101.552Z" fill="#F8FBF8"/>
<path d="M119.656 56.3792C119.923 58.7721 121.729 60.2217 123.971 60.2217C125.979 60.2217 127.294 59.2783 128.289 58.0296L131.167 60.2217C129.292 62.5477 126.917 63.4576 124.374 63.4576C119.523 63.4576 115.641 60.0543 115.641 54.9631C115.641 49.8719 119.523 46.4666 124.374 46.4666C128.858 46.4666 131.902 49.6355 131.902 55.2664V56.3792H119.656ZM127.887 53.3441C127.853 50.9807 126.323 49.5016 123.805 49.5016C121.428 49.5016 119.957 51.0181 119.656 53.3441H127.887Z" fill="#F8FBF8"/>
<path d="M135.649 46.8723H139.666V49.4327H139.728C140.598 47.5793 142.371 46.4666 144.478 46.4666C144.967 46.4761 145.452 46.5557 145.919 46.7029V50.6144C145.287 50.433 144.635 50.3304 143.978 50.3091C140.197 50.3091 139.662 53.5135 139.662 54.3899V63.0559H135.649V46.8723Z" fill="#F8FBF8"/>
<path d="M160.811 60.6273H160.745C159.572 62.583 157.465 63.4595 155.223 63.4595C150.271 63.4595 147.292 59.7509 147.292 54.9649C147.292 50.179 150.471 46.4684 155.056 46.4684C158.067 46.4684 159.673 47.8845 160.51 48.9303H160.61V37.5681H164.625V63.0557H160.811V60.6273ZM156.026 59.8119C158.97 59.8119 160.745 57.4859 160.745 54.957C160.745 52.4282 158.97 50.1022 156.026 50.1022C153.082 50.1022 151.307 52.4282 151.307 54.957C151.307 57.4859 153.08 59.8119 156.026 59.8119Z" fill="#F8FBF8"/>
<path d="M179.212 60.8291H179.112C177.975 62.6509 176.102 63.4584 173.96 63.4584C170.983 63.4584 168.096 61.8079 168.096 58.6035C168.096 53.3449 174.186 52.9746 178.201 52.9746H179.212V52.5354C179.212 50.5462 177.674 49.5023 175.531 49.5023C173.945 49.5018 172.416 50.1038 171.251 51.1882L169.141 49.0631C170.916 47.2433 173.424 46.4673 175.967 46.4673C182.826 46.4673 182.826 51.4561 182.826 53.7545V63.0586H179.212V60.8291ZM178.979 55.8068H178.143C175.934 55.8068 172.12 55.9742 172.12 58.3002C172.12 59.7832 173.625 60.4253 174.931 60.4253C177.668 60.4253 178.979 58.9757 178.979 56.7167V55.8068Z" fill="#F8FBF8"/>
<path d="M186.976 46.8723H190.79V49.3992H190.856C191.56 47.8826 193.1 46.4666 195.776 46.4666C198.253 46.4666 199.959 47.4513 200.794 49.4661C201.966 47.41 203.673 46.4666 206.071 46.4666C210.354 46.4666 211.859 49.5351 211.859 53.4111V63.0618H207.844V53.8838C207.844 51.8611 207.242 50.1082 204.867 50.1082C202.357 50.1082 201.421 52.1979 201.421 54.2875V63.0539H197.406V53.4032C197.406 51.414 196.603 50.1003 194.67 50.1003C192.027 50.1003 190.989 52.0561 190.989 54.2127V63.046H186.976V46.8723Z" fill="#F8FBF8"/>
</svg>
