<svg width="230" height="72" viewBox="0 0 230 72" fill="none" xmlns="http://www.w3.org/2000/svg">
<path d="M88.8126 42.7035C87.9274 43.6229 86.5878 44.1364 85.0603 44.1364H79.854V30.7727H85.059C86.5864 30.7727 87.9261 31.281 88.8113 32.2056C90.1878 33.6201 90.3769 35.5994 90.3769 37.4474C90.3769 39.2953 90.1878 41.2943 88.8113 42.7088M86.9463 33.7134C86.697 33.4698 86.4021 33.2779 86.0784 33.1485C85.7548 33.0191 85.4088 32.9549 85.0603 32.9595H82.2877V41.9549H85.0603C85.4089 41.9595 85.755 41.8952 86.0787 41.7656C86.4024 41.636 86.6972 41.4437 86.9463 41.1997C87.8893 40.2567 87.9077 38.6727 87.9077 37.4474C87.9077 36.222 87.8893 34.6564 86.9463 33.7134Z" fill="#F8FBF8"/>
<path d="M100.034 44.2927C99.0163 44.2927 98.4502 43.6518 98.3754 42.9163C97.9222 43.7043 96.7914 44.3873 95.3953 44.3873C93.0574 44.3873 91.8491 42.9163 91.8491 41.314C91.8491 39.4463 93.2938 38.372 95.1681 38.2393L98.0575 38.0318V37.429C98.0575 36.5096 97.737 35.8818 96.3974 35.8818C95.3033 35.8818 94.6624 36.373 94.6059 37.2779H92.3219C92.4533 35.0714 94.208 34.0903 96.3934 34.0903C98.072 34.0903 99.5049 34.6157 100.071 36.0906C100.317 36.7119 100.353 37.404 100.353 38.0699V41.7093C100.353 42.1624 100.504 42.3318 100.901 42.3318C101.002 42.33 101.103 42.3172 101.202 42.2938V44.0287C100.841 44.2144 100.439 44.3049 100.033 44.2914M98.0536 39.7839L95.5581 39.973C94.8423 40.0295 94.1436 40.4629 94.1436 41.2562C94.1436 42.0101 94.8003 42.4816 95.5397 42.4816C97.0107 42.4816 98.0483 41.6935 98.0483 40.237L98.0536 39.7839Z" fill="#F8FBF8"/>
<path d="M108.163 36.4295C106.504 36.4295 105.636 37.6115 105.636 39.2007V44.1483H103.26V34.3359H105.259L105.467 35.8069C105.92 34.6761 107.089 34.2046 108.239 34.2046C108.486 34.2045 108.731 34.2234 108.975 34.2611V36.5306C108.708 36.4713 108.436 36.4396 108.163 36.436" fill="#F8FBF8"/>
<path d="M117.384 44.1417L114.631 39.8614L113.067 41.5583V44.1417H110.709V30.5271H113.067V38.3155L116.781 34.3359H119.742L116.235 38.1264L120.119 44.1417H117.384Z" fill="#F8FBF8"/>
<path d="M136.696 44.1417V34.5999L133.226 43.9539H131.435L127.984 34.487V44.1417H125.627V30.7727H128.908L132.416 40.2948L135.942 30.7727H139.054V44.1417H136.696Z" fill="#F8FBF8"/>
<path d="M149.464 44.2927C148.445 44.2927 147.879 43.6518 147.804 42.9163C147.351 43.7043 146.22 44.3873 144.825 44.3873C142.486 44.3873 141.279 42.9163 141.279 41.314C141.279 39.4463 142.731 38.372 144.598 38.2393L147.487 38.0318V37.429C147.487 36.5096 147.167 35.8818 145.827 35.8818C144.734 35.8818 144.093 36.373 144.037 37.2779H141.754C141.886 35.0714 143.64 34.0903 145.826 34.0903C147.504 34.0903 148.937 34.6157 149.503 36.0906C149.749 36.7119 149.787 37.404 149.787 38.0699V41.7093C149.787 42.1624 149.937 42.3318 150.333 42.3318C150.435 42.33 150.536 42.3173 150.635 42.2938V44.0287C150.274 44.2141 149.872 44.3045 149.466 44.2914M147.486 39.7839L144.99 39.973C144.273 40.0295 143.576 40.4629 143.576 41.2562C143.576 42.0101 144.233 42.4816 144.971 42.4816C146.442 42.4816 147.479 41.6935 147.479 40.237L147.486 39.7839Z" fill="#F8FBF8"/>
<path d="M156.122 44.2797C154.142 44.2797 153.162 43.1475 153.162 41.2589V36.2785H151.371V34.336H153.162V31.8406L155.518 31.2561V34.3294H157.989V36.2719H155.518V41.0435C155.518 41.7974 155.858 42.1178 156.612 42.1178C157.123 42.1198 157.633 42.0882 158.14 42.0233V44.017C157.481 44.1899 156.803 44.2782 156.122 44.2797Z" fill="#F8FBF8"/>
<path d="M163.665 44.2797C161.686 44.2797 160.705 43.1475 160.705 41.2589V36.2785H158.92V34.336H160.711V31.8406L163.075 31.2561V34.3294H165.546V36.2719H163.075V41.0435C163.075 41.7974 163.414 42.1178 164.17 42.1178C164.68 42.1198 165.19 42.0882 165.697 42.0233V44.017C165.038 44.1899 164.36 44.2782 163.678 44.2797" fill="#F8FBF8"/>
<path d="M175.773 39.9743H169.207C169.188 40.7295 169.452 41.4453 169.924 41.8971C170.307 42.2808 170.826 42.4978 171.368 42.5013C172.047 42.5013 172.462 42.3699 172.801 42.0298C173.031 41.8011 173.195 41.5142 173.274 41.1997H175.537C175.479 41.7855 175.084 42.5578 174.707 43.0109C173.877 43.9907 172.652 44.3873 171.406 44.3873C170.068 44.3873 169.087 43.9158 168.313 43.1803C167.334 42.2373 166.806 40.8609 166.806 39.2572C166.806 37.693 167.277 36.2981 168.22 35.3354C168.956 34.5815 170.012 34.0903 171.35 34.0903C172.795 34.0903 174.123 34.6761 174.933 35.9015C175.649 36.9758 175.819 38.0883 175.781 39.3163C175.781 39.3163 175.763 39.7681 175.763 39.973M172.821 36.5411C172.501 36.2009 172.011 35.975 171.332 35.975C170.614 35.975 170.03 36.2771 169.691 36.7302C169.352 37.1834 169.2 37.6155 169.182 38.2577H173.424C173.405 37.5222 173.198 36.9561 172.821 36.5411Z" fill="#F8FBF8"/>
<path d="M182.902 36.4295C181.242 36.4295 180.375 37.6115 180.375 39.2007V44.1483H178V34.3359H179.997L180.206 35.8069C180.658 34.6761 181.827 34.2046 182.977 34.2046C183.224 34.2045 183.469 34.2233 183.713 34.2611V36.5306C183.447 36.4714 183.175 36.4397 182.902 36.436" fill="#F8FBF8"/>
<path d="M189.484 44.1417V30.7727H191.916V41.8419H198.121V44.1417H189.484Z" fill="#F8FBF8"/>
<path d="M207.136 44.2927C206.118 44.2927 205.552 43.6518 205.476 42.9163C205.024 43.7043 203.9 44.3873 202.497 44.3873C200.159 44.3873 198.951 42.9163 198.951 41.314C198.951 39.4463 200.395 38.372 202.27 38.2393L205.159 38.0318V37.429C205.159 36.5096 204.837 35.8818 203.499 35.8818C202.405 35.8818 201.764 36.373 201.707 37.2779H199.426C199.557 35.0714 201.311 34.0903 203.498 34.0903C205.176 34.0903 206.609 34.6157 207.175 36.0906C207.419 36.7119 207.458 37.404 207.458 38.0699V41.7093C207.458 42.1624 207.609 42.3318 208.005 42.3318C208.107 42.33 208.207 42.3172 208.306 42.2938V44.0287C207.945 44.2144 207.543 44.3049 207.137 44.2914M205.151 39.7852L202.656 39.9743C201.94 40.0308 201.243 40.4642 201.243 41.2575C201.243 42.0114 201.899 42.4829 202.637 42.4829C204.108 42.4829 205.146 41.6949 205.146 40.2383L205.151 39.7852Z" fill="#F8FBF8"/>
<path d="M217.679 43.5388C217.007 44.0845 216.166 44.3777 215.301 44.3676C214.227 44.3676 213.133 43.9736 212.543 43.0673L212.392 44.1417H210.356V30.5271H212.714V35.053C213.166 34.5067 214.109 34.0903 215.278 34.0903C216.277 34.0903 217.069 34.3924 217.673 34.8784C218.842 35.8398 219.427 37.3291 219.427 39.2519C219.427 41.1012 218.842 42.5709 217.673 43.5336M216.41 36.8353C216.226 36.59 215.987 36.392 215.711 36.2575C215.436 36.123 215.132 36.0559 214.826 36.0617C212.977 36.0617 212.593 37.7967 212.593 39.2139C212.593 40.1753 212.764 41.2693 213.442 41.8905C213.763 42.1926 214.215 42.3818 214.819 42.3818C215.126 42.3873 215.429 42.32 215.704 42.1856C215.98 42.0511 216.219 41.8532 216.403 41.6082C216.893 40.9672 217.025 40.0623 217.025 39.2139C217.025 38.3654 216.893 37.4789 216.403 36.8379" fill="#F8FBF8"/>
<path d="M228.465 43.255C227.677 44.0431 226.448 44.3872 225.108 44.3872C223.865 44.3872 222.752 44.0286 221.941 43.255C221.374 42.7087 220.904 41.897 220.904 40.9737H223.109C223.113 41.1913 223.162 41.4057 223.252 41.6037C223.343 41.8016 223.473 41.9788 223.635 42.1242C224.012 42.4263 224.447 42.5576 225.124 42.5576C225.912 42.5576 227.125 42.3882 227.125 41.3139C227.125 40.7478 226.746 40.3708 226.143 40.2763C225.275 40.1449 224.295 40.0871 223.429 39.8993C222.089 39.6156 221.184 38.5216 221.184 37.2726C221.174 36.8533 221.259 36.4372 221.432 36.0552C221.605 35.6732 221.862 35.3351 222.184 35.0661C222.901 34.4435 223.937 34.085 225.162 34.085C226.331 34.085 227.52 34.4632 228.237 35.2355C228.762 35.8016 229.104 36.5371 229.104 37.2542H226.861C226.852 36.9085 226.711 36.5793 226.467 36.3348C226.184 36.0524 225.678 35.8817 225.185 35.8817C224.838 35.8588 224.491 35.9103 224.165 36.0327C223.752 36.2021 223.412 36.5581 223.412 37.0703C223.412 37.7677 224.014 37.9752 224.544 38.0514C225.429 38.1643 225.675 38.1827 226.636 38.3338C228.183 38.5794 229.314 39.5592 229.314 41.1063C229.326 41.5034 229.257 41.8988 229.112 42.2683C228.966 42.6378 228.746 42.9736 228.465 43.255Z" fill="#F8FBF8"/>
<path d="M20.1749 40.2422H14.7979V57.6892H20.1749C20.8505 57.6989 21.5214 57.5751 22.1491 57.3249C22.7768 57.0748 23.3489 56.7031 23.8327 56.2314C25.6609 54.4018 25.6977 51.3298 25.6977 48.9526C25.6977 46.5753 25.6609 43.5401 23.8327 41.7106C23.3493 41.2379 22.7774 40.8653 22.1497 40.6142C21.522 40.3631 20.8509 40.2385 20.1749 40.2474" fill="#F8FBF8"/>
<path d="M58.1832 11.8467C56.2131 11.8467 56.3852 14.2108 56.3852 15.5806C56.3852 16.9505 56.217 19.3146 58.1832 19.3146C60.1493 19.3146 59.9812 16.9505 59.9812 15.5806C59.9812 14.2108 60.1533 11.8467 58.1832 11.8467Z" fill="#F8FBF8"/>
<path d="M0 72H72.0013V0H0V72ZM47.0312 11.0246C47.5802 10.4914 48.3577 10.0789 49.5003 10.0789C50.643 10.0789 51.4205 10.4914 51.9695 11.0246C53.0662 12.0753 53.2343 13.8431 53.2343 15.5807C53.2343 17.3184 53.0662 19.0862 51.9695 20.1382C51.4205 20.6714 50.643 21.0825 49.5003 21.0825C48.3577 21.0825 47.5802 20.6714 47.0312 20.1382C45.9345 19.0875 45.7664 17.3184 45.7664 15.5807C45.7664 13.8431 45.9345 12.0753 47.0312 11.0246ZM27.4498 59.1524C25.7306 60.9439 23.134 61.9316 20.171 61.9316H10.0803V36.0053H20.175C23.138 36.0053 25.7346 36.9929 27.4538 38.7844C30.1239 41.5281 30.489 45.3684 30.489 48.9526C30.489 52.5369 30.1239 56.414 27.4538 59.1577M61.9211 61.925H57.3859V50.1058C57.3859 47.7653 56.7634 46.4125 54.4597 46.4125C51.8618 46.4125 50.7284 49.1549 50.7284 51.5348V61.9211H46.1932V50.1058C46.1932 47.7653 45.572 46.4125 43.267 46.4125C40.6704 46.4125 39.5002 49.1549 39.5002 51.5348V61.9211H34.9651V42.9005H38.7739L39.139 45.4249C40.2002 43.6689 42.0285 42.4251 44.5528 42.4251C47.2229 42.4251 49.0512 43.5953 50.002 45.5339C51.1355 43.5638 53.1844 42.4251 55.7442 42.4251C59.8052 42.4251 61.9263 45.132 61.9263 49.0827L61.9211 61.925ZM60.6563 20.1435C60.1073 20.6767 59.3297 21.0878 58.1871 21.0878C57.0444 21.0878 56.2669 20.6767 55.7179 20.1435C54.6212 19.0927 54.4531 17.3236 54.4531 15.586C54.4531 13.8484 54.6212 12.0806 55.7179 11.0298C56.2669 10.4966 57.0444 10.0842 58.1871 10.0842C59.3297 10.0842 60.1073 10.4966 60.6563 11.0298C61.7529 12.0806 61.9211 13.8484 61.9211 15.586C61.9211 17.3236 61.7529 19.0914 60.6563 20.1435Z" fill="#F8FBF8"/>
<path d="M49.5003 19.3146C51.4704 19.3146 51.2984 16.9505 51.2984 15.5806C51.2984 14.2108 51.4665 11.8467 49.5003 11.8467C47.5342 11.8467 47.7023 14.2108 47.7023 15.5806C47.7023 16.9505 47.5342 19.3146 49.5003 19.3146Z" fill="#F8FBF8"/>
</svg>
