<svg width="195" height="61" viewBox="0 0 195 61" fill="none" xmlns="http://www.w3.org/2000/svg">
<mask id="mask0_537_12113" style="mask-type:luminance" maskUnits="userSpaceOnUse" x="0" y="0" width="195" height="61">
<path d="M194.36 0H0V61H194.36V0Z" fill="white"/>
</mask>
<g mask="url(#mask0_537_12113)">
<path d="M190.83 38.8999V32.3999H193.55V31.3999H186.63V32.3999H189.36V38.8999H190.83ZM125.07 25.1599L122.35 17.7099H124L126.09 23.4799L128.19 17.7099H129.34L126.62 25.1599H125.07ZM131.79 21.0699H132.1C132.343 21.0972 132.59 21.074 132.824 21.0018C133.058 20.9295 133.274 20.8097 133.46 20.6499C133.685 20.382 133.831 20.0564 133.88 19.7099C133.882 19.5718 133.856 19.4348 133.802 19.3075C133.749 19.1801 133.67 19.0652 133.57 18.9699C133.202 18.7161 132.754 18.6059 132.31 18.6599H131.79V21.0699ZM130.32 25.1599V17.7099H133.15C133.579 17.7034 134.006 17.7745 134.41 17.9199C134.717 18.0419 134.974 18.2638 135.14 18.5499C135.308 18.8366 135.381 19.169 135.35 19.4999C135.357 19.9555 135.209 20.4 134.93 20.7599C134.685 21.1737 134.318 21.5019 133.88 21.6999L136.3 25.1599H134.41L132.62 22.1599H131.79V25.1599H130.32ZM137.32 17.7099H138.9V25.1599H137.32V17.7099ZM139.53 25.3699C139.923 25.5404 140.352 25.6125 140.78 25.5799C140.963 25.5966 141.148 25.5583 141.31 25.4699L141.62 25.1599C141.73 25.0499 141.73 24.7399 141.73 24.2199V17.6099H143.3V23.9999C143.314 24.5311 143.243 25.0611 143.09 25.5699C142.88 25.8799 142.67 26.1999 142.36 26.2999C141.94 26.5281 141.467 26.6386 140.99 26.6199C140.531 26.5908 140.076 26.5205 139.63 26.4099L139.53 25.3699ZM145.19 25.1599V17.7099H150V18.7599H146.75V20.8599H149.48V21.9099H146.75V24.2199H150.21V25.2199H145.21L145.19 25.1599ZM123.06 31.3499H124.63V35.9999C124.551 36.593 124.701 37.1938 125.05 37.6799C125.185 37.8206 125.348 37.9309 125.529 38.0033C125.711 38.0757 125.905 38.1087 126.1 38.0999C126.287 38.111 126.475 38.0789 126.649 38.0061C126.822 37.9333 126.976 37.8217 127.1 37.6799C127.406 37.2158 127.553 36.6649 127.52 36.1099V31.3499H129V35.9999C129.037 36.645 128.931 37.2903 128.69 37.8899C128.485 38.2719 128.152 38.5693 127.75 38.7299C127.254 38.9536 126.713 39.0597 126.17 39.0399C125.63 39.0596 125.092 38.9534 124.6 38.7299C124.177 38.5225 123.829 38.191 123.6 37.7799C123.314 37.1949 123.17 36.5508 123.18 35.8999L123.06 31.3499ZM130.72 38.8999V31.4499H132.08L135.54 36.5899V31.4499H136.8V38.8999H135.44L132 33.7599V38.8999H130.72ZM138.9 31.3499H140.47V38.7899H138.9V31.3499ZM144.25 38.8999L141.52 31.4499H143.2L145.29 37.2199L147.39 31.4499H148.54L145.82 38.8999H144.25ZM149.25 38.8999V31.4499H154.07V32.4999H150.82V34.5999H153.55V35.5999H150.82V37.9999H154.28V38.9999H149.28L149.25 38.8999ZM157.01 34.8099H157.32C157.565 34.8362 157.812 34.8126 158.048 34.7404C158.283 34.6682 158.502 34.549 158.69 34.3899C158.924 34.1045 159.07 33.757 159.11 33.3899C159.109 33.2528 159.081 33.1172 159.026 32.9916C158.971 32.8661 158.89 32.7531 158.79 32.6599C158.422 32.4061 157.974 32.2959 157.53 32.3499H157.01V34.8099ZM155.54 38.8999V31.4499H158.37C158.799 31.4425 159.226 31.5136 159.63 31.6599C159.942 31.7785 160.203 32.001 160.37 32.2899C160.53 32.5758 160.6 32.9036 160.57 33.2299C160.58 33.6843 160.436 34.1287 160.16 34.4899C159.918 34.9087 159.551 35.241 159.11 35.4399L161.52 38.8999H159.63L157.74 35.8999H157V38.8999H155.54ZM162.15 37.5299C162.558 37.7035 162.979 37.844 163.41 37.9499C163.72 37.9499 163.93 38.0599 164.25 38.0599C164.42 38.0713 164.59 38.0489 164.752 37.994C164.913 37.939 165.062 37.8527 165.19 37.7399C165.289 37.6458 165.367 37.5325 165.42 37.407C165.474 37.2814 165.501 37.1463 165.5 37.0099C165.5 36.8159 165.424 36.6296 165.29 36.4899C165.077 36.207 164.79 35.9889 164.46 35.8599L163.93 35.5399C163.347 35.2929 162.84 34.8961 162.46 34.3899C162.214 34.0504 162.068 33.6484 162.04 33.2299C162.043 32.9569 162.1 32.6873 162.208 32.4367C162.316 32.186 162.473 31.9594 162.67 31.7699C162.927 31.5444 163.227 31.3725 163.551 31.2643C163.876 31.1561 164.219 31.1138 164.56 31.1399C165.231 31.16 165.899 31.2302 166.56 31.3499V32.6099C165.966 32.3388 165.322 32.1957 164.67 32.1899C164.379 32.1817 164.092 32.2544 163.84 32.3999C163.63 32.6099 163.52 32.7099 163.52 33.0199C163.52 33.3299 163.63 33.3399 163.73 33.5499C163.83 33.7599 164.15 33.8599 164.57 34.1799L165.09 34.4899C165.7 34.7479 166.241 35.1451 166.67 35.6499C166.89 35.9926 167.005 36.3925 167 36.7999C167.012 37.1008 166.952 37.4003 166.825 37.6734C166.698 37.9465 166.508 38.1853 166.27 38.3699C165.637 38.8397 164.855 39.0636 164.07 38.9999C163.366 38.9743 162.665 38.9042 161.97 38.7899V37.5299H162.15ZM168.44 31.3499H170.01V38.7899H168.44V31.3499ZM173.26 38.8999V32.3999H170.54V31.3999H177.46V32.3999H174.73V38.8999H173.26ZM178.09 38.8999V31.4499H183V32.4999H179.75V34.5999H182.48V35.5999H179.75V37.9999H183.21V38.9999H178.21L178.09 38.8999ZM184.38 31.3499H186V38.7899H184.43L184.38 31.3499ZM124.55 49.4899H126.86L125.7 46.5499L124.55 49.4899ZM122.24 52.4899L125.18 45.0399H126.75L129.69 52.4899H128.12L127.38 50.4899H124.24L123.5 52.4899H122.24ZM130.63 52.4899V45.0799H132.73L134.51 50.3299L136.4 45.0799H138.18V52.5299H136.71V46.8699L134.93 51.9999H133.67L131.89 46.7499V52.5199L130.63 52.4899ZM139.76 51.1299C140.165 51.303 140.583 51.4434 141.01 51.5499C141.33 51.5499 141.54 51.6499 141.85 51.6499C142.029 51.671 142.21 51.6543 142.383 51.6009C142.555 51.5475 142.714 51.4586 142.85 51.3399C142.95 51.2446 143.029 51.1297 143.082 51.0024C143.136 50.875 143.162 50.738 143.16 50.5999C143.16 50.4059 143.084 50.2196 142.95 50.0799C142.735 49.7948 142.444 49.5764 142.11 49.4499L141.59 49.1299C140.987 48.9029 140.461 48.5114 140.07 47.9999C139.822 47.6648 139.677 47.2656 139.65 46.8499C139.652 46.5753 139.708 46.3037 139.816 46.0513C139.925 45.7988 140.082 45.5706 140.28 45.3799C140.537 45.1544 140.837 44.9825 141.161 44.8743C141.486 44.7661 141.829 44.7238 142.17 44.7499C142.84 44.7751 143.509 44.8452 144.17 44.9599V46.1099C143.575 45.8435 142.932 45.7006 142.28 45.6899C141.986 45.6853 141.697 45.7577 141.44 45.8999C141.341 45.9717 141.261 46.0666 141.207 46.1764C141.152 46.2862 141.126 46.4076 141.13 46.5299C141.151 46.7222 141.224 46.9052 141.34 47.0599C141.44 47.1599 141.76 47.3699 142.18 47.6899L142.7 47.9999C143.307 48.2588 143.847 48.652 144.28 49.1499C144.492 49.4991 144.599 49.9016 144.59 50.3099C144.602 50.6108 144.542 50.9103 144.415 51.1834C144.288 51.4565 144.098 51.6953 143.86 51.8799C143.224 52.3512 142.439 52.5751 141.65 52.5099C140.949 52.4843 140.251 52.4141 139.56 52.2999V51.1699L139.76 51.1299ZM147.41 52.4899V45.9999H144.68V44.9999H151.61V45.9999H148.88V52.4999L147.41 52.4899ZM152.24 52.4899V45.0799H157.06V46.1299H153.81V48.2299H156.54V49.2799H153.81V51.4799H157.27V52.5299L152.24 52.4899ZM159.89 48.3999H160.21C160.453 48.4278 160.7 48.4049 160.934 48.3326C161.168 48.2603 161.385 48.1402 161.57 47.9799C161.795 47.712 161.941 47.3864 161.99 47.0399C161.991 46.9011 161.963 46.7636 161.908 46.6362C161.853 46.5088 161.772 46.3943 161.67 46.2999C161.305 46.0468 160.86 45.9365 160.42 45.9899H159.89V48.3999ZM158.42 52.4899V45.0799H161.25C161.714 45.0842 162.175 45.1549 162.62 45.2899C162.927 45.4119 163.184 45.6338 163.35 45.9199C163.518 46.2066 163.591 46.539 163.56 46.8699C163.567 47.3255 163.419 47.77 163.14 48.1299C162.91 48.5381 162.561 48.8662 162.14 49.0699L164.56 52.5299H162.67L160.78 49.5299H159.94V52.5299L158.42 52.4899ZM166.92 51.4399H168.07C168.544 51.476 169.018 51.3679 169.43 51.1299C169.795 50.9028 170.059 50.5452 170.17 50.1299C170.383 49.6731 170.489 49.1738 170.48 48.6699C170.502 48.1937 170.394 47.7204 170.17 47.2999C170.013 46.9253 169.757 46.6004 169.43 46.3599C168.914 46.0992 168.335 45.9883 167.76 46.0399H166.81V51.3899L166.92 51.4399ZM165.34 52.4899V45.0799H168.59C169.283 45.0232 169.978 45.1691 170.59 45.4999C171.074 45.8154 171.47 46.249 171.74 46.7599C172.063 47.3747 172.208 48.0672 172.16 48.7599C172.187 49.451 172.043 50.1381 171.74 50.7599C171.506 51.3212 171.105 51.7964 170.59 52.1199C169.95 52.4816 169.225 52.6647 168.49 52.6499H165.34V52.4899ZM174.68 49.4899H177L175.85 46.5499L174.68 49.4899ZM172.37 52.4899L175.31 45.0399H176.88L179.82 52.4899H178.24L177.51 50.4899H174.36L173.52 52.4899H172.37ZM180.55 52.4899V45.0799H182.65L184.43 50.3299L186.32 45.0799H188.1V52.5299H186.63V46.8699L184.85 51.9999H183.59L181.81 46.7499V52.5199L180.55 52.4899ZM114.9 17.7099C115.43 17.7099 115.9 17.7099 115.74 18.4499C115.74 18.9699 115.53 19.1799 114.74 19.3899C112.23 19.8099 111.18 20.3399 107.4 21.9099C108.761 21.461 110.171 21.179 111.6 21.0699C112.02 21.0699 112.23 21.0699 112.23 21.4899C112.239 21.7091 112.169 21.9242 112.033 22.0966C111.898 22.269 111.705 22.3872 111.49 22.4299C109.29 23.1699 106.35 24.5299 103.63 25.6799C105.184 25.1546 106.81 24.8746 108.45 24.8499C108.87 24.7399 109.39 24.7399 109.18 25.4699C108.97 26.1999 108.87 26.3099 107.82 26.6299C103.894 27.6059 100.107 29.0742 96.5498 30.9999C99.8266 30.0365 103.208 29.4724 106.62 29.3199C107.62 29.3199 108.09 29.3199 107.98 29.9499C107.87 30.5799 107.88 30.7899 106.98 30.9999C103.715 31.7699 100.494 32.7146 97.3298 33.8299C98.4674 33.5939 99.6284 33.4899 100.79 33.5199C101.42 33.6199 101.79 33.7299 101.63 34.2499C101.47 34.7699 101.11 35.1999 100.38 35.2499C98.1207 35.4423 95.8975 35.9367 93.7698 36.7199C94.3998 36.7199 94.3998 37.1399 94.0798 37.4499C93.9442 37.665 93.7591 37.8445 93.5398 37.9732C93.3206 38.102 93.0737 38.1763 92.8198 38.1899C91.29 38.1227 89.7703 38.4681 88.4198 39.1899C87.5798 39.8199 87.1598 38.3499 87.5798 37.8199C88.7298 36.5699 92.1998 34.6799 93.9798 33.4199C90.5198 35.0999 87.2698 36.5699 84.2298 39.4199C83.1798 40.3599 82.6498 39.9399 82.5498 39.5199C82.4498 39.0999 82.4398 38.6799 81.9198 38.9999C81.4254 39.2735 80.9683 39.6096 80.5598 39.9999L79.7198 40.8299L75.3098 44.8299V43.9999L78.7698 40.8499V39.9999L76.7698 41.7799V40.8399L79.7098 38.2099V35.6499L82.1198 35.4399L80.2298 34.6999C80.5546 34.4166 80.9764 34.2699 81.4069 34.2904C81.8374 34.3109 82.2434 34.497 82.5398 34.8099C82.5716 34.5707 82.5382 34.3274 82.4431 34.1056C82.3481 33.8839 82.1949 33.6919 81.9998 33.5499C81.614 33.3441 81.1715 33.2703 80.7398 33.3399C80.4311 33.0694 80.0297 32.9287 79.6197 32.9474C79.2096 32.966 78.8227 33.1425 78.5398 33.4399C78.1257 32.9069 77.5257 32.5498 76.8598 32.4399L77.5698 33.9999L76.3098 33.6799L77.2498 34.9399C76.4965 36.1035 75.9328 37.3794 75.5798 38.7199C75.298 39.8855 75.157 41.0807 75.1598 42.2799V42.5999C73.5642 38.888 72.7408 34.8902 72.7398 30.8499C72.7452 26.5303 73.7155 22.2665 75.5798 18.3699C77.3503 14.5337 79.9252 11.1233 83.1298 8.3699C83.7081 7.70177 84.4751 7.22419 85.3298 6.99991C85.5359 6.97556 85.7439 7.02568 85.9162 7.1412C86.0886 7.25672 86.214 7.43005 86.2698 7.62991C86.5898 8.62991 86.4798 8.7799 86.2698 9.1999C85.6398 10.1999 83.7598 12.3499 82.8098 15.0699C83.7667 13.8931 84.835 12.8114 85.9998 11.8399C86.3098 11.5299 86.8398 11.2099 87.0498 11.8399C87.2598 12.4699 87.3598 12.6799 86.9398 13.3099C85.5783 14.8953 84.3852 16.6179 83.3798 18.4499C83.8156 17.8815 84.3045 17.3558 84.8398 16.8799C85.1598 16.5599 85.4698 16.1399 85.8398 16.7699C86.2098 17.3999 86.0498 17.4999 85.8398 18.0299C85.6298 18.5599 84.0598 21.0299 82.9098 23.2699C83.7498 22.3299 83.8498 22.1199 84.2698 21.9099C84.4798 21.7999 84.6898 21.9099 84.7898 22.2199C84.8871 22.3777 84.9387 22.5595 84.9387 22.7449C84.9387 22.9303 84.8871 23.1121 84.7898 23.2699C83.7898 25.4699 83.1198 25.7899 81.9598 29.6699C82.9598 28.5199 82.9598 28.4099 83.4298 27.8899C83.7498 27.6799 84.1698 27.2599 84.4298 27.8899C84.5567 28.091 84.6322 28.3202 84.6497 28.5574C84.6671 28.7946 84.6259 29.0324 84.5298 29.2499C84.0098 30.5099 83.9098 30.7199 82.8598 32.9199C83.1698 32.8199 83.2798 32.9199 83.4898 33.2299C84.2782 32.2798 85.116 31.3719 85.9998 30.5099C88.8201 27.5182 91.9895 24.8759 95.4398 22.6399C98.858 20.3018 102.515 18.3341 106.35 16.7699C107.299 16.4032 108.28 16.1221 109.28 15.9299C109.81 15.8299 110.28 15.9299 110.28 16.3499C110.28 16.7699 110.17 17.0799 109.96 17.1899C109.23 17.6099 108.7 17.8199 106.82 18.7599C109.435 17.9748 112.161 17.6202 114.89 17.7099M78.1998 30.2999C78.6037 28.7751 79.1668 27.297 79.8798 25.8899C78.9834 27.0303 78.2745 28.3063 77.7798 29.6699C77.9898 29.7699 78.0898 29.9799 78.1998 30.2999ZM74.8398 29.2499C75.9998 25.2499 78.0898 18.0299 81.5498 12.8899C77.6777 17.5197 75.3338 23.2346 74.8398 29.2499ZM87.9998 31.4499C90.9398 29.1399 100.17 22.8499 106.88 20.4499C98.8798 22.4499 92.6198 27.0599 87.9998 31.4499ZM97.2298 42.1499C96.999 41.5618 96.5786 41.0674 96.0353 40.745C95.4919 40.4226 94.8566 40.2906 94.2298 40.3699C94.1297 40.1089 93.9613 39.8796 93.7421 39.7059C93.523 39.5323 93.2613 39.4207 92.9843 39.3829C92.7073 39.3451 92.4252 39.3824 92.1676 39.4909C91.91 39.5995 91.6862 39.7753 91.5198 39.9999C91.8517 40.3473 92.2931 40.5698 92.7698 40.6299V40.9999C91.8298 40.9999 91.5198 40.5899 90.8898 39.8499C90.5698 42.1599 93.2998 42.9999 94.1398 41.1099C95.3998 41.1099 96.2398 41.6299 96.4498 42.4699C96.5802 42.8246 96.6099 43.2085 96.5358 43.5791C96.4617 43.9497 96.2866 44.2926 96.0298 44.5699C95.6342 44.9984 95.0956 45.2674 94.5154 45.3263C93.9352 45.3853 93.3535 45.2301 92.8798 44.8899C92.0623 44.4466 91.3469 43.8368 90.7798 43.0999C90.1949 42.3153 89.4436 41.6698 88.5798 41.2099C88.2241 41.0229 87.8313 40.917 87.4298 40.8999C87.2198 40.8999 87.0098 40.7999 86.6898 40.7999C86.4749 40.7839 86.2592 40.8182 86.0598 40.8999C84.3898 41.1099 82.7098 41.8999 80.7098 42.0499H79.7098C79.144 42.6105 78.5463 43.138 77.9198 43.6299L76.6598 44.6799C76.4043 44.9463 76.1266 45.1905 75.8298 45.4099C75.9298 46.6699 76.0398 47.2999 76.0398 48.3499V49.9999C76.0291 50.3592 75.9581 50.7141 75.8298 51.0499C75.7881 51.2109 75.6911 51.3522 75.5559 51.4491C75.4207 51.5459 75.2557 51.5923 75.0898 51.5799C74.7798 51.6799 73.9398 51.0499 73.6198 51.4699C73.5384 51.6875 73.5254 51.9248 73.5826 52.15C73.6398 52.3752 73.7644 52.5775 73.9398 52.7299H76.2498C76.4549 52.3237 76.6288 51.9025 76.7698 51.4699C76.9217 51.1452 77.0954 50.8311 77.2898 50.5299C77.4751 50.2353 77.6166 49.9153 77.7098 49.5799C77.719 49.3231 77.7911 49.0724 77.9198 48.8499L78.4498 47.8499C78.4498 47.7499 78.5498 47.7499 78.5498 47.6399C78.6598 47.7499 78.7598 47.9599 78.8698 48.0599C79.2629 48.8244 79.8853 49.4468 80.6498 49.8399C80.8868 49.9345 81.1014 50.0775 81.2798 50.2599C81.3781 50.4934 81.4126 50.7487 81.3798 50.9999C81.4002 51.1509 81.3701 51.3044 81.2941 51.4364C81.2181 51.5685 81.1006 51.6717 80.9598 51.7299C80.4398 51.9399 79.5998 51.2099 79.3898 51.6299C79.1798 52.0499 79.3898 52.4699 79.7098 52.8899H81.7998C82.2985 52.0109 82.541 51.0097 82.4998 49.9999C82.4998 49.0599 82.4998 48.8499 81.8698 48.5399C81.6005 48.2646 81.4165 47.9173 81.3398 47.5399V47.2199C82.5062 46.7928 83.6018 46.1928 84.5898 45.4399V45.9599C84.7998 47.3299 84.9098 48.4799 85.9598 49.4199C86.2698 49.7399 86.4798 49.9499 86.4798 50.1599C86.4501 50.4283 86.3423 50.6821 86.1698 50.8899C86.0729 51.1316 85.9135 51.3433 85.7079 51.5032C85.5023 51.6631 85.258 51.7655 84.9998 51.7999C84.4798 51.8999 83.9998 51.1699 83.5398 51.5899C83.0798 52.0099 83.6398 52.5899 83.8498 52.8499H85.9998C86.7298 51.5899 87.6798 50.5399 87.9998 49.7999C88.2098 49.2799 88.2098 49.0699 87.7898 48.9599C87.0598 48.5499 87.1598 47.7099 87.3698 46.7599C87.3698 46.5499 87.4798 46.4499 87.5798 46.2399C88.1098 47.7099 88.8398 49.0699 90.4098 49.4899C90.6838 49.5091 90.9439 49.6181 91.1498 49.7999V50.4299C91.0709 50.9282 90.8066 51.3783 90.4098 51.6899C89.9898 52.0099 89.0498 50.9599 88.7298 51.5899C88.6644 51.8056 88.6548 52.0344 88.702 52.2548C88.7492 52.4752 88.8517 52.68 88.9998 52.8499H91.0998C91.5844 51.7893 92.0052 50.7007 92.3598 49.5899C92.4598 48.6499 92.4598 48.2299 91.7298 48.1299C91.5208 48.1409 91.3158 48.0696 91.1588 47.9313C91.0018 47.793 90.9052 47.5986 90.8898 47.3899C90.5698 46.4499 90.6798 44.7699 89.8898 43.7199C90.5807 44.5431 91.3974 45.2519 92.3098 45.8199C94.0898 46.7599 95.9798 46.4499 96.8098 45.1899C97.2499 44.2541 97.3626 43.1975 97.1298 42.1899M79.9998 33.6499C79.9916 33.696 79.9935 33.7433 80.0056 33.7885C80.0176 33.8337 80.0394 33.8758 80.0694 33.9116C80.0994 33.9475 80.137 33.9764 80.1794 33.9962C80.2218 34.016 80.268 34.0263 80.3148 34.0263C80.3616 34.0263 80.4078 34.016 80.4502 33.9962C80.4926 33.9764 80.5302 33.9475 80.5602 33.9116C80.5902 33.8758 80.612 33.8337 80.6241 33.7885C80.6361 33.7433 80.638 33.696 80.6298 33.6499C80.625 33.5692 80.5909 33.4931 80.5337 33.436C80.4766 33.3788 80.4005 33.3447 80.3198 33.3399C80.2381 33.3444 80.1607 33.3782 80.102 33.4352C80.0432 33.4921 80.0069 33.5684 79.9998 33.6499ZM75.2598 43.9999V44.9999L75.5798 44.7899C75.4698 44.5799 75.4698 44.2699 75.3698 44.0599L75.2598 43.9999ZM37.8198 38.9999C37.8198 43.0899 38.4498 45.9999 39.6098 47.8099C40.8083 49.6584 42.5223 51.1151 44.5398 51.9999C46.9024 52.9763 49.4445 53.4431 51.9998 53.3699C54.5258 53.4371 57.0345 52.9347 59.3398 51.8999C61.164 50.9309 62.6888 49.4821 63.7498 47.7099C64.7498 45.9199 65.3198 43.0899 65.3198 38.9999V17.6099H58.9998V39.5299C58.9998 43.0899 58.3698 45.5299 57.2098 46.7599C56.5661 47.3995 55.7961 47.8979 54.949 48.2233C54.1018 48.5487 53.1962 48.694 52.2898 48.6499C50.3946 48.7204 48.5479 48.0414 47.1498 46.7599C45.7798 45.4999 45.1498 42.8799 45.1498 38.9999V17.6099H37.9298V38.9999H37.8198ZM13.8198 52.5299L0.799805 17.6099H8.5698L18.6298 44.6699L28.3898 17.6099H33.6298L20.9998 52.5299H13.8198Z" fill="#F8FBF8"/>
</g>
</svg>
