<svg width="195" height="61" viewBox="0 0 195 61" fill="none" xmlns="http://www.w3.org/2000/svg">
<mask id="mask0_537_12054" style="mask-type:luminance" maskUnits="userSpaceOnUse" x="0" y="0" width="195" height="61">
<path d="M194.36 0H0V61H194.36V0Z" fill="white"/>
</mask>
<g mask="url(#mask0_537_12054)">
<path d="M42.4198 39V15.2H12.1398V39L10.8898 39.0999C8.1868 39.2854 5.49608 39.6192 2.82976 40.0999C2.82976 40.0999 2.28976 40.5599 2.21976 40.5999C1.60976 41.0199 2.21976 41.1699 2.64976 41.3699C2.80976 41.4499 2.81976 41.4999 2.75976 41.6699C2.69976 41.8399 2.33976 41.8799 2.40976 42.0999C2.56976 42.5799 3.24976 42.1 3.20976 42.75C3.16976 43.4 1.49976 43.07 1.33976 43.75C1.17976 44.43 1.94976 43.75 1.93976 44.84C1.92976 45.93 2.68976 46.9299 4.82976 47.4599C5.33976 47.5799 7.71976 47.54 6.49976 48.25C6.23405 48.3106 5.9623 48.3408 5.68976 48.34C5.45976 48.34 4.91976 48.3399 4.76976 48.5499C4.61976 48.7599 5.02976 48.8799 4.95976 49.1899C4.67976 49.1899 4.07976 49.1899 4.33976 49.6899C4.44252 49.808 4.57039 49.9016 4.714 49.9639C4.85761 50.0262 5.01333 50.0556 5.16976 50.0499C5.69021 49.9679 6.2222 49.9986 6.72976 50.1399C5.97976 50.2799 5.30976 51.0499 8.10976 50.9799C8.16976 51.3999 8.91976 51.3599 9.17976 51.2999C26.5998 47.4399 34.1798 49.09 34.1798 48.02C33.9298 47.49 31.4798 47.5499 31.0698 47.5299C29.4798 47.4499 26.0698 47.6199 26.2898 47.2099C26.3798 46.2099 44.0298 46.5 41.9598 47.09C41.8698 47.09 40.6298 47.32 40.4798 47.4C39.4798 47.92 43.1798 48.0199 43.5598 48.0499C43.9398 48.0799 45.0998 48.0499 44.8998 48.5299C44.8398 48.6799 43.5298 48.5299 43.5798 48.7299C43.6298 48.9299 44.3698 48.81 44.4398 48.93C44.9798 49.77 37.9498 49.35 34.3198 49.43C33.2498 49.43 31.1698 49.57 30.0798 49.72C28.2498 49.96 29.8098 50.39 32.6698 50.66C34.1998 50.8 42.0698 51.43 48.7598 52.31C50.7598 52.67 51.3698 51.6899 50.9098 51.4199C50.6598 51.2699 51.7598 50.71 50.5298 50.18C49.7498 49.85 50.3898 49.7099 50.4398 49.7299C50.4898 49.7499 52.1398 50.14 51.5498 49.61C51.1698 49.26 51.8098 49.4699 51.9298 49.4599C53.4098 49.3499 53.0698 48.79 53.1598 48.88C52.7198 48.44 53.9098 48.1299 53.6298 47.1699C53.5498 46.8799 51.8498 46.9399 52.9698 46.7099C53.0898 46.7099 54.6498 46.7099 53.2098 45.8699C52.8508 45.7104 52.4699 45.6059 52.0798 45.56C51.0098 45.32 51.8098 44.7799 52.3398 44.8699C52.8698 44.9599 53.6498 44.5499 53.5398 43.8699C53.3998 43.0099 53.1098 41.7899 53.9898 41.6199C54.5198 41.1199 52.7898 40.54 52.7898 40.54C52.7898 40.54 50.9398 39.69 43.5798 39.09L42.4198 39ZM22.9298 38.7V26.08H31.6298V38.7099C29.3998 38.6599 25.7498 38.7099 22.9298 38.7099M32.7898 41.6199V24.92H21.7898V41.6199H13.2998V16.36H41.2998V41.6199H32.7898Z" fill="#F8FBF8"/>
<path d="M73.7196 19L70.3196 28.35H68.9996L66.5396 21.7C65.7396 23.89 64.8896 26.17 64.1096 28.34H62.7696L59.3696 19H61.1796L63.4496 25.17L65.7096 19H67.3796L69.6396 25.17L71.8996 19H73.7196Z" fill="#F8FBF8"/>
<path d="M100.78 21.52H99.0597V20.79C99.0608 20.7706 99.0555 20.7512 99.0447 20.735C99.0339 20.7188 99.0181 20.7065 98.9997 20.7H93.2397C93.2158 20.7 93.1929 20.7095 93.176 20.7264C93.1592 20.7433 93.1497 20.7662 93.1497 20.79V26.54C93.1497 26.5639 93.1592 26.5868 93.176 26.6037C93.1929 26.6205 93.2158 26.63 93.2397 26.63H98.9997C99.0236 26.63 99.0464 26.6205 99.0633 26.6037C99.0802 26.5868 99.0897 26.5639 99.0897 26.54V24.77H96.9397V23.05H100.78V26.54C100.78 27.014 100.593 27.4688 100.26 27.8058C99.9263 28.1428 99.4736 28.3348 98.9997 28.34H93.2397C93.0025 28.3413 92.7673 28.2958 92.5478 28.2059C92.3282 28.116 92.1286 27.9836 91.9604 27.8164C91.7922 27.6491 91.6587 27.4502 91.5677 27.2312C91.4766 27.0121 91.4297 26.7773 91.4297 26.54V20.79C91.431 20.5536 91.4789 20.3198 91.5705 20.102C91.6622 19.8841 91.7959 19.6864 91.964 19.5202C92.132 19.3539 92.3312 19.2225 92.5501 19.1332C92.769 19.044 93.0033 18.9987 93.2397 19H98.9997C99.2369 18.9987 99.472 19.0443 99.6916 19.1342C99.9111 19.224 100.111 19.3564 100.279 19.5237C100.447 19.691 100.581 19.8898 100.672 20.1089C100.763 20.3279 100.81 20.5628 100.81 20.8L100.78 21.52Z" fill="#F8FBF8"/>
<path d="M114.86 20.7H107.99V22.81H113.53V24.52H107.99V26.63H114.86V28.34H106.26V18.99H114.86V20.7Z" fill="#F8FBF8"/>
<path d="M127.66 18.99H129.38V28.34H127.52L121.75 21.48V28.34H120.03V18.99H121.9L127.66 25.85V18.99Z" fill="#F8FBF8"/>
<path d="M136.14 18.99H134.43V28.34H136.14V18.99Z" fill="#F8FBF8"/>
<path d="M149.05 18.99H150.78V28.34H148.91L143.14 21.48V28.34H141.43V18.99H143.3L149.05 25.85V18.99Z" fill="#F8FBF8"/>
<path d="M165.23 21.52H163.51V20.79C163.51 20.7661 163.5 20.7433 163.484 20.7264C163.467 20.7095 163.444 20.7 163.42 20.7H157.69C157.666 20.7 157.643 20.7095 157.626 20.7264C157.609 20.7433 157.6 20.7661 157.6 20.79V26.54C157.6 26.5639 157.609 26.5868 157.626 26.6037C157.643 26.6205 157.666 26.63 157.69 26.63H163.42C163.444 26.63 163.467 26.6205 163.484 26.6037C163.5 26.5868 163.51 26.5639 163.51 26.54V24.77H161.39V23.05H165.23V26.54C165.23 26.7772 165.183 27.0121 165.092 27.2312C165.001 27.4502 164.867 27.6491 164.699 27.8164C164.531 27.9836 164.331 28.116 164.112 28.2059C163.892 28.2958 163.657 28.3413 163.42 28.34H157.69C157.453 28.3413 157.218 28.2958 156.998 28.2059C156.778 28.116 156.579 27.9836 156.411 27.8164C156.242 27.6491 156.109 27.4502 156.018 27.2312C155.927 27.0121 155.88 26.7772 155.88 26.54V20.79C155.88 20.5528 155.927 20.3179 156.018 20.0989C156.109 19.8798 156.242 19.681 156.411 19.5137C156.579 19.3464 156.778 19.214 156.998 19.1242C157.218 19.0343 157.453 18.9887 157.69 18.99H163.42C163.657 18.9887 163.892 19.0343 164.112 19.1242C164.331 19.214 164.531 19.3464 164.699 19.5137C164.867 19.681 165.001 19.8798 165.092 20.0989C165.183 20.3179 165.23 20.5528 165.23 20.79V21.52Z" fill="#F8FBF8"/>
<path d="M179.14 20.7H172.27V22.81H177.81V24.52H172.27V26.63H179.14V28.34H170.54V18.99H179.14V20.7Z" fill="#F8FBF8"/>
<path d="M191.78 18.99H193.5V28.34H191.63L185.87 21.48V28.34H184.15V18.99H186.02L191.78 25.85V18.99Z" fill="#F8FBF8"/>
<path d="M85.0497 20.79C84.6797 19.69 84.2497 18.99 83.2497 18.99H80.4297C79.4297 18.99 78.9997 19.69 78.6197 20.79L75.9097 28.34H77.6897L78.8197 25.2H84.8797L85.9997 28.34H87.7297L85.0497 20.79ZM79.3997 23.48L80.3397 20.79C80.3397 20.73 80.3397 20.7 80.4297 20.7H83.2697C83.2697 20.7 83.3297 20.7 83.3597 20.79L84.2997 23.48H79.3997Z" fill="#F8FBF8"/>
<path d="M64.72 35.71H65.55V40.25C65.55 40.5152 65.4446 40.7695 65.2571 40.9571C65.0696 41.1446 64.8152 41.25 64.55 41.25H61C60.7348 41.25 60.4804 41.1446 60.2929 40.9571C60.1054 40.7695 60 40.5152 60 40.25V35.71H60.83V40.25C60.8324 40.2943 60.8511 40.3361 60.8825 40.3675C60.9138 40.3989 60.9557 40.4176 61 40.42H64.54C64.5843 40.4176 64.6262 40.3989 64.6575 40.3675C64.6889 40.3361 64.7076 40.2943 64.71 40.25L64.72 35.71Z" fill="#F8FBF8"/>
<path d="M72.2999 35.71H73.1298V41.25H72.1498L68.4198 36.82V41.25H67.5898V35.71H68.5798L72.2999 40.14V35.71Z" fill="#F8FBF8"/>
<path d="M76.0297 35.71H75.1997V41.24H76.0297V35.71Z" fill="#F8FBF8"/>
<path d="M83.2297 35.71H84.1797L80.9897 41.25H80.1597L76.9697 35.71H77.9297L80.5797 40.31L83.2297 35.71Z" fill="#F8FBF8"/>
<path d="M90.0199 36.54H85.7699V38.06H89.1899V38.9H85.7699V40.42H90.0199V41.25H84.9399V35.71H90.0199V36.54Z" fill="#F8FBF8"/>
<path d="M97.55 38.27C97.55 38.5352 97.4446 38.7895 97.2571 38.9771C97.0696 39.1646 96.8152 39.27 96.55 39.27H96L97.56 41.13V41.25H96.56L94.9 39.25H92.84V41.25H92V35.72H96.54C96.8052 35.72 97.0596 35.8253 97.2471 36.0129C97.4346 36.2004 97.54 36.4548 97.54 36.72L97.55 38.27ZM92.84 36.55V38.44H96.55C96.5951 38.44 96.6383 38.4221 96.6702 38.3902C96.7021 38.3583 96.72 38.3151 96.72 38.27V36.72C96.7176 36.6757 96.6989 36.6338 96.6675 36.6024C96.6362 36.5711 96.5943 36.5524 96.55 36.55H92.84Z" fill="#F8FBF8"/>
<path d="M142.64 38.27C142.64 38.5352 142.534 38.7895 142.347 38.9771C142.159 39.1646 141.905 39.27 141.64 39.27H141.08L142.64 41.13V41.25H141.64L139.98 39.25H137.92V41.25H137.09V35.72H141.62C141.885 35.72 142.139 35.8253 142.327 36.0129C142.514 36.2004 142.62 36.4548 142.62 36.72L142.64 38.27ZM137.94 36.55V38.44H141.64C141.685 38.44 141.728 38.4221 141.76 38.3902C141.792 38.3583 141.81 38.3151 141.81 38.27V36.72C141.807 36.6757 141.789 36.6338 141.757 36.6024C141.726 36.5711 141.684 36.5524 141.64 36.55H137.94Z" fill="#F8FBF8"/>
<path d="M178.82 38.27C178.82 38.5352 178.714 38.7895 178.527 38.9771C178.339 39.1646 178.085 39.27 177.82 39.27H177.26L178.82 41.13V41.25H177.82L176.15 39.25H174.15V41.25H173.32V35.72H177.85C178.115 35.72 178.369 35.8253 178.557 36.0129C178.744 36.2004 178.85 36.4548 178.85 36.72L178.82 38.27ZM174.12 36.55V38.44H177.82C177.865 38.44 177.908 38.4221 177.94 38.3902C177.972 38.3583 177.99 38.3151 177.99 38.27V36.72C177.987 36.6757 177.969 36.6338 177.937 36.6024C177.906 36.5711 177.864 36.5524 177.82 36.55H174.12Z" fill="#F8FBF8"/>
<path d="M105.06 37H104.23V36.67C104.227 36.6257 104.209 36.5838 104.177 36.5524C104.146 36.521 104.104 36.5024 104.06 36.5H100.52C100.476 36.5025 100.436 36.5215 100.406 36.5532C100.376 36.5848 100.36 36.6266 100.36 36.67V37.9C100.36 37.9424 100.377 37.9831 100.407 38.0131C100.437 38.0431 100.477 38.06 100.52 38.06H104.06C104.325 38.06 104.579 38.1653 104.767 38.3529C104.954 38.5404 105.06 38.7947 105.06 39.06V40.24C105.06 40.5052 104.954 40.7595 104.767 40.9471C104.579 41.1346 104.325 41.24 104.06 41.24H100.52C100.255 41.24 100 41.1346 99.8127 40.9471C99.6251 40.7595 99.5198 40.5052 99.5198 40.24V39.92H100.35V40.24C100.35 40.2834 100.366 40.3252 100.396 40.3568C100.426 40.3884 100.466 40.4074 100.51 40.41H104.05C104.094 40.4076 104.136 40.3889 104.167 40.3575C104.199 40.3261 104.217 40.2843 104.22 40.24V39.07C104.22 39.0249 104.202 38.9816 104.17 38.9498C104.138 38.9179 104.095 38.9 104.05 38.9H100.51C100.245 38.9 99.9902 38.7946 99.8027 38.6071C99.6151 38.4195 99.5098 38.1652 99.5098 37.9V36.71C99.5098 36.4447 99.6151 36.1904 99.8027 36.0029C99.9902 35.8153 100.245 35.71 100.51 35.71H104.05C104.315 35.71 104.569 35.8153 104.757 36.0029C104.944 36.1904 105.05 36.4447 105.05 36.71L105.06 37Z" fill="#F8FBF8"/>
<path d="M107.92 35.71H107.09V41.24H107.92V35.71Z" fill="#F8FBF8"/>
<path d="M114.82 35.71V36.54H112.47V41.25H111.64V36.54H109.29V35.71H114.82Z" fill="#F8FBF8"/>
<path d="M121.33 35.71L118.78 39.17V41.25H117.95V39.17L115.4 35.71H116.38L118.37 38.23L120.35 35.71H121.33Z" fill="#F8FBF8"/>
<path d="M149.75 36.54H145.5V38.06H148.92V38.9H145.5V40.42H149.75V41.25H144.68V35.71H149.75V36.54Z" fill="#F8FBF8"/>
<path d="M157 37H156.17V36.67C156.167 36.6257 156.149 36.5838 156.117 36.5524C156.086 36.521 156.044 36.5024 156 36.5H152.47C152.425 36.5 152.381 36.5179 152.35 36.5498C152.318 36.5816 152.3 36.6249 152.3 36.67V37.9C152.3 37.9218 152.304 37.9435 152.313 37.9636C152.321 37.9837 152.334 38.0018 152.35 38.0168C152.366 38.0318 152.385 38.0434 152.405 38.0508C152.426 38.0582 152.448 38.0613 152.47 38.06H156C156.265 38.06 156.519 38.1653 156.707 38.3529C156.894 38.5404 157 38.7947 157 39.06V40.24C157 40.5052 156.894 40.7595 156.707 40.9471C156.519 41.1346 156.265 41.24 156 41.24H152.47C152.205 41.24 151.95 41.1346 151.763 40.9471C151.575 40.7595 151.47 40.5052 151.47 40.24V39.92H152.3V40.24C152.3 40.2851 152.318 40.3283 152.35 40.3602C152.381 40.392 152.425 40.41 152.47 40.41H156C156.044 40.4076 156.086 40.3889 156.117 40.3575C156.149 40.3261 156.167 40.2843 156.17 40.24V39.07C156.17 39.0249 156.152 38.9816 156.12 38.9498C156.088 38.9179 156.045 38.9 156 38.9H152.47C152.205 38.9 151.95 38.7946 151.763 38.6071C151.575 38.4195 151.47 38.1652 151.47 37.9V36.71C151.47 36.4447 151.575 36.1904 151.763 36.0029C151.95 35.8153 152.205 35.71 152.47 35.71H156C156.265 35.71 156.519 35.8153 156.707 36.0029C156.894 36.1904 157 36.4447 157 36.71V37Z" fill="#F8FBF8"/>
<path d="M164.08 36.54H159.84V38.06H163.25V38.9H159.84V40.42H164.08V41.25H159.01V35.71H164.08V36.54Z" fill="#F8FBF8"/>
<path d="M169.39 35.71C169.95 35.71 170.27 36.14 170.48 36.71L172.09 41.25H171.22L170.49 39.31H166.65L165.94 41.25H165.11L166.78 36.71C167 36.09 167.23 35.71 167.78 35.71H169.39ZM170.25 38.48L169.56 36.71C169.56 36.61 169.49 36.54 169.39 36.54H167.78C167.69 36.54 167.66 36.59 167.61 36.71L167 38.48H170.25Z" fill="#F8FBF8"/>
<path d="M181.7 36.54C181.655 36.5424 181.614 36.561 181.582 36.5924C181.551 36.6238 181.532 36.6657 181.53 36.71V40.25C181.532 40.2943 181.551 40.3361 181.582 40.3675C181.614 40.3989 181.655 40.4176 181.7 40.42H186.22V41.25H181.7C181.434 41.25 181.18 41.1446 180.993 40.9571C180.805 40.7695 180.7 40.5152 180.7 40.25V36.71C180.7 36.4447 180.805 36.1904 180.993 36.0029C181.18 35.8153 181.434 35.71 181.7 35.71H186.22V36.54H181.7Z" fill="#F8FBF8"/>
<path d="M193.51 35.71V41.25H192.68V38.9H188.67V41.25H187.84V35.71H188.67V38.06H192.68V35.71H193.51Z" fill="#F8FBF8"/>
<path d="M132.06 40.4298L131.06 39.8198V38.2298H130.23V39.2998L127.23 37.3898C127.203 37.3753 127.18 37.3537 127.164 37.3273C127.148 37.3009 127.14 37.2707 127.14 37.2398V36.7298C127.142 36.6865 127.161 36.6458 127.193 36.616C127.225 36.5863 127.266 36.5698 127.31 36.5698H129.31C129.332 36.5685 129.354 36.5716 129.374 36.579C129.395 36.5865 129.414 36.598 129.43 36.613C129.445 36.628 129.458 36.6461 129.467 36.6662C129.475 36.6863 129.48 36.708 129.48 36.7298V37.0998H130.31V36.5598C130.269 36.3251 130.146 36.1124 129.963 35.9603C129.78 35.8081 129.548 35.7264 129.31 35.7298H127.31C127.045 35.7298 126.79 35.8352 126.603 36.0227C126.415 36.2103 126.31 36.4646 126.31 36.7298V37.3498C126.31 37.6298 126.47 37.7298 126.74 37.8898H126.59C126.03 37.8898 125.59 38.0498 125.59 38.6098V40.2598C125.59 40.5251 125.695 40.7794 125.883 40.9669C126.07 41.1545 126.325 41.2598 126.59 41.2598H130.12C130.324 41.2605 130.524 41.1986 130.692 41.0824C130.86 40.9661 130.988 40.8012 131.06 40.6098L132.06 41.2598V40.4298ZM130.25 40.2498C130.251 40.2725 130.248 40.2953 130.24 40.3166C130.232 40.3379 130.219 40.3572 130.203 40.3733C130.187 40.3894 130.168 40.4019 130.147 40.4099C130.125 40.4179 130.103 40.4213 130.08 40.4198H126.55C126.505 40.4198 126.462 40.4019 126.43 40.3701C126.398 40.3382 126.38 40.2949 126.38 40.2498V38.5998C126.375 38.5768 126.375 38.5529 126.38 38.5298C126.399 38.4968 126.427 38.4699 126.46 38.4522C126.494 38.4345 126.532 38.4267 126.57 38.4298H127.57L130.23 40.1098L130.25 40.2498Z" fill="#F8FBF8"/>
</g>
</svg>
