<svg width="195" height="61" viewBox="0 0 195 61" fill="none" xmlns="http://www.w3.org/2000/svg">
<mask id="mask0_537_12088" style="mask-type:luminance" maskUnits="userSpaceOnUse" x="0" y="0" width="195" height="61">
<path d="M194.36 0H0V61H194.36V0Z" fill="white"/>
</mask>
<g mask="url(#mask0_537_12088)">
<path d="M60.1499 55.4198C64.0299 55.4198 66.1499 52.8498 66.1499 49.2398V30.8098H74.3999V49.6498C74.3199 57.9398 67.6799 61.1898 60.1699 61.1898C52.6599 61.1898 45.9999 57.9398 45.9199 49.6498V30.8098H54.1699V49.2398C54.1699 52.8498 56.2699 55.4198 60.1699 55.4198" fill="#F8FBF8"/>
<path d="M24.5501 60.5799H32.8001V36.5899H42.0401V30.8099H15.3101V36.5899H24.5501V60.5799Z" fill="#F8FBF8"/>
<path d="M44.3601 16.3199C42.3601 16.9499 40.2801 16.4399 40.2801 13.7499C40.2801 9.64993 49.9201 6.20993 51.2801 2.62993C51.6101 1.73993 51.6301 0.999927 51.2101 1.01993C50.7901 1.03993 51.1401 1.48993 50.4701 2.15993C46.4701 6.15993 39.7901 6.15993 34.6601 8.43993C31.3001 9.94993 21.4401 14.5899 23.6601 24.9399C23.7701 25.4299 24.0601 27.0799 24.3601 27.0799C24.6601 27.0799 24.7101 26.0799 24.7001 24.9099C24.6401 18.7499 31.9401 16.9999 34.3101 12.9999C34.6001 12.5199 35.0901 11.8399 35.2001 12.1499C35.2447 12.4215 35.2206 12.7 35.1301 12.9599C34.3801 16.2699 30.9201 18.3899 31.9001 20.7499C33.1701 23.8199 36.8401 21.5299 37.9701 19.5599C38.2701 19.0199 38.4401 18.6699 38.6401 18.7399C38.8401 18.8099 38.7901 19.4199 38.6401 19.9799C38.0401 23.5399 37.2201 25.5399 34.6401 27.5599C33.8001 28.2099 32.4901 28.3499 32.6401 28.8399C32.6901 28.9699 33.2501 28.9599 33.7001 28.9099C40.6901 28.4799 46.4901 20.2999 48.0001 14.9999C48.1601 14.6199 48.2101 14.2699 48.0001 14.1399C47.7901 14.0099 47.4901 14.3399 47.1801 14.6199C46.3377 15.3805 45.3564 15.9713 44.2901 16.3599" fill="#F8FBF8"/>
<path d="M114.79 48.25C114.79 45.02 116.79 42.1 120.03 42.1C123.83 42.1 125.31 44.7 125.31 48.25H114.79ZM129.44 51V49C129.44 43.27 126.19 39.23 120.32 39.23C113.76 39.23 110.71 44.3 110.71 50.36C110.71 56.42 113.35 61.2 120 61.2C125 61.2 128.58 58.85 129.2 54.15H125.08C124.62 57.15 123.08 58.35 120.08 58.35C116.08 58.35 114.75 54.79 114.75 50.97L129.44 51Z" fill="#F8FBF8"/>
<path d="M138.11 30.8098H134.19V60.5798H138.11V30.8098Z" fill="#F8FBF8"/>
<path d="M150.39 60.5799V42.5799H155.17V39.8799H150.39V36.5399C150.39 34.1499 151.55 33.7399 153.78 33.7399C154.43 33.7399 155.1 33.8199 155.78 33.8599V30.6099C154.865 30.3648 153.926 30.2239 152.98 30.1899C149.27 30.1899 146.5 32.0499 146.5 36.0199V39.8799H142.5V42.6099H146.5V60.6099L150.39 60.5799Z" fill="#F8FBF8"/>
<path d="M157.43 39.88V42.61H161V55.8C161 58.55 161 61.2 166.86 61.2C167.759 61.1956 168.656 61.112 169.54 60.95V57.95C168.865 58.1113 168.174 58.1952 167.48 58.2C166.08 58.2 164.92 57.49 164.92 56.02V42.61H169.71V39.88H164.92V34.23L161 35.47V39.89L157.43 39.88Z" fill="#F8FBF8"/>
<path d="M82.6299 60.5798H92.8499C105.59 60.5798 106.92 49.7998 106.92 45.6998C106.92 41.5998 105.59 30.8098 92.8499 30.8098H82.6299V60.5798ZM86.7599 34.3598H92.8599C99.7399 34.3598 102.59 39.5498 102.59 45.6998C102.59 51.8498 99.7399 56.9998 92.8599 56.9998H86.7599V34.3598Z" fill="#F8FBF8"/>
</g>
</svg>
