<svg width="209" height="85" viewBox="0 0 209 85" fill="none" xmlns="http://www.w3.org/2000/svg">
<path d="M0.702637 0.796875H43.7026V84.7969H0.702637V0.796875Z" fill="white"/>
<path d="M22.902 66.3128H22.1986V64.169H22.902V66.3128ZM26.0713 56.848H25.3679V54.7042H26.0713V56.848ZM13.0464 53.1475C12.9898 53.1475 12.626 53.1475 12.626 53.2276C12.626 53.3076 12.7958 53.272 13.0464 53.3165C13.6123 53.4233 13.8306 53.7346 14.2268 53.7346C14.5825 53.7346 14.9545 53.4677 14.8089 52.8984C14.7847 52.8006 14.7362 52.8273 14.72 52.8895C14.6634 53.1475 14.3804 53.2898 14.0813 53.2898C13.7094 53.2898 13.6285 53.1475 13.0464 53.1475ZM9.16556 55.2913C9.23024 55.3892 9.89321 56.3321 8.8745 56.6968C8.82599 56.7146 8.81792 56.7591 8.8826 56.7946C9.6345 57.1416 9.99832 56.5011 9.99832 56.5011C10.3783 57.4529 9.79619 57.9866 9.79619 57.9866C9.87704 58.1556 10.2409 58.4492 10.7826 58.5826C10.9928 58.4581 11.2839 58.2268 11.4051 57.871C11.4051 57.871 11.5507 58.2891 11.4213 58.6894C12.9575 58.8406 13.4992 57.4885 14.6877 57.7376C14.72 57.7465 14.7362 57.7198 14.7362 57.6842C14.7362 56.848 14.2753 55.3269 12.8038 55.0155C11.3405 54.7042 11.7366 54.0459 11.7366 54.0459C12.3511 54.0192 12.7068 54.3128 12.7068 54.3128C12.82 54.1082 12.6583 53.8947 12.6583 53.8947C12.7149 53.8147 12.7473 53.5389 12.7473 53.5389C12.0519 53.5389 11.8741 53.3699 11.8741 53.3699C11.769 52.9162 12.0519 52.2757 13.0868 52.9607C13.3455 52.7116 13.3213 52.3202 13.3213 52.3202C13.4021 52.2757 13.4506 52.1423 13.4506 52.0889C13.4506 51.9021 12.626 51.3951 12.4158 51.3328C12.3673 51.0571 12.0439 50.6657 11.0737 50.808C10.6128 50.8703 10.2813 50.7368 10.4349 50.4433C10.4592 50.3899 10.3783 50.381 10.3379 50.4344C10.2328 50.55 10.0873 50.8791 10.4835 51.1015C10.9281 51.3506 10.9524 51.8399 10.9605 51.911C10.9686 52.0178 10.8554 52.0267 10.8311 51.9199C10.629 51.0926 9.59407 50.9147 8.98769 51.3506C9.02003 51.7954 9.45663 52.0889 9.6911 52.0889C9.82854 52.0889 10.0145 51.9377 10.0145 51.7331C10.0145 51.6353 10.063 51.6442 10.0873 51.7242C10.1843 52.0178 9.78811 52.6316 9.20599 52.2579C8.6077 52.9162 8.85026 53.7346 8.90685 54.0281C9.01196 54.5619 8.77748 55.0867 8.33281 54.8465C8.30855 54.8376 8.2843 54.8287 8.2843 54.8821C8.29238 55.2023 8.69663 55.5849 9.16556 55.2913ZM12.4724 51.9733C12.1894 52.3202 11.7366 52.2402 11.6234 51.6708C12.1975 51.6353 12.4481 51.6975 12.4724 51.9733ZM30.316 53.2898C30.0168 53.2898 29.7338 53.1475 29.6772 52.8895C29.6611 52.8273 29.6126 52.8006 29.5883 52.8984C29.4428 53.4677 29.8147 53.7346 30.1704 53.7346C30.5666 53.7346 30.7849 53.4233 31.3508 53.3165C31.6015 53.272 31.7713 53.3165 31.7713 53.2276C31.7713 53.1475 31.4074 53.1475 31.3508 53.1475C30.7606 53.1475 30.6879 53.2898 30.316 53.2898ZM36.0967 54.8643C36.0967 54.8109 36.0725 54.8198 36.0482 54.8287C35.6035 55.0689 35.3691 54.553 35.4742 54.0104C35.5308 53.7079 35.7733 52.8984 35.175 52.2402C34.5848 52.6138 34.1887 52 34.2938 51.7064C34.318 51.6264 34.3665 51.6175 34.3665 51.7153C34.3665 51.9199 34.5525 52.0711 34.6899 52.0711C34.9244 52.0711 35.361 51.7776 35.3933 51.3328C34.787 50.8969 33.7521 51.0749 33.55 51.9021C33.5257 52.0089 33.4125 52 33.4206 51.8932C33.4206 51.8221 33.4529 51.3328 33.8976 51.0837C34.3019 50.8614 34.1563 50.5322 34.0431 50.4166C34.0027 50.3721 33.9138 50.381 33.9461 50.4255C34.0997 50.719 33.7682 50.8525 33.3155 50.7902C32.3453 50.6479 32.03 51.0482 31.9734 51.315C31.7632 51.3773 30.9385 51.8843 30.9385 52.0711C30.9385 52.1245 30.987 52.2668 31.0679 52.3024C31.0679 52.3024 31.0517 52.6849 31.3023 52.9429C32.3291 52.2579 32.6202 52.8984 32.5151 53.3521C32.5151 53.3521 32.3291 53.5122 31.6338 53.5211C31.6338 53.5211 31.6661 53.7969 31.7227 53.8769C31.7227 53.8769 31.561 54.0993 31.6742 54.295C31.6742 54.295 32.03 54.0015 32.6444 54.0281C32.6444 54.0281 33.0406 54.6864 31.5772 54.9978C30.1138 55.3091 29.6449 56.8302 29.6449 57.6664C29.6449 57.7109 29.6611 57.7287 29.6934 57.7198C30.8819 57.4796 31.4236 58.8317 32.9597 58.6716C32.8223 58.2713 32.9759 57.8532 32.9759 57.8532C33.0972 58.209 33.3883 58.4492 33.5985 58.5648C34.1482 58.4314 34.504 58.1468 34.5848 57.9688C34.5848 57.9688 34.0027 57.444 34.3827 56.4833C34.3827 56.4833 34.7465 57.1238 35.4984 56.7768C35.5631 56.7413 35.5469 56.6968 35.5065 56.679C34.4878 56.3143 35.1508 55.3714 35.2155 55.2735C35.7006 55.5849 36.0967 55.2023 36.0967 54.8643ZM32.7657 51.6708C32.6525 52.2402 32.1998 52.3202 31.9168 51.9733C31.9491 51.6975 32.1917 51.6353 32.7657 51.6708ZM21.9237 42.1616C21.9237 42.3039 21.9803 42.4285 22.0207 42.4996C22.1097 42.6419 22.0935 42.722 22.0531 42.7665C22.0127 42.811 21.9399 42.8287 21.8105 42.7309C21.7205 42.6612 21.6133 42.624 21.5033 42.6242C21.285 42.6242 21.1718 42.7843 21.1718 42.9177C21.1718 43.0511 21.285 43.2113 21.5033 43.2113C21.6327 43.2113 21.7459 43.149 21.8105 43.1045C21.9399 43.0067 22.0127 43.0245 22.0531 43.0689C22.0935 43.1134 22.0369 43.6027 21.9803 43.9941C21.6165 44.083 21.4386 44.4032 21.4386 44.5901C21.4386 45.0793 21.9076 45.3551 22.1905 45.5241C22.4654 45.364 22.9424 45.0793 22.9424 44.5901C22.9424 44.4032 22.7646 44.0741 22.4007 43.9941C22.3522 43.6116 22.2875 43.1134 22.328 43.0689C22.3684 43.0245 22.4412 43.0067 22.5705 43.1045C22.6352 43.1579 22.7484 43.2113 22.8778 43.2113C23.0961 43.2113 23.2092 43.0511 23.2092 42.9177C23.2092 42.7843 23.0961 42.6242 22.8778 42.6242C22.7484 42.6242 22.6352 42.6864 22.5705 42.7309C22.4412 42.8287 22.3684 42.811 22.328 42.7665C22.2875 42.722 22.2714 42.6419 22.3603 42.4996C22.4088 42.4285 22.4573 42.3039 22.4573 42.1616C22.4573 41.9214 22.3118 41.7969 22.1905 41.7969C22.0693 41.7969 21.9237 41.9214 21.9237 42.1616ZM22.1986 45.7732C22.0915 45.7732 21.9867 45.8081 21.8976 45.8736C21.8085 45.9391 21.7391 46.0322 21.6982 46.1411C21.6572 46.2499 21.6464 46.3698 21.6673 46.4854C21.6882 46.6011 21.7398 46.7073 21.8155 46.7906C21.8913 46.874 21.9878 46.9307 22.0929 46.9537C22.198 46.9767 22.3069 46.9649 22.4059 46.9198C22.5049 46.8747 22.5894 46.7983 22.649 46.7002C22.7085 46.6023 22.7403 46.487 22.7403 46.3691C22.7388 46.2116 22.6813 46.0609 22.58 45.9495C22.4788 45.8381 22.3418 45.7748 22.1986 45.7732ZM22.1986 51.4751C24.3573 51.4751 25.5701 51.9288 25.5701 51.9288C25.5781 50.7279 25.5781 50.0608 26.2007 50.1586C25.8611 49.1534 27.3326 48.7531 27.3326 47.4455C27.3326 46.5826 26.7747 46.4848 26.613 46.4848C26.1279 46.4848 26.2007 46.8317 25.7884 46.8317C25.7398 46.8317 25.6832 46.8139 25.6832 46.8584C25.6832 47.0096 25.7964 47.2676 25.9905 47.2676C26.2492 47.2676 26.2492 46.9829 26.4432 46.9829C26.5241 46.9829 26.6454 47.0541 26.6454 47.3476C26.6454 47.9081 26.3139 48.5219 25.9177 49.0022C25.8288 48.8688 25.7075 48.7798 25.5539 48.7798C25.3194 48.7798 25.1173 49.0467 25.1173 49.3758C25.1173 49.5004 25.1335 49.5893 25.1739 49.6872C25.0445 49.7672 24.9233 49.8117 24.8424 49.8117C24.6645 49.8117 24.3977 49.7316 24.3977 49.3047C24.3977 48.3528 25.5539 47.5167 25.5539 46.3069C25.5539 45.7287 25.2062 45.1594 24.4705 45.1594C23.6863 45.1594 23.8318 45.9422 23.1526 45.9422C23.1203 45.9422 23.096 45.9511 23.096 45.9866C23.096 46.04 23.2173 46.4759 23.565 46.4759C23.9369 46.4759 24.042 45.7643 24.3816 45.7643C24.5028 45.7643 24.6888 45.8443 24.6888 46.3247C24.6888 46.6983 24.519 47.3121 24.2765 47.8903C24.1878 47.7872 24.0658 47.7265 23.9369 47.7213C23.6458 47.7213 23.4356 48.0326 23.4356 48.3973C23.4356 48.6286 23.5165 48.8599 23.662 49.0022C23.4922 49.2424 23.3143 49.4381 23.0799 49.4381C22.611 49.4381 22.4088 49.1445 22.4088 48.8243C22.4088 48.4774 22.9829 48.3528 22.9829 47.8191C22.9829 47.4544 22.7646 47.2498 22.5624 47.2498C22.3361 47.2498 22.2229 47.4099 22.1986 47.4099C22.1744 47.4099 22.0612 47.2498 21.8348 47.2498C21.6246 47.2498 21.4144 47.4544 21.4144 47.8191C21.4144 48.3528 21.9884 48.4863 21.9884 48.8243C21.9884 49.1445 21.7782 49.4381 21.3174 49.4381C21.0829 49.4381 20.905 49.2424 20.7352 49.0022C20.8808 48.851 20.9616 48.6286 20.9616 48.3973C20.9616 48.0237 20.7514 47.7213 20.4603 47.7213C20.3963 47.7229 20.3332 47.7387 20.2749 47.7678C20.2166 47.7968 20.1641 47.8385 20.1208 47.8903C19.8782 47.3032 19.7084 46.6983 19.7084 46.3247C19.7084 45.8443 19.8944 45.7643 20.0157 45.7643C20.3471 45.7643 20.4523 46.4759 20.8323 46.4759C21.1799 46.4759 21.3012 46.04 21.3012 45.9866C21.3012 45.96 21.2769 45.9422 21.2446 45.9422C20.5654 45.9422 20.711 45.1594 19.9267 45.1594C19.1991 45.1594 18.8433 45.7287 18.8433 46.3069C18.8433 47.5167 19.9995 48.3528 19.9995 49.3047C19.9995 49.7316 19.7327 49.8117 19.5548 49.8117C19.4659 49.8117 19.3527 49.7672 19.2233 49.6872C19.2638 49.5804 19.2799 49.5004 19.2799 49.3758C19.2799 49.0467 19.0778 48.7798 18.8433 48.7798C18.6978 48.7798 18.5765 48.8688 18.4876 49.0022C18.0914 48.5219 17.7599 47.9081 17.7599 47.3476C17.7599 47.063 17.8812 46.9829 17.9621 46.9829C18.148 46.9829 18.1561 47.2676 18.4148 47.2676C18.6089 47.2676 18.7221 47.0096 18.7221 46.8584C18.7221 46.8139 18.6655 46.8317 18.617 46.8317C18.2046 46.8317 18.2774 46.4848 17.7923 46.4848C17.6306 46.4848 17.0727 46.5826 17.0727 47.4455C17.0727 48.762 18.5442 49.1534 18.2046 50.1586C18.8272 50.0608 18.8191 50.7279 18.8353 51.9288C18.8191 51.9288 20.0399 51.4751 22.1986 51.4751ZM18.245 53.2453C17.6548 53.3877 17.2344 53.5211 17.0485 53.5834C17.0566 53.2987 17.1536 53.0319 17.388 52.9785C17.4204 52.9696 17.4285 52.9251 17.3961 52.9073C16.8706 52.5248 16.5957 53.2542 16.5876 53.2809C16.4017 53.2631 16.1187 53.3254 16.1187 53.6012C16.1187 54.4284 14.4047 54.8821 14.0085 54.9533C14.7119 55.2468 15.003 56.2253 15.003 56.2253C15.5123 55.6649 16.1025 55.1757 16.24 55.1757C16.3774 55.1757 16.4259 55.3625 16.434 55.4692C16.434 55.5048 16.4663 55.5137 16.4906 55.487C16.7574 55.0511 16.6281 54.9533 16.6038 54.8198C16.5876 54.722 16.6119 54.3395 17 54.384V59.8903L16.7978 59.9347C16.7089 59.9525 15.9732 59.2676 15.1404 58.6271C14.2996 57.9866 13.8549 58.3691 12.9009 58.9384C11.6477 59.6857 10.3864 59.0096 10.3864 59.0096C9.3111 59.8547 8.93918 62.3098 8.93918 62.3098C8.72089 62.4077 8.36515 62.5144 8.03366 62.5144C7.20899 62.5144 7.06347 61.9629 7.06347 61.6427C7.06347 60.2461 8.65622 59.6501 8.65622 58.2713C8.65622 57.9333 8.51876 56.5811 6.9907 56.5811H5.62434C5.05031 56.5811 4.91285 56.1275 4.832 55.9585C4.79966 55.8873 4.74307 55.9318 4.76732 55.9851C4.80775 56.1008 4.70264 56.2787 4.70264 56.6256C4.70264 57.186 5.0018 57.5241 5.55966 57.5241C5.8103 57.5241 6.05284 57.444 6.1256 57.3906C6.17411 57.3551 6.20645 57.4084 6.1822 57.444C5.93965 57.7553 5.92348 58.3425 6.0205 58.4759C6.04475 58.5115 6.0771 58.5026 6.0771 58.4759C6.21455 57.8888 6.71581 57.3284 7.39495 57.3284C8.2277 57.3284 8.21962 58.1023 8.21962 58.2891C8.21962 59.4099 6.43284 60.2283 6.43284 61.7761C6.43284 63.3417 7.93664 63.6708 8.80174 63.4307C8.75323 64.9963 7.12006 65.53 7.07155 64.4092C7.07155 64.3558 7.03112 64.3469 7.00687 64.4181C6.80474 64.9696 6.88559 65.4588 7.51622 65.61C7.55665 65.6189 7.54048 65.6456 7.50005 65.6812C6.86942 66.1171 7.209 67.8428 7.24134 68.3499C7.28985 69.0793 6.62688 68.9903 6.57029 68.9725C6.54603 68.9636 6.51368 68.9725 6.56219 69.0348C7.03112 69.6664 7.61324 69.0882 7.61324 69.0882C8.04983 69.2394 7.78303 69.6486 7.48388 69.8621C7.43537 69.8977 7.44347 69.9332 7.49198 69.9332C7.55666 69.9421 8.23579 70.0044 8.35706 69.4084C8.65621 69.7998 9.10088 69.6575 9.18982 69.6041C9.31918 69.5329 9.95789 69.275 10.0145 70.0578C10.0145 70.1112 10.0469 70.0756 10.0711 70.0489C10.5481 69.3817 10.0388 68.9725 9.74768 68.9281C9.77194 68.8925 10.152 68.5367 10.4996 69.0259C10.5239 69.0615 10.5481 69.0704 10.5481 68.9992C10.5886 68.1541 9.96598 68.083 9.56173 68.4477C9.54556 68.3587 9.40811 67.8873 10.0145 67.9051C10.0307 67.9051 10.0549 67.8784 10.0307 67.8517C9.56174 67.3002 9.17365 67.7983 9.07663 67.9229C8.86642 68.1986 8.34089 68.083 8.29238 68.083C8.45408 65.1564 10.7988 66.1971 11.1222 64.7739C11.1383 64.7027 11.1707 64.7294 11.1707 64.7561C11.2596 65.103 12.0519 65.1475 12.1975 64.4714C12.2056 64.427 12.1975 64.4003 12.1732 64.4269C11.4941 65.1742 9.96599 62.8436 12.0519 60.9488C13.8306 59.3387 15.4234 60.2372 16.0298 60.762C16.0621 60.9933 15.9327 61.0734 15.8519 61.1C15.8196 61.1089 15.8115 61.1356 15.86 61.1623C16.0298 61.2335 16.2642 61.2068 16.3774 61.0378C16.7574 61.3313 16.434 61.7049 16.2804 61.8028C16.24 61.8295 16.2561 61.8562 16.2885 61.8651C16.6361 61.9362 16.9272 61.5448 16.9434 61.3135L17 61.3491V63.0126C17 65.3788 19.4821 65.7079 22.2067 67.7094C24.9313 65.699 27.4054 65.3788 27.4054 63.0126V61.3491L27.4619 61.3135C27.4781 61.5359 27.7611 61.9362 28.1168 61.8651C28.1492 61.8562 28.1653 61.8295 28.1249 61.8028C27.9713 61.696 27.6398 61.3313 28.0279 61.0378C28.1411 61.2157 28.3756 61.2335 28.5453 61.1623C28.5938 61.1445 28.5858 61.1089 28.5534 61.1C28.4726 61.0734 28.3432 60.9933 28.3756 60.762C28.9819 60.2283 30.5747 59.3298 32.3534 60.9488C34.4393 62.8436 32.9112 65.1653 32.2321 64.4269C32.1998 64.3914 32.1998 64.427 32.2078 64.4714C32.3534 65.1564 33.1457 65.103 33.2346 64.7561C33.2427 64.7294 33.2751 64.7027 33.2831 64.7739C33.6065 66.1971 35.9431 65.1564 36.1129 68.083C36.0644 68.0919 35.5389 68.1986 35.3287 67.9229C35.2397 67.8072 34.8516 67.3002 34.3746 67.8517C34.3423 67.8873 34.3746 67.9051 34.3908 67.9051C34.9972 67.8873 34.8678 68.3587 34.8436 68.4477C34.4393 68.083 33.8168 68.1541 33.8572 68.9992C33.8572 69.0615 33.8814 69.0615 33.9057 69.0259C34.2533 68.5367 34.6333 68.8925 34.6576 68.9281C34.3746 68.9725 33.8572 69.3817 34.3342 70.0489C34.3585 70.0756 34.3827 70.1112 34.3908 70.0578C34.4555 69.275 35.0861 69.5241 35.2155 69.6041C35.3044 69.6575 35.7491 69.7998 36.0482 69.4084C36.1695 70.0044 36.8486 69.9421 36.9133 69.9332C36.9618 69.9332 36.9618 69.8977 36.9214 69.8621C36.6303 69.6486 36.3554 69.2394 36.792 69.0882C36.792 69.0882 37.3742 69.6664 37.8431 69.0348C37.8835 68.9814 37.8593 68.9636 37.835 68.9725C37.7784 68.9903 37.1154 69.0793 37.1639 68.3499C37.1963 67.8428 37.5359 66.1171 36.9052 65.6812C36.8648 65.6545 36.8486 65.6278 36.8891 65.61C37.5197 65.4588 37.6005 64.9696 37.3984 64.4181C37.3742 64.3469 37.3337 64.3647 37.3337 64.4092C37.2852 65.53 35.6601 64.9963 35.6035 63.4307C36.4767 63.6797 37.9724 63.3417 37.9724 61.7761C37.9724 60.2372 36.1857 59.4099 36.1857 58.2891C36.1857 58.1023 36.1776 57.3284 37.0103 57.3284C37.6895 57.3284 38.1907 57.8888 38.3282 58.4759C38.3363 58.5026 38.3605 58.5115 38.3848 58.4759C38.4818 58.3336 38.4656 57.7553 38.2231 57.444C38.1988 57.4173 38.2231 57.3551 38.2797 57.3906C38.3524 57.444 38.595 57.5241 38.8456 57.5241C39.4035 57.5241 39.7026 57.186 39.7026 56.6256C39.7026 56.2787 39.5894 56.1008 39.638 55.9851C39.6622 55.9318 39.5975 55.8962 39.5733 55.9585C39.4924 56.1364 39.3468 56.5811 38.7809 56.5811H37.4146C35.8865 56.5811 35.7491 57.9422 35.7491 58.2713C35.7491 59.6501 37.3418 60.2461 37.3418 61.6427C37.3418 61.9718 37.1882 62.5144 36.3716 62.5144C36.032 62.5144 35.6763 62.4077 35.4661 62.3098C35.4661 62.3098 35.1023 59.8636 34.0189 59.0096C34.0189 59.0096 32.7576 59.6857 31.5044 58.9384C30.5504 58.3691 30.0977 57.9866 29.2568 58.6271C28.416 59.2676 27.6883 59.9525 27.5994 59.9347L27.3973 59.8903V54.384C27.7853 54.3395 27.8096 54.722 27.7934 54.8198C27.7692 54.9444 27.6479 55.0511 27.9066 55.487C27.9309 55.5226 27.9551 55.5048 27.9632 55.4692C27.9713 55.3625 28.0279 55.1757 28.1573 55.1757C28.2866 55.1757 28.8849 55.6649 29.3943 56.2253C29.3943 56.2253 29.6853 55.2557 30.3887 54.9533C29.9926 54.8821 28.2785 54.4284 28.2785 53.6012C28.2785 53.3254 27.9956 53.2631 27.8096 53.2809C27.8015 53.2542 27.5185 52.5248 27.0011 52.9073C26.9768 52.9251 26.9768 52.9696 27.0092 52.9785C27.2437 53.0407 27.3407 53.2987 27.3488 53.5834C26.8475 53.4144 24.7211 52.7561 22.1986 52.7561C20.9697 52.7561 19.8459 52.9162 18.9484 53.0941V54.9978H18.245V53.2453ZM13.58 72.7976C13.3941 72.7175 13.2728 72.5841 13.2728 72.3083V71.1252C12.9655 71.0096 12.1247 70.6538 10.4349 70.6538C9.03621 70.6538 8.59961 71.0007 8.57536 71.1252L8.20345 73.3847C8.20345 73.3847 8.7694 72.8154 10.7988 72.9577C13.2404 73.1267 15.771 74.719 15.771 73.02V72.0237C13.863 72.0237 13.58 72.6997 13.58 72.7976ZM28.6181 72.0237V73.02C28.6181 74.7101 31.1487 73.1267 33.5904 72.9577C35.6197 72.8154 36.1857 73.3847 36.1857 73.3847L35.8138 71.1252C35.7976 71.0007 35.3529 70.6538 33.9542 70.6538C32.2725 70.6538 31.4317 71.0096 31.1164 71.1252V72.3083C31.1164 72.5752 30.9951 72.7086 30.8091 72.7976C30.8091 72.6997 30.5262 72.0237 28.6181 72.0237ZM22.1986 71.0007C26.136 71.0007 30.13 71.2231 30.6474 71.8814C30.6879 71.9347 30.704 71.8814 30.704 71.8369V69.5418C30.704 68.8747 26.5807 68.4833 22.1905 68.4833C17.8004 68.4833 13.677 68.8747 13.677 69.5418V71.8369C13.677 71.8725 13.6932 71.9258 13.7336 71.8814C14.2672 71.232 18.2612 71.0007 22.1986 71.0007ZM18.6897 60.1838L18.2936 60.0682L18.2612 60.1215L17.8004 59.8992H18.2127C18.2531 59.8992 18.2531 59.8725 18.237 59.8547C18.051 59.6501 17.8812 59.4722 17.8812 59.4722C17.8812 59.4722 18.0672 59.5522 18.334 59.659C18.3663 59.6679 18.3744 59.6501 18.3582 59.6234L18.051 59.1341L18.4957 59.4633C18.5199 59.4811 18.5361 59.4633 18.528 59.4366L18.3178 58.8584L18.7221 59.2854C18.7382 59.3032 18.7625 59.2943 18.7544 59.2676L18.6412 58.6894L18.9404 59.1697C18.9565 59.1964 18.9808 59.1875 18.9808 59.1608C18.9808 59.063 18.9889 58.636 18.9889 58.636C18.9889 58.636 19.1182 58.9562 19.1748 59.1164C19.191 59.1519 19.2072 59.1519 19.2233 59.1075C19.2395 59.0541 19.3769 58.6983 19.3769 58.6983L19.3931 59.2498L19.3284 59.2676L19.2476 59.9258C19.8378 59.7746 20.5816 58.6538 21.1476 58.6538C21.8267 58.6538 22.0693 59.5255 23.3143 59.0808C23.6297 59.5967 23.7428 60.0415 23.8641 60.6553C24.3492 61.1534 25.0203 60.9844 25.0203 60.4596C25.0203 59.7479 24.3169 59.6145 24.3169 58.8673C24.3169 58.5381 24.5271 58.0578 25.1011 58.0578C25.4084 58.0578 25.853 58.2001 26.1118 58.2001C26.419 58.2001 26.4837 57.9599 26.516 57.8532C26.5403 57.782 26.6292 57.7998 26.6211 57.8621C26.613 57.9333 26.6534 58.0311 26.6534 58.1912C26.6534 58.6627 26.0309 58.725 25.9581 58.6627C25.9258 58.636 25.9015 58.6716 25.9258 58.6983C26.0228 58.7783 25.9986 59.063 25.8854 59.2409C25.8692 59.2587 25.853 59.2587 25.853 59.2409C25.7884 58.9029 25.4245 58.4848 25.1092 58.4848C24.996 58.4848 24.7616 58.5559 24.7616 58.8584C24.7616 59.2765 25.5296 59.6679 25.5296 60.5396C25.5296 61.447 24.713 61.6694 23.8884 61.4381C23.9126 62.3009 25.085 62.808 25.1092 62.1942C25.1092 62.1497 25.1335 62.1764 25.1416 62.1942C25.3113 62.4611 25.2386 62.6568 25.0122 62.7635C25.2143 62.8613 25.2547 63.315 25.3113 63.5908C25.4003 64 25.7884 63.7687 25.8126 63.7598C25.8369 63.742 25.8449 63.7598 25.8288 63.7865C25.6832 64.2046 25.2871 64.0444 25.2871 64.0444C25.085 64.2046 25.3275 64.3469 25.5135 64.4092C25.5377 64.4181 25.5377 64.4358 25.5215 64.4536C25.3841 64.507 25.093 64.6138 24.9475 64.338C24.8424 64.6227 24.6241 64.6138 24.5433 64.6138C24.3897 64.6138 24.2926 64.7828 24.325 65.0141C24.325 65.0318 24.3169 65.0407 24.3007 65.0318C23.945 64.7739 24.1471 64.4625 24.2926 64.3825C24.2684 64.3647 24.0177 64.249 23.9126 64.5693C23.9045 64.596 23.8884 64.596 23.8803 64.5693C23.7267 64.1067 24.0662 63.9733 24.3088 64.0889C24.2926 64.0267 24.1633 63.7954 23.8399 63.8754C23.8237 63.8843 23.8156 63.8754 23.8237 63.8487C23.8803 63.7064 24.0339 63.5018 24.3331 63.7064C24.4867 63.8132 24.7454 63.6619 24.7696 63.6441C24.2441 62.4966 23.2335 63.4573 22.999 62.5589C22.9909 62.5411 22.9748 62.5233 22.9586 62.5767C22.902 62.7635 22.4573 62.7813 22.3765 62.4077C22.3684 62.381 22.3765 62.3721 22.4007 62.3899C22.4654 62.461 22.6029 62.5233 22.7888 62.2387C22.9101 62.043 22.9263 61.785 22.9263 61.616C22.9263 60.9221 22.2956 59.7479 21.3093 59.7479C20.6867 59.7479 20.0157 60.0148 19.5144 60.4151L19.9752 60.5307C19.9348 61.0467 19.4821 61.3491 19.0697 61.2157L19.1425 60.6286C19.0697 60.6553 18.8918 60.7264 18.7948 60.8777C18.7867 60.8866 18.7706 60.8866 18.7706 60.8688C18.6897 60.5307 18.9404 60.3617 19.0131 60.3261C19.0212 60.3172 19.0212 60.3172 19.005 60.3172C18.7787 60.3083 18.6574 60.4863 18.617 60.5485C18.6089 60.5574 18.6008 60.5574 18.6008 60.5485C18.625 60.4774 18.5846 60.3083 18.6897 60.1838ZM20.0642 64.169C19.8863 64.4092 19.7327 64.1779 19.4982 64.1779C19.2799 64.1779 19.2395 64.3825 19.2395 64.4625C19.2395 64.4803 19.2314 64.4803 19.2233 64.4714C18.9727 64.0978 19.2557 63.8932 19.4174 63.8665C19.3931 63.8398 19.1506 63.6619 18.997 63.911C18.9889 63.9288 18.9727 63.9199 18.9727 63.9021C18.9646 63.4396 19.2961 63.404 19.5225 63.6086C19.5629 63.4307 19.4578 63.315 19.2799 63.3061C19.2557 63.3061 19.2557 63.2883 19.2638 63.2794C19.3365 63.1905 19.4093 63.1549 19.4821 63.1549C19.7165 63.1549 19.7489 63.484 19.9025 63.484C20.1289 63.484 20.4603 63.146 20.4846 63.1104C20.4765 63.0926 20.2582 62.4344 20.2986 62.043C20.2986 62.0252 20.2906 62.0252 20.2825 62.0341C20.1693 62.1052 19.8944 62.0963 19.8944 61.7227C19.8944 61.696 19.9025 61.6871 19.9186 61.7138C20.0399 61.9006 20.242 61.6871 20.3391 61.5626C20.4442 61.4292 21.0263 60.504 21.7944 60.504C21.9641 60.504 22.1824 60.6108 22.3603 60.7442C22.0935 61.1 22.3603 61.4381 22.5544 61.3936C22.5786 61.3847 22.5786 61.4114 22.5624 61.4203C21.5437 61.8384 21.091 62.0074 21.091 62.9503C21.091 63.4396 21.2446 63.7153 21.5033 63.6441C21.5195 63.6353 21.5276 63.6441 21.5114 63.6619C21.4144 63.7865 21.3093 63.831 21.2203 63.831C21.0101 63.831 20.9697 63.7064 20.8565 63.7064C20.7433 63.7064 20.3633 63.9555 20.3633 64.1601C20.3633 64.2401 20.4118 64.3469 20.5412 64.4358C20.5493 64.4447 20.5412 64.4536 20.5412 64.4536C20.4361 64.4536 20.1369 64.4803 20.0642 64.169ZM22.7484 55.0511C22.4331 55.0333 22.2229 55.1045 22.239 55.2201C22.3846 55.398 22.5948 55.3803 22.7484 55.0511ZM21.568 55.914C21.7944 55.8517 22.0369 55.8784 22.0693 55.8873C22.1016 55.8962 22.1016 55.9585 22.0612 55.9674C21.5922 56.0296 21.568 56.2698 21.2688 56.2698C21.0748 56.2698 20.8565 56.0474 20.9374 55.7272C20.9454 55.6827 20.9778 55.6827 20.9859 55.7272C21.0182 55.8695 21.2042 56.0207 21.568 55.914ZM15.48 67.3536C15.7872 67.7894 16.0864 67.3802 16.4987 67.3802C16.7008 67.3802 16.9434 67.4514 16.9838 67.8962C16.9838 67.9229 17 67.9229 17.0242 67.8962C17.4689 67.229 16.9595 66.8554 16.6685 66.802C16.7332 66.7398 17.1617 66.4462 17.4446 66.8821C17.4608 66.9088 17.4931 66.8999 17.4931 66.8643C17.4931 66.0192 16.9191 65.957 16.4987 66.3217C16.4178 65.9926 16.6442 65.7791 16.9353 65.7791C16.9676 65.7791 16.9838 65.7524 16.9676 65.7346C16.4502 65.1297 16.0702 65.8947 15.9813 66.0103C15.7791 66.3128 15.0434 65.7435 14.7442 65.4054C14.7442 65.4054 15.391 64.6582 15.391 63.9733C15.391 63.9288 15.383 63.8754 15.383 63.8487C15.383 63.8309 15.391 63.8221 15.4072 63.831C15.4719 63.8754 15.5608 63.9021 15.6498 63.9021C15.7953 63.9021 16.0783 63.8487 16.0783 63.2705C16.0783 63.2261 16.0621 63.2261 16.0459 63.2527C15.9651 63.3773 15.8842 63.404 15.8196 63.404C15.294 63.404 14.2026 61.4825 12.909 61.4825C12.5694 61.4825 11.9307 61.7494 11.6154 62.1319C11.769 62.2298 11.8013 62.4433 11.7851 62.5945C11.7609 62.8347 11.583 62.9592 11.4051 63.0126C11.3728 63.0215 11.3728 63.0482 11.4051 63.0659C12.06 63.3417 13.2404 63.831 13.5153 64.0889C13.8306 64.3914 13.774 64.9607 13.5881 65.7524C13.4102 66.5085 13.0302 66.4106 12.8847 66.384C12.8604 66.384 12.8604 66.3928 12.8685 66.4106C13.0383 66.6419 13.2404 66.722 13.4183 66.722C13.7579 66.722 13.8872 66.4907 14.057 66.4907C14.3481 66.4907 14.9706 66.9533 14.9706 67.3091C14.9706 67.5048 14.8332 67.6916 14.6472 67.8161C14.6391 67.825 14.6391 67.8428 14.6553 67.8428C14.7928 67.8695 15.3749 67.9229 15.48 67.3536ZM29.7419 67.8428C29.7581 67.8428 29.7662 67.825 29.75 67.8161C29.5721 67.6827 29.4266 67.5048 29.4266 67.3091C29.4266 66.9533 30.0411 66.4907 30.3402 66.4907C30.5181 66.4907 30.6394 66.722 30.9789 66.722C31.1568 66.722 31.3589 66.6419 31.5287 66.4106C31.5449 66.3928 31.5368 66.3751 31.5125 66.384C31.3751 66.4106 30.987 66.5085 30.8091 65.7524C30.6232 64.9607 30.5585 64.3914 30.8819 64.0889C31.1487 63.831 32.3372 63.3417 32.9921 63.0659C33.0244 63.0482 33.0244 63.0215 32.9921 63.0126C32.8142 62.9592 32.6363 62.8347 32.6121 62.5945C32.5959 62.4433 32.6283 62.2387 32.7819 62.1319C32.4585 61.7494 31.8198 61.4825 31.4802 61.4825C30.1866 61.4825 29.0951 63.404 28.5696 63.404C28.5049 63.404 28.416 63.3773 28.3432 63.2527C28.327 63.2261 28.3109 63.2261 28.3109 63.2705C28.3109 63.8487 28.5938 63.9021 28.7394 63.9021C28.8202 63.9021 28.9172 63.8754 28.9819 63.831C28.9981 63.8221 29.0062 63.8309 29.0062 63.8487C29.0062 63.8754 28.9981 63.9288 28.9981 63.9733C28.9981 64.6582 29.6449 65.4054 29.6449 65.4054C29.3538 65.7435 28.6181 66.3039 28.4079 66.0103C28.319 65.8858 27.939 65.1297 27.4215 65.7346C27.4054 65.7613 27.4134 65.7791 27.4539 65.7791C27.7449 65.7791 27.9713 65.9926 27.8905 66.3217C27.47 65.957 26.896 66.0192 26.896 66.8643C26.896 66.8999 26.9283 66.9088 26.9445 66.8821C27.2194 66.4462 27.656 66.7398 27.7126 66.802C27.4215 66.8465 26.9203 67.229 27.3568 67.8962C27.373 67.9229 27.3892 67.9229 27.3973 67.8962C27.4458 67.4603 27.6883 67.3802 27.8824 67.3802C28.2866 67.3802 28.5858 67.7894 28.9011 67.3536C29.0224 67.9229 29.5964 67.8695 29.7419 67.8428ZM19.2961 56.7502C19.2557 56.8124 19.1182 56.7502 19.0697 56.7235C19.0616 56.7146 19.0535 56.7235 19.0616 56.7324C19.094 56.8124 19.2233 57.0526 19.4174 57.0526C19.5063 57.0526 19.6357 56.9992 19.668 56.9281C19.668 56.9281 20.428 57.2038 20.7999 57.3106C20.6544 57.5241 20.5654 57.782 20.5412 58.0578C20.242 57.8532 19.0293 57.1416 19.0293 57.1416L18.6574 57.7109C18.5927 57.7998 18.2936 57.5596 18.3582 57.4707L18.6412 57.0348C18.5442 56.9281 18.3178 56.9903 18.2531 57.017C18.245 57.017 18.237 57.017 18.245 56.9992C18.2855 56.9103 18.4229 56.6523 18.7787 56.7679C18.7787 56.5278 18.4553 56.6078 18.3663 56.6345C18.3582 56.6345 18.3502 56.6345 18.3582 56.6256C18.4472 56.5189 18.714 56.2876 19.005 56.4833L19.1344 56.2876L18.8757 55.9851L19.0374 55.7361L19.2233 56.0029L20.622 53.8947C20.6544 53.8413 20.9374 53.7524 21.0344 53.7257C21.0425 53.8413 21.0586 54.1616 21.0263 54.2149L19.6518 56.341L19.9429 56.4477L19.7812 56.6968L19.4416 56.5189L19.2961 56.7502ZM24.2037 56.4032C24.2037 56.5989 24.3088 56.8836 24.5433 56.7946C24.5513 56.7857 24.5675 56.7946 24.5594 56.8035C24.5271 57.017 24.1714 57.2127 24.0177 56.9636C23.8722 57.2928 23.9126 57.6041 24.2118 57.782C24.2279 57.7909 24.2279 57.8176 24.2118 57.8354C24.0258 57.9777 23.7428 57.951 23.6135 57.6664C23.3629 57.871 23.3952 58.3158 23.5488 58.467C23.5488 58.467 22.8535 58.9207 22.2229 58.6004C21.8024 58.378 21.4629 58.0934 20.9212 58.1467C20.9939 57.3106 21.3739 57.0971 22.0693 56.9725C22.6271 56.8747 22.6918 56.59 22.619 56.3766C22.4331 56.3232 22.0854 56.51 22.0854 56.51C22.0207 56.3943 22.1097 56.2787 22.1097 56.2787C22.0773 56.2342 22.0612 56.083 22.0612 56.083C22.4492 56.083 22.522 55.9851 22.522 55.9851C22.5948 55.5404 22.1824 55.4959 21.8671 55.7361C21.7216 55.5938 21.7459 55.4069 21.7459 55.4069C21.726 55.3914 21.7094 55.3715 21.6969 55.3485C21.6843 55.3256 21.6762 55.3 21.6731 55.2735C21.6731 55.1668 22.1339 54.8821 22.2552 54.8465C22.2875 54.6953 22.4492 54.4907 22.9424 54.5441C22.999 54.4018 22.902 53.8769 22.8454 53.7435C22.8292 53.699 22.8535 53.6812 22.8939 53.7079C23.0637 53.8235 23.2335 54.2683 23.3548 54.2772C23.3548 54.2772 23.9045 53.957 23.9288 53.9748C23.9531 53.9926 24.0339 54.6686 24.0339 54.6686C24.1067 54.7665 24.5352 54.6686 24.7211 54.7576C24.7696 54.7843 24.7696 54.8198 24.7211 54.8287C24.5837 54.8554 24.139 55.0689 24.0662 55.2024C24.325 55.6204 24.2037 56.2342 24.2037 56.4032Z" fill="#22532C"/>
<path d="M52.7697 54.7658C53.2724 54.625 53.5237 54.3683 53.5237 53.7886V47.4863L52.7026 47.2296V46.948C53.5237 46.8072 54.261 46.7575 55.2916 46.7575C57.2522 46.7575 58.1906 47.5112 58.1906 48.9273C58.1906 50.1944 57.4784 51.0308 56.3222 51.3787L58.1571 53.8052C58.4671 54.2192 58.8944 54.5257 59.3636 54.6747V54.9149C59.1206 55.0805 58.7938 55.1965 58.3749 55.1965C57.8135 55.1965 57.4533 54.9811 56.9841 54.2855L55.2665 51.7182H54.6548V54.4263L55.4759 54.6333V54.9149C55.0486 55.0474 54.571 55.1302 53.9929 55.1302C53.5405 55.1302 53.1467 55.0888 52.7697 54.9977V54.7658ZM55.1575 51.1136C56.1714 51.1136 57.0008 50.4594 57.0008 49.1261C57.0008 48.0743 56.3222 47.4698 55.2078 47.4698C55.0402 47.4698 54.814 47.4946 54.6465 47.5194V51.1136H55.1575ZM60.0087 54.7989C60.3606 54.6747 60.6958 54.418 60.6958 54.1033V49.7637L59.8663 49.4159V49.1426C60.4528 48.977 61.0477 48.9025 61.4079 48.9025H61.8269L61.7598 49.5981V54.476L62.4888 54.6664V54.9066C62.0447 55.064 61.6425 55.1219 60.9806 55.1219C60.679 55.1219 60.302 55.0971 60.0087 55.006V54.7989ZM60.5533 46.9894C60.5533 46.5919 60.8382 46.2358 61.2906 46.2358C61.6509 46.2358 61.9693 46.5091 61.9693 46.9314C61.9693 47.3787 61.6593 47.7265 61.2404 47.7265C60.8549 47.7182 60.5533 47.4118 60.5533 46.9894ZM63.8042 49.7637L62.9747 49.4159V49.1426C63.5696 48.977 64.1561 48.9025 64.5331 48.9025H64.9521L64.8767 49.623V55.3869C64.8767 57.4905 64.2399 58.1447 63.4104 58.1447C63.1255 58.1447 62.8407 58.0453 62.6815 57.8383V57.6312C63.2512 57.6312 63.8126 56.9853 63.8126 55.6768V49.7637H63.8042ZM63.6618 46.9894C63.6618 46.5919 63.9466 46.2358 64.3991 46.2358C64.7594 46.2358 65.0777 46.5091 65.0777 46.9314C65.0777 47.3787 64.7677 47.7265 64.3488 47.7265C63.9634 47.7182 63.6618 47.4118 63.6618 46.9894ZM66.1502 54.7989C66.5021 54.6747 66.854 54.418 66.854 54.1033V46.6582L65.9994 46.3103V46.0288C66.5942 45.8631 67.1975 45.7969 67.5578 45.7969H68.0018L67.9264 46.5174V51.6519L68.6386 51.0391C69.3424 50.4511 69.9792 49.565 69.9792 48.9853C70.2138 48.9107 70.4065 48.8859 70.6662 48.8859C70.8589 48.8859 71.0181 48.9273 71.1857 49.0018C71.1606 49.5567 70.5992 50.4263 69.4178 51.2627L68.9654 51.5857L70.9678 53.9874C71.3281 54.4263 71.6549 54.6002 71.9314 54.6002V54.8735C71.6465 55.064 71.3449 55.1468 70.9678 55.1468C70.6076 55.1468 70.2892 54.9894 70.0462 54.6582L67.9264 51.9004V54.4925L68.6051 54.6996V54.9397C68.1275 55.0971 67.7505 55.1468 67.1389 55.1468C66.8372 55.1468 66.4602 55.1219 66.1669 55.0308V54.7989H66.1502ZM72.4844 53.623C73.0709 54.1613 73.6238 54.4346 74.3193 54.4346C75.0482 54.4346 75.4252 54.0867 75.4252 53.6395C75.4252 53.1923 75.1655 52.9107 74.3109 52.5464L73.6657 52.2731C72.9117 51.9501 72.4927 51.4118 72.4927 50.683C72.4927 49.6726 73.3976 48.7948 74.7549 48.7948C75.7939 48.7948 76.2128 49.1012 76.2128 49.5898C76.2128 49.7803 76.1877 49.9459 76.1458 50.1281C75.7269 49.8466 75.1571 49.6395 74.6628 49.6395C73.8333 49.6395 73.4395 49.9956 73.4395 50.4346C73.4395 50.8983 73.6741 51.1551 74.4533 51.4449L75.1571 51.7182C76.0955 52.0743 76.4474 52.5546 76.4474 53.3083C76.4474 54.2938 75.4839 55.1965 74.0344 55.1965C72.8949 55.1965 72.3838 54.8404 72.3838 54.1447C72.3671 53.9708 72.409 53.7637 72.4844 53.623ZM80.3015 48.8279C80.6115 48.8279 80.9886 48.8693 81.198 48.919V46.6582L80.3183 46.3103V46.0288C80.9132 45.8631 81.5499 45.7969 81.927 45.7969H82.3459L82.2705 46.5174V53.8714C82.3627 54.1281 82.5135 54.4014 82.7648 54.6167C82.5051 54.8486 82.2202 55.0308 81.8516 55.2213C81.5918 55.0143 81.3572 54.7244 81.2316 54.4511C80.8126 54.8735 80.1005 55.1799 79.5726 55.1799C78.2572 55.1799 77.2099 54.1033 77.2099 52.3973C77.1931 50.0867 78.6091 48.8279 80.3015 48.8279ZM81.2064 53.9377V49.6892C80.9886 49.6147 80.6115 49.5484 80.2596 49.5484C79.1537 49.5484 78.3242 50.4097 78.3242 52.1902C78.3242 53.5898 79.0615 54.3435 79.8826 54.3435C80.3769 54.3435 80.9132 54.1778 81.2064 53.9377ZM83.7032 54.7989C84.0551 54.6747 84.3903 54.418 84.3903 54.1033V49.7637L83.5608 49.4159V49.1426C84.1473 48.977 84.7422 48.9025 85.1108 48.9025H85.5297L85.4627 49.5981V54.476L86.1917 54.6664V54.9066C85.7476 55.064 85.3454 55.1219 84.6835 55.1219C84.3819 55.1219 84.0049 55.0971 83.7116 55.006V54.7989H83.7032ZM84.2478 46.9894C84.2478 46.5919 84.5327 46.2358 84.9851 46.2358C85.3454 46.2358 85.6638 46.5091 85.6638 46.9314C85.6638 47.3787 85.3538 47.7265 84.9349 47.7265C84.5495 47.7182 84.2478 47.4118 84.2478 46.9894ZM89.5598 48.8114C90.959 48.8114 91.8053 49.7389 91.8053 51.213C91.8053 51.4532 91.8053 51.7099 91.7885 52.0329H87.9595C87.9595 53.4739 88.8058 54.3021 89.8782 54.3021C90.515 54.3021 91.2188 54.0867 91.7131 53.7472C91.7382 53.8134 91.7634 53.9542 91.7634 54.0784C91.7634 54.6582 90.9088 55.1965 89.5263 55.1965C88.0433 55.1965 86.8368 54.0536 86.8368 52.2565C86.8452 50.0288 88.2109 48.8114 89.5598 48.8114ZM90.7663 51.3704C90.7663 50.1116 90.2217 49.507 89.4509 49.507C88.7387 49.507 87.9847 50.3517 87.9847 51.3704H90.7663ZM92.6431 54.7989C92.9783 54.6747 93.3302 54.418 93.3302 54.1033V49.7637L92.4923 49.4159V49.1343C93.0872 48.9687 93.6737 48.9025 94.0507 48.9025H94.3607V49.5981C94.8048 49.1592 95.5253 48.8776 96.2794 48.8776C97.3602 48.8776 98.0976 49.5567 98.0976 50.8818V54.476L98.7762 54.6664V54.9066C98.4243 55.0474 97.9719 55.1219 97.4105 55.1219C97.134 55.1219 96.824 55.0971 96.5643 55.006V54.7989C96.891 54.6582 97.0335 54.418 97.0335 53.9542V51.5029C97.0335 50.2441 96.4973 49.772 95.7348 49.772C95.1986 49.772 94.6875 49.9542 94.3942 50.1695V54.4842L95.1232 54.6747V54.9149C94.6791 55.0722 94.2686 55.1302 93.615 55.1302C93.305 55.1302 92.9364 55.1054 92.6431 55.0143V54.7989ZM99.6476 53.623C100.234 54.1613 100.787 54.4346 101.482 54.4346C102.211 54.4346 102.588 54.0867 102.588 53.6395C102.588 53.1923 102.329 52.9107 101.474 52.5464L100.829 52.2731C100.075 51.9501 99.656 51.4118 99.656 50.683C99.656 49.6726 100.561 48.7948 101.918 48.7948C102.957 48.7948 103.376 49.1012 103.376 49.5898C103.376 49.7803 103.351 49.9459 103.309 50.1281C102.89 49.8466 102.32 49.6395 101.826 49.6395C100.997 49.6395 100.603 49.9956 100.603 50.4346C100.603 50.8983 100.837 51.1551 101.617 51.4449L102.32 51.7182C103.259 52.0743 103.611 52.5546 103.611 53.3083C103.611 54.2938 102.647 55.1965 101.198 55.1965C100.058 55.1965 99.547 54.8404 99.547 54.1447C99.5303 53.9708 99.5722 53.7637 99.6476 53.623ZM104.934 51.5112L104.976 49.8052H104.264V49.3828L105.663 48.0081L106.091 47.9584L106.04 49.1178H107.758L107.666 49.8134H106.007L105.982 51.4283C105.965 51.9666 105.965 52.4553 105.965 52.9273C105.965 53.9708 106.275 54.3269 106.761 54.3269C107.138 54.3269 107.465 54.1944 107.724 53.9956L107.859 54.0453C107.808 54.7989 107.356 55.1882 106.459 55.1882C105.42 55.1882 104.918 54.6499 104.918 53.3994C104.893 52.7782 104.926 52.0992 104.934 51.5112ZM110.347 49.5816L109.819 49.2089V48.9025H112.299V49.2089L111.562 49.5153L112.961 53.5816H112.978L114.419 49.5484L113.682 49.2006V48.8942H115.684V49.2006L115.324 49.4987L113.011 55.1633L112.567 55.1882L110.347 49.5816ZM118.751 48.8031C120.351 48.8031 121.583 49.9874 121.583 51.7679C121.583 53.888 120.091 55.2213 118.541 55.2213C116.966 55.2213 115.692 54.1281 115.692 52.2565C115.701 50.1447 117.159 48.8031 118.751 48.8031ZM118.625 54.476C119.496 54.476 120.401 53.6395 120.401 51.8838C120.401 50.3849 119.58 49.5484 118.658 49.5484C117.762 49.5484 116.882 50.4346 116.882 52.1323C116.882 53.6809 117.703 54.476 118.625 54.476ZM125.529 48.8031C127.129 48.8031 128.361 49.9874 128.361 51.7679C128.361 53.888 126.869 55.2213 125.319 55.2213C123.744 55.2213 122.471 54.1281 122.471 52.2565C122.479 50.1447 123.937 48.8031 125.529 48.8031ZM125.403 54.476C126.275 54.476 127.179 53.6395 127.179 51.8838C127.179 50.3849 126.358 49.5484 125.437 49.5484C124.54 49.5484 123.66 50.4346 123.66 52.1323C123.66 53.6809 124.482 54.476 125.403 54.476ZM129.174 54.7989C129.509 54.6747 129.861 54.418 129.861 54.1033V49.7637L129.023 49.4159V49.1343C129.618 48.9687 130.204 48.9025 130.581 48.9025H130.891V49.7969H130.908L131.268 49.3994C131.62 49.0267 131.972 48.8362 132.408 48.8362C132.86 48.8362 133.086 49.0267 133.086 49.3911C133.086 49.6312 133.011 49.9211 132.877 50.1613C132.634 49.9708 132.349 49.8631 132.073 49.8631C131.67 49.8631 131.293 50.0453 130.933 50.3931V54.476L131.83 54.6664V54.9066C131.385 55.064 130.958 55.1219 130.221 55.1219C129.844 55.1219 129.484 55.0971 129.182 55.006V54.7989H129.174ZM139.697 46.6913C141.607 46.6913 143.141 48.182 143.141 50.5588C143.141 53.5153 141.306 55.2296 139.228 55.2296C137.317 55.2296 135.776 53.6892 135.776 51.1468C135.776 48.4635 137.669 46.6913 139.697 46.6913ZM141.867 50.7907C141.867 48.5464 140.761 47.5194 139.555 47.5194C138.306 47.5194 137.058 48.7534 137.058 50.9977C137.058 53.2586 138.172 54.4097 139.353 54.4097C140.602 54.4097 141.867 53.2834 141.867 50.7907ZM144.154 54.7989C144.49 54.6747 144.841 54.418 144.841 54.1033V49.7637L144.004 49.4159V49.1343C144.598 48.9687 145.185 48.9025 145.562 48.9025H145.872V49.5981C146.316 49.1592 147.037 48.8776 147.791 48.8776C148.871 48.8776 149.609 49.5567 149.609 50.8818V54.476L150.287 54.6664V54.9066C149.936 55.0474 149.483 55.1219 148.922 55.1219C148.645 55.1219 148.335 55.0971 148.076 55.006V54.7989C148.402 54.6582 148.545 54.418 148.545 53.9542V51.5029C148.545 50.2441 148.008 49.772 147.246 49.772C146.718 49.772 146.19 49.9542 145.905 50.1695V54.4842L146.634 54.6747V54.9149C146.19 55.0722 145.78 55.1302 145.126 55.1302C144.816 55.1302 144.448 55.1054 144.154 55.0143V54.7989ZM154.049 48.8279C154.359 48.8279 154.736 48.8693 154.946 48.919V46.6582L154.066 46.3103V46.0288C154.661 45.8631 155.298 45.7969 155.675 45.7969H156.094L156.018 46.5174V53.8714C156.111 54.1281 156.261 54.4014 156.513 54.6167C156.253 54.8486 155.968 55.0308 155.608 55.2213C155.348 55.0143 155.114 54.7244 154.988 54.4511C154.569 54.8735 153.857 55.1799 153.329 55.1799C152.013 55.1799 150.966 54.1033 150.966 52.3973C150.941 50.0867 152.357 48.8279 154.049 48.8279ZM154.954 53.9377V49.6892C154.736 49.6147 154.359 49.5484 154.008 49.5484C152.902 49.5484 152.072 50.4097 152.072 52.1902C152.072 53.5898 152.809 54.3435 153.631 54.3435C154.125 54.3435 154.661 54.1778 154.954 53.9377ZM160.057 48.8114C161.456 48.8114 162.302 49.7389 162.302 51.213C162.302 51.4532 162.302 51.7099 162.286 52.0329H158.457C158.457 53.4739 159.303 54.3021 160.375 54.3021C161.012 54.3021 161.716 54.0867 162.21 53.7472C162.235 53.8134 162.26 53.9542 162.26 54.0784C162.26 54.6582 161.406 55.1965 160.023 55.1965C158.54 55.1965 157.334 54.0536 157.334 52.2565C157.342 50.0288 158.708 48.8114 160.057 48.8114ZM161.272 51.3704C161.272 50.1116 160.727 49.507 159.956 49.507C159.244 49.507 158.49 50.3517 158.49 51.3704H161.272ZM163.14 54.7989C163.475 54.6747 163.827 54.418 163.827 54.1033V49.7637L162.989 49.4159V49.1343C163.584 48.9687 164.171 48.9025 164.548 48.9025H164.858V49.7969H164.875L165.235 49.3994C165.587 49.0267 165.939 48.8362 166.374 48.8362C166.827 48.8362 167.053 49.0267 167.053 49.3911C167.053 49.6312 166.978 49.9211 166.843 50.1613C166.6 49.9708 166.316 49.8631 166.039 49.8631C165.637 49.8631 165.26 50.0453 164.9 50.3931V54.476L165.796 54.6664V54.9066C165.352 55.064 164.925 55.1219 164.187 55.1219C163.81 55.1219 163.45 55.0971 163.149 55.006V54.7989H163.14ZM167.732 54.7989C168.067 54.6747 168.419 54.418 168.419 54.1033V49.7637L167.572 49.4159V49.1343C168.167 48.9687 168.754 48.9025 169.131 48.9025H169.441V49.5981C169.885 49.1592 170.605 48.8776 171.359 48.8776C172.44 48.8776 173.178 49.5567 173.178 50.8818V54.476L173.856 54.6664V54.9066C173.504 55.0474 173.052 55.1219 172.491 55.1219C172.214 55.1219 171.904 55.0971 171.644 55.006V54.7989C171.971 54.6582 172.114 54.418 172.114 53.9542V51.5029C172.114 50.2441 171.577 49.772 170.815 49.772C170.287 49.772 169.759 49.9542 169.474 50.1695V54.4842L170.203 54.6747V54.9149C169.759 55.0722 169.349 55.1302 168.695 55.1302C168.385 55.1302 168.016 55.1054 167.723 55.0143V54.7989H167.732ZM177.233 48.8114C178.632 48.8114 179.478 49.7389 179.478 51.213C179.478 51.4532 179.478 51.7099 179.462 52.0329H175.633C175.633 53.4739 176.479 54.3021 177.551 54.3021C178.188 54.3021 178.892 54.0867 179.386 53.7472C179.411 53.8134 179.436 53.9542 179.436 54.0784C179.436 54.6582 178.582 55.1965 177.199 55.1965C175.716 55.1965 174.51 54.0536 174.51 52.2565C174.518 50.0288 175.876 48.8114 177.233 48.8114ZM178.439 51.3704C178.439 50.1116 177.895 49.507 177.124 49.507C176.412 49.507 175.658 50.3517 175.658 51.3704H178.439ZM180.316 54.7989C180.651 54.6747 181.003 54.418 181.003 54.1033V49.7637L180.157 49.4159V49.1343C180.752 48.9687 181.338 48.9025 181.715 48.9025H182.025V49.5981C182.478 49.1592 183.165 48.8776 183.936 48.8776C184.547 48.8776 185.142 49.2006 185.402 49.6644C185.804 49.2669 186.675 48.8776 187.404 48.8776C188.494 48.8776 189.206 49.5319 189.206 50.9232V54.476L189.884 54.6664V54.9066C189.524 55.0474 189.063 55.1219 188.51 55.1219C188.251 55.1219 187.924 55.0971 187.681 55.006V54.7989C188.008 54.6582 188.15 54.418 188.15 53.9542V51.4532C188.15 50.2855 187.631 49.772 186.826 49.772C186.357 49.772 185.913 49.888 185.578 50.0702C185.628 50.3435 185.653 50.6996 185.653 51.0308V54.4842L186.332 54.6747V54.9149C185.972 55.0557 185.528 55.1302 184.966 55.1302C184.69 55.1302 184.38 55.1054 184.12 55.0143V54.7989C184.447 54.6582 184.589 54.418 184.589 53.9542V51.594C184.589 50.1695 184.162 49.772 183.358 49.772C182.838 49.772 182.344 49.9542 182.067 50.1695V54.4842L182.796 54.6747V54.9149C182.344 55.0722 181.942 55.1302 181.288 55.1302C180.978 55.1302 180.609 55.1054 180.316 55.0143V54.7989ZM193.269 48.8114C194.669 48.8114 195.515 49.7389 195.515 51.213C195.515 51.4532 195.515 51.7099 195.506 52.0329H191.677C191.677 53.4739 192.524 54.3021 193.596 54.3021C194.233 54.3021 194.937 54.0867 195.431 53.7472C195.456 53.8134 195.481 53.9542 195.481 54.0784C195.481 54.6582 194.627 55.1965 193.244 55.1965C191.761 55.1965 190.555 54.0536 190.555 52.2565C190.555 50.0288 191.92 48.8114 193.269 48.8114ZM194.476 51.3704C194.476 50.1116 193.931 49.507 193.16 49.507C192.448 49.507 191.694 50.3517 191.694 51.3704H194.476ZM196.353 54.7989C196.688 54.6747 197.04 54.418 197.04 54.1033V49.7637L196.193 49.4159V49.1343C196.788 48.9687 197.375 48.9025 197.752 48.9025H198.062V49.5981C198.506 49.1592 199.227 48.8776 199.981 48.8776C201.061 48.8776 201.799 49.5567 201.799 50.8818V54.476L202.477 54.6664V54.9066C202.125 55.0474 201.673 55.1219 201.112 55.1219C200.835 55.1219 200.525 55.0971 200.265 55.006V54.7989C200.592 54.6582 200.735 54.418 200.735 53.9542V51.5029C200.735 50.2441 200.198 49.772 199.436 49.772C198.9 49.772 198.389 49.9542 198.095 50.1695V54.4842L198.824 54.6747V54.9149C198.38 55.0722 197.97 55.1302 197.316 55.1302C197.006 55.1302 196.638 55.1054 196.344 55.0143V54.7989H196.353ZM206.239 48.8279C206.549 48.8279 206.926 48.8693 207.136 48.919V46.6582L206.256 46.3103V46.0288C206.851 45.8631 207.488 45.7969 207.865 45.7969H208.284L208.208 46.5174V53.8714C208.3 54.1281 208.451 54.4014 208.703 54.6167C208.443 54.8486 208.158 55.0308 207.798 55.2213C207.538 55.0143 207.303 54.7244 207.178 54.4511C206.759 54.8735 206.047 55.1799 205.519 55.1799C204.203 55.1799 203.156 54.1033 203.156 52.3973C203.139 50.0867 204.555 48.8279 206.239 48.8279ZM207.153 53.9377V49.6892C206.935 49.6147 206.558 49.5484 206.206 49.5484C205.1 49.5484 204.27 50.4097 204.27 52.1902C204.27 53.5898 205.008 54.3435 205.829 54.3435C206.323 54.3435 206.851 54.1778 207.153 53.9377ZM52.7697 69.3414C53.3394 69.184 53.5237 68.9025 53.5237 68.2151V62.037L52.7026 61.8217V61.449C53.197 61.3828 53.7164 61.3579 54.1354 61.3579H54.6129L58.2241 67.2213L58.2492 67.2047V62.0039L57.4198 61.7969V61.5236C57.8389 61.3864 58.277 61.3138 58.7184 61.3083C59.2379 61.3083 59.4725 61.3497 59.8076 61.449V61.6809C59.2379 61.8631 59.0703 62.095 59.0703 62.89V69.6147L58.4587 69.7555L54.3532 63.064L54.3364 63.0805V69.0101L55.1324 69.2172V69.4987C54.7554 69.6395 54.3783 69.7141 53.951 69.7141C53.4316 69.7141 53.0797 69.6726 52.7697 69.5816V69.3414ZM63.2763 63.3869C64.6756 63.3869 65.5218 64.3145 65.5218 65.7886C65.5218 66.0288 65.5218 66.2855 65.5134 66.6085H61.6844C61.6844 68.0495 62.5307 68.8776 63.6031 68.8776C64.2399 68.8776 64.9437 68.6623 65.438 68.3228C65.4631 68.389 65.4883 68.5298 65.4883 68.654C65.4883 69.2337 64.6337 69.772 63.2512 69.772C61.7682 69.772 60.5617 68.6292 60.5617 66.8321C60.5617 64.6043 61.9274 63.3869 63.2763 63.3869ZM64.4829 65.9459C64.4829 64.6871 63.9383 64.0826 63.1674 64.0826C62.4553 64.0826 61.7012 64.9273 61.7012 65.9459H64.4829ZM69.4848 63.4035C69.7949 63.4035 70.1719 63.4449 70.3813 63.4946V61.2337L69.5016 60.8859V60.6043C70.0965 60.4387 70.7333 60.3724 71.1103 60.3724H71.5292L71.4538 61.0929V68.447C71.546 68.7037 71.6968 68.977 71.9481 69.1923C71.6884 69.4242 71.4035 69.6064 71.0349 69.7969C70.7751 69.5898 70.5405 69.3 70.4149 69.0267C69.9959 69.449 69.2838 69.7555 68.7559 69.7555C67.4405 69.7555 66.3932 68.6789 66.3932 66.9729C66.3848 64.6623 67.8008 63.4035 69.4848 63.4035ZM70.3981 68.5132V64.2648C70.1803 64.1903 69.8032 64.124 69.4513 64.124C68.3454 64.124 67.5159 64.9853 67.5159 66.7658C67.5159 68.1654 68.2532 68.9273 69.0743 68.9273C69.5686 68.919 70.0965 68.7534 70.3981 68.5132ZM75.5006 63.3869C76.8999 63.3869 77.7461 64.3145 77.7461 65.7886C77.7461 66.0288 77.7461 66.2855 77.7377 66.6085H73.9087C73.9087 68.0495 74.7549 68.8776 75.8274 68.8776C76.4642 68.8776 77.168 68.6623 77.6623 68.3228C77.6874 68.389 77.7126 68.5298 77.7126 68.654C77.7126 69.2337 76.858 69.772 75.4755 69.772C73.9925 69.772 72.786 68.6292 72.786 66.8321C72.786 64.6043 74.1517 63.3869 75.5006 63.3869ZM76.7071 65.9459C76.7071 64.6871 76.1625 64.0826 75.3917 64.0826C74.6795 64.0826 73.9255 64.9273 73.9255 65.9459H76.7071ZM78.5839 69.3745C78.9191 69.242 79.271 68.9936 79.271 68.6789V64.3393L78.4247 63.9915V63.7099C79.0196 63.5443 79.6061 63.478 79.9832 63.478H80.2932V64.3807H80.3015L80.6618 63.9832C81.0137 63.6105 81.3656 63.4201 81.8013 63.4201C82.2537 63.4201 82.48 63.6105 82.48 63.9749C82.48 64.2151 82.4046 64.505 82.2705 64.7451C82.0275 64.5546 81.7343 64.447 81.4662 64.447C81.064 64.447 80.687 64.6292 80.3267 64.977V69.0598L81.2232 69.2503V69.4905C80.7791 69.6478 80.3518 69.7058 79.6145 69.7058C79.2375 69.7058 78.8772 69.6809 78.5756 69.5898V69.3745H78.5839ZM82.7397 69.3745C83.0748 69.242 83.4267 68.9936 83.4267 68.6789V61.2337L82.5805 60.8859V60.6043C83.167 60.4387 83.7786 60.3724 84.1389 60.3724H84.5578L84.4908 61.0929V69.0515L85.2197 69.242V69.4822C84.7757 69.6395 84.3651 69.6975 83.7116 69.6975C83.4016 69.6975 83.0329 69.6726 82.7397 69.5816V69.3745ZM89.2666 66.2606V65.9128C89.2666 64.5298 88.9314 64.2317 88.1103 64.2317C87.3982 64.2317 86.7111 64.5298 86.1581 65.0681C86.133 64.9356 86.1162 64.8279 86.1162 64.6871C86.1162 63.8673 86.7279 63.3869 88.2444 63.3869C89.5598 63.3869 90.339 64.0412 90.339 65.1095C90.339 65.3911 90.2971 66.037 90.2888 66.4097L90.2469 68.4884C90.339 68.7203 90.5317 68.9604 90.7663 69.1426C90.5736 69.3745 90.2217 69.6312 89.8866 69.7969C89.6436 69.6395 89.4425 69.4408 89.2917 69.1675C88.9314 69.5153 88.2276 69.7803 87.5406 69.7803C86.5687 69.7803 85.89 69.1758 85.89 68.3559C85.89 67.2296 87.1384 66.2606 89.2666 66.2606ZM88.0266 69.0101C88.4287 69.0101 88.9482 68.8528 89.275 68.6623V66.8652C87.8087 66.8652 87.0127 67.4698 87.0127 68.1654C87.0127 68.6789 87.3646 69.0101 88.0266 69.0101ZM91.6796 69.3745C92.0147 69.242 92.3666 68.9936 92.3666 68.6789V64.3393L91.5204 63.9915V63.7099C92.1153 63.5443 92.7018 63.478 93.0788 63.478H93.3888V64.1737C93.8329 63.7348 94.5534 63.4532 95.3075 63.4532C96.3883 63.4532 97.1256 64.1323 97.1256 65.4573V69.0515L97.8043 69.242V69.4822C97.4524 69.623 97 69.6975 96.4386 69.6975C96.1621 69.6975 95.8521 69.6726 95.5924 69.5816V69.3745C95.9191 69.2337 96.0616 68.9936 96.0616 68.5298V66.0785C96.0616 64.8197 95.5253 64.3476 94.7629 64.3476C94.2267 64.3476 93.7156 64.5298 93.4223 64.7451V69.0598L94.1513 69.2503V69.4905C93.7072 69.6478 93.2966 69.7058 92.6431 69.7058C92.3331 69.7058 91.9645 69.6809 91.6712 69.5898V69.3745H91.6796ZM101.566 63.4035C101.876 63.4035 102.253 63.4449 102.463 63.4946V61.2337L101.583 60.8859V60.6043C102.178 60.4387 102.815 60.3724 103.192 60.3724H103.611L103.535 61.0929V68.447C103.627 68.7037 103.778 68.977 104.03 69.1923C103.77 69.4242 103.485 69.6064 103.116 69.7969C102.857 69.5898 102.622 69.3 102.496 69.0267C102.077 69.449 101.365 69.7555 100.837 69.7555C99.5219 69.7555 98.4746 68.6789 98.4746 66.9729C98.4662 64.6623 99.8822 63.4035 101.566 63.4035ZM102.48 68.5132V64.2648C102.262 64.1903 101.885 64.124 101.533 64.124C100.427 64.124 99.5973 64.9853 99.5973 66.7658C99.5973 68.1654 100.335 68.9273 101.156 68.9273C101.65 68.919 102.178 68.7534 102.48 68.5132Z" fill="white"/>
</svg>
