<svg width="72" height="16" viewBox="0 0 72 16" fill="none" xmlns="http://www.w3.org/2000/svg">
<g clip-path="url(#clip0_546_13936)">
<path d="M53.6795 5.80684V14.9875H50.7432V4.36914L53.6795 5.80684Z" fill="#F8FBF8"/>
<path d="M12.1216 13.2828L14.3239 15.2135L23.602 10.3458L22.6436 8.02499L12.1216 13.2828ZM50.7432 7.36776L58.2065 3.46544L56.9422 1.26782L50.7432 4.36914V7.36776Z" fill="#DAD8D8"/>
<path d="M29.7399 5.08802V14.9876H26.9258V0.877625L29.7399 5.08802ZM12.1216 13.2829L14.3239 15.2135L18.5653 4.53348L17.1991 0.877625L12.1216 13.2829Z" fill="#F8FBF8"/>
<path d="M17.199 0.877625H20.0946L25.4575 14.9876H22.4804L17.199 0.877625ZM30.168 0.877625L36.3466 10.5102V14.9876L26.9257 0.877625H30.168ZM41.6484 0.877625H44.5644V14.9876H41.6484V0.877625ZM50.7431 3.46548H46.2569V0.877625H56.7178L58.2064 3.46548H53.6794H50.7431Z" fill="#FDFDFD"/>
<path d="M66.8319 9.62701V14.9876H63.9363V9.62701" fill="#DAD8D8"/>
<path d="M68.8302 0.877625L63.9363 9.62703H66.8319L71.9094 0.877625H68.8302Z" fill="#FDFDFD"/>
<path d="M63.9365 9.62703L58.8794 0.877625H62.0605L65.4659 6.87487L63.9365 9.62703Z" fill="#F8FBF8"/>
<path d="M1.25292 2.52069C1.25292 4.47185 2.45602 5.64254 4.86222 6.2587L7.41116 6.85432C9.69501 7.38832 11.0816 8.70278 11.0816 10.8388C11.102 11.763 10.7962 12.6667 10.2456 13.4061C10.2456 11.2701 9.14444 10.1199 6.51393 9.42163L4.00577 8.84655C1.98701 8.3947 0.437256 7.30616 0.437256 4.98531C0.437256 4.10216 0.722737 3.219 1.25292 2.52069Z" fill="#FDFDFD"/>
<path d="M36.3467 9.79133V0.877625H39.1607V14.9876H36.3467V9.79133Z" fill="#F8FBF8"/>
<path d="M8.67541 10.3048C9.75616 11.0031 10.2456 11.9889 10.2456 13.4061C9.32794 14.5768 7.75779 15.2135 5.90216 15.2135C2.78226 15.2135 0.559581 13.6525 0.0905762 10.962H3.08813C3.47557 12.1943 4.49515 12.7694 5.88177 12.7694C7.53349 12.7899 8.65502 11.8862 8.67541 10.3048ZM2.82304 5.4166C1.80347 4.80045 1.21211 3.69137 1.25289 2.50014C2.12973 1.34998 3.6387 0.651672 5.47394 0.651672C8.67541 0.651672 10.5106 2.35637 10.9797 4.73883H8.08406C7.75779 3.79406 6.96252 3.05468 5.51472 3.05468C3.94458 3.07522 2.88422 3.97891 2.82304 5.4166Z" fill="#F8FBF8"/>
</g>
<defs>
<clipPath id="clip0_546_13936">
<rect width="72" height="14.5618" fill="white" transform="translate(0 0.651672)"/>
</clipPath>
</defs>
</svg>
