<svg width="95" height="20" viewBox="0 0 95 20" fill="none" xmlns="http://www.w3.org/2000/svg">
<g clip-path="url(#clip0_537_12132)">
<path d="M70.8271 6.80196V18.9154H66.9527V4.905L70.8271 6.80196Z" fill="#F8FBF8"/>
<path d="M15.9937 16.6661L18.8994 19.2135L31.1414 12.7909L29.8769 9.7287L15.9937 16.6661ZM66.9527 8.86151L76.8001 3.71263L75.1319 0.812988L66.9527 4.905V8.86151Z" fill="#DAD8D8"/>
<path d="M39.24 5.85348V18.9154H35.527V0.298096L39.24 5.85348ZM15.9937 16.6661L18.8994 19.2135L24.4958 5.12179L22.6931 0.298096L15.9937 16.6661Z" fill="#F8FBF8"/>
<path d="M22.6931 0.298096H26.5137L33.5898 18.9154H29.6616L22.6931 0.298096ZM39.805 0.298096L47.9574 13.0077V18.9154L35.527 0.298096H39.805ZM54.9528 0.298096H58.8003V18.9154H54.9528V0.298096ZM66.9527 3.71262H61.0335V0.298096H74.836L76.8001 3.71262H70.8271H66.9527Z" fill="#FDFDFD"/>
<path d="M88.1811 11.8424V18.9154H84.3605V11.8424" fill="#DAD8D8"/>
<path d="M90.8179 0.298096L84.3605 11.8424H88.1811L94.8806 0.298096H90.8179Z" fill="#FDFDFD"/>
<path d="M84.3605 11.8424L77.688 0.298096H81.8852L86.3785 8.21112L84.3605 11.8424Z" fill="#F8FBF8"/>
<path d="M1.653 2.46605C1.653 5.04049 3.24043 6.58516 6.41528 7.39814L9.77846 8.18403C12.7919 8.88861 14.6215 10.623 14.6215 13.4413C14.6484 14.6608 14.2448 15.8532 13.5183 16.8287C13.5183 14.0104 12.0654 12.4928 8.59462 11.5715L5.28524 10.8127C2.6216 10.2165 0.576782 8.78021 0.576782 5.71798C0.576782 4.5527 0.953459 3.38743 1.653 2.46605Z" fill="#FDFDFD"/>
<path d="M47.9573 12.0592V0.298096H51.6703V18.9154H47.9573V12.0592Z" fill="#F8FBF8"/>
<path d="M11.4466 12.7367C12.8726 13.6581 13.5183 14.9589 13.5183 16.8287C12.3076 18.3734 10.2359 19.2135 7.78745 19.2135C3.67091 19.2135 0.738211 17.1539 0.119385 13.6039H4.07449C4.5857 15.2299 5.93097 15.9887 7.76055 15.9887C9.93989 16.0158 11.4197 14.8234 11.4466 12.7367ZM3.72472 6.28706C2.37945 5.47408 1.59919 4.01071 1.653 2.43895C2.80993 0.92138 4.80094 0 7.22244 0C11.4466 0 13.8681 2.24925 14.4869 5.39278H10.6663C10.2359 4.14621 9.18654 3.17063 7.27625 3.17063C5.20452 3.19773 3.80544 4.39011 3.72472 6.28706Z" fill="#F8FBF8"/>
</g>
<defs>
<clipPath id="clip0_537_12132">
<rect width="95" height="19.2135" fill="white"/>
</clipPath>
</defs>
</svg>
