<svg width="588" height="119" viewBox="0 0 588 119" fill="none" xmlns="http://www.w3.org/2000/svg">
<path d="M66 40L522 40" stroke="#BFC0BF" stroke-linecap="round"/>
<circle cx="65.5" cy="40" r="20" fill="#A2A3A2" stroke="#FDFDFD" stroke-width="8"/>
<circle cx="65.5" cy="40" r="13.5" fill="#028352" stroke="#028352" stroke-width="5"/>
<g clip-path="url(#clip0_1003_11853)">
<path d="M70.917 30.6176C72.5509 31.561 73.9102 32.9148 74.8601 34.545C75.8101 36.1751 76.3178 38.0252 76.333 39.9119C76.3483 41.7985 75.8705 43.6565 74.947 45.3018C74.0235 46.9471 72.6863 48.3227 71.0678 49.2924C69.4493 50.2621 67.6056 50.7923 65.7193 50.8305C63.8329 50.8686 61.9693 50.4135 60.3128 49.5101C58.6564 48.6067 57.2647 47.2863 56.2754 45.6797C55.2861 44.0731 54.7335 42.236 54.6724 40.3502L54.667 39.9992L54.6724 39.6482C54.7331 37.7773 55.2775 35.954 56.2526 34.3561C57.2277 32.7583 58.6002 31.4403 60.2363 30.5308C61.8724 29.6212 63.7162 29.1512 65.5881 29.1664C67.4599 29.1816 69.2959 29.6816 70.917 30.6176ZM69.5162 37.0666C69.3297 36.8801 69.0815 36.7681 68.8182 36.7515C68.555 36.735 68.2947 36.815 68.0862 36.9767L67.9844 37.0666L64.417 40.633L63.0162 39.2333L62.9144 39.1434C62.706 38.9818 62.4457 38.9018 62.1825 38.9184C61.9193 38.9351 61.6712 39.0471 61.4847 39.2336C61.2982 39.4201 61.1861 39.6682 61.1695 39.9314C61.1529 40.1946 61.2329 40.4549 61.3945 40.6633L61.4844 40.7651L63.6511 42.9318L63.7529 43.0217C63.9429 43.1691 64.1765 43.2491 64.417 43.2491C64.6575 43.2491 64.8911 43.1691 65.0811 43.0217L65.1829 42.9318L69.5162 38.5985L69.6062 38.4966C69.7678 38.2882 69.8479 38.0279 69.8314 37.7647C69.8148 37.5014 69.7028 37.2532 69.5162 37.0666Z" fill="#FDFDFD"/>
</g>
<rect y="73" width="132" height="22" rx="10" fill="#028352"/>
<path d="M32.8 89L29.632 80.06H31.156L33.748 87.692H33.448L36.028 80.06H37.552L34.384 89H32.8ZM41.006 89.144C40.382 89.144 39.81 88.996 39.29 88.7C38.778 88.404 38.37 88 38.066 87.488C37.762 86.976 37.61 86.396 37.61 85.748C37.61 85.092 37.762 84.512 38.066 84.008C38.37 83.496 38.778 83.096 39.29 82.808C39.802 82.512 40.374 82.364 41.006 82.364C41.646 82.364 42.218 82.512 42.722 82.808C43.234 83.096 43.638 83.496 43.934 84.008C44.238 84.512 44.39 85.092 44.39 85.748C44.39 86.404 44.238 86.988 43.934 87.5C43.63 88.012 43.222 88.416 42.71 88.712C42.198 89 41.63 89.144 41.006 89.144ZM41.006 87.884C41.39 87.884 41.73 87.792 42.026 87.608C42.322 87.424 42.554 87.172 42.722 86.852C42.898 86.524 42.986 86.156 42.986 85.748C42.986 85.34 42.898 84.976 42.722 84.656C42.554 84.336 42.322 84.084 42.026 83.9C41.73 83.716 41.39 83.624 41.006 83.624C40.63 83.624 40.29 83.716 39.986 83.9C39.69 84.084 39.454 84.336 39.278 84.656C39.11 84.976 39.026 85.34 39.026 85.748C39.026 86.156 39.11 86.524 39.278 86.852C39.454 87.172 39.69 87.424 39.986 87.608C40.29 87.792 40.63 87.884 41.006 87.884ZM48.8459 89.144C48.2219 89.144 47.6499 88.996 47.1299 88.7C46.6179 88.404 46.2099 88 45.9059 87.488C45.6019 86.976 45.4499 86.396 45.4499 85.748C45.4499 85.092 45.6019 84.512 45.9059 84.008C46.2099 83.496 46.6179 83.096 47.1299 82.808C47.6419 82.512 48.2139 82.364 48.8459 82.364C49.4859 82.364 50.0579 82.512 50.5619 82.808C51.0739 83.096 51.4779 83.496 51.7739 84.008C52.0779 84.512 52.2299 85.092 52.2299 85.748C52.2299 86.404 52.0779 86.988 51.7739 87.5C51.4699 88.012 51.0619 88.416 50.5499 88.712C50.0379 89 49.4699 89.144 48.8459 89.144ZM48.8459 87.884C49.2299 87.884 49.5699 87.792 49.8659 87.608C50.1619 87.424 50.3939 87.172 50.5619 86.852C50.7379 86.524 50.8259 86.156 50.8259 85.748C50.8259 85.34 50.7379 84.976 50.5619 84.656C50.3939 84.336 50.1619 84.084 49.8659 83.9C49.5699 83.716 49.2299 83.624 48.8459 83.624C48.4699 83.624 48.1299 83.716 47.8259 83.9C47.5299 84.084 47.2939 84.336 47.1179 84.656C46.9499 84.976 46.8659 85.34 46.8659 85.748C46.8659 86.156 46.9499 86.524 47.1179 86.852C47.2939 87.172 47.5299 87.424 47.8259 87.608C48.1299 87.792 48.4699 87.884 48.8459 87.884ZM53.5537 89V82.508H54.8497V83.816L54.7297 83.624C54.8737 83.2 55.1057 82.896 55.4257 82.712C55.7457 82.52 56.1297 82.424 56.5777 82.424H56.9737V83.66H56.4097C55.9617 83.66 55.5977 83.8 55.3177 84.08C55.0457 84.352 54.9097 84.744 54.9097 85.256V89H53.5537ZM61.0334 91.64C60.5614 91.64 60.1254 91.564 59.7254 91.412C59.3254 91.26 58.9814 91.048 58.6934 90.776C58.4054 90.512 58.1894 90.2 58.0454 89.84L59.2934 89.324C59.4054 89.628 59.6094 89.88 59.9054 90.08C60.2094 90.28 60.5814 90.38 61.0214 90.38C61.3654 90.38 61.6734 90.312 61.9454 90.176C62.2174 90.048 62.4334 89.856 62.5934 89.6C62.7534 89.352 62.8334 89.052 62.8334 88.7V87.236L63.0734 87.512C62.8494 87.928 62.5374 88.244 62.1374 88.46C61.7454 88.676 61.3014 88.784 60.8054 88.784C60.2054 88.784 59.6654 88.644 59.1854 88.364C58.7054 88.084 58.3254 87.7 58.0454 87.212C57.7734 86.724 57.6374 86.176 57.6374 85.568C57.6374 84.952 57.7734 84.404 58.0454 83.924C58.3254 83.444 58.7014 83.064 59.1734 82.784C59.6454 82.504 60.1854 82.364 60.7934 82.364C61.2894 82.364 61.7294 82.472 62.1134 82.688C62.5054 82.896 62.8254 83.2 63.0734 83.6L62.8934 83.936V82.508H64.1774V88.7C64.1774 89.26 64.0414 89.76 63.7694 90.2C63.5054 90.648 63.1374 91 62.6654 91.256C62.1934 91.512 61.6494 91.64 61.0334 91.64ZM60.9614 87.524C61.3214 87.524 61.6414 87.44 61.9214 87.272C62.2014 87.096 62.4214 86.864 62.5814 86.576C62.7494 86.28 62.8334 85.948 62.8334 85.58C62.8334 85.212 62.7494 84.88 62.5814 84.584C62.4134 84.288 62.1894 84.056 61.9094 83.888C61.6294 83.712 61.3134 83.624 60.9614 83.624C60.5934 83.624 60.2654 83.712 59.9774 83.888C59.6894 84.056 59.4614 84.288 59.2934 84.584C59.1334 84.872 59.0534 85.204 59.0534 85.58C59.0534 85.94 59.1334 86.268 59.2934 86.564C59.4614 86.86 59.6894 87.096 59.9774 87.272C60.2654 87.44 60.5934 87.524 60.9614 87.524ZM68.8127 89.144C68.1647 89.144 67.5887 88.996 67.0847 88.7C66.5887 88.396 66.2007 87.988 65.9207 87.476C65.6407 86.956 65.5007 86.376 65.5007 85.736C65.5007 85.08 65.6407 84.5 65.9207 83.996C66.2087 83.492 66.5927 83.096 67.0727 82.808C67.5527 82.512 68.0967 82.364 68.7047 82.364C69.1927 82.364 69.6287 82.448 70.0127 82.616C70.3967 82.784 70.7207 83.016 70.9847 83.312C71.2487 83.6 71.4487 83.932 71.5847 84.308C71.7287 84.684 71.8007 85.084 71.8007 85.508C71.8007 85.612 71.7967 85.72 71.7887 85.832C71.7807 85.944 71.7647 86.048 71.7407 86.144H66.5687V85.064H70.9727L70.3247 85.556C70.4047 85.164 70.3767 84.816 70.2407 84.512C70.1127 84.2 69.9127 83.956 69.6407 83.78C69.3767 83.596 69.0647 83.504 68.7047 83.504C68.3447 83.504 68.0247 83.596 67.7447 83.78C67.4647 83.956 67.2487 84.212 67.0967 84.548C66.9447 84.876 66.8847 85.276 66.9167 85.748C66.8767 86.188 66.9367 86.572 67.0967 86.9C67.2647 87.228 67.4967 87.484 67.7927 87.668C68.0967 87.852 68.4407 87.944 68.8247 87.944C69.2167 87.944 69.5487 87.856 69.8207 87.68C70.1007 87.504 70.3207 87.276 70.4807 86.996L71.5847 87.536C71.4567 87.84 71.2567 88.116 70.9847 88.364C70.7207 88.604 70.4007 88.796 70.0247 88.94C69.6567 89.076 69.2527 89.144 68.8127 89.144ZM75.524 89.144C74.86 89.144 74.276 88.98 73.772 88.652C73.276 88.324 72.928 87.884 72.728 87.332L73.772 86.84C73.948 87.208 74.188 87.5 74.492 87.716C74.804 87.932 75.148 88.04 75.524 88.04C75.844 88.04 76.104 87.968 76.304 87.824C76.504 87.68 76.604 87.484 76.604 87.236C76.604 87.076 76.56 86.948 76.472 86.852C76.384 86.748 76.272 86.664 76.136 86.6C76.008 86.536 75.876 86.488 75.74 86.456L74.72 86.168C74.16 86.008 73.74 85.768 73.46 85.448C73.188 85.12 73.052 84.74 73.052 84.308C73.052 83.916 73.152 83.576 73.352 83.288C73.552 82.992 73.828 82.764 74.18 82.604C74.532 82.444 74.928 82.364 75.368 82.364C75.96 82.364 76.488 82.512 76.952 82.808C77.416 83.096 77.744 83.5 77.936 84.02L76.892 84.512C76.764 84.2 76.56 83.952 76.28 83.768C76.008 83.584 75.7 83.492 75.356 83.492C75.06 83.492 74.824 83.564 74.648 83.708C74.472 83.844 74.384 84.024 74.384 84.248C74.384 84.4 74.424 84.528 74.504 84.632C74.584 84.728 74.688 84.808 74.816 84.872C74.944 84.928 75.076 84.976 75.212 85.016L76.268 85.328C76.804 85.48 77.216 85.72 77.504 86.048C77.792 86.368 77.936 86.752 77.936 87.2C77.936 87.584 77.832 87.924 77.624 88.22C77.424 88.508 77.144 88.736 76.784 88.904C76.424 89.064 76.004 89.144 75.524 89.144ZM82.0727 89.072C81.3927 89.072 80.8647 88.88 80.4887 88.496C80.1127 88.112 79.9247 87.572 79.9247 86.876V83.732H78.7847V82.508H78.9647C79.2687 82.508 79.5047 82.42 79.6727 82.244C79.8407 82.068 79.9247 81.828 79.9247 81.524V81.02H81.2807V82.508H82.7567V83.732H81.2807V86.816C81.2807 87.04 81.3167 87.232 81.3887 87.392C81.4607 87.544 81.5767 87.664 81.7367 87.752C81.8967 87.832 82.1047 87.872 82.3607 87.872C82.4247 87.872 82.4967 87.868 82.5767 87.86C82.6567 87.852 82.7327 87.844 82.8047 87.836V89C82.6927 89.016 82.5687 89.032 82.4327 89.048C82.2967 89.064 82.1767 89.072 82.0727 89.072ZM87.0588 89.144C86.4108 89.144 85.8348 88.996 85.3308 88.7C84.8348 88.396 84.4468 87.988 84.1668 87.476C83.8868 86.956 83.7468 86.376 83.7468 85.736C83.7468 85.08 83.8868 84.5 84.1668 83.996C84.4548 83.492 84.8388 83.096 85.3188 82.808C85.7988 82.512 86.3428 82.364 86.9508 82.364C87.4388 82.364 87.8748 82.448 88.2588 82.616C88.6428 82.784 88.9668 83.016 89.2308 83.312C89.4948 83.6 89.6948 83.932 89.8307 84.308C89.9748 84.684 90.0468 85.084 90.0468 85.508C90.0468 85.612 90.0428 85.72 90.0348 85.832C90.0268 85.944 90.0108 86.048 89.9868 86.144H84.8148V85.064H89.2188L88.5708 85.556C88.6508 85.164 88.6228 84.816 88.4868 84.512C88.3588 84.2 88.1588 83.956 87.8868 83.78C87.6228 83.596 87.3108 83.504 86.9508 83.504C86.5908 83.504 86.2708 83.596 85.9908 83.78C85.7108 83.956 85.4948 84.212 85.3428 84.548C85.1908 84.876 85.1308 85.276 85.1628 85.748C85.1228 86.188 85.1828 86.572 85.3428 86.9C85.5108 87.228 85.7428 87.484 86.0388 87.668C86.3428 87.852 86.6868 87.944 87.0708 87.944C87.4628 87.944 87.7948 87.856 88.0668 87.68C88.3468 87.504 88.5668 87.276 88.7268 86.996L89.8307 87.536C89.7028 87.84 89.5028 88.116 89.2308 88.364C88.9668 88.604 88.6468 88.796 88.2708 88.94C87.9028 89.076 87.4988 89.144 87.0588 89.144ZM91.3701 89V79.916H92.7261V89H91.3701ZM97.3115 89.144C96.6875 89.144 96.1275 88.996 95.6315 88.7C95.1435 88.396 94.7555 87.988 94.4675 87.476C94.1875 86.964 94.0475 86.388 94.0475 85.748C94.0475 85.108 94.1915 84.532 94.4795 84.02C94.7675 83.508 95.1555 83.104 95.6435 82.808C96.1315 82.512 96.6835 82.364 97.2995 82.364C97.8195 82.364 98.2795 82.468 98.6795 82.676C99.0795 82.884 99.3955 83.172 99.6275 83.54L99.4235 83.852V79.916H100.768V89H99.4835V87.68L99.6395 87.932C99.4155 88.324 99.0955 88.624 98.6795 88.832C98.2635 89.04 97.8075 89.144 97.3115 89.144ZM97.4435 87.884C97.8195 87.884 98.1555 87.792 98.4515 87.608C98.7555 87.424 98.9915 87.172 99.1595 86.852C99.3355 86.524 99.4235 86.156 99.4235 85.748C99.4235 85.34 99.3355 84.976 99.1595 84.656C98.9915 84.336 98.7555 84.084 98.4515 83.9C98.1555 83.716 97.8195 83.624 97.4435 83.624C97.0675 83.624 96.7275 83.716 96.4235 83.9C96.1195 84.084 95.8835 84.336 95.7155 84.656C95.5475 84.976 95.4635 85.34 95.4635 85.748C95.4635 86.156 95.5475 86.524 95.7155 86.852C95.8835 87.172 96.1155 87.424 96.4115 87.608C96.7155 87.792 97.0595 87.884 97.4435 87.884Z" fill="#FDFDFD"/>
<circle cx="217.5" cy="40" r="20" fill="#A2A3A2" stroke="#FDFDFD" stroke-width="8"/>
<circle cx="217.5" cy="40" r="13.5" fill="#DAD8D8" stroke="#F0F0F0" stroke-width="5"/>
<rect x="152" y="73" width="132" height="22" rx="10" fill="#F0F0F0"/>
<path d="M166.424 89V80.06H167.84V89H166.424ZM169.562 89V82.508H170.858V83.78L170.702 83.612C170.862 83.204 171.118 82.896 171.47 82.688C171.822 82.472 172.23 82.364 172.694 82.364C173.174 82.364 173.598 82.468 173.966 82.676C174.334 82.884 174.622 83.172 174.83 83.54C175.038 83.908 175.142 84.332 175.142 84.812V89H173.798V85.172C173.798 84.844 173.738 84.568 173.618 84.344C173.498 84.112 173.326 83.936 173.102 83.816C172.886 83.688 172.638 83.624 172.358 83.624C172.078 83.624 171.826 83.688 171.602 83.816C171.386 83.936 171.218 84.112 171.098 84.344C170.978 84.576 170.918 84.852 170.918 85.172V89H169.562ZM181.822 89.144C181.198 89.144 180.626 88.996 180.106 88.7C179.594 88.404 179.186 88 178.882 87.488C178.578 86.976 178.426 86.396 178.426 85.748C178.426 85.092 178.578 84.512 178.882 84.008C179.186 83.496 179.594 83.096 180.106 82.808C180.618 82.512 181.19 82.364 181.822 82.364C182.462 82.364 183.034 82.512 183.538 82.808C184.05 83.096 184.454 83.496 184.75 84.008C185.054 84.512 185.206 85.092 185.206 85.748C185.206 86.404 185.054 86.988 184.75 87.5C184.446 88.012 184.038 88.416 183.526 88.712C183.014 89 182.446 89.144 181.822 89.144ZM181.822 87.884C182.206 87.884 182.546 87.792 182.842 87.608C183.138 87.424 183.37 87.172 183.538 86.852C183.714 86.524 183.802 86.156 183.802 85.748C183.802 85.34 183.714 84.976 183.538 84.656C183.37 84.336 183.138 84.084 182.842 83.9C182.546 83.716 182.206 83.624 181.822 83.624C181.446 83.624 181.106 83.716 180.802 83.9C180.506 84.084 180.27 84.336 180.094 84.656C179.926 84.976 179.842 85.34 179.842 85.748C179.842 86.156 179.926 86.524 180.094 86.852C180.27 87.172 180.506 87.424 180.802 87.608C181.106 87.792 181.446 87.884 181.822 87.884ZM186.53 89V82.508H187.826V83.78L187.67 83.612C187.83 83.204 188.086 82.896 188.438 82.688C188.79 82.472 189.198 82.364 189.662 82.364C190.142 82.364 190.566 82.468 190.934 82.676C191.302 82.884 191.59 83.172 191.798 83.54C192.006 83.908 192.11 84.332 192.11 84.812V89H190.766V85.172C190.766 84.844 190.706 84.568 190.586 84.344C190.466 84.112 190.294 83.936 190.07 83.816C189.854 83.688 189.606 83.624 189.326 83.624C189.046 83.624 188.794 83.688 188.57 83.816C188.354 83.936 188.186 84.112 188.066 84.344C187.946 84.576 187.886 84.852 187.886 85.172V89H186.53ZM196.562 89.144C195.938 89.144 195.378 88.996 194.882 88.7C194.394 88.396 194.006 87.988 193.718 87.476C193.438 86.964 193.298 86.388 193.298 85.748C193.298 85.108 193.442 84.532 193.73 84.02C194.018 83.508 194.406 83.104 194.894 82.808C195.382 82.512 195.934 82.364 196.55 82.364C197.07 82.364 197.53 82.468 197.93 82.676C198.33 82.884 198.646 83.172 198.878 83.54L198.674 83.852V79.916H200.018V89H198.734V87.68L198.89 87.932C198.666 88.324 198.346 88.624 197.93 88.832C197.514 89.04 197.058 89.144 196.562 89.144ZM196.694 87.884C197.07 87.884 197.406 87.792 197.702 87.608C198.006 87.424 198.242 87.172 198.41 86.852C198.586 86.524 198.674 86.156 198.674 85.748C198.674 85.34 198.586 84.976 198.41 84.656C198.242 84.336 198.006 84.084 197.702 83.9C197.406 83.716 197.07 83.624 196.694 83.624C196.318 83.624 195.978 83.716 195.674 83.9C195.37 84.084 195.134 84.336 194.966 84.656C194.798 84.976 194.714 85.34 194.714 85.748C194.714 86.156 194.798 86.524 194.966 86.852C195.134 87.172 195.366 87.424 195.662 87.608C195.966 87.792 196.31 87.884 196.694 87.884ZM204.649 89.144C204.001 89.144 203.425 88.996 202.921 88.7C202.425 88.396 202.037 87.988 201.757 87.476C201.477 86.956 201.337 86.376 201.337 85.736C201.337 85.08 201.477 84.5 201.757 83.996C202.045 83.492 202.429 83.096 202.909 82.808C203.389 82.512 203.933 82.364 204.541 82.364C205.029 82.364 205.465 82.448 205.849 82.616C206.233 82.784 206.557 83.016 206.821 83.312C207.085 83.6 207.285 83.932 207.421 84.308C207.565 84.684 207.637 85.084 207.637 85.508C207.637 85.612 207.633 85.72 207.625 85.832C207.617 85.944 207.601 86.048 207.577 86.144H202.405V85.064H206.809L206.161 85.556C206.241 85.164 206.213 84.816 206.077 84.512C205.949 84.2 205.749 83.956 205.477 83.78C205.213 83.596 204.901 83.504 204.541 83.504C204.181 83.504 203.861 83.596 203.581 83.78C203.301 83.956 203.085 84.212 202.933 84.548C202.781 84.876 202.721 85.276 202.753 85.748C202.713 86.188 202.773 86.572 202.933 86.9C203.101 87.228 203.333 87.484 203.629 87.668C203.933 87.852 204.277 87.944 204.661 87.944C205.053 87.944 205.385 87.856 205.657 87.68C205.937 87.504 206.157 87.276 206.317 86.996L207.421 87.536C207.293 87.84 207.093 88.116 206.821 88.364C206.557 88.604 206.237 88.796 205.861 88.94C205.493 89.076 205.089 89.144 204.649 89.144ZM208.96 89V82.508H210.256V83.816L210.136 83.624C210.28 83.2 210.512 82.896 210.832 82.712C211.152 82.52 211.536 82.424 211.984 82.424H212.38V83.66H211.816C211.368 83.66 211.004 83.8 210.724 84.08C210.452 84.352 210.316 84.744 210.316 85.256V89H208.96ZM213.308 89V79.916H214.664V83.78L214.448 83.612C214.608 83.204 214.864 82.896 215.216 82.688C215.568 82.472 215.976 82.364 216.44 82.364C216.92 82.364 217.344 82.468 217.712 82.676C218.08 82.884 218.368 83.172 218.576 83.54C218.784 83.908 218.888 84.328 218.888 84.8V89H217.544V85.172C217.544 84.844 217.48 84.568 217.352 84.344C217.232 84.112 217.064 83.936 216.848 83.816C216.632 83.688 216.384 83.624 216.104 83.624C215.832 83.624 215.584 83.688 215.36 83.816C215.144 83.936 214.972 84.112 214.844 84.344C214.724 84.576 214.664 84.852 214.664 85.172V89H213.308ZM222.283 89.144C221.843 89.144 221.455 89.068 221.119 88.916C220.791 88.756 220.535 88.54 220.351 88.268C220.167 87.988 220.075 87.66 220.075 87.284C220.075 86.932 220.151 86.616 220.303 86.336C220.463 86.056 220.707 85.82 221.035 85.628C221.363 85.436 221.775 85.3 222.271 85.22L224.527 84.848V85.916L222.535 86.264C222.175 86.328 221.911 86.444 221.743 86.612C221.575 86.772 221.491 86.98 221.491 87.236C221.491 87.484 221.583 87.688 221.767 87.848C221.959 88 222.203 88.076 222.499 88.076C222.867 88.076 223.187 87.996 223.459 87.836C223.739 87.676 223.955 87.464 224.107 87.2C224.259 86.928 224.335 86.628 224.335 86.3V84.632C224.335 84.312 224.215 84.052 223.975 83.852C223.743 83.644 223.431 83.54 223.039 83.54C222.679 83.54 222.363 83.636 222.091 83.828C221.827 84.012 221.631 84.252 221.503 84.548L220.375 83.984C220.495 83.664 220.691 83.384 220.963 83.144C221.235 82.896 221.551 82.704 221.911 82.568C222.279 82.432 222.667 82.364 223.075 82.364C223.587 82.364 224.039 82.46 224.431 82.652C224.831 82.844 225.139 83.112 225.355 83.456C225.579 83.792 225.691 84.184 225.691 84.632V89H224.395V87.824L224.671 87.86C224.519 88.124 224.323 88.352 224.083 88.544C223.851 88.736 223.583 88.884 223.279 88.988C222.983 89.092 222.651 89.144 222.283 89.144ZM227.276 89V82.508H228.572V83.78L228.416 83.612C228.576 83.204 228.832 82.896 229.184 82.688C229.536 82.472 229.944 82.364 230.408 82.364C230.888 82.364 231.312 82.468 231.68 82.676C232.048 82.884 232.336 83.172 232.544 83.54C232.752 83.908 232.856 84.332 232.856 84.812V89H231.512V85.172C231.512 84.844 231.452 84.568 231.332 84.344C231.212 84.112 231.04 83.936 230.816 83.816C230.6 83.688 230.352 83.624 230.072 83.624C229.792 83.624 229.54 83.688 229.316 83.816C229.1 83.936 228.932 84.112 228.812 84.344C228.692 84.576 228.632 84.852 228.632 85.172V89H227.276ZM237.308 89.144C236.684 89.144 236.124 88.996 235.628 88.7C235.14 88.396 234.752 87.988 234.464 87.476C234.184 86.964 234.044 86.388 234.044 85.748C234.044 85.108 234.188 84.532 234.476 84.02C234.764 83.508 235.152 83.104 235.64 82.808C236.128 82.512 236.68 82.364 237.296 82.364C237.816 82.364 238.276 82.468 238.676 82.676C239.076 82.884 239.392 83.172 239.624 83.54L239.42 83.852V79.916H240.764V89H239.48V87.68L239.636 87.932C239.412 88.324 239.092 88.624 238.676 88.832C238.26 89.04 237.804 89.144 237.308 89.144ZM237.44 87.884C237.816 87.884 238.152 87.792 238.448 87.608C238.752 87.424 238.988 87.172 239.156 86.852C239.332 86.524 239.42 86.156 239.42 85.748C239.42 85.34 239.332 84.976 239.156 84.656C238.988 84.336 238.752 84.084 238.448 83.9C238.152 83.716 237.816 83.624 237.44 83.624C237.064 83.624 236.724 83.716 236.42 83.9C236.116 84.084 235.88 84.336 235.712 84.656C235.544 84.976 235.46 85.34 235.46 85.748C235.46 86.156 235.544 86.524 235.712 86.852C235.88 87.172 236.112 87.424 236.408 87.608C236.712 87.792 237.056 87.884 237.44 87.884ZM245.395 89.144C244.747 89.144 244.171 88.996 243.667 88.7C243.171 88.396 242.783 87.988 242.503 87.476C242.223 86.956 242.083 86.376 242.083 85.736C242.083 85.08 242.223 84.5 242.503 83.996C242.791 83.492 243.175 83.096 243.655 82.808C244.135 82.512 244.679 82.364 245.287 82.364C245.775 82.364 246.211 82.448 246.595 82.616C246.979 82.784 247.303 83.016 247.567 83.312C247.831 83.6 248.031 83.932 248.167 84.308C248.311 84.684 248.383 85.084 248.383 85.508C248.383 85.612 248.379 85.72 248.371 85.832C248.363 85.944 248.347 86.048 248.323 86.144H243.151V85.064H247.555L246.907 85.556C246.987 85.164 246.959 84.816 246.823 84.512C246.695 84.2 246.495 83.956 246.223 83.78C245.959 83.596 245.647 83.504 245.287 83.504C244.927 83.504 244.607 83.596 244.327 83.78C244.047 83.956 243.831 84.212 243.679 84.548C243.527 84.876 243.467 85.276 243.499 85.748C243.459 86.188 243.519 86.572 243.679 86.9C243.847 87.228 244.079 87.484 244.375 87.668C244.679 87.852 245.023 87.944 245.407 87.944C245.799 87.944 246.131 87.856 246.403 87.68C246.683 87.504 246.903 87.276 247.063 86.996L248.167 87.536C248.039 87.84 247.839 88.116 247.567 88.364C247.303 88.604 246.983 88.796 246.607 88.94C246.239 89.076 245.835 89.144 245.395 89.144ZM249.706 89V79.916H251.062V89H249.706ZM252.647 89V82.508H254.003V89H252.647ZM252.647 81.62V80.06H254.003V81.62H252.647ZM255.589 89V82.508H256.885V83.78L256.729 83.612C256.889 83.204 257.145 82.896 257.497 82.688C257.849 82.472 258.257 82.364 258.721 82.364C259.201 82.364 259.625 82.468 259.993 82.676C260.361 82.884 260.649 83.172 260.857 83.54C261.065 83.908 261.169 84.332 261.169 84.812V89H259.825V85.172C259.825 84.844 259.765 84.568 259.645 84.344C259.525 84.112 259.353 83.936 259.129 83.816C258.913 83.688 258.665 83.624 258.385 83.624C258.105 83.624 257.853 83.688 257.629 83.816C257.413 83.936 257.245 84.112 257.125 84.344C257.005 84.576 256.945 84.852 256.945 85.172V89H255.589ZM265.752 91.64C265.28 91.64 264.844 91.564 264.444 91.412C264.044 91.26 263.7 91.048 263.412 90.776C263.124 90.512 262.908 90.2 262.764 89.84L264.012 89.324C264.124 89.628 264.328 89.88 264.624 90.08C264.928 90.28 265.3 90.38 265.74 90.38C266.084 90.38 266.392 90.312 266.664 90.176C266.936 90.048 267.152 89.856 267.312 89.6C267.472 89.352 267.552 89.052 267.552 88.7V87.236L267.792 87.512C267.568 87.928 267.256 88.244 266.856 88.46C266.464 88.676 266.02 88.784 265.524 88.784C264.924 88.784 264.384 88.644 263.904 88.364C263.424 88.084 263.044 87.7 262.764 87.212C262.492 86.724 262.356 86.176 262.356 85.568C262.356 84.952 262.492 84.404 262.764 83.924C263.044 83.444 263.42 83.064 263.892 82.784C264.364 82.504 264.904 82.364 265.512 82.364C266.008 82.364 266.448 82.472 266.832 82.688C267.224 82.896 267.544 83.2 267.792 83.6L267.612 83.936V82.508H268.896V88.7C268.896 89.26 268.76 89.76 268.488 90.2C268.224 90.648 267.856 91 267.384 91.256C266.912 91.512 266.368 91.64 265.752 91.64ZM265.68 87.524C266.04 87.524 266.36 87.44 266.64 87.272C266.92 87.096 267.14 86.864 267.3 86.576C267.468 86.28 267.552 85.948 267.552 85.58C267.552 85.212 267.468 84.88 267.3 84.584C267.132 84.288 266.908 84.056 266.628 83.888C266.348 83.712 266.032 83.624 265.68 83.624C265.312 83.624 264.984 83.712 264.696 83.888C264.408 84.056 264.18 84.288 264.012 84.584C263.852 84.872 263.772 85.204 263.772 85.58C263.772 85.94 263.852 86.268 264.012 86.564C264.18 86.86 264.408 87.096 264.696 87.272C264.984 87.44 265.312 87.524 265.68 87.524Z" fill="#676868"/>
<circle cx="369.5" cy="40" r="20" fill="#A2A3A2" stroke="#FDFDFD" stroke-width="8"/>
<circle cx="369.5" cy="40" r="13.5" fill="#DAD8D8" stroke="#F0F0F0" stroke-width="5"/>
<rect x="304" y="73" width="132" height="22" rx="10" fill="#F0F0F0"/>
<path d="M331.132 89L334.276 80.06H336.028L339.172 89H337.66L336.976 86.996H333.34L332.644 89H331.132ZM333.748 85.736H336.544L334.96 81.056H335.356L333.748 85.736ZM342.045 89.144C341.605 89.144 341.217 89.068 340.881 88.916C340.553 88.756 340.297 88.54 340.113 88.268C339.929 87.988 339.837 87.66 339.837 87.284C339.837 86.932 339.913 86.616 340.065 86.336C340.225 86.056 340.469 85.82 340.797 85.628C341.125 85.436 341.537 85.3 342.033 85.22L344.289 84.848V85.916L342.297 86.264C341.937 86.328 341.673 86.444 341.505 86.612C341.337 86.772 341.253 86.98 341.253 87.236C341.253 87.484 341.345 87.688 341.529 87.848C341.721 88 341.965 88.076 342.261 88.076C342.629 88.076 342.949 87.996 343.221 87.836C343.501 87.676 343.717 87.464 343.869 87.2C344.021 86.928 344.097 86.628 344.097 86.3V84.632C344.097 84.312 343.977 84.052 343.737 83.852C343.505 83.644 343.193 83.54 342.801 83.54C342.441 83.54 342.125 83.636 341.853 83.828C341.589 84.012 341.393 84.252 341.265 84.548L340.137 83.984C340.257 83.664 340.453 83.384 340.725 83.144C340.997 82.896 341.313 82.704 341.673 82.568C342.041 82.432 342.429 82.364 342.837 82.364C343.349 82.364 343.801 82.46 344.193 82.652C344.593 82.844 344.901 83.112 345.117 83.456C345.341 83.792 345.453 84.184 345.453 84.632V89H344.157V87.824L344.433 87.86C344.281 88.124 344.085 88.352 343.845 88.544C343.613 88.736 343.345 88.884 343.041 88.988C342.745 89.092 342.413 89.144 342.045 89.144ZM347.038 89V82.508H348.334V83.78L348.178 83.612C348.338 83.204 348.594 82.896 348.946 82.688C349.298 82.472 349.706 82.364 350.17 82.364C350.65 82.364 351.074 82.468 351.442 82.676C351.81 82.884 352.098 83.172 352.306 83.54C352.514 83.908 352.618 84.332 352.618 84.812V89H351.274V85.172C351.274 84.844 351.214 84.568 351.094 84.344C350.974 84.112 350.802 83.936 350.578 83.816C350.362 83.688 350.114 83.624 349.834 83.624C349.554 83.624 349.302 83.688 349.078 83.816C348.862 83.936 348.694 84.112 348.574 84.344C348.454 84.576 348.394 84.852 348.394 85.172V89H347.038ZM357.201 91.64C356.729 91.64 356.293 91.564 355.893 91.412C355.493 91.26 355.149 91.048 354.861 90.776C354.573 90.512 354.357 90.2 354.213 89.84L355.461 89.324C355.573 89.628 355.777 89.88 356.073 90.08C356.377 90.28 356.749 90.38 357.189 90.38C357.533 90.38 357.841 90.312 358.113 90.176C358.385 90.048 358.601 89.856 358.761 89.6C358.921 89.352 359.001 89.052 359.001 88.7V87.236L359.241 87.512C359.017 87.928 358.705 88.244 358.305 88.46C357.913 88.676 357.469 88.784 356.973 88.784C356.373 88.784 355.833 88.644 355.353 88.364C354.873 88.084 354.493 87.7 354.213 87.212C353.941 86.724 353.805 86.176 353.805 85.568C353.805 84.952 353.941 84.404 354.213 83.924C354.493 83.444 354.869 83.064 355.341 82.784C355.813 82.504 356.353 82.364 356.961 82.364C357.457 82.364 357.897 82.472 358.281 82.688C358.673 82.896 358.993 83.2 359.241 83.6L359.061 83.936V82.508H360.345V88.7C360.345 89.26 360.209 89.76 359.937 90.2C359.673 90.648 359.305 91 358.833 91.256C358.361 91.512 357.817 91.64 357.201 91.64ZM357.129 87.524C357.489 87.524 357.809 87.44 358.089 87.272C358.369 87.096 358.589 86.864 358.749 86.576C358.917 86.28 359.001 85.948 359.001 85.58C359.001 85.212 358.917 84.88 358.749 84.584C358.581 84.288 358.357 84.056 358.077 83.888C357.797 83.712 357.481 83.624 357.129 83.624C356.761 83.624 356.433 83.712 356.145 83.888C355.857 84.056 355.629 84.288 355.461 84.584C355.301 84.872 355.221 85.204 355.221 85.58C355.221 85.94 355.301 86.268 355.461 86.564C355.629 86.86 355.857 87.096 356.145 87.272C356.433 87.44 356.761 87.524 357.129 87.524ZM364.981 89.144C364.333 89.144 363.757 88.996 363.253 88.7C362.757 88.396 362.369 87.988 362.089 87.476C361.809 86.956 361.669 86.376 361.669 85.736C361.669 85.08 361.809 84.5 362.089 83.996C362.377 83.492 362.761 83.096 363.241 82.808C363.721 82.512 364.265 82.364 364.873 82.364C365.361 82.364 365.797 82.448 366.181 82.616C366.565 82.784 366.889 83.016 367.153 83.312C367.417 83.6 367.617 83.932 367.753 84.308C367.897 84.684 367.969 85.084 367.969 85.508C367.969 85.612 367.965 85.72 367.957 85.832C367.949 85.944 367.933 86.048 367.909 86.144H362.737V85.064H367.141L366.493 85.556C366.573 85.164 366.545 84.816 366.409 84.512C366.281 84.2 366.081 83.956 365.809 83.78C365.545 83.596 365.233 83.504 364.873 83.504C364.513 83.504 364.193 83.596 363.913 83.78C363.633 83.956 363.417 84.212 363.265 84.548C363.113 84.876 363.053 85.276 363.085 85.748C363.045 86.188 363.105 86.572 363.265 86.9C363.433 87.228 363.665 87.484 363.961 87.668C364.265 87.852 364.609 87.944 364.993 87.944C365.385 87.944 365.717 87.856 365.989 87.68C366.269 87.504 366.489 87.276 366.649 86.996L367.753 87.536C367.625 87.84 367.425 88.116 367.153 88.364C366.889 88.604 366.569 88.796 366.193 88.94C365.825 89.076 365.421 89.144 364.981 89.144ZM369.292 89V82.508H370.588V83.78L370.432 83.612C370.592 83.204 370.848 82.896 371.2 82.688C371.552 82.472 371.96 82.364 372.424 82.364C372.904 82.364 373.328 82.468 373.696 82.676C374.064 82.884 374.352 83.172 374.56 83.54C374.768 83.908 374.872 84.332 374.872 84.812V89H373.528V85.172C373.528 84.844 373.468 84.568 373.348 84.344C373.228 84.112 373.056 83.936 372.832 83.816C372.616 83.688 372.368 83.624 372.088 83.624C371.808 83.624 371.556 83.688 371.332 83.816C371.116 83.936 370.948 84.112 370.828 84.344C370.708 84.576 370.648 84.852 370.648 85.172V89H369.292ZM379.455 89.144C378.831 89.144 378.259 88.996 377.739 88.7C377.227 88.404 376.819 88 376.515 87.488C376.211 86.976 376.059 86.396 376.059 85.748C376.059 85.092 376.211 84.512 376.515 84.008C376.819 83.496 377.227 83.096 377.739 82.808C378.251 82.512 378.823 82.364 379.455 82.364C380.095 82.364 380.667 82.512 381.171 82.808C381.683 83.096 382.087 83.496 382.383 84.008C382.687 84.512 382.839 85.092 382.839 85.748C382.839 86.404 382.687 86.988 382.383 87.5C382.079 88.012 381.671 88.416 381.159 88.712C380.647 89 380.079 89.144 379.455 89.144ZM379.455 87.884C379.839 87.884 380.179 87.792 380.475 87.608C380.771 87.424 381.003 87.172 381.171 86.852C381.347 86.524 381.435 86.156 381.435 85.748C381.435 85.34 381.347 84.976 381.171 84.656C381.003 84.336 380.771 84.084 380.475 83.9C380.179 83.716 379.839 83.624 379.455 83.624C379.079 83.624 378.739 83.716 378.435 83.9C378.139 84.084 377.903 84.336 377.727 84.656C377.559 84.976 377.475 85.34 377.475 85.748C377.475 86.156 377.559 86.524 377.727 86.852C377.903 87.172 378.139 87.424 378.435 87.608C378.739 87.792 379.079 87.884 379.455 87.884ZM384.163 89V82.508H385.459V83.912L385.291 83.696C385.427 83.256 385.675 82.924 386.035 82.7C386.395 82.476 386.807 82.364 387.271 82.364C387.791 82.364 388.251 82.504 388.651 82.784C389.059 83.056 389.331 83.42 389.467 83.876L389.083 83.912C389.275 83.392 389.567 83.004 389.959 82.748C390.359 82.492 390.815 82.364 391.327 82.364C391.775 82.364 392.179 82.468 392.539 82.676C392.907 82.884 393.199 83.172 393.415 83.54C393.631 83.908 393.739 84.328 393.739 84.8V89H392.383V85.172C392.383 84.844 392.323 84.568 392.203 84.344C392.091 84.112 391.931 83.936 391.723 83.816C391.523 83.688 391.287 83.624 391.015 83.624C390.743 83.624 390.503 83.688 390.295 83.816C390.087 83.936 389.923 84.112 389.803 84.344C389.683 84.576 389.623 84.852 389.623 85.172V89H388.279V85.172C388.279 84.844 388.219 84.568 388.099 84.344C387.987 84.112 387.827 83.936 387.619 83.816C387.419 83.688 387.179 83.624 386.899 83.624C386.627 83.624 386.387 83.688 386.179 83.816C385.971 83.936 385.807 84.112 385.687 84.344C385.575 84.576 385.519 84.852 385.519 85.172V89H384.163ZM398.238 89.144C397.59 89.144 397.014 88.996 396.51 88.7C396.014 88.396 395.626 87.988 395.346 87.476C395.066 86.956 394.926 86.376 394.926 85.736C394.926 85.08 395.066 84.5 395.346 83.996C395.634 83.492 396.018 83.096 396.498 82.808C396.978 82.512 397.522 82.364 398.13 82.364C398.618 82.364 399.054 82.448 399.438 82.616C399.822 82.784 400.146 83.016 400.41 83.312C400.674 83.6 400.874 83.932 401.01 84.308C401.154 84.684 401.226 85.084 401.226 85.508C401.226 85.612 401.222 85.72 401.214 85.832C401.206 85.944 401.19 86.048 401.166 86.144H395.994V85.064H400.398L399.75 85.556C399.83 85.164 399.802 84.816 399.666 84.512C399.538 84.2 399.338 83.956 399.066 83.78C398.802 83.596 398.49 83.504 398.13 83.504C397.77 83.504 397.45 83.596 397.17 83.78C396.89 83.956 396.674 84.212 396.522 84.548C396.37 84.876 396.31 85.276 396.342 85.748C396.302 86.188 396.362 86.572 396.522 86.9C396.69 87.228 396.922 87.484 397.218 87.668C397.522 87.852 397.866 87.944 398.25 87.944C398.642 87.944 398.974 87.856 399.246 87.68C399.526 87.504 399.746 87.276 399.906 86.996L401.01 87.536C400.882 87.84 400.682 88.116 400.41 88.364C400.146 88.604 399.826 88.796 399.45 88.94C399.082 89.076 398.678 89.144 398.238 89.144ZM402.55 89V82.508H403.846V83.78L403.69 83.612C403.85 83.204 404.106 82.896 404.458 82.688C404.81 82.472 405.218 82.364 405.682 82.364C406.162 82.364 406.586 82.468 406.954 82.676C407.322 82.884 407.61 83.172 407.818 83.54C408.026 83.908 408.13 84.332 408.13 84.812V89H406.786V85.172C406.786 84.844 406.726 84.568 406.606 84.344C406.486 84.112 406.314 83.936 406.09 83.816C405.874 83.688 405.626 83.624 405.346 83.624C405.066 83.624 404.814 83.688 404.59 83.816C404.374 83.936 404.206 84.112 404.086 84.344C403.966 84.576 403.906 84.852 403.906 85.172V89H402.55Z" fill="#676868"/>
<circle cx="521.5" cy="40" r="20" fill="#A2A3A2" stroke="#FDFDFD" stroke-width="8"/>
<circle cx="521.5" cy="40" r="13.5" fill="#DAD8D8" stroke="#F0F0F0" stroke-width="5"/>
<rect x="456" y="73" width="132" height="22" rx="10" fill="#F0F0F0"/>
<path d="M491.424 89V80.06H494.352C495.28 80.06 496.084 80.248 496.764 80.624C497.452 80.992 497.984 81.512 498.36 82.184C498.736 82.856 498.924 83.636 498.924 84.524C498.924 85.404 498.736 86.184 498.36 86.864C497.984 87.536 497.452 88.06 496.764 88.436C496.084 88.812 495.28 89 494.352 89H491.424ZM492.84 87.74H494.376C495.008 87.74 495.556 87.608 496.02 87.344C496.492 87.08 496.856 86.708 497.112 86.228C497.368 85.748 497.496 85.18 497.496 84.524C497.496 83.868 497.364 83.304 497.1 82.832C496.844 82.352 496.484 81.98 496.02 81.716C495.556 81.452 495.008 81.32 494.376 81.32H492.84V87.74ZM503.319 89.144C502.695 89.144 502.123 88.996 501.603 88.7C501.091 88.404 500.683 88 500.379 87.488C500.075 86.976 499.923 86.396 499.923 85.748C499.923 85.092 500.075 84.512 500.379 84.008C500.683 83.496 501.091 83.096 501.603 82.808C502.115 82.512 502.687 82.364 503.319 82.364C503.959 82.364 504.531 82.512 505.035 82.808C505.547 83.096 505.951 83.496 506.247 84.008C506.551 84.512 506.703 85.092 506.703 85.748C506.703 86.404 506.551 86.988 506.247 87.5C505.943 88.012 505.535 88.416 505.023 88.712C504.511 89 503.943 89.144 503.319 89.144ZM503.319 87.884C503.703 87.884 504.043 87.792 504.339 87.608C504.635 87.424 504.867 87.172 505.035 86.852C505.211 86.524 505.299 86.156 505.299 85.748C505.299 85.34 505.211 84.976 505.035 84.656C504.867 84.336 504.635 84.084 504.339 83.9C504.043 83.716 503.703 83.624 503.319 83.624C502.943 83.624 502.603 83.716 502.299 83.9C502.003 84.084 501.767 84.336 501.591 84.656C501.423 84.976 501.339 85.34 501.339 85.748C501.339 86.156 501.423 86.524 501.591 86.852C501.767 87.172 502.003 87.424 502.299 87.608C502.603 87.792 502.943 87.884 503.319 87.884ZM511.158 89.144C510.534 89.144 509.962 88.996 509.442 88.7C508.93 88.404 508.522 88 508.218 87.488C507.914 86.976 507.762 86.396 507.762 85.748C507.762 85.092 507.914 84.512 508.218 84.008C508.522 83.496 508.93 83.096 509.442 82.808C509.954 82.512 510.526 82.364 511.158 82.364C511.798 82.364 512.37 82.512 512.874 82.808C513.386 83.096 513.79 83.496 514.086 84.008C514.39 84.512 514.542 85.092 514.542 85.748C514.542 86.404 514.39 86.988 514.086 87.5C513.782 88.012 513.374 88.416 512.862 88.712C512.35 89 511.782 89.144 511.158 89.144ZM511.158 87.884C511.542 87.884 511.882 87.792 512.178 87.608C512.474 87.424 512.706 87.172 512.874 86.852C513.05 86.524 513.138 86.156 513.138 85.748C513.138 85.34 513.05 84.976 512.874 84.656C512.706 84.336 512.474 84.084 512.178 83.9C511.882 83.716 511.542 83.624 511.158 83.624C510.782 83.624 510.442 83.716 510.138 83.9C509.842 84.084 509.606 84.336 509.43 84.656C509.262 84.976 509.178 85.34 509.178 85.748C509.178 86.156 509.262 86.524 509.43 86.852C509.606 87.172 509.842 87.424 510.138 87.608C510.442 87.792 510.782 87.884 511.158 87.884ZM515.866 89V82.508H517.162V83.816L517.042 83.624C517.186 83.2 517.418 82.896 517.738 82.712C518.058 82.52 518.442 82.424 518.89 82.424H519.286V83.66H518.722C518.274 83.66 517.91 83.8 517.63 84.08C517.358 84.352 517.222 84.744 517.222 85.256V89H515.866ZM523.346 91.64C522.874 91.64 522.438 91.564 522.038 91.412C521.638 91.26 521.294 91.048 521.006 90.776C520.718 90.512 520.502 90.2 520.358 89.84L521.606 89.324C521.718 89.628 521.922 89.88 522.218 90.08C522.522 90.28 522.894 90.38 523.334 90.38C523.678 90.38 523.986 90.312 524.258 90.176C524.53 90.048 524.746 89.856 524.906 89.6C525.066 89.352 525.146 89.052 525.146 88.7V87.236L525.386 87.512C525.162 87.928 524.85 88.244 524.45 88.46C524.058 88.676 523.614 88.784 523.118 88.784C522.518 88.784 521.978 88.644 521.498 88.364C521.018 88.084 520.638 87.7 520.358 87.212C520.086 86.724 519.95 86.176 519.95 85.568C519.95 84.952 520.086 84.404 520.358 83.924C520.638 83.444 521.014 83.064 521.486 82.784C521.958 82.504 522.498 82.364 523.106 82.364C523.602 82.364 524.042 82.472 524.426 82.688C524.818 82.896 525.138 83.2 525.386 83.6L525.206 83.936V82.508H526.49V88.7C526.49 89.26 526.354 89.76 526.082 90.2C525.818 90.648 525.45 91 524.978 91.256C524.506 91.512 523.962 91.64 523.346 91.64ZM523.274 87.524C523.634 87.524 523.954 87.44 524.234 87.272C524.514 87.096 524.734 86.864 524.894 86.576C525.062 86.28 525.146 85.948 525.146 85.58C525.146 85.212 525.062 84.88 524.894 84.584C524.726 84.288 524.502 84.056 524.222 83.888C523.942 83.712 523.626 83.624 523.274 83.624C522.906 83.624 522.578 83.712 522.29 83.888C522.002 84.056 521.774 84.288 521.606 84.584C521.446 84.872 521.366 85.204 521.366 85.58C521.366 85.94 521.446 86.268 521.606 86.564C521.774 86.86 522.002 87.096 522.29 87.272C522.578 87.44 522.906 87.524 523.274 87.524ZM531.125 89.144C530.477 89.144 529.901 88.996 529.397 88.7C528.901 88.396 528.513 87.988 528.233 87.476C527.953 86.956 527.813 86.376 527.813 85.736C527.813 85.08 527.953 84.5 528.233 83.996C528.521 83.492 528.905 83.096 529.385 82.808C529.865 82.512 530.409 82.364 531.017 82.364C531.505 82.364 531.941 82.448 532.325 82.616C532.709 82.784 533.033 83.016 533.297 83.312C533.561 83.6 533.761 83.932 533.897 84.308C534.041 84.684 534.113 85.084 534.113 85.508C534.113 85.612 534.109 85.72 534.101 85.832C534.093 85.944 534.077 86.048 534.053 86.144H528.881V85.064H533.285L532.637 85.556C532.717 85.164 532.689 84.816 532.553 84.512C532.425 84.2 532.225 83.956 531.953 83.78C531.689 83.596 531.377 83.504 531.017 83.504C530.657 83.504 530.337 83.596 530.057 83.78C529.777 83.956 529.561 84.212 529.409 84.548C529.257 84.876 529.197 85.276 529.229 85.748C529.189 86.188 529.249 86.572 529.409 86.9C529.577 87.228 529.809 87.484 530.105 87.668C530.409 87.852 530.753 87.944 531.137 87.944C531.529 87.944 531.861 87.856 532.133 87.68C532.413 87.504 532.633 87.276 532.793 86.996L533.897 87.536C533.769 87.84 533.569 88.116 533.297 88.364C533.033 88.604 532.713 88.796 532.337 88.94C531.969 89.076 531.565 89.144 531.125 89.144ZM534.849 89V87.884L538.665 83.264L538.881 83.732H535.029V82.508H540.081V83.612L536.313 88.244L536.097 87.764H540.093V89H534.849ZM544.133 89.144C543.485 89.144 542.909 88.996 542.405 88.7C541.909 88.396 541.521 87.988 541.241 87.476C540.961 86.956 540.821 86.376 540.821 85.736C540.821 85.08 540.961 84.5 541.241 83.996C541.529 83.492 541.913 83.096 542.393 82.808C542.873 82.512 543.417 82.364 544.025 82.364C544.513 82.364 544.949 82.448 545.333 82.616C545.717 82.784 546.041 83.016 546.305 83.312C546.569 83.6 546.769 83.932 546.905 84.308C547.049 84.684 547.121 85.084 547.121 85.508C547.121 85.612 547.117 85.72 547.109 85.832C547.101 85.944 547.085 86.048 547.061 86.144H541.889V85.064H546.293L545.645 85.556C545.725 85.164 545.697 84.816 545.561 84.512C545.433 84.2 545.233 83.956 544.961 83.78C544.697 83.596 544.385 83.504 544.025 83.504C543.665 83.504 543.345 83.596 543.065 83.78C542.785 83.956 542.569 84.212 542.417 84.548C542.265 84.876 542.205 85.276 542.237 85.748C542.197 86.188 542.257 86.572 542.417 86.9C542.585 87.228 542.817 87.484 543.113 87.668C543.417 87.852 543.761 87.944 544.145 87.944C544.537 87.944 544.869 87.856 545.141 87.68C545.421 87.504 545.641 87.276 545.801 86.996L546.905 87.536C546.777 87.84 546.577 88.116 546.305 88.364C546.041 88.604 545.721 88.796 545.345 88.94C544.977 89.076 544.573 89.144 544.133 89.144ZM551.252 89.072C550.572 89.072 550.044 88.88 549.668 88.496C549.292 88.112 549.104 87.572 549.104 86.876V83.732H547.964V82.508H548.144C548.448 82.508 548.684 82.42 548.852 82.244C549.02 82.068 549.104 81.828 549.104 81.524V81.02H550.46V82.508H551.936V83.732H550.46V86.816C550.46 87.04 550.496 87.232 550.568 87.392C550.64 87.544 550.756 87.664 550.916 87.752C551.076 87.832 551.284 87.872 551.54 87.872C551.604 87.872 551.676 87.868 551.756 87.86C551.836 87.852 551.912 87.844 551.984 87.836V89C551.872 89.016 551.748 89.032 551.612 89.048C551.476 89.064 551.356 89.072 551.252 89.072Z" fill="#676868"/>
<defs>
<clipPath id="clip0_1003_11853">
<rect width="26" height="26" fill="white" transform="translate(52.5 27)"/>
</clipPath>
</defs>
</svg>
