<svg width="90" height="90" viewBox="0 0 90 90" fill="none" xmlns="http://www.w3.org/2000/svg">
<g id="Property 1=Kleding" clip-path="url(#clip0_2300_35453)">
<path id="Vector" d="M90.0004 14.0424V15.0517C89.8553 15.416 89.7217 15.7846 89.5652 16.14C87.2252 21.4543 84.8852 26.7642 82.5414 32.074C81.8009 33.746 81.0336 34.1234 79.4609 33.5924C77.2163 32.8332 74.9756 32.0565 72.731 31.2929C72.4104 31.1832 72.0859 31.0998 71.666 30.9769V32.4251C71.666 50.483 71.666 68.5409 71.6622 86.5945C71.6622 87.0947 71.6316 87.6038 71.5553 88.0953C71.3988 89.0914 70.8644 89.7058 69.994 89.8769C69.5932 89.9559 69.1809 89.9954 68.7763 89.9954C52.9231 89.9998 37.07 89.9998 21.213 89.9954C20.7778 89.9954 20.335 89.9559 19.9075 89.8594C19.0791 89.6751 18.5638 89.0739 18.4149 88.1172C18.3386 87.6257 18.3042 87.1167 18.3042 86.6164C18.3004 68.5278 18.3004 50.4347 18.3004 32.3461V30.9769C17.8729 31.0998 17.5637 31.1788 17.2583 31.2841C15.0405 32.0389 12.8264 32.7981 10.6124 33.5529C8.90991 34.1321 8.18844 33.7899 7.40208 32.0038C5.08118 26.751 2.77172 21.4982 0.462271 16.241C-0.408069 14.2618 -0.0683312 13.1253 1.68762 12.1906C5.48199 10.1675 9.33363 8.27179 13.0669 6.10835C18.0523 3.22083 23.324 1.41285 28.7598 0.144624C30.6302 -0.28982 31.4433 0.25872 31.9472 2.33878C33.6153 9.25038 38.7801 13.845 44.9221 13.8888C51.0985 13.9327 56.3091 9.3206 58.0345 2.28173C58.5193 0.298215 59.3362 -0.276655 61.0883 0.122682C61.3479 0.17973 61.6075 0.23239 61.8594 0.315768C65.3713 1.46112 69.0053 2.26857 72.3684 3.8352C77.7049 6.31899 82.8583 9.32059 88.0994 12.0765C88.9277 12.5109 89.6187 13.0682 90.0004 14.0468V14.0424Z" fill="#035E46"/>
<path id="Vector_2" d="M36.6074 1.65869C42.1921 3.11561 47.7462 3.12877 53.3157 1.65869C52.556 5.46336 49.0136 8.47374 45.223 8.60978C41.3294 8.75021 37.7106 5.87147 36.6074 1.6543V1.65869Z" fill="#035E46"/>
</g>
<defs>
<clipPath id="clip0_2300_35453">
<rect width="90" height="90" fill="white"/>
</clipPath>
</defs>
</svg>
