<svg width="90" height="90" viewBox="0 0 90 90" fill="none" xmlns="http://www.w3.org/2000/svg">
<g id="Property 1=Wasmiddelen" clip-path="url(#clip0_2300_35467)">
<path id="Vector" d="M70.305 95.9711C71.6776 93.8546 72.6544 91.6054 73.0001 89.0706C73.9995 81.7743 68.6844 74.5857 61.4132 73.4836C61.0726 73.431 60.7194 73.3008 60.3963 73.3534C58.2823 73.6965 56.8496 72.6446 55.3392 71.3095C53.0274 69.2657 50.182 68.2012 47.1037 67.7954C46.6779 67.7403 46.1844 67.5399 45.8889 67.2419C42.6377 63.9632 38.7279 62.2098 34.1141 62.037C34.0265 62.0345 33.9388 62.002 33.7459 61.9619V60.97C33.7459 55.3769 33.8762 49.7814 33.7084 44.1933C33.5531 38.9609 35.0309 34.2896 37.7911 29.9389C39.2113 27.6997 40.639 25.4629 42.0341 23.2062C44.1231 19.8323 45.2802 16.1979 44.9972 12.1829C44.9772 11.9073 44.9947 11.6293 44.9947 11.2286C45.3804 11.2286 45.7111 11.2286 46.0417 11.2286C51.9779 11.2286 57.9141 11.3037 63.8478 11.206C69.1729 11.1183 73.6613 13.032 77.5462 16.5236C82.3628 20.8517 85.381 26.3396 87.5451 32.351C89.2433 37.0674 90.0022 41.9416 89.9972 46.956C89.9772 63.2944 89.9897 79.6353 89.9897 95.9736H70.3025L70.305 95.9711ZM78.8386 46.9886C78.3928 39.3442 76.2763 33.0798 72.2236 27.5018C71.0414 25.8737 69.6488 24.4385 67.8554 23.4667C64.5291 21.6633 60.9849 22.9056 59.6624 26.4523C59.1915 27.7147 58.916 29.1173 58.8884 30.4624C58.7457 37.5057 61.0425 43.8176 64.9499 49.5885C66.2173 51.462 67.7201 53.1352 69.754 54.2323C72.9525 55.958 76.4817 54.8059 77.7992 51.422C78.4304 49.7964 78.6157 47.998 78.8436 46.9911L78.8386 46.9886Z" fill="#035E46"/>
<path id="Vector_2" d="M24.183 95.9713C23.6219 95.7985 23.0508 95.6482 22.4998 95.4478C19.3288 94.2931 17.0445 91.1822 16.8842 87.8209C16.7189 84.3468 18.5824 81.2284 21.7584 79.7506C22.2618 79.5152 22.5123 79.3098 22.5173 78.6861C22.5649 73.8871 25.786 69.629 30.4047 68.1788C35.0009 66.7361 39.9502 68.3616 42.7631 72.3291C43.3066 73.0956 43.7725 73.3561 44.7543 73.336C48.9973 73.2459 52.2485 75.1269 54.5503 78.6711C54.7858 79.0343 54.9836 79.4225 55.2291 79.8508C56.9173 79.0593 58.6481 78.7037 60.5016 79.0443C64.4916 79.7807 67.4196 83.1621 67.4873 87.1647C67.5549 91.2549 64.7095 94.9143 60.7921 95.7784C60.5842 95.8235 60.3838 95.9037 60.181 95.9688H24.183V95.9713Z" fill="#035E46"/>
<path id="Vector_3" d="M16.9074 56.4116C10.7057 56.4266 5.62611 51.3695 5.6211 45.1753C5.61609 38.9761 10.6807 33.9116 16.8799 33.9141C23.0415 33.9166 28.0961 38.9486 28.1186 45.1027C28.1411 51.3119 23.0991 56.399 16.9074 56.4116Z" fill="#035E46"/>
<path id="Vector_4" d="M16.8669 70.4505C16.8769 75.1193 13.0772 78.919 8.4084 78.9065C3.78717 78.8965 0.0100387 75.1168 1.97549e-05 70.4931C-0.00999917 65.8243 3.79218 62.0271 8.4585 62.0371C13.0872 62.0471 16.8569 65.8218 16.8669 70.448V70.4505Z" fill="#035E46"/>
<path id="Vector_5" d="M45.0625 0H67.4172V5.67823H45.0625V0Z" fill="#035E46"/>
<path id="Vector_6" d="M72.5499 49.4434C71.8911 48.8548 71.1597 48.3263 70.5836 47.6651C67.876 44.5667 66.3256 40.8722 65.2586 36.9573C64.6149 34.5979 64.2667 32.1933 64.4871 29.7387C64.5272 29.2778 64.6324 28.8245 64.7551 28.0806C65.4965 28.6792 66.1428 29.095 66.6587 29.636C68.7151 31.7926 70.0702 34.385 71.1372 37.1377C72.4447 40.509 73.3088 43.9706 73.1109 47.6275C73.0809 48.176 72.9581 48.717 72.878 49.2606C72.7678 49.3232 72.6601 49.3833 72.5499 49.4459V49.4434Z" fill="#035E46"/>
</g>
<defs>
<clipPath id="clip0_2300_35467">
<rect width="90" height="90" fill="white"/>
</clipPath>
</defs>
</svg>
