<svg width="90" height="90" viewBox="0 0 90 90" fill="none" xmlns="http://www.w3.org/2000/svg">
<g id="Property 1=ICT-producten" clip-path="url(#clip0_2300_37032)">
<path id="Vector" d="M64.8228 34.5301C64.7082 32.2383 64.5971 30.0854 64.486 27.8248C64.677 27.8144 65.0103 27.7797 65.3402 27.7797C70.6357 27.7797 75.9311 27.7797 81.2266 27.7727C81.5704 27.7727 81.935 27.7832 82.2579 27.6825C82.9489 27.4706 83.2962 26.9532 83.2337 26.231C83.1712 25.5157 82.7649 25.0608 82.0357 24.9566C81.7509 24.9149 81.4592 24.9358 81.1676 24.9358C75.2644 24.9358 69.3613 24.9462 63.4581 24.9115C63.0033 24.9115 62.4407 24.6857 62.1143 24.3732C60.2913 22.637 58.1661 21.6786 55.6382 21.6578C53.968 21.6439 52.2977 21.6578 50.5685 21.6578C50.5476 21.2758 50.5198 20.9945 50.5198 20.7133C50.5198 18.1089 50.506 15.5046 50.5198 12.9003C50.5407 9.11187 53.1207 6.52838 56.9126 6.5249C65.7951 6.51449 74.6776 6.51449 83.5635 6.5249C87.4006 6.52838 89.991 9.1084 89.9945 12.9559C90.0049 33.846 90.0049 54.7397 89.9945 75.6298C89.9945 79.4634 87.3797 82.0504 83.5496 82.0504C74.6081 82.0539 65.6666 82.0608 56.7251 82.0469C52.8151 82.04 49.9469 78.6613 50.631 74.7965C52.3082 74.7965 54.0096 74.8416 55.7077 74.786C59.503 74.6645 62.3053 72.8658 63.8505 69.4316C64.4339 68.1329 64.6596 66.5842 64.6839 65.1431C64.7742 59.4448 64.736 53.7431 64.7047 48.0413C64.7013 47.2427 64.927 47.0135 65.7291 47.017C70.8232 47.0517 75.9138 47.0343 81.0078 47.0343C81.3273 47.0343 81.6468 47.0482 81.9627 47.01C82.7788 46.9059 83.2823 46.3086 83.2475 45.5343C83.2128 44.7877 82.7093 44.246 81.9141 44.2078C80.9314 44.1626 79.9487 44.18 78.9626 44.18C74.5352 44.18 70.1079 44.1626 65.6805 44.1974C64.9096 44.2043 64.6839 43.9786 64.7082 43.2181C64.7603 41.6 64.7672 39.9749 64.7082 38.3567C64.6804 37.565 64.9652 37.3914 65.7048 37.3983C70.8266 37.4261 75.9485 37.4122 81.0703 37.4122C81.3898 37.4122 81.7127 37.4296 82.0218 37.3775C82.7683 37.249 83.2163 36.7941 83.2406 36.0232C83.2614 35.2558 82.8552 34.7628 82.1121 34.5926C81.8065 34.5232 81.4801 34.5405 81.1641 34.537C76.07 34.537 70.9794 34.537 65.8854 34.537H64.8298L64.8228 34.5301ZM70.278 59.5039C67.4723 59.4969 65.2673 61.7019 65.2742 64.5042C65.2777 67.2717 67.4549 69.442 70.2329 69.4524C73.0143 69.4628 75.2193 67.303 75.2401 64.5493C75.2575 61.7297 73.0768 59.5108 70.2815 59.5004L70.278 59.5039ZM70.4725 18.1506C74.0317 18.1506 77.5875 18.1506 81.1467 18.1506C81.4627 18.1506 81.7891 18.1645 82.0982 18.102C82.8031 17.9562 83.2163 17.5013 83.2337 16.7721C83.251 16.0533 82.9072 15.5463 82.1919 15.3692C81.8586 15.2893 81.5044 15.2754 81.1606 15.2754C74.0734 15.272 66.9861 15.2685 59.8989 15.2754C59.5273 15.2754 59.1419 15.2928 58.7842 15.39C58.1141 15.5741 57.805 16.0706 57.812 16.7547C57.8224 17.4527 58.1905 17.9041 58.8502 18.0742C59.1801 18.1576 59.5378 18.1471 59.885 18.1471C63.413 18.1506 66.9445 18.1471 70.4725 18.1471V18.1506Z" fill="#035E46"/>
<path id="Vector_2" d="M30.8933 24.5368C39.0813 24.5368 47.2693 24.5264 55.4573 24.5437C58.6901 24.5507 61.1625 26.5855 61.7458 29.6691C61.8326 30.1205 61.8396 30.5892 61.8396 31.0511C61.8431 42.4789 61.8465 53.9067 61.8396 65.3379C61.8396 69.2791 59.2075 71.9425 55.2559 71.946C39.0257 71.9598 22.7921 71.9598 6.56192 71.946C2.65891 71.9425 0.0129132 69.2895 0.00944074 65.4004C-0.004449 53.9414 -0.004449 42.4858 0.00944074 31.0268C0.0129132 27.162 2.64155 24.5437 6.49942 24.5403C14.6284 24.5298 22.7608 24.5403 30.8898 24.5403L30.8933 24.5368ZM56.0337 60.6328V30.3427H5.85007V60.6328H56.0372H56.0337ZM30.9349 64.4108C30.0981 64.4108 29.2577 64.3899 28.4209 64.4177C27.4937 64.4455 26.8687 65.0289 26.8652 65.8206C26.8652 66.6158 27.4799 67.2373 28.3966 67.2512C30.0703 67.2825 31.7475 67.279 33.4212 67.2512C34.3553 67.2373 34.9595 66.647 34.9664 65.8414C34.9768 65.0323 34.3692 64.4455 33.442 64.4177C32.6052 64.3899 31.7683 64.4108 30.928 64.4108H30.9349Z" fill="#035E46"/>
<path id="Vector_3" d="M19.2087 80.613V74.8418H42.6095C42.6268 75.1682 42.6581 75.4773 42.6581 75.7863C42.665 77.1162 42.6893 78.4462 42.6477 79.7761C42.6268 80.4081 42.8039 80.6581 43.4706 80.6269C44.5089 80.5783 45.5506 80.6026 46.5924 80.6165C47.6723 80.6338 48.2869 81.1651 48.2869 82.0506C48.2869 82.9222 47.6514 83.4812 46.5854 83.4812C36.1507 83.4882 25.7126 83.4882 15.2779 83.4812C14.2084 83.4812 13.573 82.9326 13.5626 82.0645C13.5556 81.1825 14.1772 80.6338 15.2397 80.6199C16.5072 80.606 17.7746 80.6165 19.2087 80.6165V80.613Z" fill="#035E46"/>
</g>
<defs>
<clipPath id="clip0_2300_37032">
<rect width="90" height="89.9993" fill="white"/>
</clipPath>
</defs>
</svg>
