<svg width="90" height="90" viewBox="0 0 90 90" fill="none" xmlns="http://www.w3.org/2000/svg">
<g id="Property 1=Banden" clip-path="url(#clip0_2300_35459)">
<path id="Banden" d="M38.6716 0H51.328C52.507 0.495449 53.2304 1.3572 53.3502 2.73788C54.7546 1.09421 55.6682 0.713822 57.028 1.26562C60.4898 2.67448 63.9446 4.10682 67.3876 5.5603C68.7169 6.12149 69.2711 7.28145 68.9917 8.70205C68.9658 8.83354 68.9541 8.96973 68.9306 9.1388C70.8846 8.15729 71.8264 8.17842 72.9584 9.29847C75.5606 11.872 78.1511 14.4619 80.7251 17.0636C81.7632 18.1132 81.8642 19.3483 81.0962 20.5834C81.0117 20.7196 80.9412 20.8652 80.8449 21.039C82.7872 20.8065 83.8205 21.1822 84.3748 22.4854C85.8732 26.0052 87.3317 29.5438 88.769 33.0917C89.2176 34.2 88.8512 35.3342 87.9305 36.0856C87.7403 36.2405 87.5383 36.3861 87.287 36.5763C87.4397 36.6538 87.5055 36.7055 87.5783 36.7219C89.2598 37.06 89.9949 37.9359 89.9973 39.6265C89.9996 43.2567 90.002 46.8892 89.9973 50.5193C89.9949 52.0221 89.18 52.9707 87.6933 53.2619C87.5736 53.2854 87.4608 53.3511 87.3058 53.4122C88.8817 54.6661 89.2951 55.6617 88.7314 57.0447C87.3199 60.5081 85.8873 63.9598 84.4312 67.4045C83.8863 68.6959 82.7144 69.2642 81.3592 69.0059C81.2089 68.9777 81.0539 68.966 80.8566 68.9401C81.8078 70.6965 81.8571 71.7602 80.8637 72.7769C78.2004 75.4984 75.5042 78.187 72.7869 80.8544C71.8757 81.749 70.6427 81.8124 69.5436 81.1737C69.3627 81.0681 69.1795 80.9624 68.9447 80.8262C69.2383 82.7188 68.8273 83.813 67.4933 84.3789C63.9728 85.8746 60.4335 87.3328 56.8871 88.7651C55.7809 89.2113 54.6489 88.8332 53.8997 87.9057C53.7471 87.7155 53.6015 87.5206 53.4183 87.2835C52.7724 89.533 52.1477 89.9885 49.8273 89.9885C46.4007 89.9885 42.9718 90.0308 39.5476 89.9533C38.8524 89.9368 38.0469 89.6151 37.5114 89.1737C37.0299 88.7769 36.8444 88.0161 36.5086 87.3751C36.3911 87.5277 36.2455 87.7273 36.0905 87.9175C35.3366 88.8403 34.207 89.2089 33.0984 88.7604C29.5521 87.3234 26.0151 85.8629 22.4899 84.3718C21.3015 83.8694 20.7473 82.6836 20.9681 81.4109C20.9986 81.2395 21.0197 81.0657 21.055 80.8309C19.0915 81.965 18.1779 81.8382 16.6302 80.2909C14.3733 78.0343 12.1163 75.7755 9.85696 73.5189C8.1425 71.8048 8.02742 71.1098 9.11011 68.9871C6.59479 69.1163 6.13447 68.8204 5.14337 66.4206C3.92681 63.4785 2.71025 60.5363 1.49369 57.5941C0.699875 55.6781 0.93708 54.8069 2.59752 53.5202C2.62335 53.4991 2.59987 53.4145 2.59987 53.3065C1.29641 53.2431 0.511989 52.4565 0 51.3247V38.6708C0.4932 37.4921 1.35513 36.7689 2.73844 36.6468C0.833743 35.0078 0.683434 34.3503 1.62286 32.0774C2.89579 29.0037 4.13818 25.916 5.47922 22.8705C5.7634 22.2224 6.31766 21.5532 6.92594 21.2268C7.53187 20.9004 8.36092 20.992 9.09132 20.9028C9.06314 20.8558 8.97859 20.7102 8.89169 20.567C8.15189 19.3554 8.24114 18.1179 9.23224 17.1176C11.8462 14.4737 14.4836 11.8555 17.114 9.22802C17.8374 8.50481 18.7252 8.27 19.6951 8.50246C20.1601 8.61517 20.5829 8.90868 21.0291 9.12471C20.8271 6.74374 21.1794 6.16376 23.4341 5.22452C26.398 3.98942 29.3665 2.76371 32.3328 1.53331C34.3455 0.699733 35.1605 0.911062 36.4851 2.59934C36.5062 2.62517 36.5908 2.60169 36.6964 2.60169C36.7575 1.2938 37.5466 0.514233 38.6786 0.0023481L38.6716 0ZM45.0198 17.0918C29.3407 17.2585 17.2714 28.3627 17.0271 45.1492C16.804 60.4659 29.545 72.9789 44.9775 73.0141C60.3653 73.0493 73.1345 60.5715 72.9631 45.1891C72.7799 28.5317 60.8374 17.289 45.0174 17.0918H45.0198Z" fill="#035E46"/>
</g>
<defs>
<clipPath id="clip0_2300_35459">
<rect width="90" height="90" fill="white"/>
</clipPath>
</defs>
</svg>
