<svg width="56" height="66" viewBox="0 0 56 66" fill="none" xmlns="http://www.w3.org/2000/svg">
<path id="Chemicalien" d="M20.3116 4.25826C19.2468 4.25826 18.224 4.23608 17.2036 4.26812C16.7131 4.28291 16.5085 4.16707 16.5307 3.62729C16.5726 2.60441 16.543 1.57907 16.543 0.499512H39.4332V4.25826C38.5705 4.25826 37.7177 4.25826 36.8674 4.25826C36.0589 4.25826 35.6547 4.65509 35.6547 5.44874C35.6547 10.8712 35.6473 16.2937 35.6695 21.7137C35.6695 22.1401 35.7878 22.6158 35.9998 22.983C42.1247 33.5987 48.2693 44.2046 54.414 54.8104C57.2534 59.7103 53.9752 65.4853 48.3236 65.4902C34.7896 65.505 21.2556 65.5 7.72165 65.4902C3.89142 65.4902 0.97069 62.8529 0.578794 59.0572C0.433373 57.6449 0.761186 56.3164 1.46611 55.0938C3.98755 50.7164 6.52132 46.3489 9.05262 41.9789C12.7448 35.6001 16.442 29.2238 20.1292 22.8425C20.2574 22.6232 20.356 22.3471 20.3585 22.0982C20.3708 16.2666 20.3683 10.4325 20.3658 4.60086C20.3658 4.51953 20.3437 4.44066 20.319 4.25826H20.3116ZM17.5733 34.9469H38.4695C38.3167 34.6709 38.2107 34.4737 38.0998 34.279C36.1477 30.9023 34.1808 27.5354 32.2583 24.1439C32.002 23.6904 31.8516 23.1112 31.8467 22.5886C31.8196 16.7176 31.822 10.8441 31.8393 4.97304C31.8393 4.41354 31.6963 4.23608 31.1196 4.24594C29.0664 4.28045 27.0133 4.28538 24.9601 4.24594C24.3316 4.23362 24.1739 4.40861 24.1764 5.0322C24.201 10.9254 24.201 16.8187 24.1739 22.7094C24.1739 23.1901 24.0161 23.7224 23.7771 24.1439C21.8373 27.5502 19.8606 30.9343 17.8962 34.3283C17.7877 34.5156 17.6965 34.7103 17.5733 34.9494V34.9469ZM34.9991 48.2147C34.9991 46.1197 33.3009 44.4165 31.2083 44.4067C29.0935 44.3968 27.3731 46.1221 27.3805 48.2418C27.3904 50.3295 29.1059 52.0203 31.2058 52.0129C33.3107 52.0055 34.9991 50.3122 34.9991 48.2147ZM17.2184 50.1003C18.6331 50.0904 19.7521 48.9467 19.7275 47.5369C19.7028 46.1566 18.574 45.0475 17.1962 45.0475C15.7863 45.0475 14.6525 46.1838 14.6599 47.5911C14.6673 49.0034 15.7962 50.1101 17.2208 50.1003H17.2184ZM40.1233 55.2195C40.1307 56.6368 41.2645 57.7484 42.6842 57.7311C44.062 57.7139 45.1859 56.585 45.1909 55.2097C45.1933 53.8146 44.0398 52.6587 42.6472 52.6611C41.2399 52.6611 40.1209 53.7998 40.1258 55.2171L40.1233 55.2195ZM17.2134 55.19C17.206 56.6097 18.325 57.7336 19.7423 57.7311C21.1275 57.7311 22.2489 56.6245 22.2686 55.2393C22.2884 53.8319 21.1644 52.6759 19.762 52.6636C18.3546 52.6488 17.2184 53.7752 17.2134 55.19Z" fill="#035E46"/>
</svg>
