<svg width="66" height="66" viewBox="0 0 66 66" fill="none" xmlns="http://www.w3.org/2000/svg">
<g id="Group 666">
<path id="Vector" d="M0 23.2914V15.426H3.8862V19.338H9.72757V9.63455H19.388V3.81213H15.5913V0.00516782H23.3465V29.0845C23.6445 29.0845 23.8771 29.0845 24.1096 29.0845C26.9674 29.0845 29.827 29.0966 32.6848 29.0742C33.1947 29.0707 33.4565 29.2016 33.6942 29.6978C34.9035 32.2334 37.7527 33.4892 40.4486 32.7382C43.1031 31.9992 44.9325 29.4497 44.7172 26.7866C44.4967 24.0407 42.5656 21.8823 39.8956 21.3965C37.3186 20.9262 34.764 22.2682 33.6081 24.7401C33.4289 25.1225 33.2188 25.2155 32.8295 25.2104C31.1534 25.1914 29.4773 25.2035 27.7994 25.2C27.6134 25.2 27.4274 25.1759 27.2448 25.1639V1.94138H31.0965V9.60698H34.9724V1.93966H38.8551V9.60182H42.7379V0H48.5138V3.84658H46.6431V9.67072H56.3706V19.3414H62.1637V15.5328H65.9879V23.2931H56.3741V27.2792H64.0483V31.1809H56.3689V34.9052H64.0517V38.8086H56.3723V42.6655H66V50.3966H62.15V46.5879H56.3086V56.2897H46.6465V62.1121H50.5568V65.9742H42.6897C42.6983 65.8673 42.7155 65.7606 42.7155 65.6537C42.7155 57.5299 42.7155 49.4078 42.7155 41.284C42.7155 41.1186 42.6879 40.9533 42.6673 40.7242H41.9438C37.7957 40.7242 33.6477 40.7173 29.4979 40.7345C29.0173 40.7362 28.7607 40.6277 28.5264 40.154C27.4859 38.0421 25.734 36.9241 23.3896 36.8569C20.5387 36.776 18.0099 38.9172 17.5603 41.6957C17.09 44.5983 18.7747 47.3338 21.5843 48.233C24.2939 49.0995 27.274 47.8248 28.5195 45.2185C28.7503 44.7361 29.0122 44.588 29.5307 44.5914C32.3885 44.6173 35.248 44.6035 38.1075 44.6035H38.7862V64.0052H34.9534V56.3275H31.0535V64.0052H27.1931V56.331H23.3448V65.9759H15.4776V62.0897H19.388V56.2707H9.70345V46.5914H3.86036V50.5034H0V42.638H9.64316V38.7725H1.97755V34.8914H9.65005V31.1258H1.97239V27.2689H9.64833V23.2948H0V23.2914Z" fill="#035E46"/>
<path id="Vector_2" d="M38.8836 25.2048C39.9482 25.2014 40.8215 26.0489 40.8405 27.1049C40.8594 28.1626 39.9361 29.0911 38.875 29.079C37.8259 29.0669 36.9612 28.185 36.9629 27.129C36.9646 26.061 37.8156 25.2083 38.8819 25.2031L38.8836 25.2048Z" fill="#035E46"/>
<path id="Vector_3" d="M25.2886 42.6776C25.2851 43.7456 24.4359 44.5914 23.3627 44.5949C22.2964 44.5983 21.4265 43.7474 21.4161 42.6897C21.4041 41.6234 22.3257 40.7035 23.3834 40.7225C24.4359 40.7414 25.292 41.6199 25.2886 42.6793V42.6776Z" fill="#035E46"/>
</g>
</svg>
