<svg width="90" height="90" viewBox="0 0 90 90" fill="none" xmlns="http://www.w3.org/2000/svg">
<g id="Property 1=Verfprodcuten">
<path id="Vector" d="M63.75 7.57129C66.6195 7.57113 69.3807 8.66751 71.4685 10.6361C73.5563 12.6047 74.8129 15.2967 74.9813 18.1613L75 18.8213C77.9837 18.8213 80.8452 20.0066 82.955 22.1163C85.0648 24.2261 86.25 27.0876 86.25 30.0713C86.2502 35.8927 83.9941 41.4876 79.9558 45.6806C75.9174 49.8735 70.4111 52.338 64.5938 52.5563L63.75 52.5713H48.75L49.3125 52.59C51.0981 52.7242 52.7769 53.4929 54.0451 54.757C55.3134 56.0212 56.0875 57.6973 56.2275 59.4825L56.25 60.0713V75.0713C56.2506 76.9634 55.536 78.7859 54.2494 80.1733C52.9628 81.5608 51.1993 82.4106 49.3125 82.5525L48.75 82.5713H41.25C39.3578 82.5719 37.5354 81.8573 36.1479 80.5707C34.7605 79.2841 33.9107 77.5206 33.7688 75.6338L33.75 75.0713V60.0713C33.7494 58.1791 34.464 56.3567 35.7506 54.9692C37.0372 53.5818 38.8007 52.7319 40.6875 52.59L41.25 52.5713V48.8213C41.2501 47.9028 41.5873 47.0163 42.1977 46.3299C42.808 45.6435 43.6491 45.205 44.5613 45.0975L45 45.0713H63.75C67.7283 45.0713 71.5436 43.4909 74.3566 40.6779C77.1697 37.8648 78.75 34.0495 78.75 30.0713C78.7499 29.1528 78.4127 28.2663 77.8023 27.5799C77.192 26.8935 76.351 26.455 75.4388 26.3475L75 26.3213L74.9813 26.9813C74.8197 29.7323 73.6541 32.3283 71.7056 34.2768C69.757 36.2254 67.161 37.391 64.41 37.5525L63.75 37.5713H26.25C23.3805 37.5714 20.6193 36.4751 18.5315 34.5065C16.4437 32.5379 15.1871 29.8459 15.0188 26.9813L15 26.3213V18.8213C14.9998 15.9517 16.0962 13.1906 18.0648 11.1028C20.0334 9.01501 22.7254 7.75839 25.59 7.59004L26.25 7.57129H63.75Z" fill="#035E46"/>
</g>
</svg>
