<svg width="90" height="64" viewBox="0 0 90 64" fill="none" xmlns="http://www.w3.org/2000/svg">
<g id="Meubels" clip-path="url(#clip0_2300_36987)">
<path id="Vector" d="M0 24.8056C0.594238 23.5865 0.993528 22.2125 1.82264 21.1814C3.66407 18.8867 6.20544 18.0787 9.06623 18.734C11.9576 19.3963 13.9188 21.2378 14.5976 24.1409C15.4525 27.7861 16.1125 31.4761 16.8571 35.1448C17.4654 38.1372 19.5182 39.8024 22.6515 39.8048C33.2867 39.8118 43.9243 39.8071 54.5595 39.8071C58.8084 39.8071 63.0573 39.8118 67.3039 39.8071C70.5428 39.8024 72.5299 38.1888 73.1781 35.0321C73.8781 31.6217 74.5663 28.2089 75.2404 24.7915C76.0178 20.8408 79.4869 18.1351 83.2449 18.5672C87.3788 19.044 90.2043 22.2689 89.9883 26.4614C89.7393 31.2881 89.2954 36.1031 89.0488 40.9298C88.9172 43.4876 88.3606 45.8552 86.8127 47.9198C84.5391 50.9473 81.4904 52.575 77.7019 52.5797C55.903 52.6055 34.1041 52.6032 12.3052 52.5844C6.19369 52.5797 1.30826 47.7319 1.01467 41.6204C0.79858 37.1154 0.439219 32.6176 0.138577 28.1173C0.126833 27.9506 0.0493241 27.7861 0.00234877 27.6217C0.00234877 26.6846 0.00234877 25.7474 0.00234877 24.8079L0 24.8056Z" fill="#035E46"/>
<path id="Vector_2" d="M44.5816 0.0611925C52.8141 0.0611925 61.0441 0.0494487 69.2766 0.06589C74.7187 0.0752851 79.1414 3.24377 80.7714 8.21376C81.5677 10.64 81.3868 13.064 80.8419 15.4926C80.7996 15.6805 80.5154 15.8919 80.3064 15.9482C75.583 17.2166 73.0933 20.4039 72.2595 25.1131C71.6934 28.3098 71.01 31.4853 70.3547 34.6656C70.0305 36.2345 69.1239 36.9627 67.5103 36.9627C52.5111 36.9697 37.5142 36.9697 22.515 36.9627C20.8685 36.9627 19.9901 36.2369 19.6471 34.5834C18.8932 30.9451 18.2191 27.2904 17.4135 23.6663C16.4834 19.4808 13.1716 16.4673 8.93678 15.8261C8.514 15.7627 8.27677 15.6429 8.15229 15.1872C6.27797 8.36173 10.3507 1.6701 17.2678 0.291372C18.1792 0.110517 19.1304 0.0705876 20.0629 0.0682388C28.2366 0.0541462 36.4079 0.0611925 44.5816 0.0611925Z" fill="#035E46"/>
<path id="Vector_3" d="M11.2478 55.436H19.8302C19.5836 56.4671 19.3581 57.4442 19.1186 58.4166C18.9213 59.2105 18.7263 60.0067 18.5008 60.7936C17.8455 63.086 15.781 64.3355 13.5027 63.8352C11.3864 63.3702 9.9983 61.2915 10.3835 59.039C10.5902 57.8341 10.9496 56.6527 11.2455 55.436H11.2478Z" fill="#035E46"/>
<path id="Vector_4" d="M70.1768 55.4453H78.8014C79.095 56.7818 79.5084 58.1299 79.6658 59.5087C79.8936 61.5263 78.4867 63.37 76.5654 63.8234C74.5431 64.3002 72.5255 63.3043 71.7269 61.4253C71.5907 61.1035 71.4921 60.7653 71.4052 60.4247C70.9941 58.7876 70.5948 57.1458 70.1768 55.4453Z" fill="#035E46"/>
</g>
<defs>
<clipPath id="clip0_2300_36987">
<rect width="90" height="63.8864" fill="white" transform="translate(0 0.0566406)"/>
</clipPath>
</defs>
</svg>
