<svg width="75" height="75" viewBox="0 0 75 75" fill="none" xmlns="http://www.w3.org/2000/svg">
<g id="CPR iconen" clip-path="url(#clip0_2324_10674)">
<path id="Vector" d="M37.9514 0C41.8998 2.41105 45.8515 4.81896 49.7999 7.23001C50.0165 7.36187 50.2331 7.48744 50.4432 7.62558C51.907 8.58309 51.9399 10.1905 50.4563 11.1072C46.5375 13.5308 42.6022 15.9324 38.6571 18.3152C37.0455 19.2884 35.6966 18.6072 35.2502 16.6576C22.3383 17.3734 11.5762 28.9483 13.1024 42.3661C12.8201 42.2499 12.574 42.1557 12.3311 42.0458C10.3454 41.1605 8.36956 40.2532 6.37402 39.3962C5.12025 38.8562 3.87304 38.9881 2.72429 39.6913C1.84796 40.2281 1.0143 40.8278 0.0296593 41.4839C-0.321529 31.6513 2.78337 23.0651 9.6102 15.8194C16.4305 8.57367 24.8984 4.42968 35.2896 4.08435C35.4636 2.59627 34.7677 0.775429 36.8782 0C37.2359 0 37.5937 0 37.9514 0Z" fill="#035E46"/>
<path id="Vector_2" d="M6.18004 59.1933C5.94701 59.322 5.75008 59.435 5.54987 59.5386C3.98757 60.3392 2.40231 59.479 2.39574 57.7837C2.38589 55.4888 2.43841 53.1971 2.47123 50.9022C2.50077 48.7548 2.54344 46.6075 2.57954 44.4602C2.61236 42.5608 4.06306 41.6912 5.85839 42.5137C9.9709 44.4005 14.0736 46.3061 18.1828 48.1929C18.9968 48.5665 19.5843 49.1002 19.6335 50.0075C19.686 50.9116 19.1871 51.5238 18.3994 51.9602C18.0285 52.1674 17.6642 52.3934 17.1752 52.6854C21.8588 58.2138 27.573 61.9685 35.0595 62.6718C42.6216 63.3813 48.7559 60.2073 54.3847 55.5956C54.4865 55.9064 54.5652 56.145 54.6374 56.3867C55.284 58.5654 55.9733 60.7348 56.5608 62.9292C57.0761 64.8568 57.9393 66.4924 60.1645 67.3777C51.4932 73.9013 41.7879 76.0581 31.1768 74.5324C20.5065 72.9972 12.0846 67.9302 6.18332 59.1902L6.18004 59.1933Z" fill="#035E46"/>
<path id="Vector_3" d="M45.3916 17.9071C47.7121 16.4881 49.9144 15.1256 52.1331 13.7914C53.5772 12.9217 54.4831 11.7099 54.7325 10.0963C54.8179 9.55318 54.7457 8.99123 54.7457 8.36963C62.5375 12.7397 68.4223 18.7045 71.6027 26.8544C74.7503 34.9226 74.8816 43.1038 72.0688 51.3793C72.5348 51.5268 72.9878 51.6618 73.4341 51.8156C75.154 52.409 75.5478 54.1262 74.1693 55.2752C70.6279 58.2231 67.0635 61.1459 63.4794 64.0467C62.0911 65.1674 60.4861 64.6652 59.984 62.9856C58.7105 58.7474 57.4502 54.5061 56.2128 50.2585C55.6614 48.3686 56.9972 47.1254 58.9796 47.634C59.1503 47.6779 59.3177 47.725 59.4818 47.769C64.1326 36.7968 58.7433 23.0682 45.3949 17.9197L45.3916 17.9071Z" fill="#035E46"/>
</g>
<defs>
<clipPath id="clip0_2324_10674">
<rect width="75" height="75" fill="white"/>
</clipPath>
</defs>
</svg>
