<svg width="232" height="131" viewBox="0 0 232 131" fill="none" xmlns="http://www.w3.org/2000/svg">
<circle cx="32.4553" cy="10.8186" r="10.8186" fill="#F8FAF8"/>
<path d="M32.9546 30.5658C32.6869 30.8556 32.2289 30.8556 31.9612 30.5658L28.8218 27.1673C28.4217 26.7342 28.7289 26.0323 29.3184 26.0323L35.5974 26.0323C36.1869 26.0323 36.4941 26.7342 36.094 27.1673L32.9546 30.5658Z" fill="#F8FAF8"/>
<circle cx="202.85" cy="12.1701" r="10.8186" fill="#F8FAF8"/>
<path d="M203.345 31.9174C203.077 32.2072 202.62 32.2072 202.352 31.9174L199.212 28.5188C198.812 28.0858 199.12 27.3839 199.709 27.3839L205.988 27.3839C206.578 27.3839 206.885 28.0858 206.485 28.5188L203.345 31.9174Z" fill="#F8FAF8"/>
<path d="M183.913 46.1934L219.074 46.1934" stroke="#F8FAF8" stroke-width="6.39422"/>
<mask id="path-6-inside-1_2978_11190" fill="white">
<rect x="170.391" y="36.7285" width="60.8545" height="20.2848" rx="0.676161"/>
</mask>
<rect x="170.391" y="36.7285" width="60.8545" height="20.2848" rx="0.676161" stroke="#F8FAF8" stroke-width="2.70464" mask="url(#path-6-inside-1_2978_11190)"/>
<circle cx="120.358" cy="85.1936" r="10.8186" fill="#F8FAF8"/>
<path d="M120.853 104.941C120.585 105.231 120.127 105.231 119.86 104.941L116.72 101.542C116.32 101.109 116.627 100.407 117.217 100.407L123.496 100.407C124.085 100.407 124.393 101.109 123.992 101.542L120.853 104.941Z" fill="#F8FAF8"/>
<path d="M101.425 119.217L136.586 119.217" stroke="#F8FAF8" stroke-width="6.39422"/>
<mask id="path-10-inside-2_2978_11190" fill="white">
<rect x="87.9023" y="109.752" width="60.8545" height="20.2848" rx="0.676161"/>
</mask>
<rect x="87.9023" y="109.752" width="60.8545" height="20.2848" rx="0.676161" stroke="#F8FAF8" stroke-width="2.70464" mask="url(#path-10-inside-2_2978_11190)"/>
<path d="M13.5228 44.625L48.6832 44.625" stroke="#F8FAF8" stroke-width="6.39422"/>
<mask id="path-12-inside-3_2978_11190" fill="white">
<rect y="35.1602" width="60.8545" height="20.2848" rx="0.676161"/>
</mask>
<rect y="35.1602" width="60.8545" height="20.2848" rx="0.676161" stroke="#F8FAF8" stroke-width="2.70464" mask="url(#path-12-inside-3_2978_11190)"/>
<path d="M54.7695 14.1992H176.478" stroke="#F8FAF8" stroke-width="5.40928"/>
<path d="M120 15L120 60" stroke="#F8FAF8" stroke-width="5.40928"/>
</svg>
