<svg width="337" height="145" viewBox="0 0 337 145" fill="none" xmlns="http://www.w3.org/2000/svg">
<circle cx="175.799" cy="105.34" r="38.649" stroke="#F8FAF8" stroke-width="0.722411"/>
<circle cx="176.158" cy="87.6409" r="56.348" stroke="#F8FAF8" stroke-width="0.722411"/>
<circle cx="175.074" cy="74.2769" r="69.7126" stroke="#F8FAF8" stroke-width="0.722411"/>
<circle cx="328.77" cy="71.646" r="5.35395" transform="rotate(-180 328.77 71.646)" fill="#F8FAF8"/>
<circle cx="328.77" cy="56.1832" r="5.35395" transform="rotate(-180 328.77 56.1832)" fill="#F8FAF8"/>
<circle cx="328.77" cy="40.7144" r="5.35395" transform="rotate(-180 328.77 40.7144)" fill="#F8FAF8"/>
<path d="M312 71L267 71" stroke="#F8FAF8" stroke-width="7.30559"/>
<path d="M312 55L280 55" stroke="#F8FAF8" stroke-width="7.30559"/>
<path d="M312.139 39.9219L267.332 39.9219" stroke="#F8FAF8" stroke-width="7.30559"/>
<path d="M253 7L335 6.99999" stroke="#F8FAF8" stroke-width="14"/>
<path d="M175.793 21.1113L336.001 21.1113" stroke="#F8FAF8" stroke-width="3"/>
<circle r="5.35395" transform="matrix(1 -8.74228e-08 -8.74228e-08 -1 7.23194 119.646)" fill="#F8FAF8"/>
<circle r="5.35395" transform="matrix(1 -8.74228e-08 -8.74228e-08 -1 167.237 119.646)" fill="#F8FAF8"/>
<circle r="5.35395" transform="matrix(1 -8.74228e-08 -8.74228e-08 -1 187.242 98.646)" fill="#F8FAF8"/>
<circle r="5.35395" transform="matrix(1 -8.74228e-08 -8.74228e-08 -1 157.245 58.646)" fill="#F8FAF8"/>
<circle r="5.35395" transform="matrix(1 -8.74228e-08 -8.74228e-08 -1 197.248 37.6373)" fill="#F8FAF8"/>
<circle r="5.35395" transform="matrix(1 -8.74228e-08 -8.74228e-08 -1 7.23194 104.183)" fill="#F8FAF8"/>
<circle r="5.35395" transform="matrix(1 -8.74228e-08 -8.74228e-08 -1 7.23194 88.7144)" fill="#F8FAF8"/>
<path d="M23.863 118.826L82.5756 118.826" stroke="#F8FAF8" stroke-width="7.30559"/>
<path d="M23.863 103.376L104.207 103.376" stroke="#F8FAF8" stroke-width="7.30559"/>
<path d="M23.863 87.9219L68.67 87.9219" stroke="#F8FAF8" stroke-width="7.30559"/>
<path d="M83.0016 55L1.00158 55" stroke="#F8FAF8" stroke-width="14"/>
<path d="M117 69L-0.000367165 69" stroke="#F8FAF8" stroke-width="3"/>
</svg>
