<svg width="298" height="163" viewBox="0 0 298 163" fill="none" xmlns="http://www.w3.org/2000/svg">
<path d="M148.235 161.882C172.866 161.882 192.834 141.929 192.834 117.317C192.834 92.7052 172.866 72.7531 148.235 72.7531C123.604 72.7531 103.637 92.7052 103.637 117.317C103.637 141.929 123.604 161.882 148.235 161.882Z" stroke="#FDFDFD" stroke-width="2"/>
<path d="M148.647 161.881C184.558 161.881 213.669 132.792 213.669 96.9094C213.669 61.0263 184.558 31.9373 148.647 31.9373C112.736 31.9373 83.625 61.0263 83.625 96.9094C83.625 132.792 112.736 161.881 148.647 161.881Z" stroke="#FDFDFD" stroke-width="2"/>
<path d="M147.397 161.882C191.825 161.882 227.841 125.894 227.841 81.5C227.841 37.1062 191.825 1.11786 147.397 1.11786C102.969 1.11786 66.9531 37.1062 66.9531 81.5C66.9531 125.894 102.969 161.882 147.397 161.882Z" stroke="#FDFDFD" stroke-width="2"/>
<path d="M136.582 126.042C141.553 126.042 145.582 130.072 145.582 135.042C145.582 140.013 141.553 144.042 136.582 144.042C131.611 144.042 127.582 140.013 127.582 135.042C127.582 130.072 131.611 126.042 136.582 126.042Z" fill="#FDFDFD"/>
<path d="M164.262 97.7722C169.232 97.7722 173.262 101.802 173.262 106.772C173.262 111.743 169.232 115.772 164.262 115.772C159.291 115.772 155.262 111.743 155.262 106.772C155.262 101.802 159.291 97.7722 164.262 97.7722Z" fill="#FDFDFD"/>
<path d="M118.73 51.8155C123.701 51.8155 127.73 55.8449 127.73 60.8155C127.73 65.7861 123.701 69.8155 118.73 69.8155C113.76 69.8155 109.73 65.7861 109.73 60.8155C109.73 55.8449 113.76 51.8155 118.73 51.8155Z" fill="#FDFDFD"/>
<path d="M176.73 49.8155C181.701 49.8155 185.73 53.8449 185.73 58.8155C185.73 63.7861 181.701 67.8155 176.73 67.8155C171.76 67.8155 167.73 63.7861 167.73 58.8155C167.73 53.8449 171.76 49.8155 176.73 49.8155Z" fill="#FDFDFD"/>
<path d="M150.73 7.81549C155.701 7.81549 159.73 11.8449 159.73 16.8155C159.73 21.7861 155.701 25.8155 150.73 25.8155C145.76 25.8155 141.73 21.7861 141.73 16.8155C141.73 11.8449 145.76 7.81549 150.73 7.81549Z" fill="#FDFDFD"/>
<path d="M221.625 111L296.625 111" stroke="#FDFDFD"/>
<path d="M210.625 31.0001L296.625 31.0001" stroke="#FDFDFD"/>
<path d="M0.792969 31.0001H83.793" stroke="#FDFDFD"/>
<path d="M0.75 26.0001L57.75 26.0001" stroke="#FDFDFD" stroke-width="10"/>
<path d="M245.25 26.0001H297.25" stroke="#FDFDFD" stroke-width="10"/>
<path d="M245.25 106H297.25" stroke="#FDFDFD" stroke-width="10"/>
</svg>
