<svg width="90" height="90" viewBox="0 0 90 90" fill="none" xmlns="http://www.w3.org/2000/svg">
<path d="M44.8439 60.2262C47.7547 60.2262 50.3785 58.4729 51.4923 55.7836C52.606 53.0943 51.9914 49.9994 49.9324 47.9404C47.8764 45.8813 44.7785 45.2667 42.0892 46.3805C39.403 47.4942 37.6497 50.118 37.6497 53.0288C37.6528 57.0004 40.8725 60.22 44.8439 60.2262Z" fill="#035E46"/>
<path d="M61.4323 44.458C58.9926 44.4611 57.0147 46.4391 57.0115 48.8788V59.839L51.8513 63.5984H37.8402L32.6801 59.839L32.677 48.8788C32.677 46.4391 30.699 44.458 28.2561 44.458C25.8133 44.458 23.8353 46.4391 23.8353 48.8788V62.0849C23.8353 63.5012 24.5123 64.8272 25.6573 65.6602L32.5334 70.6706V78.4171V78.414C32.5365 80.8786 34.53 82.8722 36.9915 82.8753H52.6966C55.1582 82.8722 57.1548 80.8786 57.158 78.414V70.6706L64.0309 65.6602C65.1759 64.8303 65.8529 63.5013 65.8529 62.0849V48.8788C65.8497 46.4391 63.872 44.4612 61.4323 44.458Z" fill="#035E46"/>
<path d="M64.4018 34.0664H25.2852C24.4148 34.0633 23.5787 34.4096 22.9609 35.0242C22.3463 35.6388 22 36.4749 22 37.3453C22 38.2157 22.3463 39.0487 22.9609 39.6664C23.5786 40.281 24.4147 40.6242 25.2852 40.6242H64.4018C65.2722 40.6242 66.1083 40.281 66.7261 39.6664C67.3407 39.0487 67.687 38.2157 67.687 37.3453C67.687 36.4749 67.3407 35.6388 66.7261 35.0242C66.1084 34.4096 65.2723 34.0633 64.4018 34.0664Z" fill="#035E46"/>
<path d="M25.3666 28.8096C31.4003 31.0028 37.7803 32.0979 44.1977 32.0386C51.5885 32.0386 58.5898 30.7252 64.4456 28.2418C66.1147 27.5336 66.8916 25.6086 66.1834 23.9396C65.4752 22.2736 63.5502 21.4936 61.8843 22.2018C56.905 24.3139 50.6246 25.4777 44.1977 25.4777C38.5757 25.5401 32.9883 24.5916 27.6971 22.6792C26.886 22.3672 25.9812 22.3953 25.1888 22.7509C24.3932 23.1066 23.7724 23.7617 23.4635 24.5761C23.1546 25.3903 23.1827 26.2919 23.5384 27.0875C23.8972 27.8799 24.5522 28.5007 25.3666 28.8096Z" fill="#035E46"/>
<path d="M43.9078 24.1294C44.1137 24.3353 44.3945 24.4508 44.6877 24.4508H44.7002H44.6971C44.9872 24.4508 45.2618 24.3322 45.4646 24.1232L51.8165 17.6652C52.1254 17.3501 52.2158 16.8821 52.0442 16.4765C51.8727 16.071 51.4764 15.8058 51.0366 15.8058H48.4814V8.6146C48.4814 8.45238 48.4159 8.29326 48.3005 8.18095C48.1851 8.06552 48.0291 8 47.8668 8H41.752C41.5898 8 41.4338 8.06552 41.3184 8.18095C41.203 8.29326 41.1374 8.45237 41.1374 8.6146V15.8058H38.339C37.8991 15.8058 37.4997 16.0678 37.3282 16.4765C37.1566 16.8821 37.2471 17.3532 37.559 17.6652L43.9078 24.1294Z" fill="#035E46"/>
</svg>
