<svg width="90" height="90" viewBox="0 0 90 90" fill="none" xmlns="http://www.w3.org/2000/svg">
<g clip-path="url(#clip0_6867_103)">
<path d="M53.2179 15.5349L42.4521 26.3563C42.0741 26.7397 41.5913 27.0015 41.0652 27.1084C40.5391 27.2153 39.9932 27.1625 39.497 26.9567C39.0007 26.7508 38.5764 26.4012 38.2778 25.9523C37.9793 25.5033 37.82 24.9752 37.8202 24.435V20.988C33.6031 22.1642 29.7757 24.4548 26.7349 27.622C23.6941 30.7893 21.5509 34.7178 20.5275 39L16.0359 34.55C15.5899 34.0972 15.0583 33.739 14.4725 33.4964C13.8867 33.2537 13.2586 33.1316 12.6251 33.1373C11.9922 33.1355 11.3652 33.2594 10.78 33.5018C10.1947 33.7443 9.66267 34.1004 9.2143 34.55L6 37.8275C7.42205 29.8875 11.2392 22.5809 16.9325 16.9013C22.6258 11.2218 29.9189 7.44476 37.8202 6.08393V2.72168C37.8239 2.18325 37.9851 1.65784 38.2837 1.21106C38.5822 0.764278 39.005 0.415913 39.4991 0.209461C39.9932 0.00300905 40.5367 -0.0523837 41.0619 0.050199C41.5871 0.152782 42.0706 0.408794 42.4521 0.786274L53.2179 11.6217C53.7198 12.1479 54 12.849 54 13.5783C54 14.3077 53.7198 15.0088 53.2179 15.5349Z" fill="#035E46"/>
<path d="M80.2255 55.2675C79.3103 56.1831 78.0702 56.6973 76.7773 56.6973C75.4844 56.6973 74.2443 56.1831 73.3292 55.2675L69.0722 51C67.8694 55.1703 65.5996 58.9529 62.4882 61.9722C59.3767 64.9915 55.5317 67.1427 51.3347 68.2122V65.4668C51.3349 64.9228 51.1738 64.3911 50.872 63.939C50.5702 63.4869 50.1413 63.1349 49.6396 62.9276C49.1379 62.7204 48.5861 62.6672 48.0542 62.7748C47.5223 62.8825 47.0342 63.1461 46.652 63.5322L35.7967 74.4001C35.2863 74.9168 35 75.6146 35 76.3418C35 77.069 35.2863 77.7668 35.7967 78.2835L46.6804 89.2083C47.0661 89.5884 47.5549 89.8462 48.0858 89.9495C48.6168 90.0527 49.1663 89.997 49.6658 89.7891C50.1653 89.5812 50.5927 89.2304 50.8945 88.7805C51.1964 88.3307 51.3594 87.8016 51.3631 87.2595V83.1342C59.4007 81.8568 66.849 78.1229 72.6904 72.4428C78.5318 66.7626 82.4815 59.4132 84 51.3983L80.2255 55.2675Z" fill="#035E46"/>
<path d="M89.1713 42.6347L78.2346 53.2141C77.98 53.4631 77.6769 53.6608 77.3428 53.7956C77.0088 53.9305 76.6503 54 76.2883 54C75.9263 54 75.5678 53.9305 75.2337 53.7956C74.8997 53.6608 74.5965 53.4631 74.3419 53.2141L63.4053 42.6347C63.0161 42.2651 62.7499 41.7915 62.6409 41.2745C62.5318 40.7576 62.5849 40.2209 62.7932 39.7333C63.0016 39.2457 63.3558 38.8294 63.8103 38.5379C64.2649 38.2463 64.7991 38.0927 65.3445 38.0968H68.838C67.7742 33.9137 65.57 30.0833 62.4551 27.0047C59.3402 23.926 55.4288 21.712 51.1283 20.5932L55.1351 16.6897C56.0416 15.7973 56.5496 14.5961 56.5496 13.3449C56.5496 12.0937 56.0416 10.8925 55.1351 10L51 6C59.2694 7.30491 66.8983 11.1118 72.7909 16.8738C78.6834 22.6358 82.5361 30.0563 83.7956 38.0692H87.1893C87.7412 38.0578 88.2838 38.2072 88.7468 38.498C89.2098 38.7888 89.5716 39.2076 89.7854 39.7C89.9991 40.1923 90.0548 40.7354 89.9453 41.2588C89.8358 41.7822 89.5661 42.2616 89.1713 42.6347Z" fill="#035E46"/>
<path d="M34.2881 80.0725C33.3966 79.1574 32.897 77.9258 32.897 76.6429C32.897 75.3599 33.3966 74.1283 34.2881 73.2132L39 68.4613C34.8641 67.3816 31.0799 65.2306 28.0223 62.2215C24.9648 59.2124 22.7401 55.4496 21.5689 51.3062H24.2333C24.7696 51.3064 25.2938 51.1459 25.7395 50.8451C26.1852 50.5443 26.5322 50.1167 26.7365 49.6167C26.9408 49.1167 26.9933 48.5667 26.8872 48.0366C26.7811 47.5064 26.5212 47.02 26.1405 46.6391L15.4266 35.8058C15.1762 35.5505 14.8781 35.3478 14.5496 35.2095C14.221 35.0712 13.8685 35 13.5124 35C13.1564 35 12.8039 35.0712 12.4753 35.2095C12.1467 35.3478 11.8486 35.5505 11.5982 35.8058L0.800202 46.6391C0.418677 47.0209 0.1585 47.5086 0.052828 48.04C-0.0528436 48.5715 0.000775554 49.1226 0.206852 49.6233C0.412929 50.1239 0.762132 50.5513 1.20996 50.851C1.65778 51.1507 2.18395 51.3092 2.72141 51.3062H6.76016C8.10487 59.056 11.7257 66.2201 17.1538 71.8709C22.5818 77.5216 29.5671 81.3987 37.205 83L34.2881 80.0725Z" fill="#035E46"/>
</g>
<defs>
<clipPath id="clip0_6867_103">
<rect width="90" height="90" fill="white"/>
</clipPath>
</defs>
</svg>
