<svg width="90" height="90" viewBox="0 0 90 90" fill="none" xmlns="http://www.w3.org/2000/svg">
<path d="M61.6954 37.2819C61.2327 39.5934 60.9203 41.8893 60.7699 44.1109C60.7236 44.807 60.3534 45.4016 59.7518 45.7457C59.1657 46.0821 58.487 46.0977 57.893 45.7927C55.1125 44.3533 51.9232 43.5868 48.6645 43.5868C45.7258 43.5868 42.818 44.2165 40.2497 45.4055C39.4321 45.7888 38.4796 45.7497 37.662 45.3194C37.6389 45.3038 37.6157 45.2842 37.5965 45.2647C37.4962 45.1864 37.3843 45.1317 37.2725 45.0926C34.438 43.399 31.1639 42.5034 27.7933 42.5034C17.9824 42.5034 10 50.0168 10 59.2517C10 68.49 17.9828 76 27.7933 76C30.9711 76 34.0639 75.2021 36.8058 73.6767C36.8791 73.6533 36.9524 73.6298 37.0218 73.5907C37.4383 73.3677 37.8509 73.1253 38.2482 72.8671C38.8035 72.6637 39.4051 72.6794 39.9373 72.9414C42.5905 74.2243 45.614 74.9048 48.6722 74.9048C51.7188 74.9048 55.3825 74.2634 58.0125 73.266C58.9265 72.9179 59.8096 72.7498 60.6542 72.7732C64.3603 72.8514 67.4377 72.2961 67.5534 72.2804L67.7308 72.2491C74.819 71.0249 79.9748 64.8335 79.9985 57.5274C80.01 53.358 79.956 50.2369 79.8365 48.2422C79.5511 43.6152 77.4918 36.305 75.6793 29.8558C75.525 29.3082 75.3746 28.7685 75.2242 28.2287C75.1008 27.7985 74.9697 27.3565 74.8154 26.9145C73.0106 21.7204 68.9305 17.3164 63.6239 14.8292L61.4026 13.7887C60.3845 13.0964 59.1659 12.85 57.9626 13.0886C56.7439 13.3311 55.6988 14.043 55.0162 15.0951L50.7085 20.6099C50.6854 20.6412 50.6623 20.6725 50.643 20.7038C49.4397 22.5968 49.7521 25.0882 51.3911 26.6293L54.5457 29.5784C56.2464 31.1585 58.3444 31.2328 60.45 29.7896C60.8356 29.5236 61.3061 29.4571 61.7419 29.6018C61.9733 29.68 62.3898 29.8913 62.571 30.4232C62.6636 30.6813 62.6636 30.826 62.6559 30.8925C62.4592 32.8873 62.1353 35.0462 61.6956 37.2835L61.6954 37.2819Z" fill="#035E46"/>
</svg>
