<svg width="70" height="70" viewBox="0 0 70 70" fill="none" xmlns="http://www.w3.org/2000/svg">
<path d="M70 34.9416V59.3812C70 65.2476 65.2556 70 59.3989 70H46.6667H23.3333H10.6011C4.74444 70 0 65.2398 0 59.3734V34.9416H0.101111V10.6188C0.101111 4.75237 4.84556 9.5495e-06 10.7022 9.5495e-06H23.4344H28H28.1011H46.6667H59.3989C65.2556 -0.00778121 70 4.75237 70 10.6188V34.9416ZM34.9611 9.94102L33.7711 12.3172L31.1422 12.6834L33.0322 14.5532L32.5656 17.1708L34.9222 15.9477L37.2633 17.202L36.8278 14.5765L38.7411 12.7301L36.1122 12.3328L34.9611 9.94102ZM22.4622 13.3144L22.6178 15.9711L20.5256 17.6071L23.0922 18.2771L23.9944 20.778L25.4256 18.5342L28.0778 18.4485L26.39 16.3918L27.1289 13.8364L24.6556 14.8025L22.4622 13.3144ZM13.3233 22.4997L14.7856 24.7201L13.79 27.182L16.3489 26.473L18.3789 28.187L18.5033 25.5303L20.7589 24.128L18.27 23.1931L17.6322 20.6144L15.9756 22.6945L13.3233 22.4997ZM9.98667 35.0351L12.3589 36.2271L12.7244 38.8603L14.5911 36.9672L17.2044 37.4346L15.9833 35.074L17.2356 32.729L14.6144 33.1653L12.7711 31.2488L12.3744 33.882L9.98667 35.0351ZM13.3544 47.5548L16.0067 47.399L17.64 49.4947L18.3089 46.9238L20.8056 46.02L18.5656 44.5865L18.48 41.9299L16.4267 43.6205L13.8756 42.8804L14.84 45.3578L13.3544 47.5548ZM22.5244 56.709L24.7411 55.2443L27.1989 56.2415L26.4911 53.6784L28.2022 51.645L25.55 51.5203L24.15 49.261L23.2167 51.754L20.6422 52.3929L22.7189 54.0523L22.5244 56.709ZM35.0389 60.0512L36.2289 57.675L38.8578 57.3088L36.9678 55.4391L37.4344 52.8214L35.0778 54.0445L32.7367 52.7902L33.1722 55.4157L31.2589 57.2621L33.8878 57.6594L35.0389 60.0512ZM47.5378 56.6778L47.3822 54.0211L49.4744 52.3851L46.9078 51.7151L46.0056 49.2142L44.5744 51.458L41.9222 51.5437L43.61 53.6004L42.8711 56.1558L45.3444 55.1898L47.5378 56.6778ZM56.6767 47.4925L55.2144 45.2721L56.21 42.8102L53.6511 43.5192L51.6211 41.8052L51.4967 44.4619L49.2411 45.8642L51.73 46.7991L52.3678 49.3779L54.0244 47.2977L56.6767 47.4925ZM60.0133 34.9572L57.6411 33.7652L57.2756 31.1319L55.4089 33.025L52.7956 32.5576L54.0167 34.9182L52.7644 37.2632L55.3856 36.8269L57.2289 38.7435L57.6256 36.1102L60.0133 34.9572ZM56.6456 22.4374L53.9933 22.5932L52.36 20.4975L51.6911 23.0685L49.1944 23.9722L51.4344 25.4057L51.52 28.0623L53.5733 26.3717L56.1244 27.1119L55.16 24.6344L56.6456 22.4374ZM47.4756 13.2833L45.2589 14.7479L42.8011 13.7507L43.5089 16.3139L41.7978 18.3473L44.45 18.4719L45.85 20.7312L46.7833 18.2382L49.3578 17.5993L47.2811 15.9399L47.4756 13.2833Z" fill="#035E46"/>
</svg>
