<svg width="90" height="90" viewBox="0 0 90 90" fill="none" xmlns="http://www.w3.org/2000/svg">
<path d="M44.75 8C24.4795 8 8 24.4795 8 44.75C8 65.0205 24.4795 81.5 44.75 81.5C65.0205 81.5 81.5 65.0205 81.5 44.75C81.5 24.4795 65.0205 8 44.75 8ZM60.3784 39.4889L44.5179 56.51C43.5895 57.5158 42.3516 58.0574 41.0363 58.0574C39.7211 58.0574 38.4058 57.5158 37.5547 56.51L29.1216 47.5353C27.3421 45.6011 27.4195 42.5837 29.3537 40.8042C31.2879 39.0247 34.3053 39.1021 36.0847 41.0363L40.9589 46.2974L53.3379 32.99C55.1174 31.0558 58.1347 30.9784 60.069 32.7579C62.0805 34.5374 62.1579 37.5547 60.3784 39.4889Z" fill="#035E46"/>
</svg>
