<svg width="90" height="90" viewBox="0 0 90 90" fill="none" xmlns="http://www.w3.org/2000/svg">
<path d="M74.9794 17.2831L50.4721 5.24124C47.089 3.58625 43.1286 3.58625 39.7453 5.24124L15.238 17.2831C12.6513 18.5618 11.0109 21.1923 11 24.0785V48.9216C11.0365 58.527 15.6764 67.5357 23.4805 73.1371L38.0943 83.5571C42.3323 86.5968 48.0317 86.5968 52.2695 83.5571L66.8104 73.1371C74.6362 67.5181 79.2797 58.4793 79.2909 48.8486V24.0785C79.2653 21.1776 77.5953 18.5398 74.9794 17.2831ZM31.2258 63.6088C24.5363 59.0748 20.4737 51.5707 20.3278 43.4926C20.1817 35.4148 23.9739 27.7686 30.4953 22.9967C42.712 13.5999 61.6226 18.7002 67.702 32.5395C78.122 55.2641 51.9779 77.5352 31.2258 63.6088Z" fill="#035E46"/>
<path d="M41.1333 31.1956C44.1327 31.2029 46.5623 33.6325 46.5696 36.6319V42.8136C46.7888 44.8888 44.8014 46.204 44.8014 48.2061C44.911 49.6346 45.6563 50.9389 46.8327 51.7573C48.2686 53.1639 50.5702 53.1639 52.006 51.7573L57.6323 46.3794C58.8599 45.3711 58.2899 42.7406 58.4068 41.2938C58.3995 39.8653 58.9621 38.4916 59.9705 37.4796L64.53 32.8616C61.7132 27.4837 56.792 23.5124 50.9394 21.8972C45.0866 20.2824 38.8284 21.1665 33.6516 24.3414L39.2633 30.3916C39.7419 30.914 40.4245 31.2065 41.1333 31.1956Z" fill="#035E46"/>
<path d="M34.2355 49.9451C34.2319 48.1769 32.8581 46.7155 31.0935 46.5986C29.5627 46.4963 28.116 45.8423 27.0308 44.7572L23.2897 40.9722C23.2203 41.6517 23.1837 42.3349 23.1874 43.0181C23.1947 49.5651 26.1247 55.7651 31.1812 59.9262C31.5392 58.8265 32.1494 57.8255 32.964 57.0035C34.7616 55.5421 34.1332 51.9765 34.2355 49.9451Z" fill="#035E46"/>
<path d="M67.0295 43.0184C67.0332 40.5304 66.613 38.0607 65.7874 35.7115L62.0462 39.5111C61.5859 39.986 61.3301 40.6181 61.3301 41.2793V44.5529C61.3448 46.0215 60.7639 47.4354 59.7226 48.4694L54.0963 53.9057C52.8577 55.0931 51.2101 55.7544 49.4929 55.7471C47.2789 55.6631 45.2183 54.5926 43.8811 52.8243C41.5685 50.5227 41.2836 46.8801 43.2089 44.246C43.5231 43.8222 43.6985 43.3107 43.7058 42.7846V36.6322C43.7058 35.2438 42.5805 34.1186 41.1922 34.1186C39.6869 34.1113 38.2512 33.4902 37.2172 32.3941L31.3717 26.0518C27.7986 28.9818 25.2375 32.9641 24.0648 37.4361L29.2673 42.6971C29.8482 43.2816 30.6227 43.6287 31.4447 43.6762C34.7292 43.9283 37.2684 46.6538 37.2903 49.9455V53.9644C37.2903 55.897 36.523 57.753 35.1567 59.123C34.4406 59.8318 33.9912 60.7671 33.8853 61.7681C47.9146 70.6679 67.2774 59.8537 67.0295 43.0184Z" fill="#035E46"/>
</svg>
