<svg width="75" height="75" viewBox="0 0 75 75" fill="none" xmlns="http://www.w3.org/2000/svg">
<g id="Symbols/CSDDD" clip-path="url(#clip0_2929_7464)">
<path id="Vector" d="M44.3483 12.9458L35.3768 21.9636C35.0617 22.2831 34.6595 22.5013 34.221 22.5904C33.7825 22.6794 33.3277 22.6354 32.9141 22.4639C32.5006 22.2923 32.147 22.001 31.8982 21.6269C31.6494 21.2528 31.5167 20.8127 31.5168 20.3625V17.49C28.0026 18.4702 24.813 20.379 22.2791 23.0184C19.7451 25.6577 17.9591 28.9315 17.1063 32.5L13.3633 28.7916C12.9916 28.4144 12.5486 28.1158 12.0604 27.9136C11.5722 27.7114 11.0488 27.6097 10.5209 27.6144C9.99352 27.613 9.47102 27.7162 8.9833 27.9182C8.49558 28.1202 8.05222 28.417 7.67858 28.7916L5 31.5229C6.18504 24.9062 9.36603 18.8174 14.1104 14.0844C18.8549 9.35146 24.9324 6.20397 31.5168 5.06994V2.26807C31.5199 1.81938 31.6542 1.38154 31.9031 1.00922C32.1519 0.636898 32.5041 0.346594 32.9159 0.174551C33.3276 0.00250754 33.7806 -0.0436531 34.2183 0.0418325C34.6559 0.127318 35.0589 0.340662 35.3768 0.655228L44.3483 9.68478C44.7665 10.1232 45 10.7075 45 11.3153C45 11.9231 44.7665 12.5073 44.3483 12.9458Z" fill="#035E46"/>
<path id="Vector_2" d="M66.8545 46.0562C66.0919 46.8192 65.0585 47.2477 63.9811 47.2477C62.9036 47.2477 61.8702 46.8192 61.1076 46.0562L57.5601 42.5C56.5578 45.9753 54.6663 49.1274 52.0734 51.6435C49.4805 54.1596 46.2764 55.9523 42.7789 56.8435V54.5557C42.779 54.1024 42.6448 53.6592 42.3933 53.2825C42.1418 52.9058 41.7843 52.6124 41.3663 52.4397C40.9482 52.267 40.4883 52.2227 40.0451 52.3124C39.6018 52.402 39.1952 52.6217 38.8766 52.9435L29.8305 62.0001C29.4052 62.4307 29.1666 63.0122 29.1666 63.6182C29.1666 64.2241 29.4052 64.8056 29.8305 65.2362L38.9003 74.3402C39.2217 74.657 39.629 74.8718 40.0715 74.9579C40.5139 75.044 40.9719 74.9975 41.3881 74.8242C41.8044 74.651 42.1605 74.3587 42.4121 73.9838C42.6636 73.6089 42.7994 73.168 42.8025 72.7162V69.2785C49.5006 68.214 55.7075 65.1025 60.5753 60.369C65.4432 55.6355 68.7346 49.511 70 42.8319L66.8545 46.0562Z" fill="#035E46"/>
<path id="Vector_3" d="M74.3094 35.529L65.1955 44.3451C64.9834 44.5526 64.7308 44.7173 64.4524 44.8297C64.174 44.9421 63.8753 45 63.5736 45C63.2719 45 62.9732 44.9421 62.6948 44.8297C62.4164 44.7173 62.1638 44.5526 61.9516 44.3451L52.8378 35.529C52.5134 35.2209 52.2916 34.8262 52.2007 34.3954C52.1098 33.9646 52.1541 33.5174 52.3277 33.1111C52.5013 32.7048 52.7965 32.3579 53.1753 32.1149C53.5541 31.8719 53.9993 31.7439 54.4538 31.7473H57.365C56.4785 28.2615 54.6416 25.0694 52.0459 22.5039C49.4502 19.9384 46.1906 18.0933 42.6069 17.161L45.9459 13.9081C46.7014 13.1644 47.1247 12.1634 47.1247 11.1207C47.1247 10.0781 46.7014 9.07709 45.9459 8.33336L42.5 5C49.3911 6.08743 55.7486 9.25986 60.659 14.0615C65.5695 18.8632 68.7801 25.0469 69.8297 31.7243H72.6577C73.1176 31.7148 73.5699 31.8393 73.9557 32.0817C74.3415 32.324 74.643 32.673 74.8211 33.0833C74.9992 33.4936 75.0457 33.9462 74.9544 34.3823C74.8632 34.8185 74.6384 35.218 74.3094 35.529Z" fill="#035E46"/>
<path id="Vector_4" d="M28.5734 66.727C27.8305 65.9644 27.4142 64.9381 27.4142 63.869C27.4142 62.7999 27.8305 61.7736 28.5734 61.011L32.5 57.051C29.0535 56.1513 25.8999 54.3588 23.352 51.8512C20.804 49.3436 18.9501 46.208 17.9741 42.7551H20.1944C20.6413 42.7553 21.0782 42.6215 21.4496 42.3708C21.821 42.1202 22.1101 41.7639 22.2804 41.3472C22.4507 40.9305 22.4944 40.4722 22.406 40.0304C22.3176 39.5886 22.101 39.1833 21.7838 38.8659L12.8555 29.8381C12.6469 29.6254 12.3984 29.4565 12.1246 29.3412C11.8508 29.226 11.5571 29.1666 11.2604 29.1666C10.9637 29.1666 10.6699 29.226 10.3961 29.3412C10.1223 29.4565 9.87386 29.6254 9.6652 29.8381L0.666835 38.8659C0.348897 39.184 0.132083 39.5904 0.0440234 40.0333C-0.0440363 40.4762 0.000646295 40.9355 0.172377 41.3527C0.344108 41.7698 0.63511 42.126 1.0083 42.3758C1.38149 42.6255 1.81996 42.7576 2.26784 42.7551H5.63346C6.75405 49.2133 9.77142 55.1834 14.2948 59.8923C18.8182 64.6013 24.6393 67.8322 31.0042 69.1666L28.5734 66.727Z" fill="#035E46"/>
</g>
<defs>
<clipPath id="clip0_2929_7464">
<rect width="75" height="75" fill="white"/>
</clipPath>
</defs>
</svg>
