<svg width="75" height="74" viewBox="0 0 75 74" fill="none" xmlns="http://www.w3.org/2000/svg">
<path id="Vector" fill-rule="evenodd" clip-rule="evenodd" d="M30.5942 0.222857C29.4791 -0.414328 28.0874 0.390537 28.0874 1.67752V68.741H24.7338V29.4368H6.28842C5.36199 29.4368 4.61162 30.1872 4.61162 31.1136V68.7405H2.93481C1.54723 68.7405 0.419556 69.8682 0.419556 71.2558C0.419556 72.6433 1.54723 73.771 2.93481 73.771H70.0069C71.3945 73.771 72.5222 72.6433 72.5222 71.2558C72.5222 69.8682 71.3945 68.7405 70.0069 68.7405H59.9461V64.6491C51.6041 64.5988 44.8554 57.8245 44.8554 49.4693C44.8554 48.1279 45.9411 47.0422 47.2826 47.0422H48.121C50.8416 47.0422 53.3987 47.759 55.6079 49.0124C53.7886 43.8017 55.2181 37.8999 59.8922 33.7747C59.909 33.7579 59.9299 33.7453 59.9467 33.7286V17.9661C59.9467 17.3666 59.6239 16.8091 59.0999 16.5114L30.5942 0.222857ZM37.3098 22.3105C36.3833 22.3105 35.6329 21.5601 35.6329 20.6337V16.8609C35.6329 15.9345 36.3833 15.1841 37.3098 15.1841C38.2362 15.1841 38.9866 15.9345 38.9866 16.8609V20.6337C38.9866 21.5601 38.2362 22.3105 37.3098 22.3105ZM12.9964 43.2703C12.9964 44.1967 13.7468 44.9471 14.6732 44.9471C15.5996 44.9471 16.35 44.1967 16.35 43.2703V39.4975C16.35 38.5711 15.5996 37.8207 14.6732 37.8207C13.7468 37.8207 12.9964 38.5711 12.9964 39.4975V43.2703ZM35.6335 39.9167C35.6335 40.8431 36.3839 41.5935 37.3103 41.5935C38.2367 41.5935 38.9871 40.8431 38.9871 39.9167V36.1439C38.9871 35.2175 38.2367 34.4671 37.3103 34.4671C36.3839 34.4671 35.6335 35.2175 35.6335 36.1439V39.9167ZM50.7242 30.6942C49.7977 30.6942 49.0474 29.9438 49.0474 29.0174V25.2446C49.0474 24.3182 49.7977 23.5678 50.7242 23.5678C51.6506 23.5678 52.401 24.3182 52.401 25.2446V29.0174C52.401 29.9438 51.6506 30.6942 50.7242 30.6942ZM12.9964 60.0385C12.9964 60.9649 13.7468 61.7153 14.6732 61.7153C15.5996 61.7153 16.35 60.9649 16.35 60.0385V56.2657C16.35 55.3393 15.5996 54.5889 14.6732 54.5889C13.7468 54.5889 12.9964 55.3393 12.9964 56.2657V60.0385ZM37.3098 61.7153C36.3833 61.7153 35.6329 60.9649 35.6329 60.0385V56.2657C35.6329 55.3393 36.3833 54.5889 37.3098 54.5889C38.2362 54.5889 38.9866 55.3393 38.9866 56.2657V60.0385C38.9866 60.9649 38.2362 61.7153 37.3098 61.7153ZM75 50.3968C74.5305 56.4542 69.5001 61.2335 63.338 61.2957C63.8075 55.2383 68.8379 50.459 75 50.3968ZM48.2463 50.3968C48.7158 56.4542 53.7462 61.2335 59.9082 61.2957C59.4387 55.2383 54.4083 50.459 48.2463 50.3968ZM61.6231 36.743C65.9199 41.2285 65.9199 47.8266 61.6231 52.3123C57.3263 47.8269 57.3263 41.2288 61.6231 36.743Z" fill="#035E46"/>
</svg>
