<svg width="350" height="298" viewBox="0 0 350 298" fill="none" xmlns="http://www.w3.org/2000/svg">
<path d="M174 46L174 157" stroke="#028352" stroke-width="2" stroke-linecap="round" stroke-dasharray="4 6"/>
<path d="M174 159L174 268" stroke="#BFC0BF" stroke-linecap="round"/>
<circle cx="174.5" cy="40" r="20" fill="#A2A3A2" stroke="#FDFDFD" stroke-width="8"/>
<circle cx="174.5" cy="40" r="13.5" fill="#028352" stroke="#028352" stroke-width="5"/>
<g clip-path="url(#clip0_1003_12015)">
<path d="M179.914 30.6156C181.548 31.559 182.907 32.9128 183.857 34.543C184.807 36.1732 185.315 38.0232 185.33 39.9099C185.345 41.7966 184.868 43.6546 183.944 45.2999C183.021 46.9452 181.683 48.3208 180.065 49.2905C178.446 50.2602 176.603 50.7903 174.716 50.8285C172.83 50.8667 170.966 50.4115 169.31 49.5081C167.654 48.6047 166.262 47.2843 165.272 45.6778C164.283 44.0712 163.731 42.234 163.669 40.3483L163.664 39.9973L163.669 39.6463C163.73 37.7754 164.275 35.9521 165.25 34.3542C166.225 32.7563 167.597 31.4384 169.233 30.5288C170.869 29.6193 172.713 29.1492 174.585 29.1644C176.457 29.1796 178.293 29.6796 179.914 30.6156ZM178.513 37.0647C178.327 36.8782 178.079 36.7661 177.815 36.7496C177.552 36.733 177.292 36.8131 177.083 36.9748L176.981 37.0647L173.414 40.631L172.013 39.2314L171.911 39.1414C171.703 38.9799 171.443 38.8999 171.18 38.9165C170.916 38.9331 170.668 39.0452 170.482 39.2316C170.295 39.4181 170.183 39.6663 170.167 39.9295C170.15 40.1927 170.23 40.4529 170.392 40.6614L170.481 40.7632L172.648 42.9299L172.75 43.0198C172.94 43.1672 173.174 43.2472 173.414 43.2472C173.655 43.2472 173.888 43.1672 174.078 43.0198L174.18 42.9299L178.513 38.5965L178.603 38.4947C178.765 38.2863 178.845 38.026 178.828 37.7627C178.812 37.4994 178.7 37.2512 178.513 37.0647Z" fill="#FDFDFD"/>
</g>
<rect x="109" y="64" width="132" height="22" rx="10" fill="#028352"/>
<path d="M123.424 80V71.06H124.84V80H123.424ZM126.562 80V73.508H127.858V74.78L127.702 74.612C127.862 74.204 128.118 73.896 128.47 73.688C128.822 73.472 129.23 73.364 129.694 73.364C130.174 73.364 130.598 73.468 130.966 73.676C131.334 73.884 131.622 74.172 131.83 74.54C132.038 74.908 132.142 75.332 132.142 75.812V80H130.798V76.172C130.798 75.844 130.738 75.568 130.618 75.344C130.498 75.112 130.326 74.936 130.102 74.816C129.886 74.688 129.638 74.624 129.358 74.624C129.078 74.624 128.826 74.688 128.602 74.816C128.386 74.936 128.218 75.112 128.098 75.344C127.978 75.576 127.918 75.852 127.918 76.172V80H126.562ZM138.822 80.144C138.198 80.144 137.626 79.996 137.106 79.7C136.594 79.404 136.186 79 135.882 78.488C135.578 77.976 135.426 77.396 135.426 76.748C135.426 76.092 135.578 75.512 135.882 75.008C136.186 74.496 136.594 74.096 137.106 73.808C137.618 73.512 138.19 73.364 138.822 73.364C139.462 73.364 140.034 73.512 140.538 73.808C141.05 74.096 141.454 74.496 141.75 75.008C142.054 75.512 142.206 76.092 142.206 76.748C142.206 77.404 142.054 77.988 141.75 78.5C141.446 79.012 141.038 79.416 140.526 79.712C140.014 80 139.446 80.144 138.822 80.144ZM138.822 78.884C139.206 78.884 139.546 78.792 139.842 78.608C140.138 78.424 140.37 78.172 140.538 77.852C140.714 77.524 140.802 77.156 140.802 76.748C140.802 76.34 140.714 75.976 140.538 75.656C140.37 75.336 140.138 75.084 139.842 74.9C139.546 74.716 139.206 74.624 138.822 74.624C138.446 74.624 138.106 74.716 137.802 74.9C137.506 75.084 137.27 75.336 137.094 75.656C136.926 75.976 136.842 76.34 136.842 76.748C136.842 77.156 136.926 77.524 137.094 77.852C137.27 78.172 137.506 78.424 137.802 78.608C138.106 78.792 138.446 78.884 138.822 78.884ZM143.53 80V73.508H144.826V74.78L144.67 74.612C144.83 74.204 145.086 73.896 145.438 73.688C145.79 73.472 146.198 73.364 146.662 73.364C147.142 73.364 147.566 73.468 147.934 73.676C148.302 73.884 148.59 74.172 148.798 74.54C149.006 74.908 149.11 75.332 149.11 75.812V80H147.766V76.172C147.766 75.844 147.706 75.568 147.586 75.344C147.466 75.112 147.294 74.936 147.07 74.816C146.854 74.688 146.606 74.624 146.326 74.624C146.046 74.624 145.794 74.688 145.57 74.816C145.354 74.936 145.186 75.112 145.066 75.344C144.946 75.576 144.886 75.852 144.886 76.172V80H143.53ZM153.562 80.144C152.938 80.144 152.378 79.996 151.882 79.7C151.394 79.396 151.006 78.988 150.718 78.476C150.438 77.964 150.298 77.388 150.298 76.748C150.298 76.108 150.442 75.532 150.73 75.02C151.018 74.508 151.406 74.104 151.894 73.808C152.382 73.512 152.934 73.364 153.55 73.364C154.07 73.364 154.53 73.468 154.93 73.676C155.33 73.884 155.646 74.172 155.878 74.54L155.674 74.852V70.916H157.018V80H155.734V78.68L155.89 78.932C155.666 79.324 155.346 79.624 154.93 79.832C154.514 80.04 154.058 80.144 153.562 80.144ZM153.694 78.884C154.07 78.884 154.406 78.792 154.702 78.608C155.006 78.424 155.242 78.172 155.41 77.852C155.586 77.524 155.674 77.156 155.674 76.748C155.674 76.34 155.586 75.976 155.41 75.656C155.242 75.336 155.006 75.084 154.702 74.9C154.406 74.716 154.07 74.624 153.694 74.624C153.318 74.624 152.978 74.716 152.674 74.9C152.37 75.084 152.134 75.336 151.966 75.656C151.798 75.976 151.714 76.34 151.714 76.748C151.714 77.156 151.798 77.524 151.966 77.852C152.134 78.172 152.366 78.424 152.662 78.608C152.966 78.792 153.31 78.884 153.694 78.884ZM161.649 80.144C161.001 80.144 160.425 79.996 159.921 79.7C159.425 79.396 159.037 78.988 158.757 78.476C158.477 77.956 158.337 77.376 158.337 76.736C158.337 76.08 158.477 75.5 158.757 74.996C159.045 74.492 159.429 74.096 159.909 73.808C160.389 73.512 160.933 73.364 161.541 73.364C162.029 73.364 162.465 73.448 162.849 73.616C163.233 73.784 163.557 74.016 163.821 74.312C164.085 74.6 164.285 74.932 164.421 75.308C164.565 75.684 164.637 76.084 164.637 76.508C164.637 76.612 164.633 76.72 164.625 76.832C164.617 76.944 164.601 77.048 164.577 77.144H159.405V76.064H163.809L163.161 76.556C163.241 76.164 163.213 75.816 163.077 75.512C162.949 75.2 162.749 74.956 162.477 74.78C162.213 74.596 161.901 74.504 161.541 74.504C161.181 74.504 160.861 74.596 160.581 74.78C160.301 74.956 160.085 75.212 159.933 75.548C159.781 75.876 159.721 76.276 159.753 76.748C159.713 77.188 159.773 77.572 159.933 77.9C160.101 78.228 160.333 78.484 160.629 78.668C160.933 78.852 161.277 78.944 161.661 78.944C162.053 78.944 162.385 78.856 162.657 78.68C162.937 78.504 163.157 78.276 163.317 77.996L164.421 78.536C164.293 78.84 164.093 79.116 163.821 79.364C163.557 79.604 163.237 79.796 162.861 79.94C162.493 80.076 162.089 80.144 161.649 80.144ZM165.96 80V73.508H167.256V74.816L167.136 74.624C167.28 74.2 167.512 73.896 167.832 73.712C168.152 73.52 168.536 73.424 168.984 73.424H169.38V74.66H168.816C168.368 74.66 168.004 74.8 167.724 75.08C167.452 75.352 167.316 75.744 167.316 76.256V80H165.96ZM170.308 80V70.916H171.664V74.78L171.448 74.612C171.608 74.204 171.864 73.896 172.216 73.688C172.568 73.472 172.976 73.364 173.44 73.364C173.92 73.364 174.344 73.468 174.712 73.676C175.08 73.884 175.368 74.172 175.576 74.54C175.784 74.908 175.888 75.328 175.888 75.8V80H174.544V76.172C174.544 75.844 174.48 75.568 174.352 75.344C174.232 75.112 174.064 74.936 173.848 74.816C173.632 74.688 173.384 74.624 173.104 74.624C172.832 74.624 172.584 74.688 172.36 74.816C172.144 74.936 171.972 75.112 171.844 75.344C171.724 75.576 171.664 75.852 171.664 76.172V80H170.308ZM179.283 80.144C178.843 80.144 178.455 80.068 178.119 79.916C177.791 79.756 177.535 79.54 177.351 79.268C177.167 78.988 177.075 78.66 177.075 78.284C177.075 77.932 177.151 77.616 177.303 77.336C177.463 77.056 177.707 76.82 178.035 76.628C178.363 76.436 178.775 76.3 179.271 76.22L181.527 75.848V76.916L179.535 77.264C179.175 77.328 178.911 77.444 178.743 77.612C178.575 77.772 178.491 77.98 178.491 78.236C178.491 78.484 178.583 78.688 178.767 78.848C178.959 79 179.203 79.076 179.499 79.076C179.867 79.076 180.187 78.996 180.459 78.836C180.739 78.676 180.955 78.464 181.107 78.2C181.259 77.928 181.335 77.628 181.335 77.3V75.632C181.335 75.312 181.215 75.052 180.975 74.852C180.743 74.644 180.431 74.54 180.039 74.54C179.679 74.54 179.363 74.636 179.091 74.828C178.827 75.012 178.631 75.252 178.503 75.548L177.375 74.984C177.495 74.664 177.691 74.384 177.963 74.144C178.235 73.896 178.551 73.704 178.911 73.568C179.279 73.432 179.667 73.364 180.075 73.364C180.587 73.364 181.039 73.46 181.431 73.652C181.831 73.844 182.139 74.112 182.355 74.456C182.579 74.792 182.691 75.184 182.691 75.632V80H181.395V78.824L181.671 78.86C181.519 79.124 181.323 79.352 181.083 79.544C180.851 79.736 180.583 79.884 180.279 79.988C179.983 80.092 179.651 80.144 179.283 80.144ZM184.276 80V73.508H185.572V74.78L185.416 74.612C185.576 74.204 185.832 73.896 186.184 73.688C186.536 73.472 186.944 73.364 187.408 73.364C187.888 73.364 188.312 73.468 188.68 73.676C189.048 73.884 189.336 74.172 189.544 74.54C189.752 74.908 189.856 75.332 189.856 75.812V80H188.512V76.172C188.512 75.844 188.452 75.568 188.332 75.344C188.212 75.112 188.04 74.936 187.816 74.816C187.6 74.688 187.352 74.624 187.072 74.624C186.792 74.624 186.54 74.688 186.316 74.816C186.1 74.936 185.932 75.112 185.812 75.344C185.692 75.576 185.632 75.852 185.632 76.172V80H184.276ZM194.308 80.144C193.684 80.144 193.124 79.996 192.628 79.7C192.14 79.396 191.752 78.988 191.464 78.476C191.184 77.964 191.044 77.388 191.044 76.748C191.044 76.108 191.188 75.532 191.476 75.02C191.764 74.508 192.152 74.104 192.64 73.808C193.128 73.512 193.68 73.364 194.296 73.364C194.816 73.364 195.276 73.468 195.676 73.676C196.076 73.884 196.392 74.172 196.624 74.54L196.42 74.852V70.916H197.764V80H196.48V78.68L196.636 78.932C196.412 79.324 196.092 79.624 195.676 79.832C195.26 80.04 194.804 80.144 194.308 80.144ZM194.44 78.884C194.816 78.884 195.152 78.792 195.448 78.608C195.752 78.424 195.988 78.172 196.156 77.852C196.332 77.524 196.42 77.156 196.42 76.748C196.42 76.34 196.332 75.976 196.156 75.656C195.988 75.336 195.752 75.084 195.448 74.9C195.152 74.716 194.816 74.624 194.44 74.624C194.064 74.624 193.724 74.716 193.42 74.9C193.116 75.084 192.88 75.336 192.712 75.656C192.544 75.976 192.46 76.34 192.46 76.748C192.46 77.156 192.544 77.524 192.712 77.852C192.88 78.172 193.112 78.424 193.408 78.608C193.712 78.792 194.056 78.884 194.44 78.884ZM202.395 80.144C201.747 80.144 201.171 79.996 200.667 79.7C200.171 79.396 199.783 78.988 199.503 78.476C199.223 77.956 199.083 77.376 199.083 76.736C199.083 76.08 199.223 75.5 199.503 74.996C199.791 74.492 200.175 74.096 200.655 73.808C201.135 73.512 201.679 73.364 202.287 73.364C202.775 73.364 203.211 73.448 203.595 73.616C203.979 73.784 204.303 74.016 204.567 74.312C204.831 74.6 205.031 74.932 205.167 75.308C205.311 75.684 205.383 76.084 205.383 76.508C205.383 76.612 205.379 76.72 205.371 76.832C205.363 76.944 205.347 77.048 205.323 77.144H200.151V76.064H204.555L203.907 76.556C203.987 76.164 203.959 75.816 203.823 75.512C203.695 75.2 203.495 74.956 203.223 74.78C202.959 74.596 202.647 74.504 202.287 74.504C201.927 74.504 201.607 74.596 201.327 74.78C201.047 74.956 200.831 75.212 200.679 75.548C200.527 75.876 200.467 76.276 200.499 76.748C200.459 77.188 200.519 77.572 200.679 77.9C200.847 78.228 201.079 78.484 201.375 78.668C201.679 78.852 202.023 78.944 202.407 78.944C202.799 78.944 203.131 78.856 203.403 78.68C203.683 78.504 203.903 78.276 204.063 77.996L205.167 78.536C205.039 78.84 204.839 79.116 204.567 79.364C204.303 79.604 203.983 79.796 203.607 79.94C203.239 80.076 202.835 80.144 202.395 80.144ZM206.706 80V70.916H208.062V80H206.706ZM209.647 80V73.508H211.003V80H209.647ZM209.647 72.62V71.06H211.003V72.62H209.647ZM212.589 80V73.508H213.885V74.78L213.729 74.612C213.889 74.204 214.145 73.896 214.497 73.688C214.849 73.472 215.257 73.364 215.721 73.364C216.201 73.364 216.625 73.468 216.993 73.676C217.361 73.884 217.649 74.172 217.857 74.54C218.065 74.908 218.169 75.332 218.169 75.812V80H216.825V76.172C216.825 75.844 216.765 75.568 216.645 75.344C216.525 75.112 216.353 74.936 216.129 74.816C215.913 74.688 215.665 74.624 215.385 74.624C215.105 74.624 214.853 74.688 214.629 74.816C214.413 74.936 214.245 75.112 214.125 75.344C214.005 75.576 213.945 75.852 213.945 76.172V80H212.589ZM222.752 82.64C222.28 82.64 221.844 82.564 221.444 82.412C221.044 82.26 220.7 82.048 220.412 81.776C220.124 81.512 219.908 81.2 219.764 80.84L221.012 80.324C221.124 80.628 221.328 80.88 221.624 81.08C221.928 81.28 222.3 81.38 222.74 81.38C223.084 81.38 223.392 81.312 223.664 81.176C223.936 81.048 224.152 80.856 224.312 80.6C224.472 80.352 224.552 80.052 224.552 79.7V78.236L224.792 78.512C224.568 78.928 224.256 79.244 223.856 79.46C223.464 79.676 223.02 79.784 222.524 79.784C221.924 79.784 221.384 79.644 220.904 79.364C220.424 79.084 220.044 78.7 219.764 78.212C219.492 77.724 219.356 77.176 219.356 76.568C219.356 75.952 219.492 75.404 219.764 74.924C220.044 74.444 220.42 74.064 220.892 73.784C221.364 73.504 221.904 73.364 222.512 73.364C223.008 73.364 223.448 73.472 223.832 73.688C224.224 73.896 224.544 74.2 224.792 74.6L224.612 74.936V73.508H225.896V79.7C225.896 80.26 225.76 80.76 225.488 81.2C225.224 81.648 224.856 82 224.384 82.256C223.912 82.512 223.368 82.64 222.752 82.64ZM222.68 78.524C223.04 78.524 223.36 78.44 223.64 78.272C223.92 78.096 224.14 77.864 224.3 77.576C224.468 77.28 224.552 76.948 224.552 76.58C224.552 76.212 224.468 75.88 224.3 75.584C224.132 75.288 223.908 75.056 223.628 74.888C223.348 74.712 223.032 74.624 222.68 74.624C222.312 74.624 221.984 74.712 221.696 74.888C221.408 75.056 221.18 75.288 221.012 75.584C220.852 75.872 220.772 76.204 220.772 76.58C220.772 76.94 220.852 77.268 221.012 77.564C221.18 77.86 221.408 78.096 221.696 78.272C221.984 78.44 222.312 78.524 222.68 78.524Z" fill="#FDFDFD"/>
<circle cx="174.5" cy="134" r="20" fill="#A2A3A2" stroke="#FDFDFD" stroke-width="8"/>
<circle cx="174.5" cy="134" r="13.5" fill="#FDFDFD" stroke="#028352" stroke-width="5"/>
<rect x="109.5" y="158.5" width="131" height="21" rx="9.5" fill="white"/>
<rect x="109.5" y="158.5" width="131" height="21" rx="9.5" stroke="#028352"/>
<path d="M136.132 174L139.276 165.06H141.028L144.172 174H142.66L141.976 171.996H138.34L137.644 174H136.132ZM138.748 170.736H141.544L139.96 166.056H140.356L138.748 170.736ZM147.045 174.144C146.605 174.144 146.217 174.068 145.881 173.916C145.553 173.756 145.297 173.54 145.113 173.268C144.929 172.988 144.837 172.66 144.837 172.284C144.837 171.932 144.913 171.616 145.065 171.336C145.225 171.056 145.469 170.82 145.797 170.628C146.125 170.436 146.537 170.3 147.033 170.22L149.289 169.848V170.916L147.297 171.264C146.937 171.328 146.673 171.444 146.505 171.612C146.337 171.772 146.253 171.98 146.253 172.236C146.253 172.484 146.345 172.688 146.529 172.848C146.721 173 146.965 173.076 147.261 173.076C147.629 173.076 147.949 172.996 148.221 172.836C148.501 172.676 148.717 172.464 148.869 172.2C149.021 171.928 149.097 171.628 149.097 171.3V169.632C149.097 169.312 148.977 169.052 148.737 168.852C148.505 168.644 148.193 168.54 147.801 168.54C147.441 168.54 147.125 168.636 146.853 168.828C146.589 169.012 146.393 169.252 146.265 169.548L145.137 168.984C145.257 168.664 145.453 168.384 145.725 168.144C145.997 167.896 146.313 167.704 146.673 167.568C147.041 167.432 147.429 167.364 147.837 167.364C148.349 167.364 148.801 167.46 149.193 167.652C149.593 167.844 149.901 168.112 150.117 168.456C150.341 168.792 150.453 169.184 150.453 169.632V174H149.157V172.824L149.433 172.86C149.281 173.124 149.085 173.352 148.845 173.544C148.613 173.736 148.345 173.884 148.041 173.988C147.745 174.092 147.413 174.144 147.045 174.144ZM152.038 174V167.508H153.334V168.78L153.178 168.612C153.338 168.204 153.594 167.896 153.946 167.688C154.298 167.472 154.706 167.364 155.17 167.364C155.65 167.364 156.074 167.468 156.442 167.676C156.81 167.884 157.098 168.172 157.306 168.54C157.514 168.908 157.618 169.332 157.618 169.812V174H156.274V170.172C156.274 169.844 156.214 169.568 156.094 169.344C155.974 169.112 155.802 168.936 155.578 168.816C155.362 168.688 155.114 168.624 154.834 168.624C154.554 168.624 154.302 168.688 154.078 168.816C153.862 168.936 153.694 169.112 153.574 169.344C153.454 169.576 153.394 169.852 153.394 170.172V174H152.038ZM162.201 176.64C161.729 176.64 161.293 176.564 160.893 176.412C160.493 176.26 160.149 176.048 159.861 175.776C159.573 175.512 159.357 175.2 159.213 174.84L160.461 174.324C160.573 174.628 160.777 174.88 161.073 175.08C161.377 175.28 161.749 175.38 162.189 175.38C162.533 175.38 162.841 175.312 163.113 175.176C163.385 175.048 163.601 174.856 163.761 174.6C163.921 174.352 164.001 174.052 164.001 173.7V172.236L164.241 172.512C164.017 172.928 163.705 173.244 163.305 173.46C162.913 173.676 162.469 173.784 161.973 173.784C161.373 173.784 160.833 173.644 160.353 173.364C159.873 173.084 159.493 172.7 159.213 172.212C158.941 171.724 158.805 171.176 158.805 170.568C158.805 169.952 158.941 169.404 159.213 168.924C159.493 168.444 159.869 168.064 160.341 167.784C160.813 167.504 161.353 167.364 161.961 167.364C162.457 167.364 162.897 167.472 163.281 167.688C163.673 167.896 163.993 168.2 164.241 168.6L164.061 168.936V167.508H165.345V173.7C165.345 174.26 165.209 174.76 164.937 175.2C164.673 175.648 164.305 176 163.833 176.256C163.361 176.512 162.817 176.64 162.201 176.64ZM162.129 172.524C162.489 172.524 162.809 172.44 163.089 172.272C163.369 172.096 163.589 171.864 163.749 171.576C163.917 171.28 164.001 170.948 164.001 170.58C164.001 170.212 163.917 169.88 163.749 169.584C163.581 169.288 163.357 169.056 163.077 168.888C162.797 168.712 162.481 168.624 162.129 168.624C161.761 168.624 161.433 168.712 161.145 168.888C160.857 169.056 160.629 169.288 160.461 169.584C160.301 169.872 160.221 170.204 160.221 170.58C160.221 170.94 160.301 171.268 160.461 171.564C160.629 171.86 160.857 172.096 161.145 172.272C161.433 172.44 161.761 172.524 162.129 172.524ZM169.981 174.144C169.333 174.144 168.757 173.996 168.253 173.7C167.757 173.396 167.369 172.988 167.089 172.476C166.809 171.956 166.669 171.376 166.669 170.736C166.669 170.08 166.809 169.5 167.089 168.996C167.377 168.492 167.761 168.096 168.241 167.808C168.721 167.512 169.265 167.364 169.873 167.364C170.361 167.364 170.797 167.448 171.181 167.616C171.565 167.784 171.889 168.016 172.153 168.312C172.417 168.6 172.617 168.932 172.753 169.308C172.897 169.684 172.969 170.084 172.969 170.508C172.969 170.612 172.965 170.72 172.957 170.832C172.949 170.944 172.933 171.048 172.909 171.144H167.737V170.064H172.141L171.493 170.556C171.573 170.164 171.545 169.816 171.409 169.512C171.281 169.2 171.081 168.956 170.809 168.78C170.545 168.596 170.233 168.504 169.873 168.504C169.513 168.504 169.193 168.596 168.913 168.78C168.633 168.956 168.417 169.212 168.265 169.548C168.113 169.876 168.053 170.276 168.085 170.748C168.045 171.188 168.105 171.572 168.265 171.9C168.433 172.228 168.665 172.484 168.961 172.668C169.265 172.852 169.609 172.944 169.993 172.944C170.385 172.944 170.717 172.856 170.989 172.68C171.269 172.504 171.489 172.276 171.649 171.996L172.753 172.536C172.625 172.84 172.425 173.116 172.153 173.364C171.889 173.604 171.569 173.796 171.193 173.94C170.825 174.076 170.421 174.144 169.981 174.144ZM174.292 174V167.508H175.588V168.78L175.432 168.612C175.592 168.204 175.848 167.896 176.2 167.688C176.552 167.472 176.96 167.364 177.424 167.364C177.904 167.364 178.328 167.468 178.696 167.676C179.064 167.884 179.352 168.172 179.56 168.54C179.768 168.908 179.872 169.332 179.872 169.812V174H178.528V170.172C178.528 169.844 178.468 169.568 178.348 169.344C178.228 169.112 178.056 168.936 177.832 168.816C177.616 168.688 177.368 168.624 177.088 168.624C176.808 168.624 176.556 168.688 176.332 168.816C176.116 168.936 175.948 169.112 175.828 169.344C175.708 169.576 175.648 169.852 175.648 170.172V174H174.292ZM184.455 174.144C183.831 174.144 183.259 173.996 182.739 173.7C182.227 173.404 181.819 173 181.515 172.488C181.211 171.976 181.059 171.396 181.059 170.748C181.059 170.092 181.211 169.512 181.515 169.008C181.819 168.496 182.227 168.096 182.739 167.808C183.251 167.512 183.823 167.364 184.455 167.364C185.095 167.364 185.667 167.512 186.171 167.808C186.683 168.096 187.087 168.496 187.383 169.008C187.687 169.512 187.839 170.092 187.839 170.748C187.839 171.404 187.687 171.988 187.383 172.5C187.079 173.012 186.671 173.416 186.159 173.712C185.647 174 185.079 174.144 184.455 174.144ZM184.455 172.884C184.839 172.884 185.179 172.792 185.475 172.608C185.771 172.424 186.003 172.172 186.171 171.852C186.347 171.524 186.435 171.156 186.435 170.748C186.435 170.34 186.347 169.976 186.171 169.656C186.003 169.336 185.771 169.084 185.475 168.9C185.179 168.716 184.839 168.624 184.455 168.624C184.079 168.624 183.739 168.716 183.435 168.9C183.139 169.084 182.903 169.336 182.727 169.656C182.559 169.976 182.475 170.34 182.475 170.748C182.475 171.156 182.559 171.524 182.727 171.852C182.903 172.172 183.139 172.424 183.435 172.608C183.739 172.792 184.079 172.884 184.455 172.884ZM189.163 174V167.508H190.459V168.912L190.291 168.696C190.427 168.256 190.675 167.924 191.035 167.7C191.395 167.476 191.807 167.364 192.271 167.364C192.791 167.364 193.251 167.504 193.651 167.784C194.059 168.056 194.331 168.42 194.467 168.876L194.083 168.912C194.275 168.392 194.567 168.004 194.959 167.748C195.359 167.492 195.815 167.364 196.327 167.364C196.775 167.364 197.179 167.468 197.539 167.676C197.907 167.884 198.199 168.172 198.415 168.54C198.631 168.908 198.739 169.328 198.739 169.8V174H197.383V170.172C197.383 169.844 197.323 169.568 197.203 169.344C197.091 169.112 196.931 168.936 196.723 168.816C196.523 168.688 196.287 168.624 196.015 168.624C195.743 168.624 195.503 168.688 195.295 168.816C195.087 168.936 194.923 169.112 194.803 169.344C194.683 169.576 194.623 169.852 194.623 170.172V174H193.279V170.172C193.279 169.844 193.219 169.568 193.099 169.344C192.987 169.112 192.827 168.936 192.619 168.816C192.419 168.688 192.179 168.624 191.899 168.624C191.627 168.624 191.387 168.688 191.179 168.816C190.971 168.936 190.807 169.112 190.687 169.344C190.575 169.576 190.519 169.852 190.519 170.172V174H189.163ZM203.238 174.144C202.59 174.144 202.014 173.996 201.51 173.7C201.014 173.396 200.626 172.988 200.346 172.476C200.066 171.956 199.926 171.376 199.926 170.736C199.926 170.08 200.066 169.5 200.346 168.996C200.634 168.492 201.018 168.096 201.498 167.808C201.978 167.512 202.522 167.364 203.13 167.364C203.618 167.364 204.054 167.448 204.438 167.616C204.822 167.784 205.146 168.016 205.41 168.312C205.674 168.6 205.874 168.932 206.01 169.308C206.154 169.684 206.226 170.084 206.226 170.508C206.226 170.612 206.222 170.72 206.214 170.832C206.206 170.944 206.19 171.048 206.166 171.144H200.994V170.064H205.398L204.75 170.556C204.83 170.164 204.802 169.816 204.666 169.512C204.538 169.2 204.338 168.956 204.066 168.78C203.802 168.596 203.49 168.504 203.13 168.504C202.77 168.504 202.45 168.596 202.17 168.78C201.89 168.956 201.674 169.212 201.522 169.548C201.37 169.876 201.31 170.276 201.342 170.748C201.302 171.188 201.362 171.572 201.522 171.9C201.69 172.228 201.922 172.484 202.218 172.668C202.522 172.852 202.866 172.944 203.25 172.944C203.642 172.944 203.974 172.856 204.246 172.68C204.526 172.504 204.746 172.276 204.906 171.996L206.01 172.536C205.882 172.84 205.682 173.116 205.41 173.364C205.146 173.604 204.826 173.796 204.45 173.94C204.082 174.076 203.678 174.144 203.238 174.144ZM207.55 174V167.508H208.846V168.78L208.69 168.612C208.85 168.204 209.106 167.896 209.458 167.688C209.81 167.472 210.218 167.364 210.682 167.364C211.162 167.364 211.586 167.468 211.954 167.676C212.322 167.884 212.61 168.172 212.818 168.54C213.026 168.908 213.13 169.332 213.13 169.812V174H211.786V170.172C211.786 169.844 211.726 169.568 211.606 169.344C211.486 169.112 211.314 168.936 211.09 168.816C210.874 168.688 210.626 168.624 210.346 168.624C210.066 168.624 209.814 168.688 209.59 168.816C209.374 168.936 209.206 169.112 209.086 169.344C208.966 169.576 208.906 169.852 208.906 170.172V174H207.55Z" fill="#028352"/>
<circle cx="174.5" cy="228" r="20" fill="#A2A3A2" stroke="#FDFDFD" stroke-width="8"/>
<circle cx="174.5" cy="228" r="13.5" fill="#DAD8D8" stroke="#F0F0F0" stroke-width="5"/>
<rect x="109" y="252" width="132" height="22" rx="10" fill="#F0F0F0"/>
<path d="M133.424 268V259.06H134.84V268H133.424ZM136.562 268V261.508H137.858V262.912L137.69 262.696C137.826 262.256 138.074 261.924 138.434 261.7C138.794 261.476 139.206 261.364 139.67 261.364C140.19 261.364 140.65 261.504 141.05 261.784C141.458 262.056 141.73 262.42 141.866 262.876L141.482 262.912C141.674 262.392 141.966 262.004 142.358 261.748C142.758 261.492 143.214 261.364 143.726 261.364C144.174 261.364 144.578 261.468 144.938 261.676C145.306 261.884 145.598 262.172 145.814 262.54C146.03 262.908 146.138 263.328 146.138 263.8V268H144.782V264.172C144.782 263.844 144.722 263.568 144.602 263.344C144.49 263.112 144.33 262.936 144.122 262.816C143.922 262.688 143.686 262.624 143.414 262.624C143.142 262.624 142.902 262.688 142.694 262.816C142.486 262.936 142.322 263.112 142.202 263.344C142.082 263.576 142.022 263.852 142.022 264.172V268H140.678V264.172C140.678 263.844 140.618 263.568 140.498 263.344C140.386 263.112 140.226 262.936 140.018 262.816C139.818 262.688 139.578 262.624 139.298 262.624C139.026 262.624 138.786 262.688 138.578 262.816C138.37 262.936 138.206 263.112 138.086 263.344C137.974 263.576 137.918 263.852 137.918 264.172V268H136.562ZM147.589 270.4V261.508H148.885V262.852L148.729 262.54C148.969 262.172 149.289 261.884 149.689 261.676C150.089 261.468 150.545 261.364 151.057 261.364C151.673 261.364 152.225 261.512 152.713 261.808C153.209 262.104 153.597 262.508 153.877 263.02C154.165 263.532 154.309 264.108 154.309 264.748C154.309 265.388 154.165 265.964 153.877 266.476C153.597 266.988 153.213 267.396 152.725 267.7C152.237 267.996 151.681 268.144 151.057 268.144C150.553 268.144 150.093 268.04 149.677 267.832C149.269 267.624 148.953 267.324 148.729 266.932L148.945 266.68V270.4H147.589ZM150.925 266.884C151.309 266.884 151.649 266.792 151.945 266.608C152.241 266.424 152.473 266.172 152.641 265.852C152.817 265.524 152.905 265.156 152.905 264.748C152.905 264.34 152.817 263.976 152.641 263.656C152.473 263.336 152.241 263.084 151.945 262.9C151.649 262.716 151.309 262.624 150.925 262.624C150.549 262.624 150.209 262.716 149.905 262.9C149.609 263.084 149.373 263.336 149.197 263.656C149.029 263.976 148.945 264.34 148.945 264.748C148.945 265.156 149.029 265.524 149.197 265.852C149.373 266.172 149.609 266.424 149.905 266.608C150.209 266.792 150.549 266.884 150.925 266.884ZM155.628 268V258.916H156.984V268H155.628ZM161.617 268.144C160.969 268.144 160.393 267.996 159.889 267.7C159.393 267.396 159.005 266.988 158.725 266.476C158.445 265.956 158.305 265.376 158.305 264.736C158.305 264.08 158.445 263.5 158.725 262.996C159.013 262.492 159.397 262.096 159.877 261.808C160.357 261.512 160.901 261.364 161.509 261.364C161.997 261.364 162.433 261.448 162.817 261.616C163.201 261.784 163.525 262.016 163.789 262.312C164.053 262.6 164.253 262.932 164.389 263.308C164.533 263.684 164.605 264.084 164.605 264.508C164.605 264.612 164.601 264.72 164.593 264.832C164.585 264.944 164.569 265.048 164.545 265.144H159.373V264.064H163.777L163.129 264.556C163.209 264.164 163.181 263.816 163.045 263.512C162.917 263.2 162.717 262.956 162.445 262.78C162.181 262.596 161.869 262.504 161.509 262.504C161.149 262.504 160.829 262.596 160.549 262.78C160.269 262.956 160.053 263.212 159.901 263.548C159.749 263.876 159.689 264.276 159.721 264.748C159.681 265.188 159.741 265.572 159.901 265.9C160.069 266.228 160.301 266.484 160.597 266.668C160.901 266.852 161.245 266.944 161.629 266.944C162.021 266.944 162.353 266.856 162.625 266.68C162.905 266.504 163.125 266.276 163.285 265.996L164.389 266.536C164.261 266.84 164.061 267.116 163.789 267.364C163.525 267.604 163.205 267.796 162.829 267.94C162.461 268.076 162.057 268.144 161.617 268.144ZM165.929 268V261.508H167.225V262.912L167.057 262.696C167.193 262.256 167.441 261.924 167.801 261.7C168.161 261.476 168.573 261.364 169.037 261.364C169.557 261.364 170.017 261.504 170.417 261.784C170.825 262.056 171.097 262.42 171.233 262.876L170.849 262.912C171.041 262.392 171.333 262.004 171.725 261.748C172.125 261.492 172.581 261.364 173.093 261.364C173.541 261.364 173.945 261.468 174.305 261.676C174.673 261.884 174.965 262.172 175.181 262.54C175.397 262.908 175.505 263.328 175.505 263.8V268H174.149V264.172C174.149 263.844 174.089 263.568 173.969 263.344C173.857 263.112 173.697 262.936 173.489 262.816C173.289 262.688 173.053 262.624 172.781 262.624C172.509 262.624 172.269 262.688 172.061 262.816C171.853 262.936 171.689 263.112 171.569 263.344C171.449 263.576 171.389 263.852 171.389 264.172V268H170.045V264.172C170.045 263.844 169.985 263.568 169.865 263.344C169.753 263.112 169.593 262.936 169.385 262.816C169.185 262.688 168.945 262.624 168.665 262.624C168.393 262.624 168.153 262.688 167.945 262.816C167.737 262.936 167.573 263.112 167.453 263.344C167.341 263.576 167.285 263.852 167.285 264.172V268H165.929ZM180.004 268.144C179.356 268.144 178.78 267.996 178.276 267.7C177.78 267.396 177.392 266.988 177.112 266.476C176.832 265.956 176.692 265.376 176.692 264.736C176.692 264.08 176.832 263.5 177.112 262.996C177.4 262.492 177.784 262.096 178.264 261.808C178.744 261.512 179.288 261.364 179.896 261.364C180.384 261.364 180.82 261.448 181.204 261.616C181.588 261.784 181.912 262.016 182.176 262.312C182.44 262.6 182.64 262.932 182.776 263.308C182.92 263.684 182.992 264.084 182.992 264.508C182.992 264.612 182.988 264.72 182.98 264.832C182.972 264.944 182.956 265.048 182.932 265.144H177.76V264.064H182.164L181.516 264.556C181.596 264.164 181.568 263.816 181.432 263.512C181.304 263.2 181.104 262.956 180.832 262.78C180.568 262.596 180.256 262.504 179.896 262.504C179.536 262.504 179.216 262.596 178.936 262.78C178.656 262.956 178.44 263.212 178.288 263.548C178.136 263.876 178.076 264.276 178.108 264.748C178.068 265.188 178.128 265.572 178.288 265.9C178.456 266.228 178.688 266.484 178.984 266.668C179.288 266.852 179.632 266.944 180.016 266.944C180.408 266.944 180.74 266.856 181.012 266.68C181.292 266.504 181.512 266.276 181.672 265.996L182.776 266.536C182.648 266.84 182.448 267.116 182.176 267.364C181.912 267.604 181.592 267.796 181.216 267.94C180.848 268.076 180.444 268.144 180.004 268.144ZM184.315 268V261.508H185.611V262.78L185.455 262.612C185.615 262.204 185.871 261.896 186.223 261.688C186.575 261.472 186.983 261.364 187.447 261.364C187.927 261.364 188.351 261.468 188.719 261.676C189.087 261.884 189.375 262.172 189.583 262.54C189.791 262.908 189.895 263.332 189.895 263.812V268H188.551V264.172C188.551 263.844 188.491 263.568 188.371 263.344C188.251 263.112 188.079 262.936 187.855 262.816C187.639 262.688 187.391 262.624 187.111 262.624C186.831 262.624 186.579 262.688 186.355 262.816C186.139 262.936 185.971 263.112 185.851 263.344C185.731 263.576 185.671 263.852 185.671 264.172V268H184.315ZM194.155 268.072C193.475 268.072 192.947 267.88 192.571 267.496C192.195 267.112 192.007 266.572 192.007 265.876V262.732H190.867V261.508H191.047C191.351 261.508 191.587 261.42 191.755 261.244C191.923 261.068 192.007 260.828 192.007 260.524V260.02H193.363V261.508H194.839V262.732H193.363V265.816C193.363 266.04 193.399 266.232 193.471 266.392C193.543 266.544 193.659 266.664 193.819 266.752C193.979 266.832 194.187 266.872 194.443 266.872C194.507 266.872 194.579 266.868 194.659 266.86C194.739 266.852 194.815 266.844 194.887 266.836V268C194.775 268.016 194.651 268.032 194.515 268.048C194.379 268.064 194.259 268.072 194.155 268.072ZM198.095 268.144C197.655 268.144 197.267 268.068 196.931 267.916C196.603 267.756 196.347 267.54 196.163 267.268C195.979 266.988 195.887 266.66 195.887 266.284C195.887 265.932 195.963 265.616 196.115 265.336C196.275 265.056 196.519 264.82 196.847 264.628C197.175 264.436 197.587 264.3 198.083 264.22L200.339 263.848V264.916L198.347 265.264C197.987 265.328 197.723 265.444 197.555 265.612C197.387 265.772 197.303 265.98 197.303 266.236C197.303 266.484 197.395 266.688 197.579 266.848C197.771 267 198.015 267.076 198.311 267.076C198.679 267.076 198.999 266.996 199.271 266.836C199.551 266.676 199.767 266.464 199.919 266.2C200.071 265.928 200.147 265.628 200.147 265.3V263.632C200.147 263.312 200.027 263.052 199.787 262.852C199.555 262.644 199.243 262.54 198.851 262.54C198.491 262.54 198.175 262.636 197.903 262.828C197.639 263.012 197.443 263.252 197.315 263.548L196.187 262.984C196.307 262.664 196.503 262.384 196.775 262.144C197.047 261.896 197.363 261.704 197.723 261.568C198.091 261.432 198.479 261.364 198.887 261.364C199.399 261.364 199.851 261.46 200.243 261.652C200.643 261.844 200.951 262.112 201.167 262.456C201.391 262.792 201.503 263.184 201.503 263.632V268H200.207V266.824L200.483 266.86C200.331 267.124 200.135 267.352 199.895 267.544C199.663 267.736 199.395 267.884 199.091 267.988C198.795 268.092 198.463 268.144 198.095 268.144ZM205.78 268.072C205.1 268.072 204.572 267.88 204.196 267.496C203.82 267.112 203.632 266.572 203.632 265.876V262.732H202.492V261.508H202.672C202.976 261.508 203.212 261.42 203.38 261.244C203.548 261.068 203.632 260.828 203.632 260.524V260.02H204.988V261.508H206.464V262.732H204.988V265.816C204.988 266.04 205.024 266.232 205.096 266.392C205.168 266.544 205.284 266.664 205.444 266.752C205.604 266.832 205.812 266.872 206.068 266.872C206.132 266.872 206.204 266.868 206.284 266.86C206.364 266.852 206.44 266.844 206.512 266.836V268C206.4 268.016 206.276 268.032 206.14 268.048C206.004 268.064 205.884 268.072 205.78 268.072ZM207.835 268V261.508H209.191V268H207.835ZM207.835 260.62V259.06H209.191V260.62H207.835ZM213.824 268.144C213.176 268.144 212.6 267.996 212.096 267.7C211.6 267.396 211.212 266.988 210.932 266.476C210.652 265.956 210.512 265.376 210.512 264.736C210.512 264.08 210.652 263.5 210.932 262.996C211.22 262.492 211.604 262.096 212.084 261.808C212.564 261.512 213.108 261.364 213.716 261.364C214.204 261.364 214.64 261.448 215.024 261.616C215.408 261.784 215.732 262.016 215.996 262.312C216.26 262.6 216.46 262.932 216.596 263.308C216.74 263.684 216.812 264.084 216.812 264.508C216.812 264.612 216.808 264.72 216.8 264.832C216.792 264.944 216.776 265.048 216.752 265.144H211.58V264.064H215.984L215.336 264.556C215.416 264.164 215.388 263.816 215.252 263.512C215.124 263.2 214.924 262.956 214.652 262.78C214.388 262.596 214.076 262.504 213.716 262.504C213.356 262.504 213.036 262.596 212.756 262.78C212.476 262.956 212.26 263.212 212.108 263.548C211.956 263.876 211.896 264.276 211.928 264.748C211.888 265.188 211.948 265.572 212.108 265.9C212.276 266.228 212.508 266.484 212.804 266.668C213.108 266.852 213.452 266.944 213.836 266.944C214.228 266.944 214.56 266.856 214.832 266.68C215.112 266.504 215.332 266.276 215.492 265.996L216.596 266.536C216.468 266.84 216.268 267.116 215.996 267.364C215.732 267.604 215.412 267.796 215.036 267.94C214.668 268.076 214.264 268.144 213.824 268.144Z" fill="#676868"/>
<defs>
<clipPath id="clip0_1003_12015">
<rect width="26" height="26" fill="white" transform="translate(161.5 27)"/>
</clipPath>
</defs>
</svg>
