<svg width="635" height="635" viewBox="0 0 635 635" fill="none" xmlns="http://www.w3.org/2000/svg">
<path d="M576 309.5C576 447.847 463.847 560 325.5 560C187.153 560 75 447.847 75 309.5C75 171.153 187.153 59 325.5 59C463.847 59 576 171.153 576 309.5ZM122.997 309.5C122.997 421.339 213.661 512.003 325.5 512.003C437.339 512.003 528.003 421.339 528.003 309.5C528.003 197.661 437.339 106.997 325.5 106.997C213.661 106.997 122.997 197.661 122.997 309.5Z" fill="#F8FBF8"/>
<mask id="path-2-inside-1_3868_11729" fill="white">
<path d="M528 309.5C528 421.338 437.338 512 325.5 512C213.662 512 123 421.338 123 309.5C123 197.662 213.662 107 325.5 107C437.338 107 528 197.662 528 309.5ZM163.054 309.5C163.054 399.216 235.784 471.945 325.5 471.945C415.216 471.945 487.945 399.216 487.945 309.5C487.945 219.784 415.216 147.054 325.5 147.054C235.784 147.054 163.054 219.784 163.054 309.5Z"/>
</mask>
<path d="M528 309.5C528 421.338 437.338 512 325.5 512C213.662 512 123 421.338 123 309.5C123 197.662 213.662 107 325.5 107C437.338 107 528 197.662 528 309.5ZM163.054 309.5C163.054 399.216 235.784 471.945 325.5 471.945C415.216 471.945 487.945 399.216 487.945 309.5C487.945 219.784 415.216 147.054 325.5 147.054C235.784 147.054 163.054 219.784 163.054 309.5Z" stroke="#E6FBF3" stroke-width="98" mask="url(#path-2-inside-1_3868_11729)"/>
<mask id="path-3-inside-2_3868_11729" fill="white">
<path d="M430 309.5C430 367.214 383.214 414 325.5 414C267.786 414 221 367.214 221 309.5C221 251.786 267.786 205 325.5 205C383.214 205 430 251.786 430 309.5ZM260.752 309.5C260.752 345.259 289.741 374.248 325.5 374.248C361.259 374.248 390.248 345.259 390.248 309.5C390.248 273.741 361.259 244.752 325.5 244.752C289.741 244.752 260.752 273.741 260.752 309.5Z"/>
</mask>
<path d="M430 309.5C430 367.214 383.214 414 325.5 414C267.786 414 221 367.214 221 309.5C221 251.786 267.786 205 325.5 205C383.214 205 430 251.786 430 309.5ZM260.752 309.5C260.752 345.259 289.741 374.248 325.5 374.248C361.259 374.248 390.248 345.259 390.248 309.5C390.248 273.741 361.259 244.752 325.5 244.752C289.741 244.752 260.752 273.741 260.752 309.5Z" stroke="#E6FBF3" stroke-width="98" mask="url(#path-3-inside-2_3868_11729)"/>
<mask id="path-4-inside-3_3868_11729" fill="white">
<path d="M479 309.5C479 394.276 410.276 463 325.5 463C240.724 463 172 394.276 172 309.5C172 224.724 240.724 156 325.5 156C410.276 156 479 224.724 479 309.5ZM213.414 309.5C213.414 371.403 263.597 421.586 325.5 421.586C387.403 421.586 437.586 371.403 437.586 309.5C437.586 247.597 387.403 197.414 325.5 197.414C263.597 197.414 213.414 247.597 213.414 309.5Z"/>
</mask>
<path d="M479 309.5C479 394.276 410.276 463 325.5 463C240.724 463 172 394.276 172 309.5C172 224.724 240.724 156 325.5 156C410.276 156 479 224.724 479 309.5ZM213.414 309.5C213.414 371.403 263.597 421.586 325.5 421.586C387.403 421.586 437.586 371.403 437.586 309.5C437.586 247.597 387.403 197.414 325.5 197.414C263.597 197.414 213.414 247.597 213.414 309.5Z" stroke="#E6FBF3" stroke-width="98" mask="url(#path-4-inside-3_3868_11729)"/>
<path d="M254.792 205.666L249.771 197.77L252.643 195.943C253.173 195.606 253.702 195.408 254.231 195.35C254.762 195.28 255.26 195.361 255.724 195.591C256.184 195.815 256.578 196.185 256.906 196.701C257.229 197.209 257.391 197.722 257.392 198.237C257.399 198.748 257.264 199.231 256.987 199.685C256.71 200.139 256.307 200.534 255.777 200.871L254.155 201.903L256.043 204.87L254.792 205.666ZM253.448 200.79L255.101 199.738C255.384 199.559 255.595 199.345 255.735 199.097C255.875 198.849 255.943 198.588 255.937 198.314C255.927 198.033 255.834 197.754 255.659 197.479C255.483 197.203 255.273 197.004 255.027 196.883C254.777 196.754 254.512 196.705 254.232 196.733C253.948 196.755 253.665 196.856 253.382 197.036L251.729 198.087L253.448 200.79Z" fill="#035E46"/>
<path d="M266.632 198.573L262.503 190.176L265.557 188.674C266.121 188.397 266.668 188.258 267.2 188.258C267.728 188.25 268.21 188.386 268.647 188.666C269.087 188.935 269.442 189.344 269.712 189.892C269.996 190.471 270.093 191.039 270.004 191.596C269.921 192.15 269.682 192.641 269.286 193.069L272.888 195.497L271.377 196.239L267.513 193.591L268.63 193.671L266.41 194.763L267.962 197.919L266.632 198.573ZM265.828 193.579L267.575 192.72C267.883 192.569 268.12 192.378 268.287 192.146C268.453 191.915 268.544 191.665 268.561 191.396C268.582 191.115 268.52 190.828 268.376 190.535C268.232 190.242 268.044 190.021 267.813 189.874C267.586 189.715 267.331 189.635 267.051 189.633C266.766 189.624 266.47 189.695 266.162 189.846L264.415 190.705L265.828 193.579Z" fill="#035E46"/>
<path d="M283.48 191.418C282.84 191.642 282.203 191.736 281.57 191.7C280.944 191.661 280.35 191.509 279.788 191.244C279.233 190.977 278.741 190.608 278.31 190.137C277.888 189.664 277.562 189.099 277.333 188.443C277.104 187.787 277.007 187.142 277.043 186.508C277.084 185.864 277.24 185.269 277.51 184.722C277.778 184.167 278.15 183.683 278.626 183.268C279.099 182.846 279.656 182.523 280.296 182.299C280.945 182.073 281.581 181.979 282.207 182.018C282.838 182.046 283.43 182.194 283.985 182.461C284.548 182.726 285.04 183.095 285.463 183.568C285.885 184.042 286.211 184.607 286.44 185.263C286.669 185.919 286.762 186.565 286.718 187.201C286.682 187.835 286.53 188.429 286.262 188.983C285.995 189.538 285.624 190.027 285.151 190.449C284.678 190.872 284.121 191.195 283.48 191.418ZM283.033 190.138C283.492 189.977 283.882 189.748 284.203 189.45C284.533 189.148 284.789 188.802 284.971 188.41C285.151 188.01 285.251 187.585 285.271 187.134C285.288 186.676 285.215 186.214 285.053 185.747C284.89 185.281 284.66 184.878 284.364 184.537C284.068 184.197 283.725 183.927 283.336 183.726C282.946 183.525 282.529 183.409 282.083 183.378C281.646 183.345 281.198 183.408 280.739 183.568C280.281 183.728 279.887 183.959 279.557 184.26C279.236 184.559 278.985 184.908 278.806 185.308C278.626 185.707 278.526 186.132 278.506 186.583C278.494 187.031 278.569 187.488 278.732 187.954C278.895 188.421 279.122 188.829 279.413 189.18C279.709 189.52 280.052 189.791 280.441 189.992C280.828 190.185 281.244 190.297 281.689 190.327C282.135 190.358 282.583 190.295 283.033 190.138Z" fill="#035E46"/>
<path d="M299.436 186.934C298.788 187.07 298.161 187.078 297.554 186.957C296.955 186.835 296.403 186.609 295.897 186.278C295.398 185.938 294.973 185.506 294.623 184.98C294.273 184.455 294.026 183.848 293.881 183.159C293.738 182.479 293.717 181.829 293.818 181.209C293.925 180.579 294.14 180.012 294.462 179.508C294.782 178.996 295.193 178.567 295.694 178.223C296.193 177.87 296.77 177.624 297.426 177.487C298.073 177.351 298.674 177.34 299.229 177.454C299.791 177.567 300.287 177.767 300.715 178.053C301.141 178.332 301.476 178.664 301.72 179.049L300.561 179.947C300.267 179.487 299.872 179.15 299.374 178.938C298.874 178.718 298.317 178.673 297.702 178.802C297.096 178.929 296.589 179.185 296.182 179.57C295.775 179.955 295.494 180.429 295.339 180.992C295.191 181.554 295.189 182.175 295.332 182.855C295.475 183.535 295.731 184.106 296.102 184.567C296.479 185.018 296.932 185.338 297.459 185.527C297.985 185.707 298.551 185.734 299.157 185.607C299.665 185.5 300.107 185.3 300.481 185.007C300.863 184.705 301.141 184.338 301.316 183.908C301.489 183.47 301.522 182.996 301.415 182.488L301.284 181.861L302.059 182.315L298.593 183.043L298.335 181.813L302.588 180.92L302.768 181.781C302.91 182.452 302.921 183.079 302.804 183.66C302.684 184.232 302.467 184.744 302.151 185.196C301.835 185.647 301.443 186.021 300.974 186.316C300.506 186.611 299.993 186.817 299.436 186.934Z" fill="#035E46"/>
<path d="M310.651 184.888L309.812 175.568L313.202 175.263C313.827 175.207 314.388 175.274 314.885 175.464C315.38 175.647 315.781 175.947 316.088 176.365C316.402 176.774 316.587 177.283 316.642 177.891C316.7 178.534 316.587 179.099 316.303 179.587C316.027 180.074 315.628 180.446 315.104 180.704L317.594 184.263L315.918 184.414L313.262 180.554L314.276 181.03L311.812 181.252L312.127 184.755L310.651 184.888ZM311.693 179.939L313.632 179.764C313.974 179.733 314.264 179.64 314.503 179.484C314.741 179.328 314.916 179.127 315.028 178.882C315.148 178.627 315.194 178.337 315.164 178.012C315.135 177.687 315.039 177.414 314.876 177.193C314.721 176.963 314.513 176.797 314.251 176.694C313.989 176.583 313.687 176.543 313.345 176.574L311.406 176.749L311.693 179.939Z" fill="#035E46"/>
<path d="M323.596 184L327.069 174.709L328.903 174.745L332.01 184.165L330.428 184.134L329.753 182.022L325.948 181.948L325.178 184.031L323.596 184ZM326.401 180.638L329.327 180.695L327.765 175.765L328.179 175.773L326.401 180.638Z" fill="#035E46"/>
<path d="M338.202 184.622L339.477 175.352L340.846 175.54L343.666 180.847L342.982 180.753L347.068 176.396L348.436 176.584L347.161 185.854L345.705 185.654L346.743 178.114L347.27 178.338L343.116 182.635L342.966 182.615L340.202 177.366L340.708 177.283L339.67 184.824L338.202 184.622Z" fill="#035E46"/>
<path d="M353.767 187.186L356.188 178.148L357.523 178.505L359.659 184.123L358.992 183.944L363.589 180.13L364.924 180.488L362.502 189.526L361.083 189.146L363.052 181.794L363.547 182.082L358.89 185.828L358.744 185.789L356.656 180.236L357.168 180.218L355.199 187.57L353.767 187.186Z" fill="#035E46"/>
<path d="M368.122 191.4L374.641 183.924L376.345 184.602L375.941 194.513L374.471 193.928L374.581 191.714L371.045 190.307L369.593 191.986L368.122 191.4ZM371.93 189.239L374.649 190.322L374.921 185.157L375.306 185.311L371.93 189.239Z" fill="#035E46"/>
<path d="M384.515 191.958L384.83 191.343C385.106 191.409 385.352 191.398 385.566 191.31C385.784 191.215 385.967 191.059 386.115 190.843L385.522 190.54L386.266 189.086L387.552 189.744L387.066 190.694C386.787 191.239 386.43 191.625 385.993 191.853C385.561 192.074 385.068 192.109 384.515 191.958Z" fill="#035E46"/>
<path d="M392.916 203.76C392.422 203.445 392.021 203.061 391.714 202.608C391.411 202.148 391.215 201.661 391.125 201.147C391.035 200.633 391.054 200.119 391.182 199.606L392.525 199.834C392.406 200.443 392.447 200.995 392.648 201.49C392.849 201.985 393.19 202.386 393.67 202.691C393.953 202.871 394.227 202.986 394.493 203.036C394.764 203.079 395.007 203.055 395.223 202.964C395.447 202.878 395.626 202.729 395.761 202.517C395.945 202.228 396.01 201.946 395.955 201.673C395.9 201.4 395.745 201.113 395.49 200.812L394.303 199.402C393.826 198.841 393.552 198.274 393.479 197.702C393.411 197.123 393.538 196.579 393.862 196.07C394.145 195.625 394.502 195.306 394.932 195.113C395.366 194.913 395.835 194.839 396.338 194.891C396.848 194.948 397.35 195.133 397.845 195.448C398.318 195.749 398.696 196.108 398.976 196.524C399.262 196.934 399.45 197.371 399.541 197.836C399.64 198.306 399.631 198.771 399.516 199.234L398.187 199.029C398.297 198.513 398.258 198.037 398.069 197.6C397.888 197.167 397.582 196.813 397.151 196.539C396.889 196.373 396.631 196.273 396.374 196.239C396.122 196.198 395.886 196.226 395.665 196.324C395.456 196.419 395.282 196.576 395.142 196.795C394.981 197.05 394.918 197.327 394.955 197.629C394.991 197.93 395.144 198.235 395.414 198.545L396.515 199.856C397.023 200.447 397.321 201.024 397.41 201.586C397.503 202.142 397.381 202.684 397.044 203.214C396.766 203.652 396.402 203.967 395.953 204.158C395.511 204.353 395.026 204.422 394.497 204.363C393.973 204.298 393.446 204.097 392.916 203.76Z" fill="#035E46"/>
<path d="M113.559 238.159L105.808 236.027L105.148 238.425L103.877 238.075L105.576 231.898L106.847 232.248L106.198 234.61L113.949 236.742L113.559 238.159Z" fill="#053237"/>
<path d="M116.471 228.359L107.631 225.289L109.654 219.463L110.9 219.896L109.363 224.321L111.902 225.203L113.357 221.015L114.603 221.447L113.148 225.636L115.711 226.526L117.248 222.1L118.494 222.533L116.471 228.359Z" fill="#053237"/>
<path d="M120.904 216.274L112.305 212.585L113.647 209.457C113.895 208.88 114.22 208.418 114.624 208.072C115.02 207.722 115.475 207.512 115.988 207.441C116.497 207.358 117.033 207.438 117.594 207.679C118.187 207.933 118.63 208.301 118.925 208.783C119.223 209.257 119.36 209.785 119.338 210.368L123.653 209.868L122.989 211.415L118.332 211.918L119.232 211.252L118.257 213.526L121.489 214.912L120.904 216.274ZM117.045 213.006L117.812 211.216C117.948 210.901 118.003 210.601 117.979 210.318C117.955 210.034 117.862 209.784 117.699 209.569C117.532 209.342 117.299 209.165 116.998 209.036C116.698 208.907 116.412 208.862 116.141 208.9C115.865 208.928 115.62 209.032 115.405 209.213C115.183 209.391 115.004 209.638 114.869 209.954L114.101 211.743L117.045 213.006Z" fill="#053237"/>
<path d="M128.349 200.591C128.029 201.208 127.613 201.691 127.102 202.039C126.595 202.379 126.043 202.569 125.447 202.609C124.855 202.641 124.269 202.506 123.689 202.205L118.261 199.386L118.944 198.071L124.317 200.861C124.681 201.05 125.045 201.14 125.408 201.131C125.775 201.114 126.108 201.008 126.407 200.814C126.71 200.613 126.956 200.33 127.145 199.966C127.338 199.595 127.428 199.231 127.414 198.875C127.405 198.511 127.3 198.178 127.098 197.876C126.901 197.566 126.62 197.316 126.256 197.127L120.883 194.337L121.56 193.033L126.989 195.852C127.569 196.153 128.016 196.555 128.33 197.057C128.644 197.56 128.806 198.121 128.815 198.739C128.829 199.35 128.673 199.967 128.349 200.591Z" fill="#053237"/>
<path d="M135.638 187.801C135.288 188.362 134.859 188.82 134.351 189.174C133.848 189.522 133.303 189.764 132.714 189.9C132.123 190.024 131.517 190.031 130.895 189.92C130.274 189.808 129.665 189.566 129.068 189.194C128.479 188.826 127.995 188.391 127.617 187.889C127.237 187.375 126.977 186.828 126.836 186.246C126.688 185.661 126.664 185.068 126.762 184.468C126.853 183.863 127.076 183.277 127.43 182.709C127.78 182.147 128.189 181.706 128.655 181.386C129.127 181.058 129.614 180.839 130.117 180.728C130.613 180.613 131.084 180.602 131.531 180.693L131.376 182.151C130.841 182.044 130.324 182.096 129.826 182.309C129.322 182.517 128.903 182.887 128.57 183.42C128.242 183.946 128.076 184.489 128.072 185.049C128.068 185.609 128.215 186.14 128.514 186.642C128.817 187.137 129.263 187.569 129.853 187.937C130.443 188.305 131.032 188.515 131.621 188.566C132.208 188.607 132.752 188.502 133.254 188.252C133.748 187.998 134.159 187.608 134.487 187.083C134.762 186.642 134.923 186.185 134.972 185.712C135.018 185.228 134.946 184.773 134.757 184.349C134.56 183.921 134.242 183.569 133.801 183.294L133.258 182.955L134.122 182.709L132.247 185.714L131.181 185.049L133.482 181.362L134.228 181.828C134.81 182.191 135.27 182.617 135.608 183.104C135.938 183.586 136.157 184.098 136.264 184.638C136.371 185.179 136.369 185.72 136.257 186.263C136.146 186.805 135.939 187.318 135.638 187.801Z" fill="#053237"/>
<path d="M141.843 178.153L134.32 172.589L135.201 171.397L139.281 174.415L138.928 174.638L137.487 168.307L138.585 166.823L139.883 172.439L139.08 171.751L146.198 172.266L145.16 173.67L140.088 173.324L140.553 175.356L142.725 176.962L141.843 178.153Z" fill="#053237"/>
<path d="M153.361 163.82C152.914 164.331 152.407 164.727 151.838 165.008C151.275 165.284 150.684 165.445 150.064 165.492C149.449 165.534 148.839 165.456 148.232 165.259C147.631 165.056 147.069 164.726 146.546 164.269C146.022 163.811 145.62 163.298 145.339 162.729C145.056 162.149 144.898 161.554 144.863 160.945C144.822 160.331 144.906 159.726 145.115 159.13C145.318 158.529 145.643 157.973 146.089 157.463C146.541 156.946 147.049 156.55 147.612 156.275C148.174 155.988 148.762 155.824 149.377 155.782C149.997 155.735 150.607 155.813 151.208 156.016C151.81 156.219 152.372 156.549 152.895 157.006C153.418 157.464 153.818 157.98 154.094 158.555C154.375 159.124 154.536 159.715 154.578 160.329C154.619 160.944 154.538 161.552 154.335 162.153C154.132 162.754 153.807 163.31 153.361 163.82ZM152.34 162.928C152.659 162.562 152.885 162.17 153.017 161.752C153.155 161.327 153.206 160.899 153.172 160.468C153.13 160.032 153.007 159.613 152.802 159.211C152.591 158.804 152.3 158.438 151.928 158.113C151.556 157.788 151.157 157.55 150.732 157.401C150.306 157.251 149.874 157.185 149.436 157.203C148.999 157.22 148.578 157.326 148.176 157.519C147.779 157.706 147.421 157.982 147.101 158.347C146.781 158.713 146.553 159.108 146.415 159.533C146.283 159.951 146.237 160.378 146.278 160.815C146.319 161.251 146.443 161.67 146.647 162.072C146.858 162.467 147.149 162.828 147.521 163.153C147.893 163.478 148.292 163.721 148.718 163.882C149.144 164.032 149.575 164.098 150.013 164.08C150.445 164.057 150.862 163.949 151.265 163.756C151.667 163.563 152.025 163.287 152.34 162.928Z" fill="#053237"/>
<path d="M161.599 154.683L155.079 147.97L157.521 145.599C157.972 145.161 158.45 144.86 158.955 144.696C159.461 144.52 159.965 144.498 160.466 144.629C160.962 144.755 161.423 145.037 161.849 145.476C162.269 145.908 162.531 146.377 162.636 146.882C162.747 147.381 162.714 147.881 162.534 148.381C162.355 148.882 162.041 149.351 161.59 149.789L160.212 151.128L162.662 153.651L161.599 154.683ZM159.293 150.182L160.698 148.816C160.939 148.583 161.102 148.331 161.189 148.06C161.276 147.789 161.289 147.519 161.227 147.252C161.16 146.979 161.013 146.725 160.786 146.49C160.558 146.256 160.312 146.105 160.046 146.036C159.775 145.961 159.505 145.965 159.238 146.05C158.964 146.129 158.707 146.285 158.467 146.519L157.061 147.884L159.293 150.182Z" fill="#053237"/>
<path d="M171.719 145.204L165.712 138.029L168.322 135.844C168.803 135.441 169.302 135.176 169.819 135.049C170.336 134.911 170.84 134.926 171.33 135.094C171.815 135.256 172.254 135.571 172.647 136.04C173.034 136.502 173.261 136.989 173.329 137.5C173.403 138.006 173.332 138.502 173.117 138.988C172.901 139.474 172.553 139.919 172.071 140.322L170.598 141.556L172.856 144.252L171.719 145.204ZM169.751 140.545L171.253 139.287C171.51 139.072 171.692 138.832 171.799 138.568C171.905 138.304 171.938 138.036 171.896 137.765C171.85 137.488 171.721 137.224 171.512 136.973C171.302 136.723 171.067 136.554 170.808 136.465C170.543 136.37 170.274 136.356 170 136.421C169.722 136.479 169.454 136.616 169.197 136.831L167.695 138.089L169.751 140.545Z" fill="#053237"/>
<path d="M182.519 136.499L177.036 128.916L182.034 125.303L182.807 126.371L179.01 129.116L180.585 131.295L184.178 128.697L184.951 129.765L181.358 132.363L182.947 134.562L186.744 131.817L187.517 132.885L182.519 136.499Z" fill="#053237"/>
<path d="M193.096 129.148L188.123 121.222L189.379 120.434L193.65 127.244L197.077 125.094L197.777 126.212L193.096 129.148Z" fill="#053237"/>
<path d="M203.296 123.021L198.769 114.832L200.066 114.115L204.593 122.304L203.296 123.021Z" fill="#053237"/>
<path d="M211.131 118.828L207.13 110.369L208.209 109.858L216.054 114.165L215.58 114.486L212.444 107.855L213.772 107.227L217.774 115.686L216.695 116.196L208.862 111.828L209.308 111.506L212.471 118.194L211.131 118.828Z" fill="#053237"/>
<path d="M228.822 111.305C228.203 111.538 227.584 111.641 226.966 111.615C226.355 111.585 225.775 111.446 225.224 111.197C224.679 110.937 224.193 110.574 223.767 110.108C223.341 109.642 223.004 109.08 222.756 108.422C222.511 107.772 222.391 107.132 222.396 106.504C222.406 105.865 222.532 105.272 222.773 104.725C223.011 104.17 223.352 103.684 223.794 103.266C224.233 102.841 224.766 102.511 225.393 102.275C226.012 102.042 226.605 101.939 227.17 101.968C227.744 101.993 228.264 102.115 228.731 102.333C229.194 102.543 229.576 102.82 229.876 103.163L228.867 104.228C228.507 103.818 228.064 103.546 227.54 103.412C227.012 103.271 226.455 103.311 225.867 103.532C225.287 103.751 224.826 104.081 224.482 104.524C224.139 104.966 223.933 105.478 223.866 106.058C223.806 106.635 223.898 107.249 224.143 107.9C224.388 108.55 224.729 109.075 225.166 109.474C225.608 109.863 226.103 110.11 226.653 110.216C227.2 110.314 227.764 110.254 228.344 110.035C228.829 109.852 229.235 109.588 229.561 109.241C229.892 108.884 230.111 108.479 230.218 108.027C230.322 107.568 230.283 107.095 230.1 106.609L229.874 106.009L230.709 106.339L227.395 107.588L226.952 106.412L231.019 104.88L231.329 105.703C231.571 106.346 231.678 106.963 231.651 107.555C231.62 108.139 231.483 108.678 231.24 109.173C230.997 109.667 230.666 110.096 230.248 110.459C229.83 110.822 229.355 111.104 228.822 111.305Z" fill="#053237"/>
<path d="M425.991 114.199C425.357 113.957 424.81 113.619 424.348 113.183C423.895 112.75 423.538 112.252 423.279 111.687C423.027 111.125 422.888 110.525 422.862 109.888C422.843 109.254 422.958 108.612 423.206 107.963C423.453 107.313 423.795 106.758 424.23 106.296C424.677 105.83 425.179 105.475 425.738 105.231C426.3 104.979 426.897 104.848 427.528 104.838C428.162 104.82 428.796 104.931 429.43 105.173C430.072 105.417 430.619 105.756 431.073 106.188C431.537 106.616 431.895 107.111 432.147 107.673C432.407 108.238 432.545 108.837 432.564 109.472C432.582 110.106 432.467 110.748 432.22 111.397C431.972 112.047 431.627 112.6 431.183 113.059C430.748 113.52 430.249 113.877 429.687 114.129C429.125 114.38 428.527 114.515 427.893 114.534C427.259 114.552 426.625 114.44 425.991 114.199ZM426.474 112.931C426.928 113.104 427.374 113.18 427.812 113.159C428.258 113.14 428.677 113.04 429.069 112.858C429.464 112.668 429.814 112.407 430.12 112.076C430.428 111.736 430.671 111.336 430.847 110.874C431.022 110.412 431.107 109.956 431.099 109.505C431.092 109.054 431.004 108.626 430.836 108.222C430.667 107.817 430.423 107.46 430.102 107.149C429.789 106.842 429.405 106.602 428.951 106.429C428.498 106.256 428.048 106.178 427.602 106.197C427.163 106.218 426.747 106.323 426.352 106.513C425.957 106.703 425.607 106.964 425.301 107.296C425.003 107.63 424.766 108.029 424.591 108.49C424.415 108.952 424.325 109.411 424.322 109.866C424.329 110.317 424.417 110.745 424.585 111.15C424.757 111.547 425.003 111.9 425.324 112.211C425.644 112.521 426.028 112.761 426.474 112.931Z" fill="#053237"/>
<path d="M437.399 118.761L441.509 110.355L442.581 110.879L444.114 119.696L443.568 119.527L446.79 112.937L448.11 113.582L444 121.989L442.928 121.465L441.451 112.619L441.98 112.766L438.73 119.412L437.399 118.761Z" fill="#053237"/>
<path d="M452.035 126.412L456.108 119.481L453.964 118.221L454.632 117.084L460.155 120.33L459.487 121.467L457.375 120.226L453.302 127.157L452.035 126.412Z" fill="#053237"/>
<path d="M462.165 132.724L465.473 123.599L466.754 124.507L463.772 132.323L463.455 132.098L469.901 126.736L471.161 127.629L468.241 135.489L467.913 135.256L474.308 129.858L475.579 130.759L468.079 136.913L466.715 135.947L469.553 128.183L469.912 128.437L463.518 133.682L462.165 132.724Z" fill="#053237"/>
<path d="M475.057 142.387L481.035 135.187L482.175 136.134L476.198 143.333L475.057 142.387Z" fill="#053237"/>
<path d="M481.801 148.169L488.235 141.374L489.311 142.393L485.822 146.078L485.643 145.7L492.102 145.035L493.443 146.305L487.711 146.914L488.491 146.2L487.119 153.203L485.851 152.003L486.807 147.01L484.734 147.227L482.878 149.188L481.801 148.169Z" fill="#053237"/>
<path d="M491.676 157.89L498.629 151.626L499.621 152.728L495.851 156.124L495.702 155.734L502.193 155.583L503.429 156.955L497.667 157.108L498.501 156.458L496.578 163.33L495.409 162.033L496.759 157.132L494.675 157.183L492.668 158.991L491.676 157.89Z" fill="#053237"/>
<path d="M500.744 168.372L508.155 162.659L511.92 167.543L510.876 168.349L508.015 164.638L505.887 166.279L508.594 169.791L507.549 170.596L504.842 167.084L502.693 168.741L505.554 172.451L504.509 173.257L500.744 168.372Z" fill="#053237"/>
<path d="M508.396 178.722L516.193 173.548L517.013 174.783L510.315 179.228L512.551 182.598L511.452 183.327L508.396 178.722Z" fill="#053237"/>
<path d="M514.763 188.765L522.854 184.064L523.599 185.345L515.508 190.046L514.763 188.765Z" fill="#053237"/>
<path d="M519.111 196.506L527.503 192.366L528.031 193.436L523.854 201.351L523.526 200.883L530.104 197.638L530.754 198.956L522.362 203.096L521.834 202.026L526.073 194.122L526.402 194.562L519.767 197.835L519.111 196.506Z" fill="#053237"/>
<path d="M526.876 214.077C526.636 213.461 526.526 212.843 526.547 212.224C526.57 211.613 526.703 211.032 526.947 210.479C527.201 209.931 527.559 209.442 528.021 209.011C528.482 208.58 529.041 208.238 529.696 207.983C530.344 207.731 530.982 207.605 531.611 207.603C532.25 207.607 532.844 207.726 533.394 207.962C533.951 208.195 534.441 208.53 534.862 208.968C535.292 209.403 535.628 209.933 535.87 210.557C536.11 211.174 536.218 211.765 536.195 212.331C536.175 212.905 536.059 213.426 535.846 213.895C535.641 214.361 535.368 214.745 535.027 215.048L533.953 214.051C534.359 213.686 534.626 213.241 534.755 212.715C534.891 212.186 534.845 211.629 534.617 211.044C534.393 210.466 534.058 210.008 533.612 209.669C533.166 209.33 532.653 209.13 532.072 209.068C531.494 209.014 530.881 209.113 530.233 209.365C529.585 209.616 529.064 209.962 528.669 210.403C528.285 210.849 528.043 211.347 527.942 211.898C527.85 212.446 527.916 213.009 528.14 213.586C528.328 214.07 528.597 214.473 528.947 214.796C529.307 215.123 529.714 215.338 530.167 215.44C530.628 215.54 531.1 215.495 531.584 215.307L532.181 215.076L531.86 215.914L530.578 212.613L531.749 212.158L533.322 216.209L532.503 216.527C531.862 216.776 531.246 216.889 530.654 216.868C530.07 216.843 529.529 216.712 529.032 216.474C528.536 216.235 528.103 215.909 527.736 215.495C527.368 215.081 527.082 214.608 526.876 214.077Z" fill="#053237"/>
<path d="M212.971 504.383C213.609 504.658 214.12 505.037 214.504 505.522C214.88 506.003 215.11 506.539 215.192 507.131C215.267 507.72 215.175 508.314 214.917 508.913L212.497 514.531L211.136 513.945L213.531 508.385C213.693 508.008 213.756 507.639 213.721 507.277C213.677 506.912 213.548 506.587 213.333 506.303C213.111 506.016 212.811 505.791 212.434 505.629C212.049 505.463 211.68 505.4 211.326 505.439C210.964 505.474 210.64 505.603 210.352 505.826C210.057 506.045 209.828 506.343 209.666 506.72L207.271 512.281L205.921 511.699L208.341 506.081C208.6 505.481 208.968 505.006 209.447 504.657C209.926 504.307 210.474 504.105 211.089 504.051C211.698 503.994 212.325 504.104 212.971 504.383Z" fill="#053237"/>
<path d="M203.54 500.107L199.207 508.401L197.894 507.714L202.226 499.42L203.54 500.107Z" fill="#053237"/>
<path d="M194.343 494.97L190.144 501.825L192.265 503.124L191.576 504.249L186.113 500.903L186.802 499.779L188.891 501.058L193.089 494.203L194.343 494.97Z" fill="#053237"/>
<path d="M183.779 487.968L180.908 497.471L179.622 496.527L182.169 488.483L182.422 488.669L175.514 493.506L174.229 492.561L182.443 486.986L183.779 487.968Z" fill="#053237"/>
<path d="M171.534 477.883C172.037 478.337 172.425 478.851 172.697 479.424C172.963 479.992 173.115 480.586 173.152 481.207C173.184 481.821 173.096 482.431 172.889 483.034C172.677 483.632 172.337 484.189 171.872 484.704C171.406 485.22 170.886 485.614 170.313 485.886C169.728 486.159 169.131 486.308 168.522 486.333C167.907 486.364 167.303 486.27 166.711 486.051C166.113 485.839 165.563 485.505 165.059 485.05C164.55 484.59 164.162 484.076 163.896 483.509C163.618 482.942 163.464 482.351 163.432 481.736C163.395 481.115 163.483 480.506 163.695 479.908C163.908 479.311 164.247 478.754 164.713 478.238C165.179 477.722 165.702 477.331 166.281 477.065C166.854 476.792 167.448 476.641 168.063 476.609C168.678 476.578 169.285 476.669 169.882 476.882C170.48 477.094 171.031 477.428 171.534 477.883ZM170.625 478.889C170.264 478.564 169.876 478.332 169.46 478.193C169.037 478.048 168.611 477.99 168.179 478.018C167.742 478.052 167.321 478.168 166.916 478.366C166.506 478.571 166.135 478.857 165.804 479.223C165.473 479.59 165.229 479.985 165.072 480.408C164.916 480.83 164.843 481.261 164.853 481.699C164.864 482.137 164.962 482.559 165.149 482.965C165.329 483.365 165.6 483.727 165.96 484.053C166.321 484.379 166.712 484.614 167.134 484.758C167.55 484.897 167.977 484.95 168.414 484.916C168.851 484.881 169.272 484.765 169.677 484.567C170.076 484.363 170.441 484.077 170.772 483.711C171.103 483.344 171.353 482.949 171.521 482.526C171.677 482.103 171.75 481.672 171.74 481.234C171.724 480.802 171.622 480.383 171.436 479.978C171.249 479.572 170.979 479.209 170.625 478.889Z" fill="#053237"/>
<path d="M162.614 469.454L155.696 475.755L151.543 471.196L152.518 470.308L155.673 473.771L157.66 471.961L154.675 468.683L155.65 467.795L158.635 471.073L160.641 469.246L157.486 465.783L158.461 464.895L162.614 469.454Z" fill="#053237"/>
<path d="M154.172 459.777L146.729 465.448L144.666 462.741C144.286 462.241 144.044 461.731 143.941 461.209C143.832 460.692 143.872 460.193 144.063 459.711C144.242 459.227 144.574 458.8 145.061 458.43C145.573 458.039 146.112 457.834 146.676 457.814C147.235 457.788 147.763 457.928 148.26 458.234L149.947 454.232L150.968 455.571L149.114 459.873L148.977 458.762L150.477 460.73L153.274 458.598L154.172 459.777ZM149.428 461.529L148.248 459.981C148.04 459.707 147.806 459.512 147.547 459.393C147.289 459.274 147.025 459.233 146.758 459.268C146.478 459.302 146.209 459.418 145.949 459.616C145.689 459.814 145.509 460.041 145.409 460.296C145.297 460.55 145.267 460.815 145.319 461.091C145.365 461.372 145.492 461.649 145.7 461.922L146.88 463.47L149.428 461.529Z" fill="#053237"/>
<path d="M146.05 448.544L138.205 453.644L137.397 452.401L145.242 447.301L146.05 448.544Z" fill="#053237"/>
<path d="M141.345 441.035L133.126 445.509L132.556 444.461L136.411 436.385L136.759 436.839L130.316 440.346L129.613 439.055L137.832 434.581L138.403 435.629L134.485 443.697L134.139 443.27L140.637 439.733L141.345 441.035Z" fill="#053237"/>
<path d="M132.978 423.772C133.235 424.382 133.361 424.996 133.358 425.615C133.351 426.227 133.234 426.812 133.006 427.371C132.767 427.926 132.422 428.425 131.973 428.868C131.523 429.311 130.974 429.669 130.326 429.941C129.685 430.211 129.051 430.355 128.423 430.373C127.784 430.388 127.186 430.284 126.63 430.064C126.067 429.847 125.568 429.525 125.135 429.098C124.693 428.675 124.343 428.155 124.083 427.537C123.827 426.927 123.703 426.339 123.71 425.773C123.714 425.199 123.816 424.675 124.016 424.2C124.209 423.729 124.471 423.337 124.803 423.025L125.905 423.993C125.508 424.368 125.253 424.82 125.14 425.35C125.018 425.882 125.079 426.438 125.322 427.017C125.563 427.588 125.91 428.037 126.365 428.363C126.82 428.69 127.339 428.876 127.922 428.922C128.501 428.96 129.111 428.844 129.751 428.575C130.392 428.306 130.904 427.945 131.286 427.494C131.658 427.038 131.886 426.533 131.972 425.98C132.049 425.43 131.968 424.869 131.728 424.298C131.527 423.819 131.247 423.423 130.888 423.111C130.519 422.794 130.106 422.59 129.651 422.5C129.187 422.413 128.716 422.47 128.238 422.671L127.647 422.92L127.945 422.072L129.317 425.338L128.159 425.824L126.476 421.818L127.286 421.477C127.919 421.211 128.532 421.081 129.125 421.086C129.71 421.095 130.254 421.211 130.757 421.436C131.26 421.66 131.701 421.975 132.079 422.379C132.458 422.783 132.758 423.247 132.978 423.772Z" fill="#053237"/>
<path d="M525.253 405.747L534.144 408.664L533.188 411.576C532.886 412.499 532.436 413.237 531.84 413.791C531.25 414.355 530.559 414.714 529.768 414.869C528.977 415.023 528.14 414.956 527.257 414.666C526.382 414.379 525.667 413.938 525.114 413.342C524.568 412.748 524.221 412.048 524.071 411.241C523.919 410.442 523.994 409.582 524.297 408.659L525.253 405.747ZM526.044 407.566L525.542 409.094C525.336 409.722 525.289 410.31 525.4 410.858C525.508 411.413 525.76 411.897 526.153 412.308C526.547 412.719 527.07 413.032 527.723 413.246C528.375 413.46 528.979 413.513 529.535 413.404C530.096 413.306 530.583 413.07 530.997 412.694C531.411 412.319 531.721 411.817 531.927 411.188L532.429 409.661L526.044 407.566Z" fill="#053237"/>
<path d="M518.399 423.847C518.672 423.226 519.038 422.696 519.496 422.257C519.951 421.826 520.466 421.495 521.044 421.264C521.617 421.04 522.223 420.931 522.861 420.937C523.495 420.951 524.131 421.097 524.767 421.377C525.403 421.656 525.941 422.025 526.38 422.483C526.823 422.953 527.152 423.472 527.368 424.043C527.592 424.617 527.693 425.219 527.672 425.85C527.658 426.484 527.515 427.112 527.242 427.733C526.966 428.361 526.601 428.891 526.146 429.323C525.695 429.765 525.183 430.098 524.61 430.321C524.032 430.553 523.427 430.661 522.792 430.648C522.158 430.634 521.523 430.488 520.886 430.208C520.25 429.929 519.714 429.556 519.279 429.09C518.84 428.632 518.508 428.116 518.285 427.542C518.061 426.969 517.956 426.365 517.97 425.73C517.983 425.096 518.126 424.468 518.399 423.847ZM519.641 424.393C519.446 424.838 519.348 425.279 519.347 425.718C519.343 426.164 519.422 426.588 519.585 426.989C519.755 427.393 519.998 427.755 520.314 428.077C520.637 428.402 521.025 428.664 521.478 428.863C521.93 429.062 522.381 429.169 522.832 429.184C523.283 429.199 523.714 429.132 524.127 428.984C524.539 428.836 524.909 428.61 525.235 428.305C525.558 428.008 525.817 427.637 526.012 427.192C526.207 426.748 526.307 426.302 526.311 425.856C526.312 425.417 526.227 424.996 526.057 424.592C525.887 424.188 525.644 423.825 525.328 423.503C525.009 423.189 524.623 422.933 524.171 422.734C523.718 422.535 523.265 422.423 522.81 422.396C522.359 422.381 521.927 422.448 521.515 422.596C521.11 422.747 520.744 422.975 520.418 423.28C520.092 423.585 519.833 423.956 519.641 424.393Z" fill="#053237"/>
<path d="M510.906 438.875C511.241 438.285 511.659 437.796 512.16 437.406C512.657 437.024 513.204 436.747 513.802 436.577C514.396 436.414 515.01 436.368 515.643 436.439C516.273 436.518 516.89 436.729 517.494 437.072C518.098 437.416 518.595 437.838 518.984 438.339C519.377 438.851 519.651 439.402 519.807 439.992C519.971 440.585 520.009 441.195 519.923 441.82C519.845 442.45 519.638 443.06 519.303 443.649C518.963 444.246 518.545 444.736 518.048 445.118C517.555 445.511 517.011 445.79 516.417 445.953C515.82 446.124 515.206 446.17 514.576 446.091C513.947 446.012 513.33 445.801 512.726 445.458C512.122 445.114 511.627 444.688 511.241 444.18C510.852 443.68 510.575 443.132 510.412 442.539C510.249 441.945 510.207 441.333 510.285 440.704C510.364 440.074 510.571 439.464 510.906 438.875ZM512.085 439.545C511.845 439.967 511.702 440.397 511.656 440.833C511.607 441.277 511.642 441.706 511.762 442.121C511.89 442.541 512.094 442.926 512.375 443.279C512.664 443.636 513.023 443.936 513.452 444.18C513.882 444.425 514.32 444.577 514.766 444.639C515.213 444.7 515.649 444.678 516.075 444.574C516.501 444.469 516.891 444.282 517.247 444.012C517.598 443.749 517.894 443.407 518.134 442.985C518.374 442.563 518.519 442.13 518.569 441.686C518.615 441.25 518.574 440.822 518.447 440.403C518.319 439.983 518.115 439.597 517.833 439.245C517.548 438.9 517.191 438.605 516.761 438.361C516.332 438.116 515.892 437.958 515.442 437.885C514.995 437.824 514.559 437.846 514.134 437.95C513.715 438.059 513.328 438.249 512.973 438.518C512.617 438.788 512.321 439.13 512.085 439.545Z" fill="#053237"/>
<path d="M504.631 449.429L512.296 454.798L510.343 457.586C509.983 458.1 509.57 458.485 509.104 458.742C508.645 459.003 508.157 459.116 507.639 459.081C507.124 459.058 506.616 458.871 506.116 458.52C505.588 458.15 505.229 457.699 505.039 457.168C504.844 456.643 504.817 456.097 504.958 455.531L500.632 455.139L501.597 453.761L506.26 454.22L505.242 454.688L506.661 452.661L503.781 450.643L504.631 449.429ZM507.742 453.418L506.625 455.012C506.428 455.293 506.312 455.575 506.278 455.858C506.243 456.141 506.284 456.404 506.399 456.648C506.516 456.904 506.709 457.126 506.976 457.313C507.244 457.501 507.514 457.603 507.788 457.621C508.064 457.651 508.325 457.599 508.572 457.465C508.826 457.336 509.051 457.131 509.248 456.85L510.365 455.255L507.742 453.418Z" fill="#053237"/>
<path d="M495.375 461.949L504.159 466.077L503.138 467.27L495.627 463.586L495.88 463.29L500.63 470.2L499.626 471.373L492.066 467.747L492.327 467.441L497.118 474.303L496.105 475.486L490.663 467.455L491.749 466.185L499.221 469.721L498.935 470.055L494.297 463.208L495.375 461.949Z" fill="#053237"/>
<path d="M484.59 473.879L491.097 480.604L486.665 484.892L485.748 483.944L489.115 480.686L487.246 478.755L484.06 481.838L483.142 480.89L486.329 477.807L484.442 475.857L481.075 479.115L480.158 478.167L484.59 473.879Z" fill="#053237"/>
<path d="M475.177 482.629L481.113 489.863L478.481 492.022C477.996 492.421 477.494 492.681 476.976 492.802C476.464 492.93 475.964 492.907 475.475 492.734C474.985 492.573 474.546 492.256 474.159 491.783C473.75 491.285 473.525 490.754 473.486 490.191C473.439 489.633 473.56 489.101 473.848 488.594L469.788 487.051L471.089 485.983L475.456 487.681L474.349 487.858L476.262 486.288L474.031 483.569L475.177 482.629ZM477.099 487.308L475.594 488.543C475.328 488.76 475.141 489.001 475.032 489.264C474.923 489.526 474.89 489.791 474.936 490.057C474.98 490.335 475.105 490.601 475.312 490.853C475.519 491.105 475.752 491.277 476.011 491.368C476.269 491.471 476.535 491.491 476.808 491.429C477.088 491.373 477.36 491.236 477.625 491.019L479.13 489.784L477.099 487.308Z" fill="#053237"/>
<path d="M464.293 491.188L469.594 498.899L468.372 499.738L465.498 495.557L465.904 495.46L465.205 501.916L463.683 502.962L464.285 497.229L464.82 498.141L458.258 495.336L459.697 494.347L464.38 496.325L464.601 494.253L463.071 492.027L464.293 491.188Z" fill="#053237"/>
<path d="M452.681 498.776L457.433 506.838L456.156 507.591L451.405 499.529L452.681 498.776Z" fill="#053237"/>
<path d="M444.97 503.161L449.123 511.546L448.054 512.076L440.133 507.911L440.6 507.582L443.856 514.155L442.539 514.807L438.386 506.422L439.455 505.892L447.365 510.118L446.925 510.448L443.642 503.818L444.97 503.161Z" fill="#053237"/>
<path d="M427.404 510.905C428.022 510.668 428.64 510.562 429.258 510.585C429.869 510.611 430.45 510.747 431.002 510.993C431.549 511.249 432.036 511.61 432.465 512.073C432.894 512.536 433.234 513.097 433.485 513.753C433.734 514.402 433.858 515.041 433.856 515.669C433.85 516.308 433.728 516.902 433.49 517.451C433.255 518.007 432.917 518.495 432.477 518.915C432.04 519.342 431.509 519.676 430.883 519.916C430.265 520.152 429.674 520.258 429.108 520.233C428.534 520.21 428.014 520.091 427.546 519.876C427.081 519.669 426.697 519.394 426.396 519.052L427.398 517.982C427.761 518.39 428.205 518.66 428.73 518.79C429.258 518.928 429.816 518.885 430.402 518.661C430.981 518.439 431.441 518.106 431.781 517.661C432.122 517.217 432.325 516.704 432.389 516.124C432.446 515.546 432.35 514.933 432.101 514.284C431.853 513.635 431.509 513.112 431.07 512.715C430.626 512.329 430.129 512.085 429.578 511.982C429.031 511.887 428.468 511.95 427.889 512.172C427.404 512.357 427 512.625 426.676 512.973C426.347 513.332 426.131 513.738 426.026 514.19C425.925 514.651 425.967 515.123 426.152 515.608L426.382 516.206L425.544 515.881L428.852 514.614L429.301 515.787L425.243 517.342L424.928 516.521C424.683 515.88 424.572 515.263 424.596 514.671C424.623 514.087 424.757 513.547 424.998 513.051C425.238 512.555 425.567 512.125 425.982 511.759C426.398 511.393 426.872 511.109 427.404 510.905Z" fill="#053237"/>
<path d="M305.899 133.578L300.172 126.038L301.861 125.49L306.475 131.777L306.144 131.884L306.187 124.086L307.876 123.538L307.68 133L305.899 133.578Z" fill="#035E46"/>
<path d="M316.909 130.73L315.481 121.905L317.092 121.644L318.52 130.469L316.909 130.73Z" fill="#035E46"/>
<path d="M328.818 129.754C328.25 129.761 327.721 129.665 327.23 129.463C326.747 129.262 326.327 128.98 325.97 128.617C325.621 128.246 325.363 127.813 325.196 127.319L326.544 126.713C326.767 127.222 327.085 127.621 327.497 127.912C327.909 128.194 328.371 128.332 328.883 128.324C329.17 128.32 329.418 128.273 329.625 128.182C329.839 128.083 330.001 127.953 330.111 127.791C330.229 127.63 330.286 127.437 330.283 127.213C330.28 126.949 330.197 126.734 330.034 126.568C329.88 126.395 329.646 126.262 329.333 126.17L327.609 125.642C326.91 125.435 326.382 125.119 326.024 124.692C325.666 124.265 325.483 123.759 325.475 123.175C325.468 122.663 325.586 122.209 325.828 121.814C326.079 121.419 326.427 121.11 326.871 120.888C327.324 120.657 327.843 120.538 328.427 120.53C328.963 120.523 329.456 120.612 329.907 120.798C330.357 120.975 330.745 121.23 331.069 121.562C331.402 121.885 331.651 122.27 331.817 122.715L330.482 123.334C330.299 122.888 330.031 122.548 329.675 122.313C329.32 122.07 328.91 121.951 328.446 121.958C328.174 121.962 327.935 122.013 327.728 122.112C327.522 122.203 327.36 122.333 327.242 122.503C327.132 122.664 327.079 122.857 327.082 123.081C327.085 123.329 327.168 123.548 327.331 123.737C327.493 123.919 327.739 124.06 328.069 124.159L329.72 124.653C330.435 124.875 330.971 125.187 331.329 125.59C331.695 125.993 331.881 126.495 331.89 127.095C331.897 127.607 331.771 128.061 331.513 128.456C331.254 128.852 330.894 129.165 330.433 129.395C329.973 129.626 329.434 129.745 328.818 129.754Z" fill="#035E46"/>
<path d="M338.385 130.101L339.569 121.239L341.187 121.456L340.003 130.317L338.385 130.101Z" fill="#035E46"/>
<path d="M347.039 131.591L349.506 122.998L355.215 124.636L354.818 126.021L350.677 124.832L350.045 127.035L353.955 128.157L353.558 129.542L349.648 128.419L349.005 130.657L353.146 131.845L352.749 133.23L347.039 131.591Z" fill="#035E46"/>
<path d="M302.806 231.312L300.594 222.65L303.826 221.824C304.416 221.674 304.963 221.65 305.468 221.752C305.978 221.844 306.414 222.063 306.775 222.409C307.134 222.747 307.387 223.206 307.536 223.788C307.682 224.361 307.676 224.887 307.517 225.365C307.364 225.834 307.091 226.234 306.697 226.565C306.303 226.897 305.811 227.138 305.222 227.289L303.571 227.71L304.387 230.908L302.806 231.312ZM303.215 226.315L304.889 225.888C305.176 225.814 305.41 225.697 305.591 225.535C305.771 225.365 305.893 225.165 305.958 224.934C306.023 224.702 306.022 224.455 305.954 224.191C305.885 223.92 305.767 223.702 305.602 223.538C305.434 223.366 305.232 223.253 304.995 223.198C304.756 223.135 304.493 223.14 304.206 223.214L302.532 223.641L303.215 226.315Z" fill="#035E46"/>
<path d="M315.292 228.687L314.455 219.786L316.08 219.633L316.782 227.1L320.593 226.742L320.728 228.176L315.292 228.687Z" fill="#035E46"/>
<path d="M326.301 227.981L329.991 219.274L332.098 219.419L334.561 228.55L332.789 228.428L332.287 226.468L328.839 226.231L328.06 228.102L326.301 227.981ZM329.405 224.827L331.919 225L330.74 220.456L331.195 220.487L329.405 224.827Z" fill="#035E46"/>
<path d="M340.683 229.538L342.84 220.863L344.075 221.17L347.25 228.785L346.578 228.754L348.209 222.198L349.792 222.592L347.635 231.267L346.389 230.957L343.294 223.313L343.908 223.329L342.266 229.932L340.683 229.538Z" fill="#035E46"/>
</svg>
