<svg width="75" height="75" viewBox="0 0 75 75" fill="none" xmlns="http://www.w3.org/2000/svg">
<g id="Symbols/Taxanomy" clip-path="url(#clip0_2929_7458)">
<path id="Vector" fill-rule="evenodd" clip-rule="evenodd" d="M37.5 75C58.2119 75 75 58.2119 75 37.5C75 16.7881 58.2119 0 37.5 0C16.7881 0 0 16.7881 0 37.5C0 58.2119 16.7881 75 37.5 75ZM25.9957 5.68079L28.1144 6.74195C28.2752 6.82055 28.4431 6.87414 28.6146 6.9063L33.9595 7.84947C35.0886 8.04955 35.7566 9.22142 35.3564 10.2933L35.0921 10.99C34.8813 11.5545 34.4061 11.976 33.8237 12.1226L31.8552 12.6156C31.3728 12.7371 30.9584 13.0515 30.7119 13.4838L27.6464 18.8466C27.5106 19.086 27.3213 19.2896 27.0998 19.4432L21.837 23.0839C21.612 23.2411 21.3547 23.3447 21.0832 23.3876L14.3485 24.4523C13.4588 24.5917 12.805 25.3598 12.805 26.2602V28.0537C12.805 28.5396 12.9979 29.0041 13.3409 29.3471L14.0126 30.0188C14.4056 30.4118 14.5985 30.9619 14.5378 31.5158L14.4914 31.9231C14.3449 33.2485 12.8765 33.9738 11.7332 33.2914L7.89603 30.987C7.52446 30.7655 7.24221 30.4118 7.10286 29.9974L5.58082 25.4349C5.52008 25.2491 5.48793 25.0526 5.51294 24.8561C5.65228 23.7878 6.55261 19.8328 12.3477 13.2622C18.1571 6.67759 23.638 5.67003 25.181 5.51637C25.4632 5.48779 25.7421 5.55574 25.9957 5.68079ZM15.1527 35.1631L13.3592 36.6994C12.441 37.4854 11.9695 38.6752 12.1052 39.8792L12.2588 41.2797C12.3196 41.8013 12.4875 42.3051 12.759 42.7589L14.3489 45.4063C14.8277 46.203 15.5887 46.7889 16.4818 47.0427L18.6327 47.6572C20.2976 48.1324 21.4016 49.7151 21.273 51.4443L20.6442 59.9332C20.6013 60.5156 20.7013 61.105 20.93 61.6446L22.9058 66.25C23.1702 66.8716 23.6918 67.3468 24.3313 67.5612C25.8605 68.0721 27.4396 66.9324 27.4396 65.3211V64.3707C27.4396 63.5632 27.7612 62.7879 28.3328 62.2162L30.941 59.6081C31.627 58.9221 32.0128 57.9896 32.0128 57.0214V56.7641C32.0128 55.8459 32.3594 54.9598 32.9846 54.2847L36.8647 50.0759C37.2827 49.6257 37.5793 49.0791 37.7257 48.4824L37.9651 47.532C38.426 45.6885 37.0327 43.902 35.1283 43.902C34.0564 43.902 33.0668 43.3125 32.5559 42.3657L31.2197 39.8827C30.5802 38.6965 29.344 37.9569 27.9971 37.9569H23.0345C21.809 37.9569 20.6907 37.2638 20.144 36.1705C19.2044 34.2912 16.7462 33.7947 15.1527 35.1631ZM47.454 7.23841L49.8156 5.65921C50.4229 5.25548 51.1625 5.11257 51.8449 5.36624C52.8203 5.72709 54.378 6.4381 56.2502 7.77429C57.422 8.61032 58.4689 9.44633 59.3299 10.1716C60.5983 11.2435 60.3911 13.1871 58.9834 14.0695C58.4046 14.4304 57.7043 14.5483 57.0398 14.3982L48.851 12.5368C48.3079 12.4117 47.7434 12.4582 47.2254 12.6654L44.7387 13.6586C43.9241 13.9837 43.0059 13.9015 42.2663 13.4371L41.734 13.1048C40.605 12.401 40.1441 10.9933 40.6372 9.76072L40.8551 9.21408C41.3088 8.08862 42.445 7.39194 43.6526 7.50271L45.682 7.68492C46.3072 7.74209 46.9323 7.58497 47.454 7.23841ZM64.939 20.6652L60.6695 22.5338C60.1729 22.7518 59.6227 22.8161 59.0903 22.7232L53.288 21.6978C52.5521 21.5692 51.8983 21.1404 51.4838 20.5187L50.2619 18.6895C49.7224 17.8785 48.7934 17.414 47.8181 17.4712L42.7805 17.7677C42.0373 17.8106 41.3406 18.1536 40.8583 18.7217L39.5864 20.2044C39.1291 20.7368 38.8933 21.4298 38.929 22.1337L39.2398 28.0074C39.2934 29.0578 39.9436 29.9868 40.9154 30.3941L47.2429 33.0558C47.7466 33.2702 48.3076 33.3274 48.8435 33.2202L51.6016 32.6664C52.2412 32.5414 52.9022 32.645 53.4738 32.9594L55.2959 33.9741C56.1677 34.4564 56.7072 35.3746 56.7072 36.3714V38.658C56.7072 39.0975 56.8144 39.5333 57.018 39.9263L61.8842 49.251C62.0878 49.644 62.195 50.0799 62.195 50.5193V53.4061C62.195 54.0599 62.4308 54.6959 62.856 55.1925L63.0096 55.3711C64.0493 56.5858 65.875 56.6252 66.7932 55.314C68.8226 52.4057 71.7987 46.8607 71.7987 39.3289C71.7987 31.4687 69.6371 25.1237 68.2867 21.9225C67.7365 20.6184 66.236 20.0972 64.939 20.6652Z" fill="#035E46"/>
</g>
<defs>
<clipPath id="clip0_2929_7458">
<rect width="75" height="75" fill="white"/>
</clipPath>
</defs>
</svg>
