<svg width="75" height="75" viewBox="0 0 75 75" fill="none" xmlns="http://www.w3.org/2000/svg">
<g id="Symbols/Taxanomy" clip-path="url(#clip0_2929_7414)">
<path id="Vector" d="M21.0483 56.3008C25.8233 54.1551 30.9738 52.9698 36.2064 52.8124V38.7294H18.4736C18.5414 44.6754 19.4073 50.5853 21.0483 56.3008Z" fill="#035E46"/>
<path id="Vector_2" d="M38.7939 52.8124C44.0265 52.9698 49.1771 54.1551 53.9521 56.3008C55.593 50.5853 56.459 44.6754 56.5267 38.7294H38.7939V52.8124Z" fill="#035E46"/>
<path id="Vector_3" d="M36.2059 74.8734V55.4028C31.243 55.5619 26.3617 56.7095 21.8477 58.7782C25.0574 67.8948 30.2611 74.0821 36.2059 74.8734Z" fill="#035E46"/>
<path id="Vector_4" d="M38.7939 55.4028V74.8734C44.7388 74.0821 49.9425 67.8957 53.1522 58.7782C48.6382 56.7095 43.7569 55.5619 38.7939 55.4028Z" fill="#035E46"/>
<path id="Vector_5" d="M18.4736 36.1424H36.2064V22.0593C30.9738 21.902 25.8233 20.7167 21.0483 18.5709C19.4073 24.2864 18.5414 30.1964 18.4736 36.1424Z" fill="#035E46"/>
<path id="Vector_6" d="M38.7939 0V19.4705C43.7569 19.3114 48.6382 18.1639 53.1522 16.0951C49.9425 6.97853 44.7388 0.791211 38.7939 0Z" fill="#035E46"/>
<path id="Vector_7" d="M21.8477 16.0951C26.3617 18.1639 31.243 19.3114 36.2059 19.4705V0C30.2611 0.791211 25.0574 6.97853 21.8477 16.0951Z" fill="#035E46"/>
<path id="Vector_8" d="M53.9521 18.5709C49.1771 20.7167 44.0265 21.902 38.7939 22.0593V36.1424H56.5267C56.459 30.1964 55.593 24.2864 53.9521 18.5709Z" fill="#035E46"/>
<path id="Vector_9" d="M46.7803 1.06506C50.3412 4.12896 53.349 8.92195 55.5034 14.9039C58.1223 13.4658 60.5598 11.7197 62.7641 9.70281C58.2246 5.55711 52.7356 2.59083 46.7803 1.06506Z" fill="#035E46"/>
<path id="Vector_10" d="M56.3271 17.4097C58.1182 23.4947 59.0564 29.7988 59.1149 36.1416H74.9996C74.6876 26.9348 70.988 18.1673 64.6103 11.52C62.1103 13.8267 59.3269 15.8058 56.3271 17.4097Z" fill="#035E46"/>
<path id="Vector_11" d="M19.497 59.9664C16.8781 61.4045 14.4406 63.1506 12.2363 65.1675C16.7758 69.3132 22.2648 72.2795 28.2202 73.8053C24.6593 70.7405 21.6515 65.9484 19.497 59.9664Z" fill="#035E46"/>
<path id="Vector_12" d="M46.7803 73.8053C52.7356 72.2795 58.2246 69.3132 62.7641 65.1675C60.5598 63.1506 58.1223 61.4045 55.5034 59.9664C53.349 65.9484 50.3412 70.7405 46.7803 73.8053Z" fill="#035E46"/>
<path id="Vector_13" d="M56.3271 57.4613C59.3269 59.0652 62.1103 61.0443 64.6103 63.351C70.988 56.7037 74.6876 47.9361 74.9996 38.7294H59.1149C59.0564 45.0722 58.1182 51.3763 56.3271 57.4613Z" fill="#035E46"/>
<path id="Vector_14" d="M28.2202 1.06506C22.2648 2.59083 16.7758 5.55711 12.2363 9.70281C14.4406 11.7197 16.8781 13.4658 19.497 14.9039C21.6515 8.92195 24.6593 4.12982 28.2202 1.06506Z" fill="#035E46"/>
<path id="Vector_15" d="M0 36.1416H15.8846C15.9432 29.7988 16.8814 23.4947 18.6724 17.4097C15.6727 15.8058 12.8893 13.8267 10.3893 11.52C4.0115 18.1673 0.311947 26.9348 0 36.1416Z" fill="#035E46"/>
<path id="Vector_16" d="M15.8846 38.7294H0C0.311947 47.9361 4.0115 56.7037 10.3893 63.351C12.8893 61.0443 15.6727 59.0652 18.6724 57.4613C16.8814 51.3763 15.9432 45.0722 15.8846 38.7294Z" fill="#035E46"/>
</g>
<defs>
<clipPath id="clip0_2929_7414">
<rect width="75" height="75" fill="white"/>
</clipPath>
</defs>
</svg>
