<svg width="75" height="75" viewBox="0 0 75 75" fill="none" xmlns="http://www.w3.org/2000/svg">
<g id="Symbols/Taxanomy" clip-path="url(#clip0_2929_7452)">
<path id="Vector" d="M75.0493 37.4753V63.6341C75.0493 69.9133 69.9627 74.9999 63.6835 74.9999H50.0329H25.0164H11.3658C5.08668 74.9999 0 69.9049 0 63.6258V37.4753H0.108405V11.4415C0.108405 5.16237 5.19508 0.0756938 11.4742 0.0756938H25.1249H30.0197H30.1281H50.0329H63.6835C69.9627 0.067355 75.0493 5.16237 75.0493 11.4415V37.4753ZM37.483 10.716L36.2071 13.2594L33.3886 13.6513L35.415 15.6526L34.9146 18.4544L37.4413 17.1452L39.9513 18.4878L39.4843 15.6776L41.5356 13.7013L38.7171 13.276L37.483 10.716ZM24.0825 14.3267L24.2493 17.1703L22.0061 18.9214L24.7579 19.6386L25.7252 22.3153L27.2596 19.9137L30.1031 19.822L28.2936 17.6206L29.0858 14.8854L26.434 15.9194L24.0825 14.3267ZM14.2844 24.1582L15.8521 26.5348L14.7847 29.1698L17.5282 28.411L19.7046 30.2455L19.838 27.402L22.2563 25.901L19.5879 24.9003L18.9041 22.1402L17.1279 24.3667L14.2844 24.1582ZM10.707 37.5753L13.2504 38.8512L13.6423 41.6697L15.6436 39.6434L18.4455 40.1437L17.1363 37.617L18.4788 35.1071L15.6686 35.574L13.6923 33.5227L13.2671 36.3412L10.707 37.5753ZM14.3177 50.9758L17.1613 50.809L18.9124 53.0522L19.6296 50.3004L22.3063 49.3331L19.9048 47.7987L19.813 44.9552L17.6116 46.7647L14.8764 45.9725L15.9105 48.6243L14.3177 50.9758ZM24.1492 60.7739L26.5258 59.2062L29.1608 60.2736L28.402 57.5301L30.2365 55.3537L27.393 55.2203L25.892 52.802L24.8914 55.4704L22.1312 56.1542L24.3577 57.9304L24.1492 60.7739ZM37.5664 64.3513L38.8422 61.8079L41.6607 61.416L39.6344 59.4147L40.1347 56.6129L37.6081 57.9221L35.0981 56.5795L35.565 59.3897L33.5137 61.366L36.3322 61.7913L37.5664 64.3513ZM50.9668 60.7406L50.8001 57.897L53.0432 56.1459L50.2914 55.4287L49.3241 52.752L47.7898 55.1536L44.9462 55.2453L46.7557 57.4467L45.9636 60.1819L48.6153 59.1479L50.9668 60.7406ZM60.765 50.9091L59.1972 48.5325L60.2646 45.8975L57.5212 46.6563L55.3447 44.8218L55.2113 47.6653L52.793 49.1663L55.4615 50.167L56.1452 52.9271L57.9214 50.7006L60.765 50.9091ZM64.3423 37.492L61.799 36.2161L61.407 33.3976L59.4057 35.4239L56.6039 34.9236L57.9131 37.4503L56.5705 39.9602L59.3807 39.4933L61.357 41.5446L61.7823 38.7261L64.3423 37.492ZM60.7316 24.0915L57.8881 24.2583L56.1369 22.0151L55.4198 24.7669L52.743 25.7342L55.1446 27.2686L55.2363 30.1121L57.4378 28.3026L60.1729 29.0948L59.1389 26.443L60.7316 24.0915ZM50.9001 14.2934L48.5236 15.8611L45.8885 14.7937L46.6473 17.5372L44.8128 19.7136L47.6563 19.847L49.1573 22.2653L50.158 19.5969L52.9181 18.9131L50.6917 17.1369L50.9001 14.2934Z" fill="#035E46"/>
</g>
<defs>
<clipPath id="clip0_2929_7452">
<rect width="75" height="75" fill="white"/>
</clipPath>
</defs>
</svg>
