<svg width="75" height="62" viewBox="0 0 75 62" fill="none" xmlns="http://www.w3.org/2000/svg">
<g id="Group">
<path id="Vector" d="M55.4241 0.833252C54.9473 16.4731 28.8863 12.4082 33.9626 30.5633C33.9626 30.5829 33.9754 30.5947 33.9754 30.6143C34.0404 30.843 34.101 31.0744 34.1792 31.3161C34.1991 31.4403 34.2486 31.5368 34.2941 31.6479C34.9933 33.5359 36.3205 35.1918 38.0583 36.42C39.0186 36.0019 39.9757 35.5332 40.9166 34.9909C47.4951 31.1692 51.7602 25.1319 52.9361 18.9647C52.2371 22.989 50.4525 27.0654 47.5387 30.6781C45.2521 33.533 42.5284 35.7704 39.6278 37.3515C41.3654 37.9263 46.6843 39.3543 51.2902 37.4663C57.5552 34.8988 62.4994 26.1942 55.4241 0.833252ZM16.6731 31.6479C12.198 31.8373 5.25556 35.2263 1.61665 37.1601C0.231676 37.8983 -0.362126 39.5694 0.225781 41.0263L5.61041 54.3218C6.29632 56.0204 8.30341 56.7408 9.91039 55.8785L12.3094 54.6025C14.1646 53.6095 16.3798 53.5603 18.2809 54.4749L29.3435 59.834C34.583 62.3688 40.7629 62.0182 45.6758 58.9281L73.0836 41.7025C75.1089 40.4482 75.6182 37.6775 74.181 35.7437C73.3577 34.6658 72.1309 34.085 70.8635 34.085C70.0729 34.085 69.2848 34.2974 68.5923 34.7612L52.1194 43.8972C52.2175 44.3022 52.247 44.7227 52.247 45.1604C52.247 46.7544 51.5968 48.3175 50.4862 49.4477C49.3755 50.5844 47.8579 51.2399 46.2244 51.2595H44.872C38.2343 51.2595 30.0053 50.9122 25.7198 49.3966L23.8949 48.5289C23.5292 48.4505 23.2825 48.1105 23.2825 47.7251C23.2825 47.2417 23.6605 46.8447 24.1374 46.8447C24.2158 46.8447 24.4624 46.9212 24.4819 46.9212C25.1681 47.1499 25.7906 47.3694 26.3067 47.572C30.7948 49.1791 40.351 49.3782 45.9693 49.3455C48.1317 49.3324 50.0724 47.7818 50.3076 45.6325C50.5754 43.1565 48.6986 41.0601 46.3011 40.9752C41.4014 40.8053 33.5452 40.1146 31.2064 37.3642C27.7112 33.3203 22.9512 31.3604 16.6731 31.6479Z" fill="#035E46"/>
</g>
</svg>
