<svg width="75" height="75" viewBox="0 0 75 75" fill="none" xmlns="http://www.w3.org/2000/svg">
<g id="Symbols/Taxanomy">
<path id="Vector" d="M63.2634 38.1799L38.9223 21.718C38.5004 21.4326 38.0027 21.28 37.4933 21.28C36.9839 21.28 36.4862 21.4326 36.0643 21.718L11.732 38.1799C11.3878 38.4138 11.106 38.7285 10.9114 39.0963C10.7167 39.4642 10.615 39.8742 10.6152 40.2904V66.6716C10.6152 67.3479 10.8839 67.9966 11.3622 68.4748C11.8404 68.9531 12.4891 69.2218 13.1654 69.2218H20.2004V48.8115C20.2004 48.506 20.3218 48.213 20.5378 47.9969C20.7539 47.7809 21.0469 47.6595 21.3524 47.6595H29.7064C30.012 47.6595 30.305 47.7809 30.521 47.9969C30.7371 48.213 30.8584 48.506 30.8584 48.8115V69.2042H61.83C62.5063 69.2042 63.155 68.9355 63.6332 68.4573C64.1115 67.979 64.3802 67.3304 64.3802 66.654V40.2728C64.3775 39.8596 64.2745 39.4532 64.0799 39.0886C63.8854 38.724 63.6052 38.4121 63.2634 38.1799ZM55.349 55.3013C55.349 55.5205 55.2619 55.7308 55.1069 55.8858C54.9519 56.0408 54.7416 56.1279 54.5224 56.1279H45.4648C45.2456 56.1279 45.0353 56.0408 44.8803 55.8858C44.7253 55.7308 44.6382 55.5205 44.6382 55.3013V47.6068C44.6382 47.3875 44.7253 47.1773 44.8803 47.0223C45.0353 46.8672 45.2456 46.7802 45.4648 46.7802H54.4784C54.6976 46.7802 54.9079 46.8672 55.0629 47.0223C55.2179 47.1773 55.305 47.3875 55.305 47.6068L55.349 55.3013Z" fill="#035E46"/>
<path id="Vector_2" d="M73.8685 29.8179L64.38 23.4776V12.7229C64.38 12.443 64.2689 12.1746 64.071 11.9767C63.8731 11.7788 63.6047 11.6676 63.3248 11.6676H56.9053C56.6255 11.6676 56.3571 11.7788 56.1592 11.9767C55.9613 12.1746 55.8501 12.443 55.8501 12.7229V17.7001L38.9134 6.26825C38.4924 5.98471 37.9963 5.83325 37.4888 5.83325C36.9812 5.83325 36.4852 5.98471 36.0642 6.26825L1.12666 29.8179C0.825895 30.0202 0.571723 30.2844 0.381095 30.5927C0.190466 30.901 0.067761 31.2465 0.0211604 31.6059C-0.0254402 31.9654 0.0051348 32.3307 0.110847 32.6775C0.216559 33.0242 0.39498 33.3444 0.634211 33.6168L3.51856 36.8968C3.9275 37.3604 4.4909 37.6596 5.10396 37.7389C5.71702 37.8182 6.33799 37.6721 6.85138 37.3277L36.073 17.7001C36.4931 17.4185 36.9874 17.2681 37.4932 17.2681C37.9989 17.2681 38.4933 17.4185 38.9134 17.7001L68.1437 37.3365C68.6571 37.6808 69.2781 37.827 69.8912 37.7477C70.5042 37.6684 71.0676 37.3692 71.4766 36.9056L74.3609 33.6256C74.6017 33.3531 74.7814 33.0323 74.888 32.6846C74.9946 32.337 75.0256 31.9706 74.9789 31.61C74.9323 31.2493 74.8091 30.9029 74.6176 30.5938C74.426 30.2847 74.1706 30.0202 73.8685 29.8179Z" fill="#035E46"/>
</g>
</svg>
