<svg width="75" height="75" viewBox="0 0 75 75" fill="none" xmlns="http://www.w3.org/2000/svg">
<g id="Symbols/Taxanomy">
<path id="Vector" d="M57.9206 69.5845V59.256H62.8015C67.7001 59.256 71.6667 55.2693 71.6667 50.3498C71.6667 48.4569 71.0777 46.7031 70.0737 45.2602C70.6187 44.1029 70.9281 42.8094 70.9281 41.4435C70.9281 36.9364 67.5926 33.2117 63.2633 32.6209C61.8825 29.5134 58.7788 27.3444 55.1713 27.3444C55.0413 27.3444 54.916 27.3594 54.788 27.3622C56.4679 29.8506 57.384 32.8003 57.384 35.9096C57.384 44.333 50.5643 51.1867 42.1825 51.1867H37.4839C37.9037 55.7127 41.6926 59.2579 46.3098 59.2579H51.7656V68.802C47.3971 68.3727 42.5031 68.1322 37.3353 68.1322C35.674 68.1322 34.0418 68.1576 32.4432 68.2055V49.2018H37.5204H42.1825C49.478 49.2018 55.4115 43.2396 55.4115 35.9106C55.4115 32.8858 54.4112 30.0348 52.6051 27.7258C51.9142 26.8446 51.1131 26.0405 50.1988 25.3407L49.8576 25.0786L49.8174 24.6493C49.3331 19.8115 46.2547 15.6294 41.7889 13.7375L41.2065 13.4904L41.185 12.8554C40.9513 5.64473 35.1468 0 27.9672 0C22.7591 0 18.0157 3.0915 15.887 7.87951L15.6645 8.38396L15.1195 8.45817C8.59989 9.34588 3.68539 15.0066 3.68539 21.6264C3.68539 23.6169 4.11261 25.5323 4.95772 27.319L5.20452 27.8394L4.87545 28.3119C3.3208 30.5495 2.5 33.177 2.5 35.9087C2.5 43.2377 8.43442 49.2 15.73 49.2H24.5447V68.6498C12.4113 69.6831 3.87423 72.1368 3.87423 75H70.8001C70.7991 72.799 65.7575 70.8423 57.9206 69.5845Z" fill="#035E46"/>
</g>
</svg>
